# Blender v2.79 (sub 0) OBJ File: ''
# www.blender.org
mtllib pollo_000033.mtl
o Cube.001_Cube.002
v -0.191702 0.427449 1.558730
v -0.068377 2.347786 1.013667
v -0.973308 1.914804 -0.716542
v -1.096633 -0.005534 -0.171479
v 1.587593 0.074138 0.716543
v 1.710917 1.994476 0.171479
v 0.805987 1.561492 -1.558730
v 0.682662 -0.358845 -1.013667
vn -0.8896 0.1767 0.4211
vn 0.8896 -0.1767 -0.4211
vn 0.4525 0.2165 0.8651
vn 0.0617 0.9602 -0.2725
vn -0.4525 -0.2165 -0.8651
vn -0.0617 -0.9602 0.2725
usemtl Material.001
s 1
f 1//1 2//1 3//1 4//1
f 5//2 8//2 7//2 6//2
f 1//3 5//3 6//3 2//3
f 2//4 6//4 7//4 3//4
f 3//5 7//5 8//5 4//5
f 5//6 1//6 4//6 8//6
