# Blender v2.79 (sub 0) OBJ File: ''
# www.blender.org
mtllib pollo_000014.mtl
o Cube.001_Cube.002
v 1.159927 -0.254299 0.844590
v 0.429320 1.411157 1.676736
v -1.281055 1.163847 0.670031
v -0.550447 -0.501610 -0.162115
v 1.895339 0.825096 -0.670031
v 1.164732 2.490552 0.162115
v -0.545642 2.243241 -0.844590
v 0.184964 0.577784 -1.676736
vn -0.3677 -0.5397 0.7573
vn 0.3677 0.5397 -0.7573
vn 0.8552 0.1237 0.5034
vn -0.3653 0.8327 0.4161
vn -0.8552 -0.1237 -0.5034
vn 0.3653 -0.8327 -0.4161
usemtl Material.001
s 1
f 1//1 2//1 3//1 4//1
f 5//2 8//2 7//2 6//2
f 1//3 5//3 6//3 2//3
f 2//4 6//4 7//4 3//4
f 3//5 7//5 8//5 4//5
f 5//6 1//6 4//6 8//6
