# Blender v2.79 (sub 0) OBJ File: ''
# www.blender.org
mtllib pollo_000012.mtl
o Cube.001_Cube.002
v 1.361796 -0.318791 0.403793
v 0.675028 1.048591 1.691665
v -1.157968 0.860376 0.914040
v -0.471200 -0.507006 -0.373833
v 1.772253 1.128566 -0.914039
v 1.085484 2.495948 0.373833
v -0.747511 2.307733 -0.403793
v -0.060743 0.940351 -1.691665
vn -0.2052 -0.7237 0.6589
vn 0.2052 0.7237 -0.6589
vn 0.9165 0.0941 0.3888
vn -0.3434 0.6837 0.6439
vn -0.9165 -0.0941 -0.3888
vn 0.3434 -0.6837 -0.6439
usemtl Material.001
s 1
f 1//1 2//1 3//1 4//1
f 5//2 8//2 7//2 6//2
f 1//3 5//3 6//3 2//3
f 2//4 6//4 7//4 3//4
f 3//5 7//5 8//5 4//5
f 5//6 1//6 4//6 8//6
