# Blender v2.79 (sub 0) OBJ File: ''
# www.blender.org
mtllib pollo_000028.mtl
o Cube.001_Cube.002
v -0.124884 0.427450 1.578556
v -0.024877 2.347787 1.028736
v -1.002655 1.914804 -0.661375
v -1.102662 -0.005533 -0.111554
v 1.616940 0.074138 0.661375
v 1.716946 1.994475 0.111554
v 0.739168 1.561491 -1.578557
v 0.639162 -0.358845 -1.028736
vn -0.8709 0.1767 0.4586
vn 0.8709 -0.1767 -0.4586
vn 0.4889 0.2165 0.8451
vn 0.0500 0.9602 -0.2749
vn -0.4889 -0.2165 -0.8451
vn -0.0500 -0.9602 0.2749
usemtl Material.001
s 1
f 1//1 2//1 3//1 4//1
f 5//2 8//2 7//2 6//2
f 1//3 5//3 6//3 2//3
f 2//4 6//4 7//4 3//4
f 3//5 7//5 8//5 4//5
f 5//6 1//6 4//6 8//6
