# Blender v2.79 (sub 0) OBJ File: ''
# www.blender.org
mtllib pollo_000008.mtl
o Cube.001_Cube.002
v 1.449298 -0.232280 -0.436534
v 1.100249 0.410699 1.424848
v -0.868767 0.329152 1.083784
v -0.519718 -0.313827 -0.777598
v 1.483052 1.659790 -1.083784
v 1.134002 2.302769 0.777598
v -0.835014 2.221222 0.436534
v -0.485965 1.578243 -1.424848
vn -0.0169 -0.9460 0.3236
vn 0.0169 0.9460 -0.3236
vn 0.9845 0.0408 0.1705
vn -0.1745 0.3215 0.9307
vn -0.9845 -0.0408 -0.1705
vn 0.1745 -0.3215 -0.9307
usemtl Material.001
s 1
f 1//1 2//1 3//1 4//1
f 5//2 8//2 7//2 6//2
f 1//3 5//3 6//3 2//3
f 2//4 6//4 7//4 3//4
f 3//5 7//5 8//5 4//5
f 5//6 1//6 4//6 8//6
