# Blender v2.79 (sub 0) OBJ File: ''
# www.blender.org
mtllib pollo_000030.mtl
o Cube.001_Cube.002
v -0.154729 0.427448 1.570083
v -0.044320 2.347786 1.022258
v -0.989883 1.914803 -0.686085
v -1.100292 -0.005535 -0.138260
v 1.604168 0.074139 0.686085
v 1.714577 1.994477 0.138260
v 0.769014 1.561493 -1.570083
v 0.658605 -0.358844 -1.022258
vn -0.8794 0.1767 0.4420
vn 0.8794 -0.1767 -0.4420
vn 0.4728 0.2165 0.8542
vn 0.0552 0.9602 -0.2739
vn -0.4728 -0.2165 -0.8542
vn -0.0552 -0.9602 0.2739
usemtl Material.001
s 1
f 1//1 2//1 3//1 4//1
f 5//2 8//2 7//2 6//2
f 1//3 5//3 6//3 2//3
f 2//4 6//4 7//4 3//4
f 3//5 7//5 8//5 4//5
f 5//6 1//6 4//6 8//6
