# Blender v2.79 (sub 0) OBJ File: ''
# www.blender.org
mtllib pollo_000025.mtl
o Cube.001_Cube.002
v -0.073324 0.427449 1.591770
v 0.008750 2.347786 1.038990
v -1.023469 1.914804 -0.618433
v -1.105543 -0.005534 -0.065653
v 1.637754 0.074138 0.618434
v 1.719828 1.994476 0.065653
v 0.687609 1.561493 -1.591770
v 0.605535 -0.358844 -1.038989
vn -0.8555 0.1767 0.4867
vn 0.8555 -0.1767 -0.4867
vn 0.5161 0.2165 0.8287
vn 0.0410 0.9602 -0.2764
vn -0.5161 -0.2165 -0.8287
vn -0.0410 -0.9602 0.2764
usemtl Material.001
s 1
f 1//1 2//1 3//1 4//1
f 5//2 8//2 7//2 6//2
f 1//3 5//3 6//3 2//3
f 2//4 6//4 7//4 3//4
f 3//5 7//5 8//5 4//5
f 5//6 1//6 4//6 8//6
