# Blender v2.79 (sub 0) OBJ File: ''
# www.blender.org
mtllib pollo_000018.mtl
o Cube.001_Cube.002
v 0.559380 0.054254 1.432609
v 0.106850 2.002013 1.394540
v -1.296415 1.649003 0.013876
v -0.843885 -0.298757 0.051945
v 1.910700 0.339940 -0.013876
v 1.458169 2.287699 -0.051946
v 0.054904 1.934688 -1.432609
v 0.507435 -0.013071 -1.394540
vn -0.6757 -0.1428 0.7232
vn 0.6757 0.1428 -0.7232
vn 0.7016 0.1765 0.6903
vn -0.2263 0.9739 -0.0190
vn -0.7016 -0.1765 -0.6903
vn 0.2263 -0.9739 0.0190
usemtl Material.001
s 1
f 1//1 2//1 3//1 4//1
f 5//2 8//2 7//2 6//2
f 1//3 5//3 6//3 2//3
f 2//4 6//4 7//4 3//4
f 3//5 7//5 8//5 4//5
f 5//6 1//6 4//6 8//6
