# Blender v2.79 (sub 0) OBJ File: ''
# www.blender.org
mtllib pollo_000001.mtl
o Cube.001_Cube.002
v 1.307142 -0.005529 -1.000000
v 1.307142 -0.005529 1.000000
v -0.692858 -0.005529 1.000000
v -0.692857 -0.005529 -1.000000
v 1.307143 1.994471 -0.999999
v 1.307142 1.994471 1.000001
v -0.692858 1.994471 1.000000
v -0.692858 1.994471 -1.000000
vn 0.0000 -1.0000 0.0000
vn 0.0000 1.0000 0.0000
vn 1.0000 0.0000 0.0000
vn -0.0000 -0.0000 1.0000
vn -1.0000 -0.0000 -0.0000
vn 0.0000 0.0000 -1.0000
usemtl Material.001
s 1
f 1//1 2//1 3//1 4//1
f 5//2 8//2 7//2 6//2
f 1//3 5//3 6//3 2//3
f 2//4 6//4 7//4 3//4
f 3//5 7//5 8//5 4//5
f 5//6 1//6 4//6 8//6
