# Blender v2.79 (sub 0) OBJ File: ''
# www.blender.org
mtllib pollo_000040.mtl
o Cube.001_Cube.002
v -0.239377 0.426929 1.542470
v -0.100048 2.347429 1.001849
v -0.950937 1.914446 -0.755568
v -1.090266 -0.006053 -0.214947
v 1.565222 0.074497 0.755568
v 1.704550 1.994996 0.214946
v 0.853661 1.562012 -1.542470
v 0.714333 -0.358487 -1.001849
vn -0.9023 0.1762 0.3935
vn 0.9023 -0.1762 -0.3935
vn 0.4254 0.2165 0.8787
vn 0.0697 0.9602 -0.2703
vn -0.4254 -0.2165 -0.8787
vn -0.0697 -0.9602 0.2703
usemtl Material.001
s 1
f 1//1 2//1 3//1 4//1
f 5//2 8//2 7//2 6//2
f 1//3 5//3 6//3 2//3
f 2//4 6//4 7//4 3//4
f 3//5 7//5 8//5 4//5
f 5//6 1//6 4//6 8//6
