# Blender v2.79 (sub 0) OBJ File: ''
# www.blender.org
mtllib pollo_000004.mtl
o Cube.001_Cube.002
v 1.344220 -0.056863 -0.905079
v 1.280282 0.064705 1.090199
v -0.718664 0.049560 1.027066
v -0.654726 -0.072008 -0.968211
v 1.332948 1.939382 -1.027066
v 1.269010 2.060950 0.968212
v -0.729936 2.045805 0.905078
v -0.665998 1.924237 -1.090199
vn 0.0056 -0.9981 0.0610
vn -0.0056 0.9981 -0.0610
vn 0.9995 0.0076 0.0316
vn -0.0320 0.0608 0.9976
vn -0.9995 -0.0076 -0.0316
vn 0.0320 -0.0608 -0.9976
usemtl Material.001
s 1
f 1//1 2//1 3//1 4//1
f 5//2 8//2 7//2 6//2
f 1//3 5//3 6//3 2//3
f 2//4 6//4 7//4 3//4
f 3//5 7//5 8//5 4//5
f 5//6 1//6 4//6 8//6
