# Blender v2.79 (sub 0) OBJ File: ''
# www.blender.org
mtllib pollo_000035.mtl
o Cube.001_Cube.002
v -0.210783 0.427449 1.552494
v -0.080782 2.347787 1.008985
v -0.964423 1.914804 -0.732194
v -1.094424 -0.005534 -0.188684
v 1.578708 0.074138 0.732194
v 1.708709 1.994476 0.188684
v 0.825068 1.561492 -1.552495
v 0.695066 -0.358845 -1.008985
vn -0.8947 0.1767 0.4102
vn 0.8947 -0.1767 -0.4102
vn 0.4418 0.2165 0.8706
vn 0.0650 0.9602 -0.2718
vn -0.4418 -0.2165 -0.8706
vn -0.0650 -0.9602 0.2718
usemtl Material.001
s 1
f 1//1 2//1 3//1 4//1
f 5//2 8//2 7//2 6//2
f 1//3 5//3 6//3 2//3
f 2//4 6//4 7//4 3//4
f 3//5 7//5 8//5 4//5
f 5//6 1//6 4//6 8//6
