# Blender v2.79 (sub 0) OBJ File: ''
# www.blender.org
mtllib pollo_000027.mtl
o Cube.001_Cube.002
v -0.108546 0.427448 1.582936
v -0.014229 2.347786 1.032114
v -1.009421 1.914803 -0.647803
v -1.103738 -0.005535 -0.096980
v 1.623706 0.074139 0.647803
v 1.718022 1.994477 0.096979
v 0.722831 1.561493 -1.582937
v 0.628514 -0.358844 -1.032114
vn -0.8661 0.1767 0.4676
vn 0.8661 -0.1767 -0.4676
vn 0.4976 0.2165 0.8400
vn 0.0472 0.9602 -0.2754
vn -0.4976 -0.2165 -0.8400
vn -0.0472 -0.9602 0.2754
usemtl Material.001
s 1
f 1//1 2//1 3//1 4//1
f 5//2 8//2 7//2 6//2
f 1//3 5//3 6//3 2//3
f 2//4 6//4 7//4 3//4
f 3//5 7//5 8//5 4//5
f 5//6 1//6 4//6 8//6
