# Blender v2.79 (sub 0) OBJ File: ''
# www.blender.org
mtllib pollo_000020.mtl
o Cube.001_Cube.002
v 0.281731 0.222553 1.550322
v 0.050614 2.183634 1.232917
v -1.206064 1.791825 -0.272821
v -0.974947 -0.169255 0.044584
v 1.820349 0.197117 0.272821
v 1.589231 2.158198 -0.044585
v 0.332553 1.766388 -1.550322
v 0.563671 -0.194692 -1.232917
vn -0.7693 0.0127 0.6388
vn 0.7693 -0.0127 -0.6388
vn 0.6283 0.1959 0.7529
vn -0.1156 0.9805 -0.1587
vn -0.6283 -0.1959 -0.7529
vn 0.1156 -0.9805 0.1587
usemtl Material.001
s 1
f 1//1 2//1 3//1 4//1
f 5//2 8//2 7//2 6//2
f 1//3 5//3 6//3 2//3
f 2//4 6//4 7//4 3//4
f 3//5 7//5 8//5 4//5
f 5//6 1//6 4//6 8//6
