# Blender v2.79 (sub 0) OBJ File: ''
# www.blender.org
mtllib pollo_000031.mtl
o Cube.001_Cube.002
v -0.168136 0.427449 1.566077
v -0.053046 2.347786 1.019216
v -0.983970 1.914804 -0.697148
v -1.099060 -0.005534 -0.150288
v 1.598254 0.074138 0.697149
v 1.713344 1.994476 0.150287
v 0.782421 1.561493 -1.566077
v 0.667331 -0.358845 -1.019216
vn -0.8832 0.1767 0.4345
vn 0.8832 -0.1767 -0.4345
vn 0.4655 0.2165 0.8582
vn 0.0575 0.9602 -0.2734
vn -0.4655 -0.2165 -0.8582
vn -0.0575 -0.9602 0.2734
usemtl Material.001
s 1
f 1//1 2//1 3//1 4//1
f 5//2 8//2 7//2 6//2
f 1//3 5//3 6//3 2//3
f 2//4 6//4 7//4 3//4
f 3//5 7//5 8//5 4//5
f 5//6 1//6 4//6 8//6
