# Blender v2.79 (sub 0) OBJ File: ''
# www.blender.org
mtllib pollo_000009.mtl
o Cube.001_Cube.002
v 1.459564 -0.273555 -0.253049
v 1.015390 0.546994 1.515965
v -0.932703 0.441620 1.075704
v -0.488529 -0.378930 -0.693309
v 1.546988 1.547322 -1.075704
v 1.102813 2.367872 0.693310
v -0.845280 2.262497 0.253048
v -0.401106 1.441948 -1.515965
vn -0.0437 -0.9104 0.4113
vn 0.0437 0.9104 -0.4113
vn 0.9740 0.0527 0.2201
vn -0.2221 0.4103 0.8845
vn -0.9740 -0.0527 -0.2201
vn 0.2221 -0.4103 -0.8845
usemtl Material.001
s 1
f 1//1 2//1 3//1 4//1
f 5//2 8//2 7//2 6//2
f 1//3 5//3 6//3 2//3
f 2//4 6//4 7//4 3//4
f 3//5 7//5 8//5 4//5
f 5//6 1//6 4//6 8//6
