# Blender v2.79 (sub 0) OBJ File: ''
# www.blender.org
mtllib pollo_000007.mtl
o Cube.001_Cube.002
v 1.427189 -0.185587 -0.594103
v 1.167694 0.294216 1.330073
v -0.815398 0.233873 1.077679
v -0.555903 -0.245931 -0.846496
v 1.429683 1.755069 -1.077679
v 1.170187 2.234873 0.846497
v -0.812905 2.174529 0.594102
v -0.553409 1.694726 -1.330073
vn -0.0012 -0.9703 0.2418
vn 0.0012 0.9703 -0.2418
vn 0.9915 0.0302 0.1262
vn -0.1297 0.2399 0.9621
vn -0.9915 -0.0302 -0.1262
vn 0.1297 -0.2399 -0.9621
usemtl Material.001
s 1
f 1//1 2//1 3//1 4//1
f 5//2 8//2 7//2 6//2
f 1//3 5//3 6//3 2//3
f 2//4 6//4 7//4 3//4
f 3//5 7//5 8//5 4//5
f 5//6 1//6 4//6 8//6
