# Blender v2.79 (sub 0) OBJ File: ''
# www.blender.org
mtllib pollo_000032.mtl
o Cube.001_Cube.002
v -0.180471 0.427448 1.562280
v -0.061072 2.347786 1.016345
v -0.978432 1.914804 -0.707308
v -1.097831 -0.005534 -0.161372
v 1.592717 0.074138 0.707308
v 1.712115 1.994476 0.161372
v 0.794755 1.561494 -1.562280
v 0.675357 -0.358844 -1.016344
vn -0.8866 0.1767 0.4275
vn 0.8866 -0.1767 -0.4275
vn 0.4587 0.2165 0.8618
vn 0.0597 0.9602 -0.2730
vn -0.4587 -0.2165 -0.8618
vn -0.0597 -0.9602 0.2730
usemtl Material.001
s 1
f 1//1 2//1 3//1 4//1
f 5//2 8//2 7//2 6//2
f 1//3 5//3 6//3 2//3
f 2//4 6//4 7//4 3//4
f 3//5 7//5 8//5 4//5
f 5//6 1//6 4//6 8//6
