# Blender v2.79 (sub 0) OBJ File: ''
# www.blender.org
mtllib pollo_000016.mtl
o Cube.001_Cube.002
v 0.872370 -0.118838 1.200441
v 0.230357 1.740645 1.561195
v -1.330779 1.436908 0.348513
v -0.688766 -0.422574 -0.012240
v 1.945064 0.552034 -0.348513
v 1.303050 2.411516 0.012240
v -0.258086 2.107780 -1.200442
v 0.383927 0.248297 -1.561194
vn -0.5363 -0.3354 0.7745
vn 0.5363 0.3354 -0.7745
vn 0.7806 0.1519 0.6063
vn -0.3210 0.9297 0.1804
vn -0.7806 -0.1519 -0.6063
vn 0.3210 -0.9297 -0.1804
usemtl Material.001
s 1
f 1//1 2//1 3//1 4//1
f 5//2 8//2 7//2 6//2
f 1//3 5//3 6//3 2//3
f 2//4 6//4 7//4 3//4
f 3//5 7//5 8//5 4//5
f 5//6 1//6 4//6 8//6
