# Blender v2.79 (sub 0) OBJ File: ''
# www.blender.org
mtllib pollo_000042.mtl
o Cube.001_Cube.002
v -0.245187 0.427449 1.540590
v -0.103129 2.347786 1.000107
v -0.947823 1.914804 -0.760297
v -1.089880 -0.005534 -0.219813
v 1.562107 0.074139 0.760297
v 1.704165 1.994476 0.219812
v 0.859472 1.561493 -1.540590
v 0.717414 -0.358845 -1.000107
vn -0.9036 0.1767 0.3901
vn 0.9036 -0.1767 -0.3901
vn 0.4223 0.2165 0.8802
vn 0.0710 0.9602 -0.2702
vn -0.4223 -0.2165 -0.8802
vn -0.0710 -0.9602 0.2702
usemtl Material.001
s 1
f 1//1 2//1 3//1 4//1
f 5//2 8//2 7//2 6//2
f 1//3 5//3 6//3 2//3
f 2//4 6//4 7//4 3//4
f 3//5 7//5 8//5 4//5
f 5//6 1//6 4//6 8//6
