# Blender v2.79 (sub 0) OBJ File: ''
# www.blender.org
mtllib pollo_000034.mtl
o Cube.001_Cube.002
v -0.201808 0.427449 1.555460
v -0.074948 2.347786 1.011209
v -0.968631 1.914804 -0.724838
v -1.095490 -0.005534 -0.180586
v 1.582916 0.074139 0.724838
v 1.709775 1.994476 0.180586
v 0.816092 1.561493 -1.555460
v 0.689233 -0.358845 -1.011209
vn -0.8924 0.1767 0.4153
vn 0.8924 -0.1767 -0.4153
vn 0.4468 0.2165 0.8680
vn 0.0634 0.9602 -0.2721
vn -0.4468 -0.2165 -0.8680
vn -0.0634 -0.9602 0.2721
usemtl Material.001
s 1
f 1//1 2//1 3//1 4//1
f 5//2 8//2 7//2 6//2
f 1//3 5//3 6//3 2//3
f 2//4 6//4 7//4 3//4
f 3//5 7//5 8//5 4//5
f 5//6 1//6 4//6 8//6
