# Blender v2.79 (sub 6) OBJ File: 'bailarina.blend1'
# www.blender.org
mtllib Flauta2_000014.mtl
o f2_Flauta_1:pCylinder3
v -3.059077 10.472824 1.950918
v -3.179530 10.348795 2.175106
v -2.984568 10.236563 2.396908
v -2.669424 10.249212 2.392911
v -2.550813 10.373601 2.167936
v -2.745508 10.484975 1.947754
v -2.798305 5.874060 -0.222456
v -2.763472 5.909875 -0.287190
v -2.680854 5.914972 -0.291566
v -2.632648 5.884403 -0.231458
v -2.667018 5.848498 -0.166527
v -2.750055 5.843253 -0.161901
v -2.663221 10.156647 2.066295
v -2.790701 10.222955 1.934486
v -2.925174 10.082865 2.187804
v -2.729877 10.086486 2.193207
v -2.648392 9.956819 1.963095
v -2.577981 9.764361 1.843016
v -2.742934 9.859038 1.655878
v -2.783716 10.024943 1.827402
v -2.918945 9.883940 2.082380
v -2.946556 9.647492 2.038371
v -2.679019 9.658434 2.034598
v -2.715399 9.886196 2.090847
v -2.641754 9.579976 1.755486
v -2.569513 7.145213 0.432559
v -2.677913 7.214898 0.295630
v -2.769313 9.647615 1.621185
v -2.908193 9.503038 1.882610
v -2.836615 7.050422 0.592992
v -2.648334 7.062870 0.581469
v -2.710613 9.507572 1.886450
v -2.561695 6.843254 0.271140
v -2.574950 6.314713 0.049879
v -2.686920 6.374104 -0.068040
v -2.668795 6.912106 0.135850
v -2.825596 6.749600 0.429650
v -2.814298 6.242092 0.170629
v -2.635793 6.258501 0.151097
v -2.639570 6.761899 0.418264
v -2.562713 6.109199 -0.049845
v -2.679981 6.172719 -0.175809
v -2.807415 6.040647 0.062968
v -2.616435 6.053353 0.051131
v -2.985052 10.219600 1.928647
v -3.052873 10.149667 2.055058
v -2.986285 10.022952 1.818502
v -3.009143 9.848516 1.658947
v -3.054510 9.952568 1.945733
v -3.111733 9.742893 1.849866
v -2.965936 9.643356 1.616892
v -2.865236 7.202789 0.306580
v -3.035961 9.571180 1.747358
v -2.945119 7.120654 0.455037
v -2.853873 6.900142 0.146669
v -2.859958 6.370204 -0.071536
v -2.932799 6.818990 0.293347
v -2.909682 6.311827 0.034418
v -2.863350 6.167733 -0.177919
v -2.917346 6.111940 -0.077060
v -2.597504 6.873349 0.553000
v -2.485695 6.990156 0.341765
v -2.639463 7.089008 0.147524
v -2.905188 7.071832 0.163057
v -3.018507 6.955318 0.373649
v -2.864589 6.855692 0.569347
vt 0.702577 0.155012
vt 0.702394 0.195958
vt 0.661476 0.216292
vt 0.620892 0.195458
vt 0.621370 0.154514
vt 0.662138 0.134403
vt 0.774035 0.140274
vt 0.774082 0.152100
vt 0.763676 0.158055
vt 0.753188 0.152248
vt 0.753068 0.140422
vt 0.763510 0.134403
vt 0.340220 0.869931
vt 0.355018 0.835822
vt 0.380841 0.835822
vt 0.380989 0.869931
vt 0.575158 0.134403
vt 0.575252 0.168512
vt 0.549546 0.168512
vt 0.534573 0.134403
vt 0.467619 0.134403
vt 0.458844 0.168512
vt 0.435764 0.168512
vt 0.426674 0.134403
vt 0.353739 0.803249
vt 0.346351 0.770227
vt 0.380933 0.770227
vt 0.380852 0.803249
vt 0.575245 0.201085
vt 0.575205 0.234107
vt 0.540778 0.234107
vt 0.548253 0.201085
vt 0.458915 0.201085
vt 0.464632 0.234107
vt 0.429763 0.234107
vt 0.435687 0.201085
vt 0.354846 0.741026
vt 0.357122 0.340135
vt 0.380831 0.340135
vt 0.380854 0.741026
vt 0.575266 0.263308
vt 0.575280 0.664199
vt 0.551677 0.664199
vt 0.549374 0.263308
vt 0.459207 0.263308
vt 0.460826 0.664199
vt 0.433705 0.664199
vt 0.435384 0.263308
vt 0.357404 0.290603
vt 0.357944 0.208198
vt 0.380776 0.208198
vt 0.380829 0.290603
vt 0.474302 0.713731
vt 0.476098 0.796136
vt 0.461739 0.796136
vt 0.460667 0.713731
vt 0.442837 0.796136
vt 0.433871 0.713731
vt 0.356659 0.175148
vt 0.380745 0.175148
vt 0.476107 0.829186
vt 0.462087 0.829186
vt 0.443679 0.829186
vt 0.370235 0.134403
vt 0.380723 0.134403
vt 0.707211 0.158529
vt 0.747956 0.158411
vt 0.747956 0.168852
vt 0.707211 0.182460
vt 0.453313 0.869931
vt 0.441487 0.869931
vt 0.421428 0.869931
vt 0.406455 0.835822
vt 0.616075 0.134403
vt 0.601169 0.168512
vt 0.488612 0.134403
vt 0.529558 0.134403
vt 0.520686 0.168512
vt 0.497605 0.168512
vt 0.407748 0.803249
vt 0.415237 0.770227
vt 0.602457 0.201085
vt 0.609913 0.234107
vt 0.497531 0.201085
vt 0.520760 0.201085
vt 0.526541 0.234107
vt 0.491670 0.234107
vt 0.406654 0.741026
vt 0.404351 0.340135
vt 0.601368 0.263308
vt 0.599075 0.664199
vt 0.497231 0.263308
vt 0.521055 0.263308
vt 0.522693 0.664199
vt 0.495571 0.664199
vt 0.404066 0.290603
vt 0.403461 0.208198
vt 0.482429 0.713731
vt 0.495735 0.713731
vt 0.494684 0.796136
vt 0.480633 0.796136
vt 0.522532 0.713731
vt 0.513573 0.796136
vt 0.404672 0.175148
vt 0.494305 0.829186
vt 0.480624 0.829186
vt 0.512714 0.829186
vt 0.391128 0.134403
vt 0.707211 0.134403
vt 0.747956 0.147885
vt 0.515097 0.869931
vt 0.503271 0.869931
vt 0.466402 0.690512
vt 0.427930 0.690512
vt 0.380929 0.313822
vt 0.347296 0.313822
vt 0.414292 0.313822
vt 0.489856 0.690512
vt 0.528330 0.690512
vt 0.575218 0.690512
vt 0.608972 0.690512
vt 0.598792 0.713731
vt 0.575282 0.713731
vt 0.541736 0.690512
vt 0.551961 0.713731
vn -0.0294 0.8812 0.4717
vn 0.0294 -0.8812 -0.4717
vn 0.7180 -0.0701 -0.6925
vn 0.7466 0.0853 -0.6598
vn 0.7468 0.0871 -0.6593
vn 0.0235 -0.7906 0.6119
vn 0.0057 -0.6816 0.7317
vn 0.0059 -0.6830 0.7304
vn 0.8437 -0.5120 0.1611
vn 0.8865 -0.3882 0.2516
vn 0.8865 -0.3883 0.2516
vn 0.7306 0.5528 -0.4008
vn 0.7716 0.3287 -0.5447
vn 0.7718 0.3249 -0.5466
vn -0.0038 -0.2112 0.9774
vn 0.0094 -0.4671 0.8842
vn 0.0093 -0.4633 0.8861
vn 0.8939 -0.0427 0.4462
vn 0.9081 -0.1901 0.3730
vn 0.9081 -0.1902 0.3730
vn 0.8939 -0.0428 0.4462
vn 0.7893 0.3137 -0.5278
vn 0.7902 0.3383 -0.5110
vn 0.7902 0.3385 -0.5108
vn 0.0381 -0.4670 0.8834
vn 0.0410 -0.4403 0.8969
vn 0.0410 -0.4405 0.8968
vn 0.9076 -0.1795 0.3797
vn 0.9062 -0.1502 0.3953
vn 0.7880 0.1211 -0.6036
vn 0.7893 0.2072 -0.5780
vn 0.7878 0.1165 -0.6048
vn 0.1063 -0.5658 0.8177
vn 0.1107 -0.4519 0.8852
vn 0.1063 -0.5675 0.8165
vn 0.8957 -0.3063 0.3225
vn 0.8983 -0.1947 0.3939
vn 0.8951 -0.3122 0.3183
vn 0.7655 0.3206 -0.5579
vn 0.7735 0.2856 -0.5658
vn 0.7742 0.2823 -0.5664
vn 0.1021 -0.5893 0.8014
vn 0.1018 -0.5931 0.7986
vn 0.8927 -0.1396 0.4284
vn 0.8972 -0.2908 0.3323
vn 0.8963 -0.3024 0.3243
vn 0.7825 0.2394 -0.5748
vn 0.0885 -0.7364 0.6707
vn 0.8694 -0.4445 0.2158
vn 0.0031 0.0690 -0.9976
vn 0.0121 0.2304 -0.9730
vn 0.0119 0.2284 -0.9735
vn -0.6956 -0.6508 0.3044
vn -0.7331 -0.5392 0.4146
vn -0.7335 -0.5377 0.4158
vn -0.8168 -0.1911 -0.5444
vn -0.8684 -0.0490 -0.4934
vn -0.8685 -0.0489 -0.4933
vn -0.0097 0.6970 -0.7170
vn -0.0069 0.4767 -0.8791
vn -0.0070 0.4804 -0.8770
vn -0.7486 -0.0645 0.6599
vn -0.7739 -0.3100 0.5522
vn -0.7739 -0.3136 0.5502
vn -0.8992 0.3050 -0.3138
vn -0.8992 0.3051 -0.3137
vn -0.9039 0.1614 -0.3961
vn -0.9039 0.1615 -0.3961
vn -0.0355 0.4744 -0.8796
vn -0.0400 0.5003 -0.8649
vn -0.0400 0.5002 -0.8650
vn -0.7913 -0.3052 0.5298
vn -0.7940 -0.2776 0.5409
vn -0.7940 -0.2775 0.5409
vn -0.9043 0.1724 -0.3906
vn -0.9049 0.2018 -0.3748
vn -0.0440 0.2831 -0.9581
vn -0.0445 0.2785 -0.9594
vn -0.0353 0.3680 -0.9291
vn -0.8201 -0.3853 0.4231
vn -0.8198 -0.3872 0.4219
vn -0.8337 -0.2683 0.4827
vn -0.8965 0.0427 -0.4410
vn -0.8952 0.0363 -0.4443
vn -0.9125 0.1585 -0.3771
vn 0.0022 0.4685 -0.8835
vn -0.0098 0.4344 -0.9006
vn -0.0086 0.4376 -0.8991
vn -0.8126 -0.4153 0.4089
vn -0.8134 -0.4116 0.4110
vn -0.9155 0.2108 -0.3428
vn -0.8968 0.0459 -0.4401
vn -0.8993 0.0580 -0.4335
vn -0.0228 0.3962 -0.9179
vn -0.7605 -0.5711 0.3090
vn -0.8493 -0.1098 -0.5163
vn -0.7530 -0.3204 0.5748
vn -0.0240 -0.4625 0.8863
vn 0.7506 0.3405 -0.5663
vn 0.0260 0.4823 -0.8756
vn -0.7317 -0.5698 0.3742
vn 0.0237 -0.7167 0.6970
vn 0.8794 -0.4146 0.2340
vn 0.7478 0.0344 -0.6631
vn -0.0032 0.1811 -0.9835
vn -0.8597 -0.0778 -0.5048
vn 0.9069 -0.1755 0.3830
vn 0.8166 0.2927 -0.4975
vn 0.8166 0.2929 -0.4974
vn -0.0817 0.4677 -0.8801
vn -0.0817 0.4676 -0.8801
vn -0.9042 0.1770 -0.3886
vn -0.9042 0.1771 -0.3886
vn -0.8183 -0.2928 0.4946
vn -0.8183 -0.2926 0.4947
vn 0.0847 -0.4686 0.8793
vn 0.0848 -0.4687 0.8793
usemtl initialShadingGroup.007
s off
f 1/1/1 2/2/1 3/3/1 4/4/1 5/5/1 6/6/1
f 7/7/2 8/8/2 9/9/2 10/10/2 11/11/2 12/12/2
s 1
f 5/13/3 13/14/4 14/15/5 6/16/3
f 3/17/6 15/18/7 16/19/8 4/20/6
f 4/21/9 16/22/10 13/23/11 5/24/9
f 17/25/12 18/26/13 19/27/14 20/28/12
f 21/29/15 22/30/16 23/31/17 24/32/15
f 24/33/18 23/34/19 18/35/20 17/36/21
f 25/37/22 26/38/23 27/39/24 28/40/22
f 29/41/25 30/42/26 31/43/27 32/44/25
f 32/45/28 31/46/29 26/47/29 25/48/28
f 33/49/30 34/50/31 35/51/31 36/52/32
f 37/53/33 38/54/34 39/55/34 40/56/35
f 40/56/36 39/55/37 34/57/37 33/58/38
f 34/50/39 41/59/40 42/60/41 35/51/39
f 38/54/34 43/61/42 44/62/43 39/55/34
f 39/55/44 44/62/45 41/63/46 34/57/44
f 41/59/40 10/64/47 9/65/47 42/60/41
f 43/66/42 12/67/48 11/68/48 44/69/43
f 44/62/45 11/70/49 10/71/49 41/63/46
f 1/72/50 6/16/50 14/15/51 45/73/52
f 3/17/53 2/74/53 46/75/54 15/18/55
f 2/76/56 1/77/56 45/78/57 46/79/58
f 47/80/59 20/28/59 19/27/60 48/81/61
f 21/29/62 49/82/62 50/83/63 22/30/64
f 49/84/65 47/85/66 48/86/67 50/87/68
f 51/88/69 28/40/69 27/39/70 52/89/71
f 29/41/72 53/90/72 54/91/73 30/42/74
f 53/92/75 51/93/75 52/94/76 54/95/76
f 55/96/77 36/52/78 35/51/79 56/97/79
f 37/98/80 57/99/81 58/100/82 38/101/82
f 57/99/83 55/102/84 56/103/85 58/100/85
f 56/97/86 35/51/86 42/60/87 59/104/88
f 38/101/82 58/100/82 60/105/89 43/106/90
f 58/100/91 56/103/91 59/107/92 60/105/93
f 59/104/88 42/60/87 9/65/94 8/108/94
f 43/66/90 60/109/89 7/110/95 12/67/95
f 60/105/93 59/107/92 8/111/96 7/112/96
f 15/18/55 46/75/54 49/82/97 21/29/97
f 16/19/8 15/18/7 21/29/98 24/32/98
f 13/23/11 16/22/10 24/33/18 17/36/21
f 14/15/5 13/14/4 17/25/99 20/28/99
f 45/73/52 14/15/51 20/28/100 47/80/100
f 46/79/58 45/78/57 47/85/66 49/84/65
f 22/30/64 50/83/63 53/90/101 29/41/101
f 23/31/17 22/30/16 29/41/102 32/44/102
f 18/35/20 23/34/19 32/45/103 25/48/103
f 19/27/14 18/26/13 25/37/104 28/40/104
f 48/81/61 19/27/60 28/40/105 51/88/105
f 50/87/68 48/86/67 51/93/106 53/92/106
f 61/113/107 40/56/36 33/58/38 62/114/107
f 63/115/108 62/116/109 33/49/30 36/52/32
f 64/117/110 63/115/111 36/52/78 55/96/77
f 65/118/112 64/119/113 55/102/84 57/99/83
f 66/120/114 65/121/115 57/122/81 37/123/80
f 61/124/116 66/120/117 37/123/33 40/125/35
f 31/46/29 61/113/107 62/114/107 26/47/29
f 27/39/24 26/38/23 62/116/109 63/115/108
f 52/89/71 27/39/70 63/115/111 64/117/110
f 54/95/76 52/94/76 64/119/113 65/118/112
f 30/42/74 54/91/73 65/121/115 66/120/114
f 31/43/27 30/42/26 66/120/117 61/124/116
