# Blender v2.79 (sub 6) OBJ File: ''
# www.blender.org
mtllib flauta2_000014.mtl
o f2_Flauta_1:pCylinder3
v -3.021534 11.615573 2.372751
v -3.141955 11.490620 2.596442
v -2.946977 11.377930 2.817997
v -2.631850 11.391048 2.814253
v -2.513270 11.516361 2.589775
v -2.707981 11.628189 2.369837
v -2.752645 7.024492 0.184179
v -2.717822 7.060574 0.119588
v -2.635208 7.065805 0.115285
v -2.586998 7.035106 0.175322
v -2.621359 6.998934 0.240110
v -2.704391 6.993552 0.244663
v -2.625296 11.299586 2.487334
v -2.752785 11.366150 2.355661
v -2.887222 11.225019 2.608420
v -2.691933 11.228905 2.613965
v -2.610109 11.100125 2.383475
v -2.539338 10.908174 2.262800
v -2.704304 11.003237 2.075870
v -2.745441 11.168509 2.247921
v -2.880634 11.026457 2.502335
v -2.907873 10.790117 2.457517
v -2.640349 10.801460 2.453960
v -2.677097 11.028978 2.510946
v -2.602786 10.723990 2.174611
v -2.526134 8.293776 0.843596
v -2.634544 8.363762 0.706827
v -2.730353 10.791894 2.040452
v -2.869197 10.646242 2.301299
v -2.793204 8.198062 1.003532
v -2.604934 8.210821 0.992176
v -2.671626 10.651049 2.305286
v -2.517770 7.992371 0.681172
v -2.530111 7.464555 0.458136
v -2.642089 7.524176 0.340342
v -2.624880 8.061519 0.546042
v -2.781639 7.897804 0.839192
v -2.769433 7.391182 0.578482
v -2.590940 7.407916 0.559124
v -2.595624 7.910410 0.827972
v -2.517510 7.259392 0.357733
v -2.634786 7.323164 0.231904
v -2.762187 7.190109 0.470152
v -2.571218 7.203132 0.458485
v -2.947126 11.362533 2.349681
v -3.014930 11.292080 2.475813
v -2.948001 11.166253 2.238879
v -2.970500 10.992320 2.078726
v -3.016208 11.095345 2.365828
v -3.073064 10.885909 2.269222
v -2.926968 10.787364 2.036014
v -2.821856 8.351345 0.717612
v -2.996974 10.714650 2.166191
v -2.901718 8.268598 0.865740
v -2.809947 8.049251 0.556697
v -2.815119 7.520038 0.336717
v -2.888853 7.967494 0.703050
v -2.864828 7.461234 0.442442
v -2.818146 7.317919 0.229655
v -2.872128 7.261711 0.330291
v -2.553809 8.021470 0.963108
v -2.442030 8.139145 0.752339
v -2.595813 8.238424 0.558327
v -2.861523 8.220810 0.573625
v -2.974813 8.103429 0.783751
v -2.820879 8.003371 0.979217
vt 0.702577 0.155012
vt 0.702394 0.195958
vt 0.661476 0.216292
vt 0.620892 0.195458
vt 0.621370 0.154514
vt 0.662138 0.134403
vt 0.774035 0.140274
vt 0.774082 0.152100
vt 0.763676 0.158055
vt 0.753188 0.152248
vt 0.753068 0.140422
vt 0.763510 0.134403
vt 0.340220 0.869931
vt 0.355018 0.835822
vt 0.380841 0.835822
vt 0.380989 0.869931
vt 0.575158 0.134403
vt 0.575252 0.168512
vt 0.549546 0.168512
vt 0.534573 0.134403
vt 0.467619 0.134403
vt 0.458844 0.168512
vt 0.435764 0.168512
vt 0.426674 0.134403
vt 0.353739 0.803249
vt 0.346351 0.770227
vt 0.380933 0.770227
vt 0.380852 0.803249
vt 0.575245 0.201085
vt 0.575205 0.234107
vt 0.540778 0.234107
vt 0.548253 0.201085
vt 0.458915 0.201085
vt 0.464632 0.234107
vt 0.429763 0.234107
vt 0.435687 0.201085
vt 0.354846 0.741026
vt 0.357122 0.340135
vt 0.380831 0.340135
vt 0.380854 0.741026
vt 0.575266 0.263308
vt 0.575280 0.664199
vt 0.551677 0.664199
vt 0.549374 0.263308
vt 0.459207 0.263308
vt 0.460826 0.664199
vt 0.433705 0.664199
vt 0.435384 0.263308
vt 0.357404 0.290603
vt 0.357944 0.208198
vt 0.380776 0.208198
vt 0.380829 0.290603
vt 0.474302 0.713731
vt 0.476098 0.796136
vt 0.461739 0.796136
vt 0.460667 0.713731
vt 0.442837 0.796136
vt 0.433871 0.713731
vt 0.356659 0.175148
vt 0.380745 0.175148
vt 0.476107 0.829186
vt 0.462087 0.829186
vt 0.443679 0.829186
vt 0.370235 0.134403
vt 0.380723 0.134403
vt 0.707211 0.158529
vt 0.747956 0.158411
vt 0.747956 0.168852
vt 0.707211 0.182460
vt 0.453313 0.869931
vt 0.441487 0.869931
vt 0.421428 0.869931
vt 0.406455 0.835822
vt 0.616075 0.134403
vt 0.601169 0.168512
vt 0.488612 0.134403
vt 0.529558 0.134403
vt 0.520686 0.168512
vt 0.497605 0.168512
vt 0.407748 0.803249
vt 0.415237 0.770227
vt 0.602457 0.201085
vt 0.609913 0.234107
vt 0.497531 0.201085
vt 0.520760 0.201085
vt 0.526541 0.234107
vt 0.491670 0.234107
vt 0.406654 0.741026
vt 0.404351 0.340135
vt 0.601368 0.263308
vt 0.599075 0.664199
vt 0.497231 0.263308
vt 0.521055 0.263308
vt 0.522693 0.664199
vt 0.495571 0.664199
vt 0.404066 0.290603
vt 0.403461 0.208198
vt 0.482429 0.713731
vt 0.495735 0.713731
vt 0.494684 0.796136
vt 0.480633 0.796136
vt 0.522532 0.713731
vt 0.513573 0.796136
vt 0.404672 0.175148
vt 0.494305 0.829186
vt 0.480624 0.829186
vt 0.512714 0.829186
vt 0.391128 0.134403
vt 0.707211 0.134403
vt 0.747956 0.147885
vt 0.515097 0.869931
vt 0.503271 0.869931
vt 0.466402 0.690512
vt 0.427930 0.690512
vt 0.380929 0.313822
vt 0.347296 0.313822
vt 0.414292 0.313822
vt 0.489856 0.690512
vt 0.528330 0.690512
vt 0.575218 0.690512
vt 0.608972 0.690512
vt 0.598792 0.713731
vt 0.575282 0.713731
vt 0.541736 0.690512
vt 0.551961 0.713731
vn -0.0310 0.8796 0.4747
vn 0.0310 -0.8796 -0.4747
vn 0.7185 -0.0667 -0.6923
vn 0.7469 0.0886 -0.6590
vn 0.7471 0.0904 -0.6585
vn 0.0243 -0.7926 0.6092
vn 0.0062 -0.6840 0.7295
vn 0.0064 -0.6854 0.7281
vn 0.8444 -0.5113 0.1600
vn 0.8869 -0.3878 0.2509
vn 0.7301 0.5552 -0.3984
vn 0.7715 0.3316 -0.5431
vn 0.7717 0.3279 -0.5450
vn -0.0042 -0.2144 0.9767
vn 0.0095 -0.4700 0.8826
vn 0.0094 -0.4663 0.8846
vn 0.8937 -0.0429 0.4467
vn 0.9082 -0.1901 0.3730
vn 0.9082 -0.1902 0.3729
vn 0.8937 -0.0430 0.4466
vn 0.7892 0.3166 -0.5262
vn 0.7901 0.3412 -0.5093
vn 0.7901 0.3414 -0.5092
vn 0.0382 -0.4699 0.8819
vn 0.0410 -0.4432 0.8955
vn 0.0410 -0.4434 0.8954
vn 0.9076 -0.1794 0.3797
vn 0.9061 -0.1502 0.3954
vn 0.7883 0.1242 -0.6027
vn 0.7894 0.2102 -0.5768
vn 0.7881 0.1196 -0.6039
vn 0.1066 -0.5684 0.8158
vn 0.1108 -0.4547 0.8837
vn 0.1066 -0.5701 0.8146
vn 0.8959 -0.3060 0.3220
vn 0.8983 -0.1947 0.3939
vn 0.8953 -0.3120 0.3179
vn 0.7654 0.3236 -0.5563
vn 0.7735 0.2886 -0.5643
vn 0.7742 0.2853 -0.5650
vn 0.1025 -0.5918 0.7995
vn 0.1022 -0.5956 0.7967
vn 0.8926 -0.1398 0.4286
vn 0.8974 -0.2907 0.3320
vn 0.8965 -0.3022 0.3239
vn 0.7825 0.2425 -0.5735
vn 0.0892 -0.7385 0.6683
vn 0.8699 -0.4439 0.2149
vn 0.0037 0.0723 -0.9974
vn 0.0124 0.2337 -0.9722
vn 0.0122 0.2317 -0.9727
vn -0.6948 -0.6528 0.3018
vn -0.7326 -0.5416 0.4123
vn -0.7330 -0.5401 0.4135
vn -0.8162 -0.1905 -0.5455
vn -0.8680 -0.0486 -0.4941
vn -0.8681 -0.0486 -0.4940
vn -0.0102 0.6994 -0.7147
vn -0.0071 0.4796 -0.8775
vn -0.0071 0.4833 -0.8754
vn -0.7490 -0.0678 0.6591
vn -0.7738 -0.3130 0.5506
vn -0.7738 -0.3166 0.5486
vn -0.8994 0.3048 -0.3134
vn -0.8994 0.3049 -0.3133
vn -0.9039 0.1614 -0.3961
vn -0.9039 0.1615 -0.3961
vn -0.0356 0.4773 -0.8780
vn -0.0402 0.5031 -0.8633
vn -0.0402 0.5030 -0.8633
vn -0.7912 -0.3081 0.5282
vn -0.7940 -0.2805 0.5394
vn -0.7940 -0.2804 0.5395
vn -0.9043 0.1724 -0.3906
vn -0.9049 0.2017 -0.3747
vn -0.0438 0.2863 -0.9572
vn -0.0443 0.2817 -0.9585
vn -0.0352 0.3711 -0.9279
vn -0.8198 -0.3879 0.4212
vn -0.8195 -0.3898 0.4201
vn -0.8336 -0.2711 0.4813
vn -0.8336 -0.2711 0.4812
vn -0.8962 0.0429 -0.4415
vn -0.8949 0.0365 -0.4447
vn -0.9125 0.1585 -0.3772
vn 0.0021 0.4714 -0.8819
vn -0.0098 0.4374 -0.8992
vn -0.0087 0.4406 -0.8977
vn -0.8123 -0.4179 0.4070
vn -0.8131 -0.4141 0.4091
vn -0.9155 0.2106 -0.3427
vn -0.8966 0.0461 -0.4405
vn -0.8991 0.0582 -0.4339
vn -0.0228 0.3992 -0.9166
vn -0.7599 -0.5732 0.3066
vn -0.8488 -0.1093 -0.5173
vn -0.7529 -0.3234 0.5732
vn -0.0239 -0.4655 0.8847
vn 0.7505 0.3435 -0.5647
vn 0.0259 0.4853 -0.8740
vn -0.7311 -0.5721 0.3718
vn 0.0243 -0.7190 0.6946
vn 0.8798 -0.4141 0.2332
vn 0.7481 0.0377 -0.6625
vn -0.0028 0.1843 -0.9829
vn -0.8593 -0.0773 -0.5056
vn 0.9069 -0.1755 0.3830
vn 0.8165 0.2956 -0.4960
vn 0.8165 0.2957 -0.4959
vn -0.0818 0.4706 -0.8786
vn -0.0818 0.4705 -0.8786
vn -0.9042 0.1770 -0.3886
vn -0.9042 0.1771 -0.3886
vn -0.8182 -0.2957 0.4930
vn -0.8182 -0.2955 0.4932
vn 0.0848 -0.4714 0.8778
vn 0.0849 -0.4715 0.8778
usemtl initialShadingGroup
s off
f 1/1/1 2/2/1 3/3/1 4/4/1 5/5/1 6/6/1
f 7/7/2 8/8/2 9/9/2 10/10/2 11/11/2 12/12/2
s 1
f 5/13/3 13/14/4 14/15/5 6/16/3
f 3/17/6 15/18/7 16/19/8 4/20/6
f 4/21/9 16/22/10 13/23/10 5/24/9
f 17/25/11 18/26/12 19/27/13 20/28/11
f 21/29/14 22/30/15 23/31/16 24/32/14
f 24/33/17 23/34/18 18/35/19 17/36/20
f 25/37/21 26/38/22 27/39/23 28/40/21
f 29/41/24 30/42/25 31/43/26 32/44/24
f 32/45/27 31/46/28 26/47/28 25/48/27
f 33/49/29 34/50/30 35/51/30 36/52/31
f 37/53/32 38/54/33 39/55/33 40/56/34
f 40/56/35 39/55/36 34/57/36 33/58/37
f 34/50/38 41/59/39 42/60/40 35/51/38
f 38/54/33 43/61/41 44/62/42 39/55/33
f 39/55/43 44/62/44 41/63/45 34/57/43
f 41/59/39 10/64/46 9/65/46 42/60/40
f 43/66/41 12/67/47 11/68/47 44/69/42
f 44/62/44 11/70/48 10/71/48 41/63/45
f 1/72/49 6/16/49 14/15/50 45/73/51
f 3/17/52 2/74/52 46/75/53 15/18/54
f 2/76/55 1/77/55 45/78/56 46/79/57
f 47/80/58 20/28/58 19/27/59 48/81/60
f 21/29/61 49/82/61 50/83/62 22/30/63
f 49/84/64 47/85/65 48/86/66 50/87/67
f 51/88/68 28/40/68 27/39/69 52/89/70
f 29/41/71 53/90/71 54/91/72 30/42/73
f 53/92/74 51/93/74 52/94/75 54/95/75
f 55/96/76 36/52/77 35/51/78 56/97/78
f 37/98/79 57/99/80 58/100/81 38/101/82
f 57/99/83 55/102/84 56/103/85 58/100/85
f 56/97/86 35/51/86 42/60/87 59/104/88
f 38/101/82 58/100/81 60/105/89 43/106/90
f 58/100/91 56/103/91 59/107/92 60/105/93
f 59/104/88 42/60/87 9/65/94 8/108/94
f 43/66/90 60/109/89 7/110/95 12/67/95
f 60/105/93 59/107/92 8/111/96 7/112/96
f 15/18/54 46/75/53 49/82/97 21/29/97
f 16/19/8 15/18/7 21/29/98 24/32/98
f 13/23/10 16/22/10 24/33/17 17/36/20
f 14/15/5 13/14/4 17/25/99 20/28/99
f 45/73/51 14/15/50 20/28/100 47/80/100
f 46/79/57 45/78/56 47/85/65 49/84/64
f 22/30/63 50/83/62 53/90/101 29/41/101
f 23/31/16 22/30/15 29/41/102 32/44/102
f 18/35/19 23/34/18 32/45/103 25/48/103
f 19/27/13 18/26/12 25/37/104 28/40/104
f 48/81/60 19/27/59 28/40/105 51/88/105
f 50/87/67 48/86/66 51/93/106 53/92/106
f 61/113/107 40/56/35 33/58/37 62/114/107
f 63/115/108 62/116/109 33/49/29 36/52/31
f 64/117/110 63/115/111 36/52/77 55/96/76
f 65/118/112 64/119/113 55/102/84 57/99/83
f 66/120/114 65/121/115 57/122/80 37/123/79
f 61/124/116 66/120/117 37/123/32 40/125/34
f 31/46/28 61/113/107 62/114/107 26/47/28
f 27/39/23 26/38/22 62/116/109 63/115/108
f 52/89/70 27/39/69 63/115/111 64/117/110
f 54/95/75 52/94/75 64/119/113 65/118/112
f 30/42/73 54/91/72 65/121/115 66/120/114
f 31/43/26 30/42/25 66/120/117 61/124/116
