# Blender v2.79 (sub 6) OBJ File: 'bailarina.blend1'
# www.blender.org
mtllib Flauta2_000001.mtl
o f2_Flauta_1:pCylinder3
v -5.068858 11.915372 1.291470
v -5.067588 11.914976 1.574579
v -4.784680 11.914780 1.715167
v -4.504071 11.914981 1.571120
v -4.507376 11.915377 1.288023
v -4.789255 11.915571 1.148974
v -4.859043 6.829542 1.466111
v -4.859363 6.829657 1.384340
v -4.787420 6.829714 1.343168
v -4.714903 6.829659 1.383323
v -4.714072 6.829544 1.465090
v -4.786268 6.829485 1.506704
v -4.609690 11.679455 1.350537
v -4.788232 11.679564 1.272150
v -4.785334 11.679117 1.591320
v -4.607597 11.679231 1.510123
v -4.600845 11.454237 1.349694
v -4.549760 11.225977 1.308415
v -4.788867 11.226143 1.190001
v -4.788312 11.454348 1.270814
v -4.785283 11.453898 1.592019
v -4.785009 11.225468 1.672184
v -4.546974 11.225639 1.549507
v -4.598657 11.454012 1.510297
v -4.608498 11.024016 1.346994
v -4.624238 8.252205 1.331512
v -4.788168 8.252335 1.239407
v -4.788324 11.024130 1.266091
v -4.785427 11.023669 1.595521
v -4.785527 8.251810 1.614448
v -4.622331 8.251944 1.519030
v -4.606405 11.023787 1.511709
v -4.626183 7.909726 1.332176
v -4.629919 7.339877 1.393375
v -4.787784 7.339976 1.322327
v -4.788148 7.909853 1.241174
v -4.785539 7.909335 1.611722
v -4.785665 7.339555 1.623343
v -4.635138 7.339694 1.524064
v -4.624298 7.909467 1.517447
v -4.621033 7.111356 1.398875
v -4.787569 7.111464 1.321939
v -4.785448 7.111042 1.623091
v -4.619985 7.111178 1.526153
v -4.965332 11.679451 1.352480
v -4.964528 11.679229 1.512071
v -4.974273 11.454235 1.351659
v -5.026054 11.225973 1.311368
v -4.973432 11.454010 1.512268
v -5.024983 11.225636 1.552470
v -4.966709 11.024014 1.349013
v -4.950784 8.252202 1.333812
v -4.965904 11.023784 1.513736
v -4.950050 8.251940 1.521338
v -4.948816 7.909723 1.334447
v -4.944634 7.339874 1.395592
v -4.948091 7.909464 1.519728
v -4.937575 7.339691 1.526194
v -4.953006 7.111353 1.401212
v -4.952261 7.111175 1.528493
v -4.553594 8.069951 1.557326
v -4.556301 8.070324 1.291322
v -4.788842 8.070506 1.160666
v -5.019520 8.070319 1.294583
v -5.018480 8.069946 1.560599
v -4.785095 8.069761 1.692680
vt 0.702577 0.155012
vt 0.702394 0.195958
vt 0.661476 0.216292
vt 0.620892 0.195458
vt 0.621370 0.154514
vt 0.662138 0.134403
vt 0.774035 0.140274
vt 0.774082 0.152100
vt 0.763676 0.158055
vt 0.753188 0.152248
vt 0.753068 0.140422
vt 0.763510 0.134403
vt 0.340220 0.869931
vt 0.355018 0.835822
vt 0.380841 0.835822
vt 0.380989 0.869931
vt 0.575158 0.134403
vt 0.575252 0.168512
vt 0.549546 0.168512
vt 0.534573 0.134403
vt 0.467619 0.134403
vt 0.458844 0.168512
vt 0.435764 0.168512
vt 0.426674 0.134403
vt 0.353739 0.803249
vt 0.346351 0.770227
vt 0.380933 0.770227
vt 0.380852 0.803249
vt 0.575245 0.201085
vt 0.575205 0.234107
vt 0.540778 0.234107
vt 0.548253 0.201085
vt 0.458915 0.201085
vt 0.464632 0.234107
vt 0.429763 0.234107
vt 0.435687 0.201085
vt 0.354846 0.741026
vt 0.357122 0.340135
vt 0.380831 0.340135
vt 0.380854 0.741026
vt 0.575266 0.263308
vt 0.575280 0.664199
vt 0.551677 0.664199
vt 0.549374 0.263308
vt 0.459207 0.263308
vt 0.460826 0.664199
vt 0.433705 0.664199
vt 0.435384 0.263308
vt 0.357404 0.290603
vt 0.357944 0.208198
vt 0.380776 0.208198
vt 0.380829 0.290603
vt 0.474302 0.713731
vt 0.476098 0.796136
vt 0.461739 0.796136
vt 0.460667 0.713731
vt 0.442837 0.796136
vt 0.433871 0.713731
vt 0.356659 0.175148
vt 0.380745 0.175148
vt 0.476107 0.829186
vt 0.462087 0.829186
vt 0.443679 0.829186
vt 0.370235 0.134403
vt 0.380723 0.134403
vt 0.707211 0.158529
vt 0.747956 0.158411
vt 0.747956 0.168852
vt 0.707211 0.182460
vt 0.453313 0.869931
vt 0.441487 0.869931
vt 0.421428 0.869931
vt 0.406455 0.835822
vt 0.616075 0.134403
vt 0.601169 0.168512
vt 0.488612 0.134403
vt 0.529558 0.134403
vt 0.520686 0.168512
vt 0.497605 0.168512
vt 0.407748 0.803249
vt 0.415237 0.770227
vt 0.602457 0.201085
vt 0.609913 0.234107
vt 0.497531 0.201085
vt 0.520760 0.201085
vt 0.526541 0.234107
vt 0.491670 0.234107
vt 0.406654 0.741026
vt 0.404351 0.340135
vt 0.601368 0.263308
vt 0.599075 0.664199
vt 0.497231 0.263308
vt 0.521055 0.263308
vt 0.522693 0.664199
vt 0.495571 0.664199
vt 0.404066 0.290603
vt 0.403461 0.208198
vt 0.482429 0.713731
vt 0.495735 0.713731
vt 0.494684 0.796136
vt 0.480633 0.796136
vt 0.522532 0.713731
vt 0.513573 0.796136
vt 0.404672 0.175148
vt 0.494305 0.829186
vt 0.480624 0.829186
vt 0.512714 0.829186
vt 0.391128 0.134403
vt 0.707211 0.134403
vt 0.747956 0.147885
vt 0.515097 0.869931
vt 0.503271 0.869931
vt 0.466402 0.690512
vt 0.427930 0.690512
vt 0.380929 0.313822
vt 0.347296 0.313822
vt 0.414292 0.313822
vt 0.489856 0.690512
vt 0.528330 0.690512
vt 0.575218 0.690512
vt 0.608972 0.690512
vt 0.598792 0.713731
vt 0.575282 0.713731
vt 0.541736 0.690512
vt 0.551961 0.713731
vn 0.0000 1.0000 0.0014
vn 0.0000 -1.0000 -0.0014
vn 0.3896 -0.4084 -0.8255
vn 0.4003 -0.2568 -0.8797
vn 0.4004 -0.2550 -0.8802
vn 0.4025 -0.4099 0.8185
vn 0.4138 -0.2568 0.8734
vn 0.4137 -0.2587 0.8729
vn 0.9164 -0.4000 -0.0117
vn 0.9683 -0.2495 -0.0126
vn 0.9683 -0.2495 -0.0125
vn 0.4034 0.2778 -0.8718
vn 0.4243 0.0113 -0.9055
vn 0.4244 0.0070 -0.9055
vn 0.4170 0.2739 0.8667
vn 0.4383 0.0039 0.8988
vn 0.4383 0.0082 0.8988
vn 0.9891 0.1466 -0.0125
vn 0.9998 -0.0183 -0.0122
vn 0.9998 -0.0184 -0.0122
vn 0.9891 0.1465 -0.0125
vn 0.4496 0.0055 -0.8932
vn 0.4526 0.0351 -0.8910
vn 0.4526 0.0354 -0.8910
vn 0.4639 0.0029 0.8859
vn 0.4670 0.0327 0.8837
vn 0.4670 0.0325 0.8837
vn 0.9999 -0.0057 -0.0114
vn 0.9996 0.0275 -0.0112
vn 0.4533 -0.2000 -0.8686
vn 0.4491 -0.1120 -0.8864
vn 0.4535 -0.2046 -0.8675
vn 0.5175 -0.1172 0.8476
vn 0.5274 0.0149 0.8495
vn 0.5173 -0.1193 0.8474
vn 0.9896 -0.1441 0.0038
vn 0.9999 -0.0122 0.0105
vn 0.9885 -0.1513 0.0034
vn 0.4150 -0.0019 -0.9098
vn 0.4255 -0.0367 -0.9042
vn 0.4265 -0.0399 -0.9036
vn 0.5116 -0.1454 0.8468
vn 0.5109 -0.1501 0.8464
vn 0.9985 0.0528 0.0162
vn 0.9920 -0.1259 0.0042
vn 0.9902 -0.1399 0.0033
vn 0.4384 -0.0819 -0.8951
vn 0.4745 -0.3363 0.8135
vn 0.9489 -0.3154 -0.0090
vn -0.4000 -0.4088 -0.8203
vn -0.4112 -0.2551 -0.8751
vn -0.4112 -0.2571 -0.8745
vn -0.3919 -0.4106 0.8233
vn -0.4027 -0.2592 0.8779
vn -0.4028 -0.2573 0.8784
vn -0.9160 -0.4012 0.0037
vn -0.9681 -0.2504 0.0043
vn -0.9682 -0.2503 0.0044
vn -0.4144 0.2775 -0.8668
vn -0.4358 0.0068 -0.9000
vn -0.4357 0.0111 -0.9000
vn -0.4059 0.2752 0.8715
vn -0.4268 0.0088 0.9043
vn -0.4269 0.0046 0.9043
vn -0.9891 0.1472 0.0051
vn -0.9891 0.1473 0.0051
vn -0.9998 -0.0180 0.0047
vn -0.4614 0.0054 -0.8872
vn -0.4644 0.0352 -0.8849
vn -0.4644 0.0351 -0.8849
vn -0.4522 0.0030 0.8919
vn -0.4552 0.0326 0.8898
vn -0.4552 0.0328 0.8898
vn -1.0000 -0.0057 0.0044
vn -0.9996 0.0276 0.0043
vn -0.4655 -0.2000 -0.8622
vn -0.4656 -0.2046 -0.8610
vn -0.4615 -0.1117 -0.8801
vn -0.5055 -0.1171 0.8548
vn -0.5053 -0.1193 0.8547
vn -0.5154 0.0146 0.8568
vn -0.9894 -0.1441 0.0177
vn -0.9883 -0.1513 0.0174
vn -0.9996 -0.0114 0.0246
vn -0.4278 -0.0027 -0.9039
vn -0.4392 -0.0405 -0.8975
vn -0.4382 -0.0371 -0.8981
vn -0.4989 -0.1504 0.8535
vn -0.4995 -0.1461 0.8539
vn -0.9982 0.0509 0.0303
vn -0.9899 -0.1408 0.0172
vn -0.9917 -0.1270 0.0182
vn -0.4509 -0.0819 -0.8888
vn -0.4630 -0.3363 0.8201
vn -0.9490 -0.3154 0.0044
vn -0.3972 0.0096 0.9177
vn 0.4082 0.0099 0.9129
vn 0.3948 0.0121 -0.9187
vn -0.4057 0.0125 -0.9139
vn -0.4117 -0.3053 0.8587
vn 0.4228 -0.3047 0.8535
vn 0.9597 -0.2809 -0.0119
vn 0.4092 -0.3032 -0.8606
vn -0.4202 -0.3031 -0.8553
vn -0.9596 -0.2814 0.0040
vn 0.9999 -0.0007 -0.0102
vn 0.4898 0.0005 -0.8718
vn 0.4898 0.0006 -0.8718
vn -0.5021 0.0006 -0.8648
vn -0.5021 0.0005 -0.8648
vn -1.0000 -0.0007 0.0039
vn -0.4925 -0.0019 0.8703
vn -0.4925 -0.0017 0.8703
vn 0.5047 -0.0018 0.8633
vn 0.5047 -0.0019 0.8633
usemtl initialShadingGroup.007
s off
f 1/1/1 2/2/1 3/3/1 4/4/1 5/5/1 6/6/1
f 7/7/2 8/8/2 9/9/2 10/10/2 11/11/2 12/12/2
s 1
f 5/13/3 13/14/4 14/15/5 6/16/3
f 3/17/6 15/18/7 16/19/8 4/20/6
f 4/21/9 16/22/10 13/23/11 5/24/9
f 17/25/12 18/26/13 19/27/14 20/28/12
f 21/29/15 22/30/16 23/31/17 24/32/15
f 24/33/18 23/34/19 18/35/20 17/36/21
f 25/37/22 26/38/23 27/39/24 28/40/22
f 29/41/25 30/42/26 31/43/27 32/44/25
f 32/45/28 31/46/29 26/47/29 25/48/28
f 33/49/30 34/50/31 35/51/31 36/52/32
f 37/53/33 38/54/34 39/55/34 40/56/35
f 40/56/36 39/55/37 34/57/37 33/58/38
f 34/50/39 41/59/40 42/60/41 35/51/39
f 38/54/34 43/61/42 44/62/43 39/55/34
f 39/55/44 44/62/45 41/63/46 34/57/44
f 41/59/40 10/64/47 9/65/47 42/60/41
f 43/66/42 12/67/48 11/68/48 44/69/43
f 44/62/45 11/70/49 10/71/49 41/63/46
f 1/72/50 6/16/50 14/15/51 45/73/52
f 3/17/53 2/74/53 46/75/54 15/18/55
f 2/76/56 1/77/56 45/78/57 46/79/58
f 47/80/59 20/28/59 19/27/60 48/81/61
f 21/29/62 49/82/62 50/83/63 22/30/64
f 49/84/65 47/85/66 48/86/67 50/87/67
f 51/88/68 28/40/68 27/39/69 52/89/70
f 29/41/71 53/90/71 54/91/72 30/42/73
f 53/92/74 51/93/74 52/94/75 54/95/75
f 55/96/76 36/52/77 35/51/78 56/97/78
f 37/98/79 57/99/80 58/100/81 38/101/81
f 57/99/82 55/102/83 56/103/84 58/100/84
f 56/97/85 35/51/85 42/60/86 59/104/87
f 38/101/81 58/100/81 60/105/88 43/106/89
f 58/100/90 56/103/90 59/107/91 60/105/92
f 59/104/87 42/60/86 9/65/93 8/108/93
f 43/66/89 60/109/88 7/110/94 12/67/94
f 60/105/92 59/107/91 8/111/95 7/112/95
f 15/18/55 46/75/54 49/82/96 21/29/96
f 16/19/8 15/18/7 21/29/97 24/32/97
f 13/23/11 16/22/10 24/33/18 17/36/21
f 14/15/5 13/14/4 17/25/98 20/28/98
f 45/73/52 14/15/51 20/28/99 47/80/99
f 46/79/58 45/78/57 47/85/66 49/84/65
f 22/30/64 50/83/63 53/90/100 29/41/100
f 23/31/17 22/30/16 29/41/101 32/44/101
f 18/35/20 23/34/19 32/45/102 25/48/102
f 19/27/14 18/26/13 25/37/103 28/40/103
f 48/81/61 19/27/60 28/40/104 51/88/104
f 50/87/67 48/86/67 51/93/105 53/92/105
f 61/113/106 40/56/36 33/58/38 62/114/106
f 63/115/107 62/116/108 33/49/30 36/52/32
f 64/117/109 63/115/110 36/52/77 55/96/76
f 65/118/111 64/119/111 55/102/83 57/99/82
f 66/120/112 65/121/113 57/122/80 37/123/79
f 61/124/114 66/120/115 37/123/33 40/125/35
f 31/46/29 61/113/106 62/114/106 26/47/29
f 27/39/24 26/38/23 62/116/108 63/115/107
f 52/89/70 27/39/69 63/115/110 64/117/109
f 54/95/75 52/94/75 64/119/111 65/118/111
f 30/42/73 54/91/72 65/121/113 66/120/112
f 31/43/27 30/42/26 66/120/115 61/124/114
