# Blender v2.79 (sub 6) OBJ File: 'bailarina.blend1'
# www.blender.org
mtllib Flauta2_000013.mtl
o f2_Flauta_1:pCylinder3
v -0.612862 11.644816 3.962840
v -0.733316 11.449270 4.128384
v -0.538353 11.265598 4.295886
v -0.223210 11.278843 4.296640
v -0.104599 11.475005 4.130488
v -0.299294 11.657299 3.964196
v -0.352091 8.117350 0.298257
v -0.317258 8.173816 0.250457
v -0.234639 8.180135 0.248176
v -0.186434 8.130217 0.293514
v -0.220804 8.073597 0.341466
v -0.303841 8.067051 0.343928
v -0.217007 11.308275 3.958439
v -0.344487 11.417063 3.858761
v -0.478960 11.196157 4.045835
v -0.283662 11.197625 4.052171
v -0.202178 11.158108 3.791013
v -0.131766 11.020824 3.610425
v -0.296719 11.175777 3.469095
v -0.337502 11.269973 3.688349
v -0.472730 11.047626 3.876650
v -0.500342 10.842208 3.751557
v -0.232804 10.853777 3.751915
v -0.269184 11.046727 3.885366
v -0.195540 10.879531 3.463130
v -0.123299 9.073115 1.361924
v -0.231699 9.186878 1.258658
v -0.323098 10.990448 3.361596
v -0.461979 10.762470 3.554655
v -0.390401 8.927539 1.478248
v -0.202120 8.943267 1.471895
v -0.264398 10.765346 3.559855
v -0.115480 8.848144 1.103810
v -0.128735 8.432600 0.709304
v -0.240705 8.529987 0.620155
v -0.222580 8.960544 1.001781
v -0.379381 8.704311 1.218740
v -0.368084 8.321836 0.796402
v -0.189579 8.344111 0.783969
v -0.193356 8.719851 1.212463
v -0.116499 8.275883 0.543109
v -0.233766 8.379988 0.447905
v -0.361201 8.171742 0.624232
v -0.170221 8.187823 0.617677
v -0.538837 11.415998 3.852111
v -0.606659 11.305739 3.945457
v -0.540071 11.271272 3.679322
v -0.562929 11.164852 3.468229
v -0.608296 11.160299 3.773273
v -0.665519 10.998323 3.609206
v -0.519722 10.987990 3.356070
v -0.419021 9.171671 1.264596
v -0.589746 10.874194 3.452410
v -0.498904 9.042176 1.374217
v -0.407658 8.945518 1.007647
v -0.413744 8.527583 0.615502
v -0.486585 8.817575 1.115955
v -0.463468 8.435390 0.693826
v -0.417135 8.376076 0.444162
v -0.471132 8.288108 0.518640
v -0.151290 8.776202 1.377991
v -0.039480 8.960399 1.221992
v -0.193249 9.121777 1.075504
v -0.458974 9.100204 1.083926
v -0.572293 8.916511 1.239429
v -0.418375 8.753891 1.387003
vt 0.702577 0.155012
vt 0.702394 0.195958
vt 0.661476 0.216292
vt 0.620892 0.195458
vt 0.621370 0.154514
vt 0.662138 0.134403
vt 0.774035 0.140274
vt 0.774082 0.152100
vt 0.763676 0.158055
vt 0.753188 0.152248
vt 0.753068 0.140422
vt 0.763510 0.134403
vt 0.340220 0.869931
vt 0.355018 0.835822
vt 0.380841 0.835822
vt 0.380989 0.869931
vt 0.575158 0.134403
vt 0.575252 0.168512
vt 0.549546 0.168512
vt 0.534573 0.134403
vt 0.467619 0.134403
vt 0.458844 0.168512
vt 0.435764 0.168512
vt 0.426674 0.134403
vt 0.353739 0.803249
vt 0.346351 0.770227
vt 0.380933 0.770227
vt 0.380852 0.803249
vt 0.575245 0.201085
vt 0.575205 0.234107
vt 0.540778 0.234107
vt 0.548253 0.201085
vt 0.458915 0.201085
vt 0.464632 0.234107
vt 0.429763 0.234107
vt 0.435687 0.201085
vt 0.354846 0.741026
vt 0.357122 0.340135
vt 0.380831 0.340135
vt 0.380854 0.741026
vt 0.575266 0.263308
vt 0.575280 0.664199
vt 0.551677 0.664199
vt 0.549374 0.263308
vt 0.459207 0.263308
vt 0.460826 0.664199
vt 0.433705 0.664199
vt 0.435384 0.263308
vt 0.357404 0.290603
vt 0.357944 0.208198
vt 0.380776 0.208198
vt 0.380829 0.290603
vt 0.474302 0.713731
vt 0.476098 0.796136
vt 0.461739 0.796136
vt 0.460667 0.713731
vt 0.442837 0.796136
vt 0.433871 0.713731
vt 0.356659 0.175148
vt 0.380745 0.175148
vt 0.476107 0.829186
vt 0.462087 0.829186
vt 0.443679 0.829186
vt 0.370235 0.134403
vt 0.380723 0.134403
vt 0.707211 0.158529
vt 0.747956 0.158411
vt 0.747956 0.168852
vt 0.707211 0.182460
vt 0.453313 0.869931
vt 0.441487 0.869931
vt 0.421428 0.869931
vt 0.406455 0.835822
vt 0.616075 0.134403
vt 0.601169 0.168512
vt 0.488612 0.134403
vt 0.529558 0.134403
vt 0.520686 0.168512
vt 0.497605 0.168512
vt 0.407748 0.803249
vt 0.415237 0.770227
vt 0.602457 0.201085
vt 0.609913 0.234107
vt 0.497531 0.201085
vt 0.520760 0.201085
vt 0.526541 0.234107
vt 0.491670 0.234107
vt 0.406654 0.741026
vt 0.404351 0.340135
vt 0.601368 0.263308
vt 0.599075 0.664199
vt 0.497231 0.263308
vt 0.521055 0.263308
vt 0.522693 0.664199
vt 0.495571 0.664199
vt 0.404066 0.290603
vt 0.403461 0.208198
vt 0.482429 0.713731
vt 0.495735 0.713731
vt 0.494684 0.796136
vt 0.480633 0.796136
vt 0.522532 0.713731
vt 0.513573 0.796136
vt 0.404672 0.175148
vt 0.494305 0.829186
vt 0.480624 0.829186
vt 0.512714 0.829186
vt 0.391128 0.134403
vt 0.707211 0.134403
vt 0.747956 0.147885
vt 0.515097 0.869931
vt 0.503271 0.869931
vt 0.466402 0.690512
vt 0.427930 0.690512
vt 0.380929 0.313822
vt 0.347296 0.313822
vt 0.414292 0.313822
vt 0.489856 0.690512
vt 0.528330 0.690512
vt 0.575218 0.690512
vt 0.608972 0.690512
vt 0.598792 0.713731
vt 0.575282 0.713731
vt 0.541736 0.690512
vt 0.551961 0.713731
vn -0.0294 0.6563 0.7539
vn 0.0294 -0.6563 -0.7539
vn 0.7180 0.1804 -0.6723
vn 0.7466 0.3140 -0.5865
vn 0.7468 0.3155 -0.5854
vn 0.0235 -0.9563 0.2913
vn 0.0057 -0.8970 0.4421
vn 0.0059 -0.8978 0.4403
vn 0.8437 -0.5359 -0.0312
vn 0.8865 -0.4523 0.0973
vn 0.8865 -0.4523 0.0974
vn 0.7306 0.6591 -0.1784
vn 0.7716 0.5006 -0.3925
vn 0.7718 0.4978 -0.3956
vn -0.0038 -0.5445 0.8388
vn 0.0094 -0.7506 0.6607
vn 0.0093 -0.7478 0.6639
vn 0.8939 -0.1983 0.4020
vn 0.9081 -0.3102 0.2812
vn 0.9081 -0.3102 0.2811
vn 0.8939 -0.1984 0.4019
vn 0.7893 0.4807 -0.3820
vn 0.7902 0.4977 -0.3575
vn 0.7902 0.4978 -0.3574
vn 0.0381 -0.7502 0.6601
vn 0.0410 -0.7301 0.6821
vn 0.0410 -0.7302 0.6820
vn 0.9076 -0.3026 0.2912
vn 0.9062 -0.2808 0.3162
vn 0.7880 0.3275 -0.5213
vn 0.7893 0.3989 -0.4668
vn 0.7878 0.3236 -0.5240
vn 0.1063 -0.8192 0.5635
vn 0.1107 -0.7368 0.6670
vn 0.1107 -0.7367 0.6670
vn 0.1063 -0.8204 0.5618
vn 0.8957 -0.4008 0.1927
vn 0.8983 -0.3219 0.2991
vn 0.8951 -0.4049 0.1867
vn 0.7655 0.4978 -0.4078
vn 0.7735 0.4679 -0.4275
vn 0.7742 0.4650 -0.4293
vn 0.1021 -0.8354 0.5400
vn 0.1018 -0.8380 0.5360
vn 0.8927 -0.2827 0.3509
vn 0.8972 -0.3899 0.2074
vn 0.8963 -0.3979 0.1958
vn 0.7825 0.4279 -0.4524
vn 0.0885 -0.9266 0.3656
vn 0.8694 -0.4921 0.0440
vn 0.0031 0.4187 -0.9081
vn 0.0121 0.5609 -0.8278
vn 0.0119 0.5592 -0.8290
vn -0.6956 -0.7165 0.0535
vn -0.7331 -0.6512 0.1961
vn -0.7335 -0.6503 0.1978
vn -0.8168 0.0146 -0.5767
vn -0.8684 0.1294 -0.4786
vn -0.8685 0.1294 -0.4785
vn -0.0097 0.9062 -0.4228
vn -0.0069 0.7577 -0.6525
vn -0.0070 0.7605 -0.6493
vn -0.7486 -0.2946 0.5940
vn -0.7739 -0.4859 0.4061
vn -0.7739 -0.4886 0.4030
vn -0.8992 0.3966 -0.1851
vn -0.8992 0.3966 -0.1849
vn -0.9039 0.2915 -0.3130
vn -0.9039 0.2916 -0.3129
vn -0.0355 0.7558 -0.6539
vn -0.0400 0.7748 -0.6310
vn -0.0400 0.7747 -0.6310
vn -0.7913 -0.4734 0.3869
vn -0.7940 -0.4515 0.4071
vn -0.7940 -0.4514 0.4072
vn -0.9043 0.2999 -0.3039
vn -0.9049 0.3217 -0.2787
vn -0.0440 0.6048 -0.7951
vn -0.0445 0.6010 -0.7980
vn -0.0353 0.6740 -0.7379
vn -0.8201 -0.5104 0.2587
vn -0.8198 -0.5118 0.2570
vn -0.8337 -0.4222 0.3560
vn -0.8965 0.1965 -0.3971
vn -0.8952 0.1917 -0.4024
vn -0.9125 0.2821 -0.2963
vn 0.0022 0.7516 -0.6596
vn -0.0098 0.7259 -0.6877
vn -0.0086 0.7283 -0.6852
vn -0.8126 -0.5334 0.2348
vn -0.8134 -0.5307 0.2381
vn -0.9155 0.3187 -0.2456
vn -0.8968 0.1992 -0.3951
vn -0.8993 0.2081 -0.3846
vn -0.0228 0.6963 -0.7174
vn -0.7605 -0.6436 0.0861
vn -0.8493 0.0807 -0.5217
vn -0.7530 -0.5036 0.4236
vn -0.0240 -0.7471 0.6643
vn 0.7506 0.5194 -0.4085
vn 0.0260 0.7618 -0.6473
vn -0.7317 -0.6655 0.1475
vn 0.0237 -0.9175 0.3971
vn 0.8794 -0.4707 0.0715
vn 0.7478 0.2676 -0.6076
vn -0.0032 0.5184 -0.8551
vn -0.8597 0.1065 -0.4995
vn 0.9069 -0.3001 0.2957
vn 0.8166 0.4503 -0.3611
vn 0.8166 0.4504 -0.3610
vn -0.0817 0.7497 -0.6567
vn -0.0817 0.7497 -0.6568
vn -0.9042 0.3035 -0.3004
vn -0.8183 -0.4494 0.3584
vn -0.8183 -0.4492 0.3585
vn 0.0848 -0.7503 0.6557
vn 0.0848 -0.7503 0.6556
usemtl initialShadingGroup.007
s off
f 1/1/1 2/2/1 3/3/1 4/4/1 5/5/1 6/6/1
f 7/7/2 8/8/2 9/9/2 10/10/2 11/11/2 12/12/2
s 1
f 5/13/3 13/14/4 14/15/5 6/16/3
f 3/17/6 15/18/7 16/19/8 4/20/6
f 4/21/9 16/22/10 13/23/11 5/24/9
f 17/25/12 18/26/13 19/27/14 20/28/12
f 21/29/15 22/30/16 23/31/17 24/32/15
f 24/33/18 23/34/19 18/35/20 17/36/21
f 25/37/22 26/38/23 27/39/24 28/40/22
f 29/41/25 30/42/26 31/43/27 32/44/25
f 32/45/28 31/46/29 26/47/29 25/48/28
f 33/49/30 34/50/31 35/51/31 36/52/32
f 37/53/33 38/54/34 39/55/35 40/56/36
f 40/56/37 39/55/38 34/57/38 33/58/39
f 34/50/40 41/59/41 42/60/42 35/51/40
f 38/54/34 43/61/43 44/62/44 39/55/35
f 39/55/45 44/62/46 41/63/47 34/57/45
f 41/59/41 10/64/48 9/65/48 42/60/42
f 43/66/43 12/67/49 11/68/49 44/69/44
f 44/62/46 11/70/50 10/71/50 41/63/47
f 1/72/51 6/16/51 14/15/52 45/73/53
f 3/17/54 2/74/54 46/75/55 15/18/56
f 2/76/57 1/77/57 45/78/58 46/79/59
f 47/80/60 20/28/60 19/27/61 48/81/62
f 21/29/63 49/82/63 50/83/64 22/30/65
f 49/84/66 47/85/67 48/86/68 50/87/69
f 51/88/70 28/40/70 27/39/71 52/89/72
f 29/41/73 53/90/73 54/91/74 30/42/75
f 53/92/76 51/93/76 52/94/77 54/95/77
f 55/96/78 36/52/79 35/51/80 56/97/80
f 37/98/81 57/99/82 58/100/83 38/101/83
f 57/99/84 55/102/85 56/103/86 58/100/86
f 56/97/87 35/51/87 42/60/88 59/104/89
f 38/101/83 58/100/83 60/105/90 43/106/91
f 58/100/92 56/103/92 59/107/93 60/105/94
f 59/104/89 42/60/88 9/65/95 8/108/95
f 43/66/91 60/109/90 7/110/96 12/67/96
f 60/105/94 59/107/93 8/111/97 7/112/97
f 15/18/56 46/75/55 49/82/98 21/29/98
f 16/19/8 15/18/7 21/29/99 24/32/99
f 13/23/11 16/22/10 24/33/18 17/36/21
f 14/15/5 13/14/4 17/25/100 20/28/100
f 45/73/53 14/15/52 20/28/101 47/80/101
f 46/79/59 45/78/58 47/85/67 49/84/66
f 22/30/65 50/83/64 53/90/102 29/41/102
f 23/31/17 22/30/16 29/41/103 32/44/103
f 18/35/20 23/34/19 32/45/104 25/48/104
f 19/27/14 18/26/13 25/37/105 28/40/105
f 48/81/62 19/27/61 28/40/106 51/88/106
f 50/87/69 48/86/68 51/93/107 53/92/107
f 61/113/108 40/56/37 33/58/39 62/114/108
f 63/115/109 62/116/110 33/49/30 36/52/32
f 64/117/111 63/115/112 36/52/79 55/96/78
f 65/118/113 64/119/113 55/102/85 57/99/84
f 66/120/114 65/121/115 57/122/82 37/123/81
f 61/124/116 66/120/117 37/123/33 40/125/36
f 31/46/29 61/113/108 62/114/108 26/47/29
f 27/39/24 26/38/23 62/116/110 63/115/109
f 52/89/72 27/39/71 63/115/112 64/117/111
f 54/95/77 52/94/77 64/119/113 65/118/113
f 30/42/75 54/91/74 65/121/115 66/120/114
f 31/43/27 30/42/26 66/120/117 61/124/116
