# Blender v2.79 (sub 6) OBJ File: ''
# www.blender.org
mtllib flauta2_000013.mtl
o f2_Flauta_1:pCylinder3
v -0.575319 12.563337 4.762927
v -0.695741 12.367104 4.927678
v -0.500762 12.183091 5.094787
v -0.185635 12.196685 5.095945
v -0.067056 12.393535 4.930585
v -0.261766 12.576166 4.764682
v -0.306431 9.048449 1.086864
v -0.271607 9.105113 1.039293
v -0.188994 9.111532 1.037128
v -0.140784 9.061516 1.082353
v -0.175145 9.004698 1.130077
v -0.258177 8.998051 1.132422
v -0.179081 12.227255 4.757851
v -0.306570 12.336233 4.658392
v -0.441008 12.114553 4.844573
v -0.245719 12.116218 4.851136
v -0.163894 12.077666 4.589940
v -0.093124 11.941067 4.408975
v -0.258090 12.096307 4.267976
v -0.299226 12.189723 4.487497
v -0.434419 11.966595 4.674899
v -0.461658 11.761567 4.549088
v -0.194135 11.773434 4.549790
v -0.230883 11.965896 4.683845
v -0.156571 11.800196 4.261136
v -0.079919 10.000904 2.153983
v -0.188329 10.114890 2.050974
v -0.284139 11.911308 4.159828
v -0.422982 11.682531 4.351965
v -0.346990 9.854640 2.269515
v -0.158719 9.870600 2.263429
v -0.225411 11.685610 4.357399
v -0.071555 9.776806 1.895126
v -0.083896 9.362570 1.499218
v -0.195874 9.460130 1.410268
v -0.178665 9.889427 1.793352
v -0.335425 9.632296 2.009274
v -0.323219 9.251248 1.585673
v -0.144725 9.273765 1.573517
v -0.149410 9.648065 2.003261
v -0.071295 9.206424 1.332513
v -0.188571 9.310716 1.237525
v -0.315972 9.101739 1.413009
v -0.125003 9.118055 1.406725
v -0.500911 12.334974 4.651517
v -0.568715 12.224328 4.744416
v -0.501786 12.190825 4.478244
v -0.524286 12.085087 4.266770
v -0.569994 12.079463 4.571745
v -0.626849 11.917973 4.407073
v -0.480753 11.908650 4.154070
v -0.375641 10.099453 2.056648
v -0.550759 11.794454 4.249949
v -0.455503 9.969503 2.165744
v -0.363733 9.874176 1.798957
v -0.368904 9.457548 1.405410
v -0.442639 9.745783 1.906747
v -0.418614 9.365038 1.483368
v -0.371932 9.306611 1.233560
v -0.425914 9.218334 1.307682
v -0.107595 9.703907 2.169025
v 0.004184 9.888749 2.013770
v -0.149599 10.050445 1.867648
v -0.415309 10.028547 1.875695
v -0.528598 9.844208 2.030453
v -0.374665 9.681268 2.177658
vt 0.702577 0.155012
vt 0.702394 0.195958
vt 0.661476 0.216292
vt 0.620892 0.195458
vt 0.621370 0.154514
vt 0.662138 0.134403
vt 0.774035 0.140274
vt 0.774082 0.152100
vt 0.763676 0.158055
vt 0.753188 0.152248
vt 0.753068 0.140422
vt 0.763510 0.134403
vt 0.340220 0.869931
vt 0.355018 0.835822
vt 0.380841 0.835822
vt 0.380989 0.869931
vt 0.575158 0.134403
vt 0.575252 0.168512
vt 0.549546 0.168512
vt 0.534573 0.134403
vt 0.467619 0.134403
vt 0.458844 0.168512
vt 0.435764 0.168512
vt 0.426674 0.134403
vt 0.353739 0.803249
vt 0.346351 0.770227
vt 0.380933 0.770227
vt 0.380852 0.803249
vt 0.575245 0.201085
vt 0.575205 0.234107
vt 0.540778 0.234107
vt 0.548253 0.201085
vt 0.458915 0.201085
vt 0.464632 0.234107
vt 0.429763 0.234107
vt 0.435687 0.201085
vt 0.354846 0.741026
vt 0.357122 0.340135
vt 0.380831 0.340135
vt 0.380854 0.741026
vt 0.575266 0.263308
vt 0.575280 0.664199
vt 0.551677 0.664199
vt 0.549374 0.263308
vt 0.459207 0.263308
vt 0.460826 0.664199
vt 0.433705 0.664199
vt 0.435384 0.263308
vt 0.357404 0.290603
vt 0.357944 0.208198
vt 0.380776 0.208198
vt 0.380829 0.290603
vt 0.474302 0.713731
vt 0.476098 0.796136
vt 0.461739 0.796136
vt 0.460667 0.713731
vt 0.442837 0.796136
vt 0.433871 0.713731
vt 0.356659 0.175148
vt 0.380745 0.175148
vt 0.476107 0.829186
vt 0.462087 0.829186
vt 0.443679 0.829186
vt 0.370235 0.134403
vt 0.380723 0.134403
vt 0.707211 0.158529
vt 0.747956 0.158411
vt 0.747956 0.168852
vt 0.707211 0.182460
vt 0.453313 0.869931
vt 0.441487 0.869931
vt 0.421428 0.869931
vt 0.406455 0.835822
vt 0.616075 0.134403
vt 0.601169 0.168512
vt 0.488612 0.134403
vt 0.529558 0.134403
vt 0.520686 0.168512
vt 0.497605 0.168512
vt 0.407748 0.803249
vt 0.415237 0.770227
vt 0.602457 0.201085
vt 0.609913 0.234107
vt 0.497531 0.201085
vt 0.520760 0.201085
vt 0.526541 0.234107
vt 0.491670 0.234107
vt 0.406654 0.741026
vt 0.404351 0.340135
vt 0.601368 0.263308
vt 0.599075 0.664199
vt 0.497231 0.263308
vt 0.521055 0.263308
vt 0.522693 0.664199
vt 0.495571 0.664199
vt 0.404066 0.290603
vt 0.403461 0.208198
vt 0.482429 0.713731
vt 0.495735 0.713731
vt 0.494684 0.796136
vt 0.480633 0.796136
vt 0.522532 0.713731
vt 0.513573 0.796136
vt 0.404672 0.175148
vt 0.494305 0.829186
vt 0.480624 0.829186
vt 0.512714 0.829186
vt 0.391128 0.134403
vt 0.707211 0.134403
vt 0.747956 0.147885
vt 0.515097 0.869931
vt 0.503271 0.869931
vt 0.466402 0.690512
vt 0.427930 0.690512
vt 0.380929 0.313822
vt 0.347296 0.313822
vt 0.414292 0.313822
vt 0.489856 0.690512
vt 0.528330 0.690512
vt 0.575218 0.690512
vt 0.608972 0.690512
vt 0.598792 0.713731
vt 0.575282 0.713731
vt 0.541736 0.690512
vt 0.551961 0.713731
vn -0.0310 0.6538 0.7561
vn 0.0310 -0.6538 -0.7561
vn 0.7185 0.1834 -0.6709
vn 0.7469 0.3168 -0.5846
vn 0.7471 0.3183 -0.5835
vn 0.0243 -0.9573 0.2881
vn 0.0062 -0.8984 0.4391
vn 0.0064 -0.8993 0.4373
vn 0.8444 -0.5348 -0.0320
vn 0.8869 -0.4516 0.0968
vn 0.8869 -0.4516 0.0969
vn 0.7301 0.6605 -0.1754
vn 0.7715 0.5028 -0.3899
vn 0.7717 0.5000 -0.3931
vn -0.0042 -0.5473 0.8369
vn 0.0095 -0.7528 0.6582
vn 0.0094 -0.7500 0.6614
vn 0.8937 -0.1987 0.4023
vn 0.9082 -0.3101 0.2812
vn 0.9082 -0.3102 0.2811
vn 0.8937 -0.1988 0.4023
vn 0.7892 0.4828 -0.3795
vn 0.7901 0.4998 -0.3550
vn 0.7901 0.4999 -0.3548
vn 0.0382 -0.7524 0.6576
vn 0.0410 -0.7323 0.6797
vn 0.0410 -0.7324 0.6796
vn 0.9076 -0.3025 0.2912
vn 0.9061 -0.2808 0.3163
vn 0.7883 0.3301 -0.5193
vn 0.7894 0.4013 -0.4645
vn 0.7881 0.3263 -0.5220
vn 0.1066 -0.8210 0.5609
vn 0.1108 -0.7389 0.6647
vn 0.1066 -0.8222 0.5591
vn 0.8959 -0.4004 0.1924
vn 0.8983 -0.3219 0.2991
vn 0.8953 -0.4045 0.1864
vn 0.7654 0.5000 -0.4052
vn 0.7735 0.4702 -0.4251
vn 0.7742 0.4673 -0.4269
vn 0.1025 -0.8371 0.5373
vn 0.1022 -0.8397 0.5333
vn 0.8926 -0.2828 0.3510
vn 0.8974 -0.3896 0.2071
vn 0.8965 -0.3975 0.1955
vn 0.7825 0.4303 -0.4500
vn 0.0892 -0.9277 0.3626
vn 0.8699 -0.4913 0.0433
vn 0.0037 0.4217 -0.9067
vn 0.0124 0.5637 -0.8259
vn 0.0122 0.5620 -0.8271
vn -0.6948 -0.7174 0.0503
vn -0.7326 -0.6527 0.1931
vn -0.7330 -0.6518 0.1948
vn -0.8162 0.0156 -0.5776
vn -0.8680 0.1300 -0.4792
vn -0.8681 0.1300 -0.4791
vn -0.0102 0.9076 -0.4198
vn -0.0071 0.7599 -0.6500
vn -0.0071 0.7626 -0.6468
vn -0.7490 -0.2974 0.5921
vn -0.7738 -0.4881 0.4036
vn -0.7738 -0.4908 0.4005
vn -0.8994 0.3962 -0.1848
vn -0.8994 0.3962 -0.1846
vn -0.9039 0.2916 -0.3130
vn -0.0356 0.7579 -0.6514
vn -0.0402 0.7768 -0.6284
vn -0.0402 0.7768 -0.6285
vn -0.7912 -0.4756 0.3844
vn -0.7940 -0.4538 0.4047
vn -0.7940 -0.4537 0.4047
vn -0.9043 0.2999 -0.3040
vn -0.9049 0.3216 -0.2787
vn -0.0438 0.6074 -0.7932
vn -0.0443 0.6036 -0.7960
vn -0.0352 0.6764 -0.7357
vn -0.8198 -0.5122 0.2560
vn -0.8195 -0.5136 0.2543
vn -0.8336 -0.4243 0.3536
vn -0.8336 -0.4244 0.3536
vn -0.8962 0.1968 -0.3975
vn -0.8949 0.1920 -0.4028
vn -0.9125 0.2821 -0.2964
vn 0.0021 0.7539 -0.6570
vn -0.0098 0.7282 -0.6853
vn -0.0087 0.7306 -0.6828
vn -0.8123 -0.5351 0.2321
vn -0.8131 -0.5324 0.2354
vn -0.9155 0.3185 -0.2456
vn -0.8966 0.1995 -0.3955
vn -0.8991 0.2084 -0.3850
vn -0.0228 0.6987 -0.7151
vn -0.7599 -0.6447 0.0831
vn -0.8488 0.0815 -0.5224
vn -0.7529 -0.5059 0.4210
vn -0.0239 -0.7493 0.6618
vn 0.7505 0.5216 -0.4059
vn 0.0259 0.7640 -0.6447
vn -0.7311 -0.6668 0.1444
vn 0.0243 -0.9188 0.3940
vn 0.8798 -0.4699 0.0709
vn 0.7481 0.2705 -0.6059
vn -0.0028 0.5213 -0.8534
vn -0.8593 0.1072 -0.5001
vn 0.9069 -0.3000 0.2957
vn 0.8165 0.4524 -0.3587
vn 0.8165 0.4525 -0.3586
vn -0.0818 0.7518 -0.6543
vn -0.9042 0.3035 -0.3004
vn -0.8182 -0.4515 0.3559
vn -0.8182 -0.4513 0.3561
vn 0.0848 -0.7524 0.6533
vn 0.0849 -0.7524 0.6532
usemtl initialShadingGroup
s off
f 1/1/1 2/2/1 3/3/1 4/4/1 5/5/1 6/6/1
f 7/7/2 8/8/2 9/9/2 10/10/2 11/11/2 12/12/2
s 1
f 5/13/3 13/14/4 14/15/5 6/16/3
f 3/17/6 15/18/7 16/19/8 4/20/6
f 4/21/9 16/22/10 13/23/11 5/24/9
f 17/25/12 18/26/13 19/27/14 20/28/12
f 21/29/15 22/30/16 23/31/17 24/32/15
f 24/33/18 23/34/19 18/35/20 17/36/21
f 25/37/22 26/38/23 27/39/24 28/40/22
f 29/41/25 30/42/26 31/43/27 32/44/25
f 32/45/28 31/46/29 26/47/29 25/48/28
f 33/49/30 34/50/31 35/51/31 36/52/32
f 37/53/33 38/54/34 39/55/34 40/56/35
f 40/56/36 39/55/37 34/57/37 33/58/38
f 34/50/39 41/59/40 42/60/41 35/51/39
f 38/54/34 43/61/42 44/62/43 39/55/34
f 39/55/44 44/62/45 41/63/46 34/57/44
f 41/59/40 10/64/47 9/65/47 42/60/41
f 43/66/42 12/67/48 11/68/48 44/69/43
f 44/62/45 11/70/49 10/71/49 41/63/46
f 1/72/50 6/16/50 14/15/51 45/73/52
f 3/17/53 2/74/53 46/75/54 15/18/55
f 2/76/56 1/77/56 45/78/57 46/79/58
f 47/80/59 20/28/59 19/27/60 48/81/61
f 21/29/62 49/82/62 50/83/63 22/30/64
f 49/84/65 47/85/66 48/86/67 50/87/67
f 51/88/68 28/40/68 27/39/69 52/89/70
f 29/41/71 53/90/71 54/91/72 30/42/73
f 53/92/74 51/93/74 52/94/75 54/95/75
f 55/96/76 36/52/77 35/51/78 56/97/78
f 37/98/79 57/99/80 58/100/81 38/101/82
f 57/99/83 55/102/84 56/103/85 58/100/85
f 56/97/86 35/51/86 42/60/87 59/104/88
f 38/101/82 58/100/81 60/105/89 43/106/90
f 58/100/91 56/103/91 59/107/92 60/105/93
f 59/104/88 42/60/87 9/65/94 8/108/94
f 43/66/90 60/109/89 7/110/95 12/67/95
f 60/105/93 59/107/92 8/111/96 7/112/96
f 15/18/55 46/75/54 49/82/97 21/29/97
f 16/19/8 15/18/7 21/29/98 24/32/98
f 13/23/11 16/22/10 24/33/18 17/36/21
f 14/15/5 13/14/4 17/25/99 20/28/99
f 45/73/52 14/15/51 20/28/100 47/80/100
f 46/79/58 45/78/57 47/85/66 49/84/65
f 22/30/64 50/83/63 53/90/101 29/41/101
f 23/31/17 22/30/16 29/41/102 32/44/102
f 18/35/20 23/34/19 32/45/103 25/48/103
f 19/27/14 18/26/13 25/37/104 28/40/104
f 48/81/61 19/27/60 28/40/105 51/88/105
f 50/87/67 48/86/67 51/93/106 53/92/106
f 61/113/107 40/56/36 33/58/38 62/114/107
f 63/115/108 62/116/109 33/49/30 36/52/32
f 64/117/110 63/115/110 36/52/77 55/96/76
f 65/118/111 64/119/111 55/102/84 57/99/83
f 66/120/112 65/121/113 57/122/80 37/123/79
f 61/124/114 66/120/115 37/123/33 40/125/35
f 31/46/29 61/113/107 62/114/107 26/47/29
f 27/39/24 26/38/23 62/116/109 63/115/108
f 52/89/70 27/39/69 63/115/110 64/117/110
f 54/95/75 52/94/75 64/119/111 65/118/111
f 30/42/73 54/91/72 65/121/113 66/120/112
f 31/43/27 30/42/26 66/120/115 61/124/114
