# Blender v2.79 (sub 6) OBJ File: ''
# www.blender.org
mtllib flauta2_000004.mtl
o f2_Flauta_1:pCylinder3
v -1.693156 12.735393 3.771065
v -1.831318 12.594918 3.974364
v -1.655602 12.471710 4.206195
v -1.341862 12.489929 4.233156
v -1.205468 12.630783 4.028922
v -1.381051 12.753033 3.798671
v -1.122514 8.294006 1.344415
v -1.082567 8.334571 1.285718
v -1.000044 8.341342 1.289594
v -0.957029 8.307720 1.351967
v -0.996531 8.267061 1.410899
v -1.079491 8.260118 1.407222
v -1.302752 12.419083 3.903405
v -1.418731 12.491718 3.764499
v -1.573223 12.333073 3.994374
v -1.379441 12.339638 4.018641
v -1.273649 12.226727 3.789591
v -1.187804 12.043771 3.664793
v -1.336516 12.147701 3.469148
v -1.397110 12.301295 3.646194
v -1.552490 12.141618 3.877587
v -1.570363 11.908128 3.816186
v -1.303986 11.923822 3.838711
v -1.350756 12.146759 3.905600
v -1.238766 11.864465 3.560015
v -0.985913 9.523196 2.097842
v -1.082496 9.599859 1.955889
v -1.354619 11.938589 3.418712
v -1.514158 11.774862 3.655932
v -1.264693 9.413588 2.225649
v -1.076502 9.429950 2.232993
v -1.317978 11.782479 3.678924
v -0.955939 9.232640 1.919026
v -0.936066 8.719585 1.664336
v -1.037758 8.784670 1.540272
v -1.051365 9.308385 1.778774
v -1.231379 9.124345 2.045302
v -1.183994 8.635165 1.756786
v -1.004869 8.655839 1.755491
v -1.045442 9.140512 2.052557
v -0.909739 8.521283 1.553366
v -1.016041 8.590926 1.421066
v -1.162341 8.441354 1.637679
v -0.971440 8.458039 1.644985
v -1.611535 12.485462 3.739906
v -1.689343 12.406259 3.854549
v -1.597837 12.296463 3.617861
v -1.601515 12.132495 3.446079
v -1.676113 12.216747 3.733250
v -1.719186 12.012866 3.619208
v -1.549810 11.931293 3.395380
v -1.269687 9.583889 1.948089
v -1.630141 11.849546 3.513697
v -1.361296 9.490861 2.082702
v -1.236313 9.292606 1.771067
v -1.209560 8.778079 1.520009
v -1.326825 9.200692 1.904067
v -1.267693 8.712050 1.616794
v -1.198230 8.582985 1.401124
v -1.260194 8.519797 1.492604
v -1.018853 9.243589 2.197514
v -0.890349 9.375863 2.005796
v -1.027356 9.484614 1.804429
v -1.292894 9.461960 1.793364
v -1.422847 9.329995 1.984318
v -1.285810 9.220380 2.187097
vt 0.702577 0.155012
vt 0.702394 0.195958
vt 0.661476 0.216292
vt 0.620892 0.195458
vt 0.621370 0.154514
vt 0.662138 0.134403
vt 0.774035 0.140274
vt 0.774082 0.152100
vt 0.763676 0.158055
vt 0.753188 0.152248
vt 0.753068 0.140422
vt 0.763510 0.134403
vt 0.340220 0.869931
vt 0.355018 0.835822
vt 0.380841 0.835822
vt 0.380989 0.869931
vt 0.575158 0.134403
vt 0.575252 0.168512
vt 0.549546 0.168512
vt 0.534573 0.134403
vt 0.467619 0.134403
vt 0.458844 0.168512
vt 0.435764 0.168512
vt 0.426674 0.134403
vt 0.353739 0.803249
vt 0.346351 0.770227
vt 0.380933 0.770227
vt 0.380852 0.803249
vt 0.575245 0.201085
vt 0.575205 0.234107
vt 0.540778 0.234107
vt 0.548253 0.201085
vt 0.458915 0.201085
vt 0.464632 0.234107
vt 0.429763 0.234107
vt 0.435687 0.201085
vt 0.354846 0.741026
vt 0.357122 0.340135
vt 0.380831 0.340135
vt 0.380854 0.741026
vt 0.575266 0.263308
vt 0.575280 0.664199
vt 0.551677 0.664199
vt 0.549374 0.263308
vt 0.459207 0.263308
vt 0.460826 0.664199
vt 0.433705 0.664199
vt 0.435384 0.263308
vt 0.357404 0.290603
vt 0.357944 0.208198
vt 0.380776 0.208198
vt 0.380829 0.290603
vt 0.474302 0.713731
vt 0.476098 0.796136
vt 0.461739 0.796136
vt 0.460667 0.713731
vt 0.442837 0.796136
vt 0.433871 0.713731
vt 0.356659 0.175148
vt 0.380745 0.175148
vt 0.476107 0.829186
vt 0.462087 0.829186
vt 0.443679 0.829186
vt 0.370235 0.134403
vt 0.380723 0.134403
vt 0.707211 0.158529
vt 0.747956 0.158411
vt 0.747956 0.168852
vt 0.707211 0.182460
vt 0.453313 0.869931
vt 0.441487 0.869931
vt 0.421428 0.869931
vt 0.406455 0.835822
vt 0.616075 0.134403
vt 0.601169 0.168512
vt 0.488612 0.134403
vt 0.529558 0.134403
vt 0.520686 0.168512
vt 0.497605 0.168512
vt 0.407748 0.803249
vt 0.415237 0.770227
vt 0.602457 0.201085
vt 0.609913 0.234107
vt 0.497531 0.201085
vt 0.520760 0.201085
vt 0.526541 0.234107
vt 0.491670 0.234107
vt 0.406654 0.741026
vt 0.404351 0.340135
vt 0.601368 0.263308
vt 0.599075 0.664199
vt 0.497231 0.263308
vt 0.521055 0.263308
vt 0.522693 0.664199
vt 0.495571 0.664199
vt 0.404066 0.290603
vt 0.403461 0.208198
vt 0.482429 0.713731
vt 0.495735 0.713731
vt 0.494684 0.796136
vt 0.480633 0.796136
vt 0.522532 0.713731
vt 0.513573 0.796136
vt 0.404672 0.175148
vt 0.494305 0.829186
vt 0.480624 0.829186
vt 0.512714 0.829186
vt 0.391128 0.134403
vt 0.707211 0.134403
vt 0.747956 0.147885
vt 0.515097 0.869931
vt 0.503271 0.869931
vt 0.466402 0.690512
vt 0.427930 0.690512
vt 0.380929 0.313822
vt 0.347296 0.313822
vt 0.414292 0.313822
vt 0.489856 0.690512
vt 0.528330 0.690512
vt 0.575218 0.690512
vt 0.608972 0.690512
vt 0.598792 0.713731
vt 0.575282 0.713731
vt 0.541736 0.690512
vt 0.551961 0.713731
vn -0.0941 0.8478 0.5219
vn 0.0941 -0.8478 -0.5219
vn 0.7815 -0.0124 -0.6238
vn 0.8033 0.1410 -0.5787
vn 0.8034 0.1428 -0.5780
vn -0.0160 -0.8285 0.5598
vn -0.0476 -0.7279 0.6841
vn -0.0472 -0.7292 0.6827
vn 0.8364 -0.5071 0.2082
vn 0.8676 -0.3888 0.3100
vn 0.7522 0.5902 -0.2931
vn 0.8117 0.3767 -0.4464
vn 0.8122 0.3730 -0.4486
vn -0.0911 -0.2748 0.9572
vn -0.0632 -0.5238 0.8495
vn -0.0636 -0.5202 0.8517
vn 0.8486 -0.0567 0.5260
vn 0.8731 -0.1988 0.4452
vn 0.8731 -0.1989 0.4452
vn 0.8486 -0.0568 0.5260
vn 0.8281 0.3610 -0.4289
vn 0.8269 0.3844 -0.4105
vn 0.8268 0.3846 -0.4104
vn -0.0346 -0.5232 0.8515
vn -0.0336 -0.4974 0.8669
vn -0.0336 -0.4975 0.8668
vn 0.8716 -0.1886 0.4525
vn 0.8681 -0.1604 0.4698
vn 0.8384 0.1737 -0.5166
vn 0.8353 0.2579 -0.4855
vn 0.8384 0.1692 -0.5181
vn 0.0418 -0.6163 0.7864
vn 0.0372 -0.5070 0.8611
vn 0.0419 -0.6179 0.7851
vn 0.8681 -0.3115 0.3865
vn 0.8614 -0.2049 0.4648
vn 0.8680 -0.3172 0.3819
vn 0.8071 0.3694 -0.4607
vn 0.8166 0.3351 -0.4699
vn 0.8175 0.3319 -0.4707
vn 0.0397 -0.6387 0.7684
vn 0.0397 -0.6424 0.7654
vn 0.8513 -0.1523 0.5021
vn 0.8683 -0.2968 0.3974
vn 0.8685 -0.3078 0.3886
vn 0.8275 0.2898 -0.4810
vn 0.0419 -0.7772 0.6279
vn 0.8552 -0.4429 0.2692
vn 0.0956 0.1343 -0.9863
vn 0.0985 0.2939 -0.9508
vn 0.0984 0.2919 -0.9514
vn -0.7060 -0.6810 0.1945
vn -0.7563 -0.5775 0.3075
vn -0.7568 -0.5761 0.3088
vn -0.7572 -0.1688 -0.6310
vn -0.8167 -0.0313 -0.5762
vn -0.8168 -0.0312 -0.5761
vn 0.0419 0.7422 -0.6689
vn 0.0650 0.5331 -0.8436
vn 0.0647 0.5366 -0.8413
vn -0.8058 -0.1203 0.5798
vn -0.8152 -0.3586 0.4548
vn -0.8149 -0.3621 0.4526
vn -0.8724 0.3097 -0.3783
vn -0.8724 0.3097 -0.3782
vn -0.8660 0.1717 -0.4696
vn 0.0367 0.5303 -0.8470
vn 0.0302 0.5551 -0.8312
vn 0.0302 0.5550 -0.8313
vn -0.8305 -0.3526 0.4312
vn -0.8348 -0.3258 0.4437
vn -0.8348 -0.3257 0.4438
vn -0.8671 0.1823 -0.4635
vn -0.8699 0.2105 -0.4460
vn 0.0400 0.3445 -0.9379
vn 0.0397 0.3400 -0.9396
vn 0.0440 0.4275 -0.9030
vn -0.8472 -0.4260 0.3173
vn -0.8467 -0.4279 0.3161
vn -0.8691 -0.3134 0.3828
vn -0.8691 -0.3135 0.3827
vn -0.8516 0.0563 -0.5211
vn -0.8499 0.0502 -0.5246
vn -0.8763 0.1674 -0.4518
vn 0.0747 0.5254 -0.8476
vn 0.0652 0.4923 -0.8680
vn 0.0661 0.4953 -0.8662
vn -0.8377 -0.4549 0.3021
vn -0.8389 -0.4513 0.3044
vn -0.8837 0.2172 -0.4146
vn -0.8521 0.0594 -0.5200
vn -0.8555 0.0711 -0.5129
vn 0.0547 0.4551 -0.8888
vn -0.7729 -0.6029 0.1980
vn -0.7941 -0.0901 -0.6011
vn -0.7962 -0.3701 0.4786
vn -0.0968 -0.5200 0.8487
vn 0.7926 0.3895 -0.4691
vn 0.0973 0.5390 -0.8366
vn -0.7503 -0.6054 0.2655
vn -0.0255 -0.7603 0.6490
vn 0.8628 -0.4141 0.2901
vn 0.8060 0.0905 -0.5850
vn 0.0854 0.2450 -0.9657
vn -0.8063 -0.0591 -0.5886
vn 0.8706 -0.1849 0.4560
vn 0.8529 0.3385 -0.3975
vn 0.8529 0.3386 -0.3974
vn -0.0091 0.5229 -0.8523
vn -0.0091 0.5229 -0.8524
vn -0.8674 0.1868 -0.4612
vn -0.8543 -0.3384 0.3944
vn -0.8543 -0.3382 0.3946
vn 0.0122 -0.5237 0.8518
vn 0.0123 -0.5238 0.8518
usemtl initialShadingGroup
s off
f 1/1/1 2/2/1 3/3/1 4/4/1 5/5/1 6/6/1
f 7/7/2 8/8/2 9/9/2 10/10/2 11/11/2 12/12/2
s 1
f 5/13/3 13/14/4 14/15/5 6/16/3
f 3/17/6 15/18/7 16/19/8 4/20/6
f 4/21/9 16/22/10 13/23/10 5/24/9
f 17/25/11 18/26/12 19/27/13 20/28/11
f 21/29/14 22/30/15 23/31/16 24/32/14
f 24/33/17 23/34/18 18/35/19 17/36/20
f 25/37/21 26/38/22 27/39/23 28/40/21
f 29/41/24 30/42/25 31/43/26 32/44/24
f 32/45/27 31/46/28 26/47/28 25/48/27
f 33/49/29 34/50/30 35/51/30 36/52/31
f 37/53/32 38/54/33 39/55/33 40/56/34
f 40/56/35 39/55/36 34/57/36 33/58/37
f 34/50/38 41/59/39 42/60/40 35/51/38
f 38/54/33 43/61/41 44/62/42 39/55/33
f 39/55/43 44/62/44 41/63/45 34/57/43
f 41/59/39 10/64/46 9/65/46 42/60/40
f 43/66/41 12/67/47 11/68/47 44/69/42
f 44/62/44 11/70/48 10/71/48 41/63/45
f 1/72/49 6/16/49 14/15/50 45/73/51
f 3/17/52 2/74/52 46/75/53 15/18/54
f 2/76/55 1/77/55 45/78/56 46/79/57
f 47/80/58 20/28/58 19/27/59 48/81/60
f 21/29/61 49/82/61 50/83/62 22/30/63
f 49/84/64 47/85/65 48/86/66 50/87/66
f 51/88/67 28/40/67 27/39/68 52/89/69
f 29/41/70 53/90/70 54/91/71 30/42/72
f 53/92/73 51/93/73 52/94/74 54/95/74
f 55/96/75 36/52/76 35/51/77 56/97/77
f 37/98/78 57/99/79 58/100/80 38/101/81
f 57/99/82 55/102/83 56/103/84 58/100/84
f 56/97/85 35/51/85 42/60/86 59/104/87
f 38/101/81 58/100/80 60/105/88 43/106/89
f 58/100/90 56/103/90 59/107/91 60/105/92
f 59/104/87 42/60/86 9/65/93 8/108/93
f 43/66/89 60/109/88 7/110/94 12/67/94
f 60/105/92 59/107/91 8/111/95 7/112/95
f 15/18/54 46/75/53 49/82/96 21/29/96
f 16/19/8 15/18/7 21/29/97 24/32/97
f 13/23/10 16/22/10 24/33/17 17/36/20
f 14/15/5 13/14/4 17/25/98 20/28/98
f 45/73/51 14/15/50 20/28/99 47/80/99
f 46/79/57 45/78/56 47/85/65 49/84/64
f 22/30/63 50/83/62 53/90/100 29/41/100
f 23/31/16 22/30/15 29/41/101 32/44/101
f 18/35/19 23/34/18 32/45/102 25/48/102
f 19/27/13 18/26/12 25/37/103 28/40/103
f 48/81/60 19/27/59 28/40/104 51/88/104
f 50/87/66 48/86/66 51/93/105 53/92/105
f 61/113/106 40/56/35 33/58/37 62/114/106
f 63/115/107 62/116/108 33/49/29 36/52/31
f 64/117/109 63/115/110 36/52/76 55/96/75
f 65/118/111 64/119/111 55/102/83 57/99/82
f 66/120/112 65/121/113 57/122/79 37/123/78
f 61/124/114 66/120/115 37/123/32 40/125/34
f 31/46/28 61/113/106 62/114/106 26/47/28
f 27/39/23 26/38/22 62/116/108 63/115/107
f 52/89/69 27/39/68 63/115/110 64/117/109
f 54/95/74 52/94/74 64/119/111 65/118/111
f 30/42/72 54/91/71 65/121/113 66/120/112
f 31/43/26 30/42/25 66/120/115 61/124/114
