# Blender v2.79 (sub 6) OBJ File: ''
# www.blender.org
mtllib flauta2_000010.mtl
o f2_Flauta_1:pCylinder3
v -0.263817 12.379053 9.425965
v -0.384239 12.122831 9.427132
v -0.189261 11.874498 9.437925
v 0.125866 11.884209 9.447509
v 0.244446 12.141293 9.446269
v 0.049735 12.387794 9.435519
v 0.005070 12.027716 4.352068
v 0.039894 12.101701 4.351733
v 0.122508 12.108020 4.354174
v 0.170718 12.040647 4.356956
v 0.136357 11.966446 4.357310
v 0.053325 11.959835 4.354862
v 0.132420 12.123923 9.207137
v 0.004931 12.271309 9.200366
v -0.129506 11.981821 9.201734
v 0.065783 11.978903 9.207844
v 0.147608 12.116302 8.982386
v 0.218378 12.127014 8.755906
v 0.053412 12.336531 8.746785
v 0.012275 12.267962 8.975290
v -0.122918 11.976580 8.976671
v -0.150157 11.899414 8.748833
v 0.117367 11.908088 8.756961
v 0.080619 11.970322 8.983101
v 0.154930 12.113258 8.552162
v 0.231582 12.077522 5.781554
v 0.123172 12.231029 5.775258
v 0.027363 12.263468 8.545335
v -0.111481 11.964714 8.546743
v -0.035488 11.891193 5.776838
v 0.152782 11.907355 5.782365
v 0.086090 11.963605 8.552890
v 0.239946 12.070779 5.439238
v 0.227605 12.005506 4.869963
v 0.115627 12.137392 4.863969
v 0.132836 12.222445 5.433017
v -0.023923 11.886683 5.434577
v -0.011717 11.864635 4.865237
v 0.166776 11.889718 4.870291
v 0.162092 11.902652 5.440039
v 0.240206 11.992070 4.641946
v 0.122930 12.132995 4.635615
v -0.004471 11.860113 4.636883
v 0.186498 11.876676 4.642487
v -0.189410 12.274738 9.194276
v -0.257213 12.130265 9.194937
v -0.190285 12.274727 8.968882
v -0.212784 12.328675 8.738683
v -0.258492 12.129318 8.969547
v -0.315347 12.110476 8.739676
v -0.169251 12.265105 8.539208
v -0.064140 12.215532 5.769747
v -0.239257 12.115998 8.539889
v -0.144002 12.045861 5.770516
v -0.052232 12.207136 5.427572
v -0.057403 12.138515 4.858583
v -0.131137 12.039497 5.428331
v -0.107112 12.017539 4.859355
v -0.060430 12.132375 4.629942
v -0.114413 12.017107 4.630473
v 0.203906 11.839576 5.603188
v 0.315686 12.080967 5.602037
v 0.161903 12.298721 5.593106
v -0.103807 12.276740 5.585289
v -0.217097 12.036055 5.586379
v -0.063163 11.816650 5.595346
vt 0.702577 0.155012
vt 0.702394 0.195958
vt 0.661476 0.216292
vt 0.620892 0.195458
vt 0.621370 0.154514
vt 0.662138 0.134403
vt 0.774035 0.140274
vt 0.774082 0.152100
vt 0.763676 0.158055
vt 0.753188 0.152248
vt 0.753068 0.140422
vt 0.763510 0.134403
vt 0.340220 0.869931
vt 0.355018 0.835822
vt 0.380841 0.835822
vt 0.380989 0.869931
vt 0.575158 0.134403
vt 0.575252 0.168512
vt 0.549546 0.168512
vt 0.534573 0.134403
vt 0.467619 0.134403
vt 0.458844 0.168512
vt 0.435764 0.168512
vt 0.426674 0.134403
vt 0.353739 0.803249
vt 0.346351 0.770227
vt 0.380933 0.770227
vt 0.380852 0.803249
vt 0.575245 0.201085
vt 0.575205 0.234107
vt 0.540778 0.234107
vt 0.548253 0.201085
vt 0.458915 0.201085
vt 0.464632 0.234107
vt 0.429763 0.234107
vt 0.435687 0.201085
vt 0.354846 0.741026
vt 0.357122 0.340135
vt 0.380831 0.340135
vt 0.380854 0.741026
vt 0.575266 0.263308
vt 0.575280 0.664199
vt 0.551677 0.664199
vt 0.549374 0.263308
vt 0.459207 0.263308
vt 0.460826 0.664199
vt 0.433705 0.664199
vt 0.435384 0.263308
vt 0.357404 0.290603
vt 0.357944 0.208198
vt 0.380776 0.208198
vt 0.380829 0.290603
vt 0.474302 0.713731
vt 0.476098 0.796136
vt 0.461739 0.796136
vt 0.460667 0.713731
vt 0.442837 0.796136
vt 0.433871 0.713731
vt 0.356659 0.175148
vt 0.380745 0.175148
vt 0.476107 0.829186
vt 0.462087 0.829186
vt 0.443679 0.829186
vt 0.370235 0.134403
vt 0.380723 0.134403
vt 0.707211 0.158529
vt 0.747956 0.158411
vt 0.747956 0.168852
vt 0.707211 0.182460
vt 0.453313 0.869931
vt 0.441487 0.869931
vt 0.421428 0.869931
vt 0.406455 0.835822
vt 0.616075 0.134403
vt 0.601169 0.168512
vt 0.488612 0.134403
vt 0.529558 0.134403
vt 0.520686 0.168512
vt 0.497605 0.168512
vt 0.407748 0.803249
vt 0.415237 0.770227
vt 0.602457 0.201085
vt 0.609913 0.234107
vt 0.497531 0.201085
vt 0.520760 0.201085
vt 0.526541 0.234107
vt 0.491670 0.234107
vt 0.406654 0.741026
vt 0.404351 0.340135
vt 0.601368 0.263308
vt 0.599075 0.664199
vt 0.497231 0.263308
vt 0.521055 0.263308
vt 0.522693 0.664199
vt 0.495571 0.664199
vt 0.404066 0.290603
vt 0.403461 0.208198
vt 0.482429 0.713731
vt 0.495735 0.713731
vt 0.494684 0.796136
vt 0.480633 0.796136
vt 0.522532 0.713731
vt 0.513573 0.796136
vt 0.404672 0.175148
vt 0.494305 0.829186
vt 0.480624 0.829186
vt 0.512714 0.829186
vt 0.391128 0.134403
vt 0.707211 0.134403
vt 0.747956 0.147885
vt 0.515097 0.869931
vt 0.503271 0.869931
vt 0.466402 0.690512
vt 0.427930 0.690512
vt 0.380929 0.313822
vt 0.347296 0.313822
vt 0.414292 0.313822
vt 0.489856 0.690512
vt 0.528330 0.690512
vt 0.575218 0.690512
vt 0.608972 0.690512
vt 0.598792 0.713731
vt 0.575282 0.713731
vt 0.541736 0.690512
vt 0.551961 0.713731
vn -0.0310 0.0191 0.9993
vn 0.0310 -0.0191 -0.9993
vn 0.7185 0.5700 -0.3985
vn 0.7469 0.6174 -0.2468
vn 0.7471 0.6179 -0.2450
vn 0.0243 -0.9202 -0.3907
vn 0.0062 -0.9715 -0.2370
vn 0.0064 -0.9710 -0.2389
vn 0.8444 -0.3907 -0.3666
vn 0.8869 -0.4091 -0.2144
vn 0.7301 0.6199 0.2876
vn 0.7715 0.6359 0.0218
vn 0.7717 0.6358 0.0175
vn -0.0042 -0.9560 0.2935
vn 0.0095 -0.9997 0.0246
vn 0.0094 -0.9995 0.0289
vn 0.8937 -0.4101 0.1823
vn 0.9082 -0.4182 0.0178
vn 0.8937 -0.4101 0.1821
vn 0.7892 0.6139 0.0170
vn 0.7901 0.6112 0.0467
vn 0.7901 0.6112 0.0469
vn 0.0382 -0.9990 0.0244
vn 0.0410 -0.9977 0.0543
vn 0.0410 -0.9977 0.0541
vn 0.9076 -0.4188 0.0304
vn 0.9061 -0.4182 0.0636
vn 0.7883 0.5859 -0.1881
vn 0.7894 0.6056 -0.1005
vn 0.7881 0.5847 -0.1927
vn 0.1066 -0.9899 -0.0938
vn 0.1108 -0.9931 0.0385
vn 0.1066 -0.9897 -0.0959
vn 0.8959 -0.4309 -0.1082
vn 0.8983 -0.4387 0.0241
vn 0.8953 -0.4302 -0.1154
vn 0.7654 0.6435 0.0082
vn 0.7735 0.6333 -0.0261
vn 0.7742 0.6323 -0.0293
vn 0.1025 -0.9872 -0.1223
vn 0.1022 -0.9866 -0.1270
vn 0.8926 -0.4419 0.0890
vn 0.8974 -0.4320 -0.0899
vn 0.8965 -0.4306 -0.1039
vn 0.7825 0.6186 -0.0708
vn 0.0892 -0.9451 -0.3145
vn 0.8699 -0.4054 -0.2809
vn 0.0037 0.9041 -0.4274
vn 0.0124 0.9615 -0.2745
vn 0.0122 0.9609 -0.2765
vn -0.6948 -0.5837 -0.4201
vn -0.7326 -0.6253 -0.2689
vn -0.7330 -0.6257 -0.2670
vn -0.8162 0.3814 -0.4341
vn -0.8680 0.4064 -0.2853
vn -0.8681 0.4063 -0.2851
vn -0.0102 0.9662 0.2577
vn -0.0071 0.9999 -0.0138
vn -0.0071 0.9999 -0.0095
vn -0.7490 -0.6073 0.2650
vn -0.7738 -0.6334 -0.0019
vn -0.7738 -0.6334 -0.0060
vn -0.8994 0.4227 0.1113
vn -0.8994 0.4227 0.1114
vn -0.9039 0.4243 -0.0542
vn -0.9039 0.4243 -0.0541
vn -0.0356 0.9992 -0.0161
vn -0.0402 0.9991 0.0137
vn -0.0402 0.9991 0.0136
vn -0.7912 -0.6115 -0.0086
vn -0.7940 -0.6076 0.0209
vn -0.7940 -0.6076 0.0210
vn -0.9043 0.4249 -0.0419
vn -0.9049 0.4255 -0.0086
vn -0.0438 0.9742 -0.2213
vn -0.0443 0.9731 -0.2259
vn -0.0352 0.9905 -0.1331
vn -0.8198 -0.5575 -0.1307
vn -0.8195 -0.5575 -0.1329
vn -0.8336 -0.5524 0.0005
vn -0.8962 0.4055 -0.1797
vn -0.8949 0.4052 -0.1869
vn -0.9125 0.4064 -0.0475
vn 0.0021 0.9997 -0.0230
vn -0.0098 0.9981 -0.0611
vn -0.0087 0.9983 -0.0577
vn -0.8123 -0.5598 -0.1638
vn -0.8131 -0.5598 -0.1595
vn -0.9155 0.4019 0.0149
vn -0.8966 0.4063 -0.1765
vn -0.8991 0.4064 -0.1627
vn -0.0228 0.9944 -0.1030
vn -0.7599 -0.5488 -0.3484
vn -0.8488 0.3967 -0.3495
vn -0.7529 -0.6581 0.0002
vn -0.0239 -0.9993 0.0296
vn 0.7505 0.6606 0.0215
vn 0.0259 0.9996 -0.0071
vn -0.7311 -0.6050 -0.3154
vn 0.0243 -0.9583 -0.2846
vn 0.8798 -0.4066 -0.2460
vn 0.7482 0.5954 -0.2928
vn -0.0028 0.9465 -0.3227
vn -0.8593 0.4023 -0.3159
vn 0.9069 -0.4198 0.0355
vn 0.8165 0.5772 0.0136
vn 0.8165 0.5772 0.0137
vn -0.0818 0.9964 -0.0222
vn -0.0818 0.9964 -0.0223
vn -0.9042 0.4255 -0.0369
vn -0.9042 0.4255 -0.0368
vn -0.8182 -0.5747 -0.0151
vn -0.8182 -0.5747 -0.0149
vn 0.0848 -0.9962 0.0211
vn 0.0848 -0.9962 0.0210
usemtl initialShadingGroup
s off
f 1/1/1 2/2/1 3/3/1 4/4/1 5/5/1 6/6/1
f 7/7/2 8/8/2 9/9/2 10/10/2 11/11/2 12/12/2
s 1
f 5/13/3 13/14/4 14/15/5 6/16/3
f 3/17/6 15/18/7 16/19/8 4/20/6
f 4/21/9 16/22/10 13/23/10 5/24/9
f 17/25/11 18/26/12 19/27/13 20/28/11
f 21/29/14 22/30/15 23/31/16 24/32/14
f 24/33/17 23/34/18 18/35/18 17/36/19
f 25/37/20 26/38/21 27/39/22 28/40/20
f 29/41/23 30/42/24 31/43/25 32/44/23
f 32/45/26 31/46/27 26/47/27 25/48/26
f 33/49/28 34/50/29 35/51/29 36/52/30
f 37/53/31 38/54/32 39/55/32 40/56/33
f 40/56/34 39/55/35 34/57/35 33/58/36
f 34/50/37 41/59/38 42/60/39 35/51/37
f 38/54/32 43/61/40 44/62/41 39/55/32
f 39/55/42 44/62/43 41/63/44 34/57/42
f 41/59/38 10/64/45 9/65/45 42/60/39
f 43/66/40 12/67/46 11/68/46 44/69/41
f 44/62/43 11/70/47 10/71/47 41/63/44
f 1/72/48 6/16/48 14/15/49 45/73/50
f 3/17/51 2/74/51 46/75/52 15/18/53
f 2/76/54 1/77/54 45/78/55 46/79/56
f 47/80/57 20/28/57 19/27/58 48/81/59
f 21/29/60 49/82/60 50/83/61 22/30/62
f 49/84/63 47/85/64 48/86/65 50/87/66
f 51/88/67 28/40/67 27/39/68 52/89/69
f 29/41/70 53/90/70 54/91/71 30/42/72
f 53/92/73 51/93/73 52/94/74 54/95/74
f 55/96/75 36/52/76 35/51/77 56/97/77
f 37/98/78 57/99/79 58/100/80 38/101/80
f 57/99/81 55/102/82 56/103/83 58/100/83
f 56/97/84 35/51/84 42/60/85 59/104/86
f 38/101/80 58/100/80 60/105/87 43/106/88
f 58/100/89 56/103/89 59/107/90 60/105/91
f 59/104/86 42/60/85 9/65/92 8/108/92
f 43/66/88 60/109/87 7/110/93 12/67/93
f 60/105/91 59/107/90 8/111/94 7/112/94
f 15/18/53 46/75/52 49/82/95 21/29/95
f 16/19/8 15/18/7 21/29/96 24/32/96
f 13/23/10 16/22/10 24/33/17 17/36/19
f 14/15/5 13/14/4 17/25/97 20/28/97
f 45/73/50 14/15/49 20/28/98 47/80/98
f 46/79/56 45/78/55 47/85/64 49/84/63
f 22/30/62 50/83/61 53/90/99 29/41/99
f 23/31/16 22/30/15 29/41/100 32/44/100
f 18/35/18 23/34/18 32/45/101 25/48/101
f 19/27/13 18/26/12 25/37/102 28/40/102
f 48/81/59 19/27/58 28/40/103 51/88/103
f 50/87/66 48/86/65 51/93/104 53/92/104
f 61/113/105 40/56/34 33/58/36 62/114/105
f 63/115/106 62/116/107 33/49/28 36/52/30
f 64/117/108 63/115/109 36/52/76 55/96/75
f 65/118/110 64/119/111 55/102/82 57/99/81
f 66/120/112 65/121/113 57/122/79 37/123/78
f 61/124/114 66/120/115 37/123/31 40/125/33
f 31/46/27 61/113/105 62/114/105 26/47/27
f 27/39/22 26/38/21 62/116/107 63/115/106
f 52/89/69 27/39/68 63/115/109 64/117/108
f 54/95/74 52/94/74 64/119/111 65/118/110
f 30/42/72 54/91/71 65/121/113 66/120/112
f 31/43/25 30/42/24 66/120/115 61/124/114
