# Blender v2.79 (sub 6) OBJ File: ''
# www.blender.org
mtllib flauta2_000005.mtl
o f2_Flauta_1:pCylinder3
v -1.284228 12.817734 4.878038
v -1.422390 12.635905 5.045377
v -1.246673 12.464630 5.244351
v -0.932934 12.476458 5.274664
v -0.796539 12.658862 5.106498
v -0.972122 12.828856 4.908854
v -0.713585 9.020418 1.532155
v -0.673639 9.072923 1.483841
v -0.591115 9.078673 1.489114
v -0.548100 9.032131 1.542543
v -0.587602 8.979483 1.591064
v -0.670562 8.973521 1.585948
v -0.893823 12.480034 4.937407
v -1.009802 12.581498 4.817927
v -1.164294 12.376088 5.007182
v -0.970512 12.377144 5.032300
v -0.864720 12.317492 4.783996
v -0.778875 12.166543 4.621943
v -0.927587 12.311038 4.454015
v -0.988181 12.421834 4.660561
v -1.143561 12.215082 4.851069
v -1.161434 12.000868 4.739717
v -0.895057 12.011211 4.765145
v -0.941827 12.213923 4.879527
v -0.829837 12.014740 4.480221
v -0.576984 10.053320 2.537975
v -0.673568 10.159386 2.416409
v -0.945690 12.118186 4.358730
v -1.105229 11.906200 4.554030
v -0.855765 9.918238 2.638480
v -0.667574 9.932579 2.649250
v -0.909049 11.908563 4.578135
v -0.547010 9.809321 2.299516
v -0.527137 9.365019 1.938008
v -0.628829 9.455848 1.831340
v -0.642436 9.914116 2.179408
v -0.822450 9.675858 2.398817
v -0.775065 9.262299 2.009578
v -0.595940 9.282749 2.012872
v -0.636513 9.690028 2.409457
v -0.500811 9.196053 1.786060
v -0.607112 9.293142 1.672364
v -0.753412 9.099505 1.850683
v -0.562512 9.114171 1.861487
v -1.202606 12.580816 4.792560
v -1.280414 12.478292 4.886927
v -1.188908 12.423365 4.631860
v -1.192586 12.301291 4.428162
v -1.267184 12.320177 4.726842
v -1.310257 12.146445 4.570666
v -1.140882 12.116211 4.334363
v -0.860758 10.145527 2.405282
v -1.221212 12.010398 4.431754
v -0.952367 10.025117 2.516080
v -0.827384 9.900424 2.168412
v -0.800631 9.453885 1.810123
v -0.917896 9.781457 2.277883
v -0.858764 9.368149 1.889975
v -0.789301 9.289792 1.651161
v -0.851265 9.207995 1.726465
v -0.609924 9.758621 2.573569
v -0.481420 9.929898 2.415720
v -0.618427 10.080357 2.243274
v -0.883965 10.060699 2.227488
v -1.013918 9.889893 2.384660
v -0.876881 9.738278 2.558291
vt 0.702577 0.155012
vt 0.702394 0.195958
vt 0.661476 0.216292
vt 0.620892 0.195458
vt 0.621370 0.154514
vt 0.662138 0.134403
vt 0.774035 0.140274
vt 0.774082 0.152100
vt 0.763676 0.158055
vt 0.753188 0.152248
vt 0.753068 0.140422
vt 0.763510 0.134403
vt 0.340220 0.869931
vt 0.355018 0.835822
vt 0.380841 0.835822
vt 0.380989 0.869931
vt 0.575158 0.134403
vt 0.575252 0.168512
vt 0.549546 0.168512
vt 0.534573 0.134403
vt 0.467619 0.134403
vt 0.458844 0.168512
vt 0.435764 0.168512
vt 0.426674 0.134403
vt 0.353739 0.803249
vt 0.346351 0.770227
vt 0.380933 0.770227
vt 0.380852 0.803249
vt 0.575245 0.201085
vt 0.575205 0.234107
vt 0.540778 0.234107
vt 0.548253 0.201085
vt 0.458915 0.201085
vt 0.464632 0.234107
vt 0.429763 0.234107
vt 0.435687 0.201085
vt 0.354846 0.741026
vt 0.357122 0.340135
vt 0.380831 0.340135
vt 0.380854 0.741026
vt 0.575266 0.263308
vt 0.575280 0.664199
vt 0.551677 0.664199
vt 0.549374 0.263308
vt 0.459207 0.263308
vt 0.460826 0.664199
vt 0.433705 0.664199
vt 0.435384 0.263308
vt 0.357404 0.290603
vt 0.357944 0.208198
vt 0.380776 0.208198
vt 0.380829 0.290603
vt 0.474302 0.713731
vt 0.476098 0.796136
vt 0.461739 0.796136
vt 0.460667 0.713731
vt 0.442837 0.796136
vt 0.433871 0.713731
vt 0.356659 0.175148
vt 0.380745 0.175148
vt 0.476107 0.829186
vt 0.462087 0.829186
vt 0.443679 0.829186
vt 0.370235 0.134403
vt 0.380723 0.134403
vt 0.707211 0.158529
vt 0.747956 0.158411
vt 0.747956 0.168852
vt 0.707211 0.182460
vt 0.453313 0.869931
vt 0.441487 0.869931
vt 0.421428 0.869931
vt 0.406455 0.835822
vt 0.616075 0.134403
vt 0.601169 0.168512
vt 0.488612 0.134403
vt 0.529558 0.134403
vt 0.520686 0.168512
vt 0.497605 0.168512
vt 0.407748 0.803249
vt 0.415237 0.770227
vt 0.602457 0.201085
vt 0.609913 0.234107
vt 0.497531 0.201085
vt 0.520760 0.201085
vt 0.526541 0.234107
vt 0.491670 0.234107
vt 0.406654 0.741026
vt 0.404351 0.340135
vt 0.601368 0.263308
vt 0.599075 0.664199
vt 0.497231 0.263308
vt 0.521055 0.263308
vt 0.522693 0.664199
vt 0.495571 0.664199
vt 0.404066 0.290603
vt 0.403461 0.208198
vt 0.482429 0.713731
vt 0.495735 0.713731
vt 0.494684 0.796136
vt 0.480633 0.796136
vt 0.522532 0.713731
vt 0.513573 0.796136
vt 0.404672 0.175148
vt 0.494305 0.829186
vt 0.480624 0.829186
vt 0.512714 0.829186
vt 0.391128 0.134403
vt 0.707211 0.134403
vt 0.747956 0.147885
vt 0.515097 0.869931
vt 0.503271 0.869931
vt 0.466402 0.690512
vt 0.427930 0.690512
vt 0.380929 0.313822
vt 0.347296 0.313822
vt 0.414292 0.313822
vt 0.489856 0.690512
vt 0.528330 0.690512
vt 0.575218 0.690512
vt 0.608972 0.690512
vt 0.598792 0.713731
vt 0.575282 0.713731
vt 0.541736 0.690512
vt 0.551961 0.713731
vn -0.0941 0.7119 0.6959
vn 0.0941 -0.7119 -0.6959
vn 0.7815 0.1254 -0.6112
vn 0.8033 0.2651 -0.5333
vn 0.8034 0.2666 -0.5323
vn -0.0160 -0.9315 0.3634
vn -0.0476 -0.8607 0.5068
vn -0.0472 -0.8617 0.5052
vn 0.8364 -0.5405 0.0913
vn 0.8676 -0.4476 0.2166
vn 0.8676 -0.4476 0.2167
vn 0.7522 0.6403 -0.1558
vn 0.8117 0.4658 -0.3524
vn 0.8122 0.4627 -0.3553
vn -0.0911 -0.4790 0.8731
vn -0.0632 -0.6982 0.7131
vn -0.0636 -0.6951 0.7161
vn 0.8486 -0.1712 0.5006
vn 0.8731 -0.2920 0.3905
vn 0.8731 -0.2921 0.3904
vn 0.8486 -0.1713 0.5005
vn 0.8281 0.4466 -0.3388
vn 0.8269 0.4654 -0.3157
vn 0.8268 0.4656 -0.3155
vn -0.0346 -0.6980 0.7153
vn -0.0336 -0.6762 0.7359
vn -0.0336 -0.6764 0.7358
vn 0.8716 -0.2836 0.3998
vn 0.8681 -0.2600 0.4229
vn 0.8384 0.2833 -0.4656
vn 0.8353 0.3586 -0.4167
vn 0.8384 0.2792 -0.4680
vn 0.0418 -0.7744 0.6313
vn 0.0372 -0.6844 0.7282
vn 0.0372 -0.6843 0.7282
vn 0.0419 -0.7758 0.6296
vn 0.8681 -0.3890 0.3083
vn 0.8614 -0.3023 0.4082
vn 0.8680 -0.3936 0.3026
vn 0.8071 0.4618 -0.3679
vn 0.8166 0.4304 -0.3845
vn 0.8175 0.4275 -0.3860
vn 0.0397 -0.7924 0.6087
vn 0.0397 -0.7953 0.6050
vn 0.8513 -0.2592 0.4561
vn 0.8683 -0.3771 0.3222
vn 0.8685 -0.3859 0.3112
vn 0.8275 0.3887 -0.4053
vn 0.0419 -0.8964 0.4412
vn 0.8552 -0.4913 0.1650
vn 0.0956 0.3483 -0.9325
vn 0.0985 0.4962 -0.8626
vn 0.0984 0.4944 -0.8636
vn -0.7060 -0.7071 0.0396
vn -0.7563 -0.6311 0.1726
vn -0.7568 -0.6300 0.1742
vn -0.7572 -0.0256 -0.6527
vn -0.8167 0.0965 -0.5690
vn -0.8168 0.0965 -0.5688
vn 0.0419 0.8714 -0.4888
vn 0.0650 0.7059 -0.7053
vn 0.0647 0.7089 -0.7024
vn -0.8058 -0.2451 0.5391
vn -0.8152 -0.4500 0.3646
vn -0.8149 -0.4529 0.3617
vn -0.8724 0.3854 -0.3007
vn -0.8724 0.3855 -0.3006
vn -0.8660 0.2710 -0.4202
vn 0.0367 0.7040 -0.7093
vn 0.0302 0.7247 -0.6884
vn 0.0302 0.7246 -0.6885
vn -0.8305 -0.4390 0.3429
vn -0.8348 -0.4156 0.3610
vn -0.8348 -0.4155 0.3611
vn -0.8671 0.2800 -0.4119
vn -0.8699 0.3037 -0.3886
vn 0.0400 0.5428 -0.8389
vn 0.0397 0.5387 -0.8415
vn 0.0440 0.6160 -0.7865
vn -0.8472 -0.4855 0.2156
vn -0.8467 -0.4870 0.2141
vn -0.8691 -0.3901 0.3043
vn -0.8691 -0.3901 0.3042
vn -0.8516 0.1698 -0.4959
vn -0.8499 0.1645 -0.5006
vn -0.8763 0.2629 -0.4038
vn 0.0747 0.6992 -0.7110
vn 0.0652 0.6715 -0.7381
vn 0.0661 0.6741 -0.7357
vn -0.8377 -0.5103 0.1944
vn -0.8389 -0.5073 0.1974
vn -0.8837 0.3033 -0.3565
vn -0.8521 0.1726 -0.4941
vn -0.8555 0.1823 -0.4846
vn 0.0547 0.6398 -0.7666
vn -0.7729 -0.6317 0.0602
vn -0.7941 0.0446 -0.6062
vn -0.7962 -0.4665 0.3853
vn -0.0968 -0.6942 0.7132
vn 0.7926 0.4833 -0.3717
vn 0.0973 0.7102 -0.6973
vn -0.7503 -0.6490 0.1256
vn -0.0255 -0.8847 0.4655
vn 0.8628 -0.4679 0.1917
vn 0.8060 0.2172 -0.5507
vn 0.0854 0.4519 -0.8880
vn -0.8063 0.0721 -0.5871
vn 0.8706 -0.2808 0.4040
vn 0.8529 0.4178 -0.3131
vn 0.8529 0.4179 -0.3130
vn -0.0091 0.6979 -0.7161
vn -0.0091 0.6979 -0.7162
vn -0.8674 0.2839 -0.4087
vn -0.8543 -0.4171 0.3101
vn -0.8543 -0.4169 0.3103
vn 0.0122 -0.6986 0.7154
vn 0.0123 -0.6986 0.7154
usemtl initialShadingGroup
s off
f 1/1/1 2/2/1 3/3/1 4/4/1 5/5/1 6/6/1
f 7/7/2 8/8/2 9/9/2 10/10/2 11/11/2 12/12/2
s 1
f 5/13/3 13/14/4 14/15/5 6/16/3
f 3/17/6 15/18/7 16/19/8 4/20/6
f 4/21/9 16/22/10 13/23/11 5/24/9
f 17/25/12 18/26/13 19/27/14 20/28/12
f 21/29/15 22/30/16 23/31/17 24/32/15
f 24/33/18 23/34/19 18/35/20 17/36/21
f 25/37/22 26/38/23 27/39/24 28/40/22
f 29/41/25 30/42/26 31/43/27 32/44/25
f 32/45/28 31/46/29 26/47/29 25/48/28
f 33/49/30 34/50/31 35/51/31 36/52/32
f 37/53/33 38/54/34 39/55/35 40/56/36
f 40/56/37 39/55/38 34/57/38 33/58/39
f 34/50/40 41/59/41 42/60/42 35/51/40
f 38/54/34 43/61/43 44/62/44 39/55/35
f 39/55/45 44/62/46 41/63/47 34/57/45
f 41/59/41 10/64/48 9/65/48 42/60/42
f 43/66/43 12/67/49 11/68/49 44/69/44
f 44/62/46 11/70/50 10/71/50 41/63/47
f 1/72/51 6/16/51 14/15/52 45/73/53
f 3/17/54 2/74/54 46/75/55 15/18/56
f 2/76/57 1/77/57 45/78/58 46/79/59
f 47/80/60 20/28/60 19/27/61 48/81/62
f 21/29/63 49/82/63 50/83/64 22/30/65
f 49/84/66 47/85/67 48/86/68 50/87/68
f 51/88/69 28/40/69 27/39/70 52/89/71
f 29/41/72 53/90/72 54/91/73 30/42/74
f 53/92/75 51/93/75 52/94/76 54/95/76
f 55/96/77 36/52/78 35/51/79 56/97/79
f 37/98/80 57/99/81 58/100/82 38/101/83
f 57/99/84 55/102/85 56/103/86 58/100/86
f 56/97/87 35/51/87 42/60/88 59/104/89
f 38/101/83 58/100/82 60/105/90 43/106/91
f 58/100/92 56/103/92 59/107/93 60/105/94
f 59/104/89 42/60/88 9/65/95 8/108/95
f 43/66/91 60/109/90 7/110/96 12/67/96
f 60/105/94 59/107/93 8/111/97 7/112/97
f 15/18/56 46/75/55 49/82/98 21/29/98
f 16/19/8 15/18/7 21/29/99 24/32/99
f 13/23/11 16/22/10 24/33/18 17/36/21
f 14/15/5 13/14/4 17/25/100 20/28/100
f 45/73/53 14/15/52 20/28/101 47/80/101
f 46/79/59 45/78/58 47/85/67 49/84/66
f 22/30/65 50/83/64 53/90/102 29/41/102
f 23/31/17 22/30/16 29/41/103 32/44/103
f 18/35/20 23/34/19 32/45/104 25/48/104
f 19/27/14 18/26/13 25/37/105 28/40/105
f 48/81/62 19/27/61 28/40/106 51/88/106
f 50/87/68 48/86/68 51/93/107 53/92/107
f 61/113/108 40/56/37 33/58/39 62/114/108
f 63/115/109 62/116/110 33/49/30 36/52/32
f 64/117/111 63/115/112 36/52/78 55/96/77
f 65/118/113 64/119/113 55/102/85 57/99/84
f 66/120/114 65/121/115 57/122/81 37/123/80
f 61/124/116 66/120/117 37/123/33 40/125/36
f 31/46/29 61/113/108 62/114/108 26/47/29
f 27/39/24 26/38/23 62/116/110 63/115/109
f 52/89/71 27/39/70 63/115/112 64/117/111
f 54/95/76 52/94/76 64/119/113 65/118/113
f 30/42/74 54/91/73 65/121/115 66/120/114
f 31/43/27 30/42/26 66/120/117 61/124/116
