# Blender v2.79 (sub 6) OBJ File: 'bailarina.blend1'
# www.blender.org
mtllib Flauta2_000010.mtl
o f2_Flauta_1:pCylinder3
v -0.301361 12.184566 8.223472
v -0.421815 11.928366 8.225687
v -0.226852 11.680044 8.237000
v 0.088291 11.689743 8.246051
v 0.206902 11.946805 8.243762
v 0.012207 12.193295 8.232497
v -0.040590 11.816217 3.150356
v -0.005757 11.890196 3.149718
v 0.076862 11.896512 3.152005
v 0.125067 11.829142 3.154937
v 0.090697 11.754947 3.155594
v 0.007660 11.748341 3.153300
v 0.094494 11.928652 8.004868
v -0.032986 12.076031 7.997807
v -0.167459 11.786568 8.000358
v 0.027839 11.783643 8.006166
v 0.109323 11.920275 7.780120
v 0.179735 11.930221 7.553493
v 0.014782 12.139728 7.543934
v -0.026000 12.071929 7.772732
v -0.161229 11.780572 7.775303
v -0.188841 11.702648 7.547768
v 0.078697 11.711312 7.555441
v 0.042317 11.774307 7.781430
v 0.115961 11.915792 7.349897
v 0.188202 11.870775 4.579306
v 0.079802 12.024274 4.572668
v -0.011597 12.065994 7.342771
v -0.150478 11.767266 7.345399
v -0.078900 11.684468 4.575637
v 0.109381 11.700623 4.580812
v 0.047103 11.766151 7.351235
v 0.196021 11.862885 4.237000
v 0.182766 11.795710 3.667967
v 0.070796 11.927591 3.661711
v 0.088921 12.014545 4.230442
v -0.067880 11.678811 4.233376
v -0.056583 11.654857 3.664093
v 0.121922 11.679933 3.668780
v 0.118145 11.694773 4.238488
v 0.195002 11.781510 3.439977
v 0.077735 11.922428 3.433362
v -0.049700 11.649570 3.435745
v 0.141280 11.666125 3.440990
v -0.227336 12.079466 7.992014
v -0.295158 11.935005 7.993266
v -0.228570 12.078701 7.766623
v -0.251428 12.131882 7.536281
v -0.296795 11.933305 7.767883
v -0.354018 11.913701 7.538167
v -0.208221 12.067639 7.336951
v -0.107520 12.008785 4.567507
v -0.278245 11.918545 7.338242
v -0.187403 11.839128 4.568971
v -0.096157 11.999244 4.225343
v -0.102243 11.928719 3.656596
v -0.175084 11.831618 4.226789
v -0.151967 11.807754 3.657852
v -0.105634 11.921815 3.427982
v -0.159631 11.806557 3.428984
v 0.160211 11.632237 4.401780
v 0.272021 11.873608 4.399645
v 0.118252 12.091352 4.390229
v -0.147473 12.069382 4.382908
v -0.260792 11.828716 4.384984
v -0.106874 11.609322 4.394441
vt 0.702577 0.155012
vt 0.702394 0.195958
vt 0.661476 0.216292
vt 0.620892 0.195458
vt 0.621370 0.154514
vt 0.662138 0.134403
vt 0.774035 0.140274
vt 0.774082 0.152100
vt 0.763676 0.158055
vt 0.753188 0.152248
vt 0.753068 0.140422
vt 0.763510 0.134403
vt 0.340220 0.869931
vt 0.355018 0.835822
vt 0.380841 0.835822
vt 0.380989 0.869931
vt 0.575158 0.134403
vt 0.575252 0.168512
vt 0.549546 0.168512
vt 0.534573 0.134403
vt 0.467619 0.134403
vt 0.458844 0.168512
vt 0.435764 0.168512
vt 0.426674 0.134403
vt 0.353739 0.803249
vt 0.346351 0.770227
vt 0.380933 0.770227
vt 0.380852 0.803249
vt 0.575245 0.201085
vt 0.575205 0.234107
vt 0.540778 0.234107
vt 0.548253 0.201085
vt 0.458915 0.201085
vt 0.464632 0.234107
vt 0.429763 0.234107
vt 0.435687 0.201085
vt 0.354846 0.741026
vt 0.357122 0.340135
vt 0.380831 0.340135
vt 0.380854 0.741026
vt 0.575266 0.263308
vt 0.575280 0.664199
vt 0.551677 0.664199
vt 0.549374 0.263308
vt 0.459207 0.263308
vt 0.460826 0.664199
vt 0.433705 0.664199
vt 0.435384 0.263308
vt 0.357404 0.290603
vt 0.357944 0.208198
vt 0.380776 0.208198
vt 0.380829 0.290603
vt 0.474302 0.713731
vt 0.476098 0.796136
vt 0.461739 0.796136
vt 0.460667 0.713731
vt 0.442837 0.796136
vt 0.433871 0.713731
vt 0.356659 0.175148
vt 0.380745 0.175148
vt 0.476107 0.829186
vt 0.462087 0.829186
vt 0.443679 0.829186
vt 0.370235 0.134403
vt 0.380723 0.134403
vt 0.707211 0.158529
vt 0.747956 0.158411
vt 0.747956 0.168852
vt 0.707211 0.182460
vt 0.453313 0.869931
vt 0.441487 0.869931
vt 0.421428 0.869931
vt 0.406455 0.835822
vt 0.616075 0.134403
vt 0.601169 0.168512
vt 0.488612 0.134403
vt 0.529558 0.134403
vt 0.520686 0.168512
vt 0.497605 0.168512
vt 0.407748 0.803249
vt 0.415237 0.770227
vt 0.602457 0.201085
vt 0.609913 0.234107
vt 0.497531 0.201085
vt 0.520760 0.201085
vt 0.526541 0.234107
vt 0.491670 0.234107
vt 0.406654 0.741026
vt 0.404351 0.340135
vt 0.601368 0.263308
vt 0.599075 0.664199
vt 0.497231 0.263308
vt 0.521055 0.263308
vt 0.522693 0.664199
vt 0.495571 0.664199
vt 0.404066 0.290603
vt 0.403461 0.208198
vt 0.482429 0.713731
vt 0.495735 0.713731
vt 0.494684 0.796136
vt 0.480633 0.796136
vt 0.522532 0.713731
vt 0.513573 0.796136
vt 0.404672 0.175148
vt 0.494305 0.829186
vt 0.480624 0.829186
vt 0.512714 0.829186
vt 0.391128 0.134403
vt 0.707211 0.134403
vt 0.747956 0.147885
vt 0.515097 0.869931
vt 0.503271 0.869931
vt 0.466402 0.690512
vt 0.427930 0.690512
vt 0.380929 0.313822
vt 0.347296 0.313822
vt 0.414292 0.313822
vt 0.489856 0.690512
vt 0.528330 0.690512
vt 0.575218 0.690512
vt 0.608972 0.690512
vt 0.598792 0.713731
vt 0.575282 0.713731
vt 0.541736 0.690512
vt 0.551961 0.713731
vn -0.0294 0.0225 0.9993
vn 0.0294 -0.0225 -0.9993
vn 0.7180 0.5686 -0.4015
vn 0.7466 0.6165 -0.2501
vn 0.7468 0.6170 -0.2483
vn 0.0235 -0.9215 -0.3876
vn 0.0057 -0.9723 -0.2338
vn 0.0059 -0.9718 -0.2357
vn 0.8437 -0.3920 -0.3666
vn 0.8865 -0.4100 -0.2144
vn 0.7306 0.6208 0.2844
vn 0.7716 0.6359 0.0184
vn 0.7718 0.6357 0.0142
vn -0.0038 -0.9550 0.2967
vn 0.0094 -0.9996 0.0279
vn 0.0093 -0.9994 0.0322
vn 0.8939 -0.4096 0.1822
vn 0.9081 -0.4183 0.0178
vn 0.9081 -0.4183 0.0177
vn 0.8939 -0.4096 0.1821
vn 0.7893 0.6139 0.0137
vn 0.7902 0.6113 0.0434
vn 0.7902 0.6113 0.0436
vn 0.0381 -0.9989 0.0277
vn 0.0410 -0.9975 0.0575
vn 0.0410 -0.9975 0.0573
vn 0.9076 -0.4188 0.0304
vn 0.9062 -0.4181 0.0636
vn 0.7880 0.5851 -0.1913
vn 0.7893 0.6052 -0.1037
vn 0.7878 0.5839 -0.1959
vn 0.1063 -0.9902 -0.0907
vn 0.1107 -0.9930 0.0416
vn 0.1107 -0.9930 0.0417
vn 0.1063 -0.9900 -0.0928
vn 0.8957 -0.4314 -0.1082
vn 0.8983 -0.4387 0.0241
vn 0.8951 -0.4307 -0.1154
vn 0.7655 0.6435 0.0049
vn 0.7735 0.6331 -0.0295
vn 0.7742 0.6321 -0.0326
vn 0.1021 -0.9876 -0.1191
vn 0.1018 -0.9871 -0.1239
vn 0.8927 -0.4417 0.0890
vn 0.8972 -0.4324 -0.0899
vn 0.8963 -0.4311 -0.1039
vn 0.7825 0.6182 -0.0741
vn 0.0885 -0.9461 -0.3115
vn 0.8694 -0.4065 -0.2809
vn 0.0031 0.9026 -0.4304
vn 0.0121 0.9606 -0.2777
vn 0.0119 0.9600 -0.2797
vn -0.6956 -0.5850 -0.4170
vn -0.7331 -0.6261 -0.2657
vn -0.7335 -0.6265 -0.2638
vn -0.8168 0.3801 -0.4340
vn -0.8684 0.4055 -0.2852
vn -0.8685 0.4055 -0.2851
vn -0.0097 0.9670 0.2544
vn -0.0069 0.9998 -0.0171
vn -0.0070 0.9999 -0.0128
vn -0.7486 -0.6063 0.2682
vn -0.7739 -0.6333 0.0015
vn -0.7739 -0.6333 -0.0026
vn -0.8992 0.4232 0.1113
vn -0.8992 0.4232 0.1115
vn -0.9039 0.4243 -0.0542
vn -0.9039 0.4243 -0.0541
vn -0.0355 0.9992 -0.0194
vn -0.0400 0.9991 0.0104
vn -0.0400 0.9991 0.0103
vn -0.7913 -0.6114 -0.0053
vn -0.7940 -0.6074 0.0242
vn -0.7940 -0.6074 0.0243
vn -0.9043 0.4249 -0.0419
vn -0.9049 0.4256 -0.0086
vn -0.0440 0.9735 -0.2245
vn -0.0445 0.9724 -0.2291
vn -0.0353 0.9900 -0.1363
vn -0.8201 -0.5578 -0.1276
vn -0.8198 -0.5578 -0.1298
vn -0.8337 -0.5523 0.0037
vn -0.8965 0.4050 -0.1796
vn -0.8952 0.4047 -0.1868
vn -0.9125 0.4063 -0.0474
vn 0.0022 0.9996 -0.0264
vn -0.0098 0.9979 -0.0645
vn -0.0086 0.9981 -0.0610
vn -0.8126 -0.5602 -0.1606
vn -0.8134 -0.5603 -0.1563
vn -0.9155 0.4021 0.0150
vn -0.8968 0.4058 -0.1764
vn -0.8993 0.4060 -0.1626
vn -0.0228 0.9941 -0.1062
vn -0.7605 -0.5499 -0.3454
vn -0.8493 0.3956 -0.3495
vn -0.7530 -0.6580 0.0036
vn -0.0240 -0.9992 0.0330
vn 0.7506 0.6605 0.0181
vn 0.0260 0.9996 -0.0105
vn -0.7317 -0.6060 -0.3122
vn 0.0237 -0.9593 -0.2815
vn 0.8794 -0.4076 -0.2460
vn 0.7478 0.5943 -0.2960
vn -0.0032 0.9454 -0.3258
vn -0.8597 0.4013 -0.3159
vn 0.9069 -0.4198 0.0354
vn 0.8166 0.5771 0.0103
vn 0.8166 0.5771 0.0105
vn -0.0817 0.9963 -0.0254
vn -0.0817 0.9963 -0.0255
vn -0.9042 0.4255 -0.0369
vn -0.9042 0.4255 -0.0368
vn -0.8183 -0.5746 -0.0119
vn -0.8183 -0.5746 -0.0116
vn 0.0848 -0.9961 0.0243
vn 0.0848 -0.9961 0.0242
usemtl initialShadingGroup.007
s off
f 1/1/1 2/2/1 3/3/1 4/4/1 5/5/1 6/6/1
f 7/7/2 8/8/2 9/9/2 10/10/2 11/11/2 12/12/2
s 1
f 5/13/3 13/14/4 14/15/5 6/16/3
f 3/17/6 15/18/7 16/19/8 4/20/6
f 4/21/9 16/22/10 13/23/10 5/24/9
f 17/25/11 18/26/12 19/27/13 20/28/11
f 21/29/14 22/30/15 23/31/16 24/32/14
f 24/33/17 23/34/18 18/35/19 17/36/20
f 25/37/21 26/38/22 27/39/23 28/40/21
f 29/41/24 30/42/25 31/43/26 32/44/24
f 32/45/27 31/46/28 26/47/28 25/48/27
f 33/49/29 34/50/30 35/51/30 36/52/31
f 37/53/32 38/54/33 39/55/34 40/56/35
f 40/56/36 39/55/37 34/57/37 33/58/38
f 34/50/39 41/59/40 42/60/41 35/51/39
f 38/54/33 43/61/42 44/62/43 39/55/34
f 39/55/44 44/62/45 41/63/46 34/57/44
f 41/59/40 10/64/47 9/65/47 42/60/41
f 43/66/42 12/67/48 11/68/48 44/69/43
f 44/62/45 11/70/49 10/71/49 41/63/46
f 1/72/50 6/16/50 14/15/51 45/73/52
f 3/17/53 2/74/53 46/75/54 15/18/55
f 2/76/56 1/77/56 45/78/57 46/79/58
f 47/80/59 20/28/59 19/27/60 48/81/61
f 21/29/62 49/82/62 50/83/63 22/30/64
f 49/84/65 47/85/66 48/86/67 50/87/68
f 51/88/69 28/40/69 27/39/70 52/89/71
f 29/41/72 53/90/72 54/91/73 30/42/74
f 53/92/75 51/93/75 52/94/76 54/95/76
f 55/96/77 36/52/78 35/51/79 56/97/79
f 37/98/80 57/99/81 58/100/82 38/101/82
f 57/99/83 55/102/84 56/103/85 58/100/85
f 56/97/86 35/51/86 42/60/87 59/104/88
f 38/101/82 58/100/82 60/105/89 43/106/90
f 58/100/91 56/103/91 59/107/92 60/105/93
f 59/104/88 42/60/87 9/65/94 8/108/94
f 43/66/90 60/109/89 7/110/95 12/67/95
f 60/105/93 59/107/92 8/111/96 7/112/96
f 15/18/55 46/75/54 49/82/97 21/29/97
f 16/19/8 15/18/7 21/29/98 24/32/98
f 13/23/10 16/22/10 24/33/17 17/36/20
f 14/15/5 13/14/4 17/25/99 20/28/99
f 45/73/52 14/15/51 20/28/100 47/80/100
f 46/79/58 45/78/57 47/85/66 49/84/65
f 22/30/64 50/83/63 53/90/101 29/41/101
f 23/31/16 22/30/15 29/41/102 32/44/102
f 18/35/19 23/34/18 32/45/103 25/48/103
f 19/27/13 18/26/12 25/37/104 28/40/104
f 48/81/61 19/27/60 28/40/105 51/88/105
f 50/87/68 48/86/67 51/93/106 53/92/106
f 61/113/107 40/56/36 33/58/38 62/114/107
f 63/115/108 62/116/109 33/49/29 36/52/31
f 64/117/110 63/115/111 36/52/78 55/96/77
f 65/118/112 64/119/113 55/102/84 57/99/83
f 66/120/114 65/121/115 57/122/81 37/123/80
f 61/124/116 66/120/117 37/123/32 40/125/35
f 31/46/28 61/113/107 62/114/107 26/47/28
f 27/39/23 26/38/22 62/116/109 63/115/108
f 52/89/71 27/39/70 63/115/111 64/117/110
f 54/95/76 52/94/76 64/119/113 65/118/112
f 30/42/74 54/91/73 65/121/115 66/120/114
f 31/43/26 30/42/25 66/120/117 61/124/116
