# Blender v2.79 (sub 6) OBJ File: ''
# www.blender.org
mtllib flauta2_000002.mtl
o f2_Flauta_1:pCylinder3
v -2.653920 13.120565 1.819682
v -2.652650 13.119120 2.102787
v -2.369742 13.118402 2.243375
v -2.089133 13.119137 2.099329
v -2.092438 13.120583 1.816235
v -2.374317 13.121292 1.677188
v -2.444105 8.034122 1.975469
v -2.444425 8.034540 1.893699
v -2.372482 8.034750 1.852528
v -2.299965 8.034545 1.892682
v -2.299134 8.034128 1.974448
v -2.371330 8.033916 2.016062
v -2.194752 12.884430 1.877874
v -2.373294 12.884830 1.799488
v -2.370396 12.883201 2.118655
v -2.192659 12.883615 2.037458
v -2.185907 12.659218 1.876197
v -2.134822 12.431112 1.834072
v -2.373929 12.431716 1.715659
v -2.373374 12.659620 1.797317
v -2.370345 12.657980 2.118519
v -2.370071 12.429255 2.197836
v -2.132036 12.429880 2.075161
v -2.183719 12.658398 2.036798
v -2.193560 12.229010 1.871902
v -2.209300 9.457274 1.846145
v -2.373230 9.457745 1.754041
v -2.373386 12.229424 1.790999
v -2.370489 12.227741 2.120426
v -2.370589 9.455830 2.129078
v -2.207393 9.456317 2.033661
v -2.191467 12.228168 2.036615
v -2.211245 9.114796 1.845540
v -2.214981 8.544724 1.904626
v -2.372846 8.545086 1.833579
v -2.373210 9.115260 1.754539
v -2.370601 9.113368 2.125082
v -2.370727 8.543549 2.134591
v -2.220200 8.544056 2.035313
v -2.209360 9.113850 2.030808
v -2.206095 8.316183 1.909279
v -2.372631 8.316576 1.832344
v -2.370510 8.315039 2.133492
v -2.205047 8.315534 2.036555
v -2.550394 12.884420 1.879817
v -2.549590 12.883606 2.039407
v -2.559335 12.659208 1.878161
v -2.611116 12.431097 1.837025
v -2.558494 12.658388 2.038769
v -2.610045 12.429865 2.078124
v -2.551771 12.229000 1.873921
v -2.535846 9.457263 1.848445
v -2.550966 12.228159 2.038642
v -2.535112 9.456306 2.035969
v -2.533878 9.114783 1.847811
v -2.529696 8.544712 1.906843
v -2.533153 9.113837 2.033089
v -2.522637 8.544044 2.037443
v -2.538068 8.316172 1.911616
v -2.537323 8.315521 2.038895
v -2.138656 9.274184 2.071282
v -2.141363 9.275543 1.805281
v -2.373904 9.276210 1.674627
v -2.604582 9.275526 1.808542
v -2.603542 9.274168 2.074555
v -2.370157 9.273494 2.206634
vt 0.702577 0.155012
vt 0.702394 0.195958
vt 0.661476 0.216292
vt 0.620892 0.195458
vt 0.621370 0.154514
vt 0.662138 0.134403
vt 0.774035 0.140274
vt 0.774082 0.152100
vt 0.763676 0.158055
vt 0.753188 0.152248
vt 0.753068 0.140422
vt 0.763510 0.134403
vt 0.340220 0.869931
vt 0.355018 0.835822
vt 0.380841 0.835822
vt 0.380989 0.869931
vt 0.575158 0.134403
vt 0.575252 0.168512
vt 0.549546 0.168512
vt 0.534573 0.134403
vt 0.467619 0.134403
vt 0.458844 0.168512
vt 0.435764 0.168512
vt 0.426674 0.134403
vt 0.353739 0.803249
vt 0.346351 0.770227
vt 0.380933 0.770227
vt 0.380852 0.803249
vt 0.575245 0.201085
vt 0.575205 0.234107
vt 0.540778 0.234107
vt 0.548253 0.201085
vt 0.458915 0.201085
vt 0.464632 0.234107
vt 0.429763 0.234107
vt 0.435687 0.201085
vt 0.354846 0.741026
vt 0.357122 0.340135
vt 0.380831 0.340135
vt 0.380854 0.741026
vt 0.575266 0.263308
vt 0.575280 0.664199
vt 0.551677 0.664199
vt 0.549374 0.263308
vt 0.459207 0.263308
vt 0.460826 0.664199
vt 0.433705 0.664199
vt 0.435384 0.263308
vt 0.357404 0.290603
vt 0.357944 0.208198
vt 0.380776 0.208198
vt 0.380829 0.290603
vt 0.474302 0.713731
vt 0.476098 0.796136
vt 0.461739 0.796136
vt 0.460667 0.713731
vt 0.442837 0.796136
vt 0.433871 0.713731
vt 0.356659 0.175148
vt 0.380745 0.175148
vt 0.476107 0.829186
vt 0.462087 0.829186
vt 0.443679 0.829186
vt 0.370235 0.134403
vt 0.380723 0.134403
vt 0.707211 0.158529
vt 0.747956 0.158411
vt 0.747956 0.168852
vt 0.707211 0.182460
vt 0.453313 0.869931
vt 0.441487 0.869931
vt 0.421428 0.869931
vt 0.406455 0.835822
vt 0.616075 0.134403
vt 0.601169 0.168512
vt 0.488612 0.134403
vt 0.529558 0.134403
vt 0.520686 0.168512
vt 0.497605 0.168512
vt 0.407748 0.803249
vt 0.415237 0.770227
vt 0.602457 0.201085
vt 0.609913 0.234107
vt 0.497531 0.201085
vt 0.520760 0.201085
vt 0.526541 0.234107
vt 0.491670 0.234107
vt 0.406654 0.741026
vt 0.404351 0.340135
vt 0.601368 0.263308
vt 0.599075 0.664199
vt 0.497231 0.263308
vt 0.521055 0.263308
vt 0.522693 0.664199
vt 0.495571 0.664199
vt 0.404066 0.290603
vt 0.403461 0.208198
vt 0.482429 0.713731
vt 0.495735 0.713731
vt 0.494684 0.796136
vt 0.480633 0.796136
vt 0.522532 0.713731
vt 0.513573 0.796136
vt 0.404672 0.175148
vt 0.494305 0.829186
vt 0.480624 0.829186
vt 0.512714 0.829186
vt 0.391128 0.134403
vt 0.707211 0.134403
vt 0.747956 0.147885
vt 0.515097 0.869931
vt 0.503271 0.869931
vt 0.466402 0.690512
vt 0.427930 0.690512
vt 0.380929 0.313822
vt 0.347296 0.313822
vt 0.414292 0.313822
vt 0.489856 0.690512
vt 0.528330 0.690512
vt 0.575218 0.690512
vt 0.608972 0.690512
vt 0.598792 0.713731
vt 0.575282 0.713731
vt 0.541736 0.690512
vt 0.551961 0.713731
vn 0.0000 1.0000 0.0051
vn 0.0000 -1.0000 -0.0051
vn 0.3896 -0.4054 -0.8270
vn 0.4003 -0.2535 -0.8806
vn 0.4004 -0.2517 -0.8811
vn 0.4025 -0.4129 0.8170
vn 0.4138 -0.2601 0.8724
vn 0.4137 -0.2620 0.8719
vn 0.9164 -0.3999 -0.0132
vn 0.9683 -0.2494 -0.0135
vn 0.4034 0.2811 -0.8708
vn 0.4243 0.0146 -0.9054
vn 0.4244 0.0104 -0.9054
vn 0.4170 0.2707 0.8677
vn 0.4383 0.0006 0.8988
vn 0.4383 0.0049 0.8988
vn 0.9891 0.1467 -0.0120
vn 0.9998 -0.0182 -0.0123
vn 0.9998 -0.0183 -0.0123
vn 0.9891 0.1465 -0.0119
vn 0.4496 0.0088 -0.8932
vn 0.4526 0.0384 -0.8909
vn 0.4526 0.0387 -0.8909
vn 0.4639 -0.0004 0.8859
vn 0.4670 0.0294 0.8838
vn 0.4670 0.0292 0.8838
vn 0.9999 -0.0057 -0.0114
vn 0.9996 0.0275 -0.0111
vn 0.9996 0.0276 -0.0110
vn 0.4533 -0.1968 -0.8694
vn 0.4491 -0.1088 -0.8869
vn 0.4535 -0.2014 -0.8682
vn 0.5175 -0.1203 0.8472
vn 0.5274 0.0117 0.8495
vn 0.5173 -0.1224 0.8470
vn 0.9896 -0.1441 0.0033
vn 0.9999 -0.0122 0.0105
vn 0.9885 -0.1513 0.0028
vn 0.4150 0.0015 -0.9098
vn 0.4255 -0.0333 -0.9043
vn 0.4265 -0.0366 -0.9038
vn 0.5116 -0.1485 0.8463
vn 0.5109 -0.1532 0.8459
vn 0.9985 0.0527 0.0164
vn 0.9920 -0.1259 0.0038
vn 0.9902 -0.1399 0.0028
vn 0.4384 -0.0786 -0.8954
vn 0.4745 -0.3393 0.8122
vn 0.9489 -0.3154 -0.0101
vn -0.4000 -0.4057 -0.8218
vn -0.4112 -0.2518 -0.8761
vn -0.4112 -0.2538 -0.8755
vn -0.3919 -0.4136 0.8218
vn -0.4027 -0.2625 0.8769
vn -0.4028 -0.2606 0.8774
vn -0.9160 -0.4012 0.0022
vn -0.9681 -0.2504 0.0033
vn -0.9682 -0.2503 0.0034
vn -0.4144 0.2807 -0.8657
vn -0.4358 0.0102 -0.9000
vn -0.4357 0.0144 -0.9000
vn -0.4059 0.2720 0.8725
vn -0.4268 0.0054 0.9043
vn -0.4269 0.0013 0.9043
vn -0.9891 0.1472 0.0056
vn -0.9891 0.1473 0.0057
vn -0.9998 -0.0180 0.0046
vn -0.4614 0.0087 -0.8872
vn -0.4644 0.0385 -0.8848
vn -0.4644 0.0384 -0.8848
vn -0.4522 -0.0003 0.8919
vn -0.4552 0.0293 0.8899
vn -0.4552 0.0295 0.8899
vn -1.0000 -0.0058 0.0043
vn -0.9996 0.0276 0.0044
vn -0.4655 -0.1968 -0.8629
vn -0.4656 -0.2014 -0.8618
vn -0.4615 -0.1085 -0.8805
vn -0.5055 -0.1203 0.8544
vn -0.5053 -0.1225 0.8542
vn -0.5154 0.0114 0.8569
vn -0.9894 -0.1442 0.0172
vn -0.9883 -0.1514 0.0168
vn -0.9996 -0.0115 0.0246
vn -0.4278 0.0006 -0.9039
vn -0.4392 -0.0372 -0.8976
vn -0.4382 -0.0337 -0.8982
vn -0.4989 -0.1536 0.8529
vn -0.4995 -0.1492 0.8534
vn -0.9982 0.0508 0.0305
vn -0.9899 -0.1409 0.0167
vn -0.9917 -0.1270 0.0177
vn -0.4509 -0.0786 -0.8891
vn -0.4630 -0.3393 0.8188
vn -0.9490 -0.3154 0.0032
vn -0.3972 0.0062 0.9177
vn 0.4082 0.0065 0.9129
vn 0.3948 0.0155 -0.9187
vn -0.4057 0.0159 -0.9139
vn -0.4117 -0.3085 0.8575
vn 0.4228 -0.3079 0.8523
vn 0.9597 -0.2808 -0.0130
vn 0.4092 -0.3000 -0.8617
vn -0.4202 -0.2999 -0.8564
vn -0.9596 -0.2814 0.0030
vn 0.9999 -0.0006 -0.0102
vn 0.4898 0.0037 -0.8718
vn 0.4898 0.0039 -0.8718
vn -0.5021 0.0038 -0.8648
vn -0.5021 0.0037 -0.8648
vn -1.0000 -0.0007 0.0039
vn -0.4925 -0.0052 0.8703
vn -0.4925 -0.0049 0.8703
vn 0.5047 -0.0050 0.8633
vn 0.5047 -0.0051 0.8633
usemtl initialShadingGroup
s off
f 1/1/1 2/2/1 3/3/1 4/4/1 5/5/1 6/6/1
f 7/7/2 8/8/2 9/9/2 10/10/2 11/11/2 12/12/2
s 1
f 5/13/3 13/14/4 14/15/5 6/16/3
f 3/17/6 15/18/7 16/19/8 4/20/6
f 4/21/9 16/22/10 13/23/10 5/24/9
f 17/25/11 18/26/12 19/27/13 20/28/11
f 21/29/14 22/30/15 23/31/16 24/32/14
f 24/33/17 23/34/18 18/35/19 17/36/20
f 25/37/21 26/38/22 27/39/23 28/40/21
f 29/41/24 30/42/25 31/43/26 32/44/24
f 32/45/27 31/46/28 26/47/29 25/48/27
f 33/49/30 34/50/31 35/51/31 36/52/32
f 37/53/33 38/54/34 39/55/34 40/56/35
f 40/56/36 39/55/37 34/57/37 33/58/38
f 34/50/39 41/59/40 42/60/41 35/51/39
f 38/54/34 43/61/42 44/62/43 39/55/34
f 39/55/44 44/62/45 41/63/46 34/57/44
f 41/59/40 10/64/47 9/65/47 42/60/41
f 43/66/42 12/67/48 11/68/48 44/69/43
f 44/62/45 11/70/49 10/71/49 41/63/46
f 1/72/50 6/16/50 14/15/51 45/73/52
f 3/17/53 2/74/53 46/75/54 15/18/55
f 2/76/56 1/77/56 45/78/57 46/79/58
f 47/80/59 20/28/59 19/27/60 48/81/61
f 21/29/62 49/82/62 50/83/63 22/30/64
f 49/84/65 47/85/66 48/86/67 50/87/67
f 51/88/68 28/40/68 27/39/69 52/89/70
f 29/41/71 53/90/71 54/91/72 30/42/73
f 53/92/74 51/93/74 52/94/75 54/95/75
f 55/96/76 36/52/77 35/51/78 56/97/78
f 37/98/79 57/99/80 58/100/81 38/101/81
f 57/99/82 55/102/83 56/103/84 58/100/84
f 56/97/85 35/51/85 42/60/86 59/104/87
f 38/101/81 58/100/81 60/105/88 43/106/89
f 58/100/90 56/103/90 59/107/91 60/105/92
f 59/104/87 42/60/86 9/65/93 8/108/93
f 43/66/89 60/109/88 7/110/94 12/67/94
f 60/105/92 59/107/91 8/111/95 7/112/95
f 15/18/55 46/75/54 49/82/96 21/29/96
f 16/19/8 15/18/7 21/29/97 24/32/97
f 13/23/10 16/22/10 24/33/17 17/36/20
f 14/15/5 13/14/4 17/25/98 20/28/98
f 45/73/52 14/15/51 20/28/99 47/80/99
f 46/79/58 45/78/57 47/85/66 49/84/65
f 22/30/64 50/83/63 53/90/100 29/41/100
f 23/31/16 22/30/15 29/41/101 32/44/101
f 18/35/19 23/34/18 32/45/102 25/48/102
f 19/27/13 18/26/12 25/37/103 28/40/103
f 48/81/61 19/27/60 28/40/104 51/88/104
f 50/87/67 48/86/67 51/93/105 53/92/105
f 61/113/106 40/56/36 33/58/38 62/114/106
f 63/115/107 62/116/108 33/49/30 36/52/32
f 64/117/109 63/115/110 36/52/77 55/96/76
f 65/118/111 64/119/111 55/102/83 57/99/82
f 66/120/112 65/121/113 57/122/80 37/123/79
f 61/124/114 66/120/115 37/123/33 40/125/35
f 31/46/28 61/113/106 62/114/106 26/47/29
f 27/39/23 26/38/22 62/116/108 63/115/107
f 52/89/70 27/39/69 63/115/110 64/117/109
f 54/95/75 52/94/75 64/119/111 65/118/111
f 30/42/73 54/91/72 65/121/113 66/120/112
f 31/43/26 30/42/25 66/120/115 61/124/114
