# Blender v2.79 (sub 6) OBJ File: 'bailarina.blend1'
# www.blender.org
mtllib Flauta1_000013.mtl
o pCylinder3
v -0.141796 9.496795 1.352715
v 0.010630 9.331894 1.505569
v 0.048749 8.145176 0.187308
v -0.103678 8.310077 0.034454
v -0.491623 8.109204 0.204063
v -0.069833 7.963177 0.347716
v -0.339316 7.945560 0.355783
v -0.186098 9.507470 1.493642
v -0.087751 9.401076 1.592265
v -0.412681 9.478448 1.361398
v -0.360874 9.495633 1.499245
v -0.436402 9.377867 1.603077
v -0.338133 9.272283 1.700967
v -0.397798 11.129772 3.764353
v -0.496067 11.235357 3.666463
v -0.377434 9.132277 1.674045
v -0.529742 9.295923 1.522325
v -0.374563 8.291730 0.043136
v -0.107952 9.149895 1.665977
v -0.164261 9.283649 1.695762
v -0.245762 11.364961 3.557029
v -0.147416 11.258565 3.655652
v -0.420539 11.353124 3.562631
v -0.223926 11.141139 3.759148
v -0.296144 11.819234 4.404362
v -0.131919 11.621881 4.168895
v -0.272953 11.773729 4.028120
v -0.348548 11.874803 4.352823
v -0.468863 11.490576 3.615727
v -0.213489 11.507871 3.607541
v -0.181582 11.180835 3.902867
v -0.435635 11.164226 3.910473
v -0.069790 11.352411 3.751642
v -0.579221 11.318501 3.767440
v -0.336332 11.758705 4.457688
v -0.204415 11.510072 4.267450
v -0.440490 11.869207 4.355201
v -0.479559 11.808289 4.408911
v -0.501601 11.750006 4.042865
v -0.427195 11.753139 4.460072
v -0.444063 11.509032 4.261456
v -0.573741 11.638074 4.141542
vt 0.504911 0.367237
vt 0.470291 0.370240
vt 0.470076 0.103234
vt 0.505683 0.103197
vt 0.729686 0.258130
vt 0.729803 0.183226
vt 0.762079 0.201982
vt 0.761961 0.239332
vt 0.504262 0.386282
vt 0.480490 0.384463
vt 0.546890 0.371720
vt 0.532777 0.384536
vt 0.386726 0.388627
vt 0.409820 0.386283
vt 0.409345 0.795947
vt 0.380933 0.797314
vt 0.413024 0.374452
vt 0.377164 0.375798
vt 0.377999 0.109195
vt 0.410104 0.109195
vt 0.547413 0.104423
vt 0.441559 0.376727
vt 0.443177 0.107714
vt 0.428546 0.384645
vt 0.504304 0.798017
vt 0.479998 0.799086
vt 0.532779 0.797906
vt 0.426948 0.796951
vt 0.497235 0.930268
vt 0.473985 0.883359
vt 0.509443 0.886506
vt 0.507806 0.935338
vt 0.538450 0.819694
vt 0.506818 0.817498
vt 0.438914 0.819567
vt 0.407805 0.819709
vt 0.473904 0.819134
vt 0.375514 0.820055
vt 0.620811 0.877190
vt 0.611841 0.926619
vt 0.596462 0.927802
vt 0.595972 0.877725
vt 0.697293 0.202025
vt 0.697293 0.239578
vt 0.726202 0.132012
vt 0.726202 0.118056
vt 0.738153 0.110849
vt 0.750017 0.117598
vt 0.618691 0.366735
vt 0.593970 0.366737
vt 0.593992 0.098036
vt 0.618686 0.098033
vt 0.567917 0.366734
vt 0.593970 0.366737
vt 0.586740 0.387978
vt 0.575197 0.387976
vt 0.611410 0.387976
vt 0.586740 0.387978
vt 0.567939 0.098033
vt 0.593992 0.098036
vt 0.539631 0.885647
vt 0.519619 0.929284
vt 0.749974 0.131480
vt 0.738159 0.138596
vt 0.591242 0.797361
vt 0.563870 0.797359
vt 0.616611 0.797361
vt 0.591242 0.797361
vt 0.620429 0.818679
vt 0.591888 0.818594
vt 0.591888 0.818594
vt 0.561160 0.818575
vt 0.405293 0.885310
vt 0.435626 0.885554
vt 0.376778 0.879330
vt 0.595972 0.877725
vt 0.563487 0.876740
vt 0.596462 0.927802
vt 0.575430 0.926808
vt 0.404286 0.929761
vt 0.396600 0.929134
vt 0.415769 0.929247
vn 0.8275 0.4290 -0.3623
vn 0.0215 -0.6689 -0.7430
vn -0.1948 -0.6674 -0.7187
vn -0.1948 -0.6672 -0.7190
vn 0.6534 0.7422 0.1492
vn -0.0704 0.9928 -0.0973
vn -0.8257 -0.4309 0.3641
vn -0.0716 0.7403 -0.6685
vn 0.0684 -0.7405 0.6686
vn 0.0424 -0.2001 0.9789
vn -0.6778 0.0492 0.7336
vn 0.7466 0.6644 -0.0343
vn 0.7138 0.6967 -0.0717
vn 0.7465 0.6649 0.0257
vn -0.0533 0.3435 -0.9377
vn 0.0706 -0.9666 0.2462
vn 0.7422 0.0680 -0.6667
vn -0.7209 -0.6926 -0.0234
vn 0.7847 0.0205 0.6196
vn 0.8122 -0.0172 0.5831
vn 0.8063 -0.0020 0.5916
vn -0.1004 -0.5218 -0.8472
vn 0.2366 -0.6387 -0.7322
vn -0.0215 0.6689 0.7430
vn 0.8970 -0.2914 0.3325
vn 0.8970 -0.2912 0.3327
vn 0.9719 -0.1604 0.1725
vn 0.7819 -0.4519 0.4294
vn -0.9011 0.3312 -0.2799
vn -0.9011 0.3313 -0.2797
vn -0.9170 0.3751 -0.1360
vn -0.8622 0.4605 -0.2111
vn 0.9075 -0.1522 0.3916
vn 0.8521 -0.2374 0.4665
vn -0.9733 0.1558 -0.1684
vn -0.7858 0.4482 -0.4262
vn -0.5741 0.7533 -0.3208
vn -0.5434 0.8156 -0.1986
vn -0.1034 0.9393 -0.3271
vn 0.2929 0.8341 -0.4675
vn -0.3477 -0.0425 0.9367
vn -0.0122 0.0660 0.9977
vn -0.8401 0.2533 0.4797
vn -0.7987 -0.0180 -0.6014
vn -0.7986 -0.0182 -0.6016
vn 0.8152 -0.5769 -0.0520
vn 0.8152 -0.5768 -0.0518
vn 0.9982 -0.0152 0.0586
vn 0.6656 -0.6764 0.3153
vn -0.9951 0.0082 -0.0988
vn -0.6375 0.2669 -0.7228
vn -0.4508 -0.6149 0.6471
vn -0.4431 -0.6562 0.6108
vn 0.4058 -0.6276 0.6644
vn -0.9894 0.0246 0.1431
vn 0.4171 0.7968 -0.4372
vn 0.9893 0.0531 0.1357
usemtl initialShadingGroup
s off
f 1/1/1 2/2/1 3/3/1 4/4/1
f 5/5/2 3/6/3 6/7/4 7/8/2
f 2/2/5 1/1/5 8/9/5 9/10/5
f 1/1/6 10/11/6 11/12/6 8/9/6
f 12/13/7 13/14/7 14/15/7 15/16/7
f 16/17/7 17/18/7 5/19/7 7/20/7
f 10/11/8 1/1/8 4/4/8 18/21/8
f 19/22/9 16/17/9 7/20/9 6/23/9
f 16/17/10 19/22/10 20/24/10 13/14/10
f 17/18/11 16/17/11 13/14/11 12/13/11
f 9/10/1 8/9/1 21/25/1 22/26/1
f 8/9/8 11/12/8 23/27/8 21/25/8
f 13/14/9 20/24/9 24/28/9 14/15/9
f 25/29/12 26/30/13 27/31/14 28/32/12
f 21/25/15 23/27/15 29/33/15 30/34/15
f 14/15/16 24/28/16 31/35/16 32/36/16
f 22/26/17 21/25/17 30/34/17 33/37/17
f 15/16/18 14/15/18 32/36/18 34/38/18
f 26/39/19 25/40/20 35/41/20 36/42/21
f 4/43/2 3/6/22 5/5/23 18/44/2
f 25/45/24 28/46/24 37/47/24 38/48/24
s 1
f 2/49/25 19/50/26 6/51/27 3/52/28
f 10/53/29 17/54/30 12/55/31 11/56/32
f 19/50/26 2/49/25 9/57/33 20/58/34
f 17/54/30 10/53/29 18/59/35 5/60/36
f 39/61/37 37/62/38 28/32/39 27/31/40
f 40/63/41 35/64/42 25/45/24 38/48/43
f 11/56/32 12/55/31 15/65/44 23/66/45
f 20/58/34 9/57/33 22/67/46 24/68/47
f 24/68/47 22/67/46 33/69/48 31/70/49
f 23/66/45 15/65/44 34/71/50 29/72/51
f 41/73/52 32/36/53 31/35/49 36/74/54
f 42/75/55 34/38/50 32/36/53 41/73/52
f 34/71/50 42/76/55 39/77/37 29/72/51
f 39/61/37 27/31/40 30/34/56 29/33/51
f 26/30/57 33/37/48 30/34/56 27/31/40
f 33/69/48 26/39/57 36/42/54 31/70/49
f 39/77/37 42/76/55 38/78/43 37/79/38
f 42/75/55 41/73/52 40/80/41 38/81/43
f 41/73/52 36/74/54 35/82/42 40/80/41
