# Blender v2.79 (sub 6) OBJ File: 'bailarinaacortados.blend1'
# www.blender.org
mtllib flauta-1_000003.mtl
o pCylinder3
v -1.485026 8.524285 1.751473
v -1.250692 8.526620 1.888851
v -1.250692 6.752738 1.918995
v -1.485026 6.750403 1.781617
v -1.722328 6.757270 2.185671
v -1.253440 6.757326 2.188972
v -1.488830 6.759579 2.321573
v -1.485702 8.638707 1.845516
v -1.334509 8.640215 1.934153
v -1.721272 8.526564 1.885537
v -1.638129 8.640179 1.932015
v -1.638810 8.643139 2.106214
v -1.488156 8.644629 2.193899
v -1.488156 11.421167 2.146715
v -1.638810 11.419677 2.059031
v -1.488829 8.533461 2.291429
v -1.722328 8.531151 2.155526
v -1.721272 6.752682 1.915682
v -1.253440 8.531207 2.158828
v -1.336281 8.643175 2.108344
v -1.485702 11.415246 1.798333
v -1.334508 11.416753 1.886971
v -1.638129 11.416717 1.884832
v -1.336281 11.419713 2.061161
v -1.414452 12.353400 2.002457
v -1.276854 12.041627 1.930159
v -1.493252 12.039482 1.803932
v -1.494365 12.352621 1.956591
v -1.707854 11.548440 1.841997
v -1.485135 11.546290 1.715609
v -1.266809 11.552818 2.099639
v -1.488721 11.554943 2.224648
v -1.264219 11.548491 1.845121
v -1.708849 11.552765 2.096527
v -1.416050 12.354931 2.092554
v -1.278219 12.044443 2.095870
v -1.574916 12.353380 2.001327
v -1.575268 12.354912 2.091437
v -1.687895 12.041574 1.927098
v -1.495634 12.355683 2.136809
v -1.496014 12.046144 2.196024
v -1.688865 12.044391 2.092812
vt 0.504911 0.367237
vt 0.470291 0.370240
vt 0.470076 0.103234
vt 0.505683 0.103197
vt 0.729686 0.258130
vt 0.729803 0.183226
vt 0.762079 0.201982
vt 0.761961 0.239332
vt 0.504262 0.386282
vt 0.480490 0.384463
vt 0.546890 0.371720
vt 0.532777 0.384536
vt 0.386726 0.388627
vt 0.409820 0.386283
vt 0.409345 0.795947
vt 0.380933 0.797314
vt 0.413024 0.374452
vt 0.377164 0.375798
vt 0.377999 0.109195
vt 0.410104 0.109195
vt 0.547413 0.104423
vt 0.441559 0.376727
vt 0.443177 0.107714
vt 0.428546 0.384645
vt 0.504304 0.798017
vt 0.479998 0.799086
vt 0.532779 0.797906
vt 0.426948 0.796951
vt 0.497235 0.930268
vt 0.473985 0.883359
vt 0.509443 0.886506
vt 0.507806 0.935338
vt 0.538450 0.819694
vt 0.506818 0.817498
vt 0.438914 0.819567
vt 0.407805 0.819709
vt 0.473904 0.819134
vt 0.375514 0.820055
vt 0.620811 0.877190
vt 0.611841 0.926619
vt 0.596462 0.927802
vt 0.595972 0.877725
vt 0.697293 0.202025
vt 0.697293 0.239578
vt 0.726202 0.132012
vt 0.726202 0.118056
vt 0.738153 0.110849
vt 0.750017 0.117598
vt 0.618691 0.366735
vt 0.593970 0.366737
vt 0.593992 0.098036
vt 0.618686 0.098033
vt 0.567917 0.366734
vt 0.593970 0.366737
vt 0.586740 0.387978
vt 0.575197 0.387976
vt 0.611410 0.387976
vt 0.586740 0.387978
vt 0.567939 0.098033
vt 0.593992 0.098036
vt 0.539631 0.885647
vt 0.519619 0.929284
vt 0.749974 0.131480
vt 0.738159 0.138596
vt 0.591242 0.797361
vt 0.563870 0.797359
vt 0.616611 0.797361
vt 0.591242 0.797361
vt 0.620429 0.818679
vt 0.591888 0.818594
vt 0.591888 0.818594
vt 0.561160 0.818575
vt 0.405293 0.885310
vt 0.435626 0.885554
vt 0.376778 0.879330
vt 0.595972 0.877725
vt 0.563487 0.876740
vt 0.596462 0.927802
vt 0.575430 0.926808
vt 0.404286 0.929761
vt 0.396600 0.929134
vt 0.415769 0.929247
vn 0.5058 -0.0147 -0.8625
vn 0.0000 -0.9999 0.0170
vn -0.1883 -0.9744 0.1231
vn -0.1884 -0.9744 0.1227
vn 0.4072 0.5814 -0.7044
vn -0.3974 0.5813 -0.7101
vn -0.5031 0.0147 0.8641
vn -0.4936 -0.0148 -0.8696
vn 0.4909 0.0148 0.8711
vn 0.3954 0.6044 0.6916
vn -0.4052 0.6043 0.6860
vn 0.4597 0.3894 -0.7982
vn 0.4089 0.3834 -0.8281
vn 0.4776 0.4349 -0.7634
vn -0.4368 -0.4788 -0.7615
vn 0.4345 -0.4520 0.7790
vn 0.4476 -0.4787 -0.7553
vn -0.4453 -0.4521 0.7728
vn 0.8892 0.4574 0.0109
vn 0.9146 0.4044 0.0037
vn 0.9071 0.4210 0.0007
vn -0.1866 -0.9780 -0.0928
vn 0.1882 -0.9780 -0.0899
vn -0.0000 0.9999 -0.0170
vn 0.9994 0.0331 0.0096
vn 0.9994 0.0334 0.0096
vn 0.9785 -0.0035 -0.2063
vn 0.9741 0.0038 0.2261
vn -0.9995 0.0328 -0.0045
vn -0.9994 0.0331 -0.0045
vn -0.9838 0.1705 0.0562
vn -0.9832 0.1685 -0.0701
vn 0.9841 0.1688 -0.0562
vn 0.9828 0.1707 0.0700
vn -0.9772 0.0036 0.2125
vn -0.9755 -0.0037 -0.2201
vn -0.8461 0.2701 -0.4595
vn -0.8006 0.4022 -0.4442
vn -0.4802 0.3740 -0.7934
vn -0.1327 0.1877 -0.9732
vn -0.0177 0.6875 0.7260
vn 0.2702 0.7951 0.5429
vn -0.6909 0.5520 0.4668
vn -0.8971 -0.4418 0.0040
vn -0.8970 -0.4420 0.0040
vn 0.8970 -0.4418 0.0166
vn 0.8971 -0.4416 0.0166
vn 0.9233 0.0055 -0.3841
vn 0.9035 -0.2264 0.3640
vn -0.9305 -0.0404 0.3640
vn -0.8756 -0.3505 -0.3323
vn -0.0228 0.0961 0.9951
vn -0.0142 0.0414 0.9990
vn 0.7595 0.0761 0.6460
vn -0.8573 0.1525 0.4917
vn 0.0000 0.1824 -0.9832
vn 0.9177 0.1086 -0.3822
usemtl initialShadingGroup
s off
f 1/1/1 2/2/1 3/3/1 4/4/1
f 5/5/2 3/6/3 6/7/4 7/8/2
f 2/2/5 1/1/5 8/9/5 9/10/5
f 1/1/6 10/11/6 11/12/6 8/9/6
f 12/13/7 13/14/7 14/15/7 15/16/7
f 16/17/7 17/18/7 5/19/7 7/20/7
f 10/11/8 1/1/8 4/4/8 18/21/8
f 19/22/9 16/17/9 7/20/9 6/23/9
f 16/17/10 19/22/10 20/24/10 13/14/10
f 17/18/11 16/17/11 13/14/11 12/13/11
f 9/10/1 8/9/1 21/25/1 22/26/1
f 8/9/8 11/12/8 23/27/8 21/25/8
f 13/14/9 20/24/9 24/28/9 14/15/9
f 25/29/12 26/30/13 27/31/14 28/32/12
f 21/25/15 23/27/15 29/33/15 30/34/15
f 14/15/16 24/28/16 31/35/16 32/36/16
f 22/26/17 21/25/17 30/34/17 33/37/17
f 15/16/18 14/15/18 32/36/18 34/38/18
f 26/39/19 25/40/20 35/41/20 36/42/21
f 4/43/2 3/6/22 5/5/23 18/44/2
f 25/45/24 28/46/24 37/47/24 38/48/24
s 1
f 2/49/25 19/50/26 6/51/27 3/52/28
f 10/53/29 17/54/30 12/55/31 11/56/32
f 19/50/26 2/49/25 9/57/33 20/58/34
f 17/54/30 10/53/29 18/59/35 5/60/36
f 39/61/37 37/62/38 28/32/39 27/31/40
f 40/63/41 35/64/42 25/45/24 38/48/43
f 11/56/32 12/55/31 15/65/44 23/66/45
f 20/58/34 9/57/33 22/67/46 24/68/47
f 24/68/47 22/67/46 33/69/48 31/70/49
f 23/66/45 15/65/44 34/71/50 29/72/51
f 41/73/52 32/36/53 31/35/49 36/74/54
f 42/75/55 34/38/50 32/36/53 41/73/52
f 34/71/50 42/76/55 39/77/37 29/72/51
f 39/61/37 27/31/40 30/34/56 29/33/51
f 26/30/57 33/37/48 30/34/56 27/31/40
f 33/69/48 26/39/57 36/42/54 31/70/49
f 39/77/37 42/76/55 38/78/43 37/79/38
f 42/75/55 41/73/52 40/80/41 38/81/43
f 41/73/52 36/74/54 35/82/42 40/80/41
