# Blender v2.79 (sub 0) OBJ File: ''
# www.blender.org
mtllib Harpa.mtl
o Arco_Cube
v -2.062663 -0.204358 -1.224489
v -2.062663 -0.204358 -0.815773
v -4.125328 -0.204358 1.402545
v -4.125325 -0.204358 0.993829
v -2.062663 0.204358 -1.224489
v -4.125325 0.204358 0.993829
v -4.125328 0.204357 1.402545
v -2.062665 0.204358 -0.815773
v -4.688250 0.188251 1.386438
v -4.688250 -0.188252 1.386438
v 4.125329 0.204358 0.993829
v 4.125323 0.204357 1.402545
v 4.688245 0.188251 1.386438
v 4.688251 0.188251 1.009936
v 2.062665 0.204358 -1.224489
v 2.062665 -0.204358 -1.224489
v 0.000000 -0.204358 -1.446049
v 0.000000 0.204358 -1.446049
v 2.062663 -0.204358 -0.815773
v 2.062661 0.204358 -0.815773
v -0.000002 0.204358 -1.037333
v 0.000000 -0.204358 -1.037333
v 4.125328 -0.204358 0.993829
v 4.125328 -0.204358 1.402545
v 4.688247 -0.188251 1.009936
v 4.688247 -0.188252 1.386438
v -4.688247 0.188251 1.009936
v -4.688245 -0.188251 1.009936
v 3.728101 -0.070480 0.918961
v -3.655582 -0.070480 0.918961
v -3.655582 -0.049697 0.954959
v 3.728101 -0.049697 0.954959
v -3.655582 -0.008130 0.954959
v 3.728101 -0.008130 0.954959
v -3.655582 0.012652 0.918961
v 3.728101 0.012652 0.918961
v -3.655582 -0.008130 0.882963
v 3.728101 -0.008130 0.882963
v -3.655582 -0.049697 0.882963
v 3.728101 -0.049697 0.882963
v 3.384946 -0.070480 0.512693
v -3.319112 -0.070480 0.512693
v -3.319112 -0.049697 0.548691
v 3.384946 -0.049697 0.548691
v -3.319112 -0.008130 0.548691
v 3.384946 -0.008130 0.548691
v -3.319112 0.012652 0.512693
v 3.384946 0.012652 0.512693
v -3.319112 -0.008130 0.476697
v 3.384946 -0.008130 0.476697
v -3.319112 -0.049697 0.476697
v 3.384946 -0.049697 0.476697
v 2.949837 -0.070480 0.029806
v -2.870867 -0.070480 0.029806
v -2.870867 -0.049697 0.065804
v 2.949837 -0.049697 0.065804
v -2.870867 -0.008130 0.065804
v 2.949837 -0.008130 0.065804
v -2.870867 0.012653 0.029806
v 2.949837 0.012653 0.029806
v -2.870867 -0.008130 -0.006192
v 2.949837 -0.008130 -0.006192
v -2.870867 -0.049697 -0.006192
v 2.949837 -0.049697 -0.006192
v 2.477564 -0.070480 -0.417490
v -2.460189 -0.070480 -0.417490
v -2.460189 -0.049697 -0.381492
v 2.477564 -0.049697 -0.381492
v -2.460189 -0.008130 -0.381492
v 2.477564 -0.008130 -0.381492
v -2.460189 0.012653 -0.417490
v 2.477564 0.012653 -0.417490
v -2.460189 -0.008130 -0.453488
v 2.477564 -0.008130 -0.453488
v -2.460189 -0.049697 -0.453488
v 2.477564 -0.049697 -0.453488
vn -0.3455 -0.6362 -0.6898
vn 0.2717 -0.7949 0.5424
vn 0.2924 -0.6306 0.7189
vn -0.2537 -0.8059 -0.5349
vn -0.3455 0.6362 -0.6898
vn -0.2537 0.8059 -0.5349
vn 0.2924 0.6306 0.7189
vn 0.2717 0.7949 0.5424
vn -0.5924 0.5697 0.5697
vn -0.5924 -0.5697 0.5697
vn 0.2537 0.8059 -0.5349
vn -0.2924 0.6306 0.7189
vn 0.5923 0.5697 0.5697
vn 0.5924 0.5697 -0.5697
vn 0.3455 0.6362 -0.6898
vn 0.3455 -0.6362 -0.6898
vn -0.0000 -0.6838 -0.7296
vn -0.0000 0.6838 -0.7296
vn -0.2717 -0.7949 0.5424
vn -0.2717 0.7949 0.5424
vn 0.0000 0.7320 0.6814
vn -0.0000 -0.7320 0.6814
vn 0.2537 -0.8059 -0.5349
vn -0.2924 -0.6306 0.7189
vn 0.5923 -0.5697 -0.5697
vn 0.5923 -0.5697 0.5697
vn -0.5923 0.5697 -0.5697
vn -0.5923 -0.5697 -0.5697
vn -0.6100 0.7924 -0.0000
vn 0.6100 0.7924 -0.0000
vn 0.6100 0.3962 -0.6862
vn -0.6100 0.3962 -0.6862
vn 0.6100 -0.3962 -0.6862
vn -0.6100 -0.3962 -0.6862
vn 0.6100 -0.7924 -0.0000
vn -0.6100 -0.7924 -0.0000
vn 0.6100 -0.3962 0.6862
vn -0.6100 -0.3962 0.6862
vn 0.6100 0.3962 0.6862
vn -0.6100 0.3962 0.6862
usemtl Material.001
s 1
f 1//1 2//2 3//3 4//4
f 5//5 6//6 7//7 8//8
f 3//3 7//7 9//9 10//10
f 2//2 8//8 7//7 3//3
f 11//11 12//12 13//13 14//14
f 5//5 1//1 4//4 6//6
f 15//15 16//16 17//17 18//18
f 19//19 20//20 21//21 22//22
f 15//15 18//18 21//21 20//20
f 16//16 19//19 22//22 17//17
f 18//18 17//17 1//1 5//5
f 22//22 21//21 8//8 2//2
f 18//18 5//5 8//8 21//21
f 17//17 22//22 2//2 1//1
f 23//23 24//24 19//19 16//16
f 11//11 15//15 20//20 12//12
f 24//24 12//12 20//20 19//19
f 11//11 23//23 16//16 15//15
f 25//25 14//14 13//13 26//26
f 10//10 9//9 27//27 28//28
f 12//12 24//24 26//26 13//13
f 23//23 11//11 14//14 25//25
f 7//7 6//6 27//27 9//9
f 24//24 23//23 25//25 26//26
f 6//6 4//4 28//28 27//27
f 4//4 3//3 10//10 28//28
f 29//29 30//30 31//31 32//32
f 32//32 31//31 33//33 34//34
f 34//34 33//33 35//35 36//36
f 36//36 35//35 37//37 38//38
f 31//31 30//30 39//39 37//37 35//35 33//33
f 38//38 37//37 39//39 40//40
f 40//40 39//39 30//30 29//29
f 29//29 32//32 34//34 36//36 38//38 40//40
f 41//29 42//30 43//31 44//32
f 44//32 43//31 45//33 46//34
f 46//34 45//33 47//35 48//36
f 48//36 47//35 49//37 50//38
f 43//31 42//30 51//39 49//37 47//35 45//33
f 50//38 49//37 51//39 52//40
f 52//40 51//39 42//30 41//29
f 41//29 44//32 46//34 48//36 50//38 52//40
f 53//29 54//30 55//31 56//32
f 56//32 55//31 57//33 58//34
f 58//34 57//33 59//35 60//36
f 60//36 59//35 61//37 62//38
f 55//31 54//30 63//39 61//37 59//35 57//33
f 62//38 61//37 63//39 64//40
f 64//40 63//39 54//30 53//29
f 53//29 56//32 58//34 60//36 62//38 64//40
f 65//29 66//30 67//31 68//32
f 68//32 67//31 69//33 70//34
f 70//34 69//33 71//35 72//36
f 72//36 71//35 73//37 74//38
f 67//31 66//30 75//39 73//37 71//35 69//33
f 74//38 73//37 75//39 76//40
f 76//40 75//39 66//30 65//29
f 65//29 68//32 70//34 72//36 74//38 76//40
