# Blender v2.79 (sub 0) OBJ File: 'circuloDebugSonido.blend'
# www.blender.org
mtllib circuloDebugSonido.mtl
o Torus.001
v 1.060000 0.000000 0.000000
v 0.970000 0.000000 0.051962
v 0.970000 0.000000 -0.051962
v 0.917987 0.530000 0.000000
v 0.840045 0.485000 0.051962
v 0.840045 0.485000 -0.051962
v 0.530000 0.917987 0.000000
v 0.485000 0.840045 0.051962
v 0.485000 0.840045 -0.051962
v 0.000000 1.060000 0.000000
v 0.000000 0.970000 0.051962
v 0.000000 0.970000 -0.051962
v -0.530000 0.917987 0.000000
v -0.485000 0.840045 0.051962
v -0.485000 0.840045 -0.051962
v -0.917987 0.530000 0.000000
v -0.840045 0.485000 0.051962
v -0.840045 0.485000 -0.051962
v -1.060000 0.000000 0.000000
v -0.970000 0.000000 0.051962
v -0.970000 0.000000 -0.051962
v -0.917987 -0.530000 0.000000
v -0.840045 -0.485000 0.051962
v -0.840045 -0.485000 -0.051962
v -0.530000 -0.917987 0.000000
v -0.485000 -0.840045 0.051962
v -0.485000 -0.840045 -0.051962
v 0.000000 -1.060000 0.000000
v 0.000000 -0.970000 0.051962
v 0.000000 -0.970000 -0.051962
v 0.530000 -0.917987 0.000000
v 0.485000 -0.840045 0.051962
v 0.485000 -0.840045 -0.051962
v 0.917987 -0.530000 0.000000
v 0.840045 -0.485000 0.051962
v 0.840045 -0.485000 -0.051962
vn 0.4956 0.1328 0.8584
vn -0.9659 -0.2588 0.0000
vn 0.4956 0.1328 -0.8584
vn 0.3628 0.3628 0.8584
vn -0.7071 -0.7071 0.0000
vn 0.3628 0.3628 -0.8584
vn 0.1328 0.4956 0.8584
vn -0.2588 -0.9659 0.0000
vn 0.1328 0.4956 -0.8584
vn -0.1328 0.4956 0.8584
vn 0.2588 -0.9659 0.0000
vn -0.1328 0.4956 -0.8584
vn -0.3628 0.3628 0.8584
vn 0.7071 -0.7071 0.0000
vn -0.3628 0.3628 -0.8584
vn -0.4956 0.1328 0.8584
vn 0.9659 -0.2588 0.0000
vn -0.4956 0.1328 -0.8584
vn -0.4956 -0.1328 0.8584
vn 0.9659 0.2588 0.0000
vn -0.4956 -0.1328 -0.8584
vn -0.3628 -0.3628 0.8584
vn 0.7071 0.7071 0.0000
vn -0.3628 -0.3628 -0.8584
vn -0.1328 -0.4956 0.8584
vn 0.2588 0.9659 0.0000
vn -0.1328 -0.4956 -0.8584
vn 0.1328 -0.4956 0.8584
vn -0.2588 0.9659 0.0000
vn 0.1328 -0.4956 -0.8584
vn 0.3628 -0.3628 0.8584
vn -0.7071 0.7071 0.0000
vn 0.3628 -0.3628 -0.8584
vn 0.4956 -0.1328 0.8584
vn -0.9659 0.2588 0.0000
vn 0.4956 -0.1328 -0.8584
usemtl None
s off
f 1//1 4//1 5//1 2//1
f 2//2 5//2 6//2 3//2
f 3//3 6//3 4//3 1//3
f 4//4 7//4 8//4 5//4
f 5//5 8//5 9//5 6//5
f 6//6 9//6 7//6 4//6
f 7//7 10//7 11//7 8//7
f 8//8 11//8 12//8 9//8
f 9//9 12//9 10//9 7//9
f 10//10 13//10 14//10 11//10
f 11//11 14//11 15//11 12//11
f 12//12 15//12 13//12 10//12
f 13//13 16//13 17//13 14//13
f 14//14 17//14 18//14 15//14
f 15//15 18//15 16//15 13//15
f 16//16 19//16 20//16 17//16
f 17//17 20//17 21//17 18//17
f 18//18 21//18 19//18 16//18
f 19//19 22//19 23//19 20//19
f 20//20 23//20 24//20 21//20
f 21//21 24//21 22//21 19//21
f 22//22 25//22 26//22 23//22
f 23//23 26//23 27//23 24//23
f 24//24 27//24 25//24 22//24
f 25//25 28//25 29//25 26//25
f 26//26 29//26 30//26 27//26
f 27//27 30//27 28//27 25//27
f 28//28 31//28 32//28 29//28
f 29//29 32//29 33//29 30//29
f 30//30 33//30 31//30 28//30
f 31//31 34//31 35//31 32//31
f 32//32 35//32 36//32 33//32
f 33//33 36//33 34//33 31//33
f 34//34 1//34 2//34 35//34
f 35//35 2//35 3//35 36//35
f 36//36 3//36 1//36 34//36
