# Blender v2.79 (sub 0) OBJ File: ''
# www.blender.org
mtllib circuloDebugSonido.mtl
o Torus
v 1.250000 0.000000 0.000000
v 1.000000 0.250000 0.000000
v 0.750000 0.000000 0.000000
v 1.000000 -0.250000 0.000000
v 0.883883 0.000000 -0.883884
v 0.707107 0.250000 -0.707107
v 0.530330 0.000000 -0.530330
v 0.707107 -0.250000 -0.707107
v 0.000000 0.000000 -1.250000
v 0.000000 0.250000 -1.000000
v 0.000000 0.000000 -0.750000
v 0.000000 -0.250000 -1.000000
v -0.883884 0.000000 -0.883883
v -0.707107 0.250000 -0.707107
v -0.530330 0.000000 -0.530330
v -0.707107 -0.250000 -0.707107
v -1.250000 0.000000 -0.000000
v -1.000000 0.250000 -0.000000
v -0.750000 0.000000 -0.000000
v -1.000000 -0.250000 -0.000000
v -0.883884 0.000000 0.883883
v -0.707107 0.250000 0.707107
v -0.530330 0.000000 0.530330
v -0.707107 -0.250000 0.707107
v 0.000000 0.000000 1.250000
v 0.000000 0.250000 1.000000
v 0.000000 0.000000 0.750000
v 0.000000 -0.250000 1.000000
v 0.883883 0.000000 0.883884
v 0.707106 0.250000 0.707107
v 0.530330 0.000000 0.530330
v 0.707106 -0.250000 0.707107
vn 0.6786 0.6786 -0.2811
vn -0.6786 0.6786 0.2811
vn -0.6786 -0.6786 0.2811
vn 0.6786 -0.6786 -0.2811
vn 0.2811 0.6786 -0.6786
vn -0.2811 0.6786 0.6786
vn -0.2811 -0.6786 0.6786
vn 0.2811 -0.6786 -0.6786
vn -0.2811 0.6786 -0.6786
vn 0.2811 0.6786 0.6786
vn 0.2811 -0.6786 0.6786
vn -0.2811 -0.6786 -0.6786
vn -0.6786 0.6786 -0.2811
vn 0.6786 0.6786 0.2811
vn 0.6786 -0.6786 0.2811
vn -0.6786 -0.6786 -0.2811
usemtl None
s off
f 1//1 5//1 6//1 2//1
f 2//2 6//2 7//2 3//2
f 3//3 7//3 8//3 4//3
f 4//4 8//4 5//4 1//4
f 5//5 9//5 10//5 6//5
f 6//6 10//6 11//6 7//6
f 7//7 11//7 12//7 8//7
f 8//8 12//8 9//8 5//8
f 9//9 13//9 14//9 10//9
f 10//10 14//10 15//10 11//10
f 11//11 15//11 16//11 12//11
f 12//12 16//12 13//12 9//12
f 13//13 17//13 18//13 14//13
f 14//14 18//14 19//14 15//14
f 15//15 19//15 20//15 16//15
f 16//16 20//16 17//16 13//16
f 17//2 21//2 22//2 18//2
f 18//1 22//1 23//1 19//1
f 19//4 23//4 24//4 20//4
f 20//3 24//3 21//3 17//3
f 21//6 25//6 26//6 22//6
f 22//5 26//5 27//5 23//5
f 23//8 27//8 28//8 24//8
f 24//7 28//7 25//7 21//7
f 25//10 29//10 30//10 26//10
f 26//9 30//9 31//9 27//9
f 27//12 31//12 32//12 28//12
f 28//11 32//11 29//11 25//11
f 29//14 1//14 2//14 30//14
f 30//13 2//13 3//13 31//13
f 31//16 3//16 4//16 32//16
f 32//15 4//15 1//15 29//15
