# Blender v2.79 (sub 0) OBJ File: ''
# www.blender.org
mtllib Flecha.mtl
o Flecha_Cylinder
v 0.000000 0.088249 2.346153
v -0.000000 0.088248 -2.050573
v -0.109529 0.044124 -2.050573
v -0.109529 0.044125 2.346153
v -0.109529 -0.044125 -2.050573
v -0.109529 -0.044124 2.346153
v -0.000000 -0.088249 -2.050573
v 0.000000 -0.088247 2.346153
v 0.109529 -0.044125 -2.050573
v 0.109529 -0.044124 2.346153
v -0.375551 0.044124 -2.633603
v -0.375551 -0.044125 -2.633603
v 0.109529 0.044124 -2.050573
v 0.109529 0.044125 2.346153
v -0.000000 -0.088249 -2.633603
v -0.277958 -0.032659 -2.745798
v -0.000000 -0.065318 -2.745798
v 0.375546 -0.044125 -2.633603
v 0.375546 0.044124 -2.633603
v -0.000000 0.088248 -2.633603
v -0.277958 0.032659 -2.745798
v -0.000000 0.065318 -2.745798
v 0.277957 0.032659 -2.745798
v 0.277957 -0.032659 -2.745798
v 0.668120 -0.085786 2.807534
v 0.668120 0.085787 2.807534
v 0.439677 0.085787 2.993865
v 0.439677 -0.085786 2.993865
v -0.262872 -0.085786 3.108508
v -0.262872 0.085787 3.108508
v -0.439677 0.085787 2.993865
v -0.439677 -0.085786 2.993865
v -0.677757 -0.085786 2.394108
v -0.677757 0.085787 2.394108
v -0.490250 0.085787 2.249555
v -0.490250 -0.085786 2.249555
v 0.246592 -0.085786 2.234270
v 0.246592 0.085787 2.234270
v 0.490251 0.085787 2.249555
v 0.490251 -0.085786 2.249555
v -0.262873 -0.085786 2.496013
v -0.262873 -0.085786 2.234270
v 0.246592 0.085787 2.496013
v 0.677757 0.085787 2.394108
v 0.246592 0.085787 2.838103
v 0.771671 0.085787 2.565153
v 0.246592 0.085787 2.667058
v -0.262872 -0.085786 2.838103
v -0.668120 -0.085786 2.807534
v -0.771671 -0.085786 2.565153
v -0.262872 -0.085786 2.667058
v -0.668120 0.085787 2.807534
v -0.771671 0.085787 2.565153
v 0.677757 -0.085786 2.394108
v 0.771671 -0.085786 2.565153
v 0.246592 0.085787 3.108508
v -0.000755 -0.085786 2.667058
v -0.000755 -0.085786 2.496013
v -0.262872 0.085787 2.667058
v -0.262873 0.085787 2.496013
v -0.262872 0.085787 2.838103
v -0.000755 -0.085786 3.251175
v -0.000755 -0.085786 2.838103
v -0.262873 0.085787 2.234270
v -0.000755 -0.085786 2.332610
v -0.000755 0.085787 3.251175
v 0.246592 -0.085786 3.108508
v 0.246592 -0.085786 2.496013
v 0.246592 -0.085786 2.838103
v 0.246592 -0.085786 2.667058
v -0.000755 0.085787 2.667058
v -0.000755 0.085787 2.496013
v -0.000755 0.085787 2.838103
v -0.000755 0.085787 2.332610
vn 0.0000 0.7751 0.6319
vn 0.0000 0.9998 0.0213
vn -0.7505 0.6459 0.1395
vn -0.6629 0.4476 0.6002
vn -0.7505 -0.6460 0.1395
vn -0.6629 -0.4476 0.6002
vn 0.0000 -0.9998 0.0213
vn 0.0000 -0.7751 0.6319
vn 0.7505 -0.6459 0.1395
vn 0.6629 -0.4476 0.6002
vn -0.8156 0.5639 -0.1299
vn -0.8156 -0.5639 -0.1299
vn 0.7505 0.6459 0.1395
vn 0.6629 0.4476 0.6002
vn 0.0000 -0.9968 -0.0797
vn -0.3592 -0.5275 -0.7699
vn 0.0000 -0.6590 -0.7521
vn 0.8156 -0.5639 -0.1299
vn 0.8156 0.5639 -0.1299
vn 0.0000 0.9968 -0.0797
vn -0.3592 0.5275 -0.7699
vn 0.0000 0.6590 -0.7521
vn 0.3592 0.5275 -0.7699
vn 0.3592 -0.5274 -0.7699
vn 0.6023 -0.6570 0.4533
vn 0.6023 0.6570 0.4533
vn 0.4142 0.6908 0.5926
vn 0.4142 -0.6908 0.5926
vn -0.3660 -0.6986 0.6149
vn -0.3660 0.6986 0.6149
vn -0.4234 0.6951 0.5810
vn -0.4234 -0.6951 0.5810
vn -0.5681 -0.6638 -0.4864
vn -0.5681 0.6638 -0.4864
vn -0.2699 0.6472 -0.7129
vn -0.2699 -0.6472 -0.7129
vn -0.1180 -0.6610 -0.7410
vn -0.1180 0.6610 -0.7410
vn 0.2685 0.6468 -0.7139
vn 0.2685 -0.6468 -0.7139
vn 0.0000 -1.0000 0.0000
vn 0.1089 -0.6625 -0.7411
vn 0.0000 1.0000 -0.0000
vn 0.5681 0.6638 -0.4864
vn 0.7832 0.6206 -0.0386
vn -0.6023 -0.6570 0.4533
vn -0.7832 -0.6206 -0.0386
vn -0.6023 0.6570 0.4533
vn -0.7832 0.6206 -0.0386
vn 0.5681 -0.6638 -0.4864
vn 0.7832 -0.6206 -0.0386
vn 0.3579 0.7057 0.6115
vn 0.0098 -0.6119 0.7909
vn 0.1089 0.6625 -0.7411
vn -0.0059 -0.7979 -0.6028
vn 0.0098 0.6119 0.7909
vn 0.3579 -0.7057 0.6115
vn -0.0059 0.7979 -0.6028
usemtl None
s 1
f 1//1 2//2 3//3 4//4
f 4//4 3//3 5//5 6//6
f 6//6 5//5 7//7 8//8
f 8//8 7//7 9//9 10//10
f 5//5 3//3 11//11 12//12
f 10//10 9//9 13//13 14//14
f 14//14 13//13 2//2 1//1
f 1//1 4//4 6//6 8//8 10//10 14//14
f 15//15 12//12 16//16 17//17
f 13//13 9//9 18//18 19//19
f 3//3 2//2 20//20 11//11
f 7//7 5//5 12//12 15//15
f 2//2 13//13 19//19 20//20
f 9//9 7//7 15//15 18//18
f 21//21 22//22 23//23 24//24 17//17 16//16
f 11//11 20//20 22//22 21//21
f 20//20 19//19 23//23 22//22
f 18//18 15//15 17//17 24//24
f 12//12 11//11 21//21 16//16
f 19//19 18//18 24//24 23//23
f 25//25 26//26 27//27 28//28
f 29//29 30//30 31//31 32//32
f 33//33 34//34 35//35 36//36
f 37//37 38//38 39//39 40//40
f 41//41 33//33 36//36 42//42
f 43//43 44//44 39//39 38//38
f 45//43 26//26 46//45 47//43
f 48//41 49//46 50//47 51//41
f 49//46 52//48 53//49 50//47
f 54//50 44//44 46//45 55//51
f 32//32 31//31 52//48 49//46
f 29//29 32//32 49//46 48//41
f 56//52 27//27 26//26 45//43
f 55//51 46//45 26//26 25//25
f 40//40 39//39 44//44 54//50
f 47//43 46//45 44//44 43//43
f 51//41 50//47 33//33 41//41
f 50//47 53//49 34//34 33//33
f 57//41 51//41 41//41 58//41
f 53//49 59//43 60//43 34//34
f 31//31 30//30 61//43 52//48
f 62//53 29//29 48//41 63//41
f 63//41 48//41 51//41 57//41
f 52//48 61//43 59//43 53//49
f 34//34 60//43 64//54 35//35
f 58//41 41//41 42//42 65//55
f 36//36 35//35 64//54 42//42
f 62//53 66//56 30//30 29//29
f 28//28 27//27 56//52 67//57
f 54//50 68//41 37//37 40//40
f 25//25 69//41 70//41 55//51
f 28//28 67//57 69//41 25//25
f 55//51 70//41 68//41 54//50
f 71//43 47//43 43//43 72//43
f 66//56 56//52 45//43 73//43
f 73//43 45//43 47//43 71//43
f 72//43 43//43 38//38 74//58
f 65//55 74//58 38//38 37//37
f 42//42 64//54 74//58 65//55
f 60//43 72//43 74//58 64//54
f 61//43 73//43 71//43 59//43
f 30//30 66//56 73//43 61//43
f 59//43 71//43 72//43 60//43
f 67//57 56//52 66//56 62//53
f 68//41 58//41 65//55 37//37
f 69//41 63//41 57//41 70//41
f 67//57 62//53 63//41 69//41
f 70//41 57//41 58//41 68//41
