# Blender v2.79 (sub 0) OBJ File: 'jugador.blend'
# www.blender.org
mtllib jugador.mtl
o Cube
v 1.000000 -1.000000 -1.000000
v 1.000000 -1.000000 1.000000
v -1.000000 -1.000000 1.000000
v -1.000000 -1.000000 -1.000000
v 1.000000 3.328587 -1.000000
v 0.999999 3.328587 1.000001
v -1.000000 3.328587 1.000000
v -1.000000 3.328587 -1.000000
vt 0.250197 0.790418
vt 0.499803 0.790418
vt 0.499803 0.540812
vt 0.250197 0.540812
vt 0.000197 0.790418
vt 0.000197 0.540812
vt 0.249803 0.540812
vt 0.249803 0.790418
vt 0.250197 0.540418
vt 0.250197 0.000197
vt 0.499803 0.000197
vt 0.499803 0.540418
vt 0.500197 0.540418
vt 0.500197 0.000197
vt 0.749803 0.000197
vt 0.749803 0.540418
vt 0.999803 0.540418
vt 0.999803 0.000197
vt 0.750197 0.000197
vt 0.750197 0.540418
vt 0.000197 0.000197
vt 0.000197 0.540418
vt 0.249803 0.540418
vt 0.249803 0.000197
vn 0.0000 -1.0000 -0.0000
vn 0.0000 1.0000 0.0000
vn 1.0000 0.0000 0.0000
vn -0.0000 -0.0000 1.0000
vn -1.0000 -0.0000 -0.0000
vn 0.0000 0.0000 -1.0000
usemtl Material
s off
f 1/1/1 2/2/1 3/3/1 4/4/1
f 5/5/2 8/6/2 7/7/2 6/8/2
f 1/9/3 5/10/3 6/11/3 2/12/3
f 2/13/4 6/14/4 7/15/4 3/16/4
f 3/17/5 7/18/5 8/19/5 4/20/5
f 5/21/6 1/22/6 4/23/6 8/24/6
