# Blender v2.79 (sub 0) OBJ File: 'untitled2blend.blend'
# www.blender.org
mtllib llaveboss.mtl
o Cylinder.001_Cylinder.002
v 0.564693 -0.067968 1.598205
v 0.564693 -0.049777 1.642121
v 0.034802 -0.049777 1.642121
v 0.034802 -0.067968 1.598205
v 0.564693 -0.005860 1.660312
v 0.034802 -0.005860 1.660312
v 0.564693 0.038056 1.642121
v 0.034802 0.038056 1.642121
v 0.564693 0.056247 1.598205
v 0.034802 0.056247 1.598205
v 0.564693 0.038056 1.554287
v 0.034802 0.038056 1.554287
v 0.564693 -0.005860 1.536097
v 0.034802 -0.005860 1.536097
v 0.034802 -0.049777 1.554287
v 0.564693 -0.049777 1.554287
v -0.407092 -0.202303 -0.617818
v -0.407092 0.190582 -0.617818
v -0.415095 -0.202303 -0.890655
v -0.415095 0.190582 -0.890655
v 0.407092 -0.202303 -0.617818
v 0.407092 0.190582 -0.617818
v 0.415095 -0.202303 -0.890655
v 0.415095 0.190582 -0.890655
v -0.654660 0.161541 -1.166648
v -0.654660 -0.173261 -1.166648
v 0.654660 -0.173261 -1.166648
v 0.654660 0.161541 -1.166648
v -0.882940 0.190582 -1.558169
v -0.882940 -0.202303 -1.558169
v 0.882940 -0.202303 -1.558169
v 0.882940 0.190582 -1.558169
v -0.920768 0.190582 -1.954248
v -0.920768 -0.202303 -1.954248
v 0.920768 -0.202303 -1.954248
v 0.920768 0.190582 -1.954248
v -0.770665 0.190582 -2.337022
v -0.770665 -0.202303 -2.337022
v 0.770665 -0.202303 -2.337022
v 0.770665 0.190582 -2.337022
v -0.318612 0.190582 -2.711355
v -0.318612 -0.202303 -2.711355
v 0.318612 -0.202303 -2.711355
v 0.318612 0.190582 -2.711355
v 0.429407 -0.067968 1.347155
v 0.429407 -0.049777 1.391072
v 0.028627 -0.049777 1.391072
v 0.028627 -0.067968 1.347155
v 0.429407 -0.005860 1.409263
v 0.028627 -0.005860 1.409263
v 0.429407 0.038056 1.391072
v 0.028627 0.038056 1.391072
v 0.429407 0.056247 1.347155
v 0.028627 0.056247 1.347155
v 0.429407 0.038056 1.303239
v 0.028627 0.038056 1.303239
v 0.429407 -0.005860 1.285048
v 0.028627 -0.005860 1.285048
v 0.028627 -0.049777 1.303239
v 0.429407 -0.049777 1.303239
v 0.000000 -0.119450 1.773485
v -0.080320 -0.086180 1.773485
v -0.080320 -0.086180 -0.690225
v 0.000000 -0.119450 -0.690225
v -0.113589 -0.005860 1.773485
v -0.113589 -0.005860 -0.690225
v -0.080320 0.074459 1.773485
v -0.080320 0.074459 -0.690225
v 0.000000 0.107729 1.773485
v 0.000000 0.107729 -0.690225
v 0.080320 0.074459 1.773485
v 0.080320 0.074459 -0.690225
v 0.113589 -0.005860 1.773485
v 0.113589 -0.005860 -0.690225
v 0.080320 -0.086180 -0.690225
v 0.080320 -0.086180 1.773485
v 0.275788 -0.067968 1.091569
v 0.275788 -0.049777 1.135485
v 0.033449 -0.049777 1.135485
v 0.033449 -0.067968 1.091569
v 0.275788 -0.005860 1.153675
v 0.033449 -0.005860 1.153675
v 0.275788 0.038056 1.135485
v 0.033449 0.038056 1.135485
v 0.275788 0.056247 1.091569
v 0.033449 0.056247 1.091569
v 0.275788 0.038056 1.047651
v 0.033449 0.038056 1.047651
v 0.275788 -0.005860 1.029461
v 0.033449 -0.005860 1.029461
v 0.033449 -0.049777 1.047651
v 0.275788 -0.049777 1.047651
vt 0.988860 0.686663
vt 0.988860 0.696806
vt 0.850254 0.696806
vt 0.850254 0.686663
vt 0.988860 0.717111
vt 0.988860 0.727264
vt 0.850254 0.727264
vt 0.850254 0.717111
vt 0.988860 0.737416
vt 0.850254 0.737416
vt 0.850254 0.717111
vt 0.850254 0.706968
vt 0.988860 0.706968
vt 0.988860 0.717111
vt 0.850254 0.696806
vt 0.988860 0.696806
vt 0.988860 0.737416
vt 0.988860 0.747569
vt 0.850254 0.747569
vt 0.850254 0.737416
vt 0.862802 0.881284
vt 0.875235 0.881288
vt 0.884026 0.889058
vt 0.884026 0.900042
vt 0.875235 0.907807
vt 0.862802 0.907804
vt 0.854010 0.900034
vt 0.854010 0.889049
vt 0.988860 0.757722
vt 0.850254 0.757722
vt 0.988860 0.676501
vt 0.850254 0.676501
vt 0.840550 0.776474
vt 0.840554 0.765489
vt 0.849348 0.757722
vt 0.861781 0.757722
vt 0.870570 0.765489
vt 0.870566 0.776474
vt 0.861772 0.784241
vt 0.849339 0.784241
vt 0.090827 1.000000
vt 0.000000 1.000000
vt 0.000000 0.928602
vt 0.090827 0.928602
vt 0.181655 0.928602
vt 0.090827 0.928602
vt 0.097541 0.854536
vt 0.174941 0.854536
vt 0.181655 1.000000
vt 0.090827 1.000000
vt 0.292176 0.066943
vt 0.292176 0.119233
vt 0.135778 0.119233
vt 0.135778 0.066943
vt 0.688787 0.123455
vt 0.527140 0.123455
vt 0.528699 0.063347
vt 0.687229 0.063347
vt 0.292856 0.130986
vt 0.135479 0.130986
vt 0.136997 0.072465
vt 0.291339 0.072465
vt 0.090827 0.750354
vt 0.181655 0.750354
vt 0.735433 0.184274
vt 0.480494 0.184274
vt 0.338270 0.190198
vt 0.090066 0.190198
vt 0.006714 0.854536
vt 0.084113 0.854536
vt 0.436046 0.270515
vt 0.779881 0.270515
vt 0.787247 0.357775
vt 0.428680 0.357775
vt 0.381545 0.274161
vt 0.046791 0.274161
vt 0.000000 0.750354
vt 0.090827 0.750354
vt 0.039621 0.359116
vt 0.388715 0.359116
vt 0.360261 0.441217
vt 0.068075 0.441217
vt 0.000000 0.646497
vt 0.090827 0.646497
vt 0.090827 0.646497
vt 0.181655 0.646497
vt 0.181655 0.547614
vt 0.272482 0.547614
vt 0.272482 0.665860
vt 0.181655 0.665860
vt 0.000000 0.547614
vt 0.090827 0.547614
vt 0.090827 0.547614
vt 0.758020 0.442103
vt 0.457907 0.442103
vt 0.272482 0.832541
vt 0.181655 0.832541
vt 0.670001 0.524572
vt 0.545927 0.524572
vt 0.274566 0.521508
vt 0.153770 0.521508
vt 0.272482 0.950787
vt 0.181655 0.950787
vt 0.988860 0.925842
vt 0.988860 0.935985
vt 0.884026 0.935985
vt 0.884026 0.925842
vt 0.988860 0.854764
vt 0.988860 0.864917
vt 0.884026 0.864917
vt 0.884026 0.854764
vt 0.988860 0.875070
vt 0.884026 0.875070
vt 0.884026 0.915680
vt 0.884026 0.905537
vt 0.988860 0.905537
vt 0.988860 0.915680
vt 0.884026 0.895375
vt 0.988860 0.895375
vt 0.988860 0.875070
vt 0.988860 0.885222
vt 0.884026 0.885222
vt 0.884026 0.875070
vt 0.862802 0.907807
vt 0.875235 0.907811
vt 0.884026 0.915581
vt 0.884026 0.926566
vt 0.875235 0.934331
vt 0.862802 0.934327
vt 0.854010 0.926557
vt 0.854010 0.915572
vt 0.988860 0.895375
vt 0.884026 0.895375
vt 0.988860 0.915680
vt 0.884026 0.915680
vt 0.840554 0.818529
vt 0.849346 0.810765
vt 0.861779 0.810768
vt 0.870570 0.818539
vt 0.870570 0.829523
vt 0.861778 0.837288
vt 0.849345 0.837284
vt 0.840554 0.829514
vt 0.870022 0.000000
vt 0.888590 0.000020
vt 0.888590 0.644461
vt 0.870022 0.644441
vt 1.000000 0.644409
vt 0.981432 0.644145
vt 0.981432 0.000000
vt 1.000000 0.000265
vt 0.962863 0.644409
vt 0.962863 0.000265
vt 0.888590 0.000020
vt 0.907158 0.000000
vt 0.907158 0.644441
vt 0.888590 0.644461
vt 0.925727 0.000020
vt 0.925727 0.644461
vt 0.962863 0.644409
vt 0.944295 0.644145
vt 0.944295 0.000000
vt 0.962863 0.000265
vt 0.950040 0.806243
vt 0.933960 0.792032
vt 0.933960 0.771933
vt 0.950039 0.757722
vt 0.972780 0.757722
vt 0.988860 0.771933
vt 0.988860 0.792031
vt 0.972780 0.806243
vt 0.925727 0.644409
vt 0.925727 0.000265
vt 0.851453 0.000020
vt 0.851453 0.644461
vt 0.950039 0.806243
vt 0.972780 0.806243
vt 0.988860 0.820454
vt 0.988860 0.840553
vt 0.972780 0.854764
vt 0.950040 0.854764
vt 0.933960 0.840553
vt 0.933960 0.820455
vt 0.933960 0.767884
vt 0.933960 0.778027
vt 0.870570 0.778027
vt 0.870570 0.767884
vt 0.933960 0.798332
vt 0.933960 0.808485
vt 0.870570 0.808485
vt 0.870570 0.798332
vt 0.933960 0.818638
vt 0.870570 0.818638
vt 0.870570 0.798332
vt 0.870570 0.788189
vt 0.933960 0.788189
vt 0.933960 0.798332
vt 0.870570 0.778027
vt 0.933959 0.778027
vt 0.933960 0.818638
vt 0.933960 0.828790
vt 0.870570 0.828790
vt 0.870570 0.818638
vt 0.849345 0.784241
vt 0.861778 0.784245
vt 0.870570 0.792015
vt 0.870570 0.803000
vt 0.861778 0.810765
vt 0.849345 0.810761
vt 0.840554 0.802991
vt 0.840554 0.792006
vt 0.933960 0.838943
vt 0.870570 0.838943
vt 0.933960 0.757722
vt 0.870570 0.757722
vt 0.854006 0.862532
vt 0.862795 0.854764
vt 0.875228 0.854764
vt 0.884022 0.862532
vt 0.884026 0.873517
vt 0.875238 0.881284
vt 0.862805 0.881284
vt 0.854010 0.873517
vn 0.6302 -0.7764 0.0000
vn 0.6302 -0.5490 0.5490
vn -0.6302 -0.5490 0.5490
vn -0.6302 -0.7764 0.0000
vn 0.6302 0.0000 0.7764
vn -0.6302 0.0000 0.7764
vn 0.6302 0.5490 0.5490
vn -0.6302 0.5490 0.5490
vn 0.6302 0.7764 0.0000
vn -0.6302 0.7764 0.0000
vn 0.6302 0.5490 -0.5490
vn -0.6302 0.5490 -0.5490
vn 0.6302 0.0000 -0.7764
vn -0.6302 0.0000 -0.7764
vn -0.6302 -0.5490 -0.5490
vn 0.6302 -0.5490 -0.5490
vn -0.5680 -0.5789 0.5849
vn -0.5680 0.5789 0.5849
vn -0.5695 0.8051 0.1657
vn -0.5695 -0.8051 0.1657
vn 0.5695 0.8051 0.1657
vn 0.5695 -0.8051 0.1657
vn 0.6001 -0.6649 0.4447
vn 0.6001 0.6649 0.4447
vn 0.5680 0.5789 0.5849
vn 0.5680 -0.5789 0.5849
vn 0.7052 -0.6662 0.2425
vn 0.7052 0.6662 0.2425
vn -0.6001 -0.6649 0.4447
vn -0.6001 0.6649 0.4447
vn -0.7052 -0.6662 0.2425
vn -0.7454 -0.6583 -0.1045
vn 0.7454 -0.6583 -0.1045
vn -0.7052 0.6662 0.2425
vn -0.7454 0.6583 -0.1045
vn 0.7454 0.6583 -0.1045
vn 0.6122 0.6549 -0.4430
vn -0.6122 0.6549 -0.4430
vn 0.6122 -0.6549 -0.4430
vn 0.2609 -0.6382 -0.7243
vn 0.2609 0.6382 -0.7243
vn -0.6122 -0.6549 -0.4430
vn -0.2609 -0.6382 -0.7243
vn -0.2609 0.6382 -0.7243
vn 0.0000 -0.7764 0.6302
vn -0.5490 -0.5490 0.6302
vn -0.5490 -0.5490 -0.6302
vn 0.0000 -0.7764 -0.6302
vn -0.7764 0.0000 0.6302
vn -0.7764 0.0000 -0.6302
vn -0.5490 0.5490 0.6302
vn -0.5490 0.5490 -0.6302
vn 0.0000 0.7764 0.6302
vn 0.0000 0.7764 -0.6302
vn 0.5490 0.5490 0.6302
vn 0.5490 0.5490 -0.6302
vn 0.7764 0.0000 0.6302
vn 0.7764 0.0000 -0.6302
vn 0.5490 -0.5490 -0.6302
vn 0.5490 -0.5490 0.6302
usemtl None
s 1
f 1/1/1 2/2/2 3/3/3 4/4/4
f 2/5/2 5/6/5 6/7/6 3/8/3
f 5/6/5 7/9/7 8/10/8 6/7/6
f 7/11/7 9/12/9 10/13/10 8/14/8
f 9/12/9 11/15/11 12/16/12 10/13/10
f 11/17/11 13/18/13 14/19/14 12/20/12
f 3/21/3 6/22/6 8/23/8 10/24/10 12/25/12 14/26/14 15/27/15 4/28/4
f 13/18/13 16/29/16 15/30/15 14/19/14
f 16/31/16 1/1/1 4/4/4 15/32/15
f 1/33/1 16/34/16 13/35/13 11/36/11 9/37/9 7/38/7 5/39/5 2/40/2
f 17/41/17 18/42/18 20/43/19 19/44/20
f 24/45/21 23/46/22 27/47/23 28/48/24
f 23/46/22 24/45/21 22/49/25 21/50/26
f 21/51/26 22/52/25 18/53/18 17/54/17
f 19/55/20 23/56/22 21/57/26 17/58/17
f 24/59/21 20/60/19 18/61/18 22/62/25
f 28/48/24 27/47/23 31/63/27 32/64/28
f 23/56/22 19/55/20 26/65/29 27/66/23
f 20/60/19 24/59/21 28/67/24 25/68/30
f 19/44/20 20/43/19 25/69/30 26/70/29
f 31/71/27 30/72/31 34/73/32 35/74/33
f 27/66/23 26/65/29 30/72/31 31/71/27
f 25/68/30 28/67/24 32/75/28 29/76/34
f 26/70/29 25/69/30 29/77/34 30/78/31
f 33/79/35 36/80/36 40/81/37 37/82/38
f 29/76/34 32/75/28 36/80/36 33/79/35
f 30/78/31 29/77/34 33/83/35 34/84/32
f 32/64/28 31/63/27 35/85/33 36/86/36
f 40/87/37 39/88/39 43/89/40 44/90/41
f 34/84/32 33/83/35 37/91/38 38/92/42
f 36/86/36 35/85/33 39/93/39 40/87/37
f 35/74/33 34/73/32 38/94/42 39/95/39
f 42/96/43 41/97/44 44/90/41 43/89/40
f 39/95/39 38/94/42 42/98/43 43/99/40
f 37/82/38 40/81/37 44/100/41 41/101/44
f 38/102/42 37/103/38 41/97/44 42/96/43
f 45/104/1 46/105/2 47/106/3 48/107/4
f 46/108/2 49/109/5 50/110/6 47/111/3
f 49/109/5 51/112/7 52/113/8 50/110/6
f 51/114/7 53/115/9 54/116/10 52/117/8
f 53/115/9 55/118/11 56/119/12 54/116/10
f 55/120/11 57/121/13 58/122/14 56/123/12
f 47/124/3 50/125/6 52/126/8 54/127/10 56/128/12 58/129/14 59/130/15 48/131/4
f 57/121/13 60/132/16 59/133/15 58/122/14
f 60/134/16 45/104/1 48/107/4 59/135/15
f 45/136/1 60/137/16 57/138/13 55/139/11 53/140/9 51/141/7 49/142/5 46/143/2
f 61/144/45 62/145/46 63/146/47 64/147/48
f 62/148/46 65/149/49 66/150/50 63/151/47
f 65/149/49 67/152/51 68/153/52 66/150/50
f 67/154/51 69/155/53 70/156/54 68/157/52
f 69/155/53 71/158/55 72/159/56 70/156/54
f 71/160/55 73/161/57 74/162/58 72/163/56
f 63/164/47 66/165/50 68/166/52 70/167/54 72/168/56 74/169/58 75/170/59 64/171/48
f 73/161/57 76/172/60 75/173/59 74/162/58
f 76/174/60 61/144/45 64/147/48 75/175/59
f 61/176/45 76/177/60 73/178/57 71/179/55 69/180/53 67/181/51 65/182/49 62/183/46
f 77/184/1 78/185/2 79/186/3 80/187/4
f 78/188/2 81/189/5 82/190/6 79/191/3
f 81/189/5 83/192/7 84/193/8 82/190/6
f 83/194/7 85/195/9 86/196/10 84/197/8
f 85/195/9 87/198/11 88/199/12 86/196/10
f 87/200/11 89/201/13 90/202/14 88/203/12
f 79/204/3 82/205/6 84/206/8 86/207/10 88/208/12 90/209/14 91/210/15 80/211/4
f 89/201/13 92/212/16 91/213/15 90/202/14
f 92/214/16 77/184/1 80/187/4 91/215/15
f 77/216/1 92/217/16 89/218/13 87/219/11 85/220/9 83/221/7 81/222/5 78/223/2
