# Blender v2.79 (sub 0) OBJ File: 'Llave.blend'
# www.blender.org
mtllib Llave.mtl
o Cylinder_Cylinder.001
v 0.000000 -0.114706 1.790917
v 0.000000 -0.114706 -0.697009
v -0.081109 -0.081109 1.790917
v -0.081109 -0.081109 -0.697009
v -0.114706 -0.000000 1.790917
v -0.114706 0.000000 -0.697009
v -0.081109 0.081109 1.790917
v -0.081109 0.081109 -0.697009
v 0.000000 0.114706 1.790917
v 0.000000 0.114706 -0.697009
v 0.081109 0.081109 1.790917
v 0.081109 0.081109 -0.697009
v 0.114706 -0.000000 1.790917
v 0.114706 0.000000 -0.697009
v 0.081109 -0.081109 1.790917
v 0.081109 -0.081109 -0.697009
vn -0.3827 -0.9239 -0.0000
vn -0.9239 -0.3827 -0.0000
vn -0.9239 0.3827 0.0000
vn -0.3827 0.9239 0.0000
vn 0.3827 0.9239 0.0000
vn 0.9239 0.3827 0.0000
vn 0.0000 0.0000 -1.0000
vn 0.9239 -0.3827 -0.0000
vn 0.3827 -0.9239 -0.0000
vn -0.0000 0.0000 1.0000
usemtl None
s off
f 1//1 3//1 4//1 2//1
f 3//2 5//2 6//2 4//2
f 5//3 7//3 8//3 6//3
f 7//4 9//4 10//4 8//4
f 9//5 11//5 12//5 10//5
f 11//6 13//6 14//6 12//6
f 4//7 6//7 8//7 10//7 12//7 14//7 16//7 2//7
f 13//8 15//8 16//8 14//8
f 15//9 1//9 2//9 16//9
f 1//10 15//10 13//10 11//10 9//10 7//10 5//10 3//10
o Torus
v 0.707533 0.000000 -1.220480
v 0.636779 0.122548 -1.220480
v 0.495273 0.122548 -1.220480
v 0.424520 0.000000 -1.220480
v 0.495273 -0.122548 -1.220480
v 0.636779 -0.122548 -1.220480
v 0.612741 0.000000 -1.574246
v 0.551467 0.122548 -1.538870
v 0.428919 0.122548 -1.468116
v 0.367645 0.000000 -1.432740
v 0.428919 -0.122548 -1.468116
v 0.551467 -0.122548 -1.538870
v 0.353766 0.000000 -1.833221
v 0.318390 0.122548 -1.771947
v 0.247636 0.122548 -1.649399
v 0.212260 0.000000 -1.588125
v 0.247636 -0.122548 -1.649399
v 0.318390 -0.122548 -1.771947
v 0.000000 0.000000 -1.928013
v 0.000000 0.122548 -1.857259
v 0.000000 0.122548 -1.715753
v 0.000000 0.000000 -1.645000
v 0.000000 -0.122548 -1.715753
v 0.000000 -0.122548 -1.857259
v -0.353766 0.000000 -1.833221
v -0.318390 0.122548 -1.771947
v -0.247636 0.122548 -1.649399
v -0.212260 0.000000 -1.588125
v -0.247636 -0.122548 -1.649399
v -0.318390 -0.122548 -1.771947
v -0.612741 0.000000 -1.574246
v -0.551467 0.122548 -1.538870
v -0.428919 0.122548 -1.468117
v -0.367645 0.000000 -1.432740
v -0.428919 -0.122548 -1.468117
v -0.551467 -0.122548 -1.538870
v -0.707533 0.000000 -1.220480
v -0.636779 0.122548 -1.220480
v -0.495273 0.122548 -1.220480
v -0.424520 0.000000 -1.220480
v -0.495273 -0.122548 -1.220480
v -0.636779 -0.122548 -1.220480
v -0.612741 0.000000 -0.866714
v -0.551467 0.122548 -0.902090
v -0.428919 0.122548 -0.972844
v -0.367645 0.000000 -1.008220
v -0.428919 -0.122548 -0.972844
v -0.551467 -0.122548 -0.902090
v -0.353766 0.000000 -0.607739
v -0.318390 0.122548 -0.669013
v -0.247636 0.122548 -0.791561
v -0.212260 0.000000 -0.852835
v -0.247636 -0.122548 -0.791561
v -0.318390 -0.122548 -0.669013
v 0.000000 0.000000 -0.512947
v 0.000000 0.122548 -0.583701
v 0.000000 0.122548 -0.725207
v 0.000000 0.000000 -0.795960
v 0.000000 -0.122548 -0.725207
v 0.000000 -0.122548 -0.583701
v 0.353766 0.000000 -0.607739
v 0.318390 0.122548 -0.669013
v 0.247636 0.122548 -0.791561
v 0.212260 0.000000 -0.852835
v 0.247636 -0.122548 -0.791561
v 0.318390 -0.122548 -0.669013
v 0.612741 0.000000 -0.866714
v 0.551467 0.122548 -0.902090
v 0.428919 0.122548 -0.972843
v 0.367645 0.000000 -1.008220
v 0.428919 -0.122548 -0.972843
v 0.551467 -0.122548 -0.902090
vn 0.8436 0.4871 -0.2260
vn 0.0000 1.0000 0.0000
vn -0.8436 0.4871 0.2260
vn -0.8436 -0.4871 0.2260
vn 0.0000 -1.0000 0.0000
vn 0.8436 -0.4871 -0.2260
vn 0.6176 0.4871 -0.6176
vn -0.6176 0.4871 0.6176
vn -0.6176 -0.4871 0.6176
vn 0.6176 -0.4871 -0.6176
vn 0.2260 0.4871 -0.8436
vn -0.2260 0.4871 0.8436
vn -0.2260 -0.4871 0.8436
vn 0.2260 -0.4871 -0.8436
vn -0.2260 0.4871 -0.8436
vn 0.2260 0.4871 0.8436
vn 0.2260 -0.4871 0.8436
vn -0.2260 -0.4871 -0.8436
vn -0.6176 0.4871 -0.6176
vn 0.6176 0.4871 0.6176
vn 0.6176 -0.4871 0.6176
vn -0.6176 -0.4871 -0.6176
vn -0.8436 0.4871 -0.2260
vn 0.8436 0.4871 0.2260
vn 0.8436 -0.4871 0.2260
vn -0.8436 -0.4871 -0.2260
usemtl None
s off
f 17//11 23//11 24//11 18//11
f 18//12 24//12 25//12 19//12
f 19//13 25//13 26//13 20//13
f 20//14 26//14 27//14 21//14
f 21//15 27//15 28//15 22//15
f 22//16 28//16 23//16 17//16
f 23//17 29//17 30//17 24//17
f 24//12 30//12 31//12 25//12
f 25//18 31//18 32//18 26//18
f 26//19 32//19 33//19 27//19
f 27//15 33//15 34//15 28//15
f 28//20 34//20 29//20 23//20
f 29//21 35//21 36//21 30//21
f 30//12 36//12 37//12 31//12
f 31//22 37//22 38//22 32//22
f 32//23 38//23 39//23 33//23
f 33//15 39//15 40//15 34//15
f 34//24 40//24 35//24 29//24
f 35//25 41//25 42//25 36//25
f 36//12 42//12 43//12 37//12
f 37//26 43//26 44//26 38//26
f 38//27 44//27 45//27 39//27
f 39//15 45//15 46//15 40//15
f 40//28 46//28 41//28 35//28
f 41//29 47//29 48//29 42//29
f 42//12 48//12 49//12 43//12
f 43//30 49//30 50//30 44//30
f 44//31 50//31 51//31 45//31
f 45//15 51//15 52//15 46//15
f 46//32 52//32 47//32 41//32
f 47//33 53//33 54//33 48//33
f 48//12 54//12 55//12 49//12
f 49//34 55//34 56//34 50//34
f 50//35 56//35 57//35 51//35
f 51//15 57//15 58//15 52//15
f 52//36 58//36 53//36 47//36
f 53//13 59//13 60//13 54//13
f 54//12 60//12 61//12 55//12
f 55//11 61//11 62//11 56//11
f 56//16 62//16 63//16 57//16
f 57//15 63//15 64//15 58//15
f 58//14 64//14 59//14 53//14
f 59//18 65//18 66//18 60//18
f 60//12 66//12 67//12 61//12
f 61//17 67//17 68//17 62//17
f 62//20 68//20 69//20 63//20
f 63//15 69//15 70//15 64//15
f 64//19 70//19 65//19 59//19
f 65//22 71//22 72//22 66//22
f 66//12 72//12 73//12 67//12
f 67//21 73//21 74//21 68//21
f 68//24 74//24 75//24 69//24
f 69//15 75//15 76//15 70//15
f 70//23 76//23 71//23 65//23
f 71//26 77//26 78//26 72//26
f 72//12 78//12 79//12 73//12
f 73//25 79//25 80//25 74//25
f 74//28 80//28 81//28 75//28
f 75//15 81//15 82//15 76//15
f 76//27 82//27 77//27 71//27
f 77//30 83//30 84//30 78//30
f 78//12 84//12 85//12 79//12
f 79//29 85//29 86//29 80//29
f 80//32 86//32 87//32 81//32
f 81//15 87//15 88//15 82//15
f 82//31 88//31 83//31 77//31
f 83//34 17//34 18//34 84//34
f 84//12 18//12 19//12 85//12
f 85//33 19//33 20//33 86//33
f 86//36 20//36 21//36 87//36
f 87//15 21//15 22//15 88//15
f 88//35 22//35 17//35 83//35
o Cylinder.001_Cylinder.002
v 0.570244 -0.062718 1.613914
v 0.035144 -0.062718 1.613914
v 0.570244 -0.044348 1.658262
v 0.035144 -0.044348 1.658262
v 0.570244 -0.000000 1.676632
v 0.035144 0.000000 1.676632
v 0.570244 0.044348 1.658262
v 0.035144 0.044348 1.658262
v 0.570244 0.062718 1.613914
v 0.035144 0.062718 1.613914
v 0.570244 0.044348 1.569565
v 0.035144 0.044348 1.569565
v 0.570244 -0.000000 1.551196
v 0.035144 0.000000 1.551196
v 0.570244 -0.044348 1.569565
v 0.035144 -0.044348 1.569565
vn 0.0000 -0.9239 0.3827
vn 0.0000 -0.3827 0.9239
vn 0.0000 0.3827 0.9239
vn 0.0000 0.9239 0.3827
vn 0.0000 0.9239 -0.3827
vn 0.0000 0.3827 -0.9239
vn -1.0000 0.0000 0.0000
vn 0.0000 -0.3827 -0.9239
vn -0.0000 -0.9239 -0.3827
vn 1.0000 0.0000 0.0000
usemtl None
s off
f 89//37 91//37 92//37 90//37
f 91//38 93//38 94//38 92//38
f 93//39 95//39 96//39 94//39
f 95//40 97//40 98//40 96//40
f 97//41 99//41 100//41 98//41
f 99//42 101//42 102//42 100//42
f 92//43 94//43 96//43 98//43 100//43 102//43 104//43 90//43
f 101//44 103//44 104//44 102//44
f 103//45 89//45 90//45 104//45
f 89//46 103//46 101//46 99//46 97//46 95//46 93//46 91//46
o Cylinder.002_Cylinder.003
v 0.433628 -0.062718 1.360397
v 0.028908 -0.062718 1.360397
v 0.433628 -0.044348 1.404745
v 0.028908 -0.044348 1.404745
v 0.433628 -0.000000 1.423115
v 0.028908 0.000000 1.423115
v 0.433628 0.044348 1.404745
v 0.028908 0.044348 1.404745
v 0.433628 0.062718 1.360397
v 0.028908 0.062718 1.360397
v 0.433628 0.044348 1.316049
v 0.028908 0.044348 1.316049
v 0.433628 -0.000000 1.297679
v 0.028908 0.000000 1.297679
v 0.433628 -0.044348 1.316049
v 0.028908 -0.044348 1.316049
vn 0.0000 -0.9239 0.3827
vn 0.0000 -0.3827 0.9239
vn -0.0000 0.3827 0.9239
vn 0.0000 0.9239 0.3827
vn 0.0000 0.9239 -0.3827
vn 0.0000 0.3827 -0.9239
vn -1.0000 0.0000 0.0000
vn -0.0000 -0.3827 -0.9239
vn 0.0000 -0.9239 -0.3827
vn 1.0000 0.0000 0.0000
usemtl None
s off
f 105//47 107//47 108//47 106//47
f 107//48 109//48 110//48 108//48
f 109//49 111//49 112//49 110//49
f 111//50 113//50 114//50 112//50
f 113//51 115//51 116//51 114//51
f 115//52 117//52 118//52 116//52
f 108//53 110//53 112//53 114//53 116//53 118//53 120//53 106//53
f 117//54 119//54 120//54 118//54
f 119//55 105//55 106//55 120//55
f 105//56 119//56 117//56 115//56 113//56 111//56 109//56 107//56
o Cylinder.003_Cylinder.004
v 0.278499 -0.062718 1.102298
v 0.033778 -0.062718 1.102298
v 0.278499 -0.044348 1.146646
v 0.033778 -0.044348 1.146646
v 0.278499 -0.000000 1.165015
v 0.033778 0.000000 1.165015
v 0.278499 0.044348 1.146646
v 0.033778 0.044348 1.146646
v 0.278499 0.062718 1.102298
v 0.033778 0.062718 1.102298
v 0.278499 0.044348 1.057949
v 0.033778 0.044348 1.057949
v 0.278499 -0.000000 1.039580
v 0.033778 0.000000 1.039580
v 0.278499 -0.044348 1.057949
v 0.033778 -0.044348 1.057949
vn 0.0000 -0.9239 0.3827
vn 0.0000 -0.3827 0.9239
vn 0.0000 0.3827 0.9239
vn 0.0000 0.9239 0.3827
vn 0.0000 0.9239 -0.3827
vn 0.0000 0.3827 -0.9239
vn -1.0000 0.0000 0.0000
vn 0.0000 -0.3827 -0.9239
vn 0.0000 -0.9239 -0.3827
vn 1.0000 0.0000 0.0000
usemtl None
s off
f 121//57 123//57 124//57 122//57
f 123//58 125//58 126//58 124//58
f 125//59 127//59 128//59 126//59
f 127//60 129//60 130//60 128//60
f 129//61 131//61 132//61 130//61
f 131//62 133//62 134//62 132//62
f 124//63 126//63 128//63 130//63 132//63 134//63 136//63 122//63
f 133//64 135//64 136//64 134//64
f 135//65 121//65 122//65 136//65
f 121//66 135//66 133//66 131//66 129//66 127//66 125//66 123//66
