# Blender v2.77 (sub 0) OBJ File: ''
# www.blender.org
mtllib MarcoPuerta.mtl
o Cube.001
v 0.108834 -0.100000 -0.851580
v 0.108834 -0.100000 0.140252
v -0.108834 -0.100000 0.140252
v -0.108834 -0.100000 -0.851580
v 0.108834 1.403007 -0.851580
v 0.108834 1.403007 0.140252
v -0.108834 1.403007 0.140252
v -0.108834 1.403007 -0.851580
v 0.100000 -0.100000 -0.811328
v 0.100000 -0.100000 0.100000
v 0.100000 1.339429 -0.811328
v 0.100000 1.339429 0.100000
v -0.100000 -0.100000 0.100000
v -0.100000 -0.100000 -0.811328
v -0.100000 1.339429 0.100000
v -0.100000 1.339429 -0.811328
vn 0.0000 1.0000 0.0000
vn -0.9768 -0.0000 -0.2144
vn -0.0000 -0.0000 1.0000
vn 0.9905 -0.1376 0.0000
vn 0.0000 0.0000 -1.0000
vn 0.0000 -1.0000 -0.0000
vn 0.9768 0.0000 -0.2144
vn 0.9768 -0.0000 0.2144
vn -0.9905 -0.1376 -0.0000
vn -0.9768 -0.0000 0.2144
usemtl Material
s off
f 5//1 8//1 7//1
f 5//1 7//1 6//1
f 3//2 7//2 15//2
f 3//2 15//2 13//2
f 2//3 6//3 7//3
f 2//3 7//3 3//3
f 5//4 6//4 12//4
f 5//4 12//4 11//4
f 5//5 1//5 4//5
f 5//5 4//5 8//5
f 12//6 15//6 16//6
f 12//6 16//6 11//6
f 10//5 13//5 15//5
f 10//5 15//5 12//5
f 6//7 2//7 10//7
f 6//7 10//7 12//7
f 1//8 5//8 11//8
f 1//8 11//8 9//8
f 7//9 8//9 16//9
f 7//9 16//9 15//9
f 3//6 13//6 10//6
f 3//6 10//6 2//6
f 8//10 4//10 14//10
f 8//10 14//10 16//10
f 11//3 16//3 14//3
f 11//3 14//3 9//3
f 1//6 9//6 14//6
f 1//6 14//6 4//6
