# Blender v2.79 (sub 0) OBJ File: ''
# www.blender.org
mtllib Onda.mtl
o Torus
v 1.250000 0.000000 0.000000
v 1.125000 -0.000000 0.216506
v 0.875000 -0.000000 0.216506
v 0.750000 -0.000000 0.000000
v 0.875000 0.000000 -0.216506
v 1.125000 0.000000 -0.216506
v 1.165590 0.451552 0.000000
v 1.049031 0.406397 0.216506
v 0.815913 0.316086 0.216506
v 0.699354 0.270931 0.000000
v 0.815913 0.316086 -0.216506
v 1.049031 0.406397 -0.216506
v 0.923761 0.842120 0.000000
v 0.831385 0.757908 0.216506
v 0.646633 0.589484 0.216506
v 0.554257 0.505272 0.000000
v 0.646633 0.589484 -0.216506
v 0.831385 0.757908 -0.216506
v 0.557173 1.118954 0.000000
v 0.501456 1.007059 0.216506
v 0.390021 0.783268 0.216506
v 0.334304 0.671372 0.000000
v 0.390021 0.783268 -0.216506
v 0.501456 1.007059 -0.216506
v 0.115335 1.244668 0.000000
v 0.103802 1.120201 0.216506
v 0.080735 0.871267 0.216506
v 0.069201 0.746801 0.000000
v 0.080735 0.871267 -0.216506
v 0.103802 1.120201 -0.216506
v -0.342079 1.202282 0.000000
v -0.307871 1.082054 0.216506
v -0.239455 0.841597 0.216506
v -0.205247 0.721369 0.000000
v -0.239455 0.841597 -0.216506
v -0.307871 1.082054 -0.216506
v -0.753293 0.997522 0.000000
v -0.677964 0.897769 0.216506
v -0.527305 0.698265 0.216506
v -0.451976 0.598513 0.000000
v -0.527305 0.698265 -0.216506
v -0.677964 0.897769 -0.216506
v -1.062771 0.658040 0.000000
v -0.956494 0.592236 0.216506
v -0.743940 0.460628 0.216506
v -0.637663 0.394824 0.000000
v -0.743940 0.460628 -0.216506
v -0.956494 0.592236 -0.216506
v -1.228716 0.229687 0.000000
v -1.105845 0.206718 0.216506
v -0.860101 0.160781 0.216506
v -0.737230 0.137812 0.000000
v -0.860101 0.160781 -0.216506
v -1.105845 0.206718 -0.216506
v -1.228716 -0.229687 -0.000000
v -1.105845 -0.206718 0.216506
v -0.860101 -0.160781 0.216506
v -0.737230 -0.137812 -0.000000
v -0.860101 -0.160781 -0.216506
v -1.105845 -0.206718 -0.216506
v -1.062772 -0.658040 -0.000000
v -0.956494 -0.592236 0.216506
v -0.743940 -0.460628 0.216506
v -0.637663 -0.394824 -0.000000
v -0.743940 -0.460628 -0.216506
v -0.956494 -0.592236 -0.216506
v -0.753294 -0.997521 -0.000000
v -0.677964 -0.897769 0.216506
v -0.527306 -0.698265 0.216506
v -0.451976 -0.598513 -0.000000
v -0.527306 -0.698265 -0.216506
v -0.677964 -0.897769 -0.216506
v -0.342079 -1.202282 -0.000000
v -0.307871 -1.082054 0.216506
v -0.239455 -0.841597 0.216506
v -0.205247 -0.721369 -0.000000
v -0.239455 -0.841597 -0.216506
v -0.307871 -1.082054 -0.216506
v 0.115335 -1.244668 -0.000000
v 0.103802 -1.120201 0.216506
v 0.080735 -0.871267 0.216506
v 0.069201 -0.746801 -0.000000
v 0.080735 -0.871267 -0.216506
v 0.103802 -1.120201 -0.216506
v 0.557173 -1.118954 -0.000000
v 0.501456 -1.007059 0.216506
v 0.390021 -0.783268 0.216506
v 0.334304 -0.671372 -0.000000
v 0.390021 -0.783268 -0.216506
v 0.501456 -1.007059 -0.216506
v 0.923761 -0.842120 -0.000000
v 0.831385 -0.757908 0.216506
v 0.646632 -0.589484 0.216506
v 0.554256 -0.505272 -0.000000
v 0.646632 -0.589484 -0.216506
v 0.831385 -0.757908 -0.216506
v 1.165590 -0.451553 -0.000000
v 1.049031 -0.406397 0.216506
v 0.815913 -0.316087 0.216506
v 0.699354 -0.270932 -0.000000
v 0.815913 -0.316087 -0.216506
v 1.049031 -0.406397 -0.216506
vn 1.0000 0.0000 0.0000
vn 0.9325 0.3612 0.0000
vn 0.5050 0.1956 0.8407
vn 0.5415 0.0000 0.8407
vn -0.4227 -0.1638 0.8913
vn -0.4534 0.0000 0.8913
vn -0.9325 -0.3612 0.0000
vn -1.0000 0.0000 0.0000
vn -0.4227 -0.1638 -0.8913
vn -0.4534 0.0000 -0.8913
vn 0.5050 0.1956 -0.8407
vn 0.5415 0.0000 -0.8407
vn 0.7390 0.6737 0.0000
vn 0.4002 0.3648 0.8407
vn -0.3350 -0.3054 0.8913
vn -0.7390 -0.6737 0.0000
vn -0.3350 -0.3054 -0.8913
vn 0.4002 0.3648 -0.8407
vn 0.4457 0.8951 0.0000
vn 0.2414 0.4848 0.8407
vn -0.2021 -0.4058 0.8913
vn -0.4457 -0.8951 0.0000
vn -0.2021 -0.4058 -0.8913
vn 0.2414 0.4848 -0.8407
vn 0.0923 0.9957 0.0000
vn 0.0500 0.5392 0.8407
vn -0.0418 -0.4514 0.8913
vn -0.0923 -0.9957 0.0000
vn -0.0418 -0.4514 -0.8913
vn 0.0500 0.5392 -0.8407
vn -0.2737 0.9618 0.0000
vn -0.1482 0.5209 0.8407
vn 0.1241 -0.4360 0.8913
vn 0.2737 -0.9618 0.0000
vn 0.1241 -0.4360 -0.8913
vn -0.1482 0.5209 -0.8407
vn -0.6026 0.7980 0.0000
vn -0.3263 0.4321 0.8407
vn 0.2732 -0.3618 0.8913
vn 0.6026 -0.7980 0.0000
vn 0.2732 -0.3618 -0.8913
vn -0.3263 0.4321 -0.8407
vn -0.8502 0.5264 0.0000
vn -0.4604 0.2851 0.8407
vn 0.3854 -0.2387 0.8913
vn 0.8502 -0.5264 0.0000
vn 0.3854 -0.2387 -0.8913
vn -0.4604 0.2851 -0.8407
vn -0.9830 0.1837 0.0000
vn -0.5323 0.0995 0.8407
vn 0.4456 -0.0833 0.8913
vn 0.9830 -0.1837 0.0000
vn 0.4456 -0.0833 -0.8913
vn -0.5323 0.0995 -0.8407
vn -0.9830 -0.1837 0.0000
vn -0.5323 -0.0995 0.8407
vn 0.4456 0.0833 0.8913
vn 0.9830 0.1837 0.0000
vn 0.4456 0.0833 -0.8913
vn -0.5323 -0.0995 -0.8407
vn -0.8502 -0.5264 0.0000
vn -0.4604 -0.2851 0.8407
vn 0.3854 0.2387 0.8913
vn 0.8502 0.5264 0.0000
vn 0.3854 0.2387 -0.8913
vn -0.4604 -0.2851 -0.8407
vn -0.6026 -0.7980 0.0000
vn -0.3263 -0.4321 0.8407
vn 0.2732 0.3618 0.8913
vn 0.6026 0.7980 0.0000
vn 0.2732 0.3618 -0.8913
vn -0.3263 -0.4321 -0.8407
vn -0.2737 -0.9618 0.0000
vn -0.1482 -0.5209 0.8407
vn 0.1241 0.4360 0.8913
vn 0.2737 0.9618 0.0000
vn 0.1241 0.4360 -0.8913
vn -0.1482 -0.5209 -0.8407
vn 0.0923 -0.9957 0.0000
vn 0.0500 -0.5392 0.8407
vn -0.0418 0.4514 0.8913
vn -0.0923 0.9957 0.0000
vn -0.0418 0.4514 -0.8913
vn 0.0500 -0.5392 -0.8407
vn 0.4457 -0.8951 0.0000
vn 0.2414 -0.4848 0.8407
vn -0.2021 0.4058 0.8913
vn -0.4457 0.8951 0.0000
vn -0.2021 0.4058 -0.8913
vn 0.2414 -0.4848 -0.8407
vn 0.7390 -0.6737 0.0000
vn 0.4002 -0.3648 0.8407
vn -0.3350 0.3054 0.8913
vn -0.7390 0.6737 0.0000
vn -0.3350 0.3054 -0.8913
vn 0.4002 -0.3648 -0.8407
vn 0.9325 -0.3612 0.0000
vn 0.5050 -0.1956 0.8407
vn -0.4227 0.1638 0.8913
vn -0.9325 0.3612 0.0000
vn -0.4227 0.1638 -0.8913
vn 0.5050 -0.1956 -0.8407
usemtl None
s 1
f 1//1 7//2 8//3 2//4
f 2//4 8//3 9//5 3//6
f 3//6 9//5 10//7 4//8
f 4//8 10//7 11//9 5//10
f 5//10 11//9 12//11 6//12
f 6//12 12//11 7//2 1//1
f 7//2 13//13 14//14 8//3
f 8//3 14//14 15//15 9//5
f 9//5 15//15 16//16 10//7
f 10//7 16//16 17//17 11//9
f 11//9 17//17 18//18 12//11
f 12//11 18//18 13//13 7//2
f 13//13 19//19 20//20 14//14
f 14//14 20//20 21//21 15//15
f 15//15 21//21 22//22 16//16
f 16//16 22//22 23//23 17//17
f 17//17 23//23 24//24 18//18
f 18//18 24//24 19//19 13//13
f 19//19 25//25 26//26 20//20
f 20//20 26//26 27//27 21//21
f 21//21 27//27 28//28 22//22
f 22//22 28//28 29//29 23//23
f 23//23 29//29 30//30 24//24
f 24//24 30//30 25//25 19//19
f 25//25 31//31 32//32 26//26
f 26//26 32//32 33//33 27//27
f 27//27 33//33 34//34 28//28
f 28//28 34//34 35//35 29//29
f 29//29 35//35 36//36 30//30
f 30//30 36//36 31//31 25//25
f 31//31 37//37 38//38 32//32
f 32//32 38//38 39//39 33//33
f 33//33 39//39 40//40 34//34
f 34//34 40//40 41//41 35//35
f 35//35 41//41 42//42 36//36
f 36//36 42//42 37//37 31//31
f 37//37 43//43 44//44 38//38
f 38//38 44//44 45//45 39//39
f 39//39 45//45 46//46 40//40
f 40//40 46//46 47//47 41//41
f 41//41 47//47 48//48 42//42
f 42//42 48//48 43//43 37//37
f 43//43 49//49 50//50 44//44
f 44//44 50//50 51//51 45//45
f 45//45 51//51 52//52 46//46
f 46//46 52//52 53//53 47//47
f 47//47 53//53 54//54 48//48
f 48//48 54//54 49//49 43//43
f 49//49 55//55 56//56 50//50
f 50//50 56//56 57//57 51//51
f 51//51 57//57 58//58 52//52
f 52//52 58//58 59//59 53//53
f 53//53 59//59 60//60 54//54
f 54//54 60//60 55//55 49//49
f 55//55 61//61 62//62 56//56
f 56//56 62//62 63//63 57//57
f 57//57 63//63 64//64 58//58
f 58//58 64//64 65//65 59//59
f 59//59 65//65 66//66 60//60
f 60//60 66//66 61//61 55//55
f 61//61 67//67 68//68 62//62
f 62//62 68//68 69//69 63//63
f 63//63 69//69 70//70 64//64
f 64//64 70//70 71//71 65//65
f 65//65 71//71 72//72 66//66
f 66//66 72//72 67//67 61//61
f 67//67 73//73 74//74 68//68
f 68//68 74//74 75//75 69//69
f 69//69 75//75 76//76 70//70
f 70//70 76//76 77//77 71//71
f 71//71 77//77 78//78 72//72
f 72//72 78//78 73//73 67//67
f 73//73 79//79 80//80 74//74
f 74//74 80//80 81//81 75//75
f 75//75 81//81 82//82 76//76
f 76//76 82//82 83//83 77//77
f 77//77 83//83 84//84 78//78
f 78//78 84//84 79//79 73//73
f 79//79 85//85 86//86 80//80
f 80//80 86//86 87//87 81//81
f 81//81 87//87 88//88 82//82
f 82//82 88//88 89//89 83//83
f 83//83 89//89 90//90 84//84
f 84//84 90//90 85//85 79//79
f 85//85 91//91 92//92 86//86
f 86//86 92//92 93//93 87//87
f 87//87 93//93 94//94 88//88
f 88//88 94//94 95//95 89//89
f 89//89 95//95 96//96 90//90
f 90//90 96//96 91//91 85//85
f 91//91 97//97 98//98 92//92
f 92//92 98//98 99//99 93//93
f 93//93 99//99 100//100 94//94
f 94//94 100//100 101//101 95//95
f 95//95 101//101 102//102 96//96
f 96//96 102//102 97//97 91//91
f 97//97 1//1 2//4 98//98
f 98//98 2//4 3//6 99//99
f 99//99 3//6 4//8 100//100
f 100//100 4//8 5//10 101//101
f 101//101 5//10 6//12 102//102
f 102//102 6//12 1//1 97//97
