# Blender v2.79 (sub 0) OBJ File: 'Interruptor.blend'
# www.blender.org
mtllib Palanca.mtl
o Cube
v -1.957787 4.881822 -0.315199
v -1.957787 4.881822 0.309496
v -2.523952 4.617814 0.309496
v -2.523952 4.617814 -0.315199
v 0.130143 0.339723 -0.315199
v 0.130143 0.339723 0.309496
v -0.436023 0.075715 0.309496
v -0.436023 0.075715 -0.315199
vn -0.4226 0.9063 0.0000
vn 0.4226 -0.9063 0.0000
vn 0.9086 0.4177 0.0000
vn -0.0000 -0.0000 1.0000
vn -0.9086 -0.4177 0.0000
vn 0.0000 0.0000 -1.0000
usemtl Material
s off
f 1//1 4//1 3//1 2//1
f 5//2 6//2 7//2 8//2
f 1//3 2//3 6//3 5//3
f 2//4 3//4 7//4 6//4
f 3//5 4//5 8//5 7//5
f 5//6 8//6 4//6 1//6
