# Blender v2.79 (sub 0) OBJ File: ''
# www.blender.org
mtllib paredes_del.mtl
o Cube.001_Cube.003
v -22.884321 0.046457 1.822745
v -22.884321 8.819153 1.822746
v -19.123922 8.819153 -1.937653
v -19.123922 0.046457 -1.937654
v 18.136309 8.819153 -1.937653
v 18.136309 0.046457 -1.937654
v 21.896708 8.819153 1.822746
v 21.896708 0.046457 1.822745
v 18.136309 8.819153 -1.937653
v 18.136309 0.046457 -1.937654
v -13.928115 8.819153 1.822746
v -4.971910 8.819153 1.822746
v 3.984297 8.819153 1.822746
v 12.940502 8.819153 1.822746
v -13.928115 0.046457 1.822745
v -4.971910 0.046457 1.822745
v 3.984297 0.046457 1.822745
v 12.940502 0.046457 1.822745
v -11.671876 0.046457 -1.937654
v -4.219830 0.046457 -1.937654
v 3.232217 0.046457 -1.937654
v 10.684263 0.046457 -1.937654
v -11.671876 8.819153 -1.937653
v -4.219830 8.819153 -1.937653
v 3.232217 8.819153 -1.937653
v 10.684263 8.819153 -1.937653
v 18.136309 6.625979 -1.937653
v 18.136309 4.432806 -1.937653
v 18.136309 2.239631 -1.937654
v -22.884321 2.239631 1.822745
v -22.884321 4.432805 1.822746
v -22.884321 6.625978 1.822746
v 21.896708 6.625978 1.822746
v 21.896708 4.432805 1.822746
v 21.896708 2.239631 1.822745
v -19.123922 6.625979 -1.937653
v -19.123922 4.432806 -1.937653
v -19.123922 2.239631 -1.937654
v 12.940502 6.625978 1.822746
v 12.940502 4.432805 1.822746
v 12.940502 2.239631 1.822745
v 3.984297 6.625978 1.822746
v 3.984297 4.432805 1.822746
v 3.984297 2.239631 1.822745
v -4.971910 6.625978 1.822746
v -4.971910 4.432805 1.822746
v -4.971910 2.239631 1.822745
v -13.928115 6.625978 1.822746
v -13.928115 4.432805 1.822746
v -13.928115 2.239631 1.822745
v -11.671876 6.625979 -1.937653
v -11.671876 4.432806 -1.937653
v -11.671876 2.239631 -1.937654
v -4.219830 6.625979 -1.937653
v -4.219830 4.432806 -1.937653
v -4.219830 2.239631 -1.937654
v 3.232217 6.625979 -1.937653
v 3.232217 4.432806 -1.937653
v 3.232217 2.239631 -1.937654
v 10.684263 6.625979 -1.937653
v 10.684263 4.432806 -1.937653
v 10.684263 2.239631 -1.937654
v 17.418606 8.819153 1.822746
v 17.418606 0.046457 1.822745
v 14.410286 0.046457 -1.937654
v 14.410286 8.819153 -1.937653
v 17.418606 2.239631 1.822745
v 17.418606 4.432805 1.822746
v 17.418606 6.625978 1.822746
v 14.410286 2.239631 -1.937654
v 14.410286 4.432806 -1.937653
v 14.410286 6.625979 -1.937653
v 8.462399 8.819153 1.822746
v 8.462399 0.046457 1.822745
v 6.958240 0.046457 -1.937654
v 6.958240 8.819153 -1.937653
v 6.958240 2.239631 -1.937654
v 6.958240 4.432806 -1.937653
v 6.958240 6.625979 -1.937653
v 8.462399 2.239631 1.822745
v 8.462399 4.432805 1.822746
v 8.462399 6.625978 1.822746
v -0.493806 8.819153 1.822746
v -0.493806 0.046457 1.822745
v -0.493806 0.046457 -1.937654
v -0.493806 8.819153 -1.937653
v -0.493806 2.239631 -1.937654
v -0.493806 4.432806 -1.937653
v -0.493806 6.625979 -1.937653
v -0.493806 2.239631 1.822745
v -0.493806 4.432805 1.822746
v -0.493806 6.625978 1.822746
v -9.450012 8.819153 1.822746
v -9.450012 0.046457 1.822745
v -7.945853 0.046457 -1.937654
v -7.945853 8.819153 -1.937653
v -7.945853 2.239631 -1.937654
v -7.945853 4.432806 -1.937653
v -7.945853 6.625979 -1.937653
v -9.450012 2.239631 1.822745
v -9.450012 4.432805 1.822746
v -9.450012 6.625978 1.822746
v -18.406218 8.819153 1.822746
v -18.406218 0.046457 1.822745
v -15.397900 0.046457 -1.937654
v -15.397900 8.819153 -1.937653
v -15.397900 2.239631 -1.937654
v -15.397900 4.432806 -1.937653
v -15.397900 6.625979 -1.937653
v -18.406218 2.239631 1.822745
v -18.406218 4.432805 1.822746
v -18.406218 6.625978 1.822746
vn -0.7071 0.0000 -0.7071
vn 0.0000 0.0000 -1.0000
vn 0.7071 0.0000 -0.7071
vn 0.0000 -0.0000 1.0000
vn 0.0000 -1.0000 -0.0000
vn 0.0000 1.0000 0.0000
usemtl None
s 1
f 32//1 2//1 3//1 36//1
f 72//2 66//2 5//2 27//2
f 27//3 5//3 7//3 33//3
f 112//4 103//4 2//4 32//4
f 65//5 6//5 8//5 64//5
f 106//6 3//6 2//6 103//6
f 66//6 26//6 14//6 63//6
f 76//6 25//6 13//6 73//6
f 86//6 24//6 12//6 83//6
f 96//6 23//6 11//6 93//6
f 105//5 19//5 15//5 104//5
f 95//5 20//5 16//5 94//5
f 85//5 21//5 17//5 84//5
f 75//5 22//5 18//5 74//5
f 69//4 63//4 14//4 39//4
f 82//4 73//4 13//4 42//4
f 92//4 83//4 12//4 45//4
f 102//4 93//4 11//4 48//4
f 109//2 106//2 23//2 51//2
f 99//2 96//2 24//2 54//2
f 89//2 86//2 25//2 57//2
f 79//2 76//2 26//2 60//2
f 75//2 77//2 62//2 22//2
f 77//2 78//2 61//2 62//2
f 78//2 79//2 60//2 61//2
f 85//2 87//2 59//2 21//2
f 87//2 88//2 58//2 59//2
f 88//2 89//2 57//2 58//2
f 95//2 97//2 56//2 20//2
f 97//2 98//2 55//2 56//2
f 98//2 99//2 54//2 55//2
f 105//2 107//2 53//2 19//2
f 107//2 108//2 52//2 53//2
f 108//2 109//2 51//2 52//2
f 94//4 100//4 50//4 15//4
f 100//4 101//4 49//4 50//4
f 101//4 102//4 48//4 49//4
f 84//4 90//4 47//4 16//4
f 90//4 91//4 46//4 47//4
f 91//4 92//4 45//4 46//4
f 74//4 80//4 44//4 17//4
f 80//4 81//4 43//4 44//4
f 81//4 82//4 42//4 43//4
f 64//4 67//4 41//4 18//4
f 67//4 68//4 40//4 41//4
f 68//4 69//4 39//4 40//4
f 104//4 110//4 30//4 1//4
f 110//4 111//4 31//4 30//4
f 111//4 112//4 32//4 31//4
f 6//3 29//3 35//3 8//3
f 29//3 28//3 34//3 35//3
f 28//3 27//3 33//3 34//3
f 65//2 70//2 29//2 6//2
f 70//2 71//2 28//2 29//2
f 71//2 72//2 27//2 28//2
f 1//1 30//1 38//1 4//1
f 30//1 31//1 37//1 38//1
f 31//1 32//1 36//1 37//1
f 61//2 60//2 72//2 71//2
f 62//2 61//2 71//2 70//2
f 22//2 62//2 70//2 65//2
f 34//4 33//4 69//4 68//4
f 35//4 34//4 68//4 67//4
f 8//4 35//4 67//4 64//4
f 33//4 7//4 63//4 69//4
f 5//6 66//6 63//6 7//6
f 22//5 65//5 64//5 18//5
f 60//2 26//2 66//2 72//2
f 40//4 39//4 82//4 81//4
f 41//4 40//4 81//4 80//4
f 18//4 41//4 80//4 74//4
f 58//2 57//2 79//2 78//2
f 59//2 58//2 78//2 77//2
f 21//2 59//2 77//2 75//2
f 57//2 25//2 76//2 79//2
f 39//4 14//4 73//4 82//4
f 21//5 75//5 74//5 17//5
f 26//6 76//6 73//6 14//6
f 43//4 42//4 92//4 91//4
f 44//4 43//4 91//4 90//4
f 17//4 44//4 90//4 84//4
f 55//2 54//2 89//2 88//2
f 56//2 55//2 88//2 87//2
f 20//2 56//2 87//2 85//2
f 54//2 24//2 86//2 89//2
f 42//4 13//4 83//4 92//4
f 20//5 85//5 84//5 16//5
f 25//6 86//6 83//6 13//6
f 46//4 45//4 102//4 101//4
f 47//4 46//4 101//4 100//4
f 16//4 47//4 100//4 94//4
f 52//2 51//2 99//2 98//2
f 53//2 52//2 98//2 97//2
f 19//2 53//2 97//2 95//2
f 51//2 23//2 96//2 99//2
f 45//4 12//4 93//4 102//4
f 19//5 95//5 94//5 15//5
f 24//6 96//6 93//6 12//6
f 49//4 48//4 112//4 111//4
f 50//4 49//4 111//4 110//4
f 15//4 50//4 110//4 104//4
f 37//2 36//2 109//2 108//2
f 38//2 37//2 108//2 107//2
f 4//2 38//2 107//2 105//2
f 36//2 3//2 106//2 109//2
f 4//5 105//5 104//5 1//5
f 23//6 106//6 103//6 11//6
f 48//4 11//4 103//4 112//4
l 9 10
