# Blender v2.79 (sub 0) OBJ File: 'paredes.blend'
# www.blender.org
mtllib paredes_der.mtl
o Cube.002_Cube.004
v -1.822751 0.046456 -22.683052
v -1.822751 8.819153 -22.683052
v 1.937649 0.046456 -18.922651
v 1.937649 8.819153 -18.922651
v -1.822742 0.046456 22.097977
v -1.822742 8.819153 22.097977
v 1.937656 0.046456 18.337580
v 1.937656 8.819153 18.337580
vn 0.7071 0.0000 -0.7071
vn 1.0000 0.0000 -0.0000
vn 0.7071 0.0000 0.7071
vn -1.0000 0.0000 0.0000
vn 0.0000 -1.0000 -0.0000
vn 0.0000 1.0000 0.0000
usemtl None
s off
f 1//1 2//1 4//1 3//1
f 3//2 4//2 8//2 7//2
f 7//3 8//3 6//3 5//3
f 5//4 6//4 2//4 1//4
f 3//5 7//5 5//5 1//5
f 8//6 4//6 2//6 6//6
