# Blender v2.79 (sub 0) OBJ File: ''
# www.blender.org
mtllib paredes_izq.mtl
o Cube_Cube.001
v 1.822746 0.046453 22.097979
v 1.822746 8.819149 22.097980
v -1.937653 8.819150 18.337582
v -1.937653 0.046454 18.337580
v -1.937655 8.819156 -18.922651
v -1.937655 0.046460 -18.922653
v 1.822744 8.819157 -22.683048
v 1.822744 0.046461 -22.683050
v 1.822746 8.819151 13.141774
v 1.822745 8.819152 4.185568
v 1.822745 8.819154 -4.770638
v 1.822744 8.819155 -13.726843
v 1.822746 0.046455 13.141772
v 1.822745 0.046456 4.185567
v 1.822745 0.046458 -4.770639
v 1.822744 0.046459 -13.726845
v -1.937653 0.046455 10.885533
v -1.937654 0.046456 3.433487
v -1.937654 0.046458 -4.018560
v -1.937654 0.046459 -11.470606
v -1.937653 8.819151 10.885535
v -1.937654 8.819152 3.433488
v -1.937654 8.819154 -4.018559
v -1.937654 8.819155 -11.470604
v -1.937655 6.625982 -18.922651
v -1.937655 4.432808 -18.922653
v -1.937655 2.239634 -18.922653
v 1.822744 6.625983 -22.683048
v 1.822744 4.432809 -22.683050
v 1.822744 2.239635 -22.683050
v 1.822746 2.239627 22.097979
v 1.822746 4.432801 22.097979
v 1.822746 6.625975 22.097980
v -1.937653 6.625976 18.337582
v -1.937653 4.432802 18.337580
v -1.937653 2.239628 18.337580
v 1.822744 6.625981 -13.726844
v 1.822744 4.432807 -13.726844
v 1.822744 2.239633 -13.726845
v 1.822745 6.625980 -4.770638
v 1.822745 4.432806 -4.770638
v 1.822745 2.239632 -4.770639
v 1.822745 6.625978 4.185568
v 1.822745 4.432805 4.185568
v 1.822745 2.239630 4.185567
v 1.822746 6.625977 13.141773
v 1.822746 4.432803 13.141773
v 1.822746 2.239629 13.141772
v -1.937653 6.625977 10.885534
v -1.937653 4.432803 10.885534
v -1.937653 2.239629 10.885533
v -1.937654 6.625978 3.433488
v -1.937654 4.432805 3.433488
v -1.937654 2.239630 3.433487
v -1.937654 6.625979 -4.018559
v -1.937654 4.432806 -4.018559
v -1.937654 2.239632 -4.018559
v -1.937654 6.625981 -11.470605
v -1.937654 4.432807 -11.470605
v -1.937654 2.239633 -11.470606
v 1.822746 8.819150 17.619877
v 1.822746 0.046454 17.619875
v -1.937653 0.046455 14.611557
v -1.937653 8.819151 14.611559
v -1.937653 2.239629 14.611557
v -1.937653 4.432803 14.611558
v -1.937653 6.625977 14.611558
v 1.822746 2.239628 17.619875
v 1.822746 4.432802 17.619875
v 1.822746 6.625976 17.619877
v 1.822746 8.819152 8.663671
v 1.822746 0.046456 8.663670
v -1.937654 0.046456 7.159510
v -1.937654 8.819152 7.159512
v -1.937654 2.239630 7.159511
v -1.937654 4.432804 7.159511
v -1.937654 6.625978 7.159511
v 1.822746 2.239630 8.663670
v 1.822746 4.432804 8.663671
v 1.822746 6.625978 8.663671
v 1.822745 8.819153 -0.292535
v 1.822745 0.046457 -0.292536
v -1.937654 0.046457 -0.292536
v -1.937654 8.819153 -0.292535
v -1.937654 2.239631 -0.292536
v -1.937654 4.432805 -0.292536
v -1.937654 6.625979 -0.292535
v 1.822745 2.239631 -0.292536
v 1.822745 4.432805 -0.292536
v 1.822745 6.625979 -0.292535
v 1.822745 8.819155 -9.248740
v 1.822745 0.046459 -9.248742
v -1.937654 0.046458 -7.744583
v -1.937654 8.819154 -7.744582
v -1.937654 2.239632 -7.744583
v -1.937654 4.432806 -7.744582
v -1.937654 6.625980 -7.744582
v 1.822745 2.239632 -9.248742
v 1.822745 4.432806 -9.248741
v 1.822745 6.625980 -9.248741
v 1.822744 8.819156 -18.204947
v 1.822744 0.046460 -18.204948
v -1.937655 0.046459 -15.196630
v -1.937655 8.819156 -15.196628
v 1.822744 2.239634 -18.204948
v 1.822744 4.432808 -18.204948
v 1.822744 6.625982 -18.204947
v -1.937655 2.239633 -15.196630
v -1.937655 4.432807 -15.196629
v -1.937655 6.625981 -15.196629
vn -0.7071 -0.0000 0.7071
vn -1.0000 0.0000 0.0000
vn -0.7071 0.0000 -0.7071
vn 1.0000 -0.0000 -0.0000
vn -0.0000 -1.0000 -0.0000
vn 0.0000 1.0000 0.0000
usemtl None.002
s 1
f 33//1 2//1 3//1 34//1
f 110//2 104//2 5//2 25//2
f 25//3 5//3 7//3 28//3
f 70//4 61//4 2//4 33//4
f 103//5 6//5 8//5 102//5
f 64//6 3//6 2//6 61//6
f 104//6 24//6 12//6 101//6
f 94//6 23//6 11//6 91//6
f 84//6 22//6 10//6 81//6
f 74//6 21//6 9//6 71//6
f 63//5 17//5 13//5 62//5
f 73//5 18//5 14//5 72//5
f 83//5 19//5 15//5 82//5
f 93//5 20//5 16//5 92//5
f 107//4 101//4 12//4 37//4
f 100//4 91//4 11//4 40//4
f 90//4 81//4 10//4 43//4
f 80//4 71//4 9//4 46//4
f 67//2 64//2 21//2 49//2
f 77//2 74//2 22//2 52//2
f 87//2 84//2 23//2 55//2
f 97//2 94//2 24//2 58//2
f 93//2 95//2 60//2 20//2
f 95//2 96//2 59//2 60//2
f 96//2 97//2 58//2 59//2
f 83//2 85//2 57//2 19//2
f 85//2 86//2 56//2 57//2
f 86//2 87//2 55//2 56//2
f 73//2 75//2 54//2 18//2
f 75//2 76//2 53//2 54//2
f 76//2 77//2 52//2 53//2
f 63//2 65//2 51//2 17//2
f 65//2 66//2 50//2 51//2
f 66//2 67//2 49//2 50//2
f 72//4 78//4 48//4 13//4
f 78//4 79//4 47//4 48//4
f 79//4 80//4 46//4 47//4
f 82//4 88//4 45//4 14//4
f 88//4 89//4 44//4 45//4
f 89//4 90//4 43//4 44//4
f 92//4 98//4 42//4 15//4
f 98//4 99//4 41//4 42//4
f 99//4 100//4 40//4 41//4
f 102//4 105//4 39//4 16//4
f 105//4 106//4 38//4 39//4
f 106//4 107//4 37//4 38//4
f 62//4 68//4 31//4 1//4
f 68//4 69//4 32//4 31//4
f 69//4 70//4 33//4 32//4
f 6//3 27//3 30//3 8//3
f 27//3 26//3 29//3 30//3
f 26//3 25//3 28//3 29//3
f 103//2 108//2 27//2 6//2
f 108//2 109//2 26//2 27//2
f 109//2 110//2 25//2 26//2
f 1//1 31//1 36//1 4//1
f 31//1 32//1 35//1 36//1
f 32//1 33//1 34//1 35//1
f 47//4 46//4 70//4 69//4
f 48//4 47//4 69//4 68//4
f 13//4 48//4 68//4 62//4
f 35//2 34//2 67//2 66//2
f 36//2 35//2 66//2 65//2
f 4//2 36//2 65//2 63//2
f 34//2 3//2 64//2 67//2
f 4//5 63//5 62//5 1//5
f 21//6 64//6 61//6 9//6
f 46//4 9//4 61//4 70//4
f 44//4 43//4 80//4 79//4
f 45//4 44//4 79//4 78//4
f 14//4 45//4 78//4 72//4
f 50//2 49//2 77//2 76//2
f 51//2 50//2 76//2 75//2
f 17//2 51//2 75//2 73//2
f 49//2 21//2 74//2 77//2
f 43//4 10//4 71//4 80//4
f 17//5 73//5 72//5 13//5
f 22//6 74//6 71//6 10//6
f 41//4 40//4 90//4 89//4
f 42//4 41//4 89//4 88//4
f 15//4 42//4 88//4 82//4
f 53//2 52//2 87//2 86//2
f 54//2 53//2 86//2 85//2
f 18//2 54//2 85//2 83//2
f 52//2 22//2 84//2 87//2
f 40//4 11//4 81//4 90//4
f 18//5 83//5 82//5 14//5
f 23//6 84//6 81//6 11//6
f 38//4 37//4 100//4 99//4
f 39//4 38//4 99//4 98//4
f 16//4 39//4 98//4 92//4
f 56//2 55//2 97//2 96//2
f 57//2 56//2 96//2 95//2
f 19//2 57//2 95//2 93//2
f 55//2 23//2 94//2 97//2
f 37//4 12//4 91//4 100//4
f 19//5 93//5 92//5 15//5
f 24//6 94//6 91//6 12//6
f 59//2 58//2 110//2 109//2
f 60//2 59//2 109//2 108//2
f 20//2 60//2 108//2 103//2
f 29//4 28//4 107//4 106//4
f 30//4 29//4 106//4 105//4
f 8//4 30//4 105//4 102//4
f 28//4 7//4 101//4 107//4
f 5//6 104//6 101//6 7//6
f 20//5 103//5 102//5 16//5
f 58//2 24//2 104//2 110//2
