# Blender v2.79 (sub 0) OBJ File: 'puerta.blend'
# www.blender.org
mtllib pared_del_2.mtl
o Cube.001_Cub.001
v -9.017732 6.553831 -0.791080
v -9.017732 8.680816 -0.790979
v -9.015671 8.680643 2.855930
v -9.015671 6.553660 2.855829
v 6.532002 6.553660 2.855752
v 6.532002 8.680643 2.855853
v 7.316487 8.680643 2.855849
v 7.316487 6.553660 2.855749
v 11.090780 8.680816 -0.791078
v 11.090780 6.553831 -0.791179
v -7.290169 6.553831 -0.791088
v -7.290169 8.680816 -0.790988
v 6.532002 0.172711 2.855452
v 7.316487 0.172711 2.855448
v 11.090780 0.172883 -0.791479
v 8.031171 0.172883 -0.791464
v -7.294441 8.680643 2.855921
v 4.754159 8.680643 2.855861
v 5.796407 8.680816 -0.791052
v 8.031171 8.680816 -0.791063
v 3.032932 8.680643 2.855870
v 1.311702 8.680643 2.855879
v 1.659106 8.680816 -0.791032
v 3.727758 8.680816 -0.791042
v -0.409526 8.680643 2.855887
v -2.130754 8.680643 2.855896
v -2.125502 8.680816 -0.791013
v -0.397938 8.680816 -0.791022
v -3.851984 8.680643 2.855904
v -5.573212 8.680643 2.855912
v -5.580629 8.680816 -0.790996
v -3.853065 8.680816 -0.791005
v -7.294441 0.172711 2.855520
v -5.573212 0.172711 2.855512
v -5.580629 0.172883 -0.791397
v -7.290169 0.172883 -0.791388
v -3.851984 0.172711 2.855503
v -2.130754 0.172711 2.855495
v -2.125502 0.172883 -0.791414
v -3.853065 0.172883 -0.791405
v -0.409526 0.172711 2.855486
v 1.311702 0.172711 2.855478
v 1.659106 0.172883 -0.791432
v -0.397938 0.172883 -0.791422
v 3.032932 0.172711 2.855469
v 4.754159 0.172711 2.855461
v 5.796407 0.172883 -0.791453
v 3.727758 0.172883 -0.791443
v 8.031171 6.553831 -0.791164
v 5.796407 6.553831 -0.791153
v 3.727758 6.553831 -0.791142
v 1.659106 6.553831 -0.791132
v -0.397938 6.553831 -0.791122
v -2.125502 6.553831 -0.791113
v -3.853065 6.553831 -0.791105
v -5.580629 6.553831 -0.791096
v -7.294441 6.553660 2.855821
v -5.573212 6.553660 2.855812
v -3.851984 6.553660 2.855804
v -2.130754 6.553660 2.855795
v -0.409526 6.553660 2.855787
v 1.311702 6.553660 2.855778
v 3.032932 6.553660 2.855770
v 4.754159 6.553660 2.855761
v 3.032932 2.299694 2.855570
v 4.754159 2.299694 2.855561
v 3.032932 4.426678 2.855669
v 4.754159 4.426678 2.855660
v -0.409526 2.299694 2.855587
v 1.311702 2.299694 2.855578
v -0.409526 4.426678 2.855686
v 1.311702 4.426678 2.855677
v -3.851984 2.299694 2.855604
v -2.130754 2.299694 2.855595
v -3.851984 4.426678 2.855703
v -2.130754 4.426678 2.855695
v -7.294441 2.299694 2.855621
v -5.573212 2.299694 2.855612
v -7.294441 4.426678 2.855720
v -5.573212 4.426678 2.855711
v -3.853065 2.299866 -0.791305
v -5.580629 2.299866 -0.791296
v -3.853065 4.426849 -0.791205
v -5.580629 4.426849 -0.791197
v -0.397938 2.299866 -0.791322
v -2.125502 2.299866 -0.791313
v -0.397938 4.426849 -0.791222
v -2.125502 4.426849 -0.791214
v 3.727758 2.299866 -0.791342
v 1.659106 2.299866 -0.791332
v 3.727758 4.426849 -0.791243
v 1.659106 4.426849 -0.791233
v 8.031171 2.299866 -0.791363
v 5.796407 2.299866 -0.791352
v 8.031171 4.426849 -0.791264
v 5.796407 4.426849 -0.791253
v -7.290169 2.299866 -0.791288
v -9.017732 2.299866 -0.791279
v -9.017732 0.172883 -0.791380
v -7.290169 4.426849 -0.791188
v -9.017732 4.426849 -0.791180
v 7.316487 2.299694 2.855548
v 11.090780 2.299866 -0.791379
v 7.316487 4.426678 2.855648
v 11.090780 4.426849 -0.791279
v 6.532002 2.299694 2.855552
v 6.532002 4.426678 2.855652
v -9.015671 2.299694 2.855629
v -9.015671 0.172711 2.855529
v -9.015671 4.426678 2.855729
vn -1.0000 -0.0000 0.0006
vn 0.0000 -0.0000 1.0000
vn 0.6949 -0.0000 0.7191
vn -0.0000 0.0000 -1.0000
vn 0.0000 -1.0000 -0.0000
vn 0.0000 1.0000 0.0000
usemtl None.000
s off
f 1//1 4//1 3//1
f 1//1 3//1 2//1
f 5//2 8//2 7//2
f 5//2 7//2 6//2
f 8//3 10//3 9//3
f 8//3 9//3 7//3
f 11//4 1//4 2//4
f 11//4 2//4 12//4
f 13//5 16//5 15//5
f 13//5 15//5 14//5
f 17//6 12//6 2//6
f 17//6 2//6 3//6
f 6//6 20//6 19//6
f 6//6 19//6 18//6
f 21//6 24//6 23//6
f 21//6 23//6 22//6
f 25//6 28//6 27//6
f 25//6 27//6 26//6
f 29//6 32//6 31//6
f 29//6 31//6 30//6
f 33//5 36//5 35//5
f 33//5 35//5 34//5
f 37//5 40//5 39//5
f 37//5 39//5 38//5
f 41//5 44//5 43//5
f 41//5 43//5 42//5
f 45//5 48//5 47//5
f 45//5 47//5 46//5
f 49//4 50//4 19//4
f 49//4 19//4 20//4
f 51//4 52//4 23//4
f 51//4 23//4 24//4
f 53//4 54//4 27//4
f 53//4 27//4 28//4
f 55//4 56//4 31//4
f 55//4 31//4 32//4
f 57//2 58//2 30//2
f 57//2 30//2 17//2
f 59//2 60//2 26//2
f 59//2 26//2 29//2
f 61//2 62//2 22//2
f 61//2 22//2 25//2
f 63//2 64//2 18//2
f 63//2 18//2 21//2
f 45//2 46//2 66//2
f 45//2 66//2 65//2
f 65//2 66//2 68//2
f 65//2 68//2 67//2
f 67//2 68//2 64//2
f 67//2 64//2 63//2
f 41//2 42//2 70//2
f 41//2 70//2 69//2
f 69//2 70//2 72//2
f 69//2 72//2 71//2
f 71//2 72//2 62//2
f 71//2 62//2 61//2
f 37//2 38//2 74//2
f 37//2 74//2 73//2
f 73//2 74//2 76//2
f 73//2 76//2 75//2
f 75//2 76//2 60//2
f 75//2 60//2 59//2
f 33//2 34//2 78//2
f 33//2 78//2 77//2
f 77//2 78//2 80//2
f 77//2 80//2 79//2
f 79//2 80//2 58//2
f 79//2 58//2 57//2
f 40//4 35//4 82//4
f 40//4 82//4 81//4
f 81//4 82//4 84//4
f 81//4 84//4 83//4
f 83//4 84//4 56//4
f 83//4 56//4 55//4
f 44//4 39//4 86//4
f 44//4 86//4 85//4
f 85//4 86//4 88//4
f 85//4 88//4 87//4
f 87//4 88//4 54//4
f 87//4 54//4 53//4
f 48//4 43//4 90//4
f 48//4 90//4 89//4
f 89//4 90//4 92//4
f 89//4 92//4 91//4
f 91//4 92//4 52//4
f 91//4 52//4 51//4
f 16//4 47//4 94//4
f 16//4 94//4 93//4
f 93//4 94//4 96//4
f 93//4 96//4 95//4
f 95//4 96//4 50//4
f 95//4 50//4 49//4
f 36//4 99//4 98//4
f 36//4 98//4 97//4
f 97//4 98//4 101//4
f 97//4 101//4 100//4
f 100//4 101//4 1//4
f 100//4 1//4 11//4
f 14//3 15//3 103//3
f 14//3 103//3 102//3
f 102//3 103//3 105//3
f 102//3 105//3 104//3
f 104//3 105//3 10//3
f 104//3 10//3 8//3
f 13//2 14//2 102//2
f 13//2 102//2 106//2
f 106//2 102//2 104//2
f 106//2 104//2 107//2
f 107//2 104//2 8//2
f 107//2 8//2 5//2
f 99//1 109//1 108//1
f 99//1 108//1 98//1
f 98//1 108//1 110//1
f 98//1 110//1 101//1
f 101//1 110//1 4//1
f 101//1 4//1 1//1
f 68//2 107//2 5//2
f 68//2 5//2 64//2
f 66//2 106//2 107//2
f 66//2 107//2 68//2
f 46//2 13//2 106//2
f 46//2 106//2 66//2
f 105//4 95//4 49//4
f 105//4 49//4 10//4
f 103//4 93//4 95//4
f 103//4 95//4 105//4
f 15//4 16//4 93//4
f 15//4 93//4 103//4
f 10//4 49//4 20//4
f 10//4 20//4 9//4
f 7//6 9//6 20//6
f 7//6 20//6 6//6
f 46//5 47//5 16//5
f 46//5 16//5 13//5
f 64//2 5//2 6//2
f 64//2 6//2 18//2
f 96//4 91//4 51//4
f 96//4 51//4 50//4
f 94//4 89//4 91//4
f 94//4 91//4 96//4
f 47//4 48//4 89//4
f 47//4 89//4 94//4
f 72//2 67//2 63//2
f 72//2 63//2 62//2
f 70//2 65//2 67//2
f 70//2 67//2 72//2
f 42//2 45//2 65//2
f 42//2 65//2 70//2
f 62//2 63//2 21//2
f 62//2 21//2 22//2
f 50//4 51//4 24//4
f 50//4 24//4 19//4
f 42//5 43//5 48//5
f 42//5 48//5 45//5
f 18//6 19//6 24//6
f 18//6 24//6 21//6
f 92//4 87//4 53//4
f 92//4 53//4 52//4
f 90//4 85//4 87//4
f 90//4 87//4 92//4
f 43//4 44//4 85//4
f 43//4 85//4 90//4
f 76//2 71//2 61//2
f 76//2 61//2 60//2
f 74//2 69//2 71//2
f 74//2 71//2 76//2
f 38//2 41//2 69//2
f 38//2 69//2 74//2
f 60//2 61//2 25//2
f 60//2 25//2 26//2
f 52//4 53//4 28//4
f 52//4 28//4 23//4
f 38//5 39//5 44//5
f 38//5 44//5 41//5
f 22//6 23//6 28//6
f 22//6 28//6 25//6
f 88//4 83//4 55//4
f 88//4 55//4 54//4
f 86//4 81//4 83//4
f 86//4 83//4 88//4
f 39//4 40//4 81//4
f 39//4 81//4 86//4
f 80//2 75//2 59//2
f 80//2 59//2 58//2
f 78//2 73//2 75//2
f 78//2 75//2 80//2
f 34//2 37//2 73//2
f 34//2 73//2 78//2
f 58//2 59//2 29//2
f 58//2 29//2 30//2
f 54//4 55//4 32//4
f 54//4 32//4 27//4
f 34//5 35//5 40//5
f 34//5 40//5 37//5
f 26//6 27//6 32//6
f 26//6 32//6 29//6
f 84//4 100//4 11//4
f 84//4 11//4 56//4
f 82//4 97//4 100//4
f 82//4 100//4 84//4
f 35//4 36//4 97//4
f 35//4 97//4 82//4
f 110//2 79//2 57//2
f 110//2 57//2 4//2
f 108//2 77//2 79//2
f 108//2 79//2 110//2
f 109//2 33//2 77//2
f 109//2 77//2 108//2
f 4//2 57//2 17//2
f 4//2 17//2 3//2
f 109//5 99//5 36//5
f 109//5 36//5 33//5
f 30//6 31//6 12//6
f 30//6 12//6 17//6
f 56//4 11//4 12//4
f 56//4 12//4 31//4
