# Blender v2.79 (sub 0) OBJ File: 'paredes.blend'
# www.blender.org
mtllib paredes_izq.mtl
o Cube_Cube.001
v 1.822746 0.046457 22.097979
v 1.822746 8.819153 22.097979
v -1.937653 0.046457 18.337580
v -1.937653 8.819153 18.337580
v 1.822744 0.046457 -22.683050
v 1.822744 8.819153 -22.683050
v -1.937655 0.046457 -18.922653
v -1.937655 8.819153 -18.922653
vn -0.7071 0.0000 0.7071
vn -1.0000 0.0000 0.0000
vn -0.7071 0.0000 -0.7071
vn 1.0000 0.0000 -0.0000
vn 0.0000 -1.0000 -0.0000
vn 0.0000 1.0000 0.0000
usemtl None
s off
f 1//1 2//1 4//1 3//1
f 3//2 4//2 8//2 7//2
f 7//3 8//3 6//3 5//3
f 5//4 6//4 2//4 1//4
f 3//5 7//5 5//5 1//5
f 8//6 4//6 2//6 6//6
