# Blender v2.79 (sub 0) OBJ File: ''
# www.blender.org
mtllib paredes_der.mtl
o Cube.002_Cube.004
v -1.822751 0.046460 -22.683052
v -1.822751 8.819157 -22.683050
v 1.937649 8.819156 -18.922649
v 1.937649 0.046459 -18.922651
v 1.937656 8.819150 18.337582
v 1.937656 0.046453 18.337580
v -1.822742 8.819149 22.097979
v -1.822742 0.046452 22.097977
v -1.822749 8.819155 -13.726844
v -1.822747 8.819154 -4.770639
v -1.822746 8.819152 4.185567
v -1.822744 8.819151 13.141773
v -1.822749 0.046458 -13.726846
v -1.822747 0.046457 -4.770640
v -1.822746 0.046455 4.185566
v -1.822744 0.046454 13.141771
v 1.937650 0.046458 -11.470605
v 1.937652 0.046457 -4.018559
v 1.937653 0.046455 3.433488
v 1.937655 0.046454 10.885534
v 1.937650 8.819155 -11.470603
v 1.937652 8.819154 -4.018557
v 1.937653 8.819152 3.433489
v 1.937655 8.819151 10.885536
v 1.937656 6.625976 18.337582
v 1.937656 4.432801 18.337580
v 1.937656 2.239627 18.337580
v -1.822742 6.625975 22.097979
v -1.822742 4.432800 22.097977
v -1.822742 2.239626 22.097977
v -1.822751 2.239634 -22.683052
v -1.822751 4.432808 -22.683052
v -1.822751 6.625982 -22.683050
v 1.937649 6.625981 -18.922649
v 1.937649 4.432807 -18.922651
v 1.937649 2.239633 -18.922651
v -1.822744 6.625977 13.141772
v -1.822744 4.432802 13.141772
v -1.822744 2.239628 13.141771
v -1.822746 6.625978 4.185567
v -1.822746 4.432804 4.185567
v -1.822746 2.239629 4.185566
v -1.822747 6.625979 -4.770639
v -1.822747 4.432805 -4.770639
v -1.822747 2.239631 -4.770640
v -1.822749 6.625981 -13.726845
v -1.822749 4.432806 -13.726845
v -1.822749 2.239632 -13.726846
v 1.937650 6.625980 -11.470604
v 1.937650 4.432806 -11.470604
v 1.937650 2.239632 -11.470605
v 1.937652 6.625979 -4.018558
v 1.937652 4.432805 -4.018558
v 1.937652 2.239631 -4.018558
v 1.937653 6.625978 3.433489
v 1.937653 4.432804 3.433489
v 1.937653 2.239630 3.433488
v 1.937655 6.625977 10.885535
v 1.937655 4.432802 10.885535
v 1.937655 2.239628 10.885534
v -1.822743 8.819150 17.619875
v -1.822743 0.046453 17.619873
v 1.937655 0.046454 14.611557
v 1.937655 8.819151 14.611559
v -1.822743 2.239627 17.619873
v -1.822743 4.432801 17.619873
v -1.822743 6.625976 17.619875
v 1.937655 2.239628 14.611557
v 1.937655 4.432802 14.611558
v 1.937655 6.625976 14.611558
v -1.822745 8.819152 8.663671
v -1.822745 0.046455 8.663669
v 1.937654 0.046455 7.159511
v 1.937654 8.819152 7.159513
v 1.937654 2.239629 7.159512
v 1.937654 4.432803 7.159512
v 1.937654 6.625978 7.159512
v -1.822745 2.239629 8.663669
v -1.822745 4.432803 8.663670
v -1.822745 6.625977 8.663670
v -1.822747 8.819153 -0.292536
v -1.822747 0.046456 -0.292537
v 1.937653 0.046456 -0.292535
v 1.937653 8.819153 -0.292534
v 1.937653 2.239630 -0.292535
v 1.937653 4.432804 -0.292535
v 1.937653 6.625978 -0.292534
v -1.822747 2.239630 -0.292537
v -1.822747 4.432804 -0.292536
v -1.822747 6.625978 -0.292536
v -1.822748 8.819155 -9.248741
v -1.822748 0.046458 -9.248743
v 1.937651 0.046457 -7.744582
v 1.937651 8.819154 -7.744580
v 1.937651 2.239631 -7.744581
v 1.937651 4.432806 -7.744581
v 1.937651 6.625980 -7.744581
v -1.822748 2.239631 -9.248743
v -1.822748 4.432806 -9.248742
v -1.822748 6.625980 -9.248742
v -1.822750 8.819156 -18.204947
v -1.822750 0.046459 -18.204948
v 1.937650 0.046458 -15.196629
v 1.937650 8.819156 -15.196627
v 1.937650 2.239632 -15.196629
v 1.937650 4.432806 -15.196628
v 1.937650 6.625981 -15.196628
v -1.822750 2.239633 -18.204948
v -1.822750 4.432807 -18.204948
v -1.822750 6.625981 -18.204947
vn 0.7071 0.0000 -0.7071
vn 1.0000 -0.0000 -0.0000
vn 0.7071 -0.0000 0.7071
vn -1.0000 -0.0000 0.0000
vn 0.0000 -1.0000 -0.0000
vn -0.0000 1.0000 0.0000
usemtl None.001
s 1
f 33//1 2//1 3//1 34//1
f 70//2 64//2 5//2 25//2
f 25//3 5//3 7//3 28//3
f 110//4 101//4 2//4 33//4
f 63//5 6//5 8//5 62//5
f 104//6 3//6 2//6 101//6
f 64//6 24//6 12//6 61//6
f 74//6 23//6 11//6 71//6
f 84//6 22//6 10//6 81//6
f 94//6 21//6 9//6 91//6
f 103//5 17//5 13//5 102//5
f 93//5 18//5 14//5 92//5
f 83//5 19//5 15//5 82//5
f 73//5 20//5 16//5 72//5
f 67//4 61//4 12//4 37//4
f 80//4 71//4 11//4 40//4
f 90//4 81//4 10//4 43//4
f 100//4 91//4 9//4 46//4
f 107//2 104//2 21//2 49//2
f 97//2 94//2 22//2 52//2
f 87//2 84//2 23//2 55//2
f 77//2 74//2 24//2 58//2
f 73//2 75//2 60//2 20//2
f 75//2 76//2 59//2 60//2
f 76//2 77//2 58//2 59//2
f 83//2 85//2 57//2 19//2
f 85//2 86//2 56//2 57//2
f 86//2 87//2 55//2 56//2
f 93//2 95//2 54//2 18//2
f 95//2 96//2 53//2 54//2
f 96//2 97//2 52//2 53//2
f 103//2 105//2 51//2 17//2
f 105//2 106//2 50//2 51//2
f 106//2 107//2 49//2 50//2
f 92//4 98//4 48//4 13//4
f 98//4 99//4 47//4 48//4
f 99//4 100//4 46//4 47//4
f 82//4 88//4 45//4 14//4
f 88//4 89//4 44//4 45//4
f 89//4 90//4 43//4 44//4
f 72//4 78//4 42//4 15//4
f 78//4 79//4 41//4 42//4
f 79//4 80//4 40//4 41//4
f 62//4 65//4 39//4 16//4
f 65//4 66//4 38//4 39//4
f 66//4 67//4 37//4 38//4
f 102//4 108//4 31//4 1//4
f 108//4 109//4 32//4 31//4
f 109//4 110//4 33//4 32//4
f 6//3 27//3 30//3 8//3
f 27//3 26//3 29//3 30//3
f 26//3 25//3 28//3 29//3
f 63//2 68//2 27//2 6//2
f 68//2 69//2 26//2 27//2
f 69//2 70//2 25//2 26//2
f 1//1 31//1 36//1 4//1
f 31//1 32//1 35//1 36//1
f 32//1 33//1 34//1 35//1
f 59//2 58//2 70//2 69//2
f 60//2 59//2 69//2 68//2
f 20//2 60//2 68//2 63//2
f 29//4 28//4 67//4 66//4
f 30//4 29//4 66//4 65//4
f 8//4 30//4 65//4 62//4
f 28//4 7//4 61//4 67//4
f 5//6 64//6 61//6 7//6
f 20//5 63//5 62//5 16//5
f 58//2 24//2 64//2 70//2
f 38//4 37//4 80//4 79//4
f 39//4 38//4 79//4 78//4
f 16//4 39//4 78//4 72//4
f 56//2 55//2 77//2 76//2
f 57//2 56//2 76//2 75//2
f 19//2 57//2 75//2 73//2
f 55//2 23//2 74//2 77//2
f 37//4 12//4 71//4 80//4
f 19//5 73//5 72//5 15//5
f 24//6 74//6 71//6 12//6
f 41//4 40//4 90//4 89//4
f 42//4 41//4 89//4 88//4
f 15//4 42//4 88//4 82//4
f 53//2 52//2 87//2 86//2
f 54//2 53//2 86//2 85//2
f 18//2 54//2 85//2 83//2
f 52//2 22//2 84//2 87//2
f 40//4 11//4 81//4 90//4
f 18//5 83//5 82//5 14//5
f 23//6 84//6 81//6 11//6
f 44//4 43//4 100//4 99//4
f 45//4 44//4 99//4 98//4
f 14//4 45//4 98//4 92//4
f 50//2 49//2 97//2 96//2
f 51//2 50//2 96//2 95//2
f 17//2 51//2 95//2 93//2
f 49//2 21//2 94//2 97//2
f 43//4 10//4 91//4 100//4
f 17//5 93//5 92//5 13//5
f 22//6 94//6 91//6 10//6
f 47//4 46//4 110//4 109//4
f 48//4 47//4 109//4 108//4
f 13//4 48//4 108//4 102//4
f 35//2 34//2 107//2 106//2
f 36//2 35//2 106//2 105//2
f 4//2 36//2 105//2 103//2
f 34//2 3//2 104//2 107//2
f 4//5 103//5 102//5 1//5
f 21//6 104//6 101//6 9//6
f 46//4 9//4 101//4 110//4
