# Blender v2.79 (sub 0) OBJ File: 'puerta.blend'
# www.blender.org
mtllib puerta_der.mtl
o Cube.002_Cube.000
v -0.655404 0.096269 5.730616
v -0.655236 0.096269 -0.263455
v 0.660223 0.096168 -0.263418
v 0.660055 0.096168 5.730653
v -0.654734 8.819303 5.730615
v -0.654565 8.819303 -0.263455
v 0.660893 8.819201 -0.263418
v 0.660725 8.819201 5.730653
vn -0.0001 -1.0000 0.0000
vn 0.0001 1.0000 0.0000
vn -1.0000 0.0001 -0.0000
vn 0.0000 -0.0000 -1.0000
vn 1.0000 -0.0001 0.0000
vn -0.0000 0.0000 1.0000
usemtl Material.001
s off
f 1//1 2//1 3//1
f 1//1 3//1 4//1
f 5//2 8//2 7//2
f 5//2 7//2 6//2
f 1//3 5//3 6//3
f 1//3 6//3 2//3
f 2//4 6//4 7//4
f 2//4 7//4 3//4
f 3//5 7//5 8//5
f 3//5 8//5 4//5
f 5//6 1//6 4//6
f 5//6 4//6 8//6
