# Blender v2.79 (sub 0) OBJ File: 'puerta.blend'
# www.blender.org
mtllib puerta_izq.mtl
o Cube.002_Cube.000
v 0.660345 0.096269 -5.735686
v 0.660178 0.096269 0.258386
v -0.655281 0.096168 0.258349
v -0.655113 0.096168 -5.735723
v 0.659675 8.819303 -5.735685
v 0.659507 8.819303 0.258386
v -0.655952 8.819201 0.258349
v -0.655784 8.819201 -5.735723
vn 0.0001 -1.0000 0.0000
vn -0.0001 1.0000 -0.0000
vn 1.0000 0.0001 0.0000
vn -0.0000 -0.0000 1.0000
vn -1.0000 -0.0001 -0.0000
vn 0.0000 0.0000 -1.0000
usemtl Material.001
s off
f 1//1 2//1 3//1
f 1//1 3//1 4//1
f 5//2 8//2 7//2
f 5//2 7//2 6//2
f 1//3 5//3 6//3
f 1//3 6//3 2//3
f 2//4 6//4 7//4
f 2//4 7//4 3//4
f 3//5 7//5 8//5
f 3//5 8//5 4//5
f 5//6 1//6 4//6
f 5//6 4//6 8//6
