# Blender v2.79 (sub 0) OBJ File: 'puertas.blend'
# www.blender.org
mtllib Puerta.mtl
o Cube.000_Cube.003
v -1.000005 10.000006 -8.000000
v -1.000002 10.000006 -0.000000
v 0.999998 10.000006 0.000000
v 0.999995 10.000006 -8.000001
v 0.999996 0.000015 -8.000001
v 1.000000 0.000015 0.000000
v -1.000000 0.000015 -0.000000
v -1.000004 0.000015 -8.000000
vt 0.000050 0.750050
vt 0.999950 0.750050
vt 0.999950 1.000025
vt 0.000050 1.000025
vt 0.000050 0.687550
vt 0.999950 0.687550
vt 0.999950 0.937525
vt 0.000050 0.937525
vt 0.000090 0.000089
vt 0.999622 0.000090
vt 0.999622 0.999911
vt 0.000089 0.999910
vt 0.200027 0.000045
vt 0.200027 0.999955
vt 0.000045 0.999955
vt 0.000045 0.000045
vt 0.000089 0.999911
vt 0.000089 0.000089
vt 1.003810 0.000089
vt 1.003810 0.999911
vt 0.798110 0.000045
vt 0.998092 0.000045
vt 0.998092 0.999955
vt 0.798110 0.999955
vn 0.0000 1.0000 0.0000
vn 0.0000 -1.0000 0.0000
vn 1.0000 0.0000 -0.0000
vn -0.0000 -0.0000 -1.0000
vn -1.0000 -0.0000 0.0000
vn -0.0000 -0.0000 1.0000
usemtl Material.007
s 1
f 1/1/1 2/2/1 3/3/1 4/4/1
f 5/5/2 6/6/2 7/7/2 8/8/2
f 4/9/3 3/10/3 6/11/3 5/12/3
f 4/13/4 5/14/4 8/15/4 1/16/4
f 7/17/5 2/18/5 1/19/5 8/20/5
f 3/21/6 2/22/6 7/23/6 6/24/6
