# Blender v2.79 (sub 6) OBJ File: 'bailarina.blend1'
# www.blender.org
mtllib Guitarra2_000021.mtl
o g2_pPlane4.001
v -3.640018 17.432507 4.610117
v -4.274139 17.174133 5.257650
v -3.472809 16.504330 5.691694
v -2.838687 16.762699 5.044158
v -3.038429 15.587432 5.613238
v -2.404305 15.845798 4.965703
v -2.336685 12.664821 3.232310
v -2.970807 12.406453 3.879846
v -3.212982 11.840421 3.313335
v -2.578860 12.098790 2.665802
v -4.059840 11.651514 2.343791
v -3.666615 11.794420 1.936998
v -3.427429 11.905668 1.694955
v -4.518465 17.755333 3.901230
v -2.410913 15.043975 4.504756
v -2.858026 14.254764 3.603769
v -2.421926 13.241189 3.472288
v -3.635645 11.991004 1.531922
v -3.830964 11.992117 1.334272
v -4.798263 12.574251 0.682080
v -5.236128 13.285968 0.640762
v -5.327635 13.863675 0.875140
v -5.182943 14.752826 1.525733
v -5.910331 15.793654 1.376947
v -6.171318 16.652802 1.598709
v -5.997846 17.439487 2.220477
v -5.354270 17.799747 3.077904
v -5.149373 17.475979 4.540138
v -3.454023 7.616033 0.704632
v -3.074990 7.827548 0.331263
v -3.351411 7.454839 0.752257
v -2.840818 7.739768 0.249297
v -2.956916 7.893817 0.218706
v -3.340868 7.179198 -0.576719
v -3.315192 7.008963 -0.646279
v -3.501856 6.948016 -0.452048
v -3.524274 7.098121 -0.390987
v -4.262675 11.694965 2.162495
v -4.465511 11.738420 1.981197
v -3.865377 7.704155 0.336962
v -2.867667 6.415446 -0.528196
v -3.378258 6.130515 -0.025232
v -3.509521 6.158635 -0.142556
v -2.998930 6.443565 -0.645517
v -3.282912 7.870357 0.149639
v -3.371814 7.982701 -0.152134
v -3.486342 7.915671 -0.036409
v -3.876423 11.862761 1.770569
v -4.071218 11.881098 1.575360
v -2.719155 6.607867 0.150127
v -2.746322 6.786160 0.223255
v -2.909276 6.695222 0.383774
v -2.885383 6.515102 0.313871
v -2.851240 7.447715 0.499200
v -3.014788 7.360381 0.661247
v -2.987879 7.185430 0.589209
v -2.822086 7.278975 0.426138
v -2.768741 6.936261 0.284315
v -2.803511 7.129674 0.369573
v -2.963389 7.040456 0.527062
v -2.931888 6.845220 0.445023
v -3.606772 7.609571 -0.176102
v -3.447006 7.869633 -0.292519
v -3.402157 7.576159 -0.413044
v -3.577618 7.440830 -0.249164
v -2.868500 6.639860 0.016639
v -3.034729 6.547096 0.180384
v -3.058622 6.727217 0.250288
v -2.895668 6.818151 0.089768
v -3.000586 7.479710 0.365715
v -2.971431 7.310967 0.292653
v -3.137224 7.217422 0.455722
v -3.164133 7.392374 0.527761
v -2.918087 6.968256 0.150830
v -3.081234 6.877213 0.311536
v -3.112735 7.072449 0.393577
v -2.952856 7.161668 0.236087
v -5.988392 17.541378 3.725438
v -6.631967 17.181114 2.868011
v -6.805441 16.394432 2.246244
v -6.544451 15.535281 2.024481
v -5.817067 14.494454 2.173269
v -5.961757 13.605306 1.522678
v -5.870250 13.027598 1.288297
v -5.432384 12.315881 1.329615
v -3.056050 12.982821 4.119824
v -3.492146 13.996390 4.251304
v -3.045036 14.785605 5.152290
v -3.687420 7.007078 -0.230279
v -3.664809 6.857078 -0.291528
v -3.271255 6.722075 -0.764199
v -3.474687 6.769723 -0.525176
v -3.718922 7.202312 -0.148240
v -3.743412 7.347286 -0.086092
v -3.559044 7.291532 -0.305731
v -3.624032 6.801719 -0.658661
v -3.790262 6.708955 -0.494918
v -3.814154 6.889073 -0.425014
v -3.651200 6.980010 -0.585532
v -3.756118 7.641565 -0.309587
v -3.726963 7.472825 -0.382650
v -3.892759 7.379279 -0.219578
v -3.919666 7.554233 -0.147542
v -3.673620 7.130113 -0.524472
v -3.836765 7.039070 -0.363766
v -3.868267 7.234307 -0.281726
v -3.708389 7.323526 -0.439216
v -3.640917 6.676960 -0.361432
v -3.770320 7.522239 -0.014056
v -3.781846 6.437142 -0.261237
v -3.957599 7.584702 0.210444
v -3.373491 7.399655 -0.487290
v -3.825784 6.724034 -0.143318
v -3.847752 6.867476 -0.084357
v -3.881497 7.096043 0.008281
v -3.904784 7.233660 0.067142
v -2.734592 7.048693 -0.035158
v -2.764725 7.251162 0.047155
v -2.790497 7.406743 0.113122
v -3.302357 7.130967 0.619707
v -3.277757 6.983858 0.557091
v -3.249825 6.797302 0.481073
v -3.226175 6.641713 0.417310
v -3.175658 6.307280 0.280579
v -2.665067 6.592210 -0.222384
v -2.709005 6.879102 -0.104463
v -3.345578 6.229541 0.064044
v -2.834985 6.514472 -0.438918
v -3.575781 6.278856 -0.141713
v -3.065190 6.563788 -0.644676
vt 0.642023 0.677747
vt 0.693394 0.677747
vt 0.693394 0.731514
vt 0.642023 0.731514
vt 0.788237 0.471761
vt 0.839608 0.466497
vt 0.839608 0.517463
vt 0.788237 0.522727
vt 0.788237 0.718616
vt 0.839608 0.713352
vt 0.839608 0.751579
vt 0.788237 0.756842
vt 0.637737 0.661574
vt 0.586367 0.661574
vt 0.586468 0.594083
vt 0.618160 0.594043
vt 0.637737 0.594003
vt 0.568646 0.493611
vt 0.504856 0.485282
vt 0.451089 0.454466
vt 0.428470 0.403500
vt 0.438427 0.353809
vt 0.482132 0.299060
vt 0.460520 0.242136
vt 0.460753 0.207610
vt 0.486059 0.169384
vt 0.553630 0.146191
vt 0.568646 0.148710
vt 0.583662 0.146191
vt 0.651234 0.169384
vt 0.676539 0.207610
vt 0.676772 0.242136
vt 0.655160 0.299060
vt 0.698865 0.353809
vt 0.708823 0.403500
vt 0.686203 0.454466
vt 0.632436 0.485282
vt 0.693394 0.613957
vt 0.642023 0.613957
vt 0.754283 0.146190
vt 0.755425 0.387151
vt 0.724052 0.387151
vt 0.722590 0.150432
vt 0.756667 0.395046
vt 0.714406 0.395046
vt 0.714406 0.387055
vt 0.715485 0.406028
vt 0.715485 0.406028
vt 0.714672 0.436269
vt 0.715485 0.406028
vt 0.268628 0.733091
vt 0.268840 0.492130
vt 0.283935 0.492130
vt 0.299031 0.492130
vt 0.299242 0.733091
vt 0.493788 0.538661
vt 0.493788 0.496400
vt 0.503557 0.496400
vt 0.503557 0.538661
vt 0.460379 0.511839
vt 0.460193 0.527146
vt 0.450547 0.527278
vt 0.450547 0.496400
vt 0.460193 0.496531
vt 0.712987 0.734728
vt 0.697931 0.733119
vt 0.697680 0.496400
vt 0.712987 0.496400
vt 0.728294 0.496400
vt 0.728043 0.733119
vt 0.431485 0.839581
vt 0.420822 0.839592
vt 0.420822 0.826104
vt 0.431485 0.826116
vt 0.375304 0.839548
vt 0.375087 0.826057
vt 0.385559 0.826066
vt 0.385502 0.839800
vt 0.325241 0.839682
vt 0.313510 0.839290
vt 0.313510 0.826057
vt 0.325241 0.826179
vt 0.715485 0.406028
vt 0.714672 0.436269
vt 0.730219 0.437061
vt 0.729235 0.405347
vt 0.416361 0.839815
vt 0.405246 0.839815
vt 0.405246 0.826057
vt 0.416361 0.826057
vt 0.203576 0.842333
vt 0.203576 0.853448
vt 0.192913 0.853448
vt 0.192913 0.842333
vt 0.231602 0.839545
vt 0.220488 0.839545
vt 0.220488 0.826057
vt 0.231602 0.826057
vt 0.218554 0.842333
vt 0.218554 0.853448
vt 0.207890 0.853448
vt 0.207890 0.842333
vt 0.233066 0.842336
vt 0.233066 0.853451
vt 0.222868 0.853451
vt 0.222868 0.842336
vt 0.356043 0.839792
vt 0.344928 0.839792
vt 0.344928 0.826057
vt 0.356043 0.826057
vt 0.248317 0.842336
vt 0.248317 0.853451
vt 0.237845 0.853451
vt 0.237845 0.842336
vt 0.262405 0.839548
vt 0.251290 0.839548
vt 0.251290 0.826057
vt 0.262405 0.826057
vt 0.293207 0.839560
vt 0.282092 0.839560
vt 0.282092 0.826057
vt 0.293207 0.826057
vt 0.169998 0.837788
vt 0.158883 0.837788
vt 0.158883 0.826057
vt 0.169998 0.826057
vt 0.200800 0.839290
vt 0.189686 0.839290
vt 0.189686 0.826057
vt 0.200800 0.826057
vt 0.154874 0.837788
vt 0.143759 0.837788
vt 0.143759 0.826057
vt 0.154874 0.826057
vt 0.283935 0.146190
vt 0.347725 0.153264
vt 0.401493 0.184080
vt 0.424112 0.235046
vt 0.414154 0.284737
vt 0.370449 0.339486
vt 0.392061 0.396410
vt 0.391828 0.430936
vt 0.366523 0.469162
vt 0.201348 0.469162
vt 0.176043 0.430936
vt 0.175810 0.396410
vt 0.197422 0.339486
vt 0.153717 0.284737
vt 0.143759 0.235046
vt 0.166378 0.184080
vt 0.220145 0.153264
vt 0.642023 0.550167
vt 0.642023 0.496400
vt 0.693394 0.496400
vt 0.693394 0.550167
vt 0.783951 0.471761
vt 0.783951 0.522727
vt 0.732581 0.517463
vt 0.732581 0.466497
vt 0.783951 0.718616
vt 0.783951 0.756842
vt 0.732581 0.751579
vt 0.732581 0.713352
vt 0.637737 0.496400
vt 0.637737 0.563971
vt 0.618160 0.563931
vt 0.586468 0.563891
vt 0.586367 0.496400
vt 0.617880 0.578987
vt 0.637737 0.578987
vt 0.764446 0.146190
vt 0.796139 0.150432
vt 0.794677 0.387151
vt 0.763305 0.387151
vt 0.730219 0.437061
vt 0.729235 0.405347
vt 0.715485 0.406028
vt 0.714672 0.436269
vt 0.729235 0.405347
vt 0.730219 0.437061
vt 0.715485 0.406028
vt 0.729235 0.405347
vt 0.730219 0.437061
vt 0.714672 0.436269
vt 0.431311 0.826068
vt 0.431311 0.839826
vt 0.420647 0.839545
vt 0.420647 0.826057
vt 0.360546 0.826310
vt 0.370744 0.826057
vt 0.370801 0.839792
vt 0.360329 0.839800
vt 0.309224 0.826057
vt 0.309224 0.839560
vt 0.297493 0.839682
vt 0.297493 0.826449
vt 0.389845 0.839815
vt 0.389845 0.826057
vt 0.400960 0.826057
vt 0.400960 0.839815
vt 0.263487 0.853451
vt 0.252823 0.853451
vt 0.252823 0.842336
vt 0.263487 0.842336
vt 0.205087 0.839545
vt 0.205087 0.826057
vt 0.216201 0.826057
vt 0.216201 0.839545
vt 0.278464 0.853464
vt 0.267801 0.853464
vt 0.267801 0.842349
vt 0.278464 0.842349
vt 0.292976 0.853464
vt 0.282778 0.853464
vt 0.282778 0.842349
vt 0.292976 0.842349
vt 0.329527 0.839792
vt 0.329527 0.826057
vt 0.340642 0.826057
vt 0.340642 0.839792
vt 0.308227 0.853586
vt 0.297756 0.853586
vt 0.297756 0.842471
vt 0.308227 0.842471
vt 0.235889 0.839548
vt 0.235889 0.826057
vt 0.247003 0.826057
vt 0.247003 0.839548
vt 0.266691 0.839560
vt 0.266691 0.826057
vt 0.277806 0.826057
vt 0.277806 0.839560
vt 0.160234 0.853810
vt 0.160234 0.842079
vt 0.171349 0.842079
vt 0.171349 0.853810
vt 0.174284 0.839290
vt 0.174284 0.826057
vt 0.185399 0.826057
vt 0.185399 0.839290
vt 0.176573 0.853810
vt 0.176573 0.842079
vt 0.187688 0.842079
vt 0.187688 0.853810
vt 0.715485 0.406028
vt 0.714672 0.436269
vt 0.755988 0.400532
vt 0.756194 0.387880
vt 0.755988 0.400532
vt 0.719208 0.402080
vt 0.719250 0.387954
vt 0.756194 0.387880
vt 0.755988 0.400532
vt 0.719208 0.402080
vt 0.714672 0.436269
vt 0.715485 0.406028
vt 0.714672 0.436269
vt 0.730219 0.437061
vt 0.714672 0.436269
vt 0.729235 0.405347
vt 0.715485 0.406028
vt 0.729235 0.405347
vt 0.730219 0.437061
vt 0.730219 0.437061
vt 0.714672 0.436269
vt 0.715485 0.406028
vt 0.715485 0.406028
vt 0.729235 0.405347
vt 0.730219 0.437061
vt 0.714672 0.436269
vt 0.729235 0.405347
vt 0.714672 0.436269
vt 0.730219 0.437061
vt 0.719208 0.402080
vt 0.755988 0.400532
vt 0.756194 0.387880
vt 0.719250 0.387954
vt 0.719208 0.402080
vt 0.755988 0.400532
vt 0.719208 0.402080
vt 0.719250 0.387954
vt 0.719208 0.402080
vt 0.719250 0.387954
vt 0.756194 0.387880
vt 0.755988 0.400532
vt 0.756194 0.387880
vt 0.719208 0.402080
vt 0.719250 0.387954
vt 0.756194 0.387880
vt 0.755988 0.400532
vt 0.719208 0.402080
vt 0.719250 0.387954
vt 0.719208 0.402080
vt 0.719208 0.402080
vt 0.719250 0.387954
vt 0.756194 0.387880
vt 0.755988 0.400532
vt 0.756194 0.387880
vt 0.719250 0.387954
vt 0.839608 0.567154
vt 0.788237 0.572418
vt 0.839608 0.621903
vt 0.788237 0.627167
vt 0.839608 0.678826
vt 0.788237 0.684090
vt 0.518689 0.496400
vt 0.532680 0.496400
vt 0.532680 0.538661
vt 0.518689 0.538661
vt 0.507843 0.496400
vt 0.514402 0.496400
vt 0.514402 0.538661
vt 0.507843 0.538661
vt 0.261378 0.740986
vt 0.306493 0.740986
vt 0.261378 0.809648
vt 0.261378 0.792482
vt 0.261378 0.783900
vt 0.261378 0.775317
vt 0.261378 0.758151
vt 0.306493 0.758151
vt 0.306493 0.775317
vt 0.306493 0.783900
vt 0.306493 0.792482
vt 0.306493 0.809648
vt 0.275369 0.816709
vt 0.292502 0.816709
vt 0.279051 0.823269
vt 0.288820 0.823269
vt 0.550957 0.502959
vt 0.554639 0.496400
vt 0.564408 0.496400
vt 0.568090 0.502959
vt 0.536966 0.510020
vt 0.582080 0.510020
vt 0.536966 0.578682
vt 0.536966 0.561517
vt 0.536966 0.544351
vt 0.536966 0.535768
vt 0.536966 0.527185
vt 0.582080 0.527185
vt 0.582080 0.535768
vt 0.582080 0.544351
vt 0.582080 0.561517
vt 0.582080 0.578682
vt 0.544084 0.586674
vt 0.574962 0.586674
vt 0.783951 0.572418
vt 0.732581 0.567154
vt 0.783951 0.627167
vt 0.732581 0.621903
vt 0.783951 0.684090
vt 0.732581 0.678826
vt 0.804323 0.387055
vt 0.804323 0.395046
vt 0.762062 0.395046
vt 0.489502 0.496400
vt 0.489502 0.538661
vt 0.475511 0.538661
vt 0.475511 0.496400
vt 0.464665 0.538661
vt 0.464665 0.496400
vt 0.471225 0.496400
vt 0.471225 0.538661
vt 0.719208 0.402080
vt 0.719208 0.402080
vn 0.3021 0.7460 0.5935
vn 0.6430 0.2425 0.7264
vn 0.6529 -0.6569 0.3772
vn 0.3076 -0.9486 -0.0745
vn 0.6620 0.3694 -0.6521
vn 0.0083 0.9197 0.3926
vn 0.7366 -0.1566 0.6580
vn 0.4472 0.5012 0.7409
vn -0.7362 0.1578 -0.6581
vn -0.6627 -0.3651 0.6539
vn 0.1403 -0.9158 -0.3764
vn -0.1468 0.9121 0.3829
vn 0.6628 0.3640 -0.6544
vn 0.7363 -0.1577 0.6581
vn -0.7363 0.1577 -0.6581
vn -0.6655 -0.3451 0.6618
vn -0.1403 0.9158 0.3764
vn 0.6622 0.3685 -0.6525
vn 0.6583 0.3920 -0.6426
vn 0.1430 -0.9142 -0.3791
vn -0.6619 -0.3702 0.6518
vn -0.1296 0.9216 0.3659
vn -0.6605 -0.3789 0.6482
vn 0.6569 0.3999 -0.6392
vn -0.6620 -0.3696 0.6521
vn -0.4273 0.9022 -0.0584
vn -0.7017 0.5306 -0.4755
vn -0.5730 -0.3943 -0.7185
vn -0.1740 -0.8454 -0.5050
vn -0.1675 0.9573 0.2354
vn 0.1135 -0.9299 -0.3498
vn -0.7359 0.1589 -0.6582
vn 0.6621 0.3685 -0.6525
vn 0.6569 0.3998 -0.6392
vn -0.6514 0.2843 -0.7035
vn -0.8327 0.1805 -0.5235
vn 0.7362 -0.1577 0.6581
vn -0.6291 0.1232 -0.7675
vn -0.7361 0.1576 -0.6583
vn -0.7361 0.1579 -0.6581
vn -0.7071 0.1811 -0.6836
vn -0.7418 0.1990 -0.6404
vn -0.7074 0.1820 -0.6829
vn -0.7364 0.1578 -0.6579
vn -0.7418 0.1991 -0.6404
vn -0.7061 0.1769 -0.6856
vn -0.7362 0.1574 -0.6582
vn -0.7424 0.1983 -0.6399
vn -0.7063 0.1778 -0.6853
vn -0.7417 0.1992 -0.6405
vn -0.7072 0.1483 -0.6913
vn 0.7362 -0.1579 0.6581
vn 0.7363 -0.1578 0.6580
vn 0.7362 -0.1578 0.6581
vn 0.7637 -0.1671 0.6236
vn 0.7364 -0.1577 0.6579
vn 0.7364 -0.1577 0.6580
vn 0.8209 -0.1050 0.5613
vn 0.6426 -0.2050 0.7382
vn 0.6455 -0.1366 0.7515
vn 0.7360 -0.3420 0.5843
vn 0.6909 -0.5649 0.4512
vn 0.6834 -0.5859 0.4355
vn 0.6193 -0.7167 0.3205
vn 0.6622 0.1909 0.7246
vn 0.6977 0.0738 0.7126
vn 0.7029 0.0529 0.7094
vn 0.7367 -0.1642 0.6560
vn 0.3701 -0.9177 -0.1441
vn 0.5605 -0.8216 0.1035
vn 0.3747 -0.9167 -0.1389
vn 0.7107 -0.5858 0.3896
vn -0.6628 -0.3625 0.6552
vn -0.6758 -0.2226 0.7027
vn -0.6628 -0.3624 0.6553
vn -0.6619 -0.3695 0.6522
vn -0.6615 -0.3695 0.6525
vn -0.6544 -0.4108 0.6348
vn -0.6546 -0.4102 0.6350
vn -0.6545 -0.4106 0.6348
vn -0.6545 -0.4105 0.6349
vn -0.6620 -0.3694 0.6521
vn -0.6616 -0.3695 0.6525
vn 0.6623 0.3694 -0.6519
vn -0.7075 -0.0327 -0.7059
vn -0.6156 -0.3075 -0.7256
vn -0.6265 -0.2827 -0.7263
vn -0.5291 -0.4707 -0.7060
vn -0.7135 0.4856 -0.5050
vn -0.7343 0.3607 -0.5751
vn -0.7321 0.3800 -0.5653
vn -0.7357 0.1513 -0.6601
vn -0.6391 0.7339 -0.2301
vn -0.7387 0.6632 -0.1201
vn -0.5276 0.7831 -0.3293
vn -0.0990 -0.6785 -0.7279
vn -0.3138 -0.7976 -0.5151
vn -0.3384 -0.6291 -0.6999
vn -0.3384 -0.6291 -0.6998
vn -0.5734 -0.3107 -0.7581
vn 0.7362 -0.1575 0.6582
vn 0.7363 -0.1574 0.6581
usemtl initialShadingGroup.003
s off
f 1/1/1 2/2/1 3/3/1 4/4/1
f 4/5/2 3/6/2 5/7/2 6/8/2
f 7/9/3 8/10/3 9/11/3 10/12/3
f 10/13/4 9/14/4 11/15/4 12/16/4 13/17/4
f 14/18/5 1/19/5 4/20/5 6/21/5 15/22/5 16/23/5 17/24/5 7/25/5 10/26/5 13/27/5 18/28/5 19/29/5 20/30/5 21/31/5 22/32/5 23/33/5 24/34/5 25/35/5 26/36/5 27/37/5
f 28/38/6 2/2/6 1/1/6 14/39/6
f 11/40/7 29/41/7 30/42/7 12/43/7
f 29/41/8 31/44/8 32/45/8 33/46/8 30/42/8
f 34/47/9 35/48/9 36/49/9 37/50/9
f 29/51/10 11/52/10 38/53/10 39/54/10 40/55/10
f 41/56/11 42/57/11 43/58/11 44/59/11
f 45/60/12 30/61/12 33/62/12 46/63/12 47/64/12
f 48/65/13 12/66/13 30/67/13 45/68/13 47/69/13 49/70/13
f 50/71/14 51/72/14 52/73/14 53/74/14
f 54/75/14 55/76/14 56/77/14 57/78/14
f 58/79/14 59/80/14 60/81/14 61/82/14
f 62/83/15 63/84/15 64/85/15 65/86/15
f 66/87/11 50/88/11 53/89/11 67/90/11
f 67/91/16 53/92/16 52/93/16 68/94/16
f 68/95/17 52/96/17 51/97/17 69/98/17
f 69/99/18 51/100/18 50/101/18 66/102/18
f 70/103/19 54/104/19 57/105/19 71/106/19
f 71/107/20 57/108/20 56/109/20 72/110/20
f 72/111/21 56/112/21 55/113/21 73/114/21
f 73/115/22 55/116/22 54/117/22 70/118/22
f 74/119/11 58/120/11 61/121/11 75/122/11
f 75/123/23 61/124/23 60/125/23 76/126/23
f 76/127/17 60/128/17 59/129/17 77/130/17
f 77/131/24 59/132/24 58/133/24 74/134/24
f 28/135/25 78/136/25 79/137/25 80/138/25 81/139/25 82/140/25 83/141/25 84/142/25 85/143/25 39/54/25 38/53/25 11/52/25 9/144/25 8/145/25 86/146/25 87/147/25 88/148/25 5/149/25 3/150/25 2/151/25
f 27/152/26 26/153/26 79/154/26 78/155/26
f 26/156/27 25/157/27 80/158/27 79/159/27
f 21/160/28 20/161/28 85/162/28 84/163/28
f 20/164/29 19/165/29 49/166/29 39/167/29 85/168/29
f 28/38/30 14/39/30 27/152/30 78/155/30
f 48/169/31 49/166/31 19/165/31 18/170/31 13/17/31 12/16/31
f 39/171/32 49/172/32 47/173/32 40/174/32
f 89/175/15 37/176/15 36/177/15 90/178/15
f 36/49/15 35/48/15 91/179/15 92/180/15
f 93/181/15 94/182/15 65/183/15 95/184/15
f 96/185/15 97/186/15 98/187/15 99/188/15
f 100/189/15 101/190/15 102/191/15 103/192/15
f 104/193/15 105/194/15 106/195/15 107/196/15
f 92/197/11 108/198/11 97/199/11 96/200/11
f 108/201/16 90/202/16 98/203/16 97/204/16
f 90/205/17 36/206/17 99/207/17 98/208/17
f 36/209/33 92/210/33 96/211/33 99/212/33
f 62/213/19 65/214/19 101/215/19 100/216/19
f 65/217/20 94/218/20 102/219/20 101/220/20
f 94/221/21 109/222/21 103/223/21 102/224/21
f 109/225/22 62/226/22 100/227/22 103/228/22
f 37/229/11 89/230/11 105/231/11 104/232/11
f 89/233/23 93/234/23 106/235/23 105/236/23
f 93/237/17 95/238/17 107/239/17 106/240/17
f 95/241/34 37/242/34 104/243/34 107/244/34
f 110/245/35 108/246/15 92/180/15 91/179/36
f 68/247/37 69/248/37 74/249/37 75/250/37
f 76/251/14 77/252/14 71/253/14 72/254/14
f 62/255/15 109/256/15 111/257/38 63/258/15
f 65/259/39 64/85/39 112/260/39 95/261/39
f 34/262/40 37/50/40 95/184/40 112/263/40
f 108/264/15 110/265/15 113/266/41 90/178/15
f 90/267/15 113/268/42 114/269/43 89/270/15
f 89/270/44 114/269/45 115/271/46 93/181/44
f 93/181/47 115/272/48 116/273/49 94/182/47
f 94/182/9 116/273/50 111/257/51 109/256/9
f 74/274/52 117/275/52 118/276/52 77/277/52
f 71/278/53 119/279/53 32/280/53 70/281/53
f 70/282/14 32/283/14 31/284/14 73/285/14
f 72/286/54 73/285/54 31/287/55 120/288/54
f 75/289/56 76/290/56 121/291/56 122/292/56
f 68/247/57 75/289/57 122/292/57 123/293/57
f 66/294/14 67/295/14 124/296/58 125/297/59
f 66/294/14 125/297/60 126/298/14 69/299/14
s 1
f 6/8/61 5/7/61 88/300/62 15/301/63
f 15/301/63 88/300/62 87/302/64 16/303/64
f 16/303/65 87/302/65 86/304/66 17/305/67
f 17/305/67 86/304/66 8/10/68 7/9/68
f 124/306/69 127/307/70 128/308/70 125/309/71
f 127/310/70 42/311/72 41/312/72 128/313/70
f 31/314/73 29/51/74 40/55/74 111/315/75
f 124/316/76 123/317/77 122/318/77 121/319/77 120/320/77 31/314/73 111/315/75 116/321/78 115/322/79 114/323/80 113/324/81 110/325/76
f 127/326/82 124/316/83 110/325/83 129/327/82
f 42/328/82 127/326/82 129/327/82 43/329/82
f 128/330/5 41/331/5 44/332/5 130/333/5
f 125/334/84 128/330/5 130/333/5 91/335/84
f 32/336/84 119/337/84 118/338/84 117/339/84 126/340/84 125/334/84 91/335/84 35/341/84 34/342/84 112/343/84 64/344/84 63/345/84
f 33/346/5 32/336/84 63/345/84 46/347/5
f 25/157/85 24/348/86 81/349/87 80/158/85
f 24/348/86 23/350/88 82/351/88 81/349/87
f 23/350/89 22/352/90 83/353/91 82/351/89
f 22/352/90 21/160/92 84/163/92 83/353/91
f 40/174/93 47/173/93 46/354/93 63/355/94 111/356/95
f 110/357/96 91/358/97 130/359/98 129/360/99
f 129/361/99 130/362/98 44/363/100 43/364/100
f 117/275/54 74/274/54 69/299/54 126/298/54
f 119/279/101 71/278/101 77/277/101 118/276/101
f 120/288/102 121/291/102 76/290/102 72/286/102
f 123/293/53 124/365/53 67/366/53 68/247/53
