# Blender v2.79 (sub 6) OBJ File: 'bailarina.blend1'
# www.blender.org
mtllib Guitarra2_000006.mtl
o g2_pPlane4.001
v -4.043945 24.158482 -2.908442
v -3.233269 24.257744 -3.378673
v -3.581094 23.410511 -4.042281
v -4.391770 23.311245 -3.572049
v -3.617147 22.397179 -4.128333
v -4.427823 22.297909 -3.658101
v -3.596850 19.100536 -2.170112
v -2.786174 19.199802 -2.640343
v -2.469460 18.687042 -2.060047
v -3.280136 18.587772 -1.589817
v -1.855572 18.684809 -0.912873
v -2.352505 18.606621 -0.617113
v -2.663327 18.582130 -0.441157
v -3.549357 24.675621 -1.977662
v -4.202650 21.497181 -3.253666
v -3.688360 20.806435 -2.308720
v -3.698935 19.696003 -2.349128
v -2.548524 18.713528 -0.224890
v -2.419097 18.757814 0.016984
v -1.936893 19.554024 0.929910
v -1.842028 20.362854 1.121677
v -1.940321 20.961048 0.949774
v -2.281255 21.818623 0.330803
v -2.084706 23.020702 0.719283
v -2.147922 23.937935 0.618659
v -2.479762 24.686630 0.014596
v -3.006432 24.904804 -0.962223
v -2.735039 24.753185 -2.441512
v -1.139715 14.518414 0.298597
v -1.644127 14.513362 0.569433
v -1.155787 14.339728 0.217392
v -1.835276 14.332922 0.582231
v -1.800579 14.512703 0.650206
v -1.348962 13.882504 1.480681
v -1.318960 13.706637 1.532152
v -1.085581 13.750225 1.391025
v -1.112291 13.905169 1.345846
v -1.732811 18.773115 -0.682589
v -1.610048 18.861423 -0.452306
v -0.890753 14.697502 0.765614
v -1.452789 13.013929 1.269987
v -0.773300 13.020735 0.905146
v -0.693857 13.077883 1.054171
v -1.373344 13.071077 1.419009
v -1.516657 14.602935 0.801337
v -1.549472 14.693335 1.121247
v -1.395167 14.692450 1.036448
v -2.230228 18.722557 -0.398034
v -2.107628 18.782774 -0.157760
v -1.511736 13.236959 0.587355
v -1.542850 13.421293 0.533255
v -1.325991 13.423463 0.416817
v -1.290520 13.239173 0.468577
v -1.653621 14.107504 0.329162
v -1.437342 14.113423 0.211595
v -1.407095 13.932408 0.264887
v -1.628088 13.931172 0.383169
v -1.569558 13.576236 0.488075
v -1.597288 13.779085 0.425071
v -1.384524 13.781217 0.310831
v -1.352445 13.578410 0.371501
v -1.196353 14.436437 1.186932
v -1.468396 14.596835 1.270448
v -1.417332 14.293344 1.359612
v -1.170820 14.260105 1.240940
v -1.421348 13.301978 0.756911
v -1.200132 13.304193 0.638133
v -1.235603 13.488484 0.586371
v -1.452462 13.486313 0.702810
v -1.563232 14.172523 0.498716
v -1.537699 13.996192 0.552723
v -1.316706 13.997425 0.434441
v -1.346954 14.178441 0.381151
v -1.479170 13.641255 0.657630
v -1.262058 13.643430 0.541056
v -1.294136 13.846236 0.480386
v -1.506901 13.844105 0.594626
v -2.195756 25.004070 -1.432452
v -1.669084 24.785900 -0.455635
v -1.337246 24.037201 0.148430
v -1.274031 23.119972 0.249053
v -1.470577 21.917889 -0.139430
v -1.129645 21.060318 0.479541
v -1.031352 20.462120 0.651446
v -1.126217 19.653290 0.459679
v -2.888259 19.795273 -2.819359
v -2.877683 20.905701 -2.778952
v -3.391974 21.596447 -3.723897
v -0.895177 13.907344 1.229271
v -0.868722 13.752395 1.274587
v -1.269150 13.409905 1.619388
v -1.054467 13.565891 1.445126
v -0.927254 14.110148 1.168600
v -0.949826 14.261340 1.122655
v -1.140019 14.108019 1.282841
v -0.964079 13.630911 1.614679
v -0.742864 13.633125 1.495903
v -0.778334 13.817416 1.444141
v -0.995193 13.815245 1.560578
v -1.105964 14.501455 1.356485
v -1.080432 14.325127 1.410492
v -0.859438 14.326358 1.292210
v -0.889684 14.507376 1.238919
v -1.021902 13.970188 1.515400
v -0.804789 13.972362 1.398827
v -0.836867 14.175168 1.338156
v -1.049631 14.173038 1.452395
v -0.833251 13.568106 1.326349
v -0.980072 14.442357 1.069365
v -0.589661 13.416711 1.254548
v -0.788906 14.603642 0.905607
v -1.388515 14.109919 1.414487
v -0.639472 13.713445 1.167313
v -0.664377 13.861809 1.123695
v -0.705472 14.097548 1.055123
v -0.726894 14.241060 1.011648
v -1.715721 13.617931 0.792654
v -1.751853 13.826880 0.731734
v -1.776691 13.988834 0.682992
v -1.098942 14.005035 0.315470
v -1.075715 13.851778 0.361727
v -1.042610 13.659163 0.417982
v -1.015394 13.498332 0.465160
v -0.956542 13.152797 0.566333
v -1.636031 13.145993 0.931173
v -1.685843 13.442725 0.843937
v -0.822273 13.112582 0.815648
v -1.501764 13.105778 1.180487
v -0.682947 13.212806 1.077000
v -1.362438 13.205999 1.441841
vt 0.642023 0.677747
vt 0.693394 0.677747
vt 0.693394 0.731514
vt 0.642023 0.731514
vt 0.788237 0.471761
vt 0.839608 0.466497
vt 0.839608 0.517463
vt 0.788237 0.522727
vt 0.788237 0.718616
vt 0.839608 0.713352
vt 0.839608 0.751579
vt 0.788237 0.756842
vt 0.637737 0.661574
vt 0.586367 0.661574
vt 0.586468 0.594083
vt 0.618160 0.594043
vt 0.637737 0.594003
vt 0.568646 0.493611
vt 0.504856 0.485282
vt 0.451089 0.454466
vt 0.428470 0.403500
vt 0.438427 0.353809
vt 0.482132 0.299060
vt 0.460520 0.242136
vt 0.460753 0.207610
vt 0.486059 0.169384
vt 0.553630 0.146191
vt 0.568646 0.148710
vt 0.583662 0.146191
vt 0.651234 0.169384
vt 0.676539 0.207610
vt 0.676772 0.242136
vt 0.655160 0.299060
vt 0.698865 0.353809
vt 0.708823 0.403500
vt 0.686203 0.454466
vt 0.632436 0.485282
vt 0.693394 0.613957
vt 0.642023 0.613957
vt 0.754283 0.146190
vt 0.755425 0.387151
vt 0.724052 0.387151
vt 0.722590 0.150432
vt 0.756667 0.395046
vt 0.714406 0.395046
vt 0.714406 0.387055
vt 0.715485 0.406028
vt 0.715485 0.406028
vt 0.714672 0.436269
vt 0.715485 0.406028
vt 0.268628 0.733091
vt 0.268840 0.492130
vt 0.283935 0.492130
vt 0.299031 0.492130
vt 0.299242 0.733091
vt 0.493788 0.538661
vt 0.493788 0.496400
vt 0.503557 0.496400
vt 0.503557 0.538661
vt 0.460379 0.511839
vt 0.460193 0.527146
vt 0.450547 0.527278
vt 0.450547 0.496400
vt 0.460193 0.496531
vt 0.712987 0.734728
vt 0.697931 0.733119
vt 0.697680 0.496400
vt 0.712987 0.496400
vt 0.728294 0.496400
vt 0.728043 0.733119
vt 0.431485 0.839581
vt 0.420822 0.839592
vt 0.420822 0.826104
vt 0.431485 0.826116
vt 0.375304 0.839548
vt 0.375087 0.826057
vt 0.385559 0.826066
vt 0.385502 0.839800
vt 0.325241 0.839682
vt 0.313510 0.839290
vt 0.313510 0.826057
vt 0.325241 0.826179
vt 0.715485 0.406028
vt 0.714672 0.436269
vt 0.730219 0.437061
vt 0.729235 0.405347
vt 0.416361 0.839815
vt 0.405246 0.839815
vt 0.405246 0.826057
vt 0.416361 0.826057
vt 0.203576 0.842333
vt 0.203576 0.853448
vt 0.192913 0.853448
vt 0.192913 0.842333
vt 0.231602 0.839545
vt 0.220488 0.839545
vt 0.220488 0.826057
vt 0.231602 0.826057
vt 0.218554 0.842333
vt 0.218554 0.853448
vt 0.207890 0.853448
vt 0.207890 0.842333
vt 0.233066 0.842336
vt 0.233066 0.853451
vt 0.222868 0.853451
vt 0.222868 0.842336
vt 0.356043 0.839792
vt 0.344928 0.839792
vt 0.344928 0.826057
vt 0.356043 0.826057
vt 0.248317 0.842336
vt 0.248317 0.853451
vt 0.237845 0.853451
vt 0.237845 0.842336
vt 0.262405 0.839548
vt 0.251290 0.839548
vt 0.251290 0.826057
vt 0.262405 0.826057
vt 0.293207 0.839560
vt 0.282092 0.839560
vt 0.282092 0.826057
vt 0.293207 0.826057
vt 0.169998 0.837788
vt 0.158883 0.837788
vt 0.158883 0.826057
vt 0.169998 0.826057
vt 0.200800 0.839290
vt 0.189686 0.839290
vt 0.189686 0.826057
vt 0.200800 0.826057
vt 0.154874 0.837788
vt 0.143759 0.837788
vt 0.143759 0.826057
vt 0.154874 0.826057
vt 0.283935 0.146190
vt 0.347725 0.153264
vt 0.401493 0.184080
vt 0.424112 0.235046
vt 0.414154 0.284737
vt 0.370449 0.339486
vt 0.392061 0.396410
vt 0.391828 0.430936
vt 0.366523 0.469162
vt 0.201348 0.469162
vt 0.176043 0.430936
vt 0.175810 0.396410
vt 0.197422 0.339486
vt 0.153717 0.284737
vt 0.143759 0.235046
vt 0.166378 0.184080
vt 0.220145 0.153264
vt 0.642023 0.550167
vt 0.642023 0.496400
vt 0.693394 0.496400
vt 0.693394 0.550167
vt 0.783951 0.471761
vt 0.783951 0.522727
vt 0.732581 0.517463
vt 0.732581 0.466497
vt 0.783951 0.718616
vt 0.783951 0.756842
vt 0.732581 0.751579
vt 0.732581 0.713352
vt 0.637737 0.496400
vt 0.637737 0.563971
vt 0.618160 0.563931
vt 0.586468 0.563891
vt 0.586367 0.496400
vt 0.617880 0.578987
vt 0.637737 0.578987
vt 0.764446 0.146190
vt 0.796139 0.150432
vt 0.794677 0.387151
vt 0.763305 0.387151
vt 0.730219 0.437061
vt 0.729235 0.405347
vt 0.715485 0.406028
vt 0.714672 0.436269
vt 0.729235 0.405347
vt 0.730219 0.437061
vt 0.715485 0.406028
vt 0.729235 0.405347
vt 0.730219 0.437061
vt 0.714672 0.436269
vt 0.431311 0.826068
vt 0.431311 0.839826
vt 0.420647 0.839545
vt 0.420647 0.826057
vt 0.360546 0.826310
vt 0.370744 0.826057
vt 0.370801 0.839792
vt 0.360329 0.839800
vt 0.309224 0.826057
vt 0.309224 0.839560
vt 0.297493 0.839682
vt 0.297493 0.826449
vt 0.389845 0.839815
vt 0.389845 0.826057
vt 0.400960 0.826057
vt 0.400960 0.839815
vt 0.263487 0.853451
vt 0.252823 0.853451
vt 0.252823 0.842336
vt 0.263487 0.842336
vt 0.205087 0.839545
vt 0.205087 0.826057
vt 0.216201 0.826057
vt 0.216201 0.839545
vt 0.278464 0.853464
vt 0.267801 0.853464
vt 0.267801 0.842349
vt 0.278464 0.842349
vt 0.292976 0.853464
vt 0.282778 0.853464
vt 0.282778 0.842349
vt 0.292976 0.842349
vt 0.329527 0.839792
vt 0.329527 0.826057
vt 0.340642 0.826057
vt 0.340642 0.839792
vt 0.308227 0.853586
vt 0.297756 0.853586
vt 0.297756 0.842471
vt 0.308227 0.842471
vt 0.235889 0.839548
vt 0.235889 0.826057
vt 0.247003 0.826057
vt 0.247003 0.839548
vt 0.266691 0.839560
vt 0.266691 0.826057
vt 0.277806 0.826057
vt 0.277806 0.839560
vt 0.160234 0.853810
vt 0.160234 0.842079
vt 0.171349 0.842079
vt 0.171349 0.853810
vt 0.174284 0.839290
vt 0.174284 0.826057
vt 0.185399 0.826057
vt 0.185399 0.839290
vt 0.176573 0.853810
vt 0.176573 0.842079
vt 0.187688 0.842079
vt 0.187688 0.853810
vt 0.715485 0.406028
vt 0.714672 0.436269
vt 0.755988 0.400532
vt 0.756194 0.387880
vt 0.755988 0.400532
vt 0.719208 0.402080
vt 0.719250 0.387954
vt 0.756194 0.387880
vt 0.755988 0.400532
vt 0.719208 0.402080
vt 0.714672 0.436269
vt 0.715485 0.406028
vt 0.714672 0.436269
vt 0.730219 0.437061
vt 0.714672 0.436269
vt 0.729235 0.405347
vt 0.715485 0.406028
vt 0.729235 0.405347
vt 0.730219 0.437061
vt 0.730219 0.437061
vt 0.714672 0.436269
vt 0.715485 0.406028
vt 0.715485 0.406028
vt 0.729235 0.405347
vt 0.730219 0.437061
vt 0.714672 0.436269
vt 0.729235 0.405347
vt 0.714672 0.436269
vt 0.730219 0.437061
vt 0.719208 0.402080
vt 0.755988 0.400532
vt 0.756194 0.387880
vt 0.719250 0.387954
vt 0.719208 0.402080
vt 0.755988 0.400532
vt 0.719208 0.402080
vt 0.719250 0.387954
vt 0.719208 0.402080
vt 0.719250 0.387954
vt 0.756194 0.387880
vt 0.755988 0.400532
vt 0.756194 0.387880
vt 0.719208 0.402080
vt 0.719250 0.387954
vt 0.756194 0.387880
vt 0.755988 0.400532
vt 0.719208 0.402080
vt 0.719250 0.387954
vt 0.719208 0.402080
vt 0.719208 0.402080
vt 0.719250 0.387954
vt 0.756194 0.387880
vt 0.755988 0.400532
vt 0.756194 0.387880
vt 0.719250 0.387954
vt 0.839608 0.567154
vt 0.788237 0.572418
vt 0.839608 0.621903
vt 0.788237 0.627167
vt 0.839608 0.678826
vt 0.788237 0.684090
vt 0.518689 0.496400
vt 0.532680 0.496400
vt 0.532680 0.538661
vt 0.518689 0.538661
vt 0.507843 0.496400
vt 0.514402 0.496400
vt 0.514402 0.538661
vt 0.507843 0.538661
vt 0.261378 0.740986
vt 0.306493 0.740986
vt 0.261378 0.809648
vt 0.261378 0.792482
vt 0.261378 0.783900
vt 0.261378 0.775317
vt 0.261378 0.758151
vt 0.306493 0.758151
vt 0.306493 0.775317
vt 0.306493 0.783900
vt 0.306493 0.792482
vt 0.306493 0.809648
vt 0.275369 0.816709
vt 0.292502 0.816709
vt 0.279051 0.823269
vt 0.288820 0.823269
vt 0.550957 0.502959
vt 0.554639 0.496400
vt 0.564408 0.496400
vt 0.568090 0.502959
vt 0.536966 0.510020
vt 0.582080 0.510020
vt 0.536966 0.578682
vt 0.536966 0.561517
vt 0.536966 0.544351
vt 0.536966 0.535768
vt 0.536966 0.527185
vt 0.582080 0.527185
vt 0.582080 0.535768
vt 0.582080 0.544351
vt 0.582080 0.561517
vt 0.582080 0.578682
vt 0.544084 0.586674
vt 0.574962 0.586674
vt 0.783951 0.572418
vt 0.732581 0.567154
vt 0.783951 0.627167
vt 0.732581 0.621903
vt 0.783951 0.684090
vt 0.732581 0.678826
vt 0.804323 0.387055
vt 0.804323 0.395046
vt 0.762062 0.395046
vt 0.489502 0.496400
vt 0.489502 0.538661
vt 0.475511 0.538661
vt 0.475511 0.496400
vt 0.464665 0.538661
vt 0.464665 0.496400
vt 0.471225 0.496400
vt 0.471225 0.538661
vt 0.719208 0.402080
vt 0.719208 0.402080
vn -0.4361 0.6590 -0.6128
vn -0.5080 0.0908 -0.8566
vn -0.2336 -0.7884 -0.5691
vn 0.0902 -0.9942 -0.0581
vn -0.8810 -0.0088 0.4730
vn -0.2890 0.8976 -0.3329
vn -0.4464 -0.3196 -0.8358
vn -0.4344 0.4030 -0.8056
vn 0.4456 0.3206 0.8359
vn 0.8802 0.0133 -0.4743
vn 0.1590 -0.9472 0.2785
vn -0.1503 0.9472 -0.2831
vn -0.8800 -0.0145 0.4747
vn -0.4456 -0.3205 -0.8359
vn 0.4456 0.3205 0.8359
vn 0.8765 0.0338 -0.4802
vn -0.1590 0.9472 -0.2785
vn -0.8808 -0.0098 0.4733
vn -0.8847 0.0146 0.4660
vn 0.1554 -0.9472 0.2804
vn 0.8811 0.0080 -0.4728
vn -0.1731 0.9469 -0.2708
vn 0.8826 -0.0010 -0.4701
vn -0.8858 0.0229 0.4635
vn 0.8810 0.0087 -0.4730
vn 0.0053 0.9765 0.2153
vn 0.3059 0.6763 0.6701
vn 0.5084 -0.2547 0.8226
vn 0.3817 -0.7845 0.4887
vn -0.1827 0.9741 -0.1333
vn 0.1944 -0.9461 0.2592
vn 0.4448 0.3214 0.8359
vn 0.3094 0.3976 0.8638
vn 0.5520 0.3979 0.7328
vn 0.3399 0.2322 0.9113
vn 0.4455 0.3203 0.8360
vn 0.4454 0.3207 0.8359
vn 0.4046 0.3271 0.8540
vn 0.4379 0.3631 0.8224
vn 0.4047 0.3282 0.8535
vn 0.4457 0.3207 0.8358
vn 0.4378 0.3632 0.8225
vn 0.4050 0.3226 0.8555
vn 0.4457 0.3202 0.8360
vn 0.4388 0.3627 0.8221
vn 0.4049 0.3235 0.8552
vn 0.4455 0.3206 0.8359
vn 0.4377 0.3631 0.8225
vn 0.4162 0.2959 0.8598
vn -0.4454 -0.3206 -0.8359
vn -0.4457 -0.3206 -0.8358
vn -0.4455 -0.3206 -0.8359
vn -0.4739 -0.3446 -0.8104
vn -0.4458 -0.3206 -0.8357
vn -0.5634 -0.3187 -0.7622
vn -0.3257 -0.3166 -0.8909
vn -0.3527 -0.2530 -0.9009
vn -0.3879 -0.5001 -0.7742
vn -0.2879 -0.7073 -0.6456
vn -0.2763 -0.7261 -0.6297
vn -0.1923 -0.8392 -0.5087
vn -0.5047 0.0362 -0.8625
vn -0.4920 -0.0861 -0.8663
vn -0.4890 -0.1076 -0.8656
vn -0.4439 -0.3269 -0.8343
vn 0.0068 -1.0000 -0.0059
vn -0.1461 -0.9459 -0.2897
vn 0.0036 -0.9999 -0.0121
vn -0.3107 -0.7431 -0.5926
vn 0.8796 0.0160 -0.4755
vn 0.8456 0.1560 -0.5106
vn 0.8809 0.0087 -0.4732
vn 0.8807 0.0086 -0.4736
vn 0.8870 -0.0345 -0.4604
vn 0.8870 -0.0339 -0.4606
vn 0.8870 -0.0342 -0.4605
vn 0.8870 -0.0341 -0.4605
vn 0.8810 0.0088 -0.4730
vn 0.8807 0.0086 -0.4735
vn -0.8812 -0.0089 0.4727
vn -0.8811 -0.0089 0.4728
vn 0.4858 0.1283 0.8646
vn 0.5099 -0.1604 0.8452
vn 0.5095 -0.1338 0.8500
vn 0.5027 -0.3392 0.7951
vn 0.3279 0.6351 0.6994
vn 0.3808 0.5180 0.7659
vn 0.3734 0.5364 0.7569
vn 0.4473 0.3141 0.8374
vn 0.2231 0.8759 0.4277
vn 0.3643 0.8653 0.3443
vn 0.0823 0.8641 0.4965
vn 0.1988 -0.6937 0.6923
vn 0.4846 -0.6899 0.5377
vn 0.3980 -0.5546 0.7308
vn 0.4664 -0.1841 0.8652
vn -0.4456 -0.3206 -0.8359
vn -0.4456 -0.3202 -0.8360
vn -0.4457 -0.3202 -0.8359
usemtl initialShadingGroup.003
s off
f 1/1/1 2/2/1 3/3/1 4/4/1
f 4/5/2 3/6/2 5/7/2 6/8/2
f 7/9/3 8/10/3 9/11/3 10/12/3
f 10/13/4 9/14/4 11/15/4 12/16/4 13/17/4
f 14/18/5 1/19/5 4/20/5 6/21/5 15/22/5 16/23/5 17/24/5 7/25/5 10/26/5 13/27/5 18/28/5 19/29/5 20/30/5 21/31/5 22/32/5 23/33/5 24/34/5 25/35/5 26/36/5 27/37/5
f 28/38/6 2/2/6 1/1/6 14/39/6
f 11/40/7 29/41/7 30/42/7 12/43/7
f 29/41/8 31/44/8 32/45/8 33/46/8 30/42/8
f 34/47/9 35/48/9 36/49/9 37/50/9
f 29/51/10 11/52/10 38/53/10 39/54/10 40/55/10
f 41/56/11 42/57/11 43/58/11 44/59/11
f 45/60/12 30/61/12 33/62/12 46/63/12 47/64/12
f 48/65/13 12/66/13 30/67/13 45/68/13 47/69/13 49/70/13
f 50/71/14 51/72/14 52/73/14 53/74/14
f 54/75/14 55/76/14 56/77/14 57/78/14
f 58/79/14 59/80/14 60/81/14 61/82/14
f 62/83/15 63/84/15 64/85/15 65/86/15
f 66/87/11 50/88/11 53/89/11 67/90/11
f 67/91/16 53/92/16 52/93/16 68/94/16
f 68/95/17 52/96/17 51/97/17 69/98/17
f 69/99/18 51/100/18 50/101/18 66/102/18
f 70/103/19 54/104/19 57/105/19 71/106/19
f 71/107/20 57/108/20 56/109/20 72/110/20
f 72/111/21 56/112/21 55/113/21 73/114/21
f 73/115/22 55/116/22 54/117/22 70/118/22
f 74/119/11 58/120/11 61/121/11 75/122/11
f 75/123/23 61/124/23 60/125/23 76/126/23
f 76/127/17 60/128/17 59/129/17 77/130/17
f 77/131/24 59/132/24 58/133/24 74/134/24
f 28/135/25 78/136/25 79/137/25 80/138/25 81/139/25 82/140/25 83/141/25 84/142/25 85/143/25 39/54/25 38/53/25 11/52/25 9/144/25 8/145/25 86/146/25 87/147/25 88/148/25 5/149/25 3/150/25 2/151/25
f 27/152/26 26/153/26 79/154/26 78/155/26
f 26/156/27 25/157/27 80/158/27 79/159/27
f 21/160/28 20/161/28 85/162/28 84/163/28
f 20/164/29 19/165/29 49/166/29 39/167/29 85/168/29
f 28/38/30 14/39/30 27/152/30 78/155/30
f 48/169/31 49/166/31 19/165/31 18/170/31 13/17/31 12/16/31
f 39/171/32 49/172/32 47/173/32 40/174/32
f 89/175/15 37/176/15 36/177/15 90/178/15
f 36/49/15 35/48/15 91/179/15 92/180/15
f 93/181/15 94/182/15 65/183/15 95/184/15
f 96/185/15 97/186/15 98/187/15 99/188/15
f 100/189/15 101/190/15 102/191/15 103/192/15
f 104/193/15 105/194/15 106/195/15 107/196/15
f 92/197/11 108/198/11 97/199/11 96/200/11
f 108/201/16 90/202/16 98/203/16 97/204/16
f 90/205/17 36/206/17 99/207/17 98/208/17
f 36/209/18 92/210/18 96/211/18 99/212/18
f 62/213/19 65/214/19 101/215/19 100/216/19
f 65/217/20 94/218/20 102/219/20 101/220/20
f 94/221/21 109/222/21 103/223/21 102/224/21
f 109/225/22 62/226/22 100/227/22 103/228/22
f 37/229/11 89/230/11 105/231/11 104/232/11
f 89/233/23 93/234/23 106/235/23 105/236/23
f 93/237/17 95/238/17 107/239/17 106/240/17
f 95/241/24 37/242/24 104/243/24 107/244/24
f 110/245/33 108/246/15 92/180/15 91/179/34
f 68/247/14 69/248/14 74/249/14 75/250/14
f 76/251/14 77/252/14 71/253/14 72/254/14
f 62/255/15 109/256/15 111/257/35 63/258/15
f 65/259/36 64/85/36 112/260/36 95/261/36
f 34/262/37 37/50/37 95/184/37 112/263/37
f 108/264/15 110/265/15 113/266/38 90/178/15
f 90/267/15 113/268/39 114/269/40 89/270/15
f 89/270/41 114/269/42 115/271/43 93/181/41
f 93/181/44 115/272/45 116/273/46 94/182/44
f 94/182/47 116/273/48 111/257/49 109/256/47
f 74/274/50 117/275/50 118/276/50 77/277/50
f 71/278/51 119/279/51 32/280/51 70/281/51
f 70/282/14 32/283/14 31/284/14 73/285/14
f 72/286/52 73/285/52 31/287/53 120/288/52
f 75/289/54 76/290/54 121/291/54 122/292/54
f 68/247/51 75/289/51 122/292/51 123/293/51
f 66/294/14 67/295/14 124/296/55 125/297/56
f 66/294/14 125/297/57 126/298/14 69/299/14
s 1
f 6/8/58 5/7/58 88/300/59 15/301/60
f 15/301/60 88/300/59 87/302/61 16/303/61
f 16/303/62 87/302/62 86/304/63 17/305/64
f 17/305/64 86/304/63 8/10/65 7/9/65
f 124/306/66 127/307/67 128/308/67 125/309/68
f 127/310/67 42/311/69 41/312/69 128/313/67
f 31/314/70 29/51/71 40/55/71 111/315/70
f 124/316/72 123/317/73 122/318/73 121/319/73 120/320/73 31/314/70 111/315/70 116/321/74 115/322/75 114/323/76 113/324/77 110/325/72
f 127/326/78 124/316/79 110/325/79 129/327/78
f 42/328/78 127/326/78 129/327/78 43/329/78
f 128/330/5 41/331/5 44/332/5 130/333/5
f 125/334/80 128/330/5 130/333/5 91/335/80
f 32/336/81 119/337/81 118/338/81 117/339/81 126/340/81 125/334/81 91/335/81 35/341/81 34/342/81 112/343/81 64/344/81 63/345/81
f 33/346/5 32/336/80 63/345/80 46/347/5
f 25/157/82 24/348/83 81/349/84 80/158/82
f 24/348/83 23/350/85 82/351/85 81/349/84
f 23/350/86 22/352/87 83/353/88 82/351/86
f 22/352/87 21/160/89 84/163/89 83/353/88
f 40/174/90 47/173/90 46/354/90 63/355/91 111/356/92
f 110/357/93 91/358/94 130/359/95 129/360/95
f 129/361/95 130/362/95 44/363/96 43/364/96
f 117/275/97 74/274/97 69/299/97 126/298/97
f 119/279/98 71/278/98 77/277/98 118/276/98
f 120/288/99 121/291/99 76/290/99 72/286/99
f 123/293/51 124/365/51 67/366/51 68/247/51
