# Blender v2.79 (sub 6) OBJ File: 'bailarinaacortados.blend1'
# www.blender.org
mtllib guitarra2_000202.mtl
o g2_pPlane4.001
v -10.747584 0.838791 7.916299
v -10.749145 1.411666 8.664618
v -11.181090 2.205082 7.984124
v -11.179528 1.632211 7.235803
v -10.939621 2.929054 7.310987
v -10.938059 2.356184 6.562667
v -8.291239 4.081097 4.788733
v -8.292799 4.653967 5.537054
v -7.502310 4.821959 5.320537
v -7.500750 4.249088 4.572217
v -6.273684 4.457789 5.545768
v -6.261084 4.114213 5.074253
v -6.268359 3.887754 4.797063
v -9.920735 0.187347 8.436247
v -10.241150 2.778049 6.124740
v -9.001415 2.952456 5.865538
v -8.679082 3.728662 5.138621
v -6.079943 3.728665 4.925148
v -5.835410 3.621318 5.001934
v -5.119575 2.783706 5.698993
v -5.180454 2.166711 6.260764
v -5.561575 1.810140 6.613832
v -6.507030 1.417406 7.045881
v -6.486659 0.467528 7.901371
v -6.896465 -0.131023 8.475157
v -7.790101 -0.453654 8.839690
v -8.908381 -0.293057 8.786613
v -9.908312 0.773110 9.171785
v -3.592142 6.947695 3.106780
v -3.626988 6.564832 2.682504
v -3.607362 7.108241 2.993756
v -3.654304 6.592490 2.422217
v -3.640679 6.447289 2.552126
v -2.543813 6.616191 2.308907
v -2.430463 6.721003 2.205732
v -2.440393 6.878930 2.432103
v -2.540261 6.786364 2.522766
v -6.056063 4.323866 5.648746
v -5.838442 4.189941 5.751723
v -3.150805 6.676097 3.315621
v -2.483234 7.280554 1.705131
v -2.436293 7.796307 2.276671
v -2.295464 7.709640 2.343311
v -2.342405 7.193888 1.771773
v -3.406112 6.431302 2.789438
v -3.195538 6.173348 2.762767
v -3.185652 6.293232 2.891343
v -6.061644 3.967540 5.197134
v -5.826988 3.847067 5.279670
v -3.132235 7.487399 1.940110
v -3.250997 7.377778 2.048524
v -3.236014 7.542381 2.230929
v -3.116954 7.655308 2.126181
v -3.692722 6.973564 2.456322
v -3.680151 7.135979 2.640977
v -3.563551 7.243391 2.534259
v -3.579436 7.075194 2.349089
v -3.350866 7.285213 2.139187
v -3.481064 7.169554 2.263917
v -3.466365 7.331048 2.442880
v -3.335865 7.450008 2.321807
v -2.882119 6.474715 2.839901
v -3.003930 6.192248 2.729973
v -2.808408 6.372600 2.551344
v -2.768832 6.576346 2.732666
v -2.972003 7.388791 2.015933
v -2.956721 7.556701 2.202002
v -3.075783 7.443774 2.306752
v -3.090764 7.279171 2.124346
v -3.532491 6.874958 2.532145
v -3.419204 6.976588 2.424911
v -3.403318 7.144784 2.610081
v -3.519919 7.037372 2.716797
v -3.190634 7.186607 2.215010
v -3.175633 7.351401 2.397629
v -3.306134 7.232442 2.518703
v -3.320832 7.070948 2.339740
v -8.909940 0.279815 9.534932
v -7.791660 0.119221 9.588010
v -6.898025 0.441848 9.223476
v -6.488219 1.040400 8.649692
v -6.508591 1.990281 7.794204
v -5.563137 2.383013 7.362152
v -5.182014 2.739583 7.009084
v -5.121136 3.356579 6.447314
v -8.680640 4.301532 5.886943
v -9.002975 3.525329 6.613855
v -10.242710 3.350922 6.873060
v -2.525262 6.951160 2.705387
v -2.425410 7.043534 2.614507
v -2.239308 6.897253 2.030987
v -2.321631 6.988551 2.323691
v -2.655761 6.832201 2.826460
v -2.752947 6.744543 2.917838
v -2.670459 6.670706 2.647497
v -2.161401 6.889944 2.399512
v -2.146117 7.057852 2.585581
v -2.265180 6.944927 2.690330
v -2.280162 6.780325 2.507924
v -2.721887 6.376111 2.915723
v -2.608602 6.477739 2.808490
v -2.592716 6.645937 2.993660
v -2.709316 6.538525 3.100377
v -2.380029 6.687759 2.598589
v -2.365030 6.852554 2.781209
v -2.495530 6.733594 2.902281
v -2.510228 6.572101 2.723319
v -2.306348 7.156459 2.509759
v -2.869547 6.637130 3.024557
v -2.192367 7.413004 2.602526
v -2.956991 6.708001 3.301514
v -2.690475 6.480103 2.441697
v -2.383523 7.236753 2.777273
v -2.479100 7.148629 2.864645
v -2.631143 7.007489 3.002219
v -2.723282 6.924206 3.088934
v -3.193759 7.016832 2.000771
v -3.328489 6.891947 2.122951
v -3.432545 6.797474 2.220260
v -3.391675 7.307525 2.797199
v -3.293240 7.396721 2.704886
v -3.169066 7.511696 2.592090
v -3.065432 7.607385 2.497554
v -2.842740 7.813246 2.294767
v -2.889681 7.297493 1.723230
v -3.080838 7.121242 1.897977
v -2.562413 7.761622 2.318328
v -2.609356 7.245870 1.746790
v -2.315431 7.609628 2.435203
v -2.362371 7.093877 1.863662
vt 0.642023 0.677747
vt 0.693394 0.677747
vt 0.693394 0.731514
vt 0.642023 0.731514
vt 0.788237 0.471761
vt 0.839608 0.466497
vt 0.839608 0.517463
vt 0.788237 0.522727
vt 0.788237 0.718616
vt 0.839608 0.713352
vt 0.839608 0.751579
vt 0.788237 0.756842
vt 0.637737 0.661574
vt 0.586367 0.661574
vt 0.586468 0.594083
vt 0.618160 0.594043
vt 0.637737 0.594003
vt 0.568646 0.493611
vt 0.504856 0.485282
vt 0.451089 0.454466
vt 0.428470 0.403500
vt 0.438427 0.353809
vt 0.482132 0.299060
vt 0.460520 0.242136
vt 0.460753 0.207610
vt 0.486059 0.169384
vt 0.553630 0.146191
vt 0.568646 0.148710
vt 0.583662 0.146191
vt 0.651234 0.169384
vt 0.676539 0.207610
vt 0.676772 0.242136
vt 0.655160 0.299060
vt 0.698865 0.353809
vt 0.708823 0.403500
vt 0.686203 0.454466
vt 0.632436 0.485282
vt 0.693394 0.613957
vt 0.642023 0.613957
vt 0.754283 0.146190
vt 0.755425 0.387151
vt 0.724052 0.387151
vt 0.722590 0.150432
vt 0.756667 0.395046
vt 0.714406 0.395046
vt 0.714406 0.387055
vt 0.715485 0.406028
vt 0.715485 0.406028
vt 0.714672 0.436269
vt 0.715485 0.406028
vt 0.268628 0.733091
vt 0.268840 0.492130
vt 0.283935 0.492130
vt 0.299031 0.492130
vt 0.299242 0.733091
vt 0.493788 0.538661
vt 0.493788 0.496400
vt 0.503557 0.496400
vt 0.503557 0.538661
vt 0.460379 0.511839
vt 0.460193 0.527146
vt 0.450547 0.527278
vt 0.450547 0.496400
vt 0.460193 0.496531
vt 0.712987 0.734728
vt 0.697931 0.733119
vt 0.697680 0.496400
vt 0.712987 0.496400
vt 0.728294 0.496400
vt 0.728043 0.733119
vt 0.431485 0.839581
vt 0.420822 0.839592
vt 0.420822 0.826104
vt 0.431485 0.826116
vt 0.375304 0.839548
vt 0.375087 0.826057
vt 0.385559 0.826066
vt 0.385502 0.839800
vt 0.325241 0.839682
vt 0.313510 0.839290
vt 0.313510 0.826057
vt 0.325241 0.826179
vt 0.715485 0.406028
vt 0.714672 0.436269
vt 0.730219 0.437061
vt 0.729235 0.405347
vt 0.416361 0.839815
vt 0.405246 0.839815
vt 0.405246 0.826057
vt 0.416361 0.826057
vt 0.203576 0.842333
vt 0.203576 0.853448
vt 0.192913 0.853448
vt 0.192913 0.842333
vt 0.231602 0.839545
vt 0.220488 0.839545
vt 0.220488 0.826057
vt 0.231602 0.826057
vt 0.218554 0.842333
vt 0.218554 0.853448
vt 0.207890 0.853448
vt 0.207890 0.842333
vt 0.233066 0.842336
vt 0.233066 0.853451
vt 0.222868 0.853451
vt 0.222868 0.842336
vt 0.356043 0.839792
vt 0.344928 0.839792
vt 0.344928 0.826057
vt 0.356043 0.826057
vt 0.248317 0.842336
vt 0.248317 0.853451
vt 0.237845 0.853451
vt 0.237845 0.842336
vt 0.262405 0.839548
vt 0.251290 0.839548
vt 0.251290 0.826057
vt 0.262405 0.826057
vt 0.293207 0.839560
vt 0.282092 0.839560
vt 0.282092 0.826057
vt 0.293207 0.826057
vt 0.169998 0.837788
vt 0.158883 0.837788
vt 0.158883 0.826057
vt 0.169998 0.826057
vt 0.200800 0.839290
vt 0.189686 0.839290
vt 0.189686 0.826057
vt 0.200800 0.826057
vt 0.154874 0.837788
vt 0.143759 0.837788
vt 0.143759 0.826057
vt 0.154874 0.826057
vt 0.283935 0.146190
vt 0.347725 0.153264
vt 0.401493 0.184080
vt 0.424112 0.235046
vt 0.414154 0.284737
vt 0.370449 0.339486
vt 0.392061 0.396410
vt 0.391828 0.430936
vt 0.366523 0.469162
vt 0.201348 0.469162
vt 0.176043 0.430936
vt 0.175810 0.396410
vt 0.197422 0.339486
vt 0.153717 0.284737
vt 0.143759 0.235046
vt 0.166378 0.184080
vt 0.220145 0.153264
vt 0.642023 0.550167
vt 0.642023 0.496400
vt 0.693394 0.496400
vt 0.693394 0.550167
vt 0.783951 0.471761
vt 0.783951 0.522727
vt 0.732581 0.517463
vt 0.732581 0.466497
vt 0.783951 0.718616
vt 0.783951 0.756842
vt 0.732581 0.751579
vt 0.732581 0.713352
vt 0.637737 0.496400
vt 0.637737 0.563971
vt 0.618160 0.563931
vt 0.586468 0.563891
vt 0.586367 0.496400
vt 0.617880 0.578987
vt 0.637737 0.578987
vt 0.764446 0.146190
vt 0.796139 0.150432
vt 0.794677 0.387151
vt 0.763305 0.387151
vt 0.730219 0.437061
vt 0.729235 0.405347
vt 0.715485 0.406028
vt 0.714672 0.436269
vt 0.729235 0.405347
vt 0.730219 0.437061
vt 0.715485 0.406028
vt 0.729235 0.405347
vt 0.730219 0.437061
vt 0.714672 0.436269
vt 0.431311 0.826068
vt 0.431311 0.839826
vt 0.420647 0.839545
vt 0.420647 0.826057
vt 0.360546 0.826310
vt 0.370744 0.826057
vt 0.370801 0.839792
vt 0.360329 0.839800
vt 0.309224 0.826057
vt 0.309224 0.839560
vt 0.297493 0.839682
vt 0.297493 0.826449
vt 0.389845 0.839815
vt 0.389845 0.826057
vt 0.400960 0.826057
vt 0.400960 0.839815
vt 0.263487 0.853451
vt 0.252823 0.853451
vt 0.252823 0.842336
vt 0.263487 0.842336
vt 0.205087 0.839545
vt 0.205087 0.826057
vt 0.216201 0.826057
vt 0.216201 0.839545
vt 0.278464 0.853464
vt 0.267801 0.853464
vt 0.267801 0.842349
vt 0.278464 0.842349
vt 0.292976 0.853464
vt 0.282778 0.853464
vt 0.282778 0.842349
vt 0.292976 0.842349
vt 0.329527 0.839792
vt 0.329527 0.826057
vt 0.340642 0.826057
vt 0.340642 0.839792
vt 0.308227 0.853586
vt 0.297756 0.853586
vt 0.297756 0.842471
vt 0.308227 0.842471
vt 0.235889 0.839548
vt 0.235889 0.826057
vt 0.247003 0.826057
vt 0.247003 0.839548
vt 0.266691 0.839560
vt 0.266691 0.826057
vt 0.277806 0.826057
vt 0.277806 0.839560
vt 0.160234 0.853810
vt 0.160234 0.842079
vt 0.171349 0.842079
vt 0.171349 0.853810
vt 0.174284 0.839290
vt 0.174284 0.826057
vt 0.185399 0.826057
vt 0.185399 0.839290
vt 0.176573 0.853810
vt 0.176573 0.842079
vt 0.187688 0.842079
vt 0.187688 0.853810
vt 0.715485 0.406028
vt 0.714672 0.436269
vt 0.755988 0.400532
vt 0.756194 0.387880
vt 0.755988 0.400532
vt 0.719208 0.402080
vt 0.719250 0.387954
vt 0.756194 0.387880
vt 0.755988 0.400532
vt 0.719208 0.402080
vt 0.714672 0.436269
vt 0.715485 0.406028
vt 0.714672 0.436269
vt 0.730219 0.437061
vt 0.714672 0.436269
vt 0.729235 0.405347
vt 0.715485 0.406028
vt 0.729235 0.405347
vt 0.730219 0.437061
vt 0.730219 0.437061
vt 0.714672 0.436269
vt 0.715485 0.406028
vt 0.715485 0.406028
vt 0.729235 0.405347
vt 0.730219 0.437061
vt 0.714672 0.436269
vt 0.729235 0.405347
vt 0.714672 0.436269
vt 0.730219 0.437061
vt 0.719208 0.402080
vt 0.755988 0.400532
vt 0.756194 0.387880
vt 0.719250 0.387954
vt 0.719208 0.402080
vt 0.755988 0.400532
vt 0.719208 0.402080
vt 0.719250 0.387954
vt 0.719208 0.402080
vt 0.719250 0.387954
vt 0.756194 0.387880
vt 0.755988 0.400532
vt 0.756194 0.387880
vt 0.719208 0.402080
vt 0.719250 0.387954
vt 0.756194 0.387880
vt 0.755988 0.400532
vt 0.719208 0.402080
vt 0.719250 0.387954
vt 0.719208 0.402080
vt 0.719208 0.402080
vt 0.719250 0.387954
vt 0.756194 0.387880
vt 0.755988 0.400532
vt 0.756194 0.387880
vt 0.719250 0.387954
vt 0.839608 0.567154
vt 0.788237 0.572418
vt 0.839608 0.621903
vt 0.788237 0.627167
vt 0.839608 0.678826
vt 0.788237 0.684090
vt 0.518689 0.496400
vt 0.532680 0.496400
vt 0.532680 0.538661
vt 0.518689 0.538661
vt 0.507843 0.496400
vt 0.514402 0.496400
vt 0.514402 0.538661
vt 0.507843 0.538661
vt 0.261378 0.740986
vt 0.306493 0.740986
vt 0.261378 0.809648
vt 0.261378 0.792482
vt 0.261378 0.783900
vt 0.261378 0.775317
vt 0.261378 0.758151
vt 0.306493 0.758151
vt 0.306493 0.775317
vt 0.306493 0.783900
vt 0.306493 0.792482
vt 0.306493 0.809648
vt 0.275369 0.816709
vt 0.292502 0.816709
vt 0.279051 0.823269
vt 0.288820 0.823269
vt 0.550957 0.502959
vt 0.554639 0.496400
vt 0.564408 0.496400
vt 0.568090 0.502959
vt 0.536966 0.510020
vt 0.582080 0.510020
vt 0.536966 0.578682
vt 0.536966 0.561517
vt 0.536966 0.544351
vt 0.536966 0.535768
vt 0.536966 0.527185
vt 0.582080 0.527185
vt 0.582080 0.535768
vt 0.582080 0.544351
vt 0.582080 0.561517
vt 0.582080 0.578682
vt 0.544084 0.586674
vt 0.574962 0.586674
vt 0.783951 0.572418
vt 0.732581 0.567154
vt 0.783951 0.627167
vt 0.732581 0.621903
vt 0.783951 0.684090
vt 0.732581 0.678826
vt 0.804323 0.387055
vt 0.804323 0.395046
vt 0.762062 0.395046
vt 0.489502 0.496400
vt 0.489502 0.538661
vt 0.475511 0.538661
vt 0.475511 0.496400
vt 0.464665 0.538661
vt 0.464665 0.496400
vt 0.471225 0.496400
vt 0.471225 0.538661
vt 0.719208 0.402080
vt 0.719208 0.402080
vn -0.9240 -0.3046 0.2313
vn -0.9712 0.1881 -0.1461
vn -0.3179 0.7525 -0.5768
vn 0.3211 0.7535 -0.5738
vn -0.0609 -0.6687 -0.7410
vn -0.7031 -0.5580 0.4408
vn -0.7905 0.4851 -0.3738
vn -0.9946 -0.0199 0.1023
vn 0.7899 -0.4862 0.3738
vn 0.0580 0.6660 0.7437
vn 0.6102 0.5626 -0.5578
vn -0.6096 -0.5560 0.5651
vn -0.0572 -0.6653 -0.7443
vn -0.7899 0.4861 -0.3738
vn 0.7899 -0.4861 0.3738
vn 0.0447 0.6536 0.7555
vn -0.6102 -0.5626 0.5578
vn -0.0603 -0.6681 -0.7416
vn -0.0759 -0.6824 -0.7270
vn 0.6099 0.5598 -0.5609
vn 0.0614 0.6692 0.7406
vn -0.6111 -0.5733 0.5458
vn 0.0672 0.6745 0.7352
vn -0.0812 -0.6871 -0.7220
vn 0.0609 0.6688 0.7410
vn -0.1415 -0.7862 0.6016
vn 0.4715 -0.6997 0.5367
vn 0.9973 -0.0569 0.0456
vn 0.8378 0.4355 -0.3292
vn -0.5145 -0.6740 0.5301
vn 0.6121 0.5891 -0.5275
vn 0.7893 -0.4871 0.3738
vn 0.7188 -0.6175 0.3193
vn 0.7357 -0.4315 0.5221
vn 0.8259 -0.5173 0.2242
vn 0.7901 -0.4861 0.3735
vn 0.7898 -0.4863 0.3737
vn 0.7817 -0.5198 0.3447
vn 0.7615 -0.5111 0.3986
vn 0.7810 -0.5202 0.3455
vn 0.7898 -0.4861 0.3740
vn 0.7614 -0.5112 0.3986
vn 0.7846 -0.5174 0.3417
vn 0.7901 -0.4859 0.3736
vn 0.7618 -0.5103 0.3991
vn 0.7840 -0.5179 0.3423
vn 0.7899 -0.4862 0.3737
vn 0.7614 -0.5113 0.3985
vn 0.8023 -0.4965 0.3315
vn -0.7898 0.4863 -0.3737
vn -0.7899 0.4861 -0.3739
vn -0.7899 0.4862 -0.3738
vn -0.7759 0.4750 -0.4152
vn -0.7899 0.4860 -0.3740
vn -0.7899 0.4860 -0.3739
vn -0.7907 0.3887 -0.4729
vn -0.7750 0.5700 -0.2729
vn -0.8172 0.5197 -0.2491
vn -0.6533 0.6005 -0.4611
vn -0.4328 0.7154 -0.5486
vn -0.4081 0.7245 -0.5555
vn -0.2323 0.7721 -0.5915
vn -0.9566 0.2303 -0.1783
vn -0.9137 0.3218 -0.2483
vn -0.9046 0.3376 -0.2603
vn -0.7857 0.4904 -0.3770
vn 0.3229 0.6893 -0.6485
vn 0.0011 0.7424 -0.6700
vn 0.3163 0.6913 -0.6497
vn -0.3902 0.6993 -0.5990
vn 0.0559 0.6646 0.7451
vn -0.0347 0.5731 0.8187
vn 0.0558 0.6646 0.7451
vn 0.0608 0.6688 0.7410
vn 0.0604 0.6690 0.7408
vn 0.0880 0.6939 0.7146
vn 0.0877 0.6936 0.7150
vn 0.0879 0.6938 0.7148
vn 0.0878 0.6937 0.7149
vn 0.0609 0.6687 0.7410
vn -0.0611 -0.6686 -0.7411
vn -0.0611 -0.6685 -0.7412
vn 0.8955 -0.3526 0.2718
vn 0.9856 -0.1333 0.1041
vn 0.9807 -0.1544 0.1203
vn 0.9999 0.0138 -0.0085
vn 0.5193 -0.6780 0.5201
vn 0.6373 -0.6113 0.4693
vn 0.6203 -0.6222 0.4776
vn 0.7941 -0.4818 0.3705
vn 0.1709 -0.7371 0.6538
vn 0.1785 -0.6174 0.7661
vn 0.1591 -0.8330 0.5298
vn 0.8796 0.1737 -0.4428
vn 0.8982 0.3906 -0.2016
vn 0.9655 0.1489 -0.2136
vn 0.9875 -0.1485 0.0529
vn -0.7901 0.4860 -0.3736
vn -0.7901 0.4858 -0.3737
usemtl initialShadingGroup.003
s off
f 1/1/1 2/2/1 3/3/1 4/4/1
f 4/5/2 3/6/2 5/7/2 6/8/2
f 7/9/3 8/10/3 9/11/3 10/12/3
f 10/13/4 9/14/4 11/15/4 12/16/4 13/17/4
f 14/18/5 1/19/5 4/20/5 6/21/5 15/22/5 16/23/5 17/24/5 7/25/5 10/26/5 13/27/5 18/28/5 19/29/5 20/30/5 21/31/5 22/32/5 23/33/5 24/34/5 25/35/5 26/36/5 27/37/5
f 28/38/6 2/2/6 1/1/6 14/39/6
f 11/40/7 29/41/7 30/42/7 12/43/7
f 29/41/8 31/44/8 32/45/8 33/46/8 30/42/8
f 34/47/9 35/48/9 36/49/9 37/50/9
f 29/51/10 11/52/10 38/53/10 39/54/10 40/55/10
f 41/56/11 42/57/11 43/58/11 44/59/11
f 45/60/12 30/61/12 33/62/12 46/63/12 47/64/12
f 48/65/13 12/66/13 30/67/13 45/68/13 47/69/13 49/70/13
f 50/71/14 51/72/14 52/73/14 53/74/14
f 54/75/14 55/76/14 56/77/14 57/78/14
f 58/79/14 59/80/14 60/81/14 61/82/14
f 62/83/15 63/84/15 64/85/15 65/86/15
f 66/87/11 50/88/11 53/89/11 67/90/11
f 67/91/16 53/92/16 52/93/16 68/94/16
f 68/95/17 52/96/17 51/97/17 69/98/17
f 69/99/18 51/100/18 50/101/18 66/102/18
f 70/103/19 54/104/19 57/105/19 71/106/19
f 71/107/20 57/108/20 56/109/20 72/110/20
f 72/111/21 56/112/21 55/113/21 73/114/21
f 73/115/22 55/116/22 54/117/22 70/118/22
f 74/119/11 58/120/11 61/121/11 75/122/11
f 75/123/23 61/124/23 60/125/23 76/126/23
f 76/127/17 60/128/17 59/129/17 77/130/17
f 77/131/24 59/132/24 58/133/24 74/134/24
f 28/135/25 78/136/25 79/137/25 80/138/25 81/139/25 82/140/25 83/141/25 84/142/25 85/143/25 39/54/25 38/53/25 11/52/25 9/144/25 8/145/25 86/146/25 87/147/25 88/148/25 5/149/25 3/150/25 2/151/25
f 27/152/26 26/153/26 79/154/26 78/155/26
f 26/156/27 25/157/27 80/158/27 79/159/27
f 21/160/28 20/161/28 85/162/28 84/163/28
f 20/164/29 19/165/29 49/166/29 39/167/29 85/168/29
f 28/38/30 14/39/30 27/152/30 78/155/30
f 48/169/31 49/166/31 19/165/31 18/170/31 13/17/31 12/16/31
f 39/171/32 49/172/32 47/173/32 40/174/32
f 89/175/15 37/176/15 36/177/15 90/178/15
f 36/49/15 35/48/15 91/179/15 92/180/15
f 93/181/15 94/182/15 65/183/15 95/184/15
f 96/185/15 97/186/15 98/187/15 99/188/15
f 100/189/15 101/190/15 102/191/15 103/192/15
f 104/193/15 105/194/15 106/195/15 107/196/15
f 92/197/11 108/198/11 97/199/11 96/200/11
f 108/201/16 90/202/16 98/203/16 97/204/16
f 90/205/17 36/206/17 99/207/17 98/208/17
f 36/209/18 92/210/18 96/211/18 99/212/18
f 62/213/19 65/214/19 101/215/19 100/216/19
f 65/217/20 94/218/20 102/219/20 101/220/20
f 94/221/21 109/222/21 103/223/21 102/224/21
f 109/225/22 62/226/22 100/227/22 103/228/22
f 37/229/11 89/230/11 105/231/11 104/232/11
f 89/233/23 93/234/23 106/235/23 105/236/23
f 93/237/17 95/238/17 107/239/17 106/240/17
f 95/241/24 37/242/24 104/243/24 107/244/24
f 110/245/33 108/246/15 92/180/15 91/179/34
f 68/247/14 69/248/14 74/249/14 75/250/14
f 76/251/14 77/252/14 71/253/14 72/254/14
f 62/255/15 109/256/15 111/257/35 63/258/15
f 65/259/36 64/85/36 112/260/36 95/261/36
f 34/262/37 37/50/37 95/184/37 112/263/37
f 108/264/15 110/265/15 113/266/38 90/178/15
f 90/267/15 113/268/39 114/269/40 89/270/15
f 89/270/41 114/269/42 115/271/43 93/181/41
f 93/181/44 115/272/45 116/273/46 94/182/44
f 94/182/47 116/273/48 111/257/49 109/256/47
f 74/274/50 117/275/50 118/276/50 77/277/50
f 71/278/51 119/279/51 32/280/51 70/281/51
f 70/282/14 32/283/14 31/284/14 73/285/14
f 72/286/52 73/285/52 31/287/53 120/288/52
f 75/289/54 76/290/54 121/291/54 122/292/54
f 68/247/55 75/289/55 122/292/55 123/293/55
f 66/294/14 67/295/14 124/296/56 125/297/57
f 66/294/14 125/297/58 126/298/14 69/299/14
s 1
f 6/8/59 5/7/59 88/300/60 15/301/61
f 15/301/61 88/300/60 87/302/62 16/303/62
f 16/303/63 87/302/63 86/304/64 17/305/65
f 17/305/65 86/304/64 8/10/66 7/9/66
f 124/306/67 127/307/68 128/308/68 125/309/69
f 127/310/68 42/311/70 41/312/70 128/313/68
f 31/314/71 29/51/72 40/55/72 111/315/73
f 124/316/74 123/317/75 122/318/75 121/319/75 120/320/75 31/314/71 111/315/73 116/321/76 115/322/77 114/323/78 113/324/79 110/325/74
f 127/326/80 124/316/75 110/325/75 129/327/80
f 42/328/80 127/326/80 129/327/80 43/329/80
f 128/330/5 41/331/5 44/332/5 130/333/5
f 125/334/81 128/330/5 130/333/5 91/335/81
f 32/336/82 119/337/82 118/338/82 117/339/82 126/340/82 125/334/82 91/335/82 35/341/82 34/342/82 112/343/82 64/344/82 63/345/82
f 33/346/5 32/336/81 63/345/81 46/347/5
f 25/157/83 24/348/84 81/349/85 80/158/83
f 24/348/84 23/350/86 82/351/86 81/349/85
f 23/350/87 22/352/88 83/353/89 82/351/87
f 22/352/88 21/160/90 84/163/90 83/353/89
f 40/174/91 47/173/91 46/354/91 63/355/92 111/356/93
f 110/357/94 91/358/95 130/359/96 129/360/96
f 129/361/96 130/362/96 44/363/97 43/364/97
f 117/275/52 74/274/52 69/299/52 126/298/52
f 119/279/98 71/278/98 77/277/98 118/276/98
f 120/288/99 121/291/99 76/290/99 72/286/99
f 123/293/51 124/365/51 67/366/51 68/247/51
