# Blender v2.79 (sub 6) OBJ File: 'bailarina.blend1'
# www.blender.org
mtllib Guitarra2_000010.mtl
o g2_pPlane4.001
v -13.679676 1.809320 1.662825
v -13.718639 1.941679 2.595095
v -13.856802 3.042434 2.375096
v -13.817833 2.910083 1.442823
v -13.360340 3.908381 2.177060
v -13.321373 3.776031 1.244787
v -10.109638 5.387932 0.781788
v -10.148604 5.520285 1.714060
v -9.314058 5.561219 1.671239
v -9.275094 5.428866 0.738969
v -8.241003 4.832684 1.774474
v -8.202029 4.760992 1.196659
v -8.197810 4.701941 0.843578
v -13.103762 0.802660 1.845475
v -12.487316 4.159458 1.131762
v -11.210470 4.110664 1.089093
v -10.616053 5.025266 0.877041
v -8.070395 4.459048 0.888125
v -7.869441 4.269576 0.918685
v -7.469102 3.050900 1.152049
v -7.750278 2.281342 1.321440
v -8.251591 1.911964 1.417859
v -9.318614 1.619643 1.521812
v -9.639742 0.410030 1.783084
v -10.256040 -0.260118 1.945914
v -11.247135 -0.474774 2.030814
v -12.284739 -0.027399 1.981884
v -13.124401 0.948324 2.774262
v -4.725978 7.394398 1.125501
v -4.749096 7.279487 0.565079
v -4.689117 7.587020 1.107651
v -4.720261 7.432230 0.352715
v -4.759055 7.245033 0.392697
v -3.623973 7.220715 0.350316
v -3.475458 7.328666 0.322598
v -3.499212 7.358151 0.596186
v -3.630057 7.262964 0.620290
v -8.075949 4.615358 1.812226
v -7.910895 4.398030 1.849980
v -4.391248 6.953656 1.202063
v -3.326221 8.050102 0.168516
v -3.295078 8.204897 0.923453
v -3.188267 8.064257 0.947883
v -3.219408 7.909464 0.192948
v -4.581592 7.059797 0.606680
v -4.421440 6.800493 0.469920
v -4.414366 6.838746 0.641641
v -8.060686 4.528206 1.243785
v -7.872792 4.327480 1.271966
v -3.958383 8.280750 0.426152
v -4.114012 8.167662 0.455563
v -4.104072 8.217065 0.696500
v -3.948242 8.331144 0.671931
v -4.693089 7.747860 0.570645
v -4.686312 7.794977 0.812242
v -4.533500 7.905956 0.783019
v -4.544447 7.855050 0.537827
v -4.244858 8.072477 0.479670
v -4.415764 7.949553 0.519243
v -4.406013 7.998022 0.755632
v -4.234905 8.121937 0.720889
v -4.078290 6.938351 0.711267
v -4.226988 6.782732 0.465539
v -3.970762 6.968878 0.416934
v -3.929647 7.045539 0.678449
v -3.836855 8.120733 0.453949
v -3.826715 8.171129 0.699726
v -3.982544 8.057049 0.724297
v -3.992484 8.007647 0.483360
v -4.571564 7.587845 0.598442
v -4.422919 7.695034 0.565624
v -4.411973 7.745941 0.810817
v -4.564785 7.634962 0.840037
v -4.123331 7.912462 0.507467
v -4.113378 7.961922 0.748686
v -4.284486 7.838005 0.783428
v -4.294236 7.789537 0.547040
v -12.323702 0.104954 2.914157
v -11.286100 -0.342422 2.963086
v -10.295004 -0.127760 2.878186
v -9.678706 0.542387 2.715355
v -9.357578 1.751998 2.454087
v -8.290560 2.044316 2.350132
v -7.789244 2.413696 2.253713
v -7.508067 3.183256 2.084321
v -10.655017 5.157618 1.809313
v -11.249434 4.243019 2.021364
v -12.526281 4.291813 2.064033
v -3.620107 7.312427 0.861510
v -3.489271 7.407556 0.837121
v -3.224949 7.510643 0.274951
v -3.343582 7.471238 0.566774
v -3.791214 7.188510 0.896253
v -3.918701 7.096445 0.923641
v -3.800964 7.140040 0.659864
v -3.222056 7.311223 0.594570
v -3.211916 7.361618 0.840348
v -3.367745 7.247539 0.864919
v -3.377686 7.198137 0.623982
v -3.956763 6.778336 0.739064
v -3.808122 6.885524 0.706246
v -3.797174 6.936431 0.951439
v -3.949986 6.825450 0.980658
v -3.508532 7.102951 0.648087
v -3.498578 7.152411 0.889306
v -3.669687 7.028494 0.924049
v -3.679438 6.980026 0.687660
v -3.333442 7.521634 0.812552
v -4.071512 6.985464 0.952862
v -3.193807 7.665437 1.029888
v -4.195847 6.937525 1.220477
v -3.816087 7.080969 0.385334
v -3.444317 7.483459 1.077534
v -3.569571 7.392471 1.101359
v -3.768726 7.247591 1.137557
v -3.889642 7.160120 1.163503
v -4.116688 7.870617 0.237398
v -4.293185 7.742260 0.269800
v -4.429697 7.643416 0.298360
v -4.406501 7.792412 1.054628
v -4.277345 7.885894 1.027300
v -4.114662 8.004176 0.997209
v -3.978865 8.102854 0.971622
v -3.687078 8.314933 0.917062
v -3.718222 8.160137 0.162125
v -3.968733 7.978160 0.209773
v -3.431057 8.188366 0.932453
v -3.462201 8.033571 0.177515
v -3.243734 7.941716 0.975298
v -3.274877 7.786922 0.220361
vt 0.642023 0.677747
vt 0.693394 0.677747
vt 0.693394 0.731514
vt 0.642023 0.731514
vt 0.788237 0.471761
vt 0.839608 0.466497
vt 0.839608 0.517463
vt 0.788237 0.522727
vt 0.788237 0.718616
vt 0.839608 0.713352
vt 0.839608 0.751579
vt 0.788237 0.756842
vt 0.637737 0.661574
vt 0.586367 0.661574
vt 0.586468 0.594083
vt 0.618160 0.594043
vt 0.637737 0.594003
vt 0.568646 0.493611
vt 0.504856 0.485282
vt 0.451089 0.454466
vt 0.428470 0.403500
vt 0.438427 0.353809
vt 0.482132 0.299060
vt 0.460520 0.242136
vt 0.460753 0.207610
vt 0.486059 0.169384
vt 0.553630 0.146191
vt 0.568646 0.148710
vt 0.583662 0.146191
vt 0.651234 0.169384
vt 0.676539 0.207610
vt 0.676772 0.242136
vt 0.655160 0.299060
vt 0.698865 0.353809
vt 0.708823 0.403500
vt 0.686203 0.454466
vt 0.632436 0.485282
vt 0.693394 0.613957
vt 0.642023 0.613957
vt 0.754283 0.146190
vt 0.755425 0.387151
vt 0.724052 0.387151
vt 0.722590 0.150432
vt 0.756667 0.395046
vt 0.714406 0.395046
vt 0.714406 0.387055
vt 0.715485 0.406028
vt 0.715485 0.406028
vt 0.714672 0.436269
vt 0.715485 0.406028
vt 0.268628 0.733091
vt 0.268840 0.492130
vt 0.283935 0.492130
vt 0.299031 0.492130
vt 0.299242 0.733091
vt 0.493788 0.538661
vt 0.493788 0.496400
vt 0.503557 0.496400
vt 0.503557 0.538661
vt 0.460379 0.511839
vt 0.460193 0.527146
vt 0.450547 0.527278
vt 0.450547 0.496400
vt 0.460193 0.496531
vt 0.712987 0.734728
vt 0.697931 0.733119
vt 0.697680 0.496400
vt 0.712987 0.496400
vt 0.728294 0.496400
vt 0.728043 0.733119
vt 0.431485 0.839581
vt 0.420822 0.839592
vt 0.420822 0.826104
vt 0.431485 0.826116
vt 0.375304 0.839548
vt 0.375087 0.826057
vt 0.385559 0.826066
vt 0.385502 0.839800
vt 0.325241 0.839682
vt 0.313510 0.839290
vt 0.313510 0.826057
vt 0.325241 0.826179
vt 0.715485 0.406028
vt 0.714672 0.436269
vt 0.730219 0.437061
vt 0.729235 0.405347
vt 0.416361 0.839815
vt 0.405246 0.839815
vt 0.405246 0.826057
vt 0.416361 0.826057
vt 0.203576 0.842333
vt 0.203576 0.853448
vt 0.192913 0.853448
vt 0.192913 0.842333
vt 0.231602 0.839545
vt 0.220488 0.839545
vt 0.220488 0.826057
vt 0.231602 0.826057
vt 0.218554 0.842333
vt 0.218554 0.853448
vt 0.207890 0.853448
vt 0.207890 0.842333
vt 0.233066 0.842336
vt 0.233066 0.853451
vt 0.222868 0.853451
vt 0.222868 0.842336
vt 0.356043 0.839792
vt 0.344928 0.839792
vt 0.344928 0.826057
vt 0.356043 0.826057
vt 0.248317 0.842336
vt 0.248317 0.853451
vt 0.237845 0.853451
vt 0.237845 0.842336
vt 0.262405 0.839548
vt 0.251290 0.839548
vt 0.251290 0.826057
vt 0.262405 0.826057
vt 0.293207 0.839560
vt 0.282092 0.839560
vt 0.282092 0.826057
vt 0.293207 0.826057
vt 0.169998 0.837788
vt 0.158883 0.837788
vt 0.158883 0.826057
vt 0.169998 0.826057
vt 0.200800 0.839290
vt 0.189686 0.839290
vt 0.189686 0.826057
vt 0.200800 0.826057
vt 0.154874 0.837788
vt 0.143759 0.837788
vt 0.143759 0.826057
vt 0.154874 0.826057
vt 0.283935 0.146190
vt 0.347725 0.153264
vt 0.401493 0.184080
vt 0.424112 0.235046
vt 0.414154 0.284737
vt 0.370449 0.339486
vt 0.392061 0.396410
vt 0.391828 0.430936
vt 0.366523 0.469162
vt 0.201348 0.469162
vt 0.176043 0.430936
vt 0.175810 0.396410
vt 0.197422 0.339486
vt 0.153717 0.284737
vt 0.143759 0.235046
vt 0.166378 0.184080
vt 0.220145 0.153264
vt 0.642023 0.550167
vt 0.642023 0.496400
vt 0.693394 0.496400
vt 0.693394 0.550167
vt 0.783951 0.471761
vt 0.783951 0.522727
vt 0.732581 0.517463
vt 0.732581 0.466497
vt 0.783951 0.718616
vt 0.783951 0.756842
vt 0.732581 0.751579
vt 0.732581 0.713352
vt 0.637737 0.496400
vt 0.637737 0.563971
vt 0.618160 0.563931
vt 0.586468 0.563891
vt 0.586367 0.496400
vt 0.617880 0.578987
vt 0.637737 0.578987
vt 0.764446 0.146190
vt 0.796139 0.150432
vt 0.794677 0.387151
vt 0.763305 0.387151
vt 0.730219 0.437061
vt 0.729235 0.405347
vt 0.715485 0.406028
vt 0.714672 0.436269
vt 0.729235 0.405347
vt 0.730219 0.437061
vt 0.715485 0.406028
vt 0.729235 0.405347
vt 0.730219 0.437061
vt 0.714672 0.436269
vt 0.431311 0.826068
vt 0.431311 0.839826
vt 0.420647 0.839545
vt 0.420647 0.826057
vt 0.360546 0.826310
vt 0.370744 0.826057
vt 0.370801 0.839792
vt 0.360329 0.839800
vt 0.309224 0.826057
vt 0.309224 0.839560
vt 0.297493 0.839682
vt 0.297493 0.826449
vt 0.389845 0.839815
vt 0.389845 0.826057
vt 0.400960 0.826057
vt 0.400960 0.839815
vt 0.263487 0.853451
vt 0.252823 0.853451
vt 0.252823 0.842336
vt 0.263487 0.842336
vt 0.205087 0.839545
vt 0.205087 0.826057
vt 0.216201 0.826057
vt 0.216201 0.839545
vt 0.278464 0.853464
vt 0.267801 0.853464
vt 0.267801 0.842349
vt 0.278464 0.842349
vt 0.292976 0.853464
vt 0.282778 0.853464
vt 0.282778 0.842349
vt 0.292976 0.842349
vt 0.329527 0.839792
vt 0.329527 0.826057
vt 0.340642 0.826057
vt 0.340642 0.839792
vt 0.308227 0.853586
vt 0.297756 0.853586
vt 0.297756 0.842471
vt 0.308227 0.842471
vt 0.235889 0.839548
vt 0.235889 0.826057
vt 0.247003 0.826057
vt 0.247003 0.839548
vt 0.266691 0.839560
vt 0.266691 0.826057
vt 0.277806 0.826057
vt 0.277806 0.839560
vt 0.160234 0.853810
vt 0.160234 0.842079
vt 0.171349 0.842079
vt 0.171349 0.853810
vt 0.174284 0.839290
vt 0.174284 0.826057
vt 0.185399 0.826057
vt 0.185399 0.839290
vt 0.176573 0.853810
vt 0.176573 0.842079
vt 0.187688 0.842079
vt 0.187688 0.853810
vt 0.715485 0.406028
vt 0.714672 0.436269
vt 0.755988 0.400532
vt 0.756194 0.387880
vt 0.755988 0.400532
vt 0.719208 0.402080
vt 0.719250 0.387954
vt 0.756194 0.387880
vt 0.755988 0.400532
vt 0.719208 0.402080
vt 0.714672 0.436269
vt 0.715485 0.406028
vt 0.714672 0.436269
vt 0.730219 0.437061
vt 0.714672 0.436269
vt 0.729235 0.405347
vt 0.715485 0.406028
vt 0.729235 0.405347
vt 0.730219 0.437061
vt 0.730219 0.437061
vt 0.714672 0.436269
vt 0.715485 0.406028
vt 0.715485 0.406028
vt 0.729235 0.405347
vt 0.730219 0.437061
vt 0.714672 0.436269
vt 0.729235 0.405347
vt 0.714672 0.436269
vt 0.730219 0.437061
vt 0.719208 0.402080
vt 0.755988 0.400532
vt 0.756194 0.387880
vt 0.719250 0.387954
vt 0.719208 0.402080
vt 0.755988 0.400532
vt 0.719208 0.402080
vt 0.719250 0.387954
vt 0.719208 0.402080
vt 0.719250 0.387954
vt 0.756194 0.387880
vt 0.755988 0.400532
vt 0.756194 0.387880
vt 0.719208 0.402080
vt 0.719250 0.387954
vt 0.756194 0.387880
vt 0.755988 0.400532
vt 0.719208 0.402080
vt 0.719250 0.387954
vt 0.719208 0.402080
vt 0.719208 0.402080
vt 0.719250 0.387954
vt 0.756194 0.387880
vt 0.755988 0.400532
vt 0.756194 0.387880
vt 0.719250 0.387954
vt 0.839608 0.567154
vt 0.788237 0.572418
vt 0.839608 0.621903
vt 0.788237 0.627167
vt 0.839608 0.678826
vt 0.788237 0.684090
vt 0.518689 0.496400
vt 0.532680 0.496400
vt 0.532680 0.538661
vt 0.518689 0.538661
vt 0.507843 0.496400
vt 0.514402 0.496400
vt 0.514402 0.538661
vt 0.507843 0.538661
vt 0.261378 0.740986
vt 0.306493 0.740986
vt 0.261378 0.809648
vt 0.261378 0.792482
vt 0.261378 0.783900
vt 0.261378 0.775317
vt 0.261378 0.758151
vt 0.306493 0.758151
vt 0.306493 0.775317
vt 0.306493 0.783900
vt 0.306493 0.792482
vt 0.306493 0.809648
vt 0.275369 0.816709
vt 0.292502 0.816709
vt 0.279051 0.823269
vt 0.288820 0.823269
vt 0.550957 0.502959
vt 0.554639 0.496400
vt 0.564408 0.496400
vt 0.568090 0.502959
vt 0.536966 0.510020
vt 0.582080 0.510020
vt 0.536966 0.578682
vt 0.536966 0.561517
vt 0.536966 0.544351
vt 0.536966 0.535768
vt 0.536966 0.527185
vt 0.582080 0.527185
vt 0.582080 0.535768
vt 0.582080 0.544351
vt 0.582080 0.561517
vt 0.582080 0.578682
vt 0.544084 0.586674
vt 0.574962 0.586674
vt 0.783951 0.572418
vt 0.732581 0.567154
vt 0.783951 0.627167
vt 0.732581 0.621903
vt 0.783951 0.684090
vt 0.732581 0.678826
vt 0.804323 0.387055
vt 0.804323 0.395046
vt 0.762062 0.395046
vt 0.489502 0.496400
vt 0.489502 0.538661
vt 0.475511 0.538661
vt 0.475511 0.496400
vt 0.464665 0.538661
vt 0.464665 0.496400
vt 0.471225 0.496400
vt 0.471225 0.538661
vt 0.719208 0.402080
vt 0.719208 0.402080
vn -0.9914 -0.1290 -0.0231
vn -0.8729 0.4766 -0.1042
vn -0.0558 0.9882 -0.1426
vn 0.5596 0.8237 -0.0916
vn -0.0404 -0.2007 -0.9788
vn -0.8658 -0.4981 0.0467
vn -0.5999 0.7882 -0.1376
vn -0.9817 0.1902 0.0035
vn 0.5991 -0.7889 0.1370
vn 0.0366 0.1979 0.9795
vn 0.7996 0.5809 -0.1521
vn -0.7992 -0.5789 0.1618
vn -0.0356 -0.1972 -0.9797
vn -0.5991 0.7889 -0.1370
vn 0.5991 -0.7889 0.1371
vn 0.0193 0.1853 0.9825
vn -0.7996 -0.5809 0.1521
vn -0.0396 -0.2001 -0.9790
vn -0.0602 -0.2150 -0.9748
vn 0.7995 0.5801 -0.1561
vn 0.0410 0.2012 0.9787
vn -0.8002 -0.5840 0.1364
vn 0.0487 0.2067 0.9772
vn -0.0671 -0.2200 -0.9732
vn 0.0405 0.2008 0.9788
vn -0.3979 -0.9105 0.1126
vn 0.2213 -0.9642 0.1461
vn 0.9417 -0.3253 0.0855
vn 0.9515 0.3077 -0.0020
vn -0.7228 -0.6865 0.0794
vn 0.8006 0.5885 -0.1125
vn 0.5983 -0.7896 0.1365
vn -0.8002 -0.5840 0.1363
vn 0.5167 -0.8560 0.0188
vn 0.5285 -0.7985 0.2882
vn 0.6568 -0.7541 -0.0048
vn 0.5993 -0.7887 0.1368
vn 0.5990 -0.7890 0.1369
vn 0.5906 -0.8015 0.0944
vn 0.5623 -0.8143 0.1438
vn 0.5897 -0.8021 0.0949
vn 0.5990 -0.7889 0.1372
vn 0.5622 -0.8144 0.1436
vn 0.5943 -0.7988 0.0933
vn 0.5994 -0.7886 0.1370
vn 0.5627 -0.8139 0.1446
vn 0.5935 -0.7994 0.0935
vn 0.5990 -0.7889 0.1369
vn 0.5622 -0.8144 0.1435
vn 0.6172 -0.7809 0.0964
vn -0.5990 0.7889 -0.1369
vn -0.5991 0.7889 -0.1371
vn -0.5991 0.7888 -0.1370
vn -0.5797 0.7953 -0.1772
vn -0.5991 0.7888 -0.1373
vn -0.5991 0.7888 -0.1372
vn -0.5989 0.7534 -0.2714
vn -0.5886 0.8084 -0.0069
vn -0.6431 0.7656 -0.0148
vn -0.4294 0.8915 -0.1445
vn -0.1788 0.9730 -0.1457
vn -0.1520 0.9777 -0.1451
vn 0.0332 0.9897 -0.1391
vn -0.8448 0.5237 -0.1097
vn -0.7730 0.6229 -0.1208
vn -0.7590 0.6395 -0.1225
vn -0.5937 0.7929 -0.1374
vn 0.5638 0.8042 -0.1882
vn 0.2677 0.9416 -0.2041
vn 0.5580 0.8081 -0.1887
vn -0.1310 0.9722 -0.1939
vn 0.0340 0.1965 0.9799
vn -0.0844 0.1080 0.9906
vn 0.0340 0.1966 0.9799
vn 0.0403 0.2009 0.9788
vn 0.0400 0.2012 0.9787
vn 0.0763 0.2275 0.9708
vn 0.0758 0.2270 0.9709
vn 0.0761 0.2273 0.9708
vn 0.0761 0.2272 0.9709
vn 0.0404 0.2007 0.9788
vn 0.0401 0.2012 0.9787
vn -0.0406 -0.2005 -0.9789
vn -0.0406 -0.2004 -0.9789
vn 0.7452 -0.6552 0.1242
vn 0.9050 -0.4142 0.0967
vn 0.8932 -0.4384 0.0996
vn 0.9677 -0.2408 0.0746
vn 0.2746 -0.9503 0.1464
vn 0.4104 -0.9003 0.1450
vn 0.3905 -0.9091 0.1454
vn 0.6045 -0.7848 0.1367
vn -0.0978 -0.9737 0.2057
vn -0.0898 -0.9274 0.3632
vn -0.1032 -0.9934 0.0498
vn 0.9650 0.1293 -0.2282
vn 0.9768 0.1943 0.0899
vn 0.9991 -0.0215 -0.0368
vn 0.9138 -0.4036 0.0451
vn -0.5994 0.7887 -0.1369
vn -0.5994 0.7886 -0.1371
usemtl initialShadingGroup.003
s off
f 1/1/1 2/2/1 3/3/1 4/4/1
f 4/5/2 3/6/2 5/7/2 6/8/2
f 7/9/3 8/10/3 9/11/3 10/12/3
f 10/13/4 9/14/4 11/15/4 12/16/4 13/17/4
f 14/18/5 1/19/5 4/20/5 6/21/5 15/22/5 16/23/5 17/24/5 7/25/5 10/26/5 13/27/5 18/28/5 19/29/5 20/30/5 21/31/5 22/32/5 23/33/5 24/34/5 25/35/5 26/36/5 27/37/5
f 28/38/6 2/2/6 1/1/6 14/39/6
f 11/40/7 29/41/7 30/42/7 12/43/7
f 29/41/8 31/44/8 32/45/8 33/46/8 30/42/8
f 34/47/9 35/48/9 36/49/9 37/50/9
f 29/51/10 11/52/10 38/53/10 39/54/10 40/55/10
f 41/56/11 42/57/11 43/58/11 44/59/11
f 45/60/12 30/61/12 33/62/12 46/63/12 47/64/12
f 48/65/13 12/66/13 30/67/13 45/68/13 47/69/13 49/70/13
f 50/71/14 51/72/14 52/73/14 53/74/14
f 54/75/14 55/76/14 56/77/14 57/78/14
f 58/79/14 59/80/14 60/81/14 61/82/14
f 62/83/15 63/84/15 64/85/15 65/86/15
f 66/87/11 50/88/11 53/89/11 67/90/11
f 67/91/16 53/92/16 52/93/16 68/94/16
f 68/95/17 52/96/17 51/97/17 69/98/17
f 69/99/18 51/100/18 50/101/18 66/102/18
f 70/103/19 54/104/19 57/105/19 71/106/19
f 71/107/20 57/108/20 56/109/20 72/110/20
f 72/111/21 56/112/21 55/113/21 73/114/21
f 73/115/22 55/116/22 54/117/22 70/118/22
f 74/119/11 58/120/11 61/121/11 75/122/11
f 75/123/23 61/124/23 60/125/23 76/126/23
f 76/127/17 60/128/17 59/129/17 77/130/17
f 77/131/24 59/132/24 58/133/24 74/134/24
f 28/135/25 78/136/25 79/137/25 80/138/25 81/139/25 82/140/25 83/141/25 84/142/25 85/143/25 39/54/25 38/53/25 11/52/25 9/144/25 8/145/25 86/146/25 87/147/25 88/148/25 5/149/25 3/150/25 2/151/25
f 27/152/26 26/153/26 79/154/26 78/155/26
f 26/156/27 25/157/27 80/158/27 79/159/27
f 21/160/28 20/161/28 85/162/28 84/163/28
f 20/164/29 19/165/29 49/166/29 39/167/29 85/168/29
f 28/38/30 14/39/30 27/152/30 78/155/30
f 48/169/31 49/166/31 19/165/31 18/170/31 13/17/31 12/16/31
f 39/171/32 49/172/32 47/173/32 40/174/32
f 89/175/9 37/176/9 36/177/9 90/178/9
f 36/49/9 35/48/9 91/179/9 92/180/9
f 93/181/9 94/182/9 65/183/9 95/184/9
f 96/185/9 97/186/9 98/187/9 99/188/9
f 100/189/9 101/190/9 102/191/9 103/192/9
f 104/193/9 105/194/9 106/195/9 107/196/9
f 92/197/11 108/198/11 97/199/11 96/200/11
f 108/201/16 90/202/16 98/203/16 97/204/16
f 90/205/17 36/206/17 99/207/17 98/208/17
f 36/209/18 92/210/18 96/211/18 99/212/18
f 62/213/19 65/214/19 101/215/19 100/216/19
f 65/217/20 94/218/20 102/219/20 101/220/20
f 94/221/21 109/222/21 103/223/21 102/224/21
f 109/225/33 62/226/33 100/227/33 103/228/33
f 37/229/11 89/230/11 105/231/11 104/232/11
f 89/233/23 93/234/23 106/235/23 105/236/23
f 93/237/17 95/238/17 107/239/17 106/240/17
f 95/241/24 37/242/24 104/243/24 107/244/24
f 110/245/34 108/246/9 92/180/9 91/179/35
f 68/247/14 69/248/14 74/249/14 75/250/14
f 76/251/14 77/252/14 71/253/14 72/254/14
f 62/255/9 109/256/9 111/257/36 63/258/9
f 65/259/37 64/85/37 112/260/37 95/261/37
f 34/262/38 37/50/38 95/184/38 112/263/38
f 108/264/9 110/265/9 113/266/39 90/178/9
f 90/267/9 113/268/40 114/269/41 89/270/9
f 89/270/42 114/269/43 115/271/44 93/181/42
f 93/181/45 115/272/46 116/273/47 94/182/45
f 94/182/48 116/273/49 111/257/50 109/256/48
f 74/274/51 117/275/51 118/276/51 77/277/51
f 71/278/52 119/279/52 32/280/52 70/281/52
f 70/282/53 32/283/53 31/284/53 73/285/53
f 72/286/14 73/285/14 31/287/54 120/288/14
f 75/289/55 76/290/55 121/291/55 122/292/55
f 68/247/56 75/289/56 122/292/56 123/293/56
f 66/294/14 67/295/14 124/296/57 125/297/58
f 66/294/14 125/297/59 126/298/14 69/299/14
s 1
f 6/8/60 5/7/60 88/300/61 15/301/62
f 15/301/62 88/300/61 87/302/63 16/303/63
f 16/303/64 87/302/64 86/304/65 17/305/66
f 17/305/66 86/304/65 8/10/67 7/9/67
f 124/306/68 127/307/69 128/308/69 125/309/70
f 127/310/69 42/311/71 41/312/71 128/313/69
f 31/314/72 29/51/73 40/55/73 111/315/74
f 124/316/75 123/317/76 122/318/76 121/319/76 120/320/76 31/314/72 111/315/74 116/321/77 115/322/78 114/323/79 113/324/80 110/325/75
f 127/326/81 124/316/82 110/325/82 129/327/81
f 42/328/81 127/326/81 129/327/81 43/329/81
f 128/330/5 41/331/5 44/332/5 130/333/5
f 125/334/83 128/330/5 130/333/5 91/335/83
f 32/336/84 119/337/84 118/338/84 117/339/84 126/340/84 125/334/84 91/335/84 35/341/84 34/342/84 112/343/84 64/344/84 63/345/84
f 33/346/5 32/336/84 63/345/84 46/347/5
f 25/157/85 24/348/86 81/349/87 80/158/85
f 24/348/86 23/350/88 82/351/88 81/349/87
f 23/350/89 22/352/90 83/353/91 82/351/89
f 22/352/90 21/160/92 84/163/92 83/353/91
f 40/174/93 47/173/93 46/354/93 63/355/94 111/356/95
f 110/357/96 91/358/97 130/359/98 129/360/98
f 129/361/98 130/362/98 44/363/99 43/364/99
f 117/275/14 74/274/14 69/299/14 126/298/14
f 119/279/100 71/278/100 77/277/100 118/276/100
f 120/288/101 121/291/101 76/290/101 72/286/101
f 123/293/52 124/365/52 67/366/52 68/247/52
