# Blender v2.79 (sub 6) OBJ File: 'bailarinaacortados.blend1'
# www.blender.org
mtllib guitarra2_000197.mtl
o g2_pPlane4.001
v 7.195604 16.615185 -13.175905
v 7.687325 15.879646 -13.500502
v 6.697283 15.348434 -13.630106
v 6.205565 16.083975 -13.305511
v 5.996838 14.789078 -13.148396
v 5.505117 15.524616 -12.823801
v 4.497638 13.948633 -9.720724
v 4.989358 13.213095 -10.045317
v 5.061323 12.997047 -9.240259
v 4.569603 13.732586 -8.915665
v 5.842543 13.120483 -8.207142
v 5.532318 13.565676 -7.992449
v 5.351152 13.852879 -7.879028
v 8.159254 16.995888 -12.623772
v 5.274542 15.133352 -12.018082
v 5.483053 14.859842 -10.786716
v 4.752323 14.252676 -10.210363
v 5.582171 13.947437 -7.756942
v 5.775537 13.997456 -7.563749
v 6.903682 14.527739 -7.181661
v 7.546896 14.987427 -7.455409
v 7.808168 15.293713 -7.940154
v 7.928098 15.692799 -8.970270
v 8.954775 16.387100 -9.284012
v 9.466774 16.874239 -9.880655
v 9.527958 17.215816 -10.837284
v 8.998430 17.229355 -11.836571
v 8.641590 16.249250 -12.930647
v 4.049163 10.972324 -4.814778
v 3.772887 11.449936 -4.661908
v 3.898664 10.848724 -4.785539
v 3.526495 11.492109 -4.579612
v 3.686792 11.597009 -4.617650
v 3.854971 11.344492 -3.522775
v 3.779222 11.254129 -3.379337
v 3.928636 11.047659 -3.485778
v 3.995230 11.127547 -3.612053
v 6.055859 13.193155 -8.048666
v 6.269175 13.265825 -7.890194
v 4.481770 11.119699 -4.493389
v 3.161413 10.849918 -3.233002
v 3.533581 10.206533 -3.438934
v 3.671625 10.253562 -3.336378
v 3.299458 10.896945 -3.130451
v 3.990827 11.520792 -4.502119
v 4.123128 11.745657 -4.293491
v 4.205492 11.597311 -4.340520
v 5.759563 13.648109 -7.858465
v 5.957827 13.710636 -7.676336
v 3.054478 10.682558 -3.925649
v 3.134064 10.776973 -4.076071
v 3.252839 10.571634 -4.141790
v 3.175641 10.473098 -3.992691
v 3.433073 11.123634 -4.637522
v 3.553496 10.920165 -4.706318
v 3.475177 10.827745 -4.558515
v 3.354647 11.037340 -4.492385
v 3.200657 10.856859 -4.202344
v 3.291767 10.954567 -4.369790
v 3.408302 10.753109 -4.434271
v 3.319574 10.651281 -4.268143
v 4.227642 11.394321 -4.047229
v 4.164005 11.709291 -4.106000
v 4.032888 11.554007 -3.858294
v 4.149218 11.308029 -3.902092
v 3.211541 10.736066 -3.808966
v 3.332703 10.526604 -3.876008
v 3.409902 10.625142 -4.025108
v 3.291125 10.830479 -3.959386
v 3.590135 11.177140 -4.520840
v 3.511711 11.090846 -4.375704
v 3.632239 10.881250 -4.441831
v 3.710558 10.973673 -4.589634
v 3.357719 10.910365 -4.085661
v 3.476637 10.704788 -4.151460
v 3.565364 10.806615 -4.317589
v 3.448830 11.008075 -4.253107
v 9.490150 16.493814 -12.161167
v 10.019678 16.480278 -11.161879
v 9.958494 16.138699 -10.205252
v 9.446495 15.651562 -9.608604
v 8.419819 14.957260 -9.294867
v 8.299887 14.558176 -8.264750
v 8.038616 14.251890 -7.780004
v 7.395401 13.792202 -7.506257
v 5.244044 13.517138 -10.534960
v 5.974771 14.124302 -11.111309
v 5.766260 14.397814 -12.342674
v 4.114144 10.921970 -3.677850
v 4.047410 10.842321 -3.551498
v 3.650961 11.102407 -3.137115
v 3.849051 10.953247 -3.335356
v 4.202873 11.023796 -3.843978
v 4.269749 11.098433 -3.968221
v 4.086339 11.225256 -3.779497
v 4.006112 11.006754 -3.218675
v 4.127274 10.797291 -3.285715
v 4.204473 10.895829 -3.434817
v 4.085697 11.101165 -3.369095
v 4.384706 11.447828 -3.930548
v 4.306280 11.361534 -3.785411
v 4.426810 11.151938 -3.851539
v 4.505130 11.244360 -3.999343
v 4.152291 11.181054 -3.495370
v 4.271207 10.975477 -3.561166
v 4.359936 11.077304 -3.727296
v 4.243401 11.278763 -3.662815
v 3.970213 10.743784 -3.402397
v 4.348069 11.190855 -4.116024
v 4.023129 10.459022 -3.343045
v 4.536174 11.065905 -4.311931
v 3.952500 11.462046 -3.708066
v 4.151390 10.610744 -3.585266
v 4.215520 10.686604 -3.706377
v 4.316567 10.808546 -3.898426
v 4.380090 10.879456 -4.016247
v 3.217185 11.126965 -3.995850
v 3.306911 11.234778 -4.166149
v 3.378226 11.315413 -4.298941
v 3.754364 10.676981 -4.512496
v 3.686724 10.600936 -4.386767
v 3.603898 10.501736 -4.229728
v 3.534500 10.419301 -4.098497
v 3.385618 10.241842 -3.816654
v 3.013452 10.885227 -3.610727
v 3.141713 11.036947 -3.852948
v 3.530565 10.246784 -3.570139
v 3.158398 10.890171 -3.364213
v 3.772664 10.329259 -3.390284
v 3.400495 10.972646 -3.184355
vt 0.642023 0.677747
vt 0.693394 0.677747
vt 0.693394 0.731514
vt 0.642023 0.731514
vt 0.788237 0.471761
vt 0.839608 0.466497
vt 0.839608 0.517463
vt 0.788237 0.522727
vt 0.788237 0.718616
vt 0.839608 0.713352
vt 0.839608 0.751579
vt 0.788237 0.756842
vt 0.637737 0.661574
vt 0.586367 0.661574
vt 0.586468 0.594083
vt 0.618160 0.594043
vt 0.637737 0.594003
vt 0.568646 0.493611
vt 0.504856 0.485282
vt 0.451089 0.454466
vt 0.428470 0.403500
vt 0.438427 0.353809
vt 0.482132 0.299060
vt 0.460520 0.242136
vt 0.460753 0.207610
vt 0.486059 0.169384
vt 0.553630 0.146191
vt 0.568646 0.148710
vt 0.583662 0.146191
vt 0.651234 0.169384
vt 0.676539 0.207610
vt 0.676772 0.242136
vt 0.655160 0.299060
vt 0.698865 0.353809
vt 0.708823 0.403500
vt 0.686203 0.454466
vt 0.632436 0.485282
vt 0.693394 0.613957
vt 0.642023 0.613957
vt 0.754283 0.146190
vt 0.755425 0.387151
vt 0.724052 0.387151
vt 0.722590 0.150432
vt 0.756667 0.395046
vt 0.714406 0.395046
vt 0.714406 0.387055
vt 0.715485 0.406028
vt 0.715485 0.406028
vt 0.714672 0.436269
vt 0.715485 0.406028
vt 0.268628 0.733091
vt 0.268840 0.492130
vt 0.283935 0.492130
vt 0.299031 0.492130
vt 0.299242 0.733091
vt 0.493788 0.538661
vt 0.493788 0.496400
vt 0.503557 0.496400
vt 0.503557 0.538661
vt 0.460379 0.511839
vt 0.460193 0.527146
vt 0.450547 0.527278
vt 0.450547 0.496400
vt 0.460193 0.496531
vt 0.712987 0.734728
vt 0.697931 0.733119
vt 0.697680 0.496400
vt 0.712987 0.496400
vt 0.728294 0.496400
vt 0.728043 0.733119
vt 0.431485 0.839581
vt 0.420822 0.839592
vt 0.420822 0.826104
vt 0.431485 0.826116
vt 0.375304 0.839548
vt 0.375087 0.826057
vt 0.385559 0.826066
vt 0.385502 0.839800
vt 0.325241 0.839682
vt 0.313510 0.839290
vt 0.313510 0.826057
vt 0.325241 0.826179
vt 0.715485 0.406028
vt 0.714672 0.436269
vt 0.730219 0.437061
vt 0.729235 0.405347
vt 0.416361 0.839815
vt 0.405246 0.839815
vt 0.405246 0.826057
vt 0.416361 0.826057
vt 0.203576 0.842333
vt 0.203576 0.853448
vt 0.192913 0.853448
vt 0.192913 0.842333
vt 0.231602 0.839545
vt 0.220488 0.839545
vt 0.220488 0.826057
vt 0.231602 0.826057
vt 0.218554 0.842333
vt 0.218554 0.853448
vt 0.207890 0.853448
vt 0.207890 0.842333
vt 0.233066 0.842336
vt 0.233066 0.853451
vt 0.222868 0.853451
vt 0.222868 0.842336
vt 0.356043 0.839792
vt 0.344928 0.839792
vt 0.344928 0.826057
vt 0.356043 0.826057
vt 0.248317 0.842336
vt 0.248317 0.853451
vt 0.237845 0.853451
vt 0.237845 0.842336
vt 0.262405 0.839548
vt 0.251290 0.839548
vt 0.251290 0.826057
vt 0.262405 0.826057
vt 0.293207 0.839560
vt 0.282092 0.839560
vt 0.282092 0.826057
vt 0.293207 0.826057
vt 0.169998 0.837788
vt 0.158883 0.837788
vt 0.158883 0.826057
vt 0.169998 0.826057
vt 0.200800 0.839290
vt 0.189686 0.839290
vt 0.189686 0.826057
vt 0.200800 0.826057
vt 0.154874 0.837788
vt 0.143759 0.837788
vt 0.143759 0.826057
vt 0.154874 0.826057
vt 0.283935 0.146190
vt 0.347725 0.153264
vt 0.401493 0.184080
vt 0.424112 0.235046
vt 0.414154 0.284737
vt 0.370449 0.339486
vt 0.392061 0.396410
vt 0.391828 0.430936
vt 0.366523 0.469162
vt 0.201348 0.469162
vt 0.176043 0.430936
vt 0.175810 0.396410
vt 0.197422 0.339486
vt 0.153717 0.284737
vt 0.143759 0.235046
vt 0.166378 0.184080
vt 0.220145 0.153264
vt 0.642023 0.550167
vt 0.642023 0.496400
vt 0.693394 0.496400
vt 0.693394 0.550167
vt 0.783951 0.471761
vt 0.783951 0.522727
vt 0.732581 0.517463
vt 0.732581 0.466497
vt 0.783951 0.718616
vt 0.783951 0.756842
vt 0.732581 0.751579
vt 0.732581 0.713352
vt 0.637737 0.496400
vt 0.637737 0.563971
vt 0.618160 0.563931
vt 0.586468 0.563891
vt 0.586367 0.496400
vt 0.617880 0.578987
vt 0.637737 0.578987
vt 0.764446 0.146190
vt 0.796139 0.150432
vt 0.794677 0.387151
vt 0.763305 0.387151
vt 0.730219 0.437061
vt 0.729235 0.405347
vt 0.715485 0.406028
vt 0.714672 0.436269
vt 0.729235 0.405347
vt 0.730219 0.437061
vt 0.715485 0.406028
vt 0.729235 0.405347
vt 0.730219 0.437061
vt 0.714672 0.436269
vt 0.431311 0.826068
vt 0.431311 0.839826
vt 0.420647 0.839545
vt 0.420647 0.826057
vt 0.360546 0.826310
vt 0.370744 0.826057
vt 0.370801 0.839792
vt 0.360329 0.839800
vt 0.309224 0.826057
vt 0.309224 0.839560
vt 0.297493 0.839682
vt 0.297493 0.826449
vt 0.389845 0.839815
vt 0.389845 0.826057
vt 0.400960 0.826057
vt 0.400960 0.839815
vt 0.263487 0.853451
vt 0.252823 0.853451
vt 0.252823 0.842336
vt 0.263487 0.842336
vt 0.205087 0.839545
vt 0.205087 0.826057
vt 0.216201 0.826057
vt 0.216201 0.839545
vt 0.278464 0.853464
vt 0.267801 0.853464
vt 0.267801 0.842349
vt 0.278464 0.842349
vt 0.292976 0.853464
vt 0.282778 0.853464
vt 0.282778 0.842349
vt 0.292976 0.842349
vt 0.329527 0.839792
vt 0.329527 0.826057
vt 0.340642 0.826057
vt 0.340642 0.839792
vt 0.308227 0.853586
vt 0.297756 0.853586
vt 0.297756 0.842471
vt 0.308227 0.842471
vt 0.235889 0.839548
vt 0.235889 0.826057
vt 0.247003 0.826057
vt 0.247003 0.839548
vt 0.266691 0.839560
vt 0.266691 0.826057
vt 0.277806 0.826057
vt 0.277806 0.839560
vt 0.160234 0.853810
vt 0.160234 0.842079
vt 0.171349 0.842079
vt 0.171349 0.853810
vt 0.174284 0.839290
vt 0.174284 0.826057
vt 0.185399 0.826057
vt 0.185399 0.839290
vt 0.176573 0.853810
vt 0.176573 0.842079
vt 0.187688 0.842079
vt 0.187688 0.853810
vt 0.715485 0.406028
vt 0.714672 0.436269
vt 0.755988 0.400532
vt 0.756194 0.387880
vt 0.755988 0.400532
vt 0.719208 0.402080
vt 0.719250 0.387954
vt 0.756194 0.387880
vt 0.755988 0.400532
vt 0.719208 0.402080
vt 0.714672 0.436269
vt 0.715485 0.406028
vt 0.714672 0.436269
vt 0.730219 0.437061
vt 0.714672 0.436269
vt 0.729235 0.405347
vt 0.715485 0.406028
vt 0.729235 0.405347
vt 0.730219 0.437061
vt 0.730219 0.437061
vt 0.714672 0.436269
vt 0.715485 0.406028
vt 0.715485 0.406028
vt 0.729235 0.405347
vt 0.730219 0.437061
vt 0.714672 0.436269
vt 0.729235 0.405347
vt 0.714672 0.436269
vt 0.730219 0.437061
vt 0.719208 0.402080
vt 0.755988 0.400532
vt 0.756194 0.387880
vt 0.719250 0.387954
vt 0.719208 0.402080
vt 0.755988 0.400532
vt 0.719208 0.402080
vt 0.719250 0.387954
vt 0.719208 0.402080
vt 0.719250 0.387954
vt 0.756194 0.387880
vt 0.755988 0.400532
vt 0.756194 0.387880
vt 0.719208 0.402080
vt 0.719250 0.387954
vt 0.756194 0.387880
vt 0.755988 0.400532
vt 0.719208 0.402080
vt 0.719250 0.387954
vt 0.719208 0.402080
vt 0.719208 0.402080
vt 0.719250 0.387954
vt 0.756194 0.387880
vt 0.755988 0.400532
vt 0.756194 0.387880
vt 0.719250 0.387954
vt 0.839608 0.567154
vt 0.788237 0.572418
vt 0.839608 0.621903
vt 0.788237 0.627167
vt 0.839608 0.678826
vt 0.788237 0.684090
vt 0.518689 0.496400
vt 0.532680 0.496400
vt 0.532680 0.538661
vt 0.518689 0.538661
vt 0.507843 0.496400
vt 0.514402 0.496400
vt 0.514402 0.538661
vt 0.507843 0.538661
vt 0.261378 0.740986
vt 0.306493 0.740986
vt 0.261378 0.809648
vt 0.261378 0.792482
vt 0.261378 0.783900
vt 0.261378 0.775317
vt 0.261378 0.758151
vt 0.306493 0.758151
vt 0.306493 0.775317
vt 0.306493 0.783900
vt 0.306493 0.792482
vt 0.306493 0.809648
vt 0.275369 0.816709
vt 0.292502 0.816709
vt 0.279051 0.823269
vt 0.288820 0.823269
vt 0.550957 0.502959
vt 0.554639 0.496400
vt 0.564408 0.496400
vt 0.568090 0.502959
vt 0.536966 0.510020
vt 0.582080 0.510020
vt 0.536966 0.578682
vt 0.536966 0.561517
vt 0.536966 0.544351
vt 0.536966 0.535768
vt 0.536966 0.527185
vt 0.582080 0.527185
vt 0.582080 0.535768
vt 0.582080 0.544351
vt 0.582080 0.561517
vt 0.582080 0.578682
vt 0.544084 0.586674
vt 0.574962 0.586674
vt 0.783951 0.572418
vt 0.732581 0.567154
vt 0.783951 0.627167
vt 0.732581 0.621903
vt 0.783951 0.684090
vt 0.732581 0.678826
vt 0.804323 0.387055
vt 0.804323 0.395046
vt 0.762062 0.395046
vt 0.489502 0.496400
vt 0.489502 0.538661
vt 0.475511 0.538661
vt 0.475511 0.496400
vt 0.464665 0.538661
vt 0.464665 0.496400
vt 0.471225 0.496400
vt 0.471225 0.538661
vt 0.719208 0.402080
vt 0.719208 0.402080
vn -0.0724 0.3618 -0.9295
vn -0.5612 -0.0100 -0.8276
vn -0.8430 -0.5336 -0.0678
vn -0.5907 -0.6234 0.5123
vn -0.4825 0.8342 0.2670
vn 0.2693 0.5218 -0.8094
vn -0.7742 -0.2627 -0.5758
vn -0.2939 0.1307 -0.9469
vn 0.7743 0.2638 0.5752
vn 0.4845 -0.8319 -0.2707
vn -0.4094 -0.4843 0.7732
vn 0.4142 0.4760 -0.7758
vn -0.4850 0.8313 0.2716
vn -0.7743 -0.2638 -0.5752
vn 0.4932 -0.8211 -0.2873
vn 0.4094 0.4843 -0.7732
vn -0.4829 0.8337 0.2678
vn -0.4723 0.8459 0.2478
vn -0.4114 -0.4809 0.7743
vn 0.4822 -0.8346 -0.2664
vn 0.4016 0.4976 -0.7688
vn 0.4783 -0.8392 -0.2589
vn -0.4686 0.8499 0.2410
vn 0.4825 -0.8343 -0.2669
vn 0.6946 0.6231 -0.3596
vn 0.8530 0.4718 0.2230
vn 0.4462 -0.0944 0.8899
vn -0.0842 -0.4508 0.8886
vn 0.4542 0.5848 -0.6721
vn -0.3896 -0.5175 0.7618
vn 0.7744 0.2648 0.5747
vn -0.4722 0.8459 0.2478
vn 0.7361 0.4131 0.5361
vn 0.8674 0.1819 0.4632
vn 0.6663 0.3260 0.6707
vn 0.7741 0.2638 0.5755
vn 0.7743 0.2640 0.5752
vn 0.7551 0.3044 0.5806
vn 0.7920 0.2854 0.5397
vn 0.7558 0.3047 0.5796
vn 0.7744 0.2637 0.5751
vn 0.7920 0.2856 0.5396
vn 0.7530 0.3025 0.5844
vn 0.7741 0.2636 0.5755
vn 0.7923 0.2845 0.5397
vn 0.7534 0.3029 0.5836
vn 0.7743 0.2639 0.5752
vn 0.7919 0.2857 0.5397
vn 0.7451 0.2825 0.6042
vn -0.7743 -0.2640 -0.5752
vn -0.7744 -0.2637 -0.5752
vn -0.7743 -0.2639 -0.5752
vn -0.8019 -0.2448 -0.5451
vn -0.7744 -0.2636 -0.5751
vn -0.8337 -0.1456 -0.5327
vn -0.7040 -0.3714 -0.6054
vn -0.6854 -0.3233 -0.6525
vn -0.8298 -0.3705 -0.4174
vn -0.8527 -0.4892 -0.1832
vn -0.8517 -0.4996 -0.1581
vn -0.8280 -0.5605 0.0157
vn -0.5957 -0.0443 -0.8020
vn -0.6662 -0.1205 -0.7360
vn -0.6776 -0.1339 -0.7231
vn -0.7767 -0.2676 -0.5702
vn -0.6372 -0.5435 0.5464
vn -0.7969 -0.5446 0.2613
vn -0.6414 -0.5442 0.5409
vn -0.8756 -0.4671 -0.1232
vn 0.4854 -0.8305 -0.2731
vn 0.5403 -0.7487 -0.3840
vn 0.4854 -0.8305 -0.2732
vn 0.4824 -0.8343 -0.2671
vn 0.4820 -0.8344 -0.2674
vn 0.4629 -0.8555 -0.2319
vn 0.4632 -0.8552 -0.2324
vn 0.4630 -0.8554 -0.2321
vn 0.4631 -0.8554 -0.2322
vn 0.4825 -0.8342 -0.2670
vn 0.4821 -0.8344 -0.2673
vn -0.4828 0.8341 0.2668
vn 0.6883 0.1467 0.7104
vn 0.5145 -0.0342 0.8568
vn 0.5328 -0.0173 0.8461
vn 0.3798 -0.1490 0.9130
vn 0.8511 0.4486 0.2729
vn 0.8337 0.3810 0.3997
vn 0.8375 0.3917 0.3811
vn 0.7718 0.2599 0.5802
vn 0.8486 0.5199 -0.0981
vn 0.9159 0.3761 -0.1405
vn 0.7627 0.6444 -0.0553
vn -0.0929 -0.1774 0.9797
vn 0.0639 -0.4480 0.8917
vn 0.1484 -0.2226 0.9636
vn 0.1484 -0.2226 0.9635
vn 0.4748 -0.0070 0.8801
vn -0.7741 -0.2637 -0.5755
vn -0.7742 -0.2635 -0.5755
usemtl initialShadingGroup.003
s off
f 1/1/1 2/2/1 3/3/1 4/4/1
f 4/5/2 3/6/2 5/7/2 6/8/2
f 7/9/3 8/10/3 9/11/3 10/12/3
f 10/13/4 9/14/4 11/15/4 12/16/4 13/17/4
f 14/18/5 1/19/5 4/20/5 6/21/5 15/22/5 16/23/5 17/24/5 7/25/5 10/26/5 13/27/5 18/28/5 19/29/5 20/30/5 21/31/5 22/32/5 23/33/5 24/34/5 25/35/5 26/36/5 27/37/5
f 28/38/6 2/2/6 1/1/6 14/39/6
f 11/40/7 29/41/7 30/42/7 12/43/7
f 29/41/8 31/44/8 32/45/8 33/46/8 30/42/8
f 34/47/9 35/48/9 36/49/9 37/50/9
f 29/51/10 11/52/10 38/53/10 39/54/10 40/55/10
f 41/56/11 42/57/11 43/58/11 44/59/11
f 45/60/12 30/61/12 33/62/12 46/63/12 47/64/12
f 48/65/13 12/66/13 30/67/13 45/68/13 47/69/13 49/70/13
f 50/71/14 51/72/14 52/73/14 53/74/14
f 54/75/14 55/76/14 56/77/14 57/78/14
f 58/79/14 59/80/14 60/81/14 61/82/14
f 62/83/9 63/84/9 64/85/9 65/86/9
f 66/87/11 50/88/11 53/89/11 67/90/11
f 67/91/15 53/92/15 52/93/15 68/94/15
f 68/95/16 52/96/16 51/97/16 69/98/16
f 69/99/17 51/100/17 50/101/17 66/102/17
f 70/103/18 54/104/18 57/105/18 71/106/18
f 71/107/19 57/108/19 56/109/19 72/110/19
f 72/111/20 56/112/20 55/113/20 73/114/20
f 73/115/21 55/116/21 54/117/21 70/118/21
f 74/119/11 58/120/11 61/121/11 75/122/11
f 75/123/22 61/124/22 60/125/22 76/126/22
f 76/127/16 60/128/16 59/129/16 77/130/16
f 77/131/23 59/132/23 58/133/23 74/134/23
f 28/135/24 78/136/24 79/137/24 80/138/24 81/139/24 82/140/24 83/141/24 84/142/24 85/143/24 39/54/24 38/53/24 11/52/24 9/144/24 8/145/24 86/146/24 87/147/24 88/148/24 5/149/24 3/150/24 2/151/24
f 27/152/25 26/153/25 79/154/25 78/155/25
f 26/156/26 25/157/26 80/158/26 79/159/26
f 21/160/27 20/161/27 85/162/27 84/163/27
f 20/164/28 19/165/28 49/166/28 39/167/28 85/168/28
f 28/38/29 14/39/29 27/152/29 78/155/29
f 48/169/30 49/166/30 19/165/30 18/170/30 13/17/30 12/16/30
f 39/171/31 49/172/31 47/173/31 40/174/31
f 89/175/9 37/176/9 36/177/9 90/178/9
f 36/49/9 35/48/9 91/179/9 92/180/9
f 93/181/9 94/182/9 65/183/9 95/184/9
f 96/185/9 97/186/9 98/187/9 99/188/9
f 100/189/9 101/190/9 102/191/9 103/192/9
f 104/193/9 105/194/9 106/195/9 107/196/9
f 92/197/11 108/198/11 97/199/11 96/200/11
f 108/201/15 90/202/15 98/203/15 97/204/15
f 90/205/16 36/206/16 99/207/16 98/208/16
f 36/209/17 92/210/17 96/211/17 99/212/17
f 62/213/32 65/214/32 101/215/32 100/216/32
f 65/217/19 94/218/19 102/219/19 101/220/19
f 94/221/20 109/222/20 103/223/20 102/224/20
f 109/225/21 62/226/21 100/227/21 103/228/21
f 37/229/11 89/230/11 105/231/11 104/232/11
f 89/233/22 93/234/22 106/235/22 105/236/22
f 93/237/16 95/238/16 107/239/16 106/240/16
f 95/241/23 37/242/23 104/243/23 107/244/23
f 110/245/33 108/246/9 92/180/9 91/179/34
f 68/247/14 69/248/14 74/249/14 75/250/14
f 76/251/14 77/252/14 71/253/14 72/254/14
f 62/255/9 109/256/9 111/257/35 63/258/9
f 65/259/36 64/85/36 112/260/36 95/261/36
f 34/262/37 37/50/37 95/184/37 112/263/37
f 108/264/9 110/265/9 113/266/38 90/178/9
f 90/267/9 113/268/39 114/269/40 89/270/9
f 89/270/41 114/269/42 115/271/43 93/181/41
f 93/181/44 115/272/45 116/273/46 94/182/44
f 94/182/47 116/273/48 111/257/49 109/256/47
f 74/274/50 117/275/50 118/276/50 77/277/50
f 71/278/51 119/279/51 32/280/51 70/281/51
f 70/282/14 32/283/14 31/284/14 73/285/14
f 72/286/52 73/285/52 31/287/53 120/288/52
f 75/289/54 76/290/54 121/291/54 122/292/54
f 68/247/51 75/289/51 122/292/51 123/293/51
f 66/294/14 67/295/14 124/296/55 125/297/56
f 66/294/14 125/297/57 126/298/14 69/299/14
s 1
f 6/8/58 5/7/58 88/300/59 15/301/60
f 15/301/60 88/300/59 87/302/61 16/303/61
f 16/303/62 87/302/62 86/304/63 17/305/64
f 17/305/64 86/304/63 8/10/65 7/9/65
f 124/306/66 127/307/67 128/308/67 125/309/68
f 127/310/67 42/311/69 41/312/69 128/313/67
f 31/314/70 29/51/71 40/55/71 111/315/72
f 124/316/73 123/317/74 122/318/74 121/319/74 120/320/74 31/314/70 111/315/72 116/321/75 115/322/76 114/323/77 113/324/78 110/325/73
f 127/326/79 124/316/80 110/325/80 129/327/79
f 42/328/79 127/326/79 129/327/79 43/329/79
f 128/330/5 41/331/5 44/332/5 130/333/5
f 125/334/81 128/330/5 130/333/5 91/335/81
f 32/336/81 119/337/81 118/338/81 117/339/81 126/340/81 125/334/81 91/335/81 35/341/81 34/342/81 112/343/81 64/344/81 63/345/81
f 33/346/5 32/336/81 63/345/81 46/347/5
f 25/157/82 24/348/83 81/349/84 80/158/82
f 24/348/83 23/350/85 82/351/85 81/349/84
f 23/350/86 22/352/87 83/353/88 82/351/86
f 22/352/87 21/160/89 84/163/89 83/353/88
f 40/174/90 47/173/90 46/354/90 63/355/91 111/356/92
f 110/357/93 91/358/94 130/359/95 129/360/96
f 129/361/96 130/362/95 44/363/97 43/364/97
f 117/275/14 74/274/14 69/299/14 126/298/14
f 119/279/98 71/278/98 77/277/98 118/276/98
f 120/288/99 121/291/99 76/290/99 72/286/99
f 123/293/51 124/365/51 67/366/51 68/247/51
