# Blender v2.79 (sub 6) OBJ File: 'bailarina.blend1'
# www.blender.org
mtllib Guitarra2_000019.mtl
o g2_pPlane4.001
v -1.671616 19.666296 2.984673
v -2.287399 19.601160 3.695123
v -1.462108 19.105780 4.288974
v -0.846328 19.170918 3.578522
v -1.006751 18.215197 4.476223
v -0.390971 18.280334 3.765772
v -0.276275 14.729118 3.056159
v -0.892055 14.663980 3.766609
v -1.130391 13.950554 3.400284
v -0.514611 14.015692 2.689836
v -1.989689 13.465982 2.551950
v -1.607505 13.488289 2.111534
v -1.375539 13.526682 1.841557
v -2.570397 19.747227 2.233636
v -0.386136 17.377600 3.564564
v -0.829848 16.347782 2.950446
v -0.371350 15.349165 3.115809
v -1.588702 13.555767 1.665682
v -1.787521 13.494387 1.481509
v -2.780478 13.838078 0.709617
v -3.236420 14.497082 0.469188
v -3.337890 15.116623 0.523247
v -3.203437 16.161716 0.876082
v -3.958815 17.097544 0.442278
v -4.236849 17.978859 0.404725
v -4.071625 18.918095 0.759827
v -3.421760 19.529110 1.455167
v -3.182601 19.659542 2.942018
v -1.314292 9.137079 2.173289
v -0.947383 9.234570 1.744707
v -1.206897 8.999290 2.264182
v -0.712635 9.130618 1.686844
v -0.833027 9.266419 1.614667
v -1.213541 8.340396 1.077554
v -1.184938 8.157661 1.061183
v -1.366507 8.153983 1.269275
v -1.391513 8.315031 1.283443
v -2.196770 13.449749 2.370975
v -2.403853 13.433516 2.189999
v -1.734257 9.104158 1.806267
v -0.720866 7.634519 1.339475
v -1.215127 7.503191 1.916814
v -1.349136 7.492684 1.799698
v -0.854877 7.624013 1.222360
v -1.159539 9.217530 1.563735
v -1.256611 9.233215 1.244481
v -1.367346 9.201649 1.377686
v -1.821901 13.500113 1.937514
v -2.020580 13.455912 1.750534
v -0.564929 8.022988 1.925970
v -0.595157 8.214449 1.943384
v -0.752899 8.172532 2.127642
v -0.725840 7.980232 2.113929
v -0.711349 8.926160 2.012500
v -0.869744 8.888127 2.197156
v -0.839838 8.700176 2.179794
v -0.679368 8.743872 1.992256
v -0.620163 8.375497 1.957554
v -0.658144 8.584861 1.982234
v -0.812907 8.543739 2.163011
v -0.778090 8.333531 2.142026
v -1.482698 8.865694 1.338389
v -1.331513 9.082105 1.145984
v -1.281629 8.766915 1.117168
v -1.450718 8.683409 1.318146
v -0.717401 8.011037 1.792719
v -0.878312 7.968281 1.980677
v -0.905372 8.160583 1.994390
v -0.747629 8.202497 1.810134
v -0.863821 8.914208 1.879250
v -0.831841 8.731920 1.859005
v -0.992310 8.688223 2.046544
v -1.022217 8.876175 2.063904
v -0.772635 8.363543 1.824304
v -0.930563 8.321581 2.008775
v -0.965380 8.531787 2.029761
v -0.810616 8.572909 1.848982
v -4.037538 19.463964 2.165617
v -4.687404 18.852955 1.470277
v -4.852632 17.913721 1.115175
v -4.574595 17.032402 1.152728
v -3.819220 16.096577 1.586533
v -3.953670 15.051485 1.233698
v -3.852200 14.431940 1.179638
v -3.396256 13.772938 1.420067
v -0.987131 15.284027 3.826258
v -1.445627 16.282639 3.660897
v -1.001915 17.312460 4.275013
v -1.549441 8.273067 1.467917
v -1.524250 8.112069 1.453532
v -1.136078 7.849514 1.032916
v -1.336279 7.962525 1.251860
v -1.584259 8.483275 1.488903
v -1.611188 8.639711 1.505684
v -1.429494 8.524397 1.308123
v -1.488751 7.950573 1.118610
v -1.649662 7.907815 1.306567
v -1.676722 8.100118 1.320282
v -1.518978 8.142032 1.136025
v -1.635170 8.853743 1.205139
v -1.603188 8.671454 1.184896
v -1.763660 8.627760 1.372434
v -1.793566 8.815711 1.389796
v -1.543984 8.303079 1.150193
v -1.701912 8.261115 1.334666
v -1.736731 8.471324 1.355651
v -1.581965 8.512444 1.174873
v -1.497191 7.919767 1.439818
v -1.641096 8.827663 1.523047
v -1.630339 7.718184 1.610255
v -1.825775 8.950776 1.723324
v -1.249967 8.576857 1.098117
v -1.679198 8.026334 1.638522
v -1.703627 8.180407 1.652656
v -1.741317 8.425543 1.673896
v -1.766920 8.573999 1.689699
v -0.594562 8.388222 1.618358
v -0.628186 8.605437 1.637421
v -0.656589 8.773115 1.654724
v -1.152277 8.651578 2.232827
v -1.125194 8.492967 2.216231
v -1.094048 8.292772 2.198498
v -1.067727 8.125706 2.183351
v -1.011460 7.766697 2.151113
v -0.517200 7.898027 1.573775
v -0.566059 8.206175 1.602043
v -1.183291 7.624896 1.971754
v -0.689030 7.756227 1.394416
v -1.418314 7.606473 1.766361
v -0.924053 7.737803 1.189020
vt 0.642023 0.677747
vt 0.693394 0.677747
vt 0.693394 0.731514
vt 0.642023 0.731514
vt 0.788237 0.471761
vt 0.839608 0.466497
vt 0.839608 0.517463
vt 0.788237 0.522727
vt 0.788237 0.718616
vt 0.839608 0.713352
vt 0.839608 0.751579
vt 0.788237 0.756842
vt 0.637737 0.661574
vt 0.586367 0.661574
vt 0.586468 0.594083
vt 0.618160 0.594043
vt 0.637737 0.594003
vt 0.568646 0.493611
vt 0.504856 0.485282
vt 0.451089 0.454466
vt 0.428470 0.403500
vt 0.438427 0.353809
vt 0.482132 0.299060
vt 0.460520 0.242136
vt 0.460753 0.207610
vt 0.486059 0.169384
vt 0.553630 0.146191
vt 0.568646 0.148710
vt 0.583662 0.146191
vt 0.651234 0.169384
vt 0.676539 0.207610
vt 0.676772 0.242136
vt 0.655160 0.299060
vt 0.698865 0.353809
vt 0.708823 0.403500
vt 0.686203 0.454466
vt 0.632436 0.485282
vt 0.693394 0.613957
vt 0.642023 0.613957
vt 0.754283 0.146190
vt 0.755425 0.387151
vt 0.724052 0.387151
vt 0.722590 0.150432
vt 0.756667 0.395046
vt 0.714406 0.395046
vt 0.714406 0.387055
vt 0.715485 0.406028
vt 0.715485 0.406028
vt 0.714672 0.436269
vt 0.715485 0.406028
vt 0.268628 0.733091
vt 0.268840 0.492130
vt 0.283935 0.492130
vt 0.299031 0.492130
vt 0.299242 0.733091
vt 0.493788 0.538661
vt 0.493788 0.496400
vt 0.503557 0.496400
vt 0.503557 0.538661
vt 0.460379 0.511839
vt 0.460193 0.527146
vt 0.450547 0.527278
vt 0.450547 0.496400
vt 0.460193 0.496531
vt 0.712987 0.734728
vt 0.697931 0.733119
vt 0.697680 0.496400
vt 0.712987 0.496400
vt 0.728294 0.496400
vt 0.728043 0.733119
vt 0.431485 0.839581
vt 0.420822 0.839592
vt 0.420822 0.826104
vt 0.431485 0.826116
vt 0.375304 0.839548
vt 0.375087 0.826057
vt 0.385559 0.826066
vt 0.385502 0.839800
vt 0.325241 0.839682
vt 0.313510 0.839290
vt 0.313510 0.826057
vt 0.325241 0.826179
vt 0.715485 0.406028
vt 0.714672 0.436269
vt 0.730219 0.437061
vt 0.729235 0.405347
vt 0.416361 0.839815
vt 0.405246 0.839815
vt 0.405246 0.826057
vt 0.416361 0.826057
vt 0.203576 0.842333
vt 0.203576 0.853448
vt 0.192913 0.853448
vt 0.192913 0.842333
vt 0.231602 0.839545
vt 0.220488 0.839545
vt 0.220488 0.826057
vt 0.231602 0.826057
vt 0.218554 0.842333
vt 0.218554 0.853448
vt 0.207890 0.853448
vt 0.207890 0.842333
vt 0.233066 0.842336
vt 0.233066 0.853451
vt 0.222868 0.853451
vt 0.222868 0.842336
vt 0.356043 0.839792
vt 0.344928 0.839792
vt 0.344928 0.826057
vt 0.356043 0.826057
vt 0.248317 0.842336
vt 0.248317 0.853451
vt 0.237845 0.853451
vt 0.237845 0.842336
vt 0.262405 0.839548
vt 0.251290 0.839548
vt 0.251290 0.826057
vt 0.262405 0.826057
vt 0.293207 0.839560
vt 0.282092 0.839560
vt 0.282092 0.826057
vt 0.293207 0.826057
vt 0.169998 0.837788
vt 0.158883 0.837788
vt 0.158883 0.826057
vt 0.169998 0.826057
vt 0.200800 0.839290
vt 0.189686 0.839290
vt 0.189686 0.826057
vt 0.200800 0.826057
vt 0.154874 0.837788
vt 0.143759 0.837788
vt 0.143759 0.826057
vt 0.154874 0.826057
vt 0.283935 0.146190
vt 0.347725 0.153264
vt 0.401493 0.184080
vt 0.424112 0.235046
vt 0.414154 0.284737
vt 0.370449 0.339486
vt 0.392061 0.396410
vt 0.391828 0.430936
vt 0.366523 0.469162
vt 0.201348 0.469162
vt 0.176043 0.430936
vt 0.175810 0.396410
vt 0.197422 0.339486
vt 0.153717 0.284737
vt 0.143759 0.235046
vt 0.166378 0.184080
vt 0.220145 0.153264
vt 0.642023 0.550167
vt 0.642023 0.496400
vt 0.693394 0.496400
vt 0.693394 0.550167
vt 0.783951 0.471761
vt 0.783951 0.522727
vt 0.732581 0.517463
vt 0.732581 0.466497
vt 0.783951 0.718616
vt 0.783951 0.756842
vt 0.732581 0.751579
vt 0.732581 0.713352
vt 0.637737 0.496400
vt 0.637737 0.563971
vt 0.618160 0.563931
vt 0.586468 0.563891
vt 0.586367 0.496400
vt 0.617880 0.578987
vt 0.637737 0.578987
vt 0.764446 0.146190
vt 0.796139 0.150432
vt 0.794677 0.387151
vt 0.763305 0.387151
vt 0.730219 0.437061
vt 0.729235 0.405347
vt 0.715485 0.406028
vt 0.714672 0.436269
vt 0.729235 0.405347
vt 0.730219 0.437061
vt 0.715485 0.406028
vt 0.729235 0.405347
vt 0.730219 0.437061
vt 0.714672 0.436269
vt 0.431311 0.826068
vt 0.431311 0.839826
vt 0.420647 0.839545
vt 0.420647 0.826057
vt 0.360546 0.826310
vt 0.370744 0.826057
vt 0.370801 0.839792
vt 0.360329 0.839800
vt 0.309224 0.826057
vt 0.309224 0.839560
vt 0.297493 0.839682
vt 0.297493 0.826449
vt 0.389845 0.839815
vt 0.389845 0.826057
vt 0.400960 0.826057
vt 0.400960 0.839815
vt 0.263487 0.853451
vt 0.252823 0.853451
vt 0.252823 0.842336
vt 0.263487 0.842336
vt 0.205087 0.839545
vt 0.205087 0.826057
vt 0.216201 0.826057
vt 0.216201 0.839545
vt 0.278464 0.853464
vt 0.267801 0.853464
vt 0.267801 0.842349
vt 0.278464 0.842349
vt 0.292976 0.853464
vt 0.282778 0.853464
vt 0.282778 0.842349
vt 0.292976 0.842349
vt 0.329527 0.839792
vt 0.329527 0.826057
vt 0.340642 0.826057
vt 0.340642 0.839792
vt 0.308227 0.853586
vt 0.297756 0.853586
vt 0.297756 0.842471
vt 0.308227 0.842471
vt 0.235889 0.839548
vt 0.235889 0.826057
vt 0.247003 0.826057
vt 0.247003 0.839548
vt 0.266691 0.839560
vt 0.266691 0.826057
vt 0.277806 0.826057
vt 0.277806 0.839560
vt 0.160234 0.853810
vt 0.160234 0.842079
vt 0.171349 0.842079
vt 0.171349 0.853810
vt 0.174284 0.839290
vt 0.174284 0.826057
vt 0.185399 0.826057
vt 0.185399 0.839290
vt 0.176573 0.853810
vt 0.176573 0.842079
vt 0.187688 0.842079
vt 0.187688 0.853810
vt 0.715485 0.406028
vt 0.714672 0.436269
vt 0.755988 0.400532
vt 0.756194 0.387880
vt 0.755988 0.400532
vt 0.719208 0.402080
vt 0.719250 0.387954
vt 0.756194 0.387880
vt 0.755988 0.400532
vt 0.719208 0.402080
vt 0.714672 0.436269
vt 0.715485 0.406028
vt 0.714672 0.436269
vt 0.730219 0.437061
vt 0.714672 0.436269
vt 0.729235 0.405347
vt 0.715485 0.406028
vt 0.729235 0.405347
vt 0.730219 0.437061
vt 0.730219 0.437061
vt 0.714672 0.436269
vt 0.715485 0.406028
vt 0.715485 0.406028
vt 0.729235 0.405347
vt 0.730219 0.437061
vt 0.714672 0.436269
vt 0.729235 0.405347
vt 0.714672 0.436269
vt 0.730219 0.437061
vt 0.719208 0.402080
vt 0.755988 0.400532
vt 0.756194 0.387880
vt 0.719250 0.387954
vt 0.719208 0.402080
vt 0.755988 0.400532
vt 0.719208 0.402080
vt 0.719250 0.387954
vt 0.719208 0.402080
vt 0.719250 0.387954
vt 0.756194 0.387880
vt 0.755988 0.400532
vt 0.756194 0.387880
vt 0.719208 0.402080
vt 0.719250 0.387954
vt 0.756194 0.387880
vt 0.755988 0.400532
vt 0.719208 0.402080
vt 0.719250 0.387954
vt 0.719208 0.402080
vt 0.719208 0.402080
vt 0.719250 0.387954
vt 0.756194 0.387880
vt 0.755988 0.400532
vt 0.756194 0.387880
vt 0.719250 0.387954
vt 0.839608 0.567154
vt 0.788237 0.572418
vt 0.839608 0.621903
vt 0.788237 0.627167
vt 0.839608 0.678826
vt 0.788237 0.684090
vt 0.518689 0.496400
vt 0.532680 0.496400
vt 0.532680 0.538661
vt 0.518689 0.538661
vt 0.507843 0.496400
vt 0.514402 0.496400
vt 0.514402 0.538661
vt 0.507843 0.538661
vt 0.261378 0.740986
vt 0.306493 0.740986
vt 0.261378 0.809648
vt 0.261378 0.792482
vt 0.261378 0.783900
vt 0.261378 0.775317
vt 0.261378 0.758151
vt 0.306493 0.758151
vt 0.306493 0.775317
vt 0.306493 0.783900
vt 0.306493 0.792482
vt 0.306493 0.809648
vt 0.275369 0.816709
vt 0.292502 0.816709
vt 0.279051 0.823269
vt 0.288820 0.823269
vt 0.550957 0.502959
vt 0.554639 0.496400
vt 0.564408 0.496400
vt 0.568090 0.502959
vt 0.536966 0.510020
vt 0.582080 0.510020
vt 0.536966 0.578682
vt 0.536966 0.561517
vt 0.536966 0.544351
vt 0.536966 0.535768
vt 0.536966 0.527185
vt 0.582080 0.527185
vt 0.582080 0.535768
vt 0.582080 0.544351
vt 0.582080 0.561517
vt 0.582080 0.578682
vt 0.544084 0.586674
vt 0.574962 0.586674
vt 0.783951 0.572418
vt 0.732581 0.567154
vt 0.783951 0.627167
vt 0.732581 0.621903
vt 0.783951 0.684090
vt 0.732581 0.678826
vt 0.804323 0.387055
vt 0.804323 0.395046
vt 0.762062 0.395046
vt 0.489502 0.496400
vt 0.489502 0.538661
vt 0.475511 0.538661
vt 0.475511 0.496400
vt 0.464665 0.538661
vt 0.464665 0.496400
vt 0.471225 0.496400
vt 0.471225 0.538661
vt 0.719208 0.402080
vt 0.719208 0.402080
vn 0.2943 0.8943 0.3371
vn 0.6499 0.4596 0.6054
vn 0.6755 -0.5027 0.5394
vn 0.3295 -0.9220 0.2036
vn 0.6408 0.1703 -0.7486
vn -0.0073 0.9949 0.1008
vn 0.7520 0.0600 0.6565
vn 0.4480 0.7072 0.5470
vn -0.7517 -0.0589 -0.6569
vn -0.6416 -0.1656 0.7490
vn 0.1560 -0.9836 -0.0902
vn -0.1623 0.9819 0.0976
vn 0.6418 0.1644 -0.7491
vn 0.7517 0.0589 0.6569
vn -0.6447 -0.1443 0.7507
vn -0.1560 0.9836 0.0902
vn 0.6410 0.1693 -0.7486
vn 0.6368 0.1946 -0.7461
vn 0.1586 -0.9829 -0.0933
vn -0.6407 -0.1711 0.7485
vn -0.1456 0.9862 0.0782
vn -0.6392 -0.1805 0.7476
vn 0.6353 0.2031 -0.7451
vn -0.6408 -0.1704 0.7485
vn -0.4503 0.8359 -0.3137
vn -0.7230 0.3519 -0.5944
vn -0.5760 -0.6008 -0.5543
vn -0.1622 -0.9605 -0.2262
vn -0.1868 0.9808 -0.0560
vn 0.1300 -0.9897 -0.0600
vn -0.7514 -0.0579 -0.6573
vn -0.6708 0.0499 -0.7400
vn -0.8462 0.0012 -0.5329
vn -0.6457 -0.1226 -0.7537
vn -0.7515 -0.0591 -0.6570
vn -0.7516 -0.0588 -0.6570
vn -0.7235 -0.0437 -0.6889
vn -0.7580 -0.0144 -0.6522
vn -0.7239 -0.0426 -0.6886
vn -0.7518 -0.0588 -0.6568
vn -0.7579 -0.0142 -0.6523
vn -0.7225 -0.0483 -0.6897
vn -0.7516 -0.0593 -0.6569
vn -0.7585 -0.0149 -0.6515
vn -0.7227 -0.0473 -0.6896
vn -0.7578 -0.0142 -0.6523
vn -0.7229 -0.0773 -0.6866
vn 0.7516 0.0588 0.6570
vn 0.7517 0.0589 0.6568
vn 0.7516 0.0589 0.6570
vn 0.7787 0.0402 0.6261
vn 0.7518 0.0589 0.6567
vn 0.7518 0.0589 0.6568
vn 0.8332 0.0820 0.5468
vn 0.6607 0.0360 0.7498
vn 0.6621 0.1053 0.7420
vn 0.7546 -0.1389 0.6413
vn 0.7127 -0.3921 0.5817
vn 0.7054 -0.4170 0.5732
vn 0.6425 -0.5773 0.5039
vn 0.6702 0.4101 0.6185
vn 0.7084 0.2954 0.6410
vn 0.7140 0.2746 0.6440
vn 0.7523 0.0522 0.6568
vn 0.3900 -0.9121 0.1264
vn 0.5824 -0.7431 0.3295
vn 0.3946 -0.9095 0.1310
vn 0.7318 -0.4301 0.5287
vn -0.6417 -0.1627 0.7495
vn -0.6573 -0.0153 0.7535
vn -0.6407 -0.1703 0.7487
vn -0.6404 -0.1702 0.7490
vn -0.6326 -0.2148 0.7441
vn -0.6327 -0.2142 0.7442
vn -0.6326 -0.2146 0.7441
vn -0.6327 -0.2145 0.7441
vn -0.6408 -0.1703 0.7486
vn -0.6404 -0.1703 0.7489
vn 0.6411 0.1703 -0.7483
vn -0.7191 -0.2544 -0.6466
vn -0.6209 -0.5209 -0.5859
vn -0.6324 -0.4976 -0.5937
vn -0.5300 -0.6692 -0.5208
vn -0.7343 0.3000 -0.6089
vn -0.7532 0.1596 -0.6382
vn -0.7513 0.1810 -0.6346
vn -0.7510 -0.0657 -0.6570
vn -0.6611 0.6202 -0.4222
vn -0.7569 0.5838 -0.2938
vn -0.5526 0.6396 -0.5343
vn -0.0954 -0.8663 -0.4904
vn -0.3033 -0.9204 -0.2467
vn -0.3353 -0.8151 -0.4725
vn -0.3354 -0.8151 -0.4724
vn -0.5791 -0.5328 -0.6170
vn 0.7516 0.0589 0.6569
vn 0.7516 0.0592 0.6570
vn 0.7517 0.0593 0.6569
usemtl initialShadingGroup.003
s off
f 1/1/1 2/2/1 3/3/1 4/4/1
f 4/5/2 3/6/2 5/7/2 6/8/2
f 7/9/3 8/10/3 9/11/3 10/12/3
f 10/13/4 9/14/4 11/15/4 12/16/4 13/17/4
f 14/18/5 1/19/5 4/20/5 6/21/5 15/22/5 16/23/5 17/24/5 7/25/5 10/26/5 13/27/5 18/28/5 19/29/5 20/30/5 21/31/5 22/32/5 23/33/5 24/34/5 25/35/5 26/36/5 27/37/5
f 28/38/6 2/2/6 1/1/6 14/39/6
f 11/40/7 29/41/7 30/42/7 12/43/7
f 29/41/8 31/44/8 32/45/8 33/46/8 30/42/8
f 34/47/9 35/48/9 36/49/9 37/50/9
f 29/51/10 11/52/10 38/53/10 39/54/10 40/55/10
f 41/56/11 42/57/11 43/58/11 44/59/11
f 45/60/12 30/61/12 33/62/12 46/63/12 47/64/12
f 48/65/13 12/66/13 30/67/13 45/68/13 47/69/13 49/70/13
f 50/71/14 51/72/14 52/73/14 53/74/14
f 54/75/14 55/76/14 56/77/14 57/78/14
f 58/79/14 59/80/14 60/81/14 61/82/14
f 62/83/9 63/84/9 64/85/9 65/86/9
f 66/87/11 50/88/11 53/89/11 67/90/11
f 67/91/15 53/92/15 52/93/15 68/94/15
f 68/95/16 52/96/16 51/97/16 69/98/16
f 69/99/17 51/100/17 50/101/17 66/102/17
f 70/103/18 54/104/18 57/105/18 71/106/18
f 71/107/19 57/108/19 56/109/19 72/110/19
f 72/111/20 56/112/20 55/113/20 73/114/20
f 73/115/21 55/116/21 54/117/21 70/118/21
f 74/119/11 58/120/11 61/121/11 75/122/11
f 75/123/22 61/124/22 60/125/22 76/126/22
f 76/127/16 60/128/16 59/129/16 77/130/16
f 77/131/23 59/132/23 58/133/23 74/134/23
f 28/135/24 78/136/24 79/137/24 80/138/24 81/139/24 82/140/24 83/141/24 84/142/24 85/143/24 39/54/24 38/53/24 11/52/24 9/144/24 8/145/24 86/146/24 87/147/24 88/148/24 5/149/24 3/150/24 2/151/24
f 27/152/25 26/153/25 79/154/25 78/155/25
f 26/156/26 25/157/26 80/158/26 79/159/26
f 21/160/27 20/161/27 85/162/27 84/163/27
f 20/164/28 19/165/28 49/166/28 39/167/28 85/168/28
f 28/38/29 14/39/29 27/152/29 78/155/29
f 48/169/30 49/166/30 19/165/30 18/170/30 13/17/30 12/16/30
f 39/171/31 49/172/31 47/173/31 40/174/31
f 89/175/9 37/176/9 36/177/9 90/178/9
f 36/49/9 35/48/9 91/179/9 92/180/9
f 93/181/9 94/182/9 65/183/9 95/184/9
f 96/185/9 97/186/9 98/187/9 99/188/9
f 100/189/9 101/190/9 102/191/9 103/192/9
f 104/193/9 105/194/9 106/195/9 107/196/9
f 92/197/11 108/198/11 97/199/11 96/200/11
f 108/201/15 90/202/15 98/203/15 97/204/15
f 90/205/16 36/206/16 99/207/16 98/208/16
f 36/209/17 92/210/17 96/211/17 99/212/17
f 62/213/18 65/214/18 101/215/18 100/216/18
f 65/217/19 94/218/19 102/219/19 101/220/19
f 94/221/20 109/222/20 103/223/20 102/224/20
f 109/225/21 62/226/21 100/227/21 103/228/21
f 37/229/11 89/230/11 105/231/11 104/232/11
f 89/233/22 93/234/22 106/235/22 105/236/22
f 93/237/16 95/238/16 107/239/16 106/240/16
f 95/241/23 37/242/23 104/243/23 107/244/23
f 110/245/32 108/246/9 92/180/9 91/179/33
f 68/247/14 69/248/14 74/249/14 75/250/14
f 76/251/14 77/252/14 71/253/14 72/254/14
f 62/255/9 109/256/9 111/257/34 63/258/9
f 65/259/35 64/85/35 112/260/35 95/261/35
f 34/262/36 37/50/36 95/184/36 112/263/36
f 108/264/9 110/265/9 113/266/37 90/178/9
f 90/267/9 113/268/38 114/269/39 89/270/9
f 89/270/40 114/269/41 115/271/42 93/181/40
f 93/181/43 115/272/44 116/273/45 94/182/43
f 94/182/36 116/273/46 111/257/47 109/256/36
f 74/274/48 117/275/48 118/276/48 77/277/48
f 71/278/49 119/279/49 32/280/49 70/281/49
f 70/282/14 32/283/14 31/284/14 73/285/14
f 72/286/50 73/285/50 31/287/51 120/288/50
f 75/289/52 76/290/52 121/291/52 122/292/52
f 68/247/53 75/289/53 122/292/53 123/293/53
f 66/294/14 67/295/14 124/296/54 125/297/55
f 66/294/14 125/297/56 126/298/14 69/299/14
s 1
f 6/8/57 5/7/57 88/300/58 15/301/59
f 15/301/59 88/300/58 87/302/60 16/303/60
f 16/303/61 87/302/61 86/304/62 17/305/63
f 17/305/63 86/304/62 8/10/64 7/9/64
f 124/306/65 127/307/66 128/308/66 125/309/67
f 127/310/66 42/311/68 41/312/68 128/313/66
f 31/314/69 29/51/70 40/55/70 111/315/69
f 124/316/71 123/317/72 122/318/72 121/319/72 120/320/72 31/314/69 111/315/69 116/321/73 115/322/74 114/323/75 113/324/76 110/325/71
f 127/326/77 124/316/78 110/325/78 129/327/77
f 42/328/77 127/326/77 129/327/77 43/329/77
f 128/330/5 41/331/5 44/332/5 130/333/5
f 125/334/79 128/330/5 130/333/5 91/335/79
f 32/336/79 119/337/79 118/338/79 117/339/79 126/340/79 125/334/79 91/335/79 35/341/79 34/342/79 112/343/79 64/344/79 63/345/79
f 33/346/5 32/336/79 63/345/79 46/347/5
f 25/157/80 24/348/81 81/349/82 80/158/80
f 24/348/81 23/350/83 82/351/83 81/349/82
f 23/350/84 22/352/85 83/353/86 82/351/84
f 22/352/85 21/160/87 84/163/87 83/353/86
f 40/174/88 47/173/88 46/354/88 63/355/89 111/356/90
f 110/357/91 91/358/92 130/359/93 129/360/94
f 129/361/94 130/362/93 44/363/95 43/364/95
f 117/275/96 74/274/96 69/299/96 126/298/96
f 119/279/97 71/278/97 77/277/97 118/276/97
f 120/288/98 121/291/98 76/290/98 72/286/98
f 123/293/49 124/365/49 67/366/49 68/247/49
