# Blender v2.79 (sub 6) OBJ File: 'bailarina.blend1'
# www.blender.org
mtllib Guitarra2_000002.mtl
o g2_pPlane4.001
v -10.107191 20.368683 -0.545104
v -9.720072 20.642591 -1.359524
v -10.250725 19.766930 -1.839926
v -10.637842 19.493021 -1.025506
v -10.180807 18.770094 -2.032237
v -10.567924 18.496181 -1.217816
v -8.595406 15.476438 -0.874126
v -8.208286 15.750348 -1.688546
v -7.551762 15.290456 -1.448859
v -7.938880 15.016547 -0.634441
v -6.410905 15.369727 -0.828351
v -6.641501 15.184579 -0.325286
v -6.794311 15.093003 -0.014748
v -9.259832 20.940699 0.032122
v -10.042285 17.742208 -1.114571
v -8.995354 17.134333 -0.703514
v -8.865084 16.045828 -0.885139
v -6.599155 15.236899 0.120988
v -6.365125 15.297457 0.258021
v -5.578394 16.141027 0.865763
v -5.511650 16.945469 1.085750
v -5.774663 17.518032 1.078972
v -6.522644 18.312273 0.868014
v -6.320415 19.515221 1.250856
v -6.561446 20.404776 1.328496
v -7.277863 21.093637 1.109921
v -8.283966 21.237226 0.613641
v -8.863028 21.193842 -0.781974
v -4.545571 11.387552 -0.786256
v -4.806786 11.273438 -0.289713
v -4.577931 11.212154 -0.869737
v -4.929811 11.058431 -0.200852
v -4.889735 11.239046 -0.138260
v -3.966572 10.682074 0.219999
v -3.887825 10.513930 0.222170
v -3.781764 10.607690 -0.014988
v -3.851276 10.755770 -0.016611
v -6.195175 15.472495 -0.691244
v -5.979445 15.575263 -0.554138
v -4.108069 11.595967 -0.508202
v -4.042496 9.817988 -0.019135
v -3.690617 9.971710 -0.688024
v -3.551010 10.038215 -0.599296
v -3.902889 9.884495 0.069588
v -4.586487 11.378322 -0.153629
v -4.448463 11.449258 0.142192
v -4.369285 11.481853 -0.011660
v -6.436419 15.314708 -0.193392
v -6.211178 15.389578 -0.051794
v -4.502975 10.048578 -0.523110
v -4.585327 10.224892 -0.525689
v -4.473022 10.273950 -0.739164
v -4.388417 10.098624 -0.740873
v -4.889253 10.882330 -0.540261
v -4.778597 10.934985 -0.753841
v -4.697888 10.761782 -0.751005
v -4.812683 10.712758 -0.533636
v -4.654837 10.372972 -0.527313
v -4.742064 10.568399 -0.536549
v -4.631883 10.616532 -0.745992
v -4.542402 10.422088 -0.741039
v -4.085693 11.265127 -0.029559
v -4.285090 11.365561 0.208903
v -4.149588 11.075245 0.213315
v -4.009123 11.095554 -0.022933
v -4.344136 10.124247 -0.422159
v -4.229577 10.174292 -0.639923
v -4.314184 10.349618 -0.638214
v -4.426486 10.300558 -0.424739
v -4.730414 10.957997 -0.439312
v -4.653844 10.788425 -0.432688
v -4.539049 10.837448 -0.650056
v -4.619757 11.010652 -0.652890
v -4.495997 10.448637 -0.426363
v -4.383563 10.497755 -0.640087
v -4.473043 10.692201 -0.645042
v -4.583224 10.644066 -0.435598
v -7.896847 21.511129 -0.200778
v -6.890744 21.367546 0.295503
v -6.174325 20.678686 0.514074
v -5.933296 19.789129 0.436437
v -6.135524 18.586182 0.053593
v -5.387546 17.791941 0.264551
v -5.124531 17.219378 0.271330
v -5.191276 16.414936 0.051343
v -8.477964 16.319738 -1.699559
v -8.608235 17.408239 -1.517935
v -9.655167 18.016115 -1.928990
v -3.738842 10.804886 -0.230336
v -3.669462 10.656746 -0.228462
v -3.755404 10.230053 0.226594
v -3.699414 10.431377 -0.012407
v -3.828321 10.999331 -0.235291
v -3.894327 11.144580 -0.240304
v -3.938503 10.951197 -0.025846
v -3.540575 10.507045 0.088543
v -3.426015 10.557089 -0.129221
v -3.510623 10.732415 -0.127513
v -3.622926 10.683356 0.085961
v -3.926854 11.340795 0.071390
v -3.850284 11.171224 0.078015
v -3.735489 11.220245 -0.139354
v -3.816197 11.393451 -0.142190
v -3.692437 10.831436 0.084339
v -3.580002 10.880552 -0.129385
v -3.669482 11.074998 -0.134341
v -3.779664 11.026864 0.075103
v -3.584855 10.481421 -0.230171
v -3.975036 11.317784 -0.243138
v -3.403523 10.383775 -0.442296
v -3.933210 11.519284 -0.459988
v -4.068818 10.899340 0.217903
v -3.535945 10.667652 -0.446717
v -3.602156 10.809589 -0.448929
v -3.708196 11.034789 -0.451013
v -3.770772 11.172658 -0.455660
v -4.610993 10.374315 -0.189754
v -4.704822 10.573985 -0.191877
v -4.775803 10.729426 -0.196496
v -4.428205 10.892102 -0.865370
v -4.361188 10.744948 -0.860737
v -4.274806 10.560843 -0.858591
v -4.202912 10.407025 -0.856398
v -4.048246 10.076643 -0.852045
v -4.400126 9.922923 -0.183158
v -4.532547 10.206800 -0.187582
v -3.793831 10.055120 -0.723154
v -4.145713 9.901399 -0.054266
v -3.548994 10.171755 -0.567549
v -3.900874 10.018032 0.101340
vt 0.642023 0.677747
vt 0.693394 0.677747
vt 0.693394 0.731514
vt 0.642023 0.731514
vt 0.788237 0.471761
vt 0.839608 0.466497
vt 0.839608 0.517463
vt 0.788237 0.522727
vt 0.788237 0.718616
vt 0.839608 0.713352
vt 0.839608 0.751579
vt 0.788237 0.756842
vt 0.637737 0.661574
vt 0.586367 0.661574
vt 0.586468 0.594083
vt 0.618160 0.594043
vt 0.637737 0.594003
vt 0.568646 0.493611
vt 0.504856 0.485282
vt 0.451089 0.454466
vt 0.428470 0.403500
vt 0.438427 0.353809
vt 0.482132 0.299060
vt 0.460520 0.242136
vt 0.460753 0.207610
vt 0.486059 0.169384
vt 0.553630 0.146191
vt 0.568646 0.148710
vt 0.583662 0.146191
vt 0.651234 0.169384
vt 0.676539 0.207610
vt 0.676772 0.242136
vt 0.655160 0.299060
vt 0.698865 0.353809
vt 0.708823 0.403500
vt 0.686203 0.454466
vt 0.632436 0.485282
vt 0.693394 0.613957
vt 0.642023 0.613957
vt 0.754283 0.146190
vt 0.755425 0.387151
vt 0.724052 0.387151
vt 0.722590 0.150432
vt 0.756667 0.395046
vt 0.714406 0.395046
vt 0.714406 0.387055
vt 0.715485 0.406028
vt 0.715485 0.406028
vt 0.714672 0.436269
vt 0.715485 0.406028
vt 0.268628 0.733091
vt 0.268840 0.492130
vt 0.283935 0.492130
vt 0.299031 0.492130
vt 0.299242 0.733091
vt 0.493788 0.538661
vt 0.493788 0.496400
vt 0.503557 0.496400
vt 0.503557 0.538661
vt 0.460379 0.511839
vt 0.460193 0.527146
vt 0.450547 0.527278
vt 0.450547 0.496400
vt 0.460193 0.496531
vt 0.712987 0.734728
vt 0.697931 0.733119
vt 0.697680 0.496400
vt 0.712987 0.496400
vt 0.728294 0.496400
vt 0.728043 0.733119
vt 0.431485 0.839581
vt 0.420822 0.839592
vt 0.420822 0.826104
vt 0.431485 0.826116
vt 0.375304 0.839548
vt 0.375087 0.826057
vt 0.385559 0.826066
vt 0.385502 0.839800
vt 0.325241 0.839682
vt 0.313510 0.839290
vt 0.313510 0.826057
vt 0.325241 0.826179
vt 0.715485 0.406028
vt 0.714672 0.436269
vt 0.730219 0.437061
vt 0.729235 0.405347
vt 0.416361 0.839815
vt 0.405246 0.839815
vt 0.405246 0.826057
vt 0.416361 0.826057
vt 0.203576 0.842333
vt 0.203576 0.853448
vt 0.192913 0.853448
vt 0.192913 0.842333
vt 0.231602 0.839545
vt 0.220488 0.839545
vt 0.220488 0.826057
vt 0.231602 0.826057
vt 0.218554 0.842333
vt 0.218554 0.853448
vt 0.207890 0.853448
vt 0.207890 0.842333
vt 0.233066 0.842336
vt 0.233066 0.853451
vt 0.222868 0.853451
vt 0.222868 0.842336
vt 0.356043 0.839792
vt 0.344928 0.839792
vt 0.344928 0.826057
vt 0.356043 0.826057
vt 0.248317 0.842336
vt 0.248317 0.853451
vt 0.237845 0.853451
vt 0.237845 0.842336
vt 0.262405 0.839548
vt 0.251290 0.839548
vt 0.251290 0.826057
vt 0.262405 0.826057
vt 0.293207 0.839560
vt 0.282092 0.839560
vt 0.282092 0.826057
vt 0.293207 0.826057
vt 0.169998 0.837788
vt 0.158883 0.837788
vt 0.158883 0.826057
vt 0.169998 0.826057
vt 0.200800 0.839290
vt 0.189686 0.839290
vt 0.189686 0.826057
vt 0.200800 0.826057
vt 0.154874 0.837788
vt 0.143759 0.837788
vt 0.143759 0.826057
vt 0.154874 0.826057
vt 0.283935 0.146190
vt 0.347725 0.153264
vt 0.401493 0.184080
vt 0.424112 0.235046
vt 0.414154 0.284737
vt 0.370449 0.339486
vt 0.392061 0.396410
vt 0.391828 0.430936
vt 0.366523 0.469162
vt 0.201348 0.469162
vt 0.176043 0.430936
vt 0.175810 0.396410
vt 0.197422 0.339486
vt 0.153717 0.284737
vt 0.143759 0.235046
vt 0.166378 0.184080
vt 0.220145 0.153264
vt 0.642023 0.550167
vt 0.642023 0.496400
vt 0.693394 0.496400
vt 0.693394 0.550167
vt 0.783951 0.471761
vt 0.783951 0.522727
vt 0.732581 0.517463
vt 0.732581 0.466497
vt 0.783951 0.718616
vt 0.783951 0.756842
vt 0.732581 0.751579
vt 0.732581 0.713352
vt 0.637737 0.496400
vt 0.637737 0.563971
vt 0.618160 0.563931
vt 0.586468 0.563891
vt 0.586367 0.496400
vt 0.617880 0.578987
vt 0.637737 0.578987
vt 0.764446 0.146190
vt 0.796139 0.150432
vt 0.794677 0.387151
vt 0.763305 0.387151
vt 0.730219 0.437061
vt 0.729235 0.405347
vt 0.715485 0.406028
vt 0.714672 0.436269
vt 0.729235 0.405347
vt 0.730219 0.437061
vt 0.715485 0.406028
vt 0.729235 0.405347
vt 0.730219 0.437061
vt 0.714672 0.436269
vt 0.431311 0.826068
vt 0.431311 0.839826
vt 0.420647 0.839545
vt 0.420647 0.826057
vt 0.360546 0.826310
vt 0.370744 0.826057
vt 0.370801 0.839792
vt 0.360329 0.839800
vt 0.309224 0.826057
vt 0.309224 0.839560
vt 0.297493 0.839682
vt 0.297493 0.826449
vt 0.389845 0.839815
vt 0.389845 0.826057
vt 0.400960 0.826057
vt 0.400960 0.839815
vt 0.263487 0.853451
vt 0.252823 0.853451
vt 0.252823 0.842336
vt 0.263487 0.842336
vt 0.205087 0.839545
vt 0.205087 0.826057
vt 0.216201 0.826057
vt 0.216201 0.839545
vt 0.278464 0.853464
vt 0.267801 0.853464
vt 0.267801 0.842349
vt 0.278464 0.842349
vt 0.292976 0.853464
vt 0.282778 0.853464
vt 0.282778 0.842349
vt 0.292976 0.842349
vt 0.329527 0.839792
vt 0.329527 0.826057
vt 0.340642 0.826057
vt 0.340642 0.839792
vt 0.308227 0.853586
vt 0.297756 0.853586
vt 0.297756 0.842471
vt 0.308227 0.842471
vt 0.235889 0.839548
vt 0.235889 0.826057
vt 0.247003 0.826057
vt 0.247003 0.839548
vt 0.266691 0.839560
vt 0.266691 0.826057
vt 0.277806 0.826057
vt 0.277806 0.839560
vt 0.160234 0.853810
vt 0.160234 0.842079
vt 0.171349 0.842079
vt 0.171349 0.853810
vt 0.174284 0.839290
vt 0.174284 0.826057
vt 0.185399 0.826057
vt 0.185399 0.839290
vt 0.176573 0.853810
vt 0.176573 0.842079
vt 0.187688 0.842079
vt 0.187688 0.853810
vt 0.715485 0.406028
vt 0.714672 0.436269
vt 0.755988 0.400532
vt 0.756194 0.387880
vt 0.755988 0.400532
vt 0.719208 0.402080
vt 0.719250 0.387954
vt 0.756194 0.387880
vt 0.755988 0.400532
vt 0.719208 0.402080
vt 0.714672 0.436269
vt 0.715485 0.406028
vt 0.714672 0.436269
vt 0.730219 0.437061
vt 0.714672 0.436269
vt 0.729235 0.405347
vt 0.715485 0.406028
vt 0.729235 0.405347
vt 0.730219 0.437061
vt 0.730219 0.437061
vt 0.714672 0.436269
vt 0.715485 0.406028
vt 0.715485 0.406028
vt 0.729235 0.405347
vt 0.730219 0.437061
vt 0.714672 0.436269
vt 0.729235 0.405347
vt 0.714672 0.436269
vt 0.730219 0.437061
vt 0.719208 0.402080
vt 0.755988 0.400532
vt 0.756194 0.387880
vt 0.719250 0.387954
vt 0.719208 0.402080
vt 0.755988 0.400532
vt 0.719208 0.402080
vt 0.719250 0.387954
vt 0.719208 0.402080
vt 0.719250 0.387954
vt 0.756194 0.387880
vt 0.755988 0.400532
vt 0.756194 0.387880
vt 0.719208 0.402080
vt 0.719250 0.387954
vt 0.756194 0.387880
vt 0.755988 0.400532
vt 0.719208 0.402080
vt 0.719250 0.387954
vt 0.719208 0.402080
vt 0.719208 0.402080
vt 0.719250 0.387954
vt 0.756194 0.387880
vt 0.755988 0.400532
vt 0.756194 0.387880
vt 0.719250 0.387954
vt 0.839608 0.567154
vt 0.788237 0.572418
vt 0.839608 0.621903
vt 0.788237 0.627167
vt 0.839608 0.678826
vt 0.788237 0.684090
vt 0.518689 0.496400
vt 0.532680 0.496400
vt 0.532680 0.538661
vt 0.518689 0.538661
vt 0.507843 0.496400
vt 0.514402 0.496400
vt 0.514402 0.538661
vt 0.507843 0.538661
vt 0.261378 0.740986
vt 0.306493 0.740986
vt 0.261378 0.809648
vt 0.261378 0.792482
vt 0.261378 0.783900
vt 0.261378 0.775317
vt 0.261378 0.758151
vt 0.306493 0.758151
vt 0.306493 0.775317
vt 0.306493 0.783900
vt 0.306493 0.792482
vt 0.306493 0.809648
vt 0.275369 0.816709
vt 0.292502 0.816709
vt 0.279051 0.823269
vt 0.288820 0.823269
vt 0.550957 0.502959
vt 0.554639 0.496400
vt 0.564408 0.496400
vt 0.568090 0.502959
vt 0.536966 0.510020
vt 0.582080 0.510020
vt 0.536966 0.578682
vt 0.536966 0.561517
vt 0.536966 0.544351
vt 0.536966 0.535768
vt 0.536966 0.527185
vt 0.582080 0.527185
vt 0.582080 0.535768
vt 0.582080 0.544351
vt 0.582080 0.561517
vt 0.582080 0.578682
vt 0.544084 0.586674
vt 0.574962 0.586674
vt 0.783951 0.572418
vt 0.732581 0.567154
vt 0.783951 0.627167
vt 0.732581 0.621903
vt 0.783951 0.684090
vt 0.732581 0.678826
vt 0.804323 0.387055
vt 0.804323 0.395046
vt 0.762062 0.395046
vt 0.489502 0.496400
vt 0.489502 0.538661
vt 0.475511 0.538661
vt 0.475511 0.496400
vt 0.464665 0.538661
vt 0.464665 0.496400
vt 0.471225 0.496400
vt 0.471225 0.538661
vt 0.719208 0.402080
vt 0.719208 0.402080
vn -0.7935 0.5807 -0.1819
vn -0.9054 0.0183 -0.4242
vn -0.3932 -0.7987 -0.4555
vn 0.1860 -0.9541 -0.2347
vn -0.4562 -0.1993 0.8673
vn -0.5522 0.8337 0.0040
vn -0.7838 -0.3723 -0.4971
vn -0.8622 0.3369 -0.3784
vn 0.7830 0.3731 0.4977
vn 0.4542 0.2036 -0.8673
vn 0.4227 -0.9062 0.0141
vn -0.4182 0.9081 -0.0227
vn -0.4537 -0.2047 0.8673
vn -0.7831 -0.3730 -0.4977
vn 0.7831 0.3730 0.4977
vn 0.4449 0.2232 -0.8673
vn -0.4227 0.9062 -0.0141
vn -0.4558 -0.2002 0.8673
vn -0.4666 -0.1768 0.8666
vn 0.4208 -0.9070 0.0177
vn 0.4566 0.1986 -0.8672
vn -0.4300 0.9028 -0.0002
vn 0.4606 0.1899 -0.8671
vn -0.4701 -0.1689 0.8663
vn 0.4563 0.1992 -0.8673
vn -0.0178 0.9502 0.3111
vn 0.5248 0.6997 0.4848
vn 0.9106 -0.1776 0.3731
vn 0.6982 -0.7101 0.0909
vn -0.3652 0.9228 0.1228
vn 0.4407 -0.8974 -0.0208
vn 0.7823 0.3738 0.4983
vn 0.6760 0.4207 0.6051
vn 0.8015 0.4734 0.3654
vn 0.7514 0.2630 0.6051
vn 0.7831 0.3728 0.4978
vn 0.7829 0.3731 0.4978
vn 0.7587 0.3707 0.5357
vn 0.7631 0.4136 0.4965
vn 0.7583 0.3718 0.5354
vn 0.7831 0.3732 0.4975
vn 0.7630 0.4137 0.4966
vn 0.7605 0.3664 0.5361
vn 0.7832 0.3727 0.4977
vn 0.7637 0.4135 0.4958
vn 0.7601 0.3672 0.5361
vn 0.7830 0.3731 0.4978
vn 0.7630 0.4137 0.4968
vn 0.7758 0.3423 0.5300
vn -0.7829 -0.3731 -0.4978
vn -0.7831 -0.3731 -0.4976
vn -0.7830 -0.3731 -0.4977
vn -0.7885 -0.4031 -0.4645
vn -0.7831 -0.3732 -0.4975
vn -0.7831 -0.3731 -0.4975
vn -0.8387 -0.3971 -0.3726
vn -0.7161 -0.3435 -0.6076
vn -0.7530 -0.2863 -0.5925
vn -0.6754 -0.5397 -0.5026
vn -0.4920 -0.7274 -0.4784
vn -0.4709 -0.7440 -0.4741
vn -0.3184 -0.8424 -0.4347
vn -0.8981 -0.0343 -0.4384
vn -0.8720 -0.1515 -0.4654
vn -0.8660 -0.1720 -0.4695
vn -0.7799 -0.3790 -0.4982
vn 0.1477 -0.9780 -0.1471
vn -0.1432 -0.9455 -0.2926
vn 0.1415 -0.9784 -0.1505
vn -0.4759 -0.7688 -0.4271
vn 0.4527 0.2061 -0.8675
vn 0.3850 0.3378 -0.8589
vn 0.4526 0.2061 -0.8675
vn 0.4561 0.1992 -0.8673
vn 0.4557 0.1991 -0.8676
vn 0.4745 0.1576 -0.8660
vn 0.4742 0.1582 -0.8661
vn 0.4744 0.1579 -0.8660
vn 0.4744 0.1580 -0.8660
vn 0.4562 0.1993 -0.8673
vn 0.4558 0.1991 -0.8675
vn -0.4565 -0.1994 0.8671
vn 0.8599 0.1917 0.4732
vn 0.9107 -0.0857 0.4040
vn 0.9092 -0.0599 0.4120
vn 0.9030 -0.2605 0.3416
vn 0.5651 0.6627 0.4915
vn 0.6624 0.5561 0.5019
vn 0.6486 0.5729 0.5010
vn 0.7862 0.3670 0.4972
vn 0.2932 0.8873 0.3559
vn 0.3639 0.9077 0.2089
vn 0.2180 0.8455 0.4874
vn 0.6487 -0.6644 0.3712
vn 0.7959 -0.5988 0.0891
vn 0.8128 -0.4900 0.3150
vn 0.8897 -0.1183 0.4409
vn -0.7832 -0.3727 -0.4977
vn -0.7832 -0.3727 -0.4976
usemtl initialShadingGroup.003
s off
f 1/1/1 2/2/1 3/3/1 4/4/1
f 4/5/2 3/6/2 5/7/2 6/8/2
f 7/9/3 8/10/3 9/11/3 10/12/3
f 10/13/4 9/14/4 11/15/4 12/16/4 13/17/4
f 14/18/5 1/19/5 4/20/5 6/21/5 15/22/5 16/23/5 17/24/5 7/25/5 10/26/5 13/27/5 18/28/5 19/29/5 20/30/5 21/31/5 22/32/5 23/33/5 24/34/5 25/35/5 26/36/5 27/37/5
f 28/38/6 2/2/6 1/1/6 14/39/6
f 11/40/7 29/41/7 30/42/7 12/43/7
f 29/41/8 31/44/8 32/45/8 33/46/8 30/42/8
f 34/47/9 35/48/9 36/49/9 37/50/9
f 29/51/10 11/52/10 38/53/10 39/54/10 40/55/10
f 41/56/11 42/57/11 43/58/11 44/59/11
f 45/60/12 30/61/12 33/62/12 46/63/12 47/64/12
f 48/65/13 12/66/13 30/67/13 45/68/13 47/69/13 49/70/13
f 50/71/14 51/72/14 52/73/14 53/74/14
f 54/75/14 55/76/14 56/77/14 57/78/14
f 58/79/14 59/80/14 60/81/14 61/82/14
f 62/83/15 63/84/15 64/85/15 65/86/15
f 66/87/11 50/88/11 53/89/11 67/90/11
f 67/91/16 53/92/16 52/93/16 68/94/16
f 68/95/17 52/96/17 51/97/17 69/98/17
f 69/99/18 51/100/18 50/101/18 66/102/18
f 70/103/19 54/104/19 57/105/19 71/106/19
f 71/107/20 57/108/20 56/109/20 72/110/20
f 72/111/21 56/112/21 55/113/21 73/114/21
f 73/115/22 55/116/22 54/117/22 70/118/22
f 74/119/11 58/120/11 61/121/11 75/122/11
f 75/123/23 61/124/23 60/125/23 76/126/23
f 76/127/17 60/128/17 59/129/17 77/130/17
f 77/131/24 59/132/24 58/133/24 74/134/24
f 28/135/25 78/136/25 79/137/25 80/138/25 81/139/25 82/140/25 83/141/25 84/142/25 85/143/25 39/54/25 38/53/25 11/52/25 9/144/25 8/145/25 86/146/25 87/147/25 88/148/25 5/149/25 3/150/25 2/151/25
f 27/152/26 26/153/26 79/154/26 78/155/26
f 26/156/27 25/157/27 80/158/27 79/159/27
f 21/160/28 20/161/28 85/162/28 84/163/28
f 20/164/29 19/165/29 49/166/29 39/167/29 85/168/29
f 28/38/30 14/39/30 27/152/30 78/155/30
f 48/169/31 49/166/31 19/165/31 18/170/31 13/17/31 12/16/31
f 39/171/32 49/172/32 47/173/32 40/174/32
f 89/175/15 37/176/15 36/177/15 90/178/15
f 36/49/15 35/48/15 91/179/15 92/180/15
f 93/181/15 94/182/15 65/183/15 95/184/15
f 96/185/15 97/186/15 98/187/15 99/188/15
f 100/189/15 101/190/15 102/191/15 103/192/15
f 104/193/15 105/194/15 106/195/15 107/196/15
f 92/197/11 108/198/11 97/199/11 96/200/11
f 108/201/16 90/202/16 98/203/16 97/204/16
f 90/205/17 36/206/17 99/207/17 98/208/17
f 36/209/18 92/210/18 96/211/18 99/212/18
f 62/213/19 65/214/19 101/215/19 100/216/19
f 65/217/20 94/218/20 102/219/20 101/220/20
f 94/221/21 109/222/21 103/223/21 102/224/21
f 109/225/22 62/226/22 100/227/22 103/228/22
f 37/229/11 89/230/11 105/231/11 104/232/11
f 89/233/23 93/234/23 106/235/23 105/236/23
f 93/237/17 95/238/17 107/239/17 106/240/17
f 95/241/24 37/242/24 104/243/24 107/244/24
f 110/245/33 108/246/15 92/180/15 91/179/34
f 68/247/14 69/248/14 74/249/14 75/250/14
f 76/251/14 77/252/14 71/253/14 72/254/14
f 62/255/15 109/256/15 111/257/35 63/258/15
f 65/259/36 64/85/36 112/260/36 95/261/36
f 34/262/37 37/50/37 95/184/37 112/263/37
f 108/264/15 110/265/15 113/266/38 90/178/15
f 90/267/15 113/268/39 114/269/40 89/270/15
f 89/270/41 114/269/42 115/271/43 93/181/41
f 93/181/44 115/272/45 116/273/46 94/182/44
f 94/182/47 116/273/48 111/257/49 109/256/47
f 74/274/50 117/275/50 118/276/50 77/277/50
f 71/278/51 119/279/51 32/280/51 70/281/51
f 70/282/14 32/283/14 31/284/14 73/285/14
f 72/286/52 73/285/52 31/287/53 120/288/52
f 75/289/54 76/290/54 121/291/54 122/292/54
f 68/247/55 75/289/55 122/292/55 123/293/55
f 66/294/14 67/295/14 124/296/56 125/297/57
f 66/294/14 125/297/58 126/298/14 69/299/14
s 1
f 6/8/59 5/7/59 88/300/60 15/301/61
f 15/301/61 88/300/60 87/302/62 16/303/62
f 16/303/63 87/302/63 86/304/64 17/305/65
f 17/305/65 86/304/64 8/10/66 7/9/66
f 124/306/67 127/307/68 128/308/68 125/309/69
f 127/310/68 42/311/70 41/312/70 128/313/68
f 31/314/71 29/51/72 40/55/72 111/315/73
f 124/316/74 123/317/75 122/318/75 121/319/75 120/320/75 31/314/71 111/315/73 116/321/76 115/322/77 114/323/78 113/324/79 110/325/74
f 127/326/80 124/316/81 110/325/81 129/327/80
f 42/328/80 127/326/80 129/327/80 43/329/80
f 128/330/5 41/331/5 44/332/5 130/333/5
f 125/334/82 128/330/5 130/333/5 91/335/82
f 32/336/82 119/337/82 118/338/82 117/339/82 126/340/82 125/334/82 91/335/82 35/341/82 34/342/82 112/343/82 64/344/82 63/345/82
f 33/346/5 32/336/82 63/345/82 46/347/5
f 25/157/83 24/348/84 81/349/85 80/158/83
f 24/348/84 23/350/86 82/351/86 81/349/85
f 23/350/87 22/352/88 83/353/89 82/351/87
f 22/352/88 21/160/90 84/163/90 83/353/89
f 40/174/91 47/173/91 46/354/91 63/355/92 111/356/93
f 110/357/94 91/358/95 130/359/96 129/360/96
f 129/361/96 130/362/96 44/363/97 43/364/97
f 117/275/52 74/274/52 69/299/52 126/298/52
f 119/279/98 71/278/98 77/277/98 118/276/98
f 120/288/99 121/291/99 76/290/99 72/286/99
f 123/293/51 124/365/51 67/366/51 68/247/51
