# Blender v2.79 (sub 6) OBJ File: 'bailarinaacortados.blend1'
# www.blender.org
mtllib guitarra2_000207.mtl
o g2_pPlane4.001
v -2.028937 22.718029 1.986668
v -2.670462 22.703922 2.676896
v -1.861206 22.277519 3.342062
v -1.219683 22.291626 2.651834
v -1.400043 21.415192 3.623608
v -0.758516 21.429295 2.933382
v -0.563369 17.832371 2.543674
v -1.204893 17.818268 3.233901
v -1.418263 17.071320 2.923224
v -0.776738 17.085423 2.232998
v -2.237020 16.498833 2.089698
v -1.838605 16.489586 1.663424
v -1.597057 16.508492 1.399855
v -2.899366 22.716557 1.198784
v -0.732412 20.512676 2.812691
v -1.136728 19.425194 2.275613
v -0.669961 18.453411 2.544992
v -1.803732 16.518188 1.214361
v -1.994397 16.437321 1.029097
v -2.962070 16.694019 0.193859
v -3.418303 17.321033 -0.120270
v -3.531065 17.940968 -0.124708
v -3.425955 19.015175 0.139528
v -4.178109 19.895531 -0.402494
v -4.467705 20.764954 -0.527671
v -4.330345 21.734489 -0.250728
v -3.716872 22.415710 0.411652
v -3.536901 22.679886 1.889068
v -1.482658 12.166506 2.118536
v -1.101087 12.232892 1.696865
v -1.376771 12.039174 2.225098
v -0.862760 12.128603 1.657071
v -0.982321 12.255350 1.568834
v -1.328004 11.279134 1.101606
v -1.296053 11.096222 1.102443
v -1.485395 11.107409 1.303213
v -1.513341 11.268594 1.302224
v -2.436741 16.463058 1.903336
v -2.636464 16.427288 1.716975
v -1.887697 12.093961 1.740594
v -0.835191 10.607980 1.442609
v -1.349202 10.518551 2.010639
v -1.478449 10.495402 1.890037
v -0.964440 10.584832 1.322011
v -1.305868 12.196226 1.510392
v -1.390850 12.182180 1.187633
v -1.506124 12.160348 1.318922
v -2.046322 16.482231 1.481248
v -2.237000 16.418232 1.291682
v -0.707712 11.048989 1.998004
v -0.741459 11.240654 1.997379
v -0.905505 11.212110 2.178665
v -0.875055 11.019875 2.182931
v -0.870893 11.953432 1.999275
v -1.035664 11.928779 2.180594
v -1.002294 11.740609 2.180949
v -0.835425 11.770689 1.996342
v -0.769407 11.401837 1.996393
v -0.811446 11.611828 2.001139
v -0.972394 11.583825 2.179002
v -0.933645 11.373260 2.177891
v -1.614826 11.820189 1.305110
v -1.459641 12.021697 1.100117
v -1.403960 11.706161 1.101004
v -1.579360 11.637446 1.302175
v -0.854766 11.022652 1.860788
v -1.022108 10.993536 2.045715
v -1.052558 11.185772 2.041449
v -0.888513 11.214314 1.860164
v -1.017945 11.927094 1.862062
v -0.982478 11.744352 1.859127
v -1.149348 11.714270 2.043735
v -1.182717 11.902439 2.043378
v -0.916459 11.375498 1.859178
v -1.080699 11.346922 2.040675
v -1.119448 11.557487 2.041786
v -0.958499 11.585487 1.863923
v -4.358398 22.401600 1.101880
v -4.971868 21.720379 0.439498
v -5.109231 20.750851 0.162557
v -4.819634 19.881424 0.287732
v -4.067482 19.001072 0.829755
v -4.172590 17.926865 0.565520
v -4.059828 17.306931 0.569956
v -3.603595 16.679913 0.884086
v -1.311490 18.439304 3.235220
v -1.778252 19.411087 2.965842
v -1.373936 20.498573 3.502919
v -1.677579 11.240017 1.483723
v -1.649440 11.078867 1.484498
v -1.241523 10.787730 1.103219
v -1.451648 10.915747 1.303836
v -1.716329 11.450581 1.484834
v -1.746230 11.607366 1.486783
v -1.555381 11.478584 1.306969
v -1.598700 10.889408 1.166620
v -1.766043 10.860292 1.351549
v -1.796493 11.052528 1.347283
v -1.632447 11.081072 1.165998
v -1.761879 11.793851 1.167894
v -1.726412 11.611109 1.164960
v -1.893283 11.581027 1.349569
v -1.926652 11.769197 1.349212
v -1.660394 11.242254 1.165009
v -1.824631 11.213678 1.346507
v -1.863382 11.424243 1.347618
v -1.702433 11.452246 1.169755
v -1.618990 10.886630 1.488764
v -1.779600 11.795536 1.486426
v -1.755534 10.698300 1.671247
v -1.973653 11.932269 1.668148
v -1.368739 11.515778 1.099928
v -1.810063 11.006792 1.670472
v -1.837327 11.161037 1.670085
v -1.879482 11.406360 1.668271
v -1.907901 11.555138 1.669997
v -0.731010 11.385351 1.658570
v -0.768599 11.602749 1.657192
v -0.800159 11.770747 1.658617
v -1.315773 11.691112 2.226493
v -1.285692 11.532179 2.224926
v -1.250888 11.331807 2.226036
v -1.221499 11.164568 2.226627
v -1.158651 10.805205 2.228199
v -0.644643 10.894637 1.660170
v -0.699172 11.203129 1.659396
v -1.321328 10.645155 2.055795
v -0.807317 10.734586 1.487766
v -1.547998 10.604557 1.844290
v -1.033988 10.693986 1.276261
vt 0.642023 0.677747
vt 0.693394 0.677747
vt 0.693394 0.731514
vt 0.642023 0.731514
vt 0.788237 0.471761
vt 0.839608 0.466497
vt 0.839608 0.517463
vt 0.788237 0.522727
vt 0.788237 0.718616
vt 0.839608 0.713352
vt 0.839608 0.751579
vt 0.788237 0.756842
vt 0.637737 0.661574
vt 0.586367 0.661574
vt 0.586468 0.594083
vt 0.618160 0.594043
vt 0.637737 0.594003
vt 0.568646 0.493611
vt 0.504856 0.485282
vt 0.451089 0.454466
vt 0.428470 0.403500
vt 0.438427 0.353809
vt 0.482132 0.299060
vt 0.460520 0.242136
vt 0.460753 0.207610
vt 0.486059 0.169384
vt 0.553630 0.146191
vt 0.568646 0.148710
vt 0.583662 0.146191
vt 0.651234 0.169384
vt 0.676539 0.207610
vt 0.676772 0.242136
vt 0.655160 0.299060
vt 0.698865 0.353809
vt 0.708823 0.403500
vt 0.686203 0.454466
vt 0.632436 0.485282
vt 0.693394 0.613957
vt 0.642023 0.613957
vt 0.754283 0.146190
vt 0.755425 0.387151
vt 0.724052 0.387151
vt 0.722590 0.150432
vt 0.756667 0.395046
vt 0.714406 0.395046
vt 0.714406 0.387055
vt 0.715485 0.406028
vt 0.715485 0.406028
vt 0.714672 0.436269
vt 0.715485 0.406028
vt 0.268628 0.733091
vt 0.268840 0.492130
vt 0.283935 0.492130
vt 0.299031 0.492130
vt 0.299242 0.733091
vt 0.493788 0.538661
vt 0.493788 0.496400
vt 0.503557 0.496400
vt 0.503557 0.538661
vt 0.460379 0.511839
vt 0.460193 0.527146
vt 0.450547 0.527278
vt 0.450547 0.496400
vt 0.460193 0.496531
vt 0.712987 0.734728
vt 0.697931 0.733119
vt 0.697680 0.496400
vt 0.712987 0.496400
vt 0.728294 0.496400
vt 0.728043 0.733119
vt 0.431485 0.839581
vt 0.420822 0.839592
vt 0.420822 0.826104
vt 0.431485 0.826116
vt 0.375304 0.839548
vt 0.375087 0.826057
vt 0.385559 0.826066
vt 0.385502 0.839800
vt 0.325241 0.839682
vt 0.313510 0.839290
vt 0.313510 0.826057
vt 0.325241 0.826179
vt 0.715485 0.406028
vt 0.714672 0.436269
vt 0.730219 0.437061
vt 0.729235 0.405347
vt 0.416361 0.839815
vt 0.405246 0.839815
vt 0.405246 0.826057
vt 0.416361 0.826057
vt 0.203576 0.842333
vt 0.203576 0.853448
vt 0.192913 0.853448
vt 0.192913 0.842333
vt 0.231602 0.839545
vt 0.220488 0.839545
vt 0.220488 0.826057
vt 0.231602 0.826057
vt 0.218554 0.842333
vt 0.218554 0.853448
vt 0.207890 0.853448
vt 0.207890 0.842333
vt 0.233066 0.842336
vt 0.233066 0.853451
vt 0.222868 0.853451
vt 0.222868 0.842336
vt 0.356043 0.839792
vt 0.344928 0.839792
vt 0.344928 0.826057
vt 0.356043 0.826057
vt 0.248317 0.842336
vt 0.248317 0.853451
vt 0.237845 0.853451
vt 0.237845 0.842336
vt 0.262405 0.839548
vt 0.251290 0.839548
vt 0.251290 0.826057
vt 0.262405 0.826057
vt 0.293207 0.839560
vt 0.282092 0.839560
vt 0.282092 0.826057
vt 0.293207 0.826057
vt 0.169998 0.837788
vt 0.158883 0.837788
vt 0.158883 0.826057
vt 0.169998 0.826057
vt 0.200800 0.839290
vt 0.189686 0.839290
vt 0.189686 0.826057
vt 0.200800 0.826057
vt 0.154874 0.837788
vt 0.143759 0.837788
vt 0.143759 0.826057
vt 0.154874 0.826057
vt 0.283935 0.146190
vt 0.347725 0.153264
vt 0.401493 0.184080
vt 0.424112 0.235046
vt 0.414154 0.284737
vt 0.370449 0.339486
vt 0.392061 0.396410
vt 0.391828 0.430936
vt 0.366523 0.469162
vt 0.201348 0.469162
vt 0.176043 0.430936
vt 0.175810 0.396410
vt 0.197422 0.339486
vt 0.153717 0.284737
vt 0.143759 0.235046
vt 0.166378 0.184080
vt 0.220145 0.153264
vt 0.642023 0.550167
vt 0.642023 0.496400
vt 0.693394 0.496400
vt 0.693394 0.550167
vt 0.783951 0.471761
vt 0.783951 0.522727
vt 0.732581 0.517463
vt 0.732581 0.466497
vt 0.783951 0.718616
vt 0.783951 0.756842
vt 0.732581 0.751579
vt 0.732581 0.713352
vt 0.637737 0.496400
vt 0.637737 0.563971
vt 0.618160 0.563931
vt 0.586468 0.563891
vt 0.586367 0.496400
vt 0.617880 0.578987
vt 0.637737 0.578987
vt 0.764446 0.146190
vt 0.796139 0.150432
vt 0.794677 0.387151
vt 0.763305 0.387151
vt 0.730219 0.437061
vt 0.729235 0.405347
vt 0.715485 0.406028
vt 0.714672 0.436269
vt 0.729235 0.405347
vt 0.730219 0.437061
vt 0.715485 0.406028
vt 0.729235 0.405347
vt 0.730219 0.437061
vt 0.714672 0.436269
vt 0.431311 0.826068
vt 0.431311 0.839826
vt 0.420647 0.839545
vt 0.420647 0.826057
vt 0.360546 0.826310
vt 0.370744 0.826057
vt 0.370801 0.839792
vt 0.360329 0.839800
vt 0.309224 0.826057
vt 0.309224 0.839560
vt 0.297493 0.839682
vt 0.297493 0.826449
vt 0.389845 0.839815
vt 0.389845 0.826057
vt 0.400960 0.826057
vt 0.400960 0.839815
vt 0.263487 0.853451
vt 0.252823 0.853451
vt 0.252823 0.842336
vt 0.263487 0.842336
vt 0.205087 0.839545
vt 0.205087 0.826057
vt 0.216201 0.826057
vt 0.216201 0.839545
vt 0.278464 0.853464
vt 0.267801 0.853464
vt 0.267801 0.842349
vt 0.278464 0.842349
vt 0.292976 0.853464
vt 0.282778 0.853464
vt 0.282778 0.842349
vt 0.292976 0.842349
vt 0.329527 0.839792
vt 0.329527 0.826057
vt 0.340642 0.826057
vt 0.340642 0.839792
vt 0.308227 0.853586
vt 0.297756 0.853586
vt 0.297756 0.842471
vt 0.308227 0.842471
vt 0.235889 0.839548
vt 0.235889 0.826057
vt 0.247003 0.826057
vt 0.247003 0.839548
vt 0.266691 0.839560
vt 0.266691 0.826057
vt 0.277806 0.826057
vt 0.277806 0.839560
vt 0.160234 0.853810
vt 0.160234 0.842079
vt 0.171349 0.842079
vt 0.171349 0.853810
vt 0.174284 0.839290
vt 0.174284 0.826057
vt 0.185399 0.826057
vt 0.185399 0.839290
vt 0.176573 0.853810
vt 0.176573 0.842079
vt 0.187688 0.842079
vt 0.187688 0.853810
vt 0.715485 0.406028
vt 0.714672 0.436269
vt 0.755988 0.400532
vt 0.756194 0.387880
vt 0.755988 0.400532
vt 0.719208 0.402080
vt 0.719250 0.387954
vt 0.756194 0.387880
vt 0.755988 0.400532
vt 0.719208 0.402080
vt 0.714672 0.436269
vt 0.715485 0.406028
vt 0.714672 0.436269
vt 0.730219 0.437061
vt 0.714672 0.436269
vt 0.729235 0.405347
vt 0.715485 0.406028
vt 0.729235 0.405347
vt 0.730219 0.437061
vt 0.730219 0.437061
vt 0.714672 0.436269
vt 0.715485 0.406028
vt 0.715485 0.406028
vt 0.729235 0.405347
vt 0.730219 0.437061
vt 0.714672 0.436269
vt 0.729235 0.405347
vt 0.714672 0.436269
vt 0.730219 0.437061
vt 0.719208 0.402080
vt 0.755988 0.400532
vt 0.756194 0.387880
vt 0.719250 0.387954
vt 0.719208 0.402080
vt 0.755988 0.400532
vt 0.719208 0.402080
vt 0.719250 0.387954
vt 0.719208 0.402080
vt 0.719250 0.387954
vt 0.756194 0.387880
vt 0.755988 0.400532
vt 0.756194 0.387880
vt 0.719208 0.402080
vt 0.719250 0.387954
vt 0.756194 0.387880
vt 0.755988 0.400532
vt 0.719208 0.402080
vt 0.719250 0.387954
vt 0.719208 0.402080
vt 0.719208 0.402080
vt 0.719250 0.387954
vt 0.756194 0.387880
vt 0.755988 0.400532
vt 0.756194 0.387880
vt 0.719250 0.387954
vt 0.839608 0.567154
vt 0.788237 0.572418
vt 0.839608 0.621903
vt 0.788237 0.627167
vt 0.839608 0.678826
vt 0.788237 0.684090
vt 0.518689 0.496400
vt 0.532680 0.496400
vt 0.532680 0.538661
vt 0.518689 0.538661
vt 0.507843 0.496400
vt 0.514402 0.496400
vt 0.514402 0.538661
vt 0.507843 0.538661
vt 0.261378 0.740986
vt 0.306493 0.740986
vt 0.261378 0.809648
vt 0.261378 0.792482
vt 0.261378 0.783900
vt 0.261378 0.775317
vt 0.261378 0.758151
vt 0.306493 0.758151
vt 0.306493 0.775317
vt 0.306493 0.783900
vt 0.306493 0.792482
vt 0.306493 0.809648
vt 0.275369 0.816709
vt 0.292502 0.816709
vt 0.279051 0.823269
vt 0.288820 0.823269
vt 0.550957 0.502959
vt 0.554639 0.496400
vt 0.564408 0.496400
vt 0.568090 0.502959
vt 0.536966 0.510020
vt 0.582080 0.510020
vt 0.536966 0.578682
vt 0.536966 0.561517
vt 0.536966 0.544351
vt 0.536966 0.535768
vt 0.536966 0.527185
vt 0.582080 0.527185
vt 0.582080 0.535768
vt 0.582080 0.544351
vt 0.582080 0.561517
vt 0.582080 0.578682
vt 0.544084 0.586674
vt 0.574962 0.586674
vt 0.783951 0.572418
vt 0.732581 0.567154
vt 0.783951 0.627167
vt 0.732581 0.621903
vt 0.783951 0.684090
vt 0.732581 0.678826
vt 0.804323 0.387055
vt 0.804323 0.395046
vt 0.762062 0.395046
vt 0.489502 0.496400
vt 0.489502 0.538661
vt 0.475511 0.538661
vt 0.475511 0.496400
vt 0.464665 0.538661
vt 0.464665 0.496400
vt 0.471225 0.496400
vt 0.471225 0.538661
vt 0.719208 0.402080
vt 0.719208 0.402080
vn 0.2677 0.9256 0.2677
vn 0.6192 0.5225 0.5862
vn 0.6618 -0.4412 0.6061
vn 0.3353 -0.8945 0.2959
vn 0.6664 0.1160 -0.7365
vn -0.0261 0.9996 0.0126
vn 0.7252 0.1309 0.6759
vn 0.4160 0.7604 0.4988
vn -0.7249 -0.1298 -0.6765
vn -0.6673 -0.1113 0.7365
vn 0.1741 -0.9847 0.0025
vn -0.1806 0.9835 0.0048
vn 0.6675 0.1101 -0.7365
vn 0.7249 0.1298 0.6765
vn 0.7250 0.1298 0.6764
vn 0.7250 0.1298 0.6765
vn -0.7250 -0.1298 -0.6764
vn -0.6708 -0.0899 0.7362
vn -0.1741 0.9847 -0.0025
vn 0.6666 0.1150 -0.7365
vn 0.6619 0.1403 -0.7363
vn 0.1768 -0.9842 -0.0006
vn -0.6663 -0.1168 0.7365
vn -0.1633 0.9865 -0.0143
vn -0.6646 -0.1262 0.7365
vn 0.6603 0.1488 -0.7362
vn -0.6664 -0.1161 0.7365
vn -0.4505 0.7970 -0.4024
vn -0.7049 0.2854 -0.6494
vn -0.5452 -0.6573 -0.5202
vn -0.1390 -0.9794 -0.1466
vn -0.1992 0.9686 -0.1489
vn 0.1471 -0.9886 0.0322
vn -0.7247 -0.1288 -0.6770
vn -0.7250 -0.1298 -0.6765
vn 0.6602 0.1488 -0.7362
vn -0.6426 -0.0273 -0.7657
vn -0.8250 -0.0609 -0.5618
vn -0.6144 -0.1998 -0.7633
vn -0.7248 -0.1301 -0.6766
vn -0.7248 -0.1297 -0.6766
vn -0.6958 -0.1170 -0.7086
vn -0.7321 -0.0852 -0.6759
vn -0.6962 -0.1159 -0.7084
vn -0.7251 -0.1297 -0.6763
vn -0.7320 -0.0850 -0.6760
vn -0.6947 -0.1216 -0.7089
vn -0.7249 -0.1302 -0.6764
vn -0.7326 -0.0857 -0.6752
vn -0.6949 -0.1206 -0.7089
vn -0.7249 -0.1297 -0.6765
vn -0.7319 -0.0850 -0.6761
vn -0.6948 -0.1503 -0.7033
vn 0.7249 0.1297 0.6766
vn 0.7534 0.1090 0.6484
vn 0.7251 0.1298 0.6763
vn 0.8103 0.1447 0.5678
vn 0.6308 0.1134 0.7676
vn 0.6315 0.1818 0.7538
vn 0.7315 -0.0685 0.6784
vn 0.6956 -0.3267 0.6398
vn 0.6891 -0.3523 0.6333
vn 0.6313 -0.5192 0.5761
vn 0.6398 0.4748 0.6043
vn 0.6788 0.3632 0.6382
vn 0.6846 0.3428 0.6433
vn 0.7256 0.1231 0.6770
vn 0.3985 -0.8903 0.2204
vn 0.5804 -0.7007 0.4149
vn 0.4029 -0.8872 0.2249
vn 0.7174 -0.3688 0.5911
vn -0.6675 -0.1084 0.7367
vn -0.6854 0.0386 0.7271
vn -0.6675 -0.1083 0.7367
vn -0.6663 -0.1160 0.7366
vn -0.6660 -0.1159 0.7369
vn -0.6573 -0.1606 0.7363
vn -0.6575 -0.1599 0.7363
vn -0.6574 -0.1603 0.7363
vn -0.6574 -0.1602 0.7363
vn -0.6664 -0.1159 0.7365
vn -0.6664 -0.1160 0.7365
vn 0.6664 0.1159 -0.7365
vn 0.6667 0.1160 -0.7363
vn -0.6899 -0.3231 -0.6478
vn -0.5900 -0.5813 -0.5603
vn -0.6016 -0.5591 -0.5705
vn -0.4996 -0.7218 -0.4791
vn -0.7148 0.2322 -0.6596
vn -0.7305 0.0894 -0.6771
vn -0.7291 0.1110 -0.6754
vn -0.7242 -0.1366 -0.6759
vn -0.6536 0.5688 -0.4993
vn -0.7537 0.5419 -0.3717
vn -0.5412 0.5803 -0.6086
vn -0.0635 -0.9074 -0.4154
vn -0.2798 -0.9438 -0.1757
vn -0.3047 -0.8592 -0.4110
vn -0.3047 -0.8592 -0.4109
vn -0.5470 -0.5952 -0.5887
vn 0.7249 0.1301 0.6765
vn 0.7250 0.1302 0.6764
usemtl initialShadingGroup.003
s off
f 1/1/1 2/2/1 3/3/1 4/4/1
f 4/5/2 3/6/2 5/7/2 6/8/2
f 7/9/3 8/10/3 9/11/3 10/12/3
f 10/13/4 9/14/4 11/15/4 12/16/4 13/17/4
f 14/18/5 1/19/5 4/20/5 6/21/5 15/22/5 16/23/5 17/24/5 7/25/5 10/26/5 13/27/5 18/28/5 19/29/5 20/30/5 21/31/5 22/32/5 23/33/5 24/34/5 25/35/5 26/36/5 27/37/5
f 28/38/6 2/2/6 1/1/6 14/39/6
f 11/40/7 29/41/7 30/42/7 12/43/7
f 29/41/8 31/44/8 32/45/8 33/46/8 30/42/8
f 34/47/9 35/48/9 36/49/9 37/50/9
f 29/51/10 11/52/10 38/53/10 39/54/10 40/55/10
f 41/56/11 42/57/11 43/58/11 44/59/11
f 45/60/12 30/61/12 33/62/12 46/63/12 47/64/12
f 48/65/13 12/66/13 30/67/13 45/68/13 47/69/13 49/70/13
f 50/71/14 51/72/14 52/73/14 53/74/14
f 54/75/15 55/76/15 56/77/15 57/78/15
f 58/79/16 59/80/16 60/81/16 61/82/16
f 62/83/17 63/84/17 64/85/17 65/86/17
f 66/87/11 50/88/11 53/89/11 67/90/11
f 67/91/18 53/92/18 52/93/18 68/94/18
f 68/95/19 52/96/19 51/97/19 69/98/19
f 69/99/20 51/100/20 50/101/20 66/102/20
f 70/103/21 54/104/21 57/105/21 71/106/21
f 71/107/22 57/108/22 56/109/22 72/110/22
f 72/111/23 56/112/23 55/113/23 73/114/23
f 73/115/24 55/116/24 54/117/24 70/118/24
f 74/119/11 58/120/11 61/121/11 75/122/11
f 75/123/25 61/124/25 60/125/25 76/126/25
f 76/127/19 60/128/19 59/129/19 77/130/19
f 77/131/26 59/132/26 58/133/26 74/134/26
f 28/135/27 78/136/27 79/137/27 80/138/27 81/139/27 82/140/27 83/141/27 84/142/27 85/143/27 39/54/27 38/53/27 11/52/27 9/144/27 8/145/27 86/146/27 87/147/27 88/148/27 5/149/27 3/150/27 2/151/27
f 27/152/28 26/153/28 79/154/28 78/155/28
f 26/156/29 25/157/29 80/158/29 79/159/29
f 21/160/30 20/161/30 85/162/30 84/163/30
f 20/164/31 19/165/31 49/166/31 39/167/31 85/168/31
f 28/38/32 14/39/32 27/152/32 78/155/32
f 48/169/33 49/166/33 19/165/33 18/170/33 13/17/33 12/16/33
f 39/171/34 49/172/34 47/173/34 40/174/34
f 89/175/35 37/176/35 36/177/35 90/178/35
f 36/49/9 35/48/9 91/179/9 92/180/9
f 93/181/35 94/182/35 65/183/35 95/184/35
f 96/185/9 97/186/9 98/187/9 99/188/9
f 100/189/9 101/190/9 102/191/9 103/192/9
f 104/193/9 105/194/9 106/195/9 107/196/9
f 92/197/11 108/198/11 97/199/11 96/200/11
f 108/201/18 90/202/18 98/203/18 97/204/18
f 90/205/19 36/206/19 99/207/19 98/208/19
f 36/209/20 92/210/20 96/211/20 99/212/20
f 62/213/21 65/214/21 101/215/21 100/216/21
f 65/217/22 94/218/22 102/219/22 101/220/22
f 94/221/23 109/222/23 103/223/23 102/224/23
f 109/225/24 62/226/24 100/227/24 103/228/24
f 37/229/11 89/230/11 105/231/11 104/232/11
f 89/233/25 93/234/25 106/235/25 105/236/25
f 93/237/19 95/238/19 107/239/19 106/240/19
f 95/241/36 37/242/36 104/243/36 107/244/36
f 110/245/37 108/246/35 92/180/35 91/179/38
f 68/247/14 69/248/14 74/249/14 75/250/14
f 76/251/16 77/252/16 71/253/16 72/254/16
f 62/255/9 109/256/9 111/257/39 63/258/9
f 65/259/40 64/85/40 112/260/40 95/261/40
f 34/262/41 37/50/41 95/184/41 112/263/41
f 108/264/35 110/265/35 113/266/42 90/178/35
f 90/267/35 113/268/43 114/269/44 89/270/35
f 89/270/45 114/269/46 115/271/47 93/181/45
f 93/181/48 115/272/49 116/273/50 94/182/48
f 94/182/51 116/273/52 111/257/53 109/256/51
f 74/274/54 117/275/54 118/276/54 77/277/54
f 71/278/15 119/279/15 32/280/15 70/281/15
f 70/282/14 32/283/14 31/284/14 73/285/14
f 72/286/14 73/285/14 31/287/55 120/288/14
f 75/289/56 76/290/56 121/291/56 122/292/56
f 68/247/56 75/289/56 122/292/56 123/293/56
f 66/294/16 67/295/16 124/296/57 125/297/58
f 66/294/16 125/297/59 126/298/16 69/299/16
s 1
f 6/8/60 5/7/60 88/300/61 15/301/62
f 15/301/62 88/300/61 87/302/63 16/303/63
f 16/303/64 87/302/64 86/304/65 17/305/66
f 17/305/66 86/304/65 8/10/67 7/9/67
f 124/306/68 127/307/69 128/308/69 125/309/70
f 127/310/69 42/311/71 41/312/71 128/313/69
f 31/314/72 29/51/73 40/55/73 111/315/74
f 124/316/75 123/317/76 122/318/76 121/319/76 120/320/76 31/314/72 111/315/74 116/321/77 115/322/78 114/323/79 113/324/80 110/325/75
f 127/326/81 124/316/76 110/325/76 129/327/81
f 42/328/82 127/326/81 129/327/81 43/329/82
f 128/330/5 41/331/83 44/332/83 130/333/5
f 125/334/84 128/330/5 130/333/5 91/335/84
f 32/336/84 119/337/84 118/338/84 117/339/84 126/340/84 125/334/84 91/335/84 35/341/84 34/342/84 112/343/84 64/344/84 63/345/84
f 33/346/5 32/336/84 63/345/84 46/347/5
f 25/157/85 24/348/86 81/349/87 80/158/85
f 24/348/86 23/350/88 82/351/88 81/349/87
f 23/350/89 22/352/90 83/353/91 82/351/89
f 22/352/90 21/160/92 84/163/92 83/353/91
f 40/174/93 47/173/93 46/354/93 63/355/94 111/356/95
f 110/357/96 91/358/97 130/359/98 129/360/99
f 129/361/99 130/362/98 44/363/100 43/364/100
f 117/275/14 74/274/14 69/299/14 126/298/14
f 119/279/101 71/278/101 77/277/101 118/276/101
f 120/288/102 121/291/102 76/290/102 72/286/102
f 123/293/15 124/365/15 67/366/15 68/247/15
