# Blender v2.79 (sub 6) OBJ File: 'bailarinaacortados.blend1'
# www.blender.org
mtllib guitarra2_000194.mtl
o g2_pPlane4.001
v -4.620463 22.753401 -8.093611
v -3.809785 22.689669 -8.569963
v -4.157611 21.669271 -8.911972
v -4.968287 21.733002 -8.435621
v -4.193665 20.685516 -8.654133
v -5.004340 20.749247 -8.177780
v -4.173368 18.233719 -5.706053
v -3.362692 18.169991 -6.182404
v -3.045978 17.880856 -5.464027
v -3.856654 17.944584 -4.987677
v -2.432091 18.262451 -4.382177
v -2.929024 18.287691 -4.077301
v -3.239845 18.323463 -3.903286
v -4.125876 23.552080 -7.389411
v -4.779168 20.129910 -7.528818
v -4.264877 19.795010 -6.407261
v -4.275452 18.735018 -6.073931
v -3.125041 18.519630 -3.743426
v -2.995615 18.642265 -3.530295
v -2.513411 19.697968 -2.936259
v -2.418547 20.524351 -3.026067
v -2.516839 21.030596 -3.388152
v -2.857774 21.631748 -4.258310
v -2.661225 22.894531 -4.294269
v -2.724440 23.725279 -4.695887
v -3.056279 24.228815 -5.515580
v -3.582950 24.107698 -6.509111
v -3.311557 23.470030 -7.852487
v -1.716233 14.741224 -1.846931
v -2.220646 14.827052 -1.590004
v -1.732305 14.545669 -1.863692
v -2.411795 14.661283 -1.517590
v -2.377097 14.853447 -1.513662
v -1.925480 14.537315 -0.520234
v -1.895480 14.388795 -0.412903
v -1.662100 14.382668 -0.560483
v -1.688809 14.513577 -0.654884
v -2.309329 18.422695 -4.194692
v -2.186567 18.582939 -4.007209
v -1.467271 15.066204 -1.466712
v -2.029308 13.648295 -0.428277
v -1.349818 13.532680 -0.774382
v -1.270375 13.636379 -0.653054
v -1.949864 13.751995 -0.306952
v -2.093176 14.989032 -1.401417
v -2.125990 15.181227 -1.130167
v -1.971685 15.152029 -1.209786
v -2.806746 18.470226 -3.909616
v -2.684146 18.607342 -3.703321
v -2.088254 13.630157 -1.146191
v -2.119369 13.785780 -1.258830
v -1.902510 13.748879 -1.369287
v -1.867039 13.592516 -1.258868
v -2.230139 14.364205 -1.680688
v -2.013860 14.330459 -1.793463
v -1.983614 14.177694 -1.682695
v -2.204607 14.216093 -1.570813
v -2.146077 13.916688 -1.353232
v -2.173807 14.086779 -1.480455
v -1.961042 14.050578 -1.588829
v -1.928964 13.879745 -1.463819
v -1.772871 14.961094 -0.982340
v -2.044914 15.140188 -0.957284
v -1.993850 14.884001 -0.771745
v -1.747338 14.812984 -0.872466
v -1.997866 13.748144 -1.008148
v -1.776651 13.710503 -1.120825
v -1.812121 13.866866 -1.231246
v -2.028980 13.903766 -1.120788
v -2.139751 14.482192 -1.542647
v -2.114218 14.334079 -1.432772
v -1.893224 14.295679 -1.544655
v -1.923473 14.448446 -1.655420
v -2.055688 14.034674 -1.215190
v -1.838576 13.997732 -1.325777
v -1.870654 14.168565 -1.450787
v -2.083419 14.204767 -1.342412
v -2.772274 24.043970 -6.985461
v -2.245602 24.165083 -5.991930
v -1.913764 23.661551 -5.172237
v -1.850549 22.830803 -4.770619
v -2.047095 21.568018 -4.734662
v -1.706163 20.966867 -3.864505
v -1.607871 20.460621 -3.502418
v -1.702736 19.634235 -3.412609
v -3.464777 18.671289 -6.550282
v -3.454201 19.731277 -6.883610
v -3.968492 20.066177 -8.005167
v -1.471695 14.476634 -0.765472
v -1.445241 14.345767 -0.670940
v -1.845668 14.138331 -0.231443
v -1.630985 14.227046 -0.447842
v -1.503772 14.647467 -0.890481
v -1.526344 14.774583 -0.984349
v -1.716537 14.683669 -0.782107
v -1.540597 14.345034 -0.309802
v -1.319383 14.307391 -0.422477
v -1.354853 14.463756 -0.532900
v -1.571712 14.500655 -0.422442
v -1.682483 15.079080 -0.844300
v -1.656950 14.930968 -0.734425
v -1.435956 14.892569 -0.846308
v -1.466203 15.045334 -0.957075
v -1.598421 14.631563 -0.516842
v -1.381308 14.594621 -0.627429
v -1.413385 14.765453 -0.752439
v -1.626149 14.801655 -0.644066
v -1.409770 14.189405 -0.560520
v -1.556590 14.927350 -1.095116
v -1.166179 14.022715 -0.577548
v -1.365424 15.024572 -1.303389
v -1.965033 14.729491 -0.658679
v -1.215990 14.273180 -0.759007
v -1.240896 14.398411 -0.849737
v -1.281991 14.597636 -0.993208
v -1.303412 14.718342 -1.082181
v -2.292240 14.057855 -1.080142
v -2.328372 14.234393 -1.207442
v -2.353210 14.370716 -1.307544
v -1.675460 14.263058 -1.659319
v -1.652233 14.134100 -1.564465
v -1.619128 13.971395 -1.447025
v -1.591913 13.835606 -1.348771
v -1.533060 13.543811 -1.137852
v -2.212549 13.659429 -0.791749
v -2.262361 13.909893 -0.973210
v -1.398791 13.589302 -0.889446
v -2.078282 13.704919 -0.543344
v -1.259466 13.771169 -0.676668
v -1.938956 13.886785 -0.330564
vt 0.642023 0.677747
vt 0.693394 0.677747
vt 0.693394 0.731514
vt 0.642023 0.731514
vt 0.788237 0.471761
vt 0.839608 0.466497
vt 0.839608 0.517463
vt 0.788237 0.522727
vt 0.788237 0.718616
vt 0.839608 0.713352
vt 0.839608 0.751579
vt 0.788237 0.756842
vt 0.637737 0.661574
vt 0.586367 0.661574
vt 0.586468 0.594083
vt 0.618160 0.594043
vt 0.637737 0.594003
vt 0.568646 0.493611
vt 0.504856 0.485282
vt 0.451089 0.454466
vt 0.428470 0.403500
vt 0.438427 0.353809
vt 0.482132 0.299060
vt 0.460520 0.242136
vt 0.460753 0.207610
vt 0.486059 0.169384
vt 0.553630 0.146191
vt 0.568646 0.148710
vt 0.583662 0.146191
vt 0.651234 0.169384
vt 0.676539 0.207610
vt 0.676772 0.242136
vt 0.655160 0.299060
vt 0.698865 0.353809
vt 0.708823 0.403500
vt 0.686203 0.454466
vt 0.632436 0.485282
vt 0.693394 0.613957
vt 0.642023 0.613957
vt 0.754283 0.146190
vt 0.755425 0.387151
vt 0.724052 0.387151
vt 0.722590 0.150432
vt 0.756667 0.395046
vt 0.714406 0.395046
vt 0.714406 0.387055
vt 0.715485 0.406028
vt 0.715485 0.406028
vt 0.714672 0.436269
vt 0.715485 0.406028
vt 0.268628 0.733091
vt 0.268840 0.492130
vt 0.283935 0.492130
vt 0.299031 0.492130
vt 0.299242 0.733091
vt 0.493788 0.538661
vt 0.493788 0.496400
vt 0.503557 0.496400
vt 0.503557 0.538661
vt 0.460379 0.511839
vt 0.460193 0.527146
vt 0.450547 0.527278
vt 0.450547 0.496400
vt 0.460193 0.496531
vt 0.712987 0.734728
vt 0.697931 0.733119
vt 0.697680 0.496400
vt 0.712987 0.496400
vt 0.728294 0.496400
vt 0.728043 0.733119
vt 0.431485 0.839581
vt 0.420822 0.839592
vt 0.420822 0.826104
vt 0.431485 0.826116
vt 0.375304 0.839548
vt 0.375087 0.826057
vt 0.385559 0.826066
vt 0.385502 0.839800
vt 0.325241 0.839682
vt 0.313510 0.839290
vt 0.313510 0.826057
vt 0.325241 0.826179
vt 0.715485 0.406028
vt 0.714672 0.436269
vt 0.730219 0.437061
vt 0.729235 0.405347
vt 0.416361 0.839815
vt 0.405246 0.839815
vt 0.405246 0.826057
vt 0.416361 0.826057
vt 0.203576 0.842333
vt 0.203576 0.853448
vt 0.192913 0.853448
vt 0.192913 0.842333
vt 0.231602 0.839545
vt 0.220488 0.839545
vt 0.220488 0.826057
vt 0.231602 0.826057
vt 0.218554 0.842333
vt 0.218554 0.853448
vt 0.207890 0.853448
vt 0.207890 0.842333
vt 0.233066 0.842336
vt 0.233066 0.853451
vt 0.222868 0.853451
vt 0.222868 0.842336
vt 0.356043 0.839792
vt 0.344928 0.839792
vt 0.344928 0.826057
vt 0.356043 0.826057
vt 0.248317 0.842336
vt 0.248317 0.853451
vt 0.237845 0.853451
vt 0.237845 0.842336
vt 0.262405 0.839548
vt 0.251290 0.839548
vt 0.251290 0.826057
vt 0.262405 0.826057
vt 0.293207 0.839560
vt 0.282092 0.839560
vt 0.282092 0.826057
vt 0.293207 0.826057
vt 0.169998 0.837788
vt 0.158883 0.837788
vt 0.158883 0.826057
vt 0.169998 0.826057
vt 0.200800 0.839290
vt 0.189686 0.839290
vt 0.189686 0.826057
vt 0.200800 0.826057
vt 0.154874 0.837788
vt 0.143759 0.837788
vt 0.143759 0.826057
vt 0.154874 0.826057
vt 0.283935 0.146190
vt 0.347725 0.153264
vt 0.401493 0.184080
vt 0.424112 0.235046
vt 0.414154 0.284737
vt 0.370449 0.339486
vt 0.392061 0.396410
vt 0.391828 0.430936
vt 0.366523 0.469162
vt 0.201348 0.469162
vt 0.176043 0.430936
vt 0.175810 0.396410
vt 0.197422 0.339486
vt 0.153717 0.284737
vt 0.143759 0.235046
vt 0.166378 0.184080
vt 0.220145 0.153264
vt 0.642023 0.550167
vt 0.642023 0.496400
vt 0.693394 0.496400
vt 0.693394 0.550167
vt 0.783951 0.471761
vt 0.783951 0.522727
vt 0.732581 0.517463
vt 0.732581 0.466497
vt 0.783951 0.718616
vt 0.783951 0.756842
vt 0.732581 0.751579
vt 0.732581 0.713352
vt 0.637737 0.496400
vt 0.637737 0.563971
vt 0.618160 0.563931
vt 0.586468 0.563891
vt 0.586367 0.496400
vt 0.617880 0.578987
vt 0.637737 0.578987
vt 0.764446 0.146190
vt 0.796139 0.150432
vt 0.794677 0.387151
vt 0.763305 0.387151
vt 0.730219 0.437061
vt 0.729235 0.405347
vt 0.715485 0.406028
vt 0.714672 0.436269
vt 0.729235 0.405347
vt 0.730219 0.437061
vt 0.715485 0.406028
vt 0.729235 0.405347
vt 0.730219 0.437061
vt 0.714672 0.436269
vt 0.431311 0.826068
vt 0.431311 0.839826
vt 0.420647 0.839545
vt 0.420647 0.826057
vt 0.360546 0.826310
vt 0.370744 0.826057
vt 0.370801 0.839792
vt 0.360329 0.839800
vt 0.309224 0.826057
vt 0.309224 0.839560
vt 0.297493 0.839682
vt 0.297493 0.826449
vt 0.389845 0.839815
vt 0.389845 0.826057
vt 0.400960 0.826057
vt 0.400960 0.839815
vt 0.263487 0.853451
vt 0.252823 0.853451
vt 0.252823 0.842336
vt 0.263487 0.842336
vt 0.205087 0.839545
vt 0.205087 0.826057
vt 0.216201 0.826057
vt 0.216201 0.839545
vt 0.278464 0.853464
vt 0.267801 0.853464
vt 0.267801 0.842349
vt 0.278464 0.842349
vt 0.292976 0.853464
vt 0.282778 0.853464
vt 0.282778 0.842349
vt 0.292976 0.842349
vt 0.329527 0.839792
vt 0.329527 0.826057
vt 0.340642 0.826057
vt 0.340642 0.839792
vt 0.308227 0.853586
vt 0.297756 0.853586
vt 0.297756 0.842471
vt 0.308227 0.842471
vt 0.235889 0.839548
vt 0.235889 0.826057
vt 0.247003 0.826057
vt 0.247003 0.839548
vt 0.266691 0.839560
vt 0.266691 0.826057
vt 0.277806 0.826057
vt 0.277806 0.839560
vt 0.160234 0.853810
vt 0.160234 0.842079
vt 0.171349 0.842079
vt 0.171349 0.853810
vt 0.174284 0.839290
vt 0.174284 0.826057
vt 0.185399 0.826057
vt 0.185399 0.839290
vt 0.176573 0.853810
vt 0.176573 0.842079
vt 0.187688 0.842079
vt 0.187688 0.853810
vt 0.715485 0.406028
vt 0.714672 0.436269
vt 0.755988 0.400532
vt 0.756194 0.387880
vt 0.755988 0.400532
vt 0.719208 0.402080
vt 0.719250 0.387954
vt 0.756194 0.387880
vt 0.755988 0.400532
vt 0.719208 0.402080
vt 0.714672 0.436269
vt 0.715485 0.406028
vt 0.714672 0.436269
vt 0.730219 0.437061
vt 0.714672 0.436269
vt 0.729235 0.405347
vt 0.715485 0.406028
vt 0.729235 0.405347
vt 0.730219 0.437061
vt 0.730219 0.437061
vt 0.714672 0.436269
vt 0.715485 0.406028
vt 0.715485 0.406028
vt 0.729235 0.405347
vt 0.730219 0.437061
vt 0.714672 0.436269
vt 0.729235 0.405347
vt 0.714672 0.436269
vt 0.730219 0.437061
vt 0.719208 0.402080
vt 0.755988 0.400532
vt 0.756194 0.387880
vt 0.719250 0.387954
vt 0.719208 0.402080
vt 0.755988 0.400532
vt 0.719208 0.402080
vt 0.719250 0.387954
vt 0.719208 0.402080
vt 0.719250 0.387954
vt 0.756194 0.387880
vt 0.755988 0.400532
vt 0.756194 0.387880
vt 0.719208 0.402080
vt 0.719250 0.387954
vt 0.756194 0.387880
vt 0.755988 0.400532
vt 0.719208 0.402080
vt 0.719250 0.387954
vt 0.719208 0.402080
vt 0.719208 0.402080
vt 0.719250 0.387954
vt 0.756194 0.387880
vt 0.755988 0.400532
vt 0.756194 0.387880
vt 0.719250 0.387954
vt 0.839608 0.567154
vt 0.788237 0.572418
vt 0.839608 0.621903
vt 0.788237 0.627167
vt 0.839608 0.678826
vt 0.788237 0.684090
vt 0.518689 0.496400
vt 0.532680 0.496400
vt 0.532680 0.538661
vt 0.518689 0.538661
vt 0.507843 0.496400
vt 0.514402 0.496400
vt 0.514402 0.538661
vt 0.507843 0.538661
vt 0.261378 0.740986
vt 0.306493 0.740986
vt 0.261378 0.809648
vt 0.261378 0.792482
vt 0.261378 0.783900
vt 0.261378 0.775317
vt 0.261378 0.758151
vt 0.306493 0.758151
vt 0.306493 0.775317
vt 0.306493 0.783900
vt 0.306493 0.792482
vt 0.306493 0.809648
vt 0.275369 0.816709
vt 0.292502 0.816709
vt 0.279051 0.823269
vt 0.288820 0.823269
vt 0.550957 0.502959
vt 0.554639 0.496400
vt 0.564408 0.496400
vt 0.568090 0.502959
vt 0.536966 0.510020
vt 0.582080 0.510020
vt 0.536966 0.578682
vt 0.536966 0.561517
vt 0.536966 0.544351
vt 0.536966 0.535768
vt 0.536966 0.527185
vt 0.582080 0.527185
vt 0.582080 0.535768
vt 0.582080 0.544351
vt 0.582080 0.561517
vt 0.582080 0.578682
vt 0.544084 0.586674
vt 0.574962 0.586674
vt 0.783951 0.572418
vt 0.732581 0.567154
vt 0.783951 0.627167
vt 0.732581 0.621903
vt 0.783951 0.684090
vt 0.732581 0.678826
vt 0.804323 0.387055
vt 0.804323 0.395046
vt 0.762062 0.395046
vt 0.489502 0.496400
vt 0.489502 0.538661
vt 0.475511 0.538661
vt 0.475511 0.496400
vt 0.464665 0.538661
vt 0.464665 0.496400
vt 0.471225 0.496400
vt 0.471225 0.538661
vt 0.719208 0.402080
vt 0.719208 0.402080
vn -0.4361 0.4161 -0.7979
vn -0.5080 -0.2009 -0.8376
vn -0.2336 -0.9333 -0.2727
vn 0.0902 -0.9564 0.2778
vn -0.8810 0.1499 0.4487
vn -0.2890 0.7345 -0.6140
vn -0.4464 -0.5808 -0.6808
vn -0.4344 0.1103 -0.8940
vn 0.4456 0.5817 0.6805
vn 0.8802 -0.1461 -0.4515
vn 0.1590 -0.7995 0.5792
vn -0.1503 0.7980 -0.5837
vn -0.8800 0.1451 0.4522
vn -0.4456 -0.5817 -0.6805
vn 0.8765 -0.1287 -0.4639
vn -0.1590 0.7995 -0.5792
vn -0.8808 0.1491 0.4493
vn -0.8847 0.1696 0.4343
vn 0.1554 -0.7989 0.5811
vn 0.8811 -0.1506 -0.4483
vn -0.1731 0.8018 -0.5720
vn 0.8826 -0.1582 -0.4427
vn -0.8858 0.1766 0.4291
vn 0.8810 -0.1500 -0.4487
vn 0.0053 0.9923 -0.1238
vn 0.3059 0.8615 0.4054
vn 0.5084 0.0352 0.8604
vn 0.3817 -0.5759 0.7229
vn -0.1827 0.8734 -0.4515
vn 0.1944 -0.8049 0.5607
vn 0.4448 0.5825 0.6803
vn -0.8847 0.1697 0.4343
vn -0.1731 0.8018 -0.5719
vn 0.3094 0.6637 0.6811
vn 0.5520 0.6201 0.5576
vn 0.3399 0.5236 0.7812
vn 0.4455 0.5815 0.6807
vn 0.4454 0.5818 0.6805
vn 0.4046 0.5939 0.6954
vn 0.4379 0.6172 0.6536
vn 0.4047 0.5948 0.6946
vn 0.4457 0.5818 0.6804
vn 0.4378 0.6173 0.6536
vn 0.4050 0.5902 0.6983
vn 0.4457 0.5814 0.6807
vn 0.4388 0.6168 0.6535
vn 0.4049 0.5909 0.6977
vn 0.4455 0.5817 0.6805
vn 0.4377 0.6173 0.6537
vn 0.4162 0.5665 0.7113
vn -0.4454 -0.5818 -0.6805
vn -0.4457 -0.5817 -0.6804
vn -0.4455 -0.5817 -0.6805
vn -0.4739 -0.5958 -0.6484
vn -0.4458 -0.5817 -0.6804
vn -0.5634 -0.5553 -0.6118
vn -0.3257 -0.5963 -0.7337
vn -0.3527 -0.5398 -0.7644
vn -0.3879 -0.7303 -0.5624
vn -0.2879 -0.8825 -0.3719
vn -0.2763 -0.8949 -0.3506
vn -0.1923 -0.9610 -0.1988
vn -0.5047 -0.2544 -0.8249
vn -0.4920 -0.3709 -0.7876
vn -0.4890 -0.3910 -0.7798
vn -0.4439 -0.5871 -0.6769
vn 0.0068 -0.9443 0.3289
vn -0.1461 -0.9883 0.0434
vn 0.0036 -0.9464 0.3231
vn -0.3107 -0.8986 -0.3099
vn 0.8796 -0.1440 -0.4534
vn 0.8456 -0.0238 -0.5333
vn 0.8796 -0.1440 -0.4535
vn 0.8809 -0.1500 -0.4488
vn 0.8807 -0.1503 -0.4492
vn 0.8870 -0.1865 -0.4224
vn 0.8870 -0.1860 -0.4227
vn 0.8870 -0.1863 -0.4225
vn 0.8870 -0.1862 -0.4226
vn 0.8810 -0.1499 -0.4487
vn 0.8807 -0.1503 -0.4491
vn -0.8812 0.1497 0.4485
vn -0.8811 0.1497 0.4485
vn 0.4858 0.4101 0.7719
vn 0.5099 0.1315 0.8501
vn 0.5095 0.1582 0.8458
vn 0.5027 -0.0537 0.8628
vn 0.3279 0.8325 0.4466
vn 0.3808 0.7444 0.5485
vn 0.3734 0.7587 0.5339
vn 0.4473 0.5761 0.6841
vn 0.2231 0.9686 0.1101
vn 0.3643 0.9306 0.0351
vn 0.0823 0.9804 0.1789
vn 0.1988 -0.4222 0.8844
vn 0.4846 -0.4703 0.7375
vn 0.3980 -0.2782 0.8742
vn 0.4664 0.1159 0.8770
vn -0.4456 -0.5814 -0.6807
vn -0.4457 -0.5814 -0.6807
usemtl initialShadingGroup.003
s off
f 1/1/1 2/2/1 3/3/1 4/4/1
f 4/5/2 3/6/2 5/7/2 6/8/2
f 7/9/3 8/10/3 9/11/3 10/12/3
f 10/13/4 9/14/4 11/15/4 12/16/4 13/17/4
f 14/18/5 1/19/5 4/20/5 6/21/5 15/22/5 16/23/5 17/24/5 7/25/5 10/26/5 13/27/5 18/28/5 19/29/5 20/30/5 21/31/5 22/32/5 23/33/5 24/34/5 25/35/5 26/36/5 27/37/5
f 28/38/6 2/2/6 1/1/6 14/39/6
f 11/40/7 29/41/7 30/42/7 12/43/7
f 29/41/8 31/44/8 32/45/8 33/46/8 30/42/8
f 34/47/9 35/48/9 36/49/9 37/50/9
f 29/51/10 11/52/10 38/53/10 39/54/10 40/55/10
f 41/56/11 42/57/11 43/58/11 44/59/11
f 45/60/12 30/61/12 33/62/12 46/63/12 47/64/12
f 48/65/13 12/66/13 30/67/13 45/68/13 47/69/13 49/70/13
f 50/71/14 51/72/14 52/73/14 53/74/14
f 54/75/14 55/76/14 56/77/14 57/78/14
f 58/79/14 59/80/14 60/81/14 61/82/14
f 62/83/9 63/84/9 64/85/9 65/86/9
f 66/87/11 50/88/11 53/89/11 67/90/11
f 67/91/15 53/92/15 52/93/15 68/94/15
f 68/95/16 52/96/16 51/97/16 69/98/16
f 69/99/17 51/100/17 50/101/17 66/102/17
f 70/103/18 54/104/18 57/105/18 71/106/18
f 71/107/19 57/108/19 56/109/19 72/110/19
f 72/111/20 56/112/20 55/113/20 73/114/20
f 73/115/21 55/116/21 54/117/21 70/118/21
f 74/119/11 58/120/11 61/121/11 75/122/11
f 75/123/22 61/124/22 60/125/22 76/126/22
f 76/127/16 60/128/16 59/129/16 77/130/16
f 77/131/23 59/132/23 58/133/23 74/134/23
f 28/135/24 78/136/24 79/137/24 80/138/24 81/139/24 82/140/24 83/141/24 84/142/24 85/143/24 39/54/24 38/53/24 11/52/24 9/144/24 8/145/24 86/146/24 87/147/24 88/148/24 5/149/24 3/150/24 2/151/24
f 27/152/25 26/153/25 79/154/25 78/155/25
f 26/156/26 25/157/26 80/158/26 79/159/26
f 21/160/27 20/161/27 85/162/27 84/163/27
f 20/164/28 19/165/28 49/166/28 39/167/28 85/168/28
f 28/38/29 14/39/29 27/152/29 78/155/29
f 48/169/30 49/166/30 19/165/30 18/170/30 13/17/30 12/16/30
f 39/171/31 49/172/31 47/173/31 40/174/31
f 89/175/9 37/176/9 36/177/9 90/178/9
f 36/49/9 35/48/9 91/179/9 92/180/9
f 93/181/9 94/182/9 65/183/9 95/184/9
f 96/185/9 97/186/9 98/187/9 99/188/9
f 100/189/9 101/190/9 102/191/9 103/192/9
f 104/193/9 105/194/9 106/195/9 107/196/9
f 92/197/11 108/198/11 97/199/11 96/200/11
f 108/201/15 90/202/15 98/203/15 97/204/15
f 90/205/16 36/206/16 99/207/16 98/208/16
f 36/209/17 92/210/17 96/211/17 99/212/17
f 62/213/32 65/214/32 101/215/32 100/216/32
f 65/217/19 94/218/19 102/219/19 101/220/19
f 94/221/20 109/222/20 103/223/20 102/224/20
f 109/225/33 62/226/33 100/227/33 103/228/33
f 37/229/11 89/230/11 105/231/11 104/232/11
f 89/233/22 93/234/22 106/235/22 105/236/22
f 93/237/16 95/238/16 107/239/16 106/240/16
f 95/241/23 37/242/23 104/243/23 107/244/23
f 110/245/34 108/246/9 92/180/9 91/179/35
f 68/247/14 69/248/14 74/249/14 75/250/14
f 76/251/14 77/252/14 71/253/14 72/254/14
f 62/255/9 109/256/9 111/257/36 63/258/9
f 65/259/37 64/85/37 112/260/37 95/261/37
f 34/262/38 37/50/38 95/184/38 112/263/38
f 108/264/9 110/265/9 113/266/39 90/178/9
f 90/267/9 113/268/40 114/269/41 89/270/9
f 89/270/42 114/269/43 115/271/44 93/181/42
f 93/181/45 115/272/46 116/273/47 94/182/45
f 94/182/48 116/273/49 111/257/50 109/256/48
f 74/274/51 117/275/51 118/276/51 77/277/51
f 71/278/52 119/279/52 32/280/52 70/281/52
f 70/282/14 32/283/14 31/284/14 73/285/14
f 72/286/53 73/285/53 31/287/54 120/288/53
f 75/289/55 76/290/55 121/291/55 122/292/55
f 68/247/52 75/289/52 122/292/52 123/293/52
f 66/294/14 67/295/14 124/296/56 125/297/57
f 66/294/14 125/297/58 126/298/14 69/299/14
s 1
f 6/8/59 5/7/59 88/300/60 15/301/61
f 15/301/61 88/300/60 87/302/62 16/303/62
f 16/303/63 87/302/63 86/304/64 17/305/65
f 17/305/65 86/304/64 8/10/66 7/9/66
f 124/306/67 127/307/68 128/308/68 125/309/69
f 127/310/68 42/311/70 41/312/70 128/313/68
f 31/314/71 29/51/72 40/55/72 111/315/73
f 124/316/74 123/317/75 122/318/75 121/319/75 120/320/75 31/314/71 111/315/73 116/321/76 115/322/77 114/323/78 113/324/79 110/325/74
f 127/326/80 124/316/81 110/325/81 129/327/80
f 42/328/80 127/326/80 129/327/80 43/329/80
f 128/330/5 41/331/5 44/332/5 130/333/5
f 125/334/82 128/330/5 130/333/5 91/335/82
f 32/336/83 119/337/83 118/338/83 117/339/83 126/340/83 125/334/83 91/335/83 35/341/83 34/342/83 112/343/83 64/344/83 63/345/83
f 33/346/5 32/336/82 63/345/82 46/347/5
f 25/157/84 24/348/85 81/349/86 80/158/84
f 24/348/85 23/350/87 82/351/87 81/349/86
f 23/350/88 22/352/89 83/353/90 82/351/88
f 22/352/89 21/160/91 84/163/91 83/353/90
f 40/174/92 47/173/92 46/354/92 63/355/93 111/356/94
f 110/357/95 91/358/96 130/359/97 129/360/97
f 129/361/97 130/362/97 44/363/98 43/364/98
f 117/275/14 74/274/14 69/299/14 126/298/14
f 119/279/99 71/278/99 77/277/99 118/276/99
f 120/288/100 121/291/100 76/290/100 72/286/100
f 123/293/52 124/365/52 67/366/52 68/247/52
