# Blender v2.79 (sub 6) OBJ File: 'bailarina.blend1'
# www.blender.org
mtllib Guitarra2_000009.mtl
o g2_pPlane4.001
v 13.424021 19.410316 0.132946
v 14.046328 18.731731 0.333990
v 13.784689 18.274849 -0.666992
v 13.162380 18.953434 -0.868033
v 13.126083 17.661736 -1.142263
v 12.503773 18.340319 -1.343307
v 9.566211 16.240019 -1.047872
v 10.188522 15.561434 -0.846829
v 9.550531 15.192425 -0.450879
v 8.928223 15.871010 -0.651922
v 8.987989 15.084530 0.717357
v 8.589582 15.492258 0.592616
v 8.363232 15.759346 0.517789
v 13.326921 19.639671 1.280282
v 11.752583 17.811338 -1.236884
v 10.813410 17.298868 -0.536975
v 10.065375 16.621929 -1.002807
v 8.348444 15.819529 0.788668
v 8.260916 15.823893 1.052364
v 8.365490 16.226009 2.288192
v 8.831056 16.703793 2.793115
v 9.328630 17.086706 2.846478
v 10.223923 17.670746 2.542921
v 10.865301 18.371080 3.398906
v 11.548643 18.942862 3.646982
v 12.361376 19.458750 3.317003
v 12.989370 19.684515 2.403872
v 13.931108 18.947178 1.479534
v 5.522699 12.398804 0.374435
v 5.189054 12.848827 0.256241
v 5.446656 12.277955 0.238813
v 4.997206 12.884173 0.079591
v 5.088306 12.987986 0.217685
v 4.246728 12.523859 0.823598
v 4.100173 12.410751 0.809225
v 4.293503 12.222755 0.868928
v 4.422428 12.322661 0.881540
v 8.936560 15.116974 0.986060
v 8.885131 15.149418 1.254763
v 5.418400 12.464602 0.919369
v 3.749280 12.010788 0.276882
v 4.198731 11.404566 0.436102
v 4.165448 11.425562 0.609990
v 3.716002 12.031781 0.450769
v 5.138883 12.879059 0.529408
v 4.983108 13.054350 0.767314
v 5.084755 12.914623 0.801171
v 8.564498 15.538416 0.863962
v 8.486998 15.556976 1.128609
v 4.331256 11.983643 -0.147112
v 4.485068 12.101908 -0.131952
v 4.628508 11.908430 -0.081137
v 4.477579 11.786282 -0.095276
v 5.060951 12.537622 -0.074339
v 5.207554 12.346504 -0.023203
v 5.056311 12.230646 -0.038161
v 4.911059 12.428289 -0.089826
v 4.613996 12.201813 -0.119339
v 4.787499 12.326113 -0.101138
v 4.928234 12.136292 -0.051283
v 4.757604 12.008108 -0.068465
v 4.869386 12.658472 0.926540
v 4.843507 12.981137 0.882629
v 4.590159 12.786575 0.857635
v 4.719494 12.549137 0.911052
v 4.293389 12.007532 0.050732
v 4.439712 11.810169 0.102568
v 4.590642 11.932319 0.116706
v 4.447201 12.125794 0.065892
v 5.023086 12.561511 0.123505
v 4.873192 12.452177 0.108016
v 5.018444 12.254532 0.159682
v 5.169687 12.370392 0.174640
v 4.576128 12.225698 0.078504
v 4.719737 12.031998 0.129380
v 4.890366 12.160180 0.146560
v 4.749631 12.350000 0.096704
v 13.611677 19.005926 2.604913
v 12.983683 18.780163 3.518045
v 12.170952 18.264278 3.848025
v 11.487612 17.692493 3.599950
v 10.846232 16.992157 2.743964
v 9.950942 16.408121 3.047518
v 9.453366 16.025206 2.994159
v 8.987802 15.547422 2.489234
v 10.687686 15.943346 -0.801764
v 11.435719 16.620281 -0.335932
v 12.374889 17.132753 -1.035843
v 4.566037 12.128959 0.932415
v 4.436942 12.029280 0.919742
v 3.852394 12.220625 0.784758
v 4.139689 12.104494 0.853768
v 4.736668 12.257140 0.949596
v 4.864745 12.351494 0.962718
v 4.595934 12.446962 0.899741
v 4.101824 12.128382 1.051610
v 4.248145 11.931018 1.103447
v 4.399076 12.053168 1.117584
v 4.255636 12.246643 1.066770
v 4.831519 12.682360 1.124382
v 4.681627 12.573029 1.108895
v 4.826880 12.375381 1.160560
v 4.978122 12.491241 1.175518
v 4.384562 12.346548 1.079383
v 4.528169 12.152847 1.130258
v 4.698799 12.281029 1.147439
v 4.558066 12.470851 1.097583
v 4.286013 11.907130 0.905604
v 5.015989 12.467354 0.977677
v 4.301845 11.614403 0.943978
v 5.292958 12.374914 1.041849
v 4.435774 12.670786 0.841978
v 4.549623 11.804532 0.968446
v 4.673512 11.899595 0.980679
v 4.869417 12.051983 0.999707
v 4.990904 12.141584 1.012260
v 4.399883 12.426465 0.020510
v 4.573709 12.561277 0.037454
v 4.710396 12.662977 0.051442
v 5.167590 12.062920 0.211394
v 5.038072 11.966927 0.198083
v 4.877709 11.842831 0.182408
v 4.743546 11.739588 0.169205
v 4.455542 11.517443 0.140941
v 4.006095 12.123663 -0.018278
v 4.253872 12.313791 0.006189
v 4.305954 11.469303 0.379917
v 3.856504 12.075525 0.220696
v 4.247587 11.506124 0.684875
v 3.798137 12.112345 0.525655
vt 0.642023 0.677747
vt 0.693394 0.677747
vt 0.693394 0.731514
vt 0.642023 0.731514
vt 0.788237 0.471761
vt 0.839608 0.466497
vt 0.839608 0.517463
vt 0.788237 0.522727
vt 0.788237 0.718616
vt 0.839608 0.713352
vt 0.839608 0.751579
vt 0.788237 0.756842
vt 0.637737 0.661574
vt 0.586367 0.661574
vt 0.586468 0.594083
vt 0.618160 0.594043
vt 0.637737 0.594003
vt 0.568646 0.493611
vt 0.504856 0.485282
vt 0.451089 0.454466
vt 0.428470 0.403500
vt 0.438427 0.353809
vt 0.482132 0.299060
vt 0.460520 0.242136
vt 0.460753 0.207610
vt 0.486059 0.169384
vt 0.553630 0.146191
vt 0.568646 0.148710
vt 0.583662 0.146191
vt 0.651234 0.169384
vt 0.676539 0.207610
vt 0.676772 0.242136
vt 0.655160 0.299060
vt 0.698865 0.353809
vt 0.708823 0.403500
vt 0.686203 0.454466
vt 0.632436 0.485282
vt 0.693394 0.613957
vt 0.642023 0.613957
vt 0.754283 0.146190
vt 0.755425 0.387151
vt 0.724052 0.387151
vt 0.722590 0.150432
vt 0.756667 0.395046
vt 0.714406 0.395046
vt 0.714406 0.387055
vt 0.715485 0.406028
vt 0.715485 0.406028
vt 0.714672 0.436269
vt 0.715485 0.406028
vt 0.268628 0.733091
vt 0.268840 0.492130
vt 0.283935 0.492130
vt 0.299031 0.492130
vt 0.299242 0.733091
vt 0.493788 0.538661
vt 0.493788 0.496400
vt 0.503557 0.496400
vt 0.503557 0.538661
vt 0.460379 0.511839
vt 0.460193 0.527146
vt 0.450547 0.527278
vt 0.450547 0.496400
vt 0.460193 0.496531
vt 0.712987 0.734728
vt 0.697931 0.733119
vt 0.697680 0.496400
vt 0.712987 0.496400
vt 0.728294 0.496400
vt 0.728043 0.733119
vt 0.431485 0.839581
vt 0.420822 0.839592
vt 0.420822 0.826104
vt 0.431485 0.826116
vt 0.375304 0.839548
vt 0.375087 0.826057
vt 0.385559 0.826066
vt 0.385502 0.839800
vt 0.325241 0.839682
vt 0.313510 0.839290
vt 0.313510 0.826057
vt 0.325241 0.826179
vt 0.715485 0.406028
vt 0.714672 0.436269
vt 0.730219 0.437061
vt 0.729235 0.405347
vt 0.416361 0.839815
vt 0.405246 0.839815
vt 0.405246 0.826057
vt 0.416361 0.826057
vt 0.203576 0.842333
vt 0.203576 0.853448
vt 0.192913 0.853448
vt 0.192913 0.842333
vt 0.231602 0.839545
vt 0.220488 0.839545
vt 0.220488 0.826057
vt 0.231602 0.826057
vt 0.218554 0.842333
vt 0.218554 0.853448
vt 0.207890 0.853448
vt 0.207890 0.842333
vt 0.233066 0.842336
vt 0.233066 0.853451
vt 0.222868 0.853451
vt 0.222868 0.842336
vt 0.356043 0.839792
vt 0.344928 0.839792
vt 0.344928 0.826057
vt 0.356043 0.826057
vt 0.248317 0.842336
vt 0.248317 0.853451
vt 0.237845 0.853451
vt 0.237845 0.842336
vt 0.262405 0.839548
vt 0.251290 0.839548
vt 0.251290 0.826057
vt 0.262405 0.826057
vt 0.293207 0.839560
vt 0.282092 0.839560
vt 0.282092 0.826057
vt 0.293207 0.826057
vt 0.169998 0.837788
vt 0.158883 0.837788
vt 0.158883 0.826057
vt 0.169998 0.826057
vt 0.200800 0.839290
vt 0.189686 0.839290
vt 0.189686 0.826057
vt 0.200800 0.826057
vt 0.154874 0.837788
vt 0.143759 0.837788
vt 0.143759 0.826057
vt 0.154874 0.826057
vt 0.283935 0.146190
vt 0.347725 0.153264
vt 0.401493 0.184080
vt 0.424112 0.235046
vt 0.414154 0.284737
vt 0.370449 0.339486
vt 0.392061 0.396410
vt 0.391828 0.430936
vt 0.366523 0.469162
vt 0.201348 0.469162
vt 0.176043 0.430936
vt 0.175810 0.396410
vt 0.197422 0.339486
vt 0.153717 0.284737
vt 0.143759 0.235046
vt 0.166378 0.184080
vt 0.220145 0.153264
vt 0.642023 0.550167
vt 0.642023 0.496400
vt 0.693394 0.496400
vt 0.693394 0.550167
vt 0.783951 0.471761
vt 0.783951 0.522727
vt 0.732581 0.517463
vt 0.732581 0.466497
vt 0.783951 0.718616
vt 0.783951 0.756842
vt 0.732581 0.751579
vt 0.732581 0.713352
vt 0.637737 0.496400
vt 0.637737 0.563971
vt 0.618160 0.563931
vt 0.586468 0.563891
vt 0.586367 0.496400
vt 0.617880 0.578987
vt 0.637737 0.578987
vt 0.764446 0.146190
vt 0.796139 0.150432
vt 0.794677 0.387151
vt 0.763305 0.387151
vt 0.730219 0.437061
vt 0.729235 0.405347
vt 0.715485 0.406028
vt 0.714672 0.436269
vt 0.729235 0.405347
vt 0.730219 0.437061
vt 0.715485 0.406028
vt 0.729235 0.405347
vt 0.730219 0.437061
vt 0.714672 0.436269
vt 0.431311 0.826068
vt 0.431311 0.839826
vt 0.420647 0.839545
vt 0.420647 0.826057
vt 0.360546 0.826310
vt 0.370744 0.826057
vt 0.370801 0.839792
vt 0.360329 0.839800
vt 0.309224 0.826057
vt 0.309224 0.839560
vt 0.297493 0.839682
vt 0.297493 0.826449
vt 0.389845 0.839815
vt 0.389845 0.826057
vt 0.400960 0.826057
vt 0.400960 0.839815
vt 0.263487 0.853451
vt 0.252823 0.853451
vt 0.252823 0.842336
vt 0.263487 0.842336
vt 0.205087 0.839545
vt 0.205087 0.826057
vt 0.216201 0.826057
vt 0.216201 0.839545
vt 0.278464 0.853464
vt 0.267801 0.853464
vt 0.267801 0.842349
vt 0.278464 0.842349
vt 0.292976 0.853464
vt 0.282778 0.853464
vt 0.282778 0.842349
vt 0.292976 0.842349
vt 0.329527 0.839792
vt 0.329527 0.826057
vt 0.340642 0.826057
vt 0.340642 0.839792
vt 0.308227 0.853586
vt 0.297756 0.853586
vt 0.297756 0.842471
vt 0.308227 0.842471
vt 0.235889 0.839548
vt 0.235889 0.826057
vt 0.247003 0.826057
vt 0.247003 0.839548
vt 0.266691 0.839560
vt 0.266691 0.826057
vt 0.277806 0.826057
vt 0.277806 0.839560
vt 0.160234 0.853810
vt 0.160234 0.842079
vt 0.171349 0.842079
vt 0.171349 0.853810
vt 0.174284 0.839290
vt 0.174284 0.826057
vt 0.185399 0.826057
vt 0.185399 0.839290
vt 0.176573 0.853810
vt 0.176573 0.842079
vt 0.187688 0.842079
vt 0.187688 0.853810
vt 0.715485 0.406028
vt 0.714672 0.436269
vt 0.755988 0.400532
vt 0.756194 0.387880
vt 0.755988 0.400532
vt 0.719208 0.402080
vt 0.719250 0.387954
vt 0.756194 0.387880
vt 0.755988 0.400532
vt 0.719208 0.402080
vt 0.714672 0.436269
vt 0.715485 0.406028
vt 0.714672 0.436269
vt 0.730219 0.437061
vt 0.714672 0.436269
vt 0.729235 0.405347
vt 0.715485 0.406028
vt 0.729235 0.405347
vt 0.730219 0.437061
vt 0.730219 0.437061
vt 0.714672 0.436269
vt 0.715485 0.406028
vt 0.715485 0.406028
vt 0.729235 0.405347
vt 0.730219 0.437061
vt 0.714672 0.436269
vt 0.729235 0.405347
vt 0.714672 0.436269
vt 0.730219 0.437061
vt 0.719208 0.402080
vt 0.755988 0.400532
vt 0.756194 0.387880
vt 0.719250 0.387954
vt 0.719208 0.402080
vt 0.755988 0.400532
vt 0.719208 0.402080
vt 0.719250 0.387954
vt 0.719208 0.402080
vt 0.719250 0.387954
vt 0.756194 0.387880
vt 0.755988 0.400532
vt 0.756194 0.387880
vt 0.719208 0.402080
vt 0.719250 0.387954
vt 0.756194 0.387880
vt 0.755988 0.400532
vt 0.719208 0.402080
vt 0.719250 0.387954
vt 0.719208 0.402080
vt 0.719208 0.402080
vt 0.719250 0.387954
vt 0.756194 0.387880
vt 0.755988 0.400532
vt 0.756194 0.387880
vt 0.719250 0.387954
vt 0.839608 0.567154
vt 0.788237 0.572418
vt 0.839608 0.621903
vt 0.788237 0.627167
vt 0.839608 0.678826
vt 0.788237 0.684090
vt 0.518689 0.496400
vt 0.532680 0.496400
vt 0.532680 0.538661
vt 0.518689 0.538661
vt 0.507843 0.496400
vt 0.514402 0.496400
vt 0.514402 0.538661
vt 0.507843 0.538661
vt 0.261378 0.740986
vt 0.306493 0.740986
vt 0.261378 0.809648
vt 0.261378 0.792482
vt 0.261378 0.783900
vt 0.261378 0.775317
vt 0.261378 0.758151
vt 0.306493 0.758151
vt 0.306493 0.775317
vt 0.306493 0.783900
vt 0.306493 0.792482
vt 0.306493 0.809648
vt 0.275369 0.816709
vt 0.292502 0.816709
vt 0.279051 0.823269
vt 0.288820 0.823269
vt 0.550957 0.502959
vt 0.554639 0.496400
vt 0.564408 0.496400
vt 0.568090 0.502959
vt 0.536966 0.510020
vt 0.582080 0.510020
vt 0.536966 0.578682
vt 0.536966 0.561517
vt 0.536966 0.544351
vt 0.536966 0.535768
vt 0.536966 0.527185
vt 0.582080 0.527185
vt 0.582080 0.535768
vt 0.582080 0.544351
vt 0.582080 0.561517
vt 0.582080 0.578682
vt 0.544084 0.586674
vt 0.574962 0.586674
vt 0.783951 0.572418
vt 0.732581 0.567154
vt 0.783951 0.627167
vt 0.732581 0.621903
vt 0.783951 0.684090
vt 0.732581 0.678826
vt 0.804323 0.387055
vt 0.804323 0.395046
vt 0.762062 0.395046
vt 0.489502 0.496400
vt 0.489502 0.538661
vt 0.475511 0.538661
vt 0.475511 0.496400
vt 0.464665 0.538661
vt 0.464665 0.496400
vt 0.471225 0.496400
vt 0.471225 0.538661
vt 0.719208 0.402080
vt 0.719208 0.402080
vn 0.7244 0.5358 -0.4339
vn 0.4668 0.1711 -0.8676
vn -0.2476 -0.4769 -0.8434
vn -0.6251 -0.6861 -0.3721
vn -0.5827 0.7860 -0.2064
vn 0.7524 0.6562 -0.0576
vn 0.1870 -0.1166 -0.9754
vn 0.6728 0.3213 -0.6664
vn -0.1867 0.1178 0.9753
vn 0.5865 -0.7831 0.2068
vn -0.7909 -0.6069 -0.0781
vn 0.7967 0.5991 0.0801
vn -0.5874 0.7824 -0.2069
vn 0.1867 -0.1178 -0.9753
vn 0.6034 -0.7697 0.2084
vn 0.7909 0.6069 0.0781
vn -0.5835 0.7854 -0.2065
vn -0.5630 0.8008 -0.2044
vn -0.7933 -0.6037 -0.0790
vn 0.5821 -0.7865 0.2064
vn 0.7815 0.6194 0.0748
vn 0.5745 -0.7923 0.2056
vn -0.5560 0.8059 -0.2037
vn 0.5826 -0.7861 0.2064
vn 0.5395 0.6524 0.5323
vn 0.1259 0.3862 0.9138
vn -0.5584 -0.2808 0.7806
vn -0.7472 -0.6091 0.2659
vn 0.7078 0.6843 0.1752
vn -0.7668 -0.6381 -0.0697
vn -0.1863 0.1189 0.9753
vn -0.7933 -0.6037 -0.0789
vn 0.7815 0.6195 0.0748
vn -0.1928 0.2732 0.9424
vn -0.0334 0.0552 0.9979
vn -0.3294 0.1648 0.9297
vn -0.1870 0.1177 0.9753
vn -0.1867 0.1180 0.9753
vn -0.2064 0.1573 0.9657
vn -0.1507 0.1451 0.9779
vn -0.2053 0.1578 0.9659
vn -0.1865 0.1177 0.9754
vn -0.1507 0.1453 0.9778
vn -0.2104 0.1548 0.9653
vn -0.1870 0.1175 0.9753
vn -0.1505 0.1442 0.9780
vn -0.2096 0.1554 0.9654
vn -0.1867 0.1179 0.9753
vn -0.1508 0.1454 0.9778
vn -0.2283 0.1318 0.9646
vn 0.1867 -0.1180 -0.9753
vn 0.1866 -0.1177 -0.9754
vn 0.1867 -0.1179 -0.9753
vn 0.1447 -0.1038 -0.9840
vn 0.1865 -0.1176 -0.9754
vn 0.1041 -0.0077 -0.9945
vn 0.2618 -0.2203 -0.9396
vn 0.3042 -0.1649 -0.9382
vn 0.0394 -0.2505 -0.9673
vn -0.1580 -0.4108 -0.8979
vn -0.1778 -0.4260 -0.8871
vn -0.3097 -0.5199 -0.7962
vn 0.4338 0.1338 -0.8910
vn 0.3552 0.0492 -0.9335
vn 0.3407 0.0341 -0.9395
vn 0.1817 -0.1224 -0.9757
vn -0.6885 -0.6125 -0.3884
vn -0.5125 -0.5526 -0.6572
vn -0.6854 -0.6119 -0.3947
vn -0.2244 -0.3998 -0.8887
vn 0.5889 -0.7814 0.2067
vn 0.6986 -0.6821 0.2161
vn 0.5889 -0.7814 0.2066
vn 0.5827 -0.7860 0.2063
vn 0.5829 -0.7861 0.2058
vn 0.5463 -0.8129 0.2020
vn 0.5468 -0.8125 0.2021
vn 0.5465 -0.8127 0.2021
vn 0.5466 -0.8127 0.2021
vn 0.5827 -0.7860 0.2064
vn 0.5828 -0.7861 0.2059
vn -0.5827 0.7860 -0.2068
vn -0.3266 -0.0196 0.9449
vn -0.5072 -0.2181 0.8338
vn -0.4920 -0.2002 0.8473
vn -0.6009 -0.3362 0.7252
vn 0.0850 0.3539 0.9314
vn -0.0236 0.2640 0.9642
vn -0.0073 0.2779 0.9606
vn -0.1916 0.1131 0.9749
vn 0.3974 0.4951 0.7727
vn 0.4873 0.3595 0.7958
vn 0.3014 0.6123 0.7309
vn -0.8726 -0.3580 0.3323
vn -0.6822 -0.6128 0.3989
vn -0.7404 -0.4088 0.5335
vn -0.7404 -0.4089 0.5335
vn -0.5499 -0.1944 0.8123
vn 0.1869 -0.1176 -0.9753
vn 0.1869 -0.1175 -0.9753
usemtl initialShadingGroup.003
s off
f 1/1/1 2/2/1 3/3/1 4/4/1
f 4/5/2 3/6/2 5/7/2 6/8/2
f 7/9/3 8/10/3 9/11/3 10/12/3
f 10/13/4 9/14/4 11/15/4 12/16/4 13/17/4
f 14/18/5 1/19/5 4/20/5 6/21/5 15/22/5 16/23/5 17/24/5 7/25/5 10/26/5 13/27/5 18/28/5 19/29/5 20/30/5 21/31/5 22/32/5 23/33/5 24/34/5 25/35/5 26/36/5 27/37/5
f 28/38/6 2/2/6 1/1/6 14/39/6
f 11/40/7 29/41/7 30/42/7 12/43/7
f 29/41/8 31/44/8 32/45/8 33/46/8 30/42/8
f 34/47/9 35/48/9 36/49/9 37/50/9
f 29/51/10 11/52/10 38/53/10 39/54/10 40/55/10
f 41/56/11 42/57/11 43/58/11 44/59/11
f 45/60/12 30/61/12 33/62/12 46/63/12 47/64/12
f 48/65/13 12/66/13 30/67/13 45/68/13 47/69/13 49/70/13
f 50/71/14 51/72/14 52/73/14 53/74/14
f 54/75/14 55/76/14 56/77/14 57/78/14
f 58/79/14 59/80/14 60/81/14 61/82/14
f 62/83/9 63/84/9 64/85/9 65/86/9
f 66/87/11 50/88/11 53/89/11 67/90/11
f 67/91/15 53/92/15 52/93/15 68/94/15
f 68/95/16 52/96/16 51/97/16 69/98/16
f 69/99/17 51/100/17 50/101/17 66/102/17
f 70/103/18 54/104/18 57/105/18 71/106/18
f 71/107/19 57/108/19 56/109/19 72/110/19
f 72/111/20 56/112/20 55/113/20 73/114/20
f 73/115/21 55/116/21 54/117/21 70/118/21
f 74/119/11 58/120/11 61/121/11 75/122/11
f 75/123/22 61/124/22 60/125/22 76/126/22
f 76/127/16 60/128/16 59/129/16 77/130/16
f 77/131/23 59/132/23 58/133/23 74/134/23
f 28/135/24 78/136/24 79/137/24 80/138/24 81/139/24 82/140/24 83/141/24 84/142/24 85/143/24 39/54/24 38/53/24 11/52/24 9/144/24 8/145/24 86/146/24 87/147/24 88/148/24 5/149/24 3/150/24 2/151/24
f 27/152/25 26/153/25 79/154/25 78/155/25
f 26/156/26 25/157/26 80/158/26 79/159/26
f 21/160/27 20/161/27 85/162/27 84/163/27
f 20/164/28 19/165/28 49/166/28 39/167/28 85/168/28
f 28/38/29 14/39/29 27/152/29 78/155/29
f 48/169/30 49/166/30 19/165/30 18/170/30 13/17/30 12/16/30
f 39/171/31 49/172/31 47/173/31 40/174/31
f 89/175/9 37/176/9 36/177/9 90/178/9
f 36/49/9 35/48/9 91/179/9 92/180/9
f 93/181/9 94/182/9 65/183/9 95/184/9
f 96/185/9 97/186/9 98/187/9 99/188/9
f 100/189/9 101/190/9 102/191/9 103/192/9
f 104/193/9 105/194/9 106/195/9 107/196/9
f 92/197/11 108/198/11 97/199/11 96/200/11
f 108/201/15 90/202/15 98/203/15 97/204/15
f 90/205/16 36/206/16 99/207/16 98/208/16
f 36/209/17 92/210/17 96/211/17 99/212/17
f 62/213/18 65/214/18 101/215/18 100/216/18
f 65/217/32 94/218/32 102/219/32 101/220/32
f 94/221/20 109/222/20 103/223/20 102/224/20
f 109/225/33 62/226/33 100/227/33 103/228/33
f 37/229/11 89/230/11 105/231/11 104/232/11
f 89/233/22 93/234/22 106/235/22 105/236/22
f 93/237/16 95/238/16 107/239/16 106/240/16
f 95/241/23 37/242/23 104/243/23 107/244/23
f 110/245/34 108/246/9 92/180/9 91/179/35
f 68/247/14 69/248/14 74/249/14 75/250/14
f 76/251/14 77/252/14 71/253/14 72/254/14
f 62/255/9 109/256/9 111/257/36 63/258/9
f 65/259/37 64/85/37 112/260/37 95/261/37
f 34/262/38 37/50/38 95/184/38 112/263/38
f 108/264/9 110/265/9 113/266/39 90/178/9
f 90/267/9 113/268/40 114/269/41 89/270/9
f 89/270/42 114/269/43 115/271/44 93/181/42
f 93/181/45 115/272/46 116/273/47 94/182/45
f 94/182/48 116/273/49 111/257/50 109/256/48
f 74/274/51 117/275/51 118/276/51 77/277/51
f 71/278/52 119/279/52 32/280/52 70/281/52
f 70/282/14 32/283/14 31/284/14 73/285/14
f 72/286/53 73/285/53 31/287/54 120/288/53
f 75/289/55 76/290/55 121/291/55 122/292/55
f 68/247/52 75/289/52 122/292/52 123/293/52
f 66/294/14 67/295/14 124/296/56 125/297/57
f 66/294/14 125/297/58 126/298/14 69/299/14
s 1
f 6/8/59 5/7/59 88/300/60 15/301/61
f 15/301/61 88/300/60 87/302/62 16/303/62
f 16/303/63 87/302/63 86/304/64 17/305/65
f 17/305/65 86/304/64 8/10/66 7/9/66
f 124/306/67 127/307/68 128/308/68 125/309/69
f 127/310/68 42/311/70 41/312/70 128/313/68
f 31/314/71 29/51/72 40/55/72 111/315/73
f 124/316/74 123/317/75 122/318/75 121/319/75 120/320/75 31/314/71 111/315/73 116/321/76 115/322/77 114/323/78 113/324/79 110/325/74
f 127/326/80 124/316/81 110/325/81 129/327/80
f 42/328/80 127/326/80 129/327/80 43/329/80
f 128/330/5 41/331/5 44/332/5 130/333/5
f 125/334/82 128/330/5 130/333/5 91/335/82
f 32/336/82 119/337/82 118/338/82 117/339/82 126/340/82 125/334/82 91/335/82 35/341/82 34/342/82 112/343/82 64/344/82 63/345/82
f 33/346/5 32/336/82 63/345/82 46/347/5
f 25/157/83 24/348/84 81/349/85 80/158/83
f 24/348/84 23/350/86 82/351/86 81/349/85
f 23/350/87 22/352/88 83/353/89 82/351/87
f 22/352/88 21/160/90 84/163/90 83/353/89
f 40/174/91 47/173/91 46/354/91 63/355/92 111/356/93
f 110/357/94 91/358/95 130/359/96 129/360/97
f 129/361/97 130/362/96 44/363/98 43/364/98
f 117/275/14 74/274/14 69/299/14 126/298/14
f 119/279/99 71/278/99 77/277/99 118/276/99
f 120/288/100 121/291/100 76/290/100 72/286/100
f 123/293/52 124/365/52 67/366/52 68/247/52
