# Blender v2.79 (sub 6) OBJ File: 'bailarinaacortados.blend1'
# www.blender.org
mtllib guitarra2_000206.mtl
o g2_pPlane4.001
v -4.902833 24.038429 1.007417
v -5.483078 23.942612 1.743828
v -4.559014 23.798401 2.379805
v -3.978767 23.894218 1.643394
v -3.883344 23.108625 2.701104
v -3.303095 23.204441 1.964695
v -2.239207 19.741814 1.886066
v -2.819452 19.646000 2.622477
v -2.856236 18.840942 2.397738
v -2.275990 18.936760 1.661328
v -3.549637 18.001720 1.685160
v -3.184668 18.044113 1.231807
v -2.969775 18.092909 0.949653
v -5.785995 23.742155 0.292818
v -3.055962 22.314045 1.925263
v -3.204592 21.110231 1.521174
v -2.496891 20.314974 1.839801
v -3.181892 18.032421 0.780645
v -3.355961 17.888506 0.618766
v -4.399976 17.812569 -0.158517
v -5.013999 18.273161 -0.491390
v -5.277680 18.843145 -0.542793
v -5.429558 19.932589 -0.385190
v -6.404931 20.541487 -0.944154
v -6.908161 21.296333 -1.124147
v -7.002106 22.294008 -0.947020
v -6.543386 23.170109 -0.398217
v -6.356764 23.625553 1.031004
v -1.739605 14.010056 2.044836
v -1.409520 14.121790 1.590558
v -1.599844 13.924279 2.153873
v -1.155185 14.074794 1.541923
v -1.307053 14.158641 1.452194
v -1.422992 13.083768 1.102904
v -1.346494 12.915224 1.117702
v -1.521729 12.901433 1.330743
v -1.588950 13.049981 1.317435
v -3.743752 17.898975 1.518841
v -3.937867 17.796232 1.352522
v -2.133275 13.801693 1.707537
v -0.761177 12.592340 1.463588
v -1.205834 12.441825 2.075541
v -1.331452 12.375336 1.967909
v -0.886797 12.525852 1.355960
v -1.608309 14.016946 1.424601
v -1.704115 13.948483 1.111988
v -1.803187 13.913429 1.253260
v -3.393372 17.967281 1.067709
v -3.571879 17.839170 0.900043
v -0.718274 13.107561 1.965494
v -0.798676 13.284134 1.950257
v -0.940588 13.236094 2.145561
v -0.863037 13.058559 2.164721
v -1.101267 13.940281 1.898088
v -1.244848 13.895819 2.093131
v -1.165693 13.722498 2.107815
v -1.021610 13.772349 1.908856
v -0.865900 13.432682 1.936951
v -0.958602 13.625484 1.926044
v -1.097834 13.578355 2.117659
v -1.007978 13.384586 2.132485
v -1.824317 13.557580 1.278573
v -1.735310 13.767741 1.044865
v -1.602832 13.477068 1.069799
v -1.744659 13.389649 1.289341
v -0.861199 13.031915 1.843034
v -1.005962 12.982910 2.042261
v -1.083514 13.160447 2.023102
v -0.941601 13.208486 1.827798
v -1.244192 13.864633 1.775630
v -1.164536 13.696703 1.786397
v -1.308619 13.646849 1.985358
v -1.387773 13.820171 1.970671
v -1.008824 13.357031 1.814493
v -1.150902 13.308938 2.010024
v -1.240759 13.502707 1.995200
v -1.101525 13.549836 1.803583
v -7.123631 23.074289 0.338192
v -7.582354 22.198195 -0.210609
v -7.488408 21.200518 -0.387738
v -6.985178 20.445667 -0.207743
v -6.009806 19.836771 0.351221
v -5.857925 18.747332 0.193619
v -5.594245 18.177345 0.245020
v -4.980223 17.716751 0.577894
v -3.077139 20.219158 2.576212
v -3.784838 21.014414 2.257586
v -3.636209 22.218231 2.661674
v -1.731028 13.001886 1.512969
v -1.663639 12.853395 1.526047
v -1.216887 12.631051 1.141981
v -1.441326 12.724863 1.345978
v -1.820886 13.195654 1.498145
v -1.888745 13.339797 1.488302
v -1.681653 13.242785 1.306526
v -1.584250 12.649215 1.223519
v -1.729013 12.600211 1.422748
v -1.806564 12.777747 1.403588
v -1.664653 12.825786 1.208285
v -1.967241 13.481932 1.156115
v -1.887586 13.314004 1.166883
v -2.031670 13.264150 1.365844
v -2.110823 13.437472 1.351158
v -1.731875 12.974333 1.194978
v -1.873953 12.926238 1.390509
v -1.963810 13.120007 1.375686
v -1.824577 13.167137 1.184070
v -1.586089 12.675858 1.545206
v -1.967899 13.513121 1.473616
v -1.661545 12.480535 1.753933
v -2.179971 13.617227 1.656819
v -1.521412 13.301908 1.083117
v -1.791150 12.764708 1.729654
v -1.855953 12.906793 1.717515
v -1.957914 13.132943 1.696925
v -2.022359 13.269700 1.687466
v -0.842585 13.390185 1.600023
v -0.933153 13.590560 1.582023
v -1.005438 13.745060 1.570780
v -1.454094 13.603583 2.181823
v -1.385504 13.457452 2.192225
v -1.301884 13.272791 2.208645
v -1.231780 13.118711 2.221990
v -1.081418 12.787586 2.250989
v -0.636762 12.938105 1.639037
v -0.766367 13.222277 1.614758
v -1.208016 12.575469 2.106829
v -0.763358 12.725986 1.494876
v -1.428322 12.458864 1.918069
v -0.983665 12.609381 1.306116
vt 0.642023 0.677747
vt 0.693394 0.677747
vt 0.693394 0.731514
vt 0.642023 0.731514
vt 0.788237 0.471761
vt 0.839608 0.466497
vt 0.839608 0.517463
vt 0.788237 0.522727
vt 0.788237 0.718616
vt 0.839608 0.713352
vt 0.839608 0.751579
vt 0.788237 0.756842
vt 0.637737 0.661574
vt 0.586367 0.661574
vt 0.586468 0.594083
vt 0.618160 0.594043
vt 0.637737 0.594003
vt 0.568646 0.493611
vt 0.504856 0.485282
vt 0.451089 0.454466
vt 0.428470 0.403500
vt 0.438427 0.353809
vt 0.482132 0.299060
vt 0.460520 0.242136
vt 0.460753 0.207610
vt 0.486059 0.169384
vt 0.553630 0.146191
vt 0.568646 0.148710
vt 0.583662 0.146191
vt 0.651234 0.169384
vt 0.676539 0.207610
vt 0.676772 0.242136
vt 0.655160 0.299060
vt 0.698865 0.353809
vt 0.708823 0.403500
vt 0.686203 0.454466
vt 0.632436 0.485282
vt 0.693394 0.613957
vt 0.642023 0.613957
vt 0.754283 0.146190
vt 0.755425 0.387151
vt 0.724052 0.387151
vt 0.722590 0.150432
vt 0.756667 0.395046
vt 0.714406 0.395046
vt 0.714406 0.387055
vt 0.715485 0.406028
vt 0.715485 0.406028
vt 0.714672 0.436269
vt 0.715485 0.406028
vt 0.268628 0.733091
vt 0.268840 0.492130
vt 0.283935 0.492130
vt 0.299031 0.492130
vt 0.299242 0.733091
vt 0.493788 0.538661
vt 0.493788 0.496400
vt 0.503557 0.496400
vt 0.503557 0.538661
vt 0.460379 0.511839
vt 0.460193 0.527146
vt 0.450547 0.527278
vt 0.450547 0.496400
vt 0.460193 0.496531
vt 0.712987 0.734728
vt 0.697931 0.733119
vt 0.697680 0.496400
vt 0.712987 0.496400
vt 0.728294 0.496400
vt 0.728043 0.733119
vt 0.431485 0.839581
vt 0.420822 0.839592
vt 0.420822 0.826104
vt 0.431485 0.826116
vt 0.375304 0.839548
vt 0.375087 0.826057
vt 0.385559 0.826066
vt 0.385502 0.839800
vt 0.325241 0.839682
vt 0.313510 0.839290
vt 0.313510 0.826057
vt 0.325241 0.826179
vt 0.715485 0.406028
vt 0.714672 0.436269
vt 0.730219 0.437061
vt 0.729235 0.405347
vt 0.416361 0.839815
vt 0.405246 0.839815
vt 0.405246 0.826057
vt 0.416361 0.826057
vt 0.203576 0.842333
vt 0.203576 0.853448
vt 0.192913 0.853448
vt 0.192913 0.842333
vt 0.231602 0.839545
vt 0.220488 0.839545
vt 0.220488 0.826057
vt 0.231602 0.826057
vt 0.218554 0.842333
vt 0.218554 0.853448
vt 0.207890 0.853448
vt 0.207890 0.842333
vt 0.233066 0.842336
vt 0.233066 0.853451
vt 0.222868 0.853451
vt 0.222868 0.842336
vt 0.356043 0.839792
vt 0.344928 0.839792
vt 0.344928 0.826057
vt 0.356043 0.826057
vt 0.248317 0.842336
vt 0.248317 0.853451
vt 0.237845 0.853451
vt 0.237845 0.842336
vt 0.262405 0.839548
vt 0.251290 0.839548
vt 0.251290 0.826057
vt 0.262405 0.826057
vt 0.293207 0.839560
vt 0.282092 0.839560
vt 0.282092 0.826057
vt 0.293207 0.826057
vt 0.169998 0.837788
vt 0.158883 0.837788
vt 0.158883 0.826057
vt 0.169998 0.826057
vt 0.200800 0.839290
vt 0.189686 0.839290
vt 0.189686 0.826057
vt 0.200800 0.826057
vt 0.154874 0.837788
vt 0.143759 0.837788
vt 0.143759 0.826057
vt 0.154874 0.826057
vt 0.283935 0.146190
vt 0.347725 0.153264
vt 0.401493 0.184080
vt 0.424112 0.235046
vt 0.414154 0.284737
vt 0.370449 0.339486
vt 0.392061 0.396410
vt 0.391828 0.430936
vt 0.366523 0.469162
vt 0.201348 0.469162
vt 0.176043 0.430936
vt 0.175810 0.396410
vt 0.197422 0.339486
vt 0.153717 0.284737
vt 0.143759 0.235046
vt 0.166378 0.184080
vt 0.220145 0.153264
vt 0.642023 0.550167
vt 0.642023 0.496400
vt 0.693394 0.496400
vt 0.693394 0.550167
vt 0.783951 0.471761
vt 0.783951 0.522727
vt 0.732581 0.517463
vt 0.732581 0.466497
vt 0.783951 0.718616
vt 0.783951 0.756842
vt 0.732581 0.751579
vt 0.732581 0.713352
vt 0.637737 0.496400
vt 0.637737 0.563971
vt 0.618160 0.563931
vt 0.586468 0.563891
vt 0.586367 0.496400
vt 0.617880 0.578987
vt 0.637737 0.578987
vt 0.764446 0.146190
vt 0.796139 0.150432
vt 0.794677 0.387151
vt 0.763305 0.387151
vt 0.730219 0.437061
vt 0.729235 0.405347
vt 0.715485 0.406028
vt 0.714672 0.436269
vt 0.729235 0.405347
vt 0.730219 0.437061
vt 0.715485 0.406028
vt 0.729235 0.405347
vt 0.730219 0.437061
vt 0.714672 0.436269
vt 0.431311 0.826068
vt 0.431311 0.839826
vt 0.420647 0.839545
vt 0.420647 0.826057
vt 0.360546 0.826310
vt 0.370744 0.826057
vt 0.370801 0.839792
vt 0.360329 0.839800
vt 0.309224 0.826057
vt 0.309224 0.839560
vt 0.297493 0.839682
vt 0.297493 0.826449
vt 0.389845 0.839815
vt 0.389845 0.826057
vt 0.400960 0.826057
vt 0.400960 0.839815
vt 0.263487 0.853451
vt 0.252823 0.853451
vt 0.252823 0.842336
vt 0.263487 0.842336
vt 0.205087 0.839545
vt 0.205087 0.826057
vt 0.216201 0.826057
vt 0.216201 0.839545
vt 0.278464 0.853464
vt 0.267801 0.853464
vt 0.267801 0.842349
vt 0.278464 0.842349
vt 0.292976 0.853464
vt 0.282778 0.853464
vt 0.282778 0.842349
vt 0.292976 0.842349
vt 0.329527 0.839792
vt 0.329527 0.826057
vt 0.340642 0.826057
vt 0.340642 0.839792
vt 0.308227 0.853586
vt 0.297756 0.853586
vt 0.297756 0.842471
vt 0.308227 0.842471
vt 0.235889 0.839548
vt 0.235889 0.826057
vt 0.247003 0.826057
vt 0.247003 0.839548
vt 0.266691 0.839560
vt 0.266691 0.826057
vt 0.277806 0.826057
vt 0.277806 0.839560
vt 0.160234 0.853810
vt 0.160234 0.842079
vt 0.171349 0.842079
vt 0.171349 0.853810
vt 0.174284 0.839290
vt 0.174284 0.826057
vt 0.185399 0.826057
vt 0.185399 0.839290
vt 0.176573 0.853810
vt 0.176573 0.842079
vt 0.187688 0.842079
vt 0.187688 0.853810
vt 0.715485 0.406028
vt 0.714672 0.436269
vt 0.755988 0.400532
vt 0.756194 0.387880
vt 0.755988 0.400532
vt 0.719208 0.402080
vt 0.719250 0.387954
vt 0.756194 0.387880
vt 0.755988 0.400532
vt 0.719208 0.402080
vt 0.714672 0.436269
vt 0.715485 0.406028
vt 0.714672 0.436269
vt 0.730219 0.437061
vt 0.714672 0.436269
vt 0.729235 0.405347
vt 0.715485 0.406028
vt 0.729235 0.405347
vt 0.730219 0.437061
vt 0.730219 0.437061
vt 0.714672 0.436269
vt 0.715485 0.406028
vt 0.715485 0.406028
vt 0.729235 0.405347
vt 0.730219 0.437061
vt 0.714672 0.436269
vt 0.729235 0.405347
vt 0.714672 0.436269
vt 0.730219 0.437061
vt 0.719208 0.402080
vt 0.755988 0.400532
vt 0.756194 0.387880
vt 0.719250 0.387954
vt 0.719208 0.402080
vt 0.755988 0.400532
vt 0.719208 0.402080
vt 0.719250 0.387954
vt 0.719208 0.402080
vt 0.719250 0.387954
vt 0.756194 0.387880
vt 0.755988 0.400532
vt 0.756194 0.387880
vt 0.719208 0.402080
vt 0.719250 0.387954
vt 0.756194 0.387880
vt 0.755988 0.400532
vt 0.719208 0.402080
vt 0.719250 0.387954
vt 0.719208 0.402080
vt 0.719208 0.402080
vt 0.719250 0.387954
vt 0.756194 0.387880
vt 0.755988 0.400532
vt 0.756194 0.387880
vt 0.719250 0.387954
vt 0.839608 0.567154
vt 0.788237 0.572418
vt 0.839608 0.621903
vt 0.788237 0.627167
vt 0.839608 0.678826
vt 0.788237 0.684090
vt 0.518689 0.496400
vt 0.532680 0.496400
vt 0.532680 0.538661
vt 0.518689 0.538661
vt 0.507843 0.496400
vt 0.514402 0.496400
vt 0.514402 0.538661
vt 0.507843 0.538661
vt 0.261378 0.740986
vt 0.306493 0.740986
vt 0.261378 0.809648
vt 0.261378 0.792482
vt 0.261378 0.783900
vt 0.261378 0.775317
vt 0.261378 0.758151
vt 0.306493 0.758151
vt 0.306493 0.775317
vt 0.306493 0.783900
vt 0.306493 0.792482
vt 0.306493 0.809648
vt 0.275369 0.816709
vt 0.292502 0.816709
vt 0.279051 0.823269
vt 0.288820 0.823269
vt 0.550957 0.502959
vt 0.554639 0.496400
vt 0.564408 0.496400
vt 0.568090 0.502959
vt 0.536966 0.510020
vt 0.582080 0.510020
vt 0.536966 0.578682
vt 0.536966 0.561517
vt 0.536966 0.544351
vt 0.536966 0.535768
vt 0.536966 0.527185
vt 0.582080 0.527185
vt 0.582080 0.535768
vt 0.582080 0.544351
vt 0.582080 0.561517
vt 0.582080 0.578682
vt 0.544084 0.586674
vt 0.574962 0.586674
vt 0.783951 0.572418
vt 0.732581 0.567154
vt 0.783951 0.627167
vt 0.732581 0.621903
vt 0.783951 0.684090
vt 0.732581 0.678826
vt 0.804323 0.387055
vt 0.804323 0.395046
vt 0.762062 0.395046
vt 0.489502 0.496400
vt 0.489502 0.538661
vt 0.475511 0.538661
vt 0.475511 0.496400
vt 0.464665 0.538661
vt 0.464665 0.496400
vt 0.471225 0.496400
vt 0.471225 0.538661
vt 0.719208 0.402080
vt 0.719208 0.402080
vn 0.0425 0.9859 0.1618
vn 0.4997 0.7163 0.4870
vn 0.7820 -0.2005 0.5901
vn 0.5627 -0.7498 0.3482
vn 0.5765 0.1952 -0.7934
vn -0.2735 0.9589 -0.0754
vn 0.7046 0.3739 0.6031
vn 0.2394 0.8871 0.3946
vn -0.7046 -0.3729 -0.6037
vn -0.5785 -0.1909 0.7931
vn 0.4137 -0.9071 0.0775
vn -0.4194 0.9051 -0.0696
vn 0.5790 0.1897 -0.7930
vn 0.7046 0.3729 0.6037
vn -0.5872 -0.1711 0.7911
vn -0.4137 0.9071 -0.0775
vn 0.5769 0.1943 -0.7934
vn 0.5661 0.2175 -0.7951
vn 0.4161 -0.9063 0.0742
vn -0.5762 -0.1959 0.7935
vn -0.4044 0.9101 -0.0902
vn -0.5722 -0.2046 0.7942
vn 0.5624 0.2254 -0.7956
vn -0.5765 -0.1953 0.7934
vn -0.6555 0.6165 -0.4363
vn -0.7872 0.0352 -0.6157
vn -0.3911 -0.8214 -0.4151
vn 0.1018 -0.9937 -0.0467
vn -0.4418 0.8699 -0.2195
vn 0.3901 -0.9142 0.1094
vn -0.7046 -0.3719 -0.6043
vn -0.6552 -0.2635 -0.7080
vn -0.8125 -0.3185 -0.4883
vn -0.5849 -0.4228 -0.6922
vn -0.7044 -0.3731 -0.6038
vn -0.7045 -0.3728 -0.6039
vn -0.6814 -0.3569 -0.6391
vn -0.7226 -0.3315 -0.6066
vn -0.6820 -0.3559 -0.6389
vn -0.7047 -0.3728 -0.6036
vn -0.7225 -0.3314 -0.6067
vn -0.6792 -0.3611 -0.6390
vn -0.7044 -0.3733 -0.6037
vn -0.7230 -0.3321 -0.6059
vn -0.6796 -0.3602 -0.6391
vn -0.7046 -0.3728 -0.6038
vn -0.7225 -0.3314 -0.6068
vn -0.6718 -0.3882 -0.6309
vn 0.7046 0.3728 0.6038
vn 0.7047 0.3729 0.6036
vn 0.7046 0.3729 0.6038
vn 0.7359 0.3568 0.5755
vn 0.7048 0.3729 0.6035
vn 0.7777 0.3964 0.4879
vn 0.6225 0.3440 0.7030
vn 0.6054 0.4086 0.6831
vn 0.7604 0.1835 0.6230
vn 0.7880 -0.0783 0.6107
vn 0.7877 -0.1053 0.6070
vn 0.7703 -0.2864 0.5697
vn 0.5325 0.6773 0.5077
vn 0.5998 0.5827 0.5484
vn 0.6108 0.5650 0.5547
vn 0.7070 0.3667 0.6048
vn 0.6188 -0.7384 0.2680
vn 0.7578 -0.4908 0.4299
vn 0.6225 -0.7339 0.2719
vn 0.8169 -0.1188 0.5644
vn -0.5794 -0.1881 0.7930
vn -0.6338 -0.0517 0.7717
vn -0.5794 -0.1880 0.7931
vn -0.5764 -0.1951 0.7935
vn -0.5761 -0.1949 0.7938
vn -0.5566 -0.2360 0.7965
vn -0.5569 -0.2354 0.7965
vn -0.5568 -0.2358 0.7965
vn -0.5568 -0.2357 0.7965
vn -0.5765 -0.1952 0.7934
vn -0.5761 -0.1950 0.7938
vn 0.5765 0.1951 -0.7934
vn 0.5767 0.1953 -0.7932
vn 0.5768 0.1953 -0.7932
vn -0.6211 -0.5477 -0.5606
vn -0.4555 -0.7632 -0.4582
vn -0.4728 -0.7457 -0.4695
vn -0.3287 -0.8681 -0.3720
vn -0.7841 -0.0196 -0.6204
vn -0.7646 -0.1629 -0.6236
vn -0.7685 -0.1415 -0.6240
vn -0.7022 -0.3792 -0.6026
vn -0.8002 0.3369 -0.4961
vn -0.8836 0.3003 -0.3593
vn -0.7002 0.3636 -0.6144
vn 0.1426 -0.9346 -0.3260
vn -0.0448 -0.9967 -0.0679
vn -0.1024 -0.9461 -0.3071
vn -0.1025 -0.9461 -0.3071
vn -0.4119 -0.7692 -0.4885
vn 0.7044 0.3732 0.6037
vn 0.7045 0.3733 0.6036
usemtl initialShadingGroup.003
s off
f 1/1/1 2/2/1 3/3/1 4/4/1
f 4/5/2 3/6/2 5/7/2 6/8/2
f 7/9/3 8/10/3 9/11/3 10/12/3
f 10/13/4 9/14/4 11/15/4 12/16/4 13/17/4
f 14/18/5 1/19/5 4/20/5 6/21/5 15/22/5 16/23/5 17/24/5 7/25/5 10/26/5 13/27/5 18/28/5 19/29/5 20/30/5 21/31/5 22/32/5 23/33/5 24/34/5 25/35/5 26/36/5 27/37/5
f 28/38/6 2/2/6 1/1/6 14/39/6
f 11/40/7 29/41/7 30/42/7 12/43/7
f 29/41/8 31/44/8 32/45/8 33/46/8 30/42/8
f 34/47/9 35/48/9 36/49/9 37/50/9
f 29/51/10 11/52/10 38/53/10 39/54/10 40/55/10
f 41/56/11 42/57/11 43/58/11 44/59/11
f 45/60/12 30/61/12 33/62/12 46/63/12 47/64/12
f 48/65/13 12/66/13 30/67/13 45/68/13 47/69/13 49/70/13
f 50/71/14 51/72/14 52/73/14 53/74/14
f 54/75/14 55/76/14 56/77/14 57/78/14
f 58/79/14 59/80/14 60/81/14 61/82/14
f 62/83/9 63/84/9 64/85/9 65/86/9
f 66/87/11 50/88/11 53/89/11 67/90/11
f 67/91/15 53/92/15 52/93/15 68/94/15
f 68/95/16 52/96/16 51/97/16 69/98/16
f 69/99/17 51/100/17 50/101/17 66/102/17
f 70/103/18 54/104/18 57/105/18 71/106/18
f 71/107/19 57/108/19 56/109/19 72/110/19
f 72/111/20 56/112/20 55/113/20 73/114/20
f 73/115/21 55/116/21 54/117/21 70/118/21
f 74/119/11 58/120/11 61/121/11 75/122/11
f 75/123/22 61/124/22 60/125/22 76/126/22
f 76/127/16 60/128/16 59/129/16 77/130/16
f 77/131/23 59/132/23 58/133/23 74/134/23
f 28/135/24 78/136/24 79/137/24 80/138/24 81/139/24 82/140/24 83/141/24 84/142/24 85/143/24 39/54/24 38/53/24 11/52/24 9/144/24 8/145/24 86/146/24 87/147/24 88/148/24 5/149/24 3/150/24 2/151/24
f 27/152/25 26/153/25 79/154/25 78/155/25
f 26/156/26 25/157/26 80/158/26 79/159/26
f 21/160/27 20/161/27 85/162/27 84/163/27
f 20/164/28 19/165/28 49/166/28 39/167/28 85/168/28
f 28/38/29 14/39/29 27/152/29 78/155/29
f 48/169/30 49/166/30 19/165/30 18/170/30 13/17/30 12/16/30
f 39/171/31 49/172/31 47/173/31 40/174/31
f 89/175/9 37/176/9 36/177/9 90/178/9
f 36/49/9 35/48/9 91/179/9 92/180/9
f 93/181/9 94/182/9 65/183/9 95/184/9
f 96/185/9 97/186/9 98/187/9 99/188/9
f 100/189/9 101/190/9 102/191/9 103/192/9
f 104/193/9 105/194/9 106/195/9 107/196/9
f 92/197/11 108/198/11 97/199/11 96/200/11
f 108/201/15 90/202/15 98/203/15 97/204/15
f 90/205/16 36/206/16 99/207/16 98/208/16
f 36/209/17 92/210/17 96/211/17 99/212/17
f 62/213/18 65/214/18 101/215/18 100/216/18
f 65/217/19 94/218/19 102/219/19 101/220/19
f 94/221/20 109/222/20 103/223/20 102/224/20
f 109/225/21 62/226/21 100/227/21 103/228/21
f 37/229/11 89/230/11 105/231/11 104/232/11
f 89/233/22 93/234/22 106/235/22 105/236/22
f 93/237/16 95/238/16 107/239/16 106/240/16
f 95/241/23 37/242/23 104/243/23 107/244/23
f 110/245/32 108/246/9 92/180/9 91/179/33
f 68/247/14 69/248/14 74/249/14 75/250/14
f 76/251/14 77/252/14 71/253/14 72/254/14
f 62/255/9 109/256/9 111/257/34 63/258/9
f 65/259/35 64/85/35 112/260/35 95/261/35
f 34/262/36 37/50/36 95/184/36 112/263/36
f 108/264/9 110/265/9 113/266/37 90/178/9
f 90/267/9 113/268/38 114/269/39 89/270/9
f 89/270/40 114/269/41 115/271/42 93/181/40
f 93/181/43 115/272/44 116/273/45 94/182/43
f 94/182/46 116/273/47 111/257/48 109/256/46
f 74/274/49 117/275/49 118/276/49 77/277/49
f 71/278/50 119/279/50 32/280/50 70/281/50
f 70/282/14 32/283/14 31/284/14 73/285/14
f 72/286/51 73/285/51 31/287/52 120/288/51
f 75/289/53 76/290/53 121/291/53 122/292/53
f 68/247/50 75/289/50 122/292/50 123/293/50
f 66/294/14 67/295/14 124/296/54 125/297/55
f 66/294/14 125/297/56 126/298/14 69/299/14
s 1
f 6/8/57 5/7/57 88/300/58 15/301/59
f 15/301/59 88/300/58 87/302/60 16/303/60
f 16/303/61 87/302/61 86/304/62 17/305/63
f 17/305/63 86/304/62 8/10/64 7/9/64
f 124/306/65 127/307/66 128/308/66 125/309/67
f 127/310/66 42/311/68 41/312/68 128/313/66
f 31/314/69 29/51/70 40/55/70 111/315/71
f 124/316/72 123/317/73 122/318/73 121/319/73 120/320/73 31/314/69 111/315/71 116/321/74 115/322/75 114/323/76 113/324/77 110/325/72
f 127/326/78 124/316/79 110/325/79 129/327/78
f 42/328/78 127/326/78 129/327/78 43/329/78
f 128/330/5 41/331/80 44/332/80 130/333/5
f 125/334/81 128/330/5 130/333/5 91/335/81
f 32/336/82 119/337/82 118/338/82 117/339/82 126/340/82 125/334/82 91/335/82 35/341/82 34/342/82 112/343/82 64/344/82 63/345/82
f 33/346/5 32/336/82 63/345/82 46/347/5
f 25/157/83 24/348/84 81/349/85 80/158/83
f 24/348/84 23/350/86 82/351/86 81/349/85
f 23/350/87 22/352/88 83/353/89 82/351/87
f 22/352/88 21/160/90 84/163/90 83/353/89
f 40/174/91 47/173/91 46/354/91 63/355/92 111/356/93
f 110/357/94 91/358/95 130/359/96 129/360/97
f 129/361/97 130/362/96 44/363/98 43/364/98
f 117/275/14 74/274/14 69/299/14 126/298/14
f 119/279/99 71/278/99 77/277/99 118/276/99
f 120/288/100 121/291/100 76/290/100 72/286/100
f 123/293/50 124/365/50 67/366/50 68/247/50
