# Blender v2.79 (sub 6) OBJ File: 'bailarina.blend1'
# www.blender.org
mtllib Guitarra2_000014.mtl
o g2_pPlane4.001
v 7.716803 7.717996 13.854602
v 7.828841 8.653233 13.885394
v 6.717244 8.722146 14.082297
v 6.605209 7.786911 14.051503
v 5.804490 8.750734 13.633288
v 5.692451 7.815497 13.602492
v 3.848671 7.771839 10.483775
v 3.960709 8.707074 10.514570
v 3.866245 8.674079 9.683931
v 3.754206 7.738844 9.653136
v 4.539363 8.585084 8.574038
v 4.459156 8.008038 8.540668
v 4.425896 7.651580 8.539080
v 8.704930 7.635938 13.225888
v 5.249429 7.802146 12.790711
v 5.218307 7.745281 11.513863
v 4.249828 7.772507 10.969704
v 4.665047 7.632268 8.398902
v 4.845172 7.612905 8.188199
v 6.060193 7.526134 7.723333
v 6.861229 7.493953 7.962668
v 7.268893 7.494019 8.443147
v 7.633925 7.522456 9.492308
v 8.885367 7.466758 9.747915
v 9.606425 7.454461 10.327015
v 9.887612 7.484134 11.304570
v 9.497932 7.553701 12.364038
v 8.802257 8.571159 13.239108
v 1.715118 8.603578 5.203242
v 1.684351 8.032457 5.229426
v 1.522646 8.635450 5.176419
v 1.481197 7.866102 5.211693
v 1.674176 7.857019 5.240370
v 1.626970 7.807035 4.106318
v 1.507843 7.807456 3.963889
v 1.550404 8.079553 3.984755
v 1.655355 8.078856 4.110243
v 4.750111 8.565643 8.397667
v 4.960859 8.546204 8.221298
v 2.142518 8.564153 4.845564
v 0.764131 7.842466 3.853641
v 0.805579 8.611815 3.818368
v 0.941962 8.599235 3.704234
v 0.900515 7.829888 3.739508
v 1.898232 8.016130 5.050432
v 2.105261 7.817255 4.879609
v 2.111752 7.993032 4.871750
v 4.688472 7.993769 8.387050
v 4.879547 7.969260 8.188860
v 0.640499 8.152042 4.492453
v 0.765396 8.151962 4.641703
v 0.778621 8.397500 4.630443
v 0.653993 8.402513 4.480969
v 1.230607 8.157382 5.197003
v 1.246376 8.402977 5.188777
v 1.123713 8.402708 5.042232
v 1.110905 8.152676 5.054485
v 0.870345 8.151269 4.767189
v 1.008137 8.158540 4.931039
v 1.021115 8.399440 4.919994
v 0.883590 8.397094 4.755919
v 2.015615 8.084970 4.540056
v 2.111034 7.808002 4.684604
v 1.905400 7.807945 4.438883
v 1.895913 8.080264 4.397539
v 0.795673 8.137728 4.362594
v 0.809166 8.388199 4.351110
v 0.933795 8.383187 4.500586
v 0.920567 8.137650 4.511844
v 1.385779 8.143069 5.067145
v 1.266078 8.138364 4.924627
v 1.278884 8.388395 4.912372
v 1.401548 8.388664 5.058917
v 1.025517 8.136955 4.637330
v 1.038761 8.382779 4.626059
v 1.176288 8.385127 4.790136
v 1.163309 8.144226 4.801181
v 9.609967 8.488936 12.394826
v 9.999650 8.419368 11.335364
v 9.718465 8.389698 10.357809
v 8.997406 8.401993 9.778709
v 7.745964 8.457692 9.523102
v 7.380934 8.429255 8.473943
v 6.973267 8.429188 7.993462
v 6.172231 8.461369 7.754128
v 4.361868 8.707742 11.000500
v 5.330342 8.680516 11.544654
v 5.361467 8.737380 12.821506
v 1.668597 8.324682 4.098971
v 1.563629 8.325089 3.973496
v 1.306778 7.807273 3.723650
v 1.425508 8.079631 3.835506
v 1.806123 8.327030 4.263047
v 1.908723 8.330297 4.385284
v 1.793146 8.086128 4.274091
v 1.580681 8.065317 3.705648
v 1.594172 8.315787 3.694163
v 1.718802 8.310776 3.843639
v 1.705574 8.065239 3.854897
v 2.170786 8.070658 4.410198
v 2.051085 8.065950 4.267682
v 2.063892 8.315984 4.255425
v 2.186555 8.316254 4.401971
v 1.810525 8.064543 3.980384
v 1.823769 8.310368 3.969111
v 1.961296 8.312716 4.133189
v 1.948318 8.071815 4.144234
v 1.439001 8.330101 3.824021
v 2.031385 8.330567 4.531829
v 1.348225 8.576623 3.688377
v 2.152482 8.577353 4.649331
v 1.780959 7.805656 4.290571
v 1.549289 8.576803 3.928615
v 1.649821 8.576896 4.048734
v 1.809439 8.575362 4.239740
v 1.906886 8.578394 4.355669
v 0.996689 7.865145 4.632873
v 1.138189 7.864109 4.802144
v 1.248109 7.866797 4.933033
v 1.295910 8.635973 4.905383
v 1.191873 8.633122 4.781549
v 1.061417 8.633854 4.625529
v 0.952456 8.633995 4.495296
v 0.718388 8.634720 4.215466
v 0.676942 7.865370 4.250740
v 0.878005 7.865552 4.490978
v 0.831007 8.616628 3.953182
v 0.789561 7.847278 3.988457
v 1.070192 8.594564 3.753017
v 1.028745 7.825215 3.788290
vt 0.642023 0.677747
vt 0.693394 0.677747
vt 0.693394 0.731514
vt 0.642023 0.731514
vt 0.788237 0.471761
vt 0.839608 0.466497
vt 0.839608 0.517463
vt 0.788237 0.522727
vt 0.788237 0.718616
vt 0.839608 0.713352
vt 0.839608 0.751579
vt 0.788237 0.756842
vt 0.637737 0.661574
vt 0.586367 0.661574
vt 0.586468 0.594083
vt 0.618160 0.594043
vt 0.637737 0.594003
vt 0.568646 0.493611
vt 0.504856 0.485282
vt 0.451089 0.454466
vt 0.428470 0.403500
vt 0.438427 0.353809
vt 0.482132 0.299060
vt 0.460520 0.242136
vt 0.460753 0.207610
vt 0.486059 0.169384
vt 0.553630 0.146191
vt 0.568646 0.148710
vt 0.583662 0.146191
vt 0.651234 0.169384
vt 0.676539 0.207610
vt 0.676772 0.242136
vt 0.655160 0.299060
vt 0.698865 0.353809
vt 0.708823 0.403500
vt 0.686203 0.454466
vt 0.632436 0.485282
vt 0.693394 0.613957
vt 0.642023 0.613957
vt 0.754283 0.146190
vt 0.755425 0.387151
vt 0.724052 0.387151
vt 0.722590 0.150432
vt 0.756667 0.395046
vt 0.714406 0.395046
vt 0.714406 0.387055
vt 0.715485 0.406028
vt 0.715485 0.406028
vt 0.714672 0.436269
vt 0.715485 0.406028
vt 0.268628 0.733091
vt 0.268840 0.492130
vt 0.283935 0.492130
vt 0.299031 0.492130
vt 0.299242 0.733091
vt 0.493788 0.538661
vt 0.493788 0.496400
vt 0.503557 0.496400
vt 0.503557 0.538661
vt 0.460379 0.511839
vt 0.460193 0.527146
vt 0.450547 0.527278
vt 0.450547 0.496400
vt 0.460193 0.496531
vt 0.712987 0.734728
vt 0.697931 0.733119
vt 0.697680 0.496400
vt 0.712987 0.496400
vt 0.728294 0.496400
vt 0.728043 0.733119
vt 0.431485 0.839581
vt 0.420822 0.839592
vt 0.420822 0.826104
vt 0.431485 0.826116
vt 0.375304 0.839548
vt 0.375087 0.826057
vt 0.385559 0.826066
vt 0.385502 0.839800
vt 0.325241 0.839682
vt 0.313510 0.839290
vt 0.313510 0.826057
vt 0.325241 0.826179
vt 0.715485 0.406028
vt 0.714672 0.436269
vt 0.730219 0.437061
vt 0.729235 0.405347
vt 0.416361 0.839815
vt 0.405246 0.839815
vt 0.405246 0.826057
vt 0.416361 0.826057
vt 0.203576 0.842333
vt 0.203576 0.853448
vt 0.192913 0.853448
vt 0.192913 0.842333
vt 0.231602 0.839545
vt 0.220488 0.839545
vt 0.220488 0.826057
vt 0.231602 0.826057
vt 0.218554 0.842333
vt 0.218554 0.853448
vt 0.207890 0.853448
vt 0.207890 0.842333
vt 0.233066 0.842336
vt 0.233066 0.853451
vt 0.222868 0.853451
vt 0.222868 0.842336
vt 0.356043 0.839792
vt 0.344928 0.839792
vt 0.344928 0.826057
vt 0.356043 0.826057
vt 0.248317 0.842336
vt 0.248317 0.853451
vt 0.237845 0.853451
vt 0.237845 0.842336
vt 0.262405 0.839548
vt 0.251290 0.839548
vt 0.251290 0.826057
vt 0.262405 0.826057
vt 0.293207 0.839560
vt 0.282092 0.839560
vt 0.282092 0.826057
vt 0.293207 0.826057
vt 0.169998 0.837788
vt 0.158883 0.837788
vt 0.158883 0.826057
vt 0.169998 0.826057
vt 0.200800 0.839290
vt 0.189686 0.839290
vt 0.189686 0.826057
vt 0.200800 0.826057
vt 0.154874 0.837788
vt 0.143759 0.837788
vt 0.143759 0.826057
vt 0.154874 0.826057
vt 0.283935 0.146190
vt 0.347725 0.153264
vt 0.401493 0.184080
vt 0.424112 0.235046
vt 0.414154 0.284737
vt 0.370449 0.339486
vt 0.392061 0.396410
vt 0.391828 0.430936
vt 0.366523 0.469162
vt 0.201348 0.469162
vt 0.176043 0.430936
vt 0.175810 0.396410
vt 0.197422 0.339486
vt 0.153717 0.284737
vt 0.143759 0.235046
vt 0.166378 0.184080
vt 0.220145 0.153264
vt 0.642023 0.550167
vt 0.642023 0.496400
vt 0.693394 0.496400
vt 0.693394 0.550167
vt 0.783951 0.471761
vt 0.783951 0.522727
vt 0.732581 0.517463
vt 0.732581 0.466497
vt 0.783951 0.718616
vt 0.783951 0.756842
vt 0.732581 0.751579
vt 0.732581 0.713352
vt 0.637737 0.496400
vt 0.637737 0.563971
vt 0.618160 0.563931
vt 0.586468 0.563891
vt 0.586367 0.496400
vt 0.617880 0.578987
vt 0.637737 0.578987
vt 0.764446 0.146190
vt 0.796139 0.150432
vt 0.794677 0.387151
vt 0.763305 0.387151
vt 0.730219 0.437061
vt 0.729235 0.405347
vt 0.715485 0.406028
vt 0.714672 0.436269
vt 0.729235 0.405347
vt 0.730219 0.437061
vt 0.715485 0.406028
vt 0.729235 0.405347
vt 0.730219 0.437061
vt 0.714672 0.436269
vt 0.431311 0.826068
vt 0.431311 0.839826
vt 0.420647 0.839545
vt 0.420647 0.826057
vt 0.360546 0.826310
vt 0.370744 0.826057
vt 0.370801 0.839792
vt 0.360329 0.839800
vt 0.309224 0.826057
vt 0.309224 0.839560
vt 0.297493 0.839682
vt 0.297493 0.826449
vt 0.389845 0.839815
vt 0.389845 0.826057
vt 0.400960 0.826057
vt 0.400960 0.839815
vt 0.263487 0.853451
vt 0.252823 0.853451
vt 0.252823 0.842336
vt 0.263487 0.842336
vt 0.205087 0.839545
vt 0.205087 0.826057
vt 0.216201 0.826057
vt 0.216201 0.839545
vt 0.278464 0.853464
vt 0.267801 0.853464
vt 0.267801 0.842349
vt 0.278464 0.842349
vt 0.292976 0.853464
vt 0.282778 0.853464
vt 0.282778 0.842349
vt 0.292976 0.842349
vt 0.329527 0.839792
vt 0.329527 0.826057
vt 0.340642 0.826057
vt 0.340642 0.839792
vt 0.308227 0.853586
vt 0.297756 0.853586
vt 0.297756 0.842471
vt 0.308227 0.842471
vt 0.235889 0.839548
vt 0.235889 0.826057
vt 0.247003 0.826057
vt 0.247003 0.839548
vt 0.266691 0.839560
vt 0.266691 0.826057
vt 0.277806 0.826057
vt 0.277806 0.839560
vt 0.160234 0.853810
vt 0.160234 0.842079
vt 0.171349 0.842079
vt 0.171349 0.853810
vt 0.174284 0.839290
vt 0.174284 0.826057
vt 0.185399 0.826057
vt 0.185399 0.839290
vt 0.176573 0.853810
vt 0.176573 0.842079
vt 0.187688 0.842079
vt 0.187688 0.853810
vt 0.715485 0.406028
vt 0.714672 0.436269
vt 0.755988 0.400532
vt 0.756194 0.387880
vt 0.755988 0.400532
vt 0.719208 0.402080
vt 0.719250 0.387954
vt 0.756194 0.387880
vt 0.755988 0.400532
vt 0.719208 0.402080
vt 0.714672 0.436269
vt 0.715485 0.406028
vt 0.714672 0.436269
vt 0.730219 0.437061
vt 0.714672 0.436269
vt 0.729235 0.405347
vt 0.715485 0.406028
vt 0.729235 0.405347
vt 0.730219 0.437061
vt 0.730219 0.437061
vt 0.714672 0.436269
vt 0.715485 0.406028
vt 0.715485 0.406028
vt 0.729235 0.405347
vt 0.730219 0.437061
vt 0.714672 0.436269
vt 0.729235 0.405347
vt 0.714672 0.436269
vt 0.730219 0.437061
vt 0.719208 0.402080
vt 0.755988 0.400532
vt 0.756194 0.387880
vt 0.719250 0.387954
vt 0.719208 0.402080
vt 0.755988 0.400532
vt 0.719208 0.402080
vt 0.719250 0.387954
vt 0.719208 0.402080
vt 0.719250 0.387954
vt 0.756194 0.387880
vt 0.755988 0.400532
vt 0.756194 0.387880
vt 0.719208 0.402080
vt 0.719250 0.387954
vt 0.756194 0.387880
vt 0.755988 0.400532
vt 0.719208 0.402080
vt 0.719250 0.387954
vt 0.719208 0.402080
vt 0.719208 0.402080
vt 0.719250 0.387954
vt 0.756194 0.387880
vt 0.755988 0.400532
vt 0.756194 0.387880
vt 0.719250 0.387954
vt 0.839608 0.567154
vt 0.788237 0.572418
vt 0.839608 0.621903
vt 0.788237 0.627167
vt 0.839608 0.678826
vt 0.788237 0.684090
vt 0.518689 0.496400
vt 0.532680 0.496400
vt 0.532680 0.538661
vt 0.518689 0.538661
vt 0.507843 0.496400
vt 0.514402 0.496400
vt 0.514402 0.538661
vt 0.507843 0.538661
vt 0.261378 0.740986
vt 0.306493 0.740986
vt 0.261378 0.809648
vt 0.261378 0.792482
vt 0.261378 0.783900
vt 0.261378 0.775317
vt 0.261378 0.758151
vt 0.306493 0.758151
vt 0.306493 0.775317
vt 0.306493 0.783900
vt 0.306493 0.792482
vt 0.306493 0.809648
vt 0.275369 0.816709
vt 0.292502 0.816709
vt 0.279051 0.823269
vt 0.288820 0.823269
vt 0.550957 0.502959
vt 0.554639 0.496400
vt 0.564408 0.496400
vt 0.568090 0.502959
vt 0.536966 0.510020
vt 0.582080 0.510020
vt 0.536966 0.578682
vt 0.536966 0.561517
vt 0.536966 0.544351
vt 0.536966 0.535768
vt 0.536966 0.527185
vt 0.582080 0.527185
vt 0.582080 0.535768
vt 0.582080 0.544351
vt 0.582080 0.561517
vt 0.582080 0.578682
vt 0.544084 0.586674
vt 0.574962 0.586674
vt 0.783951 0.572418
vt 0.732581 0.567154
vt 0.783951 0.627167
vt 0.732581 0.621903
vt 0.783951 0.684090
vt 0.732581 0.678826
vt 0.804323 0.387055
vt 0.804323 0.395046
vt 0.762062 0.395046
vt 0.489502 0.496400
vt 0.489502 0.538661
vt 0.475511 0.538661
vt 0.475511 0.496400
vt 0.464665 0.538661
vt 0.464665 0.496400
vt 0.471225 0.496400
vt 0.471225 0.538661
vt 0.719208 0.402080
vt 0.719208 0.402080
vn 0.1710 -0.0529 0.9839
vn -0.4407 0.0232 0.8974
vn -0.9875 0.1148 0.1077
vn -0.8482 0.1205 -0.5159
vn -0.0537 -0.9975 0.0457
vn 0.5385 -0.0800 0.8388
vn -0.7644 0.0699 0.6410
vn -0.1310 0.0544 0.9899
vn 0.7650 -0.0706 -0.6401
vn 0.0568 0.9975 -0.0421
vn -0.6418 -0.0006 -0.7669
vn 0.6423 0.0105 0.7664
vn -0.0576 -0.9975 0.0412
vn -0.7650 0.0706 0.6402
vn 0.7650 -0.0705 -0.6402
vn 0.0707 0.9972 -0.0255
vn 0.6418 0.0006 0.7669
vn -0.0544 -0.9975 0.0450
vn -0.0378 -0.9972 0.0647
vn -0.6420 -0.0047 -0.7667
vn 0.0532 0.9975 -0.0464
vn 0.6409 -0.0154 0.7675
vn 0.0471 0.9974 -0.0537
vn -0.0322 -0.9969 0.0714
vn 0.0537 0.9975 -0.0458
vn 0.9288 -0.1228 0.3497
vn 0.9565 -0.1056 -0.2719
vn 0.2862 -0.0027 -0.9582
vn -0.3477 0.0743 -0.9346
vn 0.7212 -0.0969 0.6859
vn -0.6391 0.0396 -0.7681
vn 0.7656 -0.0713 -0.6394
vn 0.7650 -0.0706 -0.6402
vn 0.8040 -0.2018 -0.5594
vn 0.8166 0.0732 -0.5726
vn 0.6922 -0.1990 -0.6938
vn 0.7648 -0.0707 -0.6404
vn 0.7651 -0.0708 -0.6401
vn 0.7667 -0.1150 -0.6316
vn 0.7932 -0.0705 -0.6048
vn 0.7675 -0.1147 -0.6307
vn 0.7651 -0.0704 -0.6401
vn 0.7933 -0.0706 -0.6047
vn 0.7637 -0.1154 -0.6352
vn 0.7647 -0.0706 -0.6405
vn 0.7930 -0.0696 -0.6052
vn 0.7643 -0.1154 -0.6345
vn 0.7650 -0.0707 -0.6401
vn 0.7933 -0.0707 -0.6048
vn 0.7460 -0.1079 -0.6572
vn -0.7650 0.0707 0.6401
vn -0.7650 0.0705 0.6401
vn -0.7650 0.0706 0.6401
vn -0.7825 0.0334 0.6218
vn -0.7650 0.0703 0.6401
vn -0.7650 0.0704 0.6402
vn -0.7650 -0.0684 0.6403
vn -0.7512 0.2014 0.6286
vn -0.7091 0.1829 0.6810
vn -0.8749 0.0891 0.4760
vn -0.9672 0.1083 0.2299
vn -0.9729 0.1099 0.2033
vn -0.9928 0.1183 0.0189
vn -0.4890 0.0299 0.8718
vn -0.5914 0.0443 0.8052
vn -0.6086 0.0468 0.7921
vn -0.7693 0.0712 0.6350
vn -0.8542 0.0222 -0.5195
vn -0.9753 0.0426 -0.2166
vn -0.8578 0.0227 -0.5135
vn -0.9812 0.0612 0.1829
vn 0.0584 0.9975 -0.0396
vn 0.1529 0.9855 0.0740
vn 0.0536 0.9975 -0.0457
vn 0.0533 0.9976 -0.0453
vn 0.0240 0.9965 -0.0802
vn 0.0244 0.9965 -0.0797
vn 0.0242 0.9965 -0.0800
vn 0.0242 0.9965 -0.0799
vn 0.0537 0.9975 -0.0457
vn 0.0533 0.9975 -0.0454
vn -0.0540 -0.9975 0.0460
vn -0.0540 -0.9975 0.0459
vn 0.6249 -0.0492 -0.7791
vn 0.3769 -0.0146 -0.9262
vn 0.4016 -0.0179 -0.9156
vn 0.2005 0.0082 -0.9797
vn 0.9404 -0.1020 -0.3244
vn 0.8846 -0.0909 -0.4575
vn 0.8942 -0.0927 -0.4380
vn 0.7607 -0.0699 -0.6454
vn 0.9977 -0.0497 0.0453
vn 0.9927 0.1144 0.0372
vn 0.9773 -0.2054 0.0522
vn -0.2339 -0.1899 -0.9535
vn -0.2162 0.1342 -0.9671
vn -0.0414 -0.0435 -0.9982
vn 0.3529 -0.0618 -0.9336
vn -0.7648 0.0706 0.6404
vn -0.7648 0.0705 0.6405
usemtl initialShadingGroup.003
s off
f 1/1/1 2/2/1 3/3/1 4/4/1
f 4/5/2 3/6/2 5/7/2 6/8/2
f 7/9/3 8/10/3 9/11/3 10/12/3
f 10/13/4 9/14/4 11/15/4 12/16/4 13/17/4
f 14/18/5 1/19/5 4/20/5 6/21/5 15/22/5 16/23/5 17/24/5 7/25/5 10/26/5 13/27/5 18/28/5 19/29/5 20/30/5 21/31/5 22/32/5 23/33/5 24/34/5 25/35/5 26/36/5 27/37/5
f 28/38/6 2/2/6 1/1/6 14/39/6
f 11/40/7 29/41/7 30/42/7 12/43/7
f 29/41/8 31/44/8 32/45/8 33/46/8 30/42/8
f 34/47/9 35/48/9 36/49/9 37/50/9
f 29/51/10 11/52/10 38/53/10 39/54/10 40/55/10
f 41/56/11 42/57/11 43/58/11 44/59/11
f 45/60/12 30/61/12 33/62/12 46/63/12 47/64/12
f 48/65/13 12/66/13 30/67/13 45/68/13 47/69/13 49/70/13
f 50/71/14 51/72/14 52/73/14 53/74/14
f 54/75/14 55/76/14 56/77/14 57/78/14
f 58/79/14 59/80/14 60/81/14 61/82/14
f 62/83/15 63/84/15 64/85/15 65/86/15
f 66/87/11 50/88/11 53/89/11 67/90/11
f 67/91/16 53/92/16 52/93/16 68/94/16
f 68/95/17 52/96/17 51/97/17 69/98/17
f 69/99/18 51/100/18 50/101/18 66/102/18
f 70/103/19 54/104/19 57/105/19 71/106/19
f 71/107/20 57/108/20 56/109/20 72/110/20
f 72/111/21 56/112/21 55/113/21 73/114/21
f 73/115/22 55/116/22 54/117/22 70/118/22
f 74/119/11 58/120/11 61/121/11 75/122/11
f 75/123/23 61/124/23 60/125/23 76/126/23
f 76/127/17 60/128/17 59/129/17 77/130/17
f 77/131/24 59/132/24 58/133/24 74/134/24
f 28/135/25 78/136/25 79/137/25 80/138/25 81/139/25 82/140/25 83/141/25 84/142/25 85/143/25 39/54/25 38/53/25 11/52/25 9/144/25 8/145/25 86/146/25 87/147/25 88/148/25 5/149/25 3/150/25 2/151/25
f 27/152/26 26/153/26 79/154/26 78/155/26
f 26/156/27 25/157/27 80/158/27 79/159/27
f 21/160/28 20/161/28 85/162/28 84/163/28
f 20/164/29 19/165/29 49/166/29 39/167/29 85/168/29
f 28/38/30 14/39/30 27/152/30 78/155/30
f 48/169/31 49/166/31 19/165/31 18/170/31 13/17/31 12/16/31
f 39/171/32 49/172/32 47/173/32 40/174/32
f 89/175/33 37/176/33 36/177/33 90/178/33
f 36/49/33 35/48/33 91/179/33 92/180/33
f 93/181/33 94/182/33 65/183/33 95/184/33
f 96/185/33 97/186/33 98/187/33 99/188/33
f 100/189/33 101/190/33 102/191/33 103/192/33
f 104/193/33 105/194/33 106/195/33 107/196/33
f 92/197/11 108/198/11 97/199/11 96/200/11
f 108/201/16 90/202/16 98/203/16 97/204/16
f 90/205/17 36/206/17 99/207/17 98/208/17
f 36/209/18 92/210/18 96/211/18 99/212/18
f 62/213/19 65/214/19 101/215/19 100/216/19
f 65/217/20 94/218/20 102/219/20 101/220/20
f 94/221/21 109/222/21 103/223/21 102/224/21
f 109/225/22 62/226/22 100/227/22 103/228/22
f 37/229/11 89/230/11 105/231/11 104/232/11
f 89/233/23 93/234/23 106/235/23 105/236/23
f 93/237/17 95/238/17 107/239/17 106/240/17
f 95/241/24 37/242/24 104/243/24 107/244/24
f 110/245/34 108/246/33 92/180/33 91/179/35
f 68/247/14 69/248/14 74/249/14 75/250/14
f 76/251/14 77/252/14 71/253/14 72/254/14
f 62/255/33 109/256/33 111/257/36 63/258/33
f 65/259/37 64/85/37 112/260/37 95/261/37
f 34/262/38 37/50/38 95/184/38 112/263/38
f 108/264/33 110/265/33 113/266/39 90/178/33
f 90/267/33 113/268/40 114/269/41 89/270/33
f 89/270/42 114/269/43 115/271/44 93/181/42
f 93/181/45 115/272/46 116/273/47 94/182/45
f 94/182/48 116/273/49 111/257/50 109/256/48
f 74/274/51 117/275/51 118/276/51 77/277/51
f 71/278/52 119/279/52 32/280/52 70/281/52
f 70/282/14 32/283/14 31/284/14 73/285/14
f 72/286/53 73/285/53 31/287/54 120/288/53
f 75/289/55 76/290/55 121/291/55 122/292/55
f 68/247/56 75/289/56 122/292/56 123/293/56
f 66/294/14 67/295/14 124/296/57 125/297/58
f 66/294/14 125/297/59 126/298/14 69/299/14
s 1
f 6/8/60 5/7/60 88/300/61 15/301/62
f 15/301/62 88/300/61 87/302/63 16/303/63
f 16/303/64 87/302/64 86/304/65 17/305/66
f 17/305/66 86/304/65 8/10/67 7/9/67
f 124/306/68 127/307/69 128/308/69 125/309/70
f 127/310/69 42/311/71 41/312/71 128/313/69
f 31/314/72 29/51/73 40/55/73 111/315/72
f 124/316/74 123/317/75 122/318/75 121/319/75 120/320/75 31/314/72 111/315/72 116/321/76 115/322/77 114/323/78 113/324/79 110/325/74
f 127/326/80 124/316/81 110/325/81 129/327/80
f 42/328/25 127/326/80 129/327/80 43/329/25
f 128/330/5 41/331/5 44/332/5 130/333/5
f 125/334/82 128/330/5 130/333/5 91/335/82
f 32/336/83 119/337/83 118/338/83 117/339/83 126/340/83 125/334/83 91/335/83 35/341/83 34/342/83 112/343/83 64/344/83 63/345/83
f 33/346/5 32/336/82 63/345/82 46/347/5
f 25/157/84 24/348/85 81/349/86 80/158/84
f 24/348/85 23/350/87 82/351/87 81/349/86
f 23/350/88 22/352/89 83/353/90 82/351/88
f 22/352/89 21/160/91 84/163/91 83/353/90
f 40/174/92 47/173/92 46/354/92 63/355/93 111/356/94
f 110/357/95 91/358/96 130/359/97 129/360/97
f 129/361/97 130/362/97 44/363/98 43/364/98
f 117/275/53 74/274/53 69/299/53 126/298/53
f 119/279/99 71/278/99 77/277/99 118/276/99
f 120/288/100 121/291/100 76/290/100 72/286/100
f 123/293/52 124/365/52 67/366/52 68/247/52
