# Blender v2.79 (sub 6) OBJ File: 'bailarinaacortados.blend1'
# www.blender.org
mtllib guitarra2_000209.mtl
o g2_pPlane4.001
v -3.060805 18.424263 2.648566
v -3.657344 18.321320 3.370861
v -2.816077 17.797897 3.916258
v -2.219539 17.900837 3.193962
v -2.355135 16.899872 4.045250
v -1.758597 17.002815 3.322955
v -1.659898 13.493041 2.428762
v -2.256435 13.390098 3.151058
v -2.503865 12.695922 2.754984
v -1.907326 12.798865 2.032690
v -3.385096 12.253705 1.906016
v -3.014826 12.299474 1.457314
v -2.790180 12.352206 1.183591
v -3.979382 18.541702 1.926877
v -1.758375 16.111629 3.075508
v -2.217455 15.113767 2.421246
v -1.753867 14.108989 2.522744
v -3.007987 12.389823 1.015181
v -3.211601 12.337554 0.833452
v -4.225099 12.718274 0.106969
v -4.687851 13.387755 -0.087013
v -4.788363 14.003472 0.001533
v -4.645418 15.029342 0.403969
v -5.412894 15.984557 0.039151
v -5.692575 16.866020 0.054408
v -5.518721 17.786121 0.452840
v -4.851037 18.362015 1.161153
v -4.572385 18.416367 2.645853
v -2.716405 7.951499 1.287281
v -2.361150 8.071707 0.854668
v -2.606506 7.809457 1.368072
v -2.127945 7.971388 0.785305
v -2.250335 8.110452 0.723442
v -2.644271 7.212428 0.149713
v -2.615961 7.030839 0.123206
v -2.791909 7.016068 0.335593
v -2.816662 7.176118 0.358688
v -3.596920 12.246339 1.730020
v -3.808747 12.238973 1.554025
v -3.145991 7.936563 0.930359
v -2.144187 6.495111 0.361761
v -2.622748 6.333180 0.944529
v -2.759827 6.328414 0.830636
v -2.281267 6.490345 0.247870
v -2.578048 8.063525 0.678771
v -2.683622 8.095387 0.363444
v -2.790735 8.056768 0.497748
v -3.233800 12.319751 1.289901
v -3.437361 12.284781 1.106249
v -1.972975 6.853259 0.963108
v -2.002888 7.043504 0.991149
v -2.155620 6.991821 1.177139
v -2.128775 6.800541 1.152834
v -2.117793 7.750461 1.099860
v -2.271170 7.702636 1.286466
v -2.241579 7.515891 1.258666
v -2.086211 7.569527 1.069420
v -2.027642 7.203553 1.014247
v -2.065127 7.411288 1.050669
v -2.214976 7.360586 1.233146
v -2.180554 7.151812 1.200454
v -2.906812 7.723026 0.444302
v -2.760999 7.949376 0.259330
v -2.711637 7.636194 0.213018
v -2.875229 7.542090 0.413862
v -2.128940 6.847836 0.833524
v -2.284740 6.795117 1.023251
v -2.311585 6.986399 1.047555
v -2.158853 7.038078 0.861566
v -2.273757 7.745039 0.970277
v -2.242175 7.564103 0.939837
v -2.397544 7.510468 1.129082
v -2.427135 7.697210 1.156881
v -2.183609 7.198131 0.884663
v -2.336519 7.146388 1.070869
v -2.370941 7.355163 1.103563
v -2.221092 7.405866 0.921085
v -5.447576 18.259068 1.883448
v -6.115256 17.683178 1.175136
v -6.289116 16.763081 0.776703
v -6.009434 15.881614 0.761446
v -5.241961 14.926398 1.126266
v -5.384903 13.900533 0.723830
v -5.284389 13.284812 0.635282
v -4.821636 12.615331 0.829265
v -2.350408 14.006045 3.245040
v -2.813993 15.010823 3.143542
v -2.354915 16.008686 3.797803
v -2.969573 7.124375 0.544896
v -2.944640 6.964386 0.521582
v -2.567615 6.724663 0.077831
v -2.761995 6.825825 0.307551
v -3.003996 7.333150 0.577588
v -3.030600 7.488456 0.603109
v -2.854148 7.383854 0.395109
v -2.917959 6.820402 0.177966
v -3.073761 6.767681 0.367693
v -3.100605 6.958962 0.391999
v -2.947873 7.010644 0.206011
v -3.062776 7.717603 0.314719
v -3.031193 7.536668 0.284280
v -3.186564 7.483032 0.473526
v -3.216155 7.669777 0.501325
v -2.972627 7.170693 0.229106
v -3.125538 7.118951 0.415311
v -3.159961 7.327726 0.448005
v -3.010112 7.378430 0.265527
v -2.917795 6.773105 0.497276
v -3.060191 7.675200 0.630908
v -3.046176 6.562731 0.660599
v -3.239562 7.787445 0.842100
v -2.680335 7.447438 0.183376
v -3.094522 6.868910 0.705973
v -3.118696 7.021998 0.728661
v -3.156010 7.265634 0.763481
v -3.181309 7.413026 0.787581
v -2.011117 7.233757 0.675595
v -2.044402 7.449632 0.706696
v -2.072474 7.616133 0.733353
v -2.552451 7.463941 1.317426
v -2.525686 7.306451 1.291975
v -2.494857 7.107504 1.263143
v -2.468809 6.941495 1.238724
v -2.413121 6.584744 1.186572
v -1.934560 6.746675 0.603805
v -1.982907 7.052855 0.649181
v -2.589559 6.451971 1.004793
v -2.110997 6.613904 0.422024
v -2.829966 6.443613 0.805051
v -2.351404 6.605542 0.222283
vt 0.642023 0.677747
vt 0.693394 0.677747
vt 0.693394 0.731514
vt 0.642023 0.731514
vt 0.788237 0.471761
vt 0.839608 0.466497
vt 0.839608 0.517463
vt 0.788237 0.522727
vt 0.788237 0.718616
vt 0.839608 0.713352
vt 0.839608 0.751579
vt 0.788237 0.756842
vt 0.637737 0.661574
vt 0.586367 0.661574
vt 0.586468 0.594083
vt 0.618160 0.594043
vt 0.637737 0.594003
vt 0.568646 0.493611
vt 0.504856 0.485282
vt 0.451089 0.454466
vt 0.428470 0.403500
vt 0.438427 0.353809
vt 0.482132 0.299060
vt 0.460520 0.242136
vt 0.460753 0.207610
vt 0.486059 0.169384
vt 0.553630 0.146191
vt 0.568646 0.148710
vt 0.583662 0.146191
vt 0.651234 0.169384
vt 0.676539 0.207610
vt 0.676772 0.242136
vt 0.655160 0.299060
vt 0.698865 0.353809
vt 0.708823 0.403500
vt 0.686203 0.454466
vt 0.632436 0.485282
vt 0.693394 0.613957
vt 0.642023 0.613957
vt 0.754283 0.146190
vt 0.755425 0.387151
vt 0.724052 0.387151
vt 0.722590 0.150432
vt 0.756667 0.395046
vt 0.714406 0.395046
vt 0.714406 0.387055
vt 0.715485 0.406028
vt 0.715485 0.406028
vt 0.714672 0.436269
vt 0.715485 0.406028
vt 0.268628 0.733091
vt 0.268840 0.492130
vt 0.283935 0.492130
vt 0.299031 0.492130
vt 0.299242 0.733091
vt 0.493788 0.538661
vt 0.493788 0.496400
vt 0.503557 0.496400
vt 0.503557 0.538661
vt 0.460379 0.511839
vt 0.460193 0.527146
vt 0.450547 0.527278
vt 0.450547 0.496400
vt 0.460193 0.496531
vt 0.712987 0.734728
vt 0.697931 0.733119
vt 0.697680 0.496400
vt 0.712987 0.496400
vt 0.728294 0.496400
vt 0.728043 0.733119
vt 0.431485 0.839581
vt 0.420822 0.839592
vt 0.420822 0.826104
vt 0.431485 0.826116
vt 0.375304 0.839548
vt 0.375087 0.826057
vt 0.385559 0.826066
vt 0.385502 0.839800
vt 0.325241 0.839682
vt 0.313510 0.839290
vt 0.313510 0.826057
vt 0.325241 0.826179
vt 0.715485 0.406028
vt 0.714672 0.436269
vt 0.730219 0.437061
vt 0.729235 0.405347
vt 0.416361 0.839815
vt 0.405246 0.839815
vt 0.405246 0.826057
vt 0.416361 0.826057
vt 0.203576 0.842333
vt 0.203576 0.853448
vt 0.192913 0.853448
vt 0.192913 0.842333
vt 0.231602 0.839545
vt 0.220488 0.839545
vt 0.220488 0.826057
vt 0.231602 0.826057
vt 0.218554 0.842333
vt 0.218554 0.853448
vt 0.207890 0.853448
vt 0.207890 0.842333
vt 0.233066 0.842336
vt 0.233066 0.853451
vt 0.222868 0.853451
vt 0.222868 0.842336
vt 0.356043 0.839792
vt 0.344928 0.839792
vt 0.344928 0.826057
vt 0.356043 0.826057
vt 0.248317 0.842336
vt 0.248317 0.853451
vt 0.237845 0.853451
vt 0.237845 0.842336
vt 0.262405 0.839548
vt 0.251290 0.839548
vt 0.251290 0.826057
vt 0.262405 0.826057
vt 0.293207 0.839560
vt 0.282092 0.839560
vt 0.282092 0.826057
vt 0.293207 0.826057
vt 0.169998 0.837788
vt 0.158883 0.837788
vt 0.158883 0.826057
vt 0.169998 0.826057
vt 0.200800 0.839290
vt 0.189686 0.839290
vt 0.189686 0.826057
vt 0.200800 0.826057
vt 0.154874 0.837788
vt 0.143759 0.837788
vt 0.143759 0.826057
vt 0.154874 0.826057
vt 0.283935 0.146190
vt 0.347725 0.153264
vt 0.401493 0.184080
vt 0.424112 0.235046
vt 0.414154 0.284737
vt 0.370449 0.339486
vt 0.392061 0.396410
vt 0.391828 0.430936
vt 0.366523 0.469162
vt 0.201348 0.469162
vt 0.176043 0.430936
vt 0.175810 0.396410
vt 0.197422 0.339486
vt 0.153717 0.284737
vt 0.143759 0.235046
vt 0.166378 0.184080
vt 0.220145 0.153264
vt 0.642023 0.550167
vt 0.642023 0.496400
vt 0.693394 0.496400
vt 0.693394 0.550167
vt 0.783951 0.471761
vt 0.783951 0.522727
vt 0.732581 0.517463
vt 0.732581 0.466497
vt 0.783951 0.718616
vt 0.783951 0.756842
vt 0.732581 0.751579
vt 0.732581 0.713352
vt 0.637737 0.496400
vt 0.637737 0.563971
vt 0.618160 0.563931
vt 0.586468 0.563891
vt 0.586367 0.496400
vt 0.617880 0.578987
vt 0.637737 0.578987
vt 0.764446 0.146190
vt 0.796139 0.150432
vt 0.794677 0.387151
vt 0.763305 0.387151
vt 0.730219 0.437061
vt 0.729235 0.405347
vt 0.715485 0.406028
vt 0.714672 0.436269
vt 0.729235 0.405347
vt 0.730219 0.437061
vt 0.715485 0.406028
vt 0.729235 0.405347
vt 0.730219 0.437061
vt 0.714672 0.436269
vt 0.431311 0.826068
vt 0.431311 0.839826
vt 0.420647 0.839545
vt 0.420647 0.826057
vt 0.360546 0.826310
vt 0.370744 0.826057
vt 0.370801 0.839792
vt 0.360329 0.839800
vt 0.309224 0.826057
vt 0.309224 0.839560
vt 0.297493 0.839682
vt 0.297493 0.826449
vt 0.389845 0.839815
vt 0.389845 0.826057
vt 0.400960 0.826057
vt 0.400960 0.839815
vt 0.263487 0.853451
vt 0.252823 0.853451
vt 0.252823 0.842336
vt 0.263487 0.842336
vt 0.205087 0.839545
vt 0.205087 0.826057
vt 0.216201 0.826057
vt 0.216201 0.839545
vt 0.278464 0.853464
vt 0.267801 0.853464
vt 0.267801 0.842349
vt 0.278464 0.842349
vt 0.292976 0.853464
vt 0.282778 0.853464
vt 0.282778 0.842349
vt 0.292976 0.842349
vt 0.329527 0.839792
vt 0.329527 0.826057
vt 0.340642 0.826057
vt 0.340642 0.839792
vt 0.308227 0.853586
vt 0.297756 0.853586
vt 0.297756 0.842471
vt 0.308227 0.842471
vt 0.235889 0.839548
vt 0.235889 0.826057
vt 0.247003 0.826057
vt 0.247003 0.839548
vt 0.266691 0.839560
vt 0.266691 0.826057
vt 0.277806 0.826057
vt 0.277806 0.839560
vt 0.160234 0.853810
vt 0.160234 0.842079
vt 0.171349 0.842079
vt 0.171349 0.853810
vt 0.174284 0.839290
vt 0.174284 0.826057
vt 0.185399 0.826057
vt 0.185399 0.839290
vt 0.176573 0.853810
vt 0.176573 0.842079
vt 0.187688 0.842079
vt 0.187688 0.853810
vt 0.715485 0.406028
vt 0.714672 0.436269
vt 0.755988 0.400532
vt 0.756194 0.387880
vt 0.755988 0.400532
vt 0.719208 0.402080
vt 0.719250 0.387954
vt 0.756194 0.387880
vt 0.755988 0.400532
vt 0.719208 0.402080
vt 0.714672 0.436269
vt 0.715485 0.406028
vt 0.714672 0.436269
vt 0.730219 0.437061
vt 0.714672 0.436269
vt 0.729235 0.405347
vt 0.715485 0.406028
vt 0.729235 0.405347
vt 0.730219 0.437061
vt 0.730219 0.437061
vt 0.714672 0.436269
vt 0.715485 0.406028
vt 0.715485 0.406028
vt 0.729235 0.405347
vt 0.730219 0.437061
vt 0.714672 0.436269
vt 0.729235 0.405347
vt 0.714672 0.436269
vt 0.730219 0.437061
vt 0.719208 0.402080
vt 0.755988 0.400532
vt 0.756194 0.387880
vt 0.719250 0.387954
vt 0.719208 0.402080
vt 0.755988 0.400532
vt 0.719208 0.402080
vt 0.719250 0.387954
vt 0.719208 0.402080
vt 0.719250 0.387954
vt 0.756194 0.387880
vt 0.755988 0.400532
vt 0.756194 0.387880
vt 0.719208 0.402080
vt 0.719250 0.387954
vt 0.756194 0.387880
vt 0.755988 0.400532
vt 0.719208 0.402080
vt 0.719250 0.387954
vt 0.719208 0.402080
vt 0.719208 0.402080
vt 0.719250 0.387954
vt 0.756194 0.387880
vt 0.755988 0.400532
vt 0.756194 0.387880
vt 0.719250 0.387954
vt 0.839608 0.567154
vt 0.788237 0.572418
vt 0.839608 0.621903
vt 0.788237 0.627167
vt 0.839608 0.678826
vt 0.788237 0.684090
vt 0.518689 0.496400
vt 0.532680 0.496400
vt 0.532680 0.538661
vt 0.518689 0.538661
vt 0.507843 0.496400
vt 0.514402 0.496400
vt 0.514402 0.538661
vt 0.507843 0.538661
vt 0.261378 0.740986
vt 0.306493 0.740986
vt 0.261378 0.809648
vt 0.261378 0.792482
vt 0.261378 0.783900
vt 0.261378 0.775317
vt 0.261378 0.758151
vt 0.306493 0.758151
vt 0.306493 0.775317
vt 0.306493 0.783900
vt 0.306493 0.792482
vt 0.306493 0.809648
vt 0.275369 0.816709
vt 0.292502 0.816709
vt 0.279051 0.823269
vt 0.288820 0.823269
vt 0.550957 0.502959
vt 0.554639 0.496400
vt 0.564408 0.496400
vt 0.568090 0.502959
vt 0.536966 0.510020
vt 0.582080 0.510020
vt 0.536966 0.578682
vt 0.536966 0.561517
vt 0.536966 0.544351
vt 0.536966 0.535768
vt 0.536966 0.527185
vt 0.582080 0.527185
vt 0.582080 0.535768
vt 0.582080 0.544351
vt 0.582080 0.561517
vt 0.582080 0.578682
vt 0.544084 0.586674
vt 0.574962 0.586674
vt 0.783951 0.572418
vt 0.732581 0.567154
vt 0.783951 0.627167
vt 0.732581 0.621903
vt 0.783951 0.684090
vt 0.732581 0.678826
vt 0.804323 0.387055
vt 0.804323 0.395046
vt 0.762062 0.395046
vt 0.489502 0.496400
vt 0.489502 0.538661
vt 0.475511 0.538661
vt 0.475511 0.496400
vt 0.464665 0.538661
vt 0.464665 0.496400
vt 0.471225 0.496400
vt 0.471225 0.538661
vt 0.719208 0.402080
vt 0.719208 0.402080
vn 0.3024 0.8765 0.3747
vn 0.6654 0.4293 0.6107
vn 0.6901 -0.5282 0.4947
vn 0.3356 -0.9305 0.1470
vn 0.6205 0.2100 -0.7556
vn -0.0054 0.9884 0.1521
vn 0.7692 0.0278 0.6384
vn 0.4618 0.6791 0.5705
vn -0.7689 -0.0267 -0.6389
vn -0.6212 -0.2053 0.7563
vn 0.1543 -0.9773 -0.1448
vn -0.1605 0.9752 0.1523
vn 0.6214 0.2041 -0.7564
vn 0.7689 0.0267 0.6388
vn -0.7689 -0.0267 -0.6388
vn -0.6243 -0.1841 0.7592
vn -0.1543 0.9773 0.1448
vn 0.6206 0.2090 -0.7557
vn 0.6165 0.2341 -0.7518
vn 0.1569 -0.9765 -0.1480
vn -0.6204 -0.2108 0.7555
vn -0.1443 0.9806 0.1327
vn -0.6188 -0.2201 0.7540
vn 0.6150 0.2425 -0.7503
vn -0.6205 -0.2101 0.7556
vn -0.4593 0.8500 -0.2582
vn -0.7390 0.3804 -0.5561
vn -0.5901 -0.5727 -0.5690
vn -0.1674 -0.9480 -0.2709
vn -0.1890 0.9820 -0.0005
vn 0.1292 -0.9850 -0.1143
vn -0.7686 -0.0256 -0.6392
vn -0.6903 0.0864 -0.7183
vn -0.8601 0.0267 -0.5095
vn -0.6655 -0.0851 -0.7416
vn -0.7688 -0.0269 -0.6390
vn -0.7688 -0.0266 -0.6390
vn -0.7416 -0.0098 -0.6707
vn -0.7751 0.0175 -0.6316
vn -0.7420 -0.0088 -0.6704
vn -0.7690 -0.0266 -0.6387
vn -0.7750 0.0176 -0.6317
vn -0.7406 -0.0144 -0.6717
vn -0.7688 -0.0271 -0.6389
vn -0.7756 0.0169 -0.6310
vn -0.7408 -0.0134 -0.6716
vn -0.7688 -0.0266 -0.6389
vn -0.7749 0.0176 -0.6318
vn -0.7410 -0.0435 -0.6701
vn 0.7688 0.0266 0.6389
vn 0.7688 0.0267 0.6389
vn 0.7951 0.0097 0.6064
vn 0.7691 0.0267 0.6386
vn 0.7690 0.0267 0.6387
vn 0.8475 0.0556 0.5279
vn 0.6804 -0.0012 0.7328
vn 0.6816 0.0685 0.7285
vn 0.7716 -0.1700 0.6130
vn 0.7283 -0.4200 0.5416
vn 0.7208 -0.4443 0.5320
vn 0.6562 -0.6010 0.4563
vn 0.6862 0.3793 0.6207
vn 0.7250 0.2636 0.6363
vn 0.7307 0.2427 0.6381
vn 0.7695 0.0200 0.6384
vn 0.3940 -0.9165 0.0689
vn 0.5916 -0.7578 0.2752
vn 0.3987 -0.9141 0.0734
vn 0.7460 -0.4551 0.4862
vn -0.6214 -0.2024 0.7569
vn -0.6369 -0.0554 0.7689
vn -0.6213 -0.2024 0.7569
vn -0.6204 -0.2100 0.7557
vn -0.6200 -0.2099 0.7560
vn -0.6123 -0.2542 0.7486
vn -0.6125 -0.2536 0.7487
vn -0.6124 -0.2539 0.7487
vn -0.6124 -0.2538 0.7487
vn -0.6205 -0.2099 0.7556
vn -0.6200 -0.2100 0.7560
vn -0.6205 -0.2100 0.7556
vn 0.6205 0.2099 -0.7556
vn 0.6207 0.2100 -0.7554
vn -0.7359 -0.2224 -0.6395
vn -0.6358 -0.4914 -0.5952
vn -0.6476 -0.4679 -0.6015
vn -0.5432 -0.6427 -0.5402
vn -0.7505 0.3293 -0.5729
vn -0.7701 0.1905 -0.6088
vn -0.7682 0.2117 -0.6043
vn -0.7683 -0.0335 -0.6393
vn -0.6726 0.6397 -0.3720
vn -0.7650 0.5964 -0.2431
vn -0.5672 0.6650 -0.4858
vn -0.1077 -0.8401 -0.5316
vn -0.3090 -0.9072 -0.2855
vn -0.3471 -0.7904 -0.5047
vn -0.5949 -0.5017 -0.6280
vn 0.7689 0.0267 0.6389
vn 0.7688 0.0270 0.6389
vn 0.7689 0.0271 0.6388
usemtl initialShadingGroup.003
s off
f 1/1/1 2/2/1 3/3/1 4/4/1
f 4/5/2 3/6/2 5/7/2 6/8/2
f 7/9/3 8/10/3 9/11/3 10/12/3
f 10/13/4 9/14/4 11/15/4 12/16/4 13/17/4
f 14/18/5 1/19/5 4/20/5 6/21/5 15/22/5 16/23/5 17/24/5 7/25/5 10/26/5 13/27/5 18/28/5 19/29/5 20/30/5 21/31/5 22/32/5 23/33/5 24/34/5 25/35/5 26/36/5 27/37/5
f 28/38/6 2/2/6 1/1/6 14/39/6
f 11/40/7 29/41/7 30/42/7 12/43/7
f 29/41/8 31/44/8 32/45/8 33/46/8 30/42/8
f 34/47/9 35/48/9 36/49/9 37/50/9
f 29/51/10 11/52/10 38/53/10 39/54/10 40/55/10
f 41/56/11 42/57/11 43/58/11 44/59/11
f 45/60/12 30/61/12 33/62/12 46/63/12 47/64/12
f 48/65/13 12/66/13 30/67/13 45/68/13 47/69/13 49/70/13
f 50/71/14 51/72/14 52/73/14 53/74/14
f 54/75/14 55/76/14 56/77/14 57/78/14
f 58/79/14 59/80/14 60/81/14 61/82/14
f 62/83/15 63/84/15 64/85/15 65/86/15
f 66/87/11 50/88/11 53/89/11 67/90/11
f 67/91/16 53/92/16 52/93/16 68/94/16
f 68/95/17 52/96/17 51/97/17 69/98/17
f 69/99/18 51/100/18 50/101/18 66/102/18
f 70/103/19 54/104/19 57/105/19 71/106/19
f 71/107/20 57/108/20 56/109/20 72/110/20
f 72/111/21 56/112/21 55/113/21 73/114/21
f 73/115/22 55/116/22 54/117/22 70/118/22
f 74/119/11 58/120/11 61/121/11 75/122/11
f 75/123/23 61/124/23 60/125/23 76/126/23
f 76/127/17 60/128/17 59/129/17 77/130/17
f 77/131/24 59/132/24 58/133/24 74/134/24
f 28/135/25 78/136/25 79/137/25 80/138/25 81/139/25 82/140/25 83/141/25 84/142/25 85/143/25 39/54/25 38/53/25 11/52/25 9/144/25 8/145/25 86/146/25 87/147/25 88/148/25 5/149/25 3/150/25 2/151/25
f 27/152/26 26/153/26 79/154/26 78/155/26
f 26/156/27 25/157/27 80/158/27 79/159/27
f 21/160/28 20/161/28 85/162/28 84/163/28
f 20/164/29 19/165/29 49/166/29 39/167/29 85/168/29
f 28/38/30 14/39/30 27/152/30 78/155/30
f 48/169/31 49/166/31 19/165/31 18/170/31 13/17/31 12/16/31
f 39/171/32 49/172/32 47/173/32 40/174/32
f 89/175/15 37/176/15 36/177/15 90/178/15
f 36/49/15 35/48/15 91/179/15 92/180/15
f 93/181/15 94/182/15 65/183/15 95/184/15
f 96/185/15 97/186/15 98/187/15 99/188/15
f 100/189/15 101/190/15 102/191/15 103/192/15
f 104/193/15 105/194/15 106/195/15 107/196/15
f 92/197/11 108/198/11 97/199/11 96/200/11
f 108/201/16 90/202/16 98/203/16 97/204/16
f 90/205/17 36/206/17 99/207/17 98/208/17
f 36/209/18 92/210/18 96/211/18 99/212/18
f 62/213/19 65/214/19 101/215/19 100/216/19
f 65/217/20 94/218/20 102/219/20 101/220/20
f 94/221/21 109/222/21 103/223/21 102/224/21
f 109/225/22 62/226/22 100/227/22 103/228/22
f 37/229/11 89/230/11 105/231/11 104/232/11
f 89/233/23 93/234/23 106/235/23 105/236/23
f 93/237/17 95/238/17 107/239/17 106/240/17
f 95/241/24 37/242/24 104/243/24 107/244/24
f 110/245/33 108/246/15 92/180/15 91/179/34
f 68/247/14 69/248/14 74/249/14 75/250/14
f 76/251/14 77/252/14 71/253/14 72/254/14
f 62/255/15 109/256/15 111/257/35 63/258/15
f 65/259/36 64/85/36 112/260/36 95/261/36
f 34/262/37 37/50/37 95/184/37 112/263/37
f 108/264/15 110/265/15 113/266/38 90/178/15
f 90/267/15 113/268/39 114/269/40 89/270/15
f 89/270/41 114/269/42 115/271/43 93/181/41
f 93/181/44 115/272/45 116/273/46 94/182/44
f 94/182/47 116/273/48 111/257/49 109/256/47
f 74/274/50 117/275/50 118/276/50 77/277/50
f 71/278/14 119/279/14 32/280/14 70/281/14
f 70/282/14 32/283/14 31/284/14 73/285/14
f 72/286/51 73/285/51 31/287/52 120/288/51
f 75/289/53 76/290/53 121/291/53 122/292/53
f 68/247/54 75/289/54 122/292/54 123/293/54
f 66/294/14 67/295/14 124/296/55 125/297/56
f 66/294/14 125/297/57 126/298/14 69/299/14
s 1
f 6/8/58 5/7/58 88/300/59 15/301/60
f 15/301/60 88/300/59 87/302/61 16/303/61
f 16/303/62 87/302/62 86/304/63 17/305/64
f 17/305/64 86/304/63 8/10/65 7/9/65
f 124/306/66 127/307/67 128/308/67 125/309/68
f 127/310/67 42/311/69 41/312/69 128/313/67
f 31/314/70 29/51/71 40/55/71 111/315/72
f 124/316/73 123/317/74 122/318/74 121/319/74 120/320/74 31/314/70 111/315/72 116/321/75 115/322/76 114/323/77 113/324/78 110/325/73
f 127/326/79 124/316/80 110/325/80 129/327/79
f 42/328/81 127/326/79 129/327/79 43/329/81
f 128/330/82 41/331/82 44/332/82 130/333/82
f 125/334/83 128/330/82 130/333/82 91/335/83
f 32/336/83 119/337/83 118/338/83 117/339/83 126/340/83 125/334/83 91/335/83 35/341/83 34/342/83 112/343/83 64/344/83 63/345/83
f 33/346/5 32/336/83 63/345/83 46/347/5
f 25/157/84 24/348/85 81/349/86 80/158/84
f 24/348/85 23/350/87 82/351/87 81/349/86
f 23/350/88 22/352/89 83/353/90 82/351/88
f 22/352/89 21/160/91 84/163/91 83/353/90
f 40/174/92 47/173/92 46/354/92 63/355/93 111/356/94
f 110/357/95 91/358/96 130/359/97 129/360/97
f 129/361/97 130/362/97 44/363/98 43/364/98
f 117/275/99 74/274/99 69/299/99 126/298/99
f 119/279/100 71/278/100 77/277/100 118/276/100
f 120/288/101 121/291/101 76/290/101 72/286/101
f 123/293/54 124/365/54 67/366/54 68/247/54
