# Blender v2.79 (sub 6) OBJ File: 'bailarinaacortados.blend1'
# www.blender.org
mtllib guitarra2_000204.mtl
o g2_pPlane4.001
v 16.129473 8.952943 3.141216
v 16.217806 9.741415 3.649816
v 15.615915 9.221601 4.453983
v 15.527584 8.433129 3.945383
v 14.669773 9.013371 4.765437
v 14.581436 8.224899 4.256838
v 11.033516 8.595978 3.622498
v 11.121851 9.384450 4.131098
v 10.443634 9.643602 3.715361
v 10.355299 8.855130 3.206762
v 10.075020 10.311510 2.661372
v 10.002434 9.825731 2.346284
v 9.982626 9.525431 2.152383
v 16.328777 9.577420 2.167197
v 13.682753 8.336406 4.068759
v 12.716938 8.780887 3.358705
v 11.662907 8.584192 3.650476
v 10.039732 9.672277 1.923494
v 10.004951 9.820513 1.691044
v 10.478102 10.478054 0.669441
v 11.193945 10.716179 0.307725
v 11.823679 10.708974 0.328539
v 12.845573 10.480968 0.700752
v 13.876381 10.895335 0.068070
v 14.789867 10.979506 -0.049784
v 15.702381 10.743244 0.333694
v 16.224321 10.206477 1.181406
v 16.394213 10.366239 2.674910
v 5.680933 10.393259 2.505580
v 5.685604 9.910851 2.197246
v 5.531400 10.343302 2.623584
v 5.537694 9.693454 2.208233
v 5.688701 9.761194 2.104535
v 4.817745 10.147631 1.485745
v 4.632220 10.150887 1.478823
v 4.673435 10.380044 1.627392
v 4.836889 10.376911 1.633299
v 10.086243 10.459831 2.429480
v 10.097466 10.608154 2.197589
v 5.703692 10.694057 2.035302
v 4.050455 9.889726 1.878612
v 4.044163 10.539575 2.293966
v 4.051425 10.635558 2.143900
v 4.057720 9.985712 1.728550
v 5.696956 10.064109 1.963934
v 5.711658 10.064586 1.630203
v 5.708365 10.211648 1.726969
v 10.042925 9.977530 2.118896
v 10.024822 10.121596 1.883722
v 4.437182 9.830659 2.483721
v 4.631629 9.827564 2.491151
v 4.629619 10.034964 2.623710
v 4.435133 10.042224 2.618943
v 5.355383 9.820868 2.521896
v 5.357326 10.028254 2.654640
v 5.166387 10.031001 2.647154
v 5.169463 9.819790 2.512208
v 4.795085 9.824432 2.497059
v 5.008931 9.827242 2.509206
v 5.006960 10.030724 2.639262
v 4.793072 10.032074 2.629774
v 5.397187 10.373345 1.658136
v 5.571233 10.136724 1.515210
v 5.251096 10.141666 1.502872
v 5.211266 10.372267 1.648448
v 4.445446 9.939868 2.312981
v 4.443397 10.151433 2.448204
v 4.637884 10.144171 2.452971
v 4.639892 9.936772 2.320412
v 5.363647 9.930076 2.351158
v 5.177726 9.928999 2.341470
v 5.174649 10.140209 2.476417
v 5.365589 10.137462 2.483900
v 4.803346 9.933640 2.326321
v 4.801336 10.141283 2.459034
v 5.015225 10.139932 2.468524
v 5.017194 9.936450 2.338467
v 16.312654 10.994951 1.690007
v 15.790716 11.531715 0.842293
v 14.878202 11.767981 0.458815
v 13.964716 11.683807 0.576668
v 12.933908 11.269444 1.209353
v 11.912018 11.497447 0.837141
v 11.282280 11.504652 0.816325
v 10.566437 11.266527 1.178041
v 11.751242 9.372666 4.159075
v 12.805269 9.569360 3.867306
v 13.771088 9.124879 4.577360
v 4.834876 10.584552 1.766014
v 4.671424 10.587441 1.759951
v 4.319216 10.155608 1.466694
v 4.478989 10.383139 1.619960
v 5.048764 10.583203 1.775504
v 5.208191 10.583481 1.783395
v 5.050736 10.379721 1.645444
v 4.487252 10.492346 1.449222
v 4.485200 10.703912 1.584445
v 4.679688 10.696650 1.589213
v 4.681697 10.489252 1.456654
v 5.405450 10.482553 1.487398
v 5.219531 10.481476 1.477711
v 5.216455 10.692689 1.612658
v 5.407394 10.689941 1.620142
v 4.845151 10.486118 1.462562
v 4.843138 10.693759 1.595275
v 5.057027 10.692410 1.604764
v 5.058999 10.488928 1.474708
v 4.476937 10.594704 1.755183
v 5.399131 10.580733 1.790879
v 4.312922 10.805457 1.882048
v 5.564942 10.786573 1.930565
v 5.057676 10.142692 1.494269
v 4.625926 10.800735 1.894176
v 4.782428 10.798375 1.900241
v 5.031144 10.793166 1.909026
v 5.182440 10.793441 1.916385
v 4.783509 9.704381 2.178745
v 5.003951 9.700045 2.186694
v 5.174709 9.699717 2.194628
v 5.178332 10.349260 2.610273
v 5.016751 10.349303 2.602611
v 4.813549 10.353107 2.595169
v 4.643890 10.355875 2.588716
v 4.279380 10.362185 2.575068
v 4.285676 9.712337 2.159715
v 4.598681 9.707616 2.171845
v 4.161028 10.501596 2.355158
v 4.167324 9.851747 1.939805
v 4.173767 10.669931 2.091980
v 4.180060 10.020082 1.676625
vt 0.642023 0.677747
vt 0.693394 0.677747
vt 0.693394 0.731514
vt 0.642023 0.731514
vt 0.788237 0.471761
vt 0.839608 0.466497
vt 0.839608 0.517463
vt 0.788237 0.522727
vt 0.788237 0.718616
vt 0.839608 0.713352
vt 0.839608 0.751579
vt 0.788237 0.756842
vt 0.637737 0.661574
vt 0.586367 0.661574
vt 0.586468 0.594083
vt 0.618160 0.594043
vt 0.637737 0.594003
vt 0.568646 0.493611
vt 0.504856 0.485282
vt 0.451089 0.454466
vt 0.428470 0.403500
vt 0.438427 0.353809
vt 0.482132 0.299060
vt 0.460520 0.242136
vt 0.460753 0.207610
vt 0.486059 0.169384
vt 0.553630 0.146191
vt 0.568646 0.148710
vt 0.583662 0.146191
vt 0.651234 0.169384
vt 0.676539 0.207610
vt 0.676772 0.242136
vt 0.655160 0.299060
vt 0.698865 0.353809
vt 0.708823 0.403500
vt 0.686203 0.454466
vt 0.632436 0.485282
vt 0.693394 0.613957
vt 0.642023 0.613957
vt 0.754283 0.146190
vt 0.755425 0.387151
vt 0.724052 0.387151
vt 0.722590 0.150432
vt 0.756667 0.395046
vt 0.714406 0.395046
vt 0.714406 0.387055
vt 0.715485 0.406028
vt 0.715485 0.406028
vt 0.714672 0.436269
vt 0.715485 0.406028
vt 0.268628 0.733091
vt 0.268840 0.492130
vt 0.283935 0.492130
vt 0.299031 0.492130
vt 0.299242 0.733091
vt 0.493788 0.538661
vt 0.493788 0.496400
vt 0.503557 0.496400
vt 0.503557 0.538661
vt 0.460379 0.511839
vt 0.460193 0.527146
vt 0.450547 0.527278
vt 0.450547 0.496400
vt 0.460193 0.496531
vt 0.712987 0.734728
vt 0.697931 0.733119
vt 0.697680 0.496400
vt 0.712987 0.496400
vt 0.728294 0.496400
vt 0.728043 0.733119
vt 0.431485 0.839581
vt 0.420822 0.839592
vt 0.420822 0.826104
vt 0.431485 0.826116
vt 0.375304 0.839548
vt 0.375087 0.826057
vt 0.385559 0.826066
vt 0.385502 0.839800
vt 0.325241 0.839682
vt 0.313510 0.839290
vt 0.313510 0.826057
vt 0.325241 0.826179
vt 0.715485 0.406028
vt 0.714672 0.436269
vt 0.730219 0.437061
vt 0.729235 0.405347
vt 0.416361 0.839815
vt 0.405246 0.839815
vt 0.405246 0.826057
vt 0.416361 0.826057
vt 0.203576 0.842333
vt 0.203576 0.853448
vt 0.192913 0.853448
vt 0.192913 0.842333
vt 0.231602 0.839545
vt 0.220488 0.839545
vt 0.220488 0.826057
vt 0.231602 0.826057
vt 0.218554 0.842333
vt 0.218554 0.853448
vt 0.207890 0.853448
vt 0.207890 0.842333
vt 0.233066 0.842336
vt 0.233066 0.853451
vt 0.222868 0.853451
vt 0.222868 0.842336
vt 0.356043 0.839792
vt 0.344928 0.839792
vt 0.344928 0.826057
vt 0.356043 0.826057
vt 0.248317 0.842336
vt 0.248317 0.853451
vt 0.237845 0.853451
vt 0.237845 0.842336
vt 0.262405 0.839548
vt 0.251290 0.839548
vt 0.251290 0.826057
vt 0.262405 0.826057
vt 0.293207 0.839560
vt 0.282092 0.839560
vt 0.282092 0.826057
vt 0.293207 0.826057
vt 0.169998 0.837788
vt 0.158883 0.837788
vt 0.158883 0.826057
vt 0.169998 0.826057
vt 0.200800 0.839290
vt 0.189686 0.839290
vt 0.189686 0.826057
vt 0.200800 0.826057
vt 0.154874 0.837788
vt 0.143759 0.837788
vt 0.143759 0.826057
vt 0.154874 0.826057
vt 0.283935 0.146190
vt 0.347725 0.153264
vt 0.401493 0.184080
vt 0.424112 0.235046
vt 0.414154 0.284737
vt 0.370449 0.339486
vt 0.392061 0.396410
vt 0.391828 0.430936
vt 0.366523 0.469162
vt 0.201348 0.469162
vt 0.176043 0.430936
vt 0.175810 0.396410
vt 0.197422 0.339486
vt 0.153717 0.284737
vt 0.143759 0.235046
vt 0.166378 0.184080
vt 0.220145 0.153264
vt 0.642023 0.550167
vt 0.642023 0.496400
vt 0.693394 0.496400
vt 0.693394 0.550167
vt 0.783951 0.471761
vt 0.783951 0.522727
vt 0.732581 0.517463
vt 0.732581 0.466497
vt 0.783951 0.718616
vt 0.783951 0.756842
vt 0.732581 0.751579
vt 0.732581 0.713352
vt 0.637737 0.496400
vt 0.637737 0.563971
vt 0.618160 0.563931
vt 0.586468 0.563891
vt 0.586367 0.496400
vt 0.617880 0.578987
vt 0.637737 0.578987
vt 0.764446 0.146190
vt 0.796139 0.150432
vt 0.794677 0.387151
vt 0.763305 0.387151
vt 0.730219 0.437061
vt 0.729235 0.405347
vt 0.715485 0.406028
vt 0.714672 0.436269
vt 0.729235 0.405347
vt 0.730219 0.437061
vt 0.715485 0.406028
vt 0.729235 0.405347
vt 0.730219 0.437061
vt 0.714672 0.436269
vt 0.431311 0.826068
vt 0.431311 0.839826
vt 0.420647 0.839545
vt 0.420647 0.826057
vt 0.360546 0.826310
vt 0.370744 0.826057
vt 0.370801 0.839792
vt 0.360329 0.839800
vt 0.309224 0.826057
vt 0.309224 0.839560
vt 0.297493 0.839682
vt 0.297493 0.826449
vt 0.389845 0.839815
vt 0.389845 0.826057
vt 0.400960 0.826057
vt 0.400960 0.839815
vt 0.263487 0.853451
vt 0.252823 0.853451
vt 0.252823 0.842336
vt 0.263487 0.842336
vt 0.205087 0.839545
vt 0.205087 0.826057
vt 0.216201 0.826057
vt 0.216201 0.839545
vt 0.278464 0.853464
vt 0.267801 0.853464
vt 0.267801 0.842349
vt 0.278464 0.842349
vt 0.292976 0.853464
vt 0.282778 0.853464
vt 0.282778 0.842349
vt 0.292976 0.842349
vt 0.329527 0.839792
vt 0.329527 0.826057
vt 0.340642 0.826057
vt 0.340642 0.839792
vt 0.308227 0.853586
vt 0.297756 0.853586
vt 0.297756 0.842471
vt 0.308227 0.842471
vt 0.235889 0.839548
vt 0.235889 0.826057
vt 0.247003 0.826057
vt 0.247003 0.839548
vt 0.266691 0.839560
vt 0.266691 0.826057
vt 0.277806 0.826057
vt 0.277806 0.839560
vt 0.160234 0.853810
vt 0.160234 0.842079
vt 0.171349 0.842079
vt 0.171349 0.853810
vt 0.174284 0.839290
vt 0.174284 0.826057
vt 0.185399 0.826057
vt 0.185399 0.839290
vt 0.176573 0.853810
vt 0.176573 0.842079
vt 0.187688 0.842079
vt 0.187688 0.853810
vt 0.715485 0.406028
vt 0.714672 0.436269
vt 0.755988 0.400532
vt 0.756194 0.387880
vt 0.755988 0.400532
vt 0.719208 0.402080
vt 0.719250 0.387954
vt 0.756194 0.387880
vt 0.755988 0.400532
vt 0.719208 0.402080
vt 0.714672 0.436269
vt 0.715485 0.406028
vt 0.714672 0.436269
vt 0.730219 0.437061
vt 0.714672 0.436269
vt 0.729235 0.405347
vt 0.715485 0.406028
vt 0.729235 0.405347
vt 0.730219 0.437061
vt 0.730219 0.437061
vt 0.714672 0.436269
vt 0.715485 0.406028
vt 0.715485 0.406028
vt 0.729235 0.405347
vt 0.730219 0.437061
vt 0.714672 0.436269
vt 0.729235 0.405347
vt 0.714672 0.436269
vt 0.730219 0.437061
vt 0.719208 0.402080
vt 0.755988 0.400532
vt 0.756194 0.387880
vt 0.719250 0.387954
vt 0.719208 0.402080
vt 0.755988 0.400532
vt 0.719208 0.402080
vt 0.719250 0.387954
vt 0.719208 0.402080
vt 0.719250 0.387954
vt 0.756194 0.387880
vt 0.755988 0.400532
vt 0.756194 0.387880
vt 0.719208 0.402080
vt 0.719250 0.387954
vt 0.756194 0.387880
vt 0.755988 0.400532
vt 0.719208 0.402080
vt 0.719250 0.387954
vt 0.719208 0.402080
vt 0.719208 0.402080
vt 0.719250 0.387954
vt 0.756194 0.387880
vt 0.755988 0.400532
vt 0.756194 0.387880
vt 0.719250 0.387954
vt 0.839608 0.567154
vt 0.788237 0.572418
vt 0.839608 0.621903
vt 0.788237 0.627167
vt 0.839608 0.678826
vt 0.788237 0.684090
vt 0.518689 0.496400
vt 0.532680 0.496400
vt 0.532680 0.538661
vt 0.518689 0.538661
vt 0.507843 0.496400
vt 0.514402 0.496400
vt 0.514402 0.538661
vt 0.507843 0.538661
vt 0.261378 0.740986
vt 0.306493 0.740986
vt 0.261378 0.809648
vt 0.261378 0.792482
vt 0.261378 0.783900
vt 0.261378 0.775317
vt 0.261378 0.758151
vt 0.306493 0.758151
vt 0.306493 0.775317
vt 0.306493 0.783900
vt 0.306493 0.792482
vt 0.306493 0.809648
vt 0.275369 0.816709
vt 0.292502 0.816709
vt 0.279051 0.823269
vt 0.288820 0.823269
vt 0.550957 0.502959
vt 0.554639 0.496400
vt 0.564408 0.496400
vt 0.568090 0.502959
vt 0.536966 0.510020
vt 0.582080 0.510020
vt 0.536966 0.578682
vt 0.536966 0.561517
vt 0.536966 0.544351
vt 0.536966 0.535768
vt 0.536966 0.527185
vt 0.582080 0.527185
vt 0.582080 0.535768
vt 0.582080 0.544351
vt 0.582080 0.561517
vt 0.582080 0.578682
vt 0.544084 0.586674
vt 0.574962 0.586674
vt 0.783951 0.572418
vt 0.732581 0.567154
vt 0.783951 0.627167
vt 0.732581 0.621903
vt 0.783951 0.684090
vt 0.732581 0.678826
vt 0.804323 0.387055
vt 0.804323 0.395046
vt 0.762062 0.395046
vt 0.489502 0.496400
vt 0.489502 0.538661
vt 0.475511 0.538661
vt 0.475511 0.496400
vt 0.464665 0.538661
vt 0.464665 0.496400
vt 0.471225 0.496400
vt 0.471225 0.538661
vt 0.719208 0.402080
vt 0.719208 0.402080
vn 0.8440 -0.3543 0.4027
vn 0.3681 -0.5328 0.7620
vn -0.5850 -0.3923 0.7098
vn -0.9532 -0.0792 0.2918
vn 0.0082 -0.8426 -0.5385
vn 0.9838 -0.1544 0.0907
vn -0.0398 -0.5390 0.8414
vn 0.6444 -0.4057 0.6481
vn 0.0408 0.5383 -0.8417
vn -0.0034 0.8425 0.5387
vn -0.9991 0.0151 -0.0387
vn 0.9990 -0.0067 0.0441
vn 0.0022 -0.8425 -0.5388
vn -0.0407 -0.5384 0.8417
vn 0.0407 0.5384 -0.8417
vn 0.0182 0.8419 0.5394
vn 0.9991 -0.0151 0.0387
vn 0.0072 -0.8426 -0.5386
vn 0.0329 -0.8427 -0.5374
vn -0.9991 0.0116 -0.0409
vn -0.0090 0.8426 0.5385
vn 0.9991 -0.0286 0.0301
vn -0.0185 0.8427 0.5381
vn 0.0416 -0.8426 -0.5369
vn -0.0083 0.8426 0.5385
vn 0.8843 0.1790 -0.4311
vn 0.4425 0.4506 -0.7754
vn -0.5172 0.5041 -0.6917
vn -0.9265 0.2730 -0.2588
vn 0.9936 -0.0258 -0.1103
vn -0.9987 0.0490 -0.0170
vn 0.0417 0.5378 -0.8421
vn -0.0186 0.8427 0.5381
vn 0.1281 0.4186 -0.8991
vn 0.1239 0.6502 -0.7496
vn -0.0465 0.4239 -0.9045
vn 0.0405 0.5383 -0.8418
vn 0.0409 0.5382 -0.8418
vn 0.0487 0.5001 -0.8646
vn 0.0859 0.5371 -0.8391
vn 0.0499 0.5004 -0.8644
vn 0.0409 0.5385 -0.8416
vn 0.0860 0.5370 -0.8392
vn 0.0440 0.4999 -0.8650
vn 0.0404 0.5384 -0.8417
vn 0.0855 0.5379 -0.8387
vn 0.0450 0.4999 -0.8649
vn 0.0408 0.5383 -0.8418
vn 0.0860 0.5369 -0.8392
vn 0.0157 0.5066 -0.8620
vn -0.0408 -0.5382 0.8418
vn -0.0408 -0.5385 0.8417
vn -0.0408 -0.5383 0.8418
vn -0.0658 -0.5688 0.8198
vn -0.0408 -0.5386 0.8416
vn -0.0408 -0.5385 0.8416
vn -0.0392 -0.6500 0.7589
vn -0.0415 -0.4227 0.9053
vn 0.0259 -0.4393 0.8980
vn -0.2364 -0.5079 0.8284
vn -0.4808 -0.4366 0.7604
vn -0.5044 -0.4274 0.7503
vn -0.6544 -0.3568 0.6667
vn 0.3166 -0.5390 0.7805
vn 0.1984 -0.5469 0.8133
vn 0.1771 -0.5474 0.8179
vn -0.0475 -0.5377 0.8418
vn -0.9589 -0.1593 0.2347
vn -0.8163 -0.3167 0.4831
vn -0.8163 -0.3167 0.4832
vn -0.9569 -0.1629 0.2404
vn -0.5246 -0.4621 0.7150
vn -0.0005 0.8422 0.5391
vn 0.1473 0.8300 0.5380
vn -0.0005 0.8422 0.5392
vn -0.0082 0.8425 0.5387
vn -0.0082 0.8422 0.5391
vn -0.0537 0.8420 0.5368
vn -0.0530 0.8421 0.5368
vn -0.0534 0.8420 0.5368
vn -0.0533 0.8420 0.5368
vn -0.0082 0.8426 0.5385
vn -0.0082 0.8423 0.5390
vn 0.0082 -0.8427 -0.5382
vn 0.0081 -0.8427 -0.5383
vn -0.1565 0.5477 -0.8219
vn -0.4324 0.5225 -0.7349
vn -0.4080 0.5268 -0.7457
vn -0.5908 0.4830 -0.6462
vn 0.3928 0.4670 -0.7922
vn 0.2566 0.5035 -0.8250
vn 0.2775 0.4986 -0.8212
vn 0.0340 0.5391 -0.8416
vn 0.7046 0.3886 -0.5938
vn 0.6935 0.5213 -0.4974
vn 0.6975 0.2519 -0.6709
vn -0.8613 0.1193 -0.4939
vn -0.8628 0.3927 -0.3184
vn -0.7665 0.3406 -0.5445
vn -0.4535 0.4769 -0.7529
vn -0.0408 -0.5383 0.8417
vn -0.0404 -0.5383 0.8418
vn -0.0404 -0.5385 0.8417
usemtl initialShadingGroup.003
s off
f 1/1/1 2/2/1 3/3/1 4/4/1
f 4/5/2 3/6/2 5/7/2 6/8/2
f 7/9/3 8/10/3 9/11/3 10/12/3
f 10/13/4 9/14/4 11/15/4 12/16/4 13/17/4
f 14/18/5 1/19/5 4/20/5 6/21/5 15/22/5 16/23/5 17/24/5 7/25/5 10/26/5 13/27/5 18/28/5 19/29/5 20/30/5 21/31/5 22/32/5 23/33/5 24/34/5 25/35/5 26/36/5 27/37/5
f 28/38/6 2/2/6 1/1/6 14/39/6
f 11/40/7 29/41/7 30/42/7 12/43/7
f 29/41/8 31/44/8 32/45/8 33/46/8 30/42/8
f 34/47/9 35/48/9 36/49/9 37/50/9
f 29/51/10 11/52/10 38/53/10 39/54/10 40/55/10
f 41/56/11 42/57/11 43/58/11 44/59/11
f 45/60/12 30/61/12 33/62/12 46/63/12 47/64/12
f 48/65/13 12/66/13 30/67/13 45/68/13 47/69/13 49/70/13
f 50/71/14 51/72/14 52/73/14 53/74/14
f 54/75/14 55/76/14 56/77/14 57/78/14
f 58/79/14 59/80/14 60/81/14 61/82/14
f 62/83/15 63/84/15 64/85/15 65/86/15
f 66/87/11 50/88/11 53/89/11 67/90/11
f 67/91/16 53/92/16 52/93/16 68/94/16
f 68/95/17 52/96/17 51/97/17 69/98/17
f 69/99/18 51/100/18 50/101/18 66/102/18
f 70/103/19 54/104/19 57/105/19 71/106/19
f 71/107/20 57/108/20 56/109/20 72/110/20
f 72/111/21 56/112/21 55/113/21 73/114/21
f 73/115/22 55/116/22 54/117/22 70/118/22
f 74/119/11 58/120/11 61/121/11 75/122/11
f 75/123/23 61/124/23 60/125/23 76/126/23
f 76/127/17 60/128/17 59/129/17 77/130/17
f 77/131/24 59/132/24 58/133/24 74/134/24
f 28/135/25 78/136/25 79/137/25 80/138/25 81/139/25 82/140/25 83/141/25 84/142/25 85/143/25 39/54/25 38/53/25 11/52/25 9/144/25 8/145/25 86/146/25 87/147/25 88/148/25 5/149/25 3/150/25 2/151/25
f 27/152/26 26/153/26 79/154/26 78/155/26
f 26/156/27 25/157/27 80/158/27 79/159/27
f 21/160/28 20/161/28 85/162/28 84/163/28
f 20/164/29 19/165/29 49/166/29 39/167/29 85/168/29
f 28/38/30 14/39/30 27/152/30 78/155/30
f 48/169/31 49/166/31 19/165/31 18/170/31 13/17/31 12/16/31
f 39/171/32 49/172/32 47/173/32 40/174/32
f 89/175/15 37/176/15 36/177/15 90/178/15
f 36/49/15 35/48/15 91/179/15 92/180/15
f 93/181/15 94/182/15 65/183/15 95/184/15
f 96/185/15 97/186/15 98/187/15 99/188/15
f 100/189/15 101/190/15 102/191/15 103/192/15
f 104/193/15 105/194/15 106/195/15 107/196/15
f 92/197/11 108/198/11 97/199/11 96/200/11
f 108/201/16 90/202/16 98/203/16 97/204/16
f 90/205/17 36/206/17 99/207/17 98/208/17
f 36/209/18 92/210/18 96/211/18 99/212/18
f 62/213/19 65/214/19 101/215/19 100/216/19
f 65/217/20 94/218/20 102/219/20 101/220/20
f 94/221/21 109/222/21 103/223/21 102/224/21
f 109/225/22 62/226/22 100/227/22 103/228/22
f 37/229/11 89/230/11 105/231/11 104/232/11
f 89/233/33 93/234/33 106/235/33 105/236/33
f 93/237/17 95/238/17 107/239/17 106/240/17
f 95/241/24 37/242/24 104/243/24 107/244/24
f 110/245/34 108/246/15 92/180/15 91/179/35
f 68/247/14 69/248/14 74/249/14 75/250/14
f 76/251/14 77/252/14 71/253/14 72/254/14
f 62/255/15 109/256/15 111/257/36 63/258/15
f 65/259/37 64/85/37 112/260/37 95/261/37
f 34/262/38 37/50/38 95/184/38 112/263/38
f 108/264/15 110/265/15 113/266/39 90/178/15
f 90/267/15 113/268/40 114/269/41 89/270/15
f 89/270/42 114/269/43 115/271/44 93/181/42
f 93/181/45 115/272/46 116/273/47 94/182/45
f 94/182/48 116/273/49 111/257/50 109/256/48
f 74/274/51 117/275/51 118/276/51 77/277/51
f 71/278/52 119/279/52 32/280/52 70/281/52
f 70/282/14 32/283/14 31/284/14 73/285/14
f 72/286/53 73/285/53 31/287/54 120/288/53
f 75/289/55 76/290/55 121/291/55 122/292/55
f 68/247/56 75/289/56 122/292/56 123/293/56
f 66/294/14 67/295/14 124/296/57 125/297/58
f 66/294/14 125/297/59 126/298/14 69/299/14
s 1
f 6/8/60 5/7/60 88/300/61 15/301/62
f 15/301/62 88/300/61 87/302/63 16/303/63
f 16/303/64 87/302/64 86/304/65 17/305/66
f 17/305/66 86/304/65 8/10/67 7/9/67
f 124/306/68 127/307/69 128/308/70 125/309/71
f 127/310/69 42/311/72 41/312/72 128/313/70
f 31/314/73 29/51/74 40/55/74 111/315/75
f 124/316/76 123/317/77 122/318/77 121/319/77 120/320/77 31/314/73 111/315/75 116/321/78 115/322/79 114/323/80 113/324/81 110/325/76
f 127/326/82 124/316/83 110/325/83 129/327/82
f 42/328/82 127/326/82 129/327/82 43/329/82
f 128/330/5 41/331/5 44/332/5 130/333/5
f 125/334/84 128/330/5 130/333/5 91/335/84
f 32/336/85 119/337/85 118/338/85 117/339/85 126/340/85 125/334/85 91/335/85 35/341/85 34/342/85 112/343/85 64/344/85 63/345/85
f 33/346/5 32/336/84 63/345/84 46/347/5
f 25/157/86 24/348/87 81/349/88 80/158/86
f 24/348/87 23/350/89 82/351/89 81/349/88
f 23/350/90 22/352/91 83/353/92 82/351/90
f 22/352/91 21/160/93 84/163/93 83/353/92
f 40/174/94 47/173/94 46/354/94 63/355/95 111/356/96
f 110/357/97 91/358/98 130/359/99 129/360/99
f 129/361/99 130/362/99 44/363/100 43/364/100
f 117/275/101 74/274/101 69/299/101 126/298/101
f 119/279/102 71/278/102 77/277/102 118/276/102
f 120/288/103 121/291/103 76/290/103 72/286/103
f 123/293/52 124/365/52 67/366/52 68/247/52
