# Blender v2.79 (sub 0) OBJ File: 'guitarra-2.blend'
# www.blender.org
mtllib guitarra-2.mtl
o g2_pPlane4
v -1.299045 -0.200678 6.198812
v -1.298632 0.738439 6.277720
v -2.280298 0.728529 5.716123
v -2.280711 -0.210588 5.637213
v -2.693782 0.711679 4.786445
v -2.694195 -0.227438 4.707533
v -2.512711 0.695028 3.879596
v -2.513124 -0.244089 3.800686
v -1.715820 0.676457 2.880013
v -1.716233 -0.262661 2.801104
v -2.110998 0.657611 1.841614
v -2.111412 -0.281506 1.762703
v -2.107203 0.646088 1.211609
v -2.107616 -0.293029 1.132699
v -1.645885 0.633157 0.513760
v -1.646299 -0.305959 0.434850
v -0.414459 0.623185 0.093806
v -0.414003 0.043474 0.026993
v -0.413424 -0.314167 0.010755
v -0.134761 -0.198340 6.349954
v -0.139344 -0.313430 0.056533
v 0.134669 -0.314375 0.010359
v 1.368159 -0.307104 0.432676
v 1.830493 -0.294524 1.129859
v 1.835206 -0.283004 1.759857
v 1.441541 -0.263860 2.798826
v 2.239887 -0.245894 3.797258
v 2.422277 -0.229381 4.703843
v 2.010149 -0.212217 5.634118
v 1.029302 -0.201562 6.197133
v -0.134364 0.740357 6.405954
v -0.421512 0.563613 -4.303392
v -0.421721 -0.008838 -4.292923
v -0.553923 0.583702 -4.447770
v -0.554206 -0.187441 -4.433667
v -0.424193 -0.184824 -4.287943
v -0.554808 0.316564 -5.534028
v -0.554836 0.560789 -5.700660
v -0.555118 -0.210353 -5.686557
v -0.554900 0.065510 -5.529436
v -0.299593 0.558337 -5.829688
v -0.299876 -0.212806 -5.815585
v -0.232488 0.556122 -5.949423
v -0.232770 -0.215021 -5.935321
v -0.138962 0.623080 0.093607
v 0.136536 0.622976 0.093408
v 0.137200 0.563401 -4.303796
v 0.269418 0.583390 -4.448363
v 0.268506 0.560477 -5.701254
v 0.013076 0.558218 -5.829913
v -0.054204 0.556054 -5.949552
v -0.054486 -0.215088 -5.935449
v 0.012794 -0.212925 -5.815811
v 0.268224 -0.210666 -5.687151
v 0.269136 -0.187754 -4.434261
v 0.139334 -0.185038 -4.288349
v -0.142364 -0.005552 -4.293187
v 0.136990 -0.009050 -4.293326
v -0.139207 0.049022 0.056062
v 0.135542 0.043265 0.026597
v -0.757746 0.065587 -5.529290
v -0.757604 0.068952 -5.334706
v -0.757514 0.315062 -5.339209
v -0.757654 0.316641 -5.533881
v -0.757075 0.087206 -4.610499
v -0.756982 0.333445 -4.611046
v -0.757121 0.329792 -4.802117
v -0.757212 0.079195 -4.796502
v -0.757486 0.071152 -5.171129
v -0.757327 0.082229 -4.957207
v -0.757239 0.323692 -4.961622
v -0.757395 0.317550 -5.175637
v -0.554366 0.079118 -4.796648
v -0.554275 0.329715 -4.802264
v -0.554136 0.333368 -4.611193
v -0.554668 0.314985 -5.339355
v -0.554758 0.068875 -5.334853
v -0.554229 0.087129 -4.610645
v -0.554640 0.071075 -5.171276
v -0.554549 0.317473 -5.175783
v -0.554393 0.323615 -4.961768
v -0.554481 0.082152 -4.957353
v 1.029715 0.737555 6.276041
v 2.010562 0.726900 5.713028
v 2.422691 0.709736 4.782754
v 2.240301 0.693224 3.876168
v 1.441955 0.675258 2.877735
v 1.835619 0.656112 1.838768
v 1.830906 0.644593 1.208768
v 1.368572 0.632013 0.511586
v 0.269112 0.086816 -4.611239
v 0.269206 0.333055 -4.611786
v 0.269066 0.329403 -4.802857
v 0.268975 0.078805 -4.797242
v 0.268442 0.065197 -5.530030
v 0.268583 0.068563 -5.335446
v 0.268673 0.314672 -5.339949
v 0.268534 0.316251 -5.534622
v 0.268949 0.323302 -4.962362
v 0.268792 0.317160 -5.176377
v 0.268702 0.070762 -5.171869
v 0.268861 0.081839 -4.957947
v 0.471286 0.065120 -5.530176
v 0.471379 0.316174 -5.534768
v 0.471518 0.314595 -5.340095
v 0.471428 0.068486 -5.335593
v 0.471957 0.086739 -4.611385
v 0.471820 0.078728 -4.797388
v 0.471911 0.329326 -4.803004
v 0.472050 0.332978 -4.611933
v 0.471547 0.070685 -5.172016
v 0.471637 0.317083 -5.176524
v 0.471794 0.323225 -4.962508
v 0.471705 0.081762 -4.958093
v 0.268962 0.571933 -4.982512
v 0.268734 0.566205 -5.388031
v 0.269190 0.577661 -4.831144
v 0.268848 0.569069 -5.231420
v 0.268680 -0.199210 -4.948153
v 0.268908 -0.193482 -4.754622
v 0.268452 -0.204938 -5.373929
v 0.268566 -0.202074 -5.188268
v -0.554662 -0.198897 -4.967762
v -0.554890 -0.204625 -5.373334
v -0.554434 -0.193169 -4.796914
v -0.554379 0.572246 -4.962752
v -0.554607 0.566518 -5.335886
v -0.554151 0.577974 -4.801091
v -0.554493 0.569382 -5.166107
v -0.554776 -0.201761 -5.188371
vt 0.642023 0.677747
vt 0.693394 0.677747
vt 0.693394 0.731514
vt 0.642023 0.731514
vt 0.788237 0.471761
vt 0.839608 0.466497
vt 0.839608 0.517463
vt 0.788237 0.522727
vt 0.788237 0.718616
vt 0.839608 0.713352
vt 0.839608 0.751579
vt 0.788237 0.756842
vt 0.637737 0.661574
vt 0.586367 0.661574
vt 0.586468 0.594083
vt 0.618160 0.594043
vt 0.637737 0.594003
vt 0.568646 0.493611
vt 0.504856 0.485282
vt 0.451089 0.454466
vt 0.428470 0.403500
vt 0.438427 0.353809
vt 0.482132 0.299060
vt 0.460520 0.242136
vt 0.460753 0.207610
vt 0.486059 0.169384
vt 0.553630 0.146191
vt 0.568646 0.148710
vt 0.583662 0.146191
vt 0.651234 0.169384
vt 0.676539 0.207610
vt 0.676772 0.242136
vt 0.655160 0.299060
vt 0.698865 0.353809
vt 0.708823 0.403500
vt 0.686203 0.454466
vt 0.632436 0.485282
vt 0.693394 0.613957
vt 0.642023 0.613957
vt 0.754283 0.146190
vt 0.755425 0.387151
vt 0.724052 0.387151
vt 0.722590 0.150432
vt 0.756667 0.395046
vt 0.714406 0.395046
vt 0.714406 0.387055
vt 0.715485 0.406028
vt 0.715485 0.406028
vt 0.714672 0.436269
vt 0.715485 0.406028
vt 0.268628 0.733091
vt 0.268840 0.492130
vt 0.283935 0.492130
vt 0.299031 0.492130
vt 0.299242 0.733091
vt 0.493788 0.538661
vt 0.493788 0.496400
vt 0.503557 0.496400
vt 0.503557 0.538661
vt 0.460379 0.511839
vt 0.460193 0.527146
vt 0.450547 0.527278
vt 0.450547 0.496400
vt 0.460193 0.496531
vt 0.712987 0.734728
vt 0.697931 0.733119
vt 0.697680 0.496400
vt 0.712987 0.496400
vt 0.728294 0.496400
vt 0.728043 0.733119
vt 0.431485 0.839581
vt 0.420822 0.839592
vt 0.420822 0.826104
vt 0.431485 0.826116
vt 0.375304 0.839548
vt 0.375087 0.826057
vt 0.385559 0.826066
vt 0.385502 0.839800
vt 0.325241 0.839682
vt 0.313510 0.839290
vt 0.313510 0.826057
vt 0.325241 0.826179
vt 0.715485 0.406028
vt 0.714672 0.436269
vt 0.730219 0.437061
vt 0.729235 0.405347
vt 0.416361 0.839815
vt 0.405246 0.839815
vt 0.405246 0.826057
vt 0.416361 0.826057
vt 0.203576 0.842333
vt 0.203576 0.853448
vt 0.192913 0.853448
vt 0.192913 0.842333
vt 0.231602 0.839545
vt 0.220488 0.839545
vt 0.220488 0.826057
vt 0.231602 0.826057
vt 0.218554 0.842333
vt 0.218554 0.853448
vt 0.207890 0.853448
vt 0.207890 0.842333
vt 0.233066 0.842336
vt 0.233066 0.853451
vt 0.222868 0.853451
vt 0.222868 0.842336
vt 0.356043 0.839792
vt 0.344928 0.839792
vt 0.344928 0.826057
vt 0.356043 0.826057
vt 0.248317 0.842336
vt 0.248317 0.853451
vt 0.237845 0.853451
vt 0.237845 0.842336
vt 0.262405 0.839548
vt 0.251290 0.839548
vt 0.251290 0.826057
vt 0.262405 0.826057
vt 0.293207 0.839560
vt 0.282092 0.839560
vt 0.282092 0.826057
vt 0.293207 0.826057
vt 0.169998 0.837788
vt 0.158883 0.837788
vt 0.158883 0.826057
vt 0.169998 0.826057
vt 0.200800 0.839290
vt 0.189686 0.839290
vt 0.189686 0.826057
vt 0.200800 0.826057
vt 0.154874 0.837788
vt 0.143759 0.837788
vt 0.143759 0.826057
vt 0.154874 0.826057
vt 0.283935 0.146190
vt 0.347725 0.153264
vt 0.401493 0.184080
vt 0.424112 0.235046
vt 0.414154 0.284737
vt 0.370449 0.339486
vt 0.392061 0.396410
vt 0.391828 0.430936
vt 0.366523 0.469162
vt 0.201348 0.469162
vt 0.176043 0.430936
vt 0.175810 0.396410
vt 0.197422 0.339486
vt 0.153717 0.284737
vt 0.143759 0.235046
vt 0.166378 0.184080
vt 0.220145 0.153264
vt 0.642023 0.550167
vt 0.642023 0.496400
vt 0.693394 0.496400
vt 0.693394 0.550167
vt 0.783951 0.471761
vt 0.783951 0.522727
vt 0.732581 0.517463
vt 0.732581 0.466497
vt 0.783951 0.718616
vt 0.783951 0.756842
vt 0.732581 0.751579
vt 0.732581 0.713352
vt 0.637737 0.496400
vt 0.637737 0.563971
vt 0.618160 0.563931
vt 0.586468 0.563891
vt 0.586367 0.496400
vt 0.617880 0.578987
vt 0.637737 0.578987
vt 0.764446 0.146190
vt 0.796139 0.150432
vt 0.794677 0.387151
vt 0.763305 0.387151
vt 0.730219 0.437061
vt 0.729235 0.405347
vt 0.715485 0.406028
vt 0.714672 0.436269
vt 0.729235 0.405347
vt 0.730219 0.437061
vt 0.715485 0.406028
vt 0.729235 0.405347
vt 0.730219 0.437061
vt 0.714672 0.436269
vt 0.431311 0.826068
vt 0.431311 0.839826
vt 0.420647 0.839545
vt 0.420647 0.826057
vt 0.360546 0.826310
vt 0.370744 0.826057
vt 0.370801 0.839792
vt 0.360329 0.839800
vt 0.309224 0.826057
vt 0.309224 0.839560
vt 0.297493 0.839682
vt 0.297493 0.826449
vt 0.389845 0.839815
vt 0.389845 0.826057
vt 0.400960 0.826057
vt 0.400960 0.839815
vt 0.263487 0.853451
vt 0.252823 0.853451
vt 0.252823 0.842336
vt 0.263487 0.842336
vt 0.205087 0.839545
vt 0.205087 0.826057
vt 0.216201 0.826057
vt 0.216201 0.839545
vt 0.278464 0.853464
vt 0.267801 0.853464
vt 0.267801 0.842349
vt 0.278464 0.842349
vt 0.292976 0.853464
vt 0.282778 0.853464
vt 0.282778 0.842349
vt 0.292976 0.842349
vt 0.329527 0.839792
vt 0.329527 0.826057
vt 0.340642 0.826057
vt 0.340642 0.839792
vt 0.308227 0.853586
vt 0.297756 0.853586
vt 0.297756 0.842471
vt 0.308227 0.842471
vt 0.235889 0.839548
vt 0.235889 0.826057
vt 0.247003 0.826057
vt 0.247003 0.839548
vt 0.266691 0.839560
vt 0.266691 0.826057
vt 0.277806 0.826057
vt 0.277806 0.839560
vt 0.160234 0.853810
vt 0.160234 0.842079
vt 0.171349 0.842079
vt 0.171349 0.853810
vt 0.174284 0.839290
vt 0.174284 0.826057
vt 0.185399 0.826057
vt 0.185399 0.839290
vt 0.176573 0.853810
vt 0.176573 0.842079
vt 0.187688 0.842079
vt 0.187688 0.853810
vt 0.715485 0.406028
vt 0.714672 0.436269
vt 0.755988 0.400532
vt 0.756194 0.387880
vt 0.755988 0.400532
vt 0.719208 0.402080
vt 0.719250 0.387954
vt 0.756194 0.387880
vt 0.755988 0.400532
vt 0.719208 0.402080
vt 0.714672 0.436269
vt 0.715485 0.406028
vt 0.714672 0.436269
vt 0.730219 0.437061
vt 0.714672 0.436269
vt 0.729235 0.405347
vt 0.715485 0.406028
vt 0.729235 0.405347
vt 0.730219 0.437061
vt 0.730219 0.437061
vt 0.714672 0.436269
vt 0.715485 0.406028
vt 0.715485 0.406028
vt 0.729235 0.405347
vt 0.730219 0.437061
vt 0.714672 0.436269
vt 0.729235 0.405347
vt 0.714672 0.436269
vt 0.730219 0.437061
vt 0.719208 0.402080
vt 0.755988 0.400532
vt 0.756194 0.387880
vt 0.719250 0.387954
vt 0.719208 0.402080
vt 0.755988 0.400532
vt 0.719208 0.402080
vt 0.719250 0.387954
vt 0.719208 0.402080
vt 0.719250 0.387954
vt 0.756194 0.387880
vt 0.755988 0.400532
vt 0.756194 0.387880
vt 0.719208 0.402080
vt 0.719250 0.387954
vt 0.756194 0.387880
vt 0.755988 0.400532
vt 0.719208 0.402080
vt 0.719250 0.387954
vt 0.719208 0.402080
vt 0.719208 0.402080
vt 0.719250 0.387954
vt 0.756194 0.387880
vt 0.755988 0.400532
vt 0.756194 0.387880
vt 0.719250 0.387954
vt 0.839608 0.567154
vt 0.788237 0.572418
vt 0.839608 0.621903
vt 0.788237 0.627167
vt 0.839608 0.678826
vt 0.788237 0.684090
vt 0.518689 0.496400
vt 0.532680 0.496400
vt 0.532680 0.538661
vt 0.518689 0.538661
vt 0.507843 0.496400
vt 0.514402 0.496400
vt 0.514402 0.538661
vt 0.507843 0.538661
vt 0.261378 0.740986
vt 0.306493 0.740986
vt 0.261378 0.809648
vt 0.261378 0.792482
vt 0.261378 0.783900
vt 0.261378 0.775317
vt 0.261378 0.758151
vt 0.306493 0.758151
vt 0.306493 0.775317
vt 0.306493 0.783900
vt 0.306493 0.792482
vt 0.306493 0.809648
vt 0.275369 0.816709
vt 0.292502 0.816709
vt 0.279051 0.823269
vt 0.288820 0.823269
vt 0.550957 0.502959
vt 0.554639 0.496400
vt 0.564408 0.496400
vt 0.568090 0.502959
vt 0.536966 0.510020
vt 0.582080 0.510020
vt 0.536966 0.578682
vt 0.536966 0.561517
vt 0.536966 0.544351
vt 0.536966 0.535768
vt 0.536966 0.527185
vt 0.582080 0.527185
vt 0.582080 0.535768
vt 0.582080 0.544351
vt 0.582080 0.561517
vt 0.582080 0.578682
vt 0.544084 0.586674
vt 0.574962 0.586674
vt 0.783951 0.572418
vt 0.732581 0.567154
vt 0.783951 0.627167
vt 0.732581 0.621903
vt 0.783951 0.684090
vt 0.732581 0.678826
vt 0.804323 0.387055
vt 0.804323 0.395046
vt 0.762062 0.395046
vt 0.489502 0.496400
vt 0.489502 0.538661
vt 0.475511 0.538661
vt 0.475511 0.496400
vt 0.464665 0.538661
vt 0.464665 0.496400
vt 0.471225 0.496400
vt 0.471225 0.538661
vt 0.719208 0.402080
vt 0.719208 0.402080
vn -0.4947 -0.0725 0.8660
vn -0.9130 -0.0338 0.4067
vn -0.8329 0.0467 -0.5515
vn -0.3277 0.0811 -0.9413
vn -0.0004 -0.9998 0.0183
vn -0.1187 -0.0711 0.9904
vn -1.0000 -0.0003 0.0017
vn -0.7372 0.0146 0.6755
vn 1.0000 -0.0004 -0.0007
vn 0.0004 0.9999 -0.0135
vn -0.0007 -0.0183 -0.9998
vn 0.0007 0.0282 0.9996
vn -0.0004 -0.9999 0.0123
vn -1.0000 0.0004 0.0007
vn 0.0004 1.0000 0.0081
vn 0.0007 0.0183 0.9998
vn -0.0004 -0.9999 0.0173
vn -0.0003 -0.9991 0.0430
vn -0.0007 -0.0224 -0.9997
vn 0.0004 0.9998 -0.0191
vn 0.0007 0.0022 1.0000
vn 0.0004 0.9996 -0.0287
vn -0.0003 -0.9987 0.0517
vn 0.0004 0.9998 -0.0184
vn 0.4959 -0.0729 0.8653
vn 0.9135 -0.0345 0.4053
vn 0.8321 0.0461 -0.5527
vn 0.3264 0.0809 -0.9418
vn 0.1201 -0.0712 0.9902
vn -0.0007 0.0220 -0.9998
vn 1.0000 -0.0011 0.0003
vn 0.9874 -0.1313 0.0886
vn 0.9862 0.1443 0.0817
vn 0.9876 -0.1315 -0.0862
vn 1.0000 -0.0005 -0.0010
vn 1.0000 -0.0006 -0.0006
vn 0.9990 -0.0448 0.0078
vn 0.9990 0.0004 0.0445
vn 0.9990 -0.0445 0.0089
vn 1.0000 -0.0002 -0.0006
vn 0.9990 0.0003 0.0446
vn 0.9990 -0.0453 0.0031
vn 1.0000 -0.0004 -0.0011
vn 0.9990 0.0013 0.0441
vn 0.9990 -0.0453 0.0040
vn 1.0000 -0.0005 -0.0006
vn 0.9990 0.0002 0.0446
vn 0.9989 -0.0383 -0.0253
vn -1.0000 0.0005 0.0006
vn -1.0000 0.0003 0.0007
vn -1.0000 0.0005 0.0007
vn -0.9990 -0.0373 -0.0240
vn -1.0000 0.0001 0.0006
vn -1.0000 0.0002 0.0007
vn -0.9904 -0.1382 0.0032
vn -0.9912 0.1321 -0.0017
vn -0.9912 0.1148 0.0659
vn -0.9804 0.0169 -0.1961
vn -0.8950 0.0377 -0.4445
vn -0.8825 0.0398 -0.4686
vn -0.7804 0.0527 -0.6231
vn -0.9340 -0.0295 0.3560
vn -0.9708 -0.0197 0.2390
vn -0.9758 -0.0179 0.2179
vn -1.0000 0.0009 -0.0060
vn -0.3231 -0.0172 -0.9462
vn -0.6110 -0.0143 -0.7915
vn -0.6110 -0.0142 -0.7915
vn -0.3297 -0.0171 -0.9439
vn -0.8724 -0.0086 -0.4888
vn -0.0000 0.9999 -0.0106
vn 0.0005 0.9905 0.1374
vn -0.0001 0.9998 -0.0183
vn -0.0003 0.9998 -0.0183
vn -0.0003 0.9980 -0.0638
vn -0.0003 0.9980 -0.0631
vn -0.0003 0.9980 -0.0635
vn -0.0003 0.9980 -0.0634
vn 0.0004 0.9998 -0.0183
vn -0.0006 -0.9998 0.0183
vn -0.0007 -0.9998 0.0183
vn 0.9802 0.0162 -0.1975
vn 0.8819 0.0391 -0.4698
vn 0.8943 0.0371 -0.4458
vn 0.7795 0.0521 -0.6242
vn 0.9345 -0.0302 0.3546
vn 0.9761 -0.0186 0.2165
vn 0.9711 -0.0204 0.2376
vn 1.0000 0.0002 -0.0075
vn 0.7382 0.0140 0.6744
vn 0.7281 0.1776 0.6621
vn 0.7291 -0.1428 0.6693
vn 0.4442 -0.1747 -0.8787
vn 0.4437 0.1502 -0.8835
vn 0.6099 -0.0147 -0.7924
vn 0.8717 -0.0093 -0.4900
vn -1.0000 0.0004 0.0010
vn -1.0000 0.0003 0.0011
usemtl initialShadingGroup.001
s off
f 1/1/1 2/2/1 3/3/1 4/4/1
f 4/5/2 3/6/2 5/7/2 6/8/2
f 14/9/3 13/10/3 15/11/3 16/12/3
f 16/13/4 15/14/4 17/15/4 18/16/4 19/17/4
f 20/18/5 1/19/5 4/20/5 6/21/5 8/22/5 10/23/5 12/24/5 14/25/5 16/26/5 19/27/5 21/28/5 22/29/5 23/30/5 24/31/5 25/32/5 26/33/5 27/34/5 28/35/5 29/36/5 30/37/5
f 31/38/6 2/2/6 1/1/6 20/39/6
f 17/40/7 32/41/7 33/42/7 18/43/7
f 32/41/8 34/44/8 35/45/8 36/46/8 33/42/8
f 122/47/9 121/48/9 96/49/9 101/50/9
f 32/51/10 17/52/10 45/53/10 46/54/10 47/55/10
f 44/56/11 43/57/11 51/58/11 52/59/11
f 57/60/12 33/61/12 36/62/12 56/63/12 58/64/12
f 59/65/13 18/66/13 33/67/13 57/68/13 58/69/13 60/70/13
f 61/71/14 62/72/14 63/73/14 64/74/14
f 65/75/14 66/76/14 67/77/14 68/78/14
f 69/79/14 70/80/14 71/81/14 72/82/14
f 91/83/9 55/84/9 120/85/9 94/86/9
f 40/87/11 61/88/11 64/89/11 37/90/11
f 37/91/15 64/92/15 63/93/15 76/94/15
f 76/95/16 63/96/16 62/97/16 77/98/16
f 77/99/17 62/100/17 61/101/17 40/102/17
f 78/103/18 65/104/18 68/105/18 73/106/18
f 73/107/19 68/108/19 67/109/19 74/110/19
f 74/111/20 67/112/20 66/113/20 75/114/20
f 75/115/21 66/116/21 65/117/21 78/118/21
f 79/119/11 69/120/11 72/121/11 80/122/11
f 80/123/22 72/124/22 71/125/22 81/126/22
f 81/127/16 71/128/16 70/129/16 82/130/16
f 82/131/23 70/132/23 69/133/23 79/134/23
f 31/135/24 83/136/24 84/137/24 85/138/24 86/139/24 87/140/24 88/141/24 89/142/24 90/143/24 46/54/24 45/53/24 17/52/24 15/144/24 13/145/24 11/146/24 9/147/24 7/148/24 5/149/24 3/150/24 2/151/24
f 30/152/25 29/153/25 84/154/25 83/155/25
f 29/156/26 28/157/26 85/158/26 84/159/26
f 24/160/27 23/161/27 90/162/27 89/163/27
f 23/164/28 22/165/28 60/166/28 46/167/28 90/168/28
f 31/38/29 20/39/29 30/152/29 83/155/29
f 59/169/30 60/166/30 22/165/30 21/170/30 19/17/30 18/16/30
f 46/171/31 60/172/31 58/173/31 47/174/31
f 100/175/9 101/176/9 96/177/9 97/178/9
f 96/49/9 121/48/9 54/179/9 95/180/9
f 99/181/9 93/182/9 94/183/9 102/184/9
f 103/185/9 104/186/9 105/187/9 106/188/9
f 107/189/9 108/190/9 109/191/9 110/192/9
f 111/193/9 112/194/9 113/195/9 114/196/9
f 95/197/11 98/198/11 104/199/11 103/200/11
f 98/201/15 97/202/15 105/203/15 104/204/15
f 97/205/16 96/206/16 106/207/16 105/208/16
f 96/209/17 95/210/17 103/211/17 106/212/17
f 91/213/18 94/214/18 108/215/18 107/216/18
f 94/217/19 93/218/19 109/219/19 108/220/19
f 93/221/20 92/222/20 110/223/20 109/224/20
f 92/225/21 91/226/21 107/227/21 110/228/21
f 101/229/11 100/230/11 112/231/11 111/232/11
f 100/233/22 99/234/22 113/235/22 112/236/22
f 99/237/16 102/238/16 114/239/16 113/240/16
f 102/241/23 101/242/23 111/243/23 114/244/23
f 49/245/32 98/246/9 95/180/9 54/179/33
f 76/247/14 77/248/14 79/249/14 80/250/14
f 81/251/14 82/252/14 73/253/14 74/254/14
f 91/255/9 92/256/9 48/257/34 55/258/9
f 94/259/35 120/85/35 119/260/35 102/261/35
f 122/262/36 101/50/36 102/184/36 119/263/36
f 98/264/9 49/265/9 116/266/37 97/178/9
f 97/267/9 116/268/38 118/269/39 100/270/9
f 100/270/40 118/269/41 115/271/42 99/181/40
f 99/181/43 115/272/44 117/273/45 93/182/43
f 93/182/46 117/273/47 48/257/48 92/256/46
f 79/274/49 130/275/49 123/276/49 82/277/49
f 73/278/50 125/279/50 35/280/50 78/281/50
f 78/282/14 35/283/14 34/284/14 75/285/14
f 74/286/51 75/285/51 34/287/52 128/288/51
f 80/289/53 81/290/53 126/291/53 129/292/53
f 76/247/54 80/289/54 129/292/54 127/293/54
f 40/294/14 37/295/14 38/296/55 39/297/56
f 40/294/14 39/297/57 124/298/14 77/299/14
s 1
f 6/8/58 5/7/58 7/300/59 8/301/60
f 8/301/60 7/300/59 9/302/61 10/303/61
f 10/303/62 9/302/62 11/304/63 12/305/64
f 12/305/64 11/304/63 13/10/65 14/9/65
f 38/306/66 41/307/67 42/308/68 39/309/69
f 41/310/67 43/311/70 44/312/70 42/313/68
f 34/314/71 32/51/72 47/55/72 48/315/71
f 38/316/73 127/317/74 129/318/74 126/319/74 128/320/74 34/314/71 48/315/71 117/321/75 115/322/76 118/323/77 116/324/78 49/325/73
f 41/326/79 38/316/73 49/325/73 50/327/79
f 43/328/79 41/326/79 50/327/79 51/329/79
f 42/330/5 44/331/5 52/332/5 53/333/5
f 39/334/80 42/330/5 53/333/5 54/335/80
f 35/336/80 125/337/81 123/338/81 130/339/81 124/340/81 39/334/80 54/335/80 121/341/81 122/342/81 119/343/81 120/344/81 55/345/80
f 36/346/5 35/336/80 55/345/80 56/347/5
f 28/157/82 27/348/83 86/349/84 85/158/82
f 27/348/83 26/350/85 87/351/85 86/349/84
f 26/350/86 25/352/87 88/353/88 87/351/86
f 25/352/87 24/160/89 89/163/89 88/353/88
f 47/174/90 58/173/90 56/354/90 55/355/91 48/356/92
f 49/357/93 54/358/94 53/359/95 50/360/95
f 50/361/95 53/362/95 52/363/96 51/364/96
f 130/275/14 79/274/14 77/299/14 124/298/14
f 125/279/97 73/278/97 82/277/97 123/276/97
f 128/288/98 126/291/98 81/290/98 74/286/98
f 127/293/50 38/365/50 37/366/50 76/247/50
