# Blender v2.80 (sub 45) OBJ File: 'DISPOSICIONICIONmanjaro.blend'
# www.blender.org
mtllib PuertaPiedra.mtl
o Cube.006_Cube.009_Cube.006_Cube.007
v 0.000000 14.000012 -0.000001
v -4.000000 14.000012 -0.000002
v -4.000015 14.000028 16.000017
v -0.000015 14.000028 16.000017
v -4.000000 0.000015 0.000004
v 0.000000 0.000015 0.000000
v -0.000015 0.000030 16.000019
v -4.000015 0.000030 16.000019
vt 0.751141 1.378000
vt 0.586185 1.396328
vt 0.586185 2.019492
vt 0.751140 2.019492
vt -3.500342 3.616310
vt -3.665445 3.599309
vt -3.660291 4.240804
vt -3.495334 4.239478
vt 0.583514 1.231379
vt 0.006170 1.231378
vt 0.006170 1.854543
vt 0.583514 1.854543
vt -0.573844 2.184458
vt 0.003501 2.184458
vt 0.003501 2.019502
vt -0.573844 2.019502
vt 0.003501 1.378008
vt -0.573844 1.378008
vt -0.573844 2.184458
vt 0.003501 2.184458
vt 0.003501 2.019502
vt -0.573844 2.019502
vn 0.0000 1.0000 -0.0000
vn 0.0000 -1.0000 0.0000
vn -1.0000 -0.0000 -0.0000
vn 0.0000 0.0000 1.0000
vn 1.0000 0.0000 0.0000
vn -0.0000 -0.0000 -1.0000
usemtl Material.020
s 1
f 1/1/1 2/2/1 3/3/1 4/4/1
f 5/5/2 6/6/2 7/7/2 8/8/2
f 2/9/3 5/10/3 8/11/3 3/12/3
f 3/13/4 8/14/4 7/15/4 4/16/4
f 7/15/5 6/17/5 1/18/5 4/16/5
f 1/19/6 6/20/6 5/21/6 2/22/6
