# Blender v2.79 (sub 0) OBJ File: 'DISPOSICIONICIONescenario077.blend'
# www.blender.org
mtllib DecoracionRupestre.mtl
o Cube.006_Cube.004_Cube.006_Cube.003
v -185.536301 6.999992 388.019989
v -185.536301 13.999989 388.020020
v -185.536301 0.000005 388.019989
v -201.852234 6.999992 370.097137
v -201.852234 13.999989 370.097168
v -201.852234 -0.000006 370.097137
v -215.359161 6.999992 369.967163
v -215.359161 13.999988 369.967163
v -215.359161 -0.000006 369.967163
v -268.769836 6.999992 372.207184
v -268.769836 13.999987 372.207184
v -268.769836 -0.000006 372.207184
v -278.989990 6.999993 388.010010
v -278.989990 13.999987 388.010010
v -289.278412 6.999992 420.010010
v -289.278412 13.999985 420.010010
v -289.278412 -0.000006 420.010010
v -344.619232 6.999992 409.636047
v -344.619232 13.999985 409.636047
v -344.619263 -0.000005 409.636047
v -367.985992 6.999992 436.309967
v -367.986023 13.999985 436.309967
v -367.986023 -0.000005 436.309967
v -346.509766 6.999994 541.060303
v -346.509766 13.999985 541.060303
v -346.509735 -0.000004 541.060303
v -324.563293 6.999994 535.664490
v -324.563293 13.999985 535.664490
v -324.563293 -0.000004 535.664429
v -284.810852 -0.000003 504.551208
v -279.009979 13.999985 485.388672
v -279.009979 -0.000003 485.388611
v -260.150024 7.000002 489.755554
v -260.843567 13.999993 489.755554
v -260.222290 0.000005 489.755493
v -234.419617 7.000002 471.863647
v -234.419617 13.999993 471.863647
v -234.419586 0.000005 471.863586
v -223.483521 7.000001 541.046936
v -223.483505 13.999994 541.046936
v -223.483459 0.000005 541.046875
v -211.892853 7.000001 539.658508
v -211.892853 13.999994 539.658508
v -211.892853 0.000005 539.658447
v -195.891388 7.000002 482.653595
v -195.891388 13.999995 482.653595
v -195.891449 0.000004 482.653503
v -176.641785 7.000002 479.980103
v -176.641785 13.999995 479.980103
v -176.641769 0.000005 479.980011
v -157.469910 7.000002 493.474182
v -157.469910 13.999993 493.474182
v -157.469864 0.000005 493.474121
v -146.304062 7.000002 455.980133
v -146.304062 13.999993 455.980133
v -146.304092 0.000005 455.980011
v -223.000092 13.999992 479.990021
v -129.582169 7.000002 455.980133
v -129.582153 13.999994 455.980133
v -129.582092 0.000005 455.980011
v -110.800560 7.000003 472.913177
v -110.800560 13.999993 472.913177
v -110.800491 0.000005 472.913055
v -223.000061 0.000004 479.989990
v -223.000107 7.000001 479.990021
v -96.224182 7.000003 455.979980
v -96.224190 13.999994 455.979980
v -96.224319 0.000005 455.980011
v -90.506508 7.000002 436.598114
v -90.506508 13.999994 436.598114
v -90.506592 0.000005 436.597992
v -67.003922 7.000002 437.980133
v -67.003922 13.999993 437.980133
v -67.003830 0.000005 437.980011
v -30.915985 7.000002 438.000122
v -30.915993 13.999994 438.000092
v -30.916084 0.000005 438.000000
v -14.098396 7.000001 426.035950
v -14.098419 13.999992 426.035919
v -14.098541 0.000004 426.035889
v -34.955353 7.000002 401.255157
v -34.955383 13.999994 401.255127
v -34.955429 0.000005 401.255280
v -336.896484 13.999985 537.990051
v -336.896484 -0.000004 537.989990
v -336.896484 6.999994 537.990051
v -241.921387 13.999993 473.680176
v -241.921371 0.000005 473.680115
v -241.921387 7.000002 473.680176
v -205.786469 7.000001 541.911194
v -205.786469 0.000005 541.911072
v -205.786469 13.999995 541.911194
v -278.989990 -0.000005 388.010010
v -353.436981 6.999993 420.010010
v -353.437012 -0.000005 420.010010
v -353.436981 13.999986 420.010010
v -284.810791 13.999985 504.551270
v -284.810791 6.999994 504.551270
v -279.009949 6.999994 485.388672
vt 0.041118 0.329307
vt 0.041118 0.165858
vt 0.625915 0.165859
vt 0.625915 0.329307
vt 0.625914 0.002410
vt 0.951827 0.002409
vt 0.951827 0.165858
vt 0.041118 0.002409
vt 0.951827 0.329307
vt 0.627251 0.750134
vt 0.627251 0.868687
vt 0.038999 0.868687
vt 0.038998 0.750134
vt 0.956607 0.868687
vt 0.956607 0.987239
vt 0.627251 0.987239
vt 0.956607 0.750134
vt 0.038999 0.987239
vt 0.543708 0.352335
vt 0.543709 0.506076
vt 0.047854 0.506076
vt 0.047854 0.352335
vt 0.543709 0.659816
vt 0.047854 0.659816
vt 0.799685 0.010054
vt 0.799685 0.161504
vt 0.486334 0.161505
vt 0.486333 0.010054
vt 0.756707 0.849483
vt 0.756707 1.000849
vt 0.476270 1.000849
vt 0.476270 0.849482
vt 0.756707 0.698116
vt 0.476270 0.698116
vt 0.959974 0.345506
vt 0.959959 0.501719
vt 0.498269 0.501670
vt 0.498286 0.345460
vt 0.441178 0.997718
vt 0.017021 0.997719
vt 0.001697 0.843892
vt 0.441178 0.843931
vt 0.003311 0.690106
vt 0.441194 0.690147
vt 0.972250 0.161505
vt 0.972249 0.312955
vt 0.799685 0.312955
vt 0.972250 0.010054
vt 0.947827 0.838631
vt 0.947828 1.003339
vt 0.663997 1.003340
vt 0.663996 0.838632
vt 0.947825 0.673923
vt 0.663995 0.673923
vt 0.449742 0.683154
vt 0.449741 0.839814
vt 0.000303 0.839812
vt 0.000303 0.683152
vt 0.449741 0.996473
vt 0.000303 0.996471
vt 0.460468 0.493518
vt 0.460468 0.624582
vt 0.006871 0.624583
vt 0.006871 0.493519
vt 0.460468 0.362454
vt 0.006870 0.362455
vt 0.411643 0.010668
vt 0.411642 0.167294
vt 0.025013 0.167293
vt 0.025012 0.010666
vt 0.999774 0.145511
vt 0.999775 0.283935
vt 0.483040 0.283937
vt 0.483039 0.145513
vt 0.411642 0.323920
vt 0.025013 0.323920
vt 0.999774 0.007086
vt 0.483039 0.007089
vt 0.991822 0.702661
vt 0.991822 0.850010
vt 0.479721 0.850012
vt 0.479717 0.702663
vt 0.982290 0.503839
vt 0.982289 0.666427
vt 0.497280 0.666424
vt 0.497280 0.503834
vt 0.982293 0.341249
vt 0.497281 0.341245
vt 0.991822 0.997360
vt 0.479720 0.997362
vt 0.002176 1.002161
vt 0.002213 0.859034
vt 0.686550 0.859211
vt 0.686510 1.002338
vt 0.017441 0.503792
vt 0.017479 0.360348
vt 0.454513 0.360455
vt 0.454474 0.503898
vt 0.017404 0.647236
vt 0.454437 0.647342
vt 0.002252 0.715908
vt 0.686591 0.716084
vt 0.486333 0.312955
vt 0.982202 0.698116
vt 0.982201 0.849483
vt 0.982201 1.000849
vt 0.505745 1.003341
vt 0.505744 0.838633
vt 0.505744 0.673924
vt 0.852706 0.506076
vt 0.852705 0.659816
vt 0.852705 0.352335
vt 0.959959 0.657880
vt 0.498269 0.657883
vn -0.7395 0.0000 0.6732
vn -0.0096 -0.0000 1.0000
vn 0.9520 0.0000 0.3061
vn 0.8397 0.0000 0.5431
vn 0.7460 -0.0000 0.6659
vn 0.5798 0.0000 -0.8148
vn -0.1853 0.0000 -0.9827
vn -0.9571 0.0000 -0.2897
vn 0.2296 0.0114 -0.9732
vn 0.2260 -0.0012 -0.9741
vn -0.2353 0.0000 -0.9719
vn -0.1189 0.0000 -0.9929
vn -0.1376 0.0000 -0.9905
vn 0.5756 0.0000 -0.8178
vn 0.0000 0.0000 -1.0000
vn 0.6696 0.0000 -0.7427
vn 0.0587 0.0000 -0.9983
vn -0.9591 -0.0000 -0.2829
vn -0.7651 0.0000 0.6439
vn -0.5797 -0.0000 -0.8148
vn -0.3042 0.0000 -0.9526
vn 0.3461 0.0000 -0.9382
vn 0.7619 0.0000 0.6476
usemtl Material.009
s off
f 3/1/1 1/2/1 4/3/1 6/4/1
f 4/3/2 5/5/2 8/6/2 7/7/2
f 1/2/1 2/8/1 5/5/1 4/3/1
f 6/4/2 4/3/2 7/7/2 9/9/2
f 93/10/3 13/11/3 15/12/3 17/13/3
f 10/14/4 11/15/4 14/16/4 13/11/4
f 12/17/4 10/14/4 13/11/4 93/10/4
f 13/11/3 14/16/3 16/18/3 15/12/3
f 95/19/5 94/20/5 21/21/5 23/22/5
f 94/20/5 96/23/5 22/24/5 21/21/5
f 38/25/6 36/26/6 65/27/6 64/28/6
f 86/29/7 84/30/7 28/31/7 27/32/7
f 85/33/7 86/29/7 27/32/7 29/34/7
f 30/35/8 98/36/8 99/37/8 32/38/8
f 31/39/9 34/40/9 33/41/9 99/42/9
f 99/42/10 33/41/10 35/43/10 32/44/10
f 89/45/11 87/46/11 37/47/11 36/26/11
f 88/48/11 89/45/11 36/26/11 38/25/11
f 39/49/12 40/50/12 43/51/12 42/52/12
f 41/53/12 39/49/12 42/52/12 44/54/12
f 47/55/13 45/56/13 48/57/13 50/58/13
f 45/56/13 46/59/13 49/60/13 48/57/13
f 48/61/14 49/62/14 52/63/14 51/64/14
f 50/65/14 48/61/14 51/64/14 53/66/14
f 56/67/15 54/68/15 58/69/15 60/70/15
f 58/71/16 59/72/16 62/73/16 61/74/16
f 54/68/15 55/75/15 59/76/15 58/69/15
f 60/77/16 58/71/16 61/74/16 63/78/16
f 71/79/17 69/80/17 72/81/17 74/82/17
f 66/83/18 67/84/18 70/85/18 69/86/18
f 68/87/18 66/83/18 69/86/18 71/88/18
f 69/80/17 70/89/17 73/90/17 72/81/17
f 80/91/19 78/92/19 81/93/19 83/94/19
f 75/95/20 76/96/20 79/97/20 78/98/20
f 77/99/20 75/95/20 78/98/20 80/100/20
f 78/92/19 79/101/19 82/102/19 81/93/19
f 36/26/6 37/47/6 57/103/6 65/27/6
f 26/104/21 24/105/21 86/29/21 85/33/21
f 24/105/21 25/106/21 84/30/21 86/29/21
f 42/52/22 43/51/22 92/107/22 90/108/22
f 44/54/22 42/52/22 90/108/22 91/109/22
f 18/110/23 19/111/23 96/23/23 94/20/23
f 20/112/23 18/110/23 94/20/23 95/19/23
f 98/36/8 97/113/8 31/114/8 99/37/8
