# Blender v2.80 (sub 45) OBJ File: 'distribucionNivel78.blend'
# www.blender.org
mtllib DecoracionSalaBoss.mtl
o Circle.000
v -242.999878 0.000053 550.000000
v -220.038879 0.000053 545.432739
v -200.573471 0.000053 532.426392
v -207.999481 0.000015 505.999939
v -298.432648 0.000053 467.038971
v -302.999878 0.000053 490.000000
v -298.432648 0.000053 512.961060
v -285.426270 0.000053 532.426392
v -265.960876 0.000053 545.432739
v -207.999878 0.000002 524.000000
v -277.999878 0.000002 524.000000
v -185.999481 0.000053 505.999939
v -207.999481 0.000021 502.000000
v -185.999481 0.000053 473.999939
v -227.999481 0.000002 524.000000
v -257.999481 0.000002 524.000000
v -242.999481 0.000002 524.000000
v -242.999863 0.000053 430.000000
v -220.038864 0.000053 434.567230
v -200.573456 0.000053 447.573578
v -207.999466 0.000015 473.999939
v -285.426270 0.000053 447.573578
v -265.960846 0.000053 434.567200
v -207.999863 0.000002 456.000000
v -277.999878 0.000002 456.000000
v -207.999466 0.000021 478.000000
v -227.999466 0.000002 456.000000
v -257.999481 0.000002 456.000000
v -242.999466 0.000002 456.000000
v -277.999481 0.000002 490.000000
v -277.999481 0.000002 506.000000
v -277.999481 0.000002 474.000000
v -227.999481 -1.999998 524.000000
v -207.999878 -1.999998 524.000000
v -207.999481 -1.999979 502.000000
v -207.999481 -1.999985 505.999939
v -242.999481 -1.999998 524.000000
v -277.999878 -1.999998 524.000000
v -257.999481 -1.999998 524.000000
v -227.999466 -1.999998 456.000000
v -207.999863 -1.999998 456.000000
v -207.999466 -1.999979 478.000000
v -207.999466 -1.999985 473.999939
v -242.999466 -1.999998 456.000000
v -277.999878 -1.999998 456.000000
v -257.999481 -1.999998 456.000000
v -277.999481 -1.999998 506.000000
v -277.999481 -1.999998 474.000000
v -277.999481 -1.999998 490.000000
v -185.999481 -2.000000 477.999939
v -185.999481 -2.000000 501.999939
v -185.999481 0.000000 477.999939
v -185.999481 0.000000 501.999939
v -185.999481 -1.999998 505.999969
v -200.573471 -2.000000 532.426453
v -285.426270 -2.000000 532.426453
v -220.038879 -2.000000 545.432800
v -265.960876 -2.000000 545.432800
v -242.999878 -2.000000 550.000000
v -285.426270 -2.000000 447.573578
v -265.960846 -2.000000 434.567169
v -242.999863 -2.000000 430.000000
v -220.038864 -2.000000 434.567230
v -200.573456 -2.000000 447.573578
v -185.999481 -1.999998 473.999939
v -302.999878 -2.000000 490.000000
v -298.432648 -2.000000 512.960999
v -298.432648 -2.000000 467.039032
v -207.999573 0.000012 469.499969
v -187.567108 0.000053 467.039001
v -207.999573 -1.999988 469.499969
v -187.567108 -1.999998 467.039001
v -187.567108 0.000053 512.960938
v -207.999588 0.000012 510.499969
v -207.999588 -1.999988 510.499969
v -187.567108 -1.999998 512.960999
vt 0.937450 2.362871
vt 1.189822 3.495221
vt 0.461968 3.736517
vt 0.461956 2.362871
vt -0.647525 1.649628
vt -0.647516 2.362871
vt -0.882930 2.808061
vt -1.295226 1.779649
vt 1.571453 2.362871
vt 1.806867 2.808061
vt -0.647529 1.411881
vt -1.344918 1.411881
vt -1.344918 1.200550
vt -0.647529 1.200552
vt -0.265885 3.495221
vt -0.013538 2.362871
vt 0.937450 -1.229746
vt 0.461956 -1.229746
vt 0.461968 -2.603394
vt 1.189820 -2.362096
vt -0.647525 -0.516509
vt -1.295226 -0.646527
vt -0.882931 -1.674936
vt -0.647517 -1.229746
vt 1.806867 -1.674936
vt 1.571453 -1.229746
vt -1.344918 -0.278763
vt -1.344918 -0.067433
vt -0.647529 -0.067429
vt -0.647529 -0.278763
vt -0.265886 -2.362094
vt -0.013538 -1.229746
vt 2.219163 -0.646529
vt 1.571441 -0.278759
vt 1.571441 0.566563
vt 2.363943 0.566563
vt 2.219163 1.779650
vt 1.571441 1.411884
vt -0.265885 3.495221
vt -0.013538 2.362871
vt -0.647516 2.362871
vt -0.882930 2.808061
vt -1.344918 1.411882
vt -0.647529 1.411881
vt -0.647529 1.200552
vt -1.344918 1.200550
vt 0.461956 -1.229746
vt -0.013538 -1.229746
vt 1.571453 -1.229746
vt 0.937450 -1.229746
vt 1.571453 2.362871
vt 1.571441 1.411884
vt 0.461956 2.362871
vt 0.937450 2.362871
vt -0.647525 1.649628
vt -0.647529 -0.067429
vt -1.344918 -0.067433
vt 1.571441 0.566563
vt 1.571441 -0.278759
vt -0.647517 -1.229746
vt -0.647529 -0.278763
vt -1.344918 -0.278763
vt -0.647525 -0.516509
vt 0.461968 3.736520
vt 2.363942 0.566563
vt 2.219163 -0.646525
vt 0.461968 -2.603394
vt -0.265886 -2.362094
vt 1.806867 -1.674936
vt 1.189820 -2.362097
vt -0.882931 -1.674936
vt -1.295226 -0.646527
vt 2.219162 1.779650
vt 1.806867 2.808061
vt 1.189822 3.495221
vt -1.295226 1.779650
vn 0.0000 1.0000 -0.0000
vn -0.0000 -1.0000 0.0000
vn 0.0000 0.0000 1.0000
vn 1.0000 0.0000 0.0000
vn 0.0000 0.0000 -1.0000
vn -1.0000 0.0000 -0.0000
usemtl Material.001
s off
f 16/1/1 9/2/1 1/3/1 17/4/1
f 74/5/1 10/6/1 3/7/1 73/8/1
f 16/1/1 11/9/1 8/10/1 9/2/1
f 4/11/1 12/12/1 53/13/1 13/14/1
f 2/15/1 3/7/1 10/6/1 15/16/1
f 17/4/1 1/3/1 2/15/1 15/16/1
f 28/17/1 29/18/1 18/19/1 23/20/1
f 69/21/1 70/22/1 20/23/1 24/24/1
f 28/17/1 23/20/1 22/25/1 25/26/1
f 65/27/2 50/28/2 42/29/2 43/30/2
f 19/31/1 27/32/1 24/24/1 20/23/1
f 29/18/1 27/32/1 19/31/1 18/19/1
f 5/33/1 32/34/1 25/26/1 22/25/1
f 30/35/1 6/36/1 7/37/1 31/38/1
f 31/38/1 7/37/1 8/10/1 11/9/1
f 32/34/1 5/33/1 6/36/1 30/35/1
f 57/39/2 33/40/2 34/41/2 55/42/2
f 54/43/2 36/44/2 35/45/2 51/46/2
f 29/18/3 44/47/3 40/48/3 27/32/3
f 25/26/3 45/49/3 46/50/3 28/17/3
f 11/9/4 38/51/4 47/52/4 31/38/4
f 17/4/5 37/53/5 39/54/5 16/1/5
f 74/5/6 75/55/6 34/41/6 10/6/6
f 26/56/3 42/29/3 50/28/3 52/57/3
f 30/35/4 49/58/4 48/59/4 32/34/4
f 28/17/3 46/50/3 44/47/3 29/18/3
f 15/16/5 33/40/5 37/53/5 17/4/5
f 31/38/4 47/52/4 49/58/4 30/35/4
f 16/1/5 39/54/5 38/51/5 11/9/5
f 27/32/3 40/48/3 41/60/3 24/24/3
f 21/61/1 26/56/1 52/57/1 14/62/1
f 32/34/4 48/59/4 45/49/4 25/26/4
f 53/13/5 51/46/5 35/45/5 13/14/5
f 10/6/5 34/41/5 33/40/5 15/16/5
f 69/21/6 71/63/6 43/30/6 21/61/6
f 26/56/6 21/61/6 43/30/6 42/29/6
f 37/53/2 33/40/2 57/39/2 59/64/2
f 48/59/2 49/58/2 66/65/2 68/66/2
f 44/47/2 62/67/2 63/68/2 40/48/2
f 46/50/2 45/49/2 60/69/2 61/70/2
f 41/60/2 40/48/2 63/68/2 64/71/2
f 45/49/2 48/59/2 68/66/2 60/69/2
f 46/50/2 61/70/2 62/67/2 44/47/2
f 71/63/2 41/60/2 64/71/2 72/72/2
f 49/58/2 47/52/2 67/73/2 66/65/2
f 47/52/2 38/51/2 56/74/2 67/73/2
f 39/54/2 58/75/2 56/74/2 38/51/2
f 39/54/2 37/53/2 59/64/2 58/75/2
f 75/55/2 76/76/2 55/42/2 34/41/2
f 35/45/6 36/44/6 4/11/6 13/14/6
f 43/30/2 71/63/2 72/72/2 65/27/2
f 24/24/6 41/60/6 71/63/6 69/21/6
f 21/61/1 14/62/1 70/22/1 69/21/1
f 36/44/2 54/43/2 76/76/2 75/55/2
f 4/11/6 36/44/6 75/55/6 74/5/6
f 4/11/1 74/5/1 73/8/1 12/12/1
