# Blender v2.79 (sub 0) OBJ File: 'distribucionNivel81.blend'
# www.blender.org
mtllib ParedObstaculo3.mtl
o Cube.009_Cube.011
v 2.000010 0.000015 -23.000031
v -1.999990 0.000015 -23.000031
v 2.000012 0.000015 22.999969
v -1.999988 0.000015 22.999969
v -1.999990 14.000011 -23.000031
v 2.000012 14.000011 22.999969
v -1.999988 14.000011 22.999969
v 2.000010 14.000011 -23.000031
vt -0.810401 -0.004000
vt 1.810400 -0.004000
vt 1.810400 1.004000
vt -0.810401 1.004000
vt 0.633560 -0.291185
vt 0.633560 1.291185
vt 0.366440 1.291185
vt 0.366440 -0.291185
vt 0.333050 1.488981
vt 0.333050 -0.488981
vt 0.666950 -0.488981
vt 0.666950 1.488981
vt -0.810401 -0.004000
vt 1.810400 -0.004000
vt 1.810400 1.004000
vt -0.810401 1.004000
vt -0.985994 0.214232
vt 1.985993 0.214232
vt 1.985993 0.785768
vt -0.985994 0.785768
vt -0.810401 -0.004000
vt 1.810400 -0.004000
vt 1.810400 1.004000
vt -0.810401 1.004000
vn 1.0000 0.0000 -0.0000
vn 0.0000 0.0000 1.0000
vn 0.0000 0.0000 -1.0000
vn 0.0000 -1.0000 0.0000
vn 0.0000 1.0000 0.0000
vn -1.0000 0.0000 0.0000
usemtl Tilemap01
s off
f 8/1/1 6/2/1 3/3/1 1/4/1
f 3/5/2 6/6/2 7/7/2 4/8/2
f 2/9/3 5/10/3 8/11/3 1/12/3
f 1/13/4 3/14/4 4/15/4 2/16/4
f 5/17/5 7/18/5 6/19/5 8/20/5
f 2/21/6 4/22/6 7/23/6 5/24/6
