# Blender v2.80 (sub 45) OBJ File: ''
# www.blender.org
mtllib PistaDisco.mtl
o Plane.000
v -35.000000 -0.000001 34.000000
v 35.000008 -0.000001 34.000000
v 35.000008 0.000001 -33.999996
v -35.000000 0.000001 -33.999996
v -35.000000 -4.000001 34.000000
v -35.000000 -3.999999 -33.999996
v 35.000008 -3.999999 -33.999996
v 35.000008 -4.000001 34.000000
vt -0.949796 -1.899658
vt 1.449865 -1.899661
vt 1.449867 0.431438
vt -0.949794 0.431440
vt -0.949796 2.899659
vt -0.949794 0.568560
vt 1.449867 0.568562
vt 1.449866 2.899661
vt -4.737309 0.437718
vt -4.737310 0.094684
vt -1.238361 0.094680
vt -1.238361 0.437713
vt 2.363478 0.094687
vt 2.363478 0.437710
vt 5.862309 0.094696
vt 5.862309 0.437718
vn 0.0000 1.0000 0.0000
vn 0.0000 -1.0000 -0.0000
vn -1.0000 0.0000 0.0000
vn 0.0000 0.0000 -1.0000
vn 0.0000 0.0000 1.0000
vn 1.0000 0.0000 0.0000
usemtl Material.001
s 1
f 1/1/1 2/2/1 3/3/1 4/4/1
f 5/5/2 6/6/2 7/7/2 8/8/2
f 4/9/3 6/10/3 5/11/3 1/12/3
f 3/3/4 7/7/4 6/6/4 4/4/4
f 1/12/5 5/11/5 8/13/5 2/14/5
f 2/14/6 8/13/6 7/15/6 3/16/6
