# Blender v2.79 (sub 6) OBJ File: ''
# www.blender.org
mtllib flauta3_000005.mtl
o f3_Flauta_3:Flauta_2:Flauta_1:pCylinder3
v -0.988659 11.930870 4.239668
v -0.858209 11.814287 4.376334
v -0.517322 8.883791 1.557942
v -0.633727 8.987854 1.435959
v -0.596044 8.789434 1.643437
v -0.947359 11.694505 4.486337
v -1.168214 11.691724 4.459078
v -0.801041 8.765881 1.639524
v -1.517249 12.935884 4.757519
v -1.779082 12.590478 5.074078
v -1.445913 12.265430 5.450954
v -0.851175 12.288209 5.508768
v -0.592690 12.634705 5.190640
v -0.925604 12.957317 4.816281
v -0.680931 8.436217 1.154201
v -0.730181 8.489953 1.092691
v -0.684477 8.550168 1.037513
v -0.590034 8.556811 1.043608
v -0.540793 8.503483 1.104702
v -0.585988 8.443102 1.160118
v -1.208401 11.928526 4.212116
v -0.830347 8.985498 1.411568
v -1.298811 11.809155 4.321528
v -0.896858 8.887176 1.502773
v -0.974586 12.579877 4.659937
v -0.750486 12.362382 4.912271
v -1.325660 12.113066 5.088142
v -0.924901 12.128604 5.126906
v -0.486953 8.690698 1.383741
v -0.608636 8.801935 1.253722
v -0.776025 8.579863 1.457379
v -0.557548 8.596791 1.469886
v -1.373266 12.565241 4.620536
v -1.549932 12.332196 4.834117
v -0.817144 8.797983 1.229340
v -0.888040 8.704175 1.315344
v -1.256505 11.974880 4.844321
v -1.425359 12.140205 4.652717
v -0.954342 11.986794 4.873345
v -0.822590 12.163363 4.711238
v -0.991315 12.327458 4.520905
v -1.291916 12.316221 4.491402
vt 0.309275 0.715233
vt 0.284202 0.715233
vt 0.286826 0.210009
vt 0.309202 0.210009
vt 0.567225 0.782290
vt 0.563570 0.277066
vt 0.588530 0.277066
vt 0.588561 0.782290
vt 0.401946 0.277066
vt 0.424912 0.277066
vt 0.427581 0.782290
vt 0.409057 0.782290
vt 0.792443 0.171143
vt 0.792144 0.237610
vt 0.725725 0.270617
vt 0.659845 0.236798
vt 0.660620 0.170334
vt 0.726798 0.137688
vt 0.852097 0.137688
vt 0.862412 0.143442
vt 0.862457 0.155032
vt 0.852260 0.160868
vt 0.841982 0.155177
vt 0.841864 0.143587
vt 0.334146 0.715233
vt 0.331434 0.210009
vt 0.613693 0.277066
vt 0.610093 0.782290
vt 0.472993 0.277066
vt 0.495959 0.277066
vt 0.488816 0.782290
vt 0.470304 0.782290
vt 0.309459 0.808469
vt 0.309670 0.854611
vt 0.243492 0.854611
vt 0.264882 0.808469
vt 0.588397 0.183830
vt 0.544021 0.183830
vt 0.522376 0.137688
vt 0.588256 0.137688
vt 0.390815 0.183830
vt 0.379815 0.137688
vt 0.446279 0.137688
vt 0.435659 0.183830
vt 0.285567 0.177619
vt 0.309172 0.177619
vt 0.441653 0.782290
vt 0.441662 0.814680
vt 0.427922 0.814680
vt 0.409882 0.814680
vt 0.298872 0.137688
vt 0.309150 0.137688
vt 0.797314 0.161332
vt 0.837245 0.161216
vt 0.837245 0.171449
vt 0.797314 0.184785
vt 0.419323 0.854611
vt 0.407733 0.854611
vt 0.353676 0.808469
vt 0.375314 0.854611
vt 0.654675 0.137688
vt 0.633135 0.183830
vt 0.506824 0.183830
vt 0.461979 0.183830
vt 0.451096 0.137688
vt 0.517563 0.137688
vt 0.332621 0.177619
vt 0.456535 0.782290
vt 0.469933 0.814680
vt 0.456525 0.814680
vt 0.487974 0.814680
vt 0.319348 0.137688
vt 0.797314 0.137688
vt 0.837245 0.150901
vt 0.490310 0.854611
vt 0.478719 0.854611
vt 0.588470 0.217852
vt 0.622183 0.217852
vt 0.555028 0.217852
vt 0.396398 0.217852
vt 0.430268 0.217852
vt 0.309352 0.774447
vt 0.275760 0.774447
vt 0.342674 0.774447
vt 0.467503 0.217852
vt 0.501375 0.217852
vn 0.8049 0.4573 -0.3781
vn -0.0094 -0.6972 0.7168
vn 0.8608 -0.2981 0.4126
vn -0.0950 0.7108 0.6970
vn 0.0950 -0.7108 -0.6970
vn 0.0816 0.6926 -0.7167
vn -0.8440 -0.4256 0.3263
vn -0.8778 0.2653 -0.3988
vn 0.8042 0.1672 -0.5704
vn 0.7968 0.1397 -0.5878
vn 0.8037 0.1654 -0.5715
vn -0.0052 -0.9090 0.4167
vn -0.0050 -0.9099 0.4147
vn -0.0020 -0.9224 0.3863
vn 0.8392 -0.5347 0.0996
vn 0.8297 -0.5536 0.0712
vn 0.8392 -0.5346 0.0996
vn 0.8069 0.4630 -0.3668
vn 0.8165 0.4316 -0.3834
vn 0.8174 0.4287 -0.3849
vn 0.0367 -0.6809 0.7314
vn 0.0400 -0.7933 0.6076
vn 0.0400 -0.7962 0.6038
vn 0.8513 -0.2593 0.4562
vn 0.8685 -0.3769 0.3221
vn 0.8686 -0.3857 0.3110
vn 0.8274 0.3899 -0.4042
vn 0.0423 -0.8971 0.4398
vn 0.8555 -0.4909 0.1647
vn 0.0755 0.4034 -0.9119
vn 0.0756 0.4013 -0.9128
vn 0.0781 0.3725 -0.9247
vn -0.7250 -0.6871 0.0479
vn -0.7374 -0.6716 0.0719
vn -0.7382 -0.6705 0.0736
vn -0.7613 -0.0168 -0.6481
vn -0.7614 -0.0168 -0.6481
vn -0.7457 -0.0440 -0.6648
vn 0.0746 0.7004 -0.7098
vn 0.0651 0.6727 -0.7370
vn 0.0660 0.6753 -0.7346
vn -0.8694 -0.3872 0.3070
vn -0.8374 -0.5113 0.1931
vn -0.8386 -0.5082 0.1962
vn -0.8837 0.3032 -0.3565
vn -0.8520 0.1727 -0.4943
vn -0.8554 0.1825 -0.4848
vn 0.0546 0.6410 -0.7656
vn -0.7724 -0.6324 0.0588
vn -0.7938 0.0450 -0.6065
vn -0.7825 -0.5924 0.1918
vn -0.7822 -0.5930 0.1908
vn -0.7932 -0.5590 0.2414
vn -0.0277 -0.8385 0.5442
vn -0.0279 -0.8379 0.5452
vn -0.0413 -0.8036 0.5937
vn 0.8705 -0.4309 0.2377
vn 0.8705 -0.4310 0.2377
vn 0.8761 -0.3772 0.3004
vn 0.8214 0.2910 -0.4905
vn 0.8214 0.2900 -0.4912
vn 0.8208 0.3418 -0.4576
vn 0.0712 0.5338 -0.8426
vn 0.0712 0.5349 -0.8419
vn 0.0733 0.5852 -0.8076
vn -0.8245 0.1176 -0.5535
vn -0.8245 0.1176 -0.5536
vn -0.8455 0.1799 -0.5028
usemtl initialShadingGroup.001
s off
f 1/1/1 2/2/1 3/3/1 4/4/1
f 5/5/2 6/6/2 7/7/2 8/8/2
f 2/9/3 6/10/3 5/11/3 3/12/3
f 9/13/4 10/14/4 11/15/4 12/16/4 13/17/4 14/18/4
f 15/19/5 16/20/5 17/21/5 18/22/5 19/23/5 20/24/5
f 21/25/6 1/1/6 4/4/6 22/26/6
f 7/7/7 23/27/7 24/28/7 8/8/7
f 23/29/8 21/30/8 22/31/8 24/32/8
s 1
f 25/33/9 14/34/10 13/35/10 26/36/11
f 27/37/12 28/38/13 12/39/14 11/40/14
f 26/41/15 13/42/16 12/43/16 28/44/17
f 3/3/18 29/45/19 30/46/20 4/4/18
f 8/47/21 31/48/22 32/49/23 5/11/21
f 5/11/24 32/49/25 29/50/26 3/12/24
f 29/45/19 19/51/27 18/52/27 30/46/20
f 31/53/22 15/54/28 20/55/28 32/56/23
f 32/49/25 20/57/29 19/58/29 29/50/26
f 25/33/30 33/59/31 9/60/32 14/34/32
f 10/61/33 34/62/34 27/37/35 11/40/33
f 33/63/36 34/64/37 10/65/38 9/66/38
f 22/26/39 4/4/39 30/46/40 35/67/41
f 8/68/42 24/32/42 36/69/43 31/70/44
f 24/32/45 22/31/45 35/71/46 36/69/47
f 35/67/41 30/46/40 18/52/48 17/72/48
f 31/53/44 36/73/43 16/74/49 15/54/49
f 36/69/47 35/71/46 17/75/50 16/76/50
f 37/77/51 38/78/52 23/27/53 7/7/53
f 39/79/54 37/77/55 7/7/56 6/6/56
f 40/80/57 39/81/58 6/10/59 2/9/59
f 41/82/60 40/83/61 2/2/62 1/1/62
f 42/84/63 41/82/64 1/1/65 21/25/65
f 38/85/66 42/86/67 21/30/68 23/29/68
f 40/80/57 26/41/15 28/44/17 39/81/58
f 41/82/60 25/33/9 26/36/11 40/83/61
f 41/82/64 42/84/63 33/59/31 25/33/30
f 42/86/67 38/85/66 34/64/37 33/63/36
f 27/37/35 34/62/34 38/78/52 37/77/51
f 39/79/54 28/38/13 27/37/12 37/77/55
