# Blender v2.79 (sub 6) OBJ File: ''
# www.blender.org
mtllib flauta3_000009.mtl
o f3_Flauta_3:Flauta_2:Flauta_1:pCylinder3
v -0.229595 12.209121 8.001169
v -0.085967 12.040004 8.008690
v -0.000160 11.925990 3.931071
v -0.128328 12.076944 3.924359
v -0.069772 11.793462 3.931174
v -0.163462 11.871509 8.009171
v -0.385893 11.872754 8.002079
v -0.274060 11.764748 3.925182
v -0.711847 12.530776 9.106428
v -0.940111 12.045012 9.107662
v -0.570456 11.574216 9.127640
v 0.026944 11.592634 9.146306
v 0.251717 12.080030 9.144932
v -0.117428 12.547354 9.125032
v -0.199166 11.874676 3.341274
v -0.254399 11.952370 3.338161
v -0.214547 12.037051 3.337948
v -0.119994 12.044286 3.340827
v -0.064813 11.967173 3.343928
v -0.104135 11.882242 3.344162
v -0.450950 12.210962 7.994102
v -0.326364 12.078225 3.918042
v -0.529757 12.043082 7.994530
v -0.383251 11.939758 3.918653
v -0.179008 12.382447 8.753120
v 0.069516 12.067401 8.766525
v -0.484688 11.725879 8.754879
v -0.082155 11.738560 8.767451
v 0.014469 11.911044 3.670081
v -0.119765 12.072341 3.662996
v -0.265562 11.760005 3.663820
v -0.046994 11.778964 3.670435
v -0.579538 12.371001 8.740590
v -0.733554 12.043259 8.741423
v -0.329624 12.071629 3.656338
v -0.391400 11.939695 3.656680
v -0.438448 11.801363 8.480124
v -0.625854 12.040804 8.469982
v -0.134968 11.811208 8.489597
v -0.020394 12.059573 8.488898
v -0.207543 12.297261 8.478796
v -0.509519 12.288345 8.469354
vt 0.309275 0.715233
vt 0.284202 0.715233
vt 0.286826 0.210009
vt 0.309202 0.210009
vt 0.567225 0.782290
vt 0.563570 0.277066
vt 0.588530 0.277066
vt 0.588561 0.782290
vt 0.401946 0.277066
vt 0.424912 0.277066
vt 0.427581 0.782290
vt 0.409057 0.782290
vt 0.792443 0.171143
vt 0.792144 0.237610
vt 0.725725 0.270617
vt 0.659845 0.236798
vt 0.660620 0.170334
vt 0.726798 0.137688
vt 0.852097 0.137688
vt 0.862412 0.143442
vt 0.862457 0.155032
vt 0.852260 0.160868
vt 0.841982 0.155177
vt 0.841864 0.143587
vt 0.334146 0.715233
vt 0.331434 0.210009
vt 0.613693 0.277066
vt 0.610093 0.782290
vt 0.472993 0.277066
vt 0.495959 0.277066
vt 0.488816 0.782290
vt 0.470304 0.782290
vt 0.309459 0.808469
vt 0.309670 0.854611
vt 0.243492 0.854611
vt 0.264882 0.808469
vt 0.588397 0.183830
vt 0.544021 0.183830
vt 0.522376 0.137688
vt 0.588256 0.137688
vt 0.390815 0.183830
vt 0.379815 0.137688
vt 0.446279 0.137688
vt 0.435659 0.183830
vt 0.285567 0.177619
vt 0.309172 0.177619
vt 0.441653 0.782290
vt 0.441662 0.814680
vt 0.427922 0.814680
vt 0.409882 0.814680
vt 0.298872 0.137688
vt 0.309150 0.137688
vt 0.797314 0.161332
vt 0.837245 0.161216
vt 0.837245 0.171449
vt 0.797314 0.184785
vt 0.419323 0.854611
vt 0.407733 0.854611
vt 0.353676 0.808469
vt 0.375314 0.854611
vt 0.654675 0.137688
vt 0.633135 0.183830
vt 0.506824 0.183830
vt 0.461979 0.183830
vt 0.451096 0.137688
vt 0.517563 0.137688
vt 0.332621 0.177619
vt 0.456535 0.782290
vt 0.469933 0.814680
vt 0.456525 0.814680
vt 0.487974 0.814680
vt 0.319348 0.137688
vt 0.797314 0.137688
vt 0.837245 0.150901
vt 0.490310 0.854611
vt 0.478719 0.854611
vt 0.588470 0.217852
vt 0.622183 0.217852
vt 0.555028 0.217852
vt 0.396398 0.217852
vt 0.430268 0.217852
vt 0.309352 0.774447
vt 0.275760 0.774447
vt 0.342674 0.774447
vt 0.467503 0.217852
vt 0.501375 0.217852
vn 0.7623 0.6472 -0.0021
vn 0.0635 -0.9977 0.0244
vn 0.8981 -0.4388 0.0301
vn -0.0318 0.0175 0.9993
vn 0.0318 -0.0175 -0.9993
vn 0.0085 0.9994 -0.0322
vn -0.8064 -0.5913 -0.0102
vn -0.9136 0.4045 -0.0421
vn 0.7448 0.5732 -0.3417
vn 0.7359 0.5651 -0.3728
vn 0.7442 0.5727 -0.3437
vn 0.0400 -0.9404 -0.3377
vn 0.0401 -0.9397 -0.3398
vn 0.0404 -0.9286 -0.3689
vn 0.8479 -0.3921 -0.3567
vn 0.8359 -0.3866 -0.3896
vn 0.7653 0.6436 0.0099
vn 0.7735 0.6334 -0.0245
vn 0.7742 0.6323 -0.0277
vn 0.1107 -0.9929 0.0432
vn 0.1026 -0.9870 -0.1238
vn 0.1023 -0.9864 -0.1285
vn 0.8926 -0.4420 0.0889
vn 0.8975 -0.4318 -0.0899
vn 0.8966 -0.4304 -0.1040
vn 0.7825 0.6188 -0.0692
vn 0.0895 -0.9445 -0.3160
vn 0.8702 -0.4049 -0.2809
vn -0.0146 0.9278 -0.3729
vn -0.0146 0.9269 -0.3751
vn -0.0131 0.9147 -0.4038
vn -0.7131 -0.5765 -0.3990
vn -0.7232 -0.5829 -0.3703
vn -0.7239 -0.5834 -0.3682
vn -0.8199 0.3842 -0.4244
vn -0.8058 0.3775 -0.4563
vn 0.0021 0.9998 -0.0214
vn -0.0098 0.9982 -0.0595
vn -0.0087 0.9984 -0.0561
vn -0.8337 -0.5522 0.0045
vn -0.8121 -0.5596 -0.1654
vn -0.8130 -0.5596 -0.1610
vn -0.9156 0.4018 0.0148
vn -0.8965 0.4065 -0.1765
vn -0.8990 0.4066 -0.1627
vn -0.0228 0.9946 -0.1013
vn -0.7596 -0.5483 -0.3499
vn -0.8486 0.3972 -0.3495
vn -0.7571 -0.6128 -0.2265
vn -0.7569 -0.6126 -0.2277
vn -0.7632 -0.6242 -0.1672
vn 0.0295 -0.9801 -0.1961
vn 0.0293 -0.9804 -0.1950
vn 0.0205 -0.9906 -0.1356
vn 0.8918 -0.4116 -0.1879
vn 0.8917 -0.4116 -0.1880
vn 0.9030 -0.4164 -0.1061
vn 0.7689 0.6075 -0.1993
vn 0.7688 0.6073 -0.2005
vn 0.7712 0.6210 -0.1404
vn -0.0130 0.9726 -0.2321
vn -0.0129 0.9729 -0.2309
vn -0.0079 0.9852 -0.1714
vn -0.8744 0.4102 -0.2590
vn -0.8908 0.4180 -0.1779
usemtl initialShadingGroup.001
s off
f 1/1/1 2/2/1 3/3/1 4/4/1
f 5/5/2 6/6/2 7/7/2 8/8/2
f 2/9/3 6/10/3 5/11/3 3/12/3
f 9/13/4 10/14/4 11/15/4 12/16/4 13/17/4 14/18/4
f 15/19/5 16/20/5 17/21/5 18/22/5 19/23/5 20/24/5
f 21/25/6 1/1/6 4/4/6 22/26/6
f 7/7/7 23/27/7 24/28/7 8/8/7
f 23/29/8 21/30/8 22/31/8 24/32/8
s 1
f 25/33/9 14/34/10 13/35/10 26/36/11
f 27/37/12 28/38/13 12/39/14 11/40/14
f 26/41/15 13/42/16 12/43/16 28/44/15
f 3/3/17 29/45/18 30/46/19 4/4/17
f 8/47/20 31/48/21 32/49/22 5/11/20
f 5/11/23 32/49/24 29/50/25 3/12/23
f 29/45/18 19/51/26 18/52/26 30/46/19
f 31/53/21 15/54/27 20/55/27 32/56/22
f 32/49/24 20/57/28 19/58/28 29/50/25
f 25/33/29 33/59/30 9/60/31 14/34/31
f 10/61/32 34/62/33 27/37/34 11/40/32
f 33/63/35 34/64/35 10/65/36 9/66/36
f 22/26/37 4/4/37 30/46/38 35/67/39
f 8/68/40 24/32/40 36/69/41 31/70/42
f 24/32/43 22/31/43 35/71/44 36/69/45
f 35/67/39 30/46/38 18/52/46 17/72/46
f 31/53/42 36/73/41 16/74/47 15/54/47
f 36/69/45 35/71/44 17/75/48 16/76/48
f 37/77/49 38/78/50 23/27/51 7/7/51
f 39/79/52 37/77/53 7/7/54 6/6/54
f 40/80/55 39/81/56 6/10/57 2/9/57
f 41/82/58 40/83/59 2/2/60 1/1/60
f 42/84/61 41/82/62 1/1/63 21/25/63
f 38/85/64 42/86/64 21/30/65 23/29/65
f 40/80/55 26/41/15 28/44/15 39/81/56
f 41/82/58 25/33/9 26/36/11 40/83/59
f 41/82/62 42/84/61 33/59/30 25/33/29
f 42/86/64 38/85/64 34/64/35 33/63/35
f 27/37/34 34/62/33 38/78/50 37/77/49
f 39/79/52 28/38/13 27/37/12 37/77/53
