# Blender v2.79 (sub 6) OBJ File: 'bailarina.blend1'
# www.blender.org
mtllib Flauta3_000015.mtl
o flauta3_f3_Flauta_3:Flauta_2:Flauta_1:pCylinder3
v -3.327949 11.034800 1.923610
v -3.184364 10.959565 2.075299
v -3.128252 7.323557 0.224990
v -3.256381 7.390712 0.089593
v -3.197935 7.260726 0.341634
v -3.261947 10.879916 2.223734
v -3.484423 10.875763 2.219913
v -3.402277 7.243089 0.364596
v -3.801978 12.162468 2.171176
v -4.030497 11.932741 2.599051
v -3.660969 11.722658 3.020960
v -3.063439 11.743889 3.011928
v -2.838410 11.974297 2.582564
v -3.207430 12.182783 2.163740
v -3.331567 6.782387 -0.011430
v -3.386778 6.817179 -0.080986
v -3.346881 6.857228 -0.155575
v -3.252306 6.862588 -0.160834
v -3.197147 6.828063 -0.091794
v -3.236513 6.787910 -0.016978
v -3.549348 11.030945 1.919274
v -3.454457 7.387094 0.086038
v -3.628244 10.951553 2.067149
v -3.511415 7.321784 0.208103
v -3.271802 11.777715 2.130874
v -3.023363 11.637156 2.413220
v -3.577827 11.467271 2.709233
v -3.175206 11.481701 2.702908
v -3.115528 7.087114 0.113249
v -3.249720 7.158929 -0.031391
v -3.395681 7.011239 0.243735
v -3.177061 7.024664 0.229596
v -3.672419 11.763899 2.136129
v -3.826607 11.608902 2.424814
v -3.459623 7.154136 -0.033323
v -3.521468 7.091746 0.082890
v -3.533543 11.261779 2.511399
v -3.720884 11.368637 2.296829
v -3.229997 11.272790 2.506377
v -3.115293 11.390202 2.287584
v -3.302378 11.496254 2.074571
v -3.604419 11.485705 2.078787
vt 0.309275 0.715233
vt 0.284202 0.715233
vt 0.286826 0.210009
vt 0.309202 0.210009
vt 0.567225 0.782290
vt 0.563570 0.277066
vt 0.588530 0.277066
vt 0.588561 0.782290
vt 0.401946 0.277066
vt 0.424912 0.277066
vt 0.427581 0.782290
vt 0.409057 0.782290
vt 0.792443 0.171143
vt 0.792144 0.237610
vt 0.725725 0.270617
vt 0.659845 0.236798
vt 0.660620 0.170334
vt 0.726798 0.137688
vt 0.852097 0.137688
vt 0.862412 0.143442
vt 0.862457 0.155032
vt 0.852260 0.160868
vt 0.841982 0.155177
vt 0.841864 0.143587
vt 0.334146 0.715233
vt 0.331434 0.210009
vt 0.613693 0.277066
vt 0.610093 0.782290
vt 0.472993 0.277066
vt 0.495959 0.277066
vt 0.488816 0.782290
vt 0.470304 0.782290
vt 0.309459 0.808469
vt 0.309670 0.854611
vt 0.243492 0.854611
vt 0.264882 0.808469
vt 0.588397 0.183830
vt 0.544021 0.183830
vt 0.522376 0.137688
vt 0.588256 0.137688
vt 0.390815 0.183830
vt 0.379815 0.137688
vt 0.446279 0.137688
vt 0.435659 0.183830
vt 0.285567 0.177619
vt 0.309172 0.177619
vt 0.441653 0.782290
vt 0.441662 0.814680
vt 0.427922 0.814680
vt 0.409882 0.814680
vt 0.298872 0.137688
vt 0.309150 0.137688
vt 0.797314 0.161332
vt 0.837245 0.161216
vt 0.837245 0.171449
vt 0.797314 0.184785
vt 0.419323 0.854611
vt 0.407733 0.854611
vt 0.353676 0.808469
vt 0.375314 0.854611
vt 0.654675 0.137688
vt 0.633135 0.183830
vt 0.506824 0.183830
vt 0.461979 0.183830
vt 0.451096 0.137688
vt 0.517563 0.137688
vt 0.332621 0.177619
vt 0.456535 0.782290
vt 0.469933 0.814680
vt 0.456525 0.814680
vt 0.487974 0.814680
vt 0.319348 0.137688
vt 0.797314 0.137688
vt 0.837245 0.150901
vt 0.490310 0.854611
vt 0.478719 0.854611
vt 0.588470 0.217852
vt 0.622183 0.217852
vt 0.555028 0.217852
vt 0.396398 0.217852
vt 0.430268 0.217852
vt 0.309352 0.774447
vt 0.275760 0.774447
vt 0.342674 0.774447
vt 0.467503 0.217852
vt 0.501375 0.217852
vn 0.7626 0.3027 -0.5717
vn 0.0631 -0.4562 0.8876
vn 0.8980 -0.1894 0.3971
vn -0.0245 0.8862 0.4627
vn 0.0245 -0.8862 -0.4627
vn 0.0088 0.4496 -0.8932
vn -0.8068 -0.2864 0.5168
vn -0.9136 0.1626 -0.3727
vn 0.7426 -0.0309 -0.6690
vn 0.7335 -0.0620 -0.6768
vn 0.7420 -0.0329 -0.6696
vn 0.0370 -0.7466 0.6642
vn 0.0371 -0.7481 0.6626
vn 0.0372 -0.7684 0.6389
vn 0.8451 -0.5065 0.1712
vn 0.8328 -0.5326 0.1507
vn 0.8451 -0.5064 0.1712
vn 0.7657 0.3114 -0.5627
vn 0.7736 0.2763 -0.5703
vn 0.7743 0.2730 -0.5709
vn 0.1104 -0.4377 0.8923
vn 0.1012 -0.5814 0.8073
vn 0.1008 -0.5853 0.8045
vn 0.8930 -0.1392 0.4280
vn 0.8966 -0.2914 0.3335
vn 0.8956 -0.3031 0.3256
vn 0.7824 0.2300 -0.5788
vn 0.0866 -0.7298 0.6781
vn 0.8679 -0.4461 0.2186
vn -0.0168 0.1163 -0.9931
vn -0.0168 0.1140 -0.9933
vn -0.0156 0.0829 -0.9964
vn -0.7163 -0.6214 0.3176
vn -0.7262 -0.5992 0.3370
vn -0.7269 -0.5976 0.3384
vn -0.8227 -0.1835 -0.5380
vn -0.8228 -0.1834 -0.5380
vn -0.8089 -0.2148 -0.5473
vn 0.0025 0.4594 -0.8882
vn -0.0097 0.4252 -0.9050
vn -0.0086 0.4283 -0.9036
vn -0.8339 -0.2546 0.4896
vn -0.8136 -0.4075 0.4148
vn -0.8144 -0.4037 0.4169
vn -0.9152 0.2113 -0.3431
vn -0.8975 0.0454 -0.4387
vn -0.8999 0.0576 -0.4322
vn -0.0230 0.3868 -0.9219
vn -0.7624 -0.5645 0.3164
vn -0.8509 -0.1113 -0.5135
vn -0.7590 -0.4870 0.4321
vn -0.7589 -0.4879 0.4313
vn -0.7647 -0.4403 0.4705
vn 0.0275 -0.6412 0.7669
vn 0.0274 -0.6403 0.7676
vn 0.0189 -0.5930 0.8050
vn 0.8901 -0.3678 0.2690
vn 0.8901 -0.3679 0.2689
vn 0.9020 -0.2983 0.3122
vn 0.7677 0.1104 -0.6312
vn 0.7676 0.1092 -0.6315
vn 0.7705 0.1686 -0.6148
vn -0.0142 0.2614 -0.9651
vn -0.0141 0.2626 -0.9648
vn -0.0086 0.3207 -0.9471
vn -0.8761 -0.0254 -0.4815
vn -0.8761 -0.0255 -0.4815
vn -0.8919 0.0496 -0.4496
usemtl initialShadingGroup.009
s off
f 1/1/1 2/2/1 3/3/1 4/4/1
f 5/5/2 6/6/2 7/7/2 8/8/2
f 2/9/3 6/10/3 5/11/3 3/12/3
f 9/13/4 10/14/4 11/15/4 12/16/4 13/17/4 14/18/4
f 15/19/5 16/20/5 17/21/5 18/22/5 19/23/5 20/24/5
f 21/25/6 1/1/6 4/4/6 22/26/6
f 7/7/7 23/27/7 24/28/7 8/8/7
f 23/29/8 21/30/8 22/31/8 24/32/8
s 1
f 25/33/9 14/34/10 13/35/10 26/36/11
f 27/37/12 28/38/13 12/39/14 11/40/14
f 26/41/15 13/42/16 12/43/16 28/44/17
f 3/3/18 29/45/19 30/46/20 4/4/18
f 8/47/21 31/48/22 32/49/23 5/11/21
f 5/11/24 32/49/25 29/50/26 3/12/24
f 29/45/19 19/51/27 18/52/27 30/46/20
f 31/53/22 15/54/28 20/55/28 32/56/23
f 32/49/25 20/57/29 19/58/29 29/50/26
f 25/33/30 33/59/31 9/60/32 14/34/32
f 10/61/33 34/62/34 27/37/35 11/40/33
f 33/63/36 34/64/37 10/65/38 9/66/38
f 22/26/39 4/4/39 30/46/40 35/67/41
f 8/68/42 24/32/42 36/69/43 31/70/44
f 24/32/45 22/31/45 35/71/46 36/69/47
f 35/67/41 30/46/40 18/52/48 17/72/48
f 31/53/44 36/73/43 16/74/49 15/54/49
f 36/69/47 35/71/46 17/75/50 16/76/50
f 37/77/51 38/78/52 23/27/53 7/7/53
f 39/79/54 37/77/55 7/7/56 6/6/56
f 40/80/57 39/81/58 6/10/59 2/9/59
f 41/82/60 40/83/61 2/2/62 1/1/62
f 42/84/63 41/82/64 1/1/65 21/25/65
f 38/85/66 42/86/67 21/30/68 23/29/68
f 40/80/57 26/41/15 28/44/17 39/81/58
f 41/82/60 25/33/9 26/36/11 40/83/61
f 41/82/64 42/84/63 33/59/31 25/33/30
f 42/86/67 38/85/66 34/64/37 33/63/36
f 27/37/35 34/62/34 38/78/52 37/77/51
f 39/79/54 28/38/13 27/37/12 37/77/55
