# Blender v2.79 (sub 6) OBJ File: 'bailarina.blend1'
# www.blender.org
mtllib Flauta3_000014.mtl
o flauta3_f3_Flauta_3:Flauta_2:Flauta_1:pCylinder3
v -2.753816 10.192944 1.812034
v -2.610231 10.117709 1.963723
v -2.554119 6.481701 0.113413
v -2.682248 6.548856 -0.021983
v -2.623802 6.418870 0.230058
v -2.687814 10.038061 2.112158
v -2.910290 10.033907 2.108337
v -2.828144 6.401233 0.253020
v -3.227845 11.320612 2.059600
v -3.456364 11.090885 2.487475
v -3.086836 10.880802 2.909384
v -2.489306 10.902033 2.900352
v -2.264277 11.132441 2.470987
v -2.633297 11.340927 2.052164
v -2.757434 5.940531 -0.123006
v -2.812645 5.975323 -0.192562
v -2.772748 6.015372 -0.267151
v -2.678173 6.020732 -0.272411
v -2.623014 5.986207 -0.203370
v -2.662380 5.946054 -0.128554
v -2.975215 10.189089 1.807698
v -2.880324 6.545238 -0.025539
v -3.054111 10.109697 1.955572
v -2.937282 6.479928 0.096527
v -2.697669 10.935859 2.019298
v -2.449230 10.795300 2.301644
v -3.003695 10.625415 2.597657
v -2.601074 10.639845 2.591331
v -2.541395 6.245258 0.001673
v -2.675587 6.317073 -0.142968
v -2.821548 6.169383 0.132159
v -2.602928 6.182808 0.118020
v -3.098286 10.922043 2.024553
v -3.252475 10.767046 2.313238
v -2.885490 6.312280 -0.144899
v -2.947335 6.249891 -0.028686
v -2.959410 10.419923 2.399822
v -3.146751 10.526781 2.185252
v -2.655864 10.430934 2.394801
v -2.541160 10.548346 2.176007
v -2.728245 10.654398 1.962994
v -3.030286 10.643849 1.967210
vt 0.309275 0.715233
vt 0.284202 0.715233
vt 0.286826 0.210009
vt 0.309202 0.210009
vt 0.567225 0.782290
vt 0.563570 0.277066
vt 0.588530 0.277066
vt 0.588561 0.782290
vt 0.401946 0.277066
vt 0.424912 0.277066
vt 0.427581 0.782290
vt 0.409057 0.782290
vt 0.792443 0.171143
vt 0.792144 0.237610
vt 0.725725 0.270617
vt 0.659845 0.236798
vt 0.660620 0.170334
vt 0.726798 0.137688
vt 0.852097 0.137688
vt 0.862412 0.143442
vt 0.862457 0.155032
vt 0.852260 0.160868
vt 0.841982 0.155177
vt 0.841864 0.143587
vt 0.334146 0.715233
vt 0.331434 0.210009
vt 0.613693 0.277066
vt 0.610093 0.782290
vt 0.472993 0.277066
vt 0.495959 0.277066
vt 0.488816 0.782290
vt 0.470304 0.782290
vt 0.309459 0.808469
vt 0.309670 0.854611
vt 0.243492 0.854611
vt 0.264882 0.808469
vt 0.588397 0.183830
vt 0.544021 0.183830
vt 0.522376 0.137688
vt 0.588256 0.137688
vt 0.390815 0.183830
vt 0.379815 0.137688
vt 0.446279 0.137688
vt 0.435659 0.183830
vt 0.285567 0.177619
vt 0.309172 0.177619
vt 0.441653 0.782290
vt 0.441662 0.814680
vt 0.427922 0.814680
vt 0.409882 0.814680
vt 0.298872 0.137688
vt 0.309150 0.137688
vt 0.797314 0.161332
vt 0.837245 0.161216
vt 0.837245 0.171449
vt 0.797314 0.184785
vt 0.419323 0.854611
vt 0.407733 0.854611
vt 0.353676 0.808469
vt 0.375314 0.854611
vt 0.654675 0.137688
vt 0.633135 0.183830
vt 0.506824 0.183830
vt 0.461979 0.183830
vt 0.451096 0.137688
vt 0.517563 0.137688
vt 0.332621 0.177619
vt 0.456535 0.782290
vt 0.469933 0.814680
vt 0.456525 0.814680
vt 0.487974 0.814680
vt 0.319348 0.137688
vt 0.797314 0.137688
vt 0.837245 0.150901
vt 0.490310 0.854611
vt 0.478719 0.854611
vt 0.588470 0.217852
vt 0.622183 0.217852
vt 0.555028 0.217852
vt 0.396398 0.217852
vt 0.430268 0.217852
vt 0.309352 0.774447
vt 0.275760 0.774447
vt 0.342674 0.774447
vt 0.467503 0.217852
vt 0.501375 0.217852
vn 0.7626 0.3027 -0.5717
vn 0.0631 -0.4562 0.8876
vn 0.8980 -0.1894 0.3971
vn -0.0245 0.8862 0.4627
vn 0.0245 -0.8862 -0.4627
vn 0.0088 0.4496 -0.8932
vn -0.8068 -0.2864 0.5168
vn -0.9136 0.1626 -0.3727
vn 0.7426 -0.0309 -0.6690
vn 0.7335 -0.0620 -0.6768
vn 0.7420 -0.0329 -0.6696
vn 0.0370 -0.7466 0.6642
vn 0.0371 -0.7481 0.6626
vn 0.0372 -0.7684 0.6389
vn 0.8451 -0.5065 0.1712
vn 0.8328 -0.5326 0.1507
vn 0.8451 -0.5064 0.1712
vn 0.7657 0.3114 -0.5627
vn 0.7736 0.2763 -0.5703
vn 0.7743 0.2730 -0.5709
vn 0.1104 -0.4377 0.8923
vn 0.1012 -0.5814 0.8073
vn 0.1008 -0.5853 0.8045
vn 0.8930 -0.1392 0.4280
vn 0.8966 -0.2914 0.3335
vn 0.8956 -0.3031 0.3256
vn 0.7824 0.2300 -0.5788
vn 0.0866 -0.7298 0.6781
vn 0.8679 -0.4461 0.2186
vn -0.0168 0.1163 -0.9931
vn -0.0168 0.1140 -0.9933
vn -0.0156 0.0829 -0.9964
vn -0.7163 -0.6214 0.3176
vn -0.7262 -0.5992 0.3370
vn -0.7269 -0.5976 0.3384
vn -0.8227 -0.1835 -0.5380
vn -0.8228 -0.1834 -0.5380
vn -0.8089 -0.2148 -0.5473
vn 0.0025 0.4594 -0.8882
vn -0.0097 0.4252 -0.9050
vn -0.0086 0.4283 -0.9036
vn -0.8339 -0.2546 0.4896
vn -0.8136 -0.4075 0.4148
vn -0.8144 -0.4037 0.4169
vn -0.9152 0.2113 -0.3431
vn -0.8975 0.0454 -0.4387
vn -0.8999 0.0576 -0.4322
vn -0.0230 0.3868 -0.9219
vn -0.7624 -0.5645 0.3164
vn -0.8509 -0.1113 -0.5135
vn -0.7590 -0.4870 0.4321
vn -0.7589 -0.4879 0.4313
vn -0.7647 -0.4403 0.4705
vn 0.0275 -0.6412 0.7669
vn 0.0274 -0.6403 0.7676
vn 0.0189 -0.5930 0.8050
vn 0.8901 -0.3678 0.2690
vn 0.8901 -0.3679 0.2689
vn 0.9020 -0.2983 0.3122
vn 0.7677 0.1104 -0.6312
vn 0.7676 0.1092 -0.6315
vn 0.7705 0.1686 -0.6148
vn -0.0142 0.2614 -0.9651
vn -0.0141 0.2626 -0.9648
vn -0.0086 0.3207 -0.9471
vn -0.8761 -0.0254 -0.4815
vn -0.8761 -0.0255 -0.4815
vn -0.8919 0.0496 -0.4496
usemtl initialShadingGroup.009
s off
f 1/1/1 2/2/1 3/3/1 4/4/1
f 5/5/2 6/6/2 7/7/2 8/8/2
f 2/9/3 6/10/3 5/11/3 3/12/3
f 9/13/4 10/14/4 11/15/4 12/16/4 13/17/4 14/18/4
f 15/19/5 16/20/5 17/21/5 18/22/5 19/23/5 20/24/5
f 21/25/6 1/1/6 4/4/6 22/26/6
f 7/7/7 23/27/7 24/28/7 8/8/7
f 23/29/8 21/30/8 22/31/8 24/32/8
s 1
f 25/33/9 14/34/10 13/35/10 26/36/11
f 27/37/12 28/38/13 12/39/14 11/40/14
f 26/41/15 13/42/16 12/43/16 28/44/17
f 3/3/18 29/45/19 30/46/20 4/4/18
f 8/47/21 31/48/22 32/49/23 5/11/21
f 5/11/24 32/49/25 29/50/26 3/12/24
f 29/45/19 19/51/27 18/52/27 30/46/20
f 31/53/22 15/54/28 20/55/28 32/56/23
f 32/49/25 20/57/29 19/58/29 29/50/26
f 25/33/30 33/59/31 9/60/32 14/34/32
f 10/61/33 34/62/34 27/37/35 11/40/33
f 33/63/36 34/64/37 10/65/38 9/66/38
f 22/26/39 4/4/39 30/46/40 35/67/41
f 8/68/42 24/32/42 36/69/43 31/70/44
f 24/32/45 22/31/45 35/71/46 36/69/47
f 35/67/41 30/46/40 18/52/48 17/72/48
f 31/53/44 36/73/43 16/74/49 15/54/49
f 36/69/47 35/71/46 17/75/50 16/76/50
f 37/77/51 38/78/52 23/27/53 7/7/53
f 39/79/54 37/77/55 7/7/56 6/6/56
f 40/80/57 39/81/58 6/10/59 2/9/59
f 41/82/60 40/83/61 2/2/62 1/1/62
f 42/84/63 41/82/64 1/1/65 21/25/65
f 38/85/66 42/86/67 21/30/68 23/29/68
f 40/80/57 26/41/15 28/44/17 39/81/58
f 41/82/60 25/33/9 26/36/11 40/83/61
f 41/82/64 42/84/63 33/59/31 25/33/30
f 42/86/67 38/85/66 34/64/37 33/63/36
f 27/37/35 34/62/34 38/78/52 37/77/51
f 39/79/54 28/38/13 27/37/12 37/77/55
