# Blender v2.79 (sub 6) OBJ File: 'bailarina.blend1'
# www.blender.org
mtllib Flauta3_000004.mtl
o flauta3_f3_Flauta_3:Flauta_2:Flauta_1:pCylinder3
v -1.343795 11.354711 3.153319
v -1.213485 11.272428 3.313117
v -0.906699 7.759815 1.260124
v -1.022979 7.833261 1.117493
v -0.985651 7.688778 1.365623
v -1.302920 11.182508 3.448439
v -1.523920 11.175147 3.423290
v -1.190823 7.666577 1.367992
v -1.862877 12.457308 3.422507
v -2.125535 12.197899 3.812109
v -1.792776 11.967752 4.253693
v -1.197618 11.998778 4.302674
v -0.938308 12.258903 3.911301
v -1.270817 12.487273 3.472735
v -1.075378 7.231300 0.973215
v -1.124556 7.269488 0.900967
v -1.078709 7.314713 0.833055
v -0.984192 7.321856 0.837123
v -0.935022 7.283967 0.908871
v -0.980361 7.238633 0.977052
v -1.563680 11.347695 3.127779
v -1.219728 7.826797 1.094954
v -1.654375 11.258047 3.262434
v -1.286469 7.753147 1.206896
v -1.323174 12.084082 3.409492
v -1.099347 11.930115 3.705115
v -1.675361 11.733564 3.936395
v -1.274319 11.754609 3.969168
v -0.878521 7.531003 1.136010
v -1.000069 7.609580 0.983899
v -1.167987 7.442821 1.234511
v -0.949340 7.460492 1.242009
v -1.722133 12.063747 3.375882
v -1.899356 11.888726 3.638744
v -1.208716 7.601658 0.961783
v -1.279836 7.531211 1.067622
v -1.608360 11.541483 3.731596
v -1.777005 11.658554 3.507077
v -1.305983 11.557496 3.756063
v -1.173810 11.690052 3.556632
v -1.342329 11.806227 3.333635
v -1.643142 11.790747 3.308540
vt 0.309275 0.715233
vt 0.284202 0.715233
vt 0.286826 0.210009
vt 0.309202 0.210009
vt 0.567225 0.782290
vt 0.563570 0.277066
vt 0.588530 0.277066
vt 0.588561 0.782290
vt 0.401946 0.277066
vt 0.424912 0.277066
vt 0.427581 0.782290
vt 0.409057 0.782290
vt 0.792443 0.171143
vt 0.792144 0.237610
vt 0.725725 0.270617
vt 0.659845 0.236798
vt 0.660620 0.170334
vt 0.726798 0.137688
vt 0.852097 0.137688
vt 0.862412 0.143442
vt 0.862457 0.155032
vt 0.852260 0.160868
vt 0.841982 0.155177
vt 0.841864 0.143587
vt 0.334146 0.715233
vt 0.331434 0.210009
vt 0.613693 0.277066
vt 0.610093 0.782290
vt 0.472993 0.277066
vt 0.495959 0.277066
vt 0.488816 0.782290
vt 0.470304 0.782290
vt 0.309459 0.808469
vt 0.309670 0.854611
vt 0.243492 0.854611
vt 0.264882 0.808469
vt 0.588397 0.183830
vt 0.544021 0.183830
vt 0.522376 0.137688
vt 0.588256 0.137688
vt 0.390815 0.183830
vt 0.379815 0.137688
vt 0.446279 0.137688
vt 0.435659 0.183830
vt 0.285567 0.177619
vt 0.309172 0.177619
vt 0.441653 0.782290
vt 0.441662 0.814680
vt 0.427922 0.814680
vt 0.409882 0.814680
vt 0.298872 0.137688
vt 0.309150 0.137688
vt 0.797314 0.161332
vt 0.837245 0.161216
vt 0.837245 0.171449
vt 0.797314 0.184785
vt 0.419323 0.854611
vt 0.407733 0.854611
vt 0.353676 0.808469
vt 0.375314 0.854611
vt 0.654675 0.137688
vt 0.633135 0.183830
vt 0.506824 0.183830
vt 0.461979 0.183830
vt 0.451096 0.137688
vt 0.517563 0.137688
vt 0.332621 0.177619
vt 0.456535 0.782290
vt 0.469933 0.814680
vt 0.456525 0.814680
vt 0.487974 0.814680
vt 0.319348 0.137688
vt 0.797314 0.137688
vt 0.837245 0.150901
vt 0.490310 0.854611
vt 0.478719 0.854611
vt 0.588470 0.217852
vt 0.622183 0.217852
vt 0.555028 0.217852
vt 0.396398 0.217852
vt 0.430268 0.217852
vt 0.309352 0.774447
vt 0.275760 0.774447
vt 0.342674 0.774447
vt 0.467503 0.217852
vt 0.501375 0.217852
vn 0.8062 0.3494 -0.4774
vn -0.0107 -0.5095 0.8604
vn 0.8607 -0.1998 0.4683
vn -0.0866 0.8552 0.5110
vn 0.0866 -0.8552 -0.5110
vn 0.0829 0.5044 -0.8595
vn -0.8453 -0.3305 0.4197
vn -0.8779 0.1712 -0.4471
vn 0.8025 0.0223 -0.5962
vn 0.7949 -0.0084 -0.6067
vn 0.8020 0.0204 -0.5969
vn -0.0095 -0.7858 0.6184
vn -0.0092 -0.7871 0.6167
vn -0.0065 -0.8059 0.5920
vn 0.8359 -0.5029 0.2197
vn 0.8262 -0.5280 0.1965
vn 0.8083 0.3576 -0.4677
vn 0.8176 0.3232 -0.4766
vn 0.8184 0.3199 -0.4773
vn 0.0356 -0.4905 0.8707
vn 0.0375 -0.6288 0.7766
vn 0.0375 -0.6325 0.7736
vn 0.8517 -0.1517 0.5016
vn 0.8674 -0.2976 0.3988
vn 0.8674 -0.3088 0.3901
vn 0.8281 0.2776 -0.4870
vn 0.0383 -0.7692 0.6379
vn 0.8529 -0.4453 0.2726
vn 0.0738 0.1776 -0.9813
vn 0.0739 0.1753 -0.9817
vn 0.0761 0.1445 -0.9866
vn -0.7295 -0.6510 0.2101
vn -0.7417 -0.6302 0.2298
vn -0.7425 -0.6287 0.2312
vn -0.7646 -0.1625 -0.6237
vn -0.7646 -0.1624 -0.6237
vn -0.7493 -0.1929 -0.6336
vn 0.0759 0.5137 -0.8546
vn 0.0661 0.4804 -0.8745
vn 0.0670 0.4835 -0.8728
vn -0.8705 -0.2975 0.3920
vn -0.8400 -0.4450 0.3104
vn -0.8411 -0.4414 0.3126
vn -0.8833 0.2180 -0.4149
vn -0.8532 0.0586 -0.5183
vn -0.8565 0.0704 -0.5114
vn 0.0553 0.4430 -0.8948
vn -0.7765 -0.5948 0.2080
vn -0.7964 -0.0924 -0.5976
vn -0.7856 -0.5246 0.3280
vn -0.7854 -0.5255 0.3271
vn -0.7959 -0.4805 0.3684
vn -0.0308 -0.6871 0.7259
vn -0.0310 -0.6863 0.7267
vn -0.0440 -0.6415 0.7659
vn 0.8687 -0.3700 0.3295
vn 0.8687 -0.3700 0.3294
vn 0.8749 -0.3031 0.3778
vn 0.8210 0.1613 -0.5477
vn 0.8209 0.1602 -0.5481
vn 0.8209 0.2184 -0.5276
vn 0.0708 0.3207 -0.9445
vn 0.0708 0.3218 -0.9441
vn 0.0734 0.3788 -0.9226
vn -0.8263 -0.0091 -0.5631
vn -0.8467 0.0636 -0.5283
usemtl initialShadingGroup.009
s off
f 1/1/1 2/2/1 3/3/1 4/4/1
f 5/5/2 6/6/2 7/7/2 8/8/2
f 2/9/3 6/10/3 5/11/3 3/12/3
f 9/13/4 10/14/4 11/15/4 12/16/4 13/17/4 14/18/4
f 15/19/5 16/20/5 17/21/5 18/22/5 19/23/5 20/24/5
f 21/25/6 1/1/6 4/4/6 22/26/6
f 7/7/7 23/27/7 24/28/7 8/8/7
f 23/29/8 21/30/8 22/31/8 24/32/8
s 1
f 25/33/9 14/34/10 13/35/10 26/36/11
f 27/37/12 28/38/13 12/39/14 11/40/14
f 26/41/15 13/42/16 12/43/16 28/44/15
f 3/3/17 29/45/18 30/46/19 4/4/17
f 8/47/20 31/48/21 32/49/22 5/11/20
f 5/11/23 32/49/24 29/50/25 3/12/23
f 29/45/18 19/51/26 18/52/26 30/46/19
f 31/53/21 15/54/27 20/55/27 32/56/22
f 32/49/24 20/57/28 19/58/28 29/50/25
f 25/33/29 33/59/30 9/60/31 14/34/31
f 10/61/32 34/62/33 27/37/34 11/40/32
f 33/63/35 34/64/36 10/65/37 9/66/37
f 22/26/38 4/4/38 30/46/39 35/67/40
f 8/68/41 24/32/41 36/69/42 31/70/43
f 24/32/44 22/31/44 35/71/45 36/69/46
f 35/67/40 30/46/39 18/52/47 17/72/47
f 31/53/43 36/73/42 16/74/48 15/54/48
f 36/69/46 35/71/45 17/75/49 16/76/49
f 37/77/50 38/78/51 23/27/52 7/7/52
f 39/79/53 37/77/54 7/7/55 6/6/55
f 40/80/56 39/81/57 6/10/58 2/9/58
f 41/82/59 40/83/60 2/2/61 1/1/61
f 42/84/62 41/82/63 1/1/64 21/25/64
f 38/85/65 42/86/65 21/30/66 23/29/66
f 40/80/56 26/41/15 28/44/15 39/81/57
f 41/82/59 25/33/9 26/36/11 40/83/60
f 41/82/63 42/84/62 33/59/30 25/33/29
f 42/86/65 38/85/65 34/64/36 33/63/35
f 27/37/34 34/62/33 38/78/51 37/77/50
f 39/79/53 28/38/13 27/37/12 37/77/54
