# Blender v2.79 (sub 6) OBJ File: ''
# www.blender.org
mtllib flauta3_000010.mtl
o f3_Flauta_3:Flauta_2:Flauta_1:pCylinder3
v -0.025751 12.209121 8.332417
v 0.117877 12.040004 8.339937
v 0.203685 11.925990 4.262318
v 0.075517 12.076944 4.255606
v 0.134073 11.793462 4.262421
v 0.040383 11.871509 8.340418
v -0.182048 11.872754 8.333326
v -0.070215 11.764748 4.256430
v -0.508003 12.530776 9.437675
v -0.736266 12.045012 9.438910
v -0.366611 11.574216 9.458887
v 0.230789 11.592634 9.477553
v 0.455562 12.080030 9.476179
v 0.086416 12.547354 9.456280
v 0.004678 11.874676 3.672521
v -0.050554 11.952370 3.669408
v -0.010702 12.037051 3.669195
v 0.083851 12.044286 3.672074
v 0.139032 11.967173 3.675175
v 0.099710 11.882242 3.675410
v -0.247106 12.210962 8.325349
v -0.122519 12.078225 4.249289
v -0.325913 12.043082 8.325777
v -0.179406 11.939758 4.249901
v 0.024837 12.382447 9.084368
v 0.273360 12.067401 9.097773
v -0.280844 11.725879 9.086126
v 0.121690 11.738560 9.098699
v 0.218313 11.911044 4.001328
v 0.084080 12.072341 3.994243
v -0.061717 11.760005 3.995067
v 0.156850 11.778964 4.001683
v -0.375693 12.371001 9.071837
v -0.529709 12.043259 9.072670
v -0.125779 12.071629 3.987585
v -0.187556 11.939695 3.987927
v -0.234604 11.801363 8.811370
v -0.422009 12.040804 8.801229
v 0.068876 11.811208 8.820845
v 0.183450 12.059573 8.820146
v -0.003699 12.297261 8.810043
v -0.305674 12.288345 8.800602
vt 0.309275 0.715233
vt 0.284202 0.715233
vt 0.286826 0.210009
vt 0.309202 0.210009
vt 0.567225 0.782290
vt 0.563570 0.277066
vt 0.588530 0.277066
vt 0.588561 0.782290
vt 0.401946 0.277066
vt 0.424912 0.277066
vt 0.427581 0.782290
vt 0.409057 0.782290
vt 0.792443 0.171143
vt 0.792144 0.237610
vt 0.725725 0.270617
vt 0.659845 0.236798
vt 0.660620 0.170334
vt 0.726798 0.137688
vt 0.852097 0.137688
vt 0.862412 0.143442
vt 0.862457 0.155032
vt 0.852260 0.160868
vt 0.841982 0.155177
vt 0.841864 0.143587
vt 0.334146 0.715233
vt 0.331434 0.210009
vt 0.613693 0.277066
vt 0.610093 0.782290
vt 0.472993 0.277066
vt 0.495959 0.277066
vt 0.488816 0.782290
vt 0.470304 0.782290
vt 0.309459 0.808469
vt 0.309670 0.854611
vt 0.243492 0.854611
vt 0.264882 0.808469
vt 0.588397 0.183830
vt 0.544021 0.183830
vt 0.522376 0.137688
vt 0.588256 0.137688
vt 0.390815 0.183830
vt 0.379815 0.137688
vt 0.446279 0.137688
vt 0.435659 0.183830
vt 0.285567 0.177619
vt 0.309172 0.177619
vt 0.441653 0.782290
vt 0.441662 0.814680
vt 0.427922 0.814680
vt 0.409882 0.814680
vt 0.298872 0.137688
vt 0.309150 0.137688
vt 0.797314 0.161332
vt 0.837245 0.161216
vt 0.837245 0.171449
vt 0.797314 0.184785
vt 0.419323 0.854611
vt 0.407733 0.854611
vt 0.353676 0.808469
vt 0.375314 0.854611
vt 0.654675 0.137688
vt 0.633135 0.183830
vt 0.506824 0.183830
vt 0.461979 0.183830
vt 0.451096 0.137688
vt 0.517563 0.137688
vt 0.332621 0.177619
vt 0.456535 0.782290
vt 0.469933 0.814680
vt 0.456525 0.814680
vt 0.487974 0.814680
vt 0.319348 0.137688
vt 0.797314 0.137688
vt 0.837245 0.150901
vt 0.490310 0.854611
vt 0.478719 0.854611
vt 0.588470 0.217852
vt 0.622183 0.217852
vt 0.555028 0.217852
vt 0.396398 0.217852
vt 0.430268 0.217852
vt 0.309352 0.774447
vt 0.275760 0.774447
vt 0.342674 0.774447
vt 0.467503 0.217852
vt 0.501375 0.217852
vn 0.7623 0.6472 -0.0021
vn 0.0635 -0.9977 0.0244
vn 0.8981 -0.4388 0.0301
vn -0.0318 0.0175 0.9993
vn 0.0318 -0.0175 -0.9993
vn 0.0085 0.9994 -0.0322
vn -0.8064 -0.5913 -0.0102
vn -0.9136 0.4045 -0.0421
vn 0.7448 0.5732 -0.3417
vn 0.7359 0.5651 -0.3728
vn 0.7442 0.5727 -0.3437
vn 0.0400 -0.9404 -0.3377
vn 0.0401 -0.9397 -0.3398
vn 0.0404 -0.9286 -0.3689
vn 0.8479 -0.3921 -0.3568
vn 0.8359 -0.3866 -0.3896
vn 0.8479 -0.3921 -0.3567
vn 0.7653 0.6436 0.0099
vn 0.7735 0.6334 -0.0245
vn 0.7742 0.6323 -0.0277
vn 0.1107 -0.9929 0.0432
vn 0.1026 -0.9870 -0.1238
vn 0.1023 -0.9864 -0.1285
vn 0.8926 -0.4420 0.0889
vn 0.8975 -0.4318 -0.0899
vn 0.8966 -0.4304 -0.1040
vn 0.7825 0.6188 -0.0692
vn 0.0895 -0.9445 -0.3160
vn 0.8702 -0.4049 -0.2809
vn -0.0146 0.9278 -0.3729
vn -0.0146 0.9269 -0.3751
vn -0.0131 0.9147 -0.4038
vn -0.7131 -0.5765 -0.3990
vn -0.7232 -0.5829 -0.3703
vn -0.7239 -0.5834 -0.3682
vn -0.8199 0.3842 -0.4244
vn -0.8058 0.3775 -0.4563
vn 0.0021 0.9998 -0.0214
vn -0.0098 0.9982 -0.0595
vn -0.0087 0.9984 -0.0561
vn -0.8337 -0.5522 0.0045
vn -0.8121 -0.5596 -0.1654
vn -0.8130 -0.5596 -0.1610
vn -0.9156 0.4019 0.0148
vn -0.8965 0.4065 -0.1765
vn -0.8990 0.4066 -0.1627
vn -0.0228 0.9946 -0.1013
vn -0.7596 -0.5483 -0.3499
vn -0.8486 0.3972 -0.3495
vn -0.7571 -0.6128 -0.2265
vn -0.7569 -0.6126 -0.2277
vn -0.7632 -0.6242 -0.1672
vn 0.0295 -0.9801 -0.1961
vn 0.0293 -0.9804 -0.1950
vn 0.0205 -0.9906 -0.1356
vn 0.8918 -0.4117 -0.1879
vn 0.8917 -0.4116 -0.1880
vn 0.9030 -0.4164 -0.1061
vn 0.7689 0.6075 -0.1993
vn 0.7688 0.6073 -0.2005
vn 0.7712 0.6210 -0.1404
vn -0.0130 0.9726 -0.2321
vn -0.0129 0.9729 -0.2309
vn -0.0079 0.9852 -0.1714
vn -0.8744 0.4102 -0.2590
vn -0.8908 0.4180 -0.1779
usemtl initialShadingGroup.001
s off
f 1/1/1 2/2/1 3/3/1 4/4/1
f 5/5/2 6/6/2 7/7/2 8/8/2
f 2/9/3 6/10/3 5/11/3 3/12/3
f 9/13/4 10/14/4 11/15/4 12/16/4 13/17/4 14/18/4
f 15/19/5 16/20/5 17/21/5 18/22/5 19/23/5 20/24/5
f 21/25/6 1/1/6 4/4/6 22/26/6
f 7/7/7 23/27/7 24/28/7 8/8/7
f 23/29/8 21/30/8 22/31/8 24/32/8
s 1
f 25/33/9 14/34/10 13/35/10 26/36/11
f 27/37/12 28/38/13 12/39/14 11/40/14
f 26/41/15 13/42/16 12/43/16 28/44/17
f 3/3/18 29/45/19 30/46/20 4/4/18
f 8/47/21 31/48/22 32/49/23 5/11/21
f 5/11/24 32/49/25 29/50/26 3/12/24
f 29/45/19 19/51/27 18/52/27 30/46/20
f 31/53/22 15/54/28 20/55/28 32/56/23
f 32/49/25 20/57/29 19/58/29 29/50/26
f 25/33/30 33/59/31 9/60/32 14/34/32
f 10/61/33 34/62/34 27/37/35 11/40/33
f 33/63/36 34/64/36 10/65/37 9/66/37
f 22/26/38 4/4/38 30/46/39 35/67/40
f 8/68/41 24/32/41 36/69/42 31/70/43
f 24/32/44 22/31/44 35/71/45 36/69/46
f 35/67/40 30/46/39 18/52/47 17/72/47
f 31/53/43 36/73/42 16/74/48 15/54/48
f 36/69/46 35/71/45 17/75/49 16/76/49
f 37/77/50 38/78/51 23/27/52 7/7/52
f 39/79/53 37/77/54 7/7/55 6/6/55
f 40/80/56 39/81/57 6/10/58 2/9/58
f 41/82/59 40/83/60 2/2/61 1/1/61
f 42/84/62 41/82/63 1/1/64 21/25/64
f 38/85/65 42/86/65 21/30/66 23/29/66
f 40/80/56 26/41/15 28/44/17 39/81/57
f 41/82/59 25/33/9 26/36/11 40/83/60
f 41/82/63 42/84/62 33/59/31 25/33/30
f 42/86/65 38/85/65 34/64/36 33/63/36
f 27/37/35 34/62/34 38/78/51 37/77/50
f 39/79/53 28/38/13 27/37/12 37/77/54
