# Blender v2.79 (sub 6) OBJ File: 'bailarina.blend1'
# www.blender.org
mtllib Flauta3_000008.mtl
o flauta3_f3_Flauta_3:Flauta_2:Flauta_1:pCylinder3
v -0.175400 12.167908 5.810102
v -0.031815 11.998829 5.819164
v 0.024297 11.822482 1.743247
v -0.103832 11.973402 1.735159
v -0.045386 11.690018 1.745880
v -0.109398 11.830413 5.822783
v -0.331874 11.831698 5.817286
v -0.249728 11.661352 1.741811
v -0.649429 12.506731 6.913788
v -0.877947 12.021195 6.924101
v -0.508420 11.550512 6.948587
v 0.089110 11.568815 6.962635
v 0.314139 12.055983 6.952182
v -0.054881 12.523194 6.927823
v -0.179018 11.762297 1.155763
v -0.234229 11.839972 1.151864
v -0.194332 11.924613 1.150067
v -0.099757 11.931828 1.152149
v -0.044598 11.854734 1.156028
v -0.083964 11.769843 1.157845
v -0.396799 12.169788 5.804614
v -0.301908 11.974719 1.730261
v -0.475695 12.001987 5.808180
v -0.358866 11.836315 1.733401
v -0.119253 12.352667 6.558931
v 0.129186 12.037696 6.575345
v -0.425278 11.696406 6.572939
v -0.022657 11.709009 6.582396
v 0.037021 11.803541 1.482416
v -0.097171 11.964801 1.473842
v -0.243132 11.652611 1.480496
v -0.024512 11.671524 1.485235
v -0.519870 12.341298 6.549484
v -0.674058 12.013709 6.556442
v -0.307074 11.964127 1.468719
v -0.368919 11.832255 1.471525
v -0.380994 11.767653 6.296734
v -0.568335 12.007036 6.284296
v -0.077448 11.777439 6.303854
v 0.037257 12.025688 6.298530
v -0.149829 12.263320 6.286154
v -0.451869 12.254462 6.279041
vt 0.309275 0.715233
vt 0.284202 0.715233
vt 0.286826 0.210009
vt 0.309202 0.210009
vt 0.567225 0.782290
vt 0.563570 0.277066
vt 0.588530 0.277066
vt 0.588561 0.782290
vt 0.401946 0.277066
vt 0.424912 0.277066
vt 0.427581 0.782290
vt 0.409057 0.782290
vt 0.792443 0.171143
vt 0.792144 0.237610
vt 0.725725 0.270617
vt 0.659845 0.236798
vt 0.660620 0.170334
vt 0.726798 0.137688
vt 0.852097 0.137688
vt 0.862412 0.143442
vt 0.862457 0.155032
vt 0.852260 0.160868
vt 0.841982 0.155177
vt 0.841864 0.143587
vt 0.334146 0.715233
vt 0.331434 0.210009
vt 0.613693 0.277066
vt 0.610093 0.782290
vt 0.472993 0.277066
vt 0.495959 0.277066
vt 0.488816 0.782290
vt 0.470304 0.782290
vt 0.309459 0.808469
vt 0.309670 0.854611
vt 0.243492 0.854611
vt 0.264882 0.808469
vt 0.588397 0.183830
vt 0.544021 0.183830
vt 0.522376 0.137688
vt 0.588256 0.137688
vt 0.390815 0.183830
vt 0.379815 0.137688
vt 0.446279 0.137688
vt 0.435659 0.183830
vt 0.285567 0.177619
vt 0.309172 0.177619
vt 0.441653 0.782290
vt 0.441662 0.814680
vt 0.427922 0.814680
vt 0.409882 0.814680
vt 0.298872 0.137688
vt 0.309150 0.137688
vt 0.797314 0.161332
vt 0.837245 0.161216
vt 0.837245 0.171449
vt 0.797314 0.184785
vt 0.419323 0.854611
vt 0.407733 0.854611
vt 0.353676 0.808469
vt 0.375314 0.854611
vt 0.654675 0.137688
vt 0.633135 0.183830
vt 0.506824 0.183830
vt 0.461979 0.183830
vt 0.451096 0.137688
vt 0.517563 0.137688
vt 0.332621 0.177619
vt 0.456535 0.782290
vt 0.469933 0.814680
vt 0.456525 0.814680
vt 0.487974 0.814680
vt 0.319348 0.137688
vt 0.797314 0.137688
vt 0.837245 0.150901
vt 0.490310 0.854611
vt 0.478719 0.854611
vt 0.588470 0.217852
vt 0.622183 0.217852
vt 0.555028 0.217852
vt 0.396398 0.217852
vt 0.430268 0.217852
vt 0.309352 0.774447
vt 0.275760 0.774447
vt 0.342674 0.774447
vt 0.467503 0.217852
vt 0.501375 0.217852
vn 0.7626 0.6466 -0.0175
vn 0.0631 -0.9972 0.0391
vn 0.8980 -0.4389 0.0303
vn -0.0245 0.0327 0.9992
vn 0.0245 -0.0327 -0.9992
vn 0.0088 0.9988 -0.0476
vn -0.8068 -0.5909 0.0047
vn -0.9136 0.4044 -0.0416
vn 0.7426 0.5674 -0.3558
vn 0.7335 0.5589 -0.3868
vn 0.7420 0.5669 -0.3578
vn 0.0370 -0.9455 -0.3236
vn 0.0371 -0.9448 -0.3256
vn 0.0372 -0.9341 -0.3550
vn 0.8451 -0.3981 -0.3569
vn 0.8328 -0.3931 -0.3897
vn 0.8451 -0.3981 -0.3568
vn 0.7657 0.6431 -0.0055
vn 0.7736 0.6324 -0.0398
vn 0.7743 0.6313 -0.0430
vn 0.1104 -0.9922 0.0576
vn 0.1012 -0.9888 -0.1094
vn 0.1008 -0.9883 -0.1141
vn 0.8930 -0.4412 0.0892
vn 0.8966 -0.4337 -0.0898
vn 0.8956 -0.4325 -0.1039
vn 0.7824 0.6171 -0.0843
vn 0.0866 -0.9493 -0.3022
vn 0.8679 -0.4097 -0.2810
vn -0.0168 0.9220 -0.3869
vn -0.0168 0.9210 -0.3891
vn -0.0156 0.9085 -0.4177
vn -0.7163 -0.5820 -0.3850
vn -0.7262 -0.5880 -0.3560
vn -0.7269 -0.5885 -0.3540
vn -0.8227 0.3782 -0.4243
vn -0.8228 0.3783 -0.4242
vn -0.8089 0.3710 -0.4561
vn 0.0025 0.9993 -0.0367
vn -0.0097 0.9972 -0.0747
vn -0.0086 0.9974 -0.0712
vn -0.8339 -0.5515 0.0190
vn -0.8136 -0.5615 -0.1509
vn -0.8144 -0.5615 -0.1466
vn -0.9152 0.4026 0.0153
vn -0.8975 0.4043 -0.1762
vn -0.8999 0.4047 -0.1624
vn -0.0230 0.9929 -0.1164
vn -0.7624 -0.5531 -0.3360
vn -0.8509 0.3924 -0.3494
vn -0.7590 -0.6157 -0.2116
vn -0.7589 -0.6155 -0.2128
vn -0.7647 -0.6262 -0.1521
vn 0.0275 -0.9830 -0.1813
vn 0.0274 -0.9833 -0.1802
vn 0.0189 -0.9925 -0.1206
vn 0.8901 -0.4151 -0.1880
vn 0.8901 -0.4151 -0.1881
vn 0.9020 -0.4185 -0.1063
vn 0.7677 0.6039 -0.2142
vn 0.7676 0.6036 -0.2153
vn 0.7705 0.6182 -0.1554
vn -0.0142 0.9689 -0.2469
vn -0.0141 0.9693 -0.2457
vn -0.0086 0.9824 -0.1864
vn -0.8761 0.4068 -0.2589
vn -0.8919 0.4158 -0.1778
usemtl initialShadingGroup.009
s off
f 1/1/1 2/2/1 3/3/1 4/4/1
f 5/5/2 6/6/2 7/7/2 8/8/2
f 2/9/3 6/10/3 5/11/3 3/12/3
f 9/13/4 10/14/4 11/15/4 12/16/4 13/17/4 14/18/4
f 15/19/5 16/20/5 17/21/5 18/22/5 19/23/5 20/24/5
f 21/25/6 1/1/6 4/4/6 22/26/6
f 7/7/7 23/27/7 24/28/7 8/8/7
f 23/29/8 21/30/8 22/31/8 24/32/8
s 1
f 25/33/9 14/34/10 13/35/10 26/36/11
f 27/37/12 28/38/13 12/39/14 11/40/14
f 26/41/15 13/42/16 12/43/16 28/44/17
f 3/3/18 29/45/19 30/46/20 4/4/18
f 8/47/21 31/48/22 32/49/23 5/11/21
f 5/11/24 32/49/25 29/50/26 3/12/24
f 29/45/19 19/51/27 18/52/27 30/46/20
f 31/53/22 15/54/28 20/55/28 32/56/23
f 32/49/25 20/57/29 19/58/29 29/50/26
f 25/33/30 33/59/31 9/60/32 14/34/32
f 10/61/33 34/62/34 27/37/35 11/40/33
f 33/63/36 34/64/37 10/65/38 9/66/38
f 22/26/39 4/4/39 30/46/40 35/67/41
f 8/68/42 24/32/42 36/69/43 31/70/44
f 24/32/45 22/31/45 35/71/46 36/69/47
f 35/67/41 30/46/40 18/52/48 17/72/48
f 31/53/44 36/73/43 16/74/49 15/54/49
f 36/69/47 35/71/46 17/75/50 16/76/50
f 37/77/51 38/78/52 23/27/53 7/7/53
f 39/79/54 37/77/55 7/7/56 6/6/56
f 40/80/57 39/81/58 6/10/59 2/9/59
f 41/82/60 40/83/61 2/2/62 1/1/62
f 42/84/63 41/82/64 1/1/65 21/25/65
f 38/85/66 42/86/66 21/30/67 23/29/67
f 40/80/57 26/41/15 28/44/17 39/81/58
f 41/82/60 25/33/9 26/36/11 40/83/61
f 41/82/64 42/84/63 33/59/31 25/33/30
f 42/86/66 38/85/66 34/64/37 33/63/36
f 27/37/35 34/62/34 38/78/52 37/77/51
f 39/79/54 28/38/13 27/37/12 37/77/55
