# Blender v2.79 (sub 6) OBJ File: 'bailarina.blend1'
# www.blender.org
mtllib Flauta3_000013.mtl
o flauta3_f3_Flauta_3:Flauta_2:Flauta_1:pCylinder3
v -0.307602 11.432484 3.733633
v -0.164017 11.308293 3.848726
v -0.107904 8.566149 0.827989
v -0.236034 8.677002 0.725258
v -0.177588 8.465996 0.914726
v -0.241599 11.181131 3.959210
v -0.464075 11.178604 3.954163
v -0.381930 8.441356 0.929929
v -0.781630 12.398780 4.365453
v -1.010149 12.032101 4.683884
v -0.640621 11.685905 5.003713
v -0.043091 11.708960 5.002807
v 0.181938 12.076803 4.683225
v -0.187082 12.420411 4.365714
v -0.311220 8.144179 0.414828
v -0.366430 8.201401 0.362158
v -0.326534 8.265324 0.306648
v -0.231959 8.272202 0.303634
v -0.176799 8.215414 0.355918
v -0.216166 8.151313 0.411603
v -0.529001 11.430419 3.728210
v -0.434110 8.674882 0.720650
v -0.607896 11.303697 3.838261
v -0.491068 8.570487 0.811574
v -0.251455 12.053404 4.191168
v -0.003016 11.821755 4.405211
v -0.557480 11.557837 4.621620
v -0.154859 11.573574 4.620830
v -0.095181 8.384785 0.639579
v -0.229373 8.503276 0.529860
v -0.375334 8.267524 0.734624
v -0.156714 8.285094 0.726172
v -0.652071 12.038622 4.191175
v -0.806260 11.791225 4.406019
v -0.439275 8.499481 0.526353
v -0.501121 8.399895 0.612843
v -0.513196 11.435976 4.363713
v -0.700537 11.612057 4.201064
v -0.209649 11.448052 4.362929
v -0.094945 11.635498 4.200078
v -0.282030 11.810272 4.038599
v -0.584071 11.798914 4.038795
vt 0.309275 0.715233
vt 0.284202 0.715233
vt 0.286826 0.210009
vt 0.309202 0.210009
vt 0.567225 0.782290
vt 0.563570 0.277066
vt 0.588530 0.277066
vt 0.588561 0.782290
vt 0.401946 0.277066
vt 0.424912 0.277066
vt 0.427581 0.782290
vt 0.409057 0.782290
vt 0.792443 0.171143
vt 0.792144 0.237610
vt 0.725725 0.270617
vt 0.659845 0.236798
vt 0.660620 0.170334
vt 0.726798 0.137688
vt 0.852097 0.137688
vt 0.862412 0.143442
vt 0.862457 0.155032
vt 0.852260 0.160868
vt 0.841982 0.155177
vt 0.841864 0.143587
vt 0.334146 0.715233
vt 0.331434 0.210009
vt 0.613693 0.277066
vt 0.610093 0.782290
vt 0.472993 0.277066
vt 0.495959 0.277066
vt 0.488816 0.782290
vt 0.470304 0.782290
vt 0.309459 0.808469
vt 0.309670 0.854611
vt 0.243492 0.854611
vt 0.264882 0.808469
vt 0.588397 0.183830
vt 0.544021 0.183830
vt 0.522376 0.137688
vt 0.588256 0.137688
vt 0.390815 0.183830
vt 0.379815 0.137688
vt 0.446279 0.137688
vt 0.435659 0.183830
vt 0.285567 0.177619
vt 0.309172 0.177619
vt 0.441653 0.782290
vt 0.441662 0.814680
vt 0.427922 0.814680
vt 0.409882 0.814680
vt 0.298872 0.137688
vt 0.309150 0.137688
vt 0.797314 0.161332
vt 0.837245 0.161216
vt 0.837245 0.171449
vt 0.797314 0.184785
vt 0.419323 0.854611
vt 0.407733 0.854611
vt 0.353676 0.808469
vt 0.375314 0.854611
vt 0.654675 0.137688
vt 0.633135 0.183830
vt 0.506824 0.183830
vt 0.461979 0.183830
vt 0.451096 0.137688
vt 0.517563 0.137688
vt 0.332621 0.177619
vt 0.456535 0.782290
vt 0.469933 0.814680
vt 0.456525 0.814680
vt 0.487974 0.814680
vt 0.319348 0.137688
vt 0.797314 0.137688
vt 0.837245 0.150901
vt 0.490310 0.854611
vt 0.478719 0.854611
vt 0.588470 0.217852
vt 0.622183 0.217852
vt 0.555028 0.217852
vt 0.396398 0.217852
vt 0.430268 0.217852
vt 0.309352 0.774447
vt 0.275760 0.774447
vt 0.342674 0.774447
vt 0.467503 0.217852
vt 0.501375 0.217852
vn 0.7626 0.4859 -0.4269
vn 0.0631 -0.7416 0.6678
vn 0.8980 -0.3181 0.3040
vn -0.0245 0.6641 0.7472
vn 0.0245 -0.6641 -0.7472
vn 0.0088 0.7375 -0.6753
vn -0.8068 -0.4513 0.3814
vn -0.9136 0.2843 -0.2906
vn 0.7426 0.2087 -0.6364
vn 0.7335 0.1823 -0.6547
vn 0.7420 0.2070 -0.6376
vn 0.0370 -0.9338 0.3558
vn 0.0371 -0.9346 0.3538
vn 0.0372 -0.9452 0.3245
vn 0.8451 -0.5342 -0.0198
vn 0.8328 -0.5514 -0.0482
vn 0.7657 0.4909 -0.4155
vn 0.7736 0.4607 -0.4350
vn 0.7743 0.4579 -0.4368
vn 0.1104 -0.7260 0.6788
vn 0.1012 -0.8302 0.5483
vn 0.1008 -0.8328 0.5443
vn 0.8930 -0.2821 0.3507
vn 0.8966 -0.3908 0.2083
vn 0.8956 -0.3989 0.1967
vn 0.7824 0.4205 -0.4594
vn 0.0866 -0.9231 0.3748
vn 0.8679 -0.4947 0.0460
vn -0.0168 0.4614 -0.8871
vn -0.0168 0.4593 -0.8881
vn -0.0156 0.4313 -0.9021
vn -0.7163 -0.6937 0.0763
vn -0.7262 -0.6798 0.1023
vn -0.7269 -0.6788 0.1042
vn -0.8227 0.0195 -0.5681
vn -0.8228 0.0195 -0.5680
vn -0.8089 -0.0065 -0.5879
vn 0.0025 0.7448 -0.6673
vn -0.0097 0.7188 -0.6951
vn -0.0086 0.7212 -0.6926
vn -0.8339 -0.4119 0.3673
vn -0.8136 -0.5282 0.2431
vn -0.8144 -0.5254 0.2464
vn -0.9152 0.3194 -0.2457
vn -0.8975 0.1982 -0.3940
vn -0.8999 0.2073 -0.3836
vn -0.0230 0.6889 -0.7244
vn -0.7624 -0.6400 0.0954
vn -0.8509 0.0782 -0.5195
vn -0.7590 -0.6087 0.2311
vn -0.7589 -0.6093 0.2300
vn -0.7647 -0.5787 0.2835
vn 0.0275 -0.8717 0.4893
vn 0.0274 -0.8711 0.4903
vn 0.0189 -0.8401 0.5420
vn 0.8901 -0.4394 0.1209
vn 0.8901 -0.4394 0.1208
vn 0.9020 -0.3897 0.1860
vn 0.7677 0.3273 -0.5509
vn 0.7676 0.3263 -0.5516
vn 0.7705 0.3759 -0.5149
vn -0.0142 0.5870 -0.8094
vn -0.0141 0.5880 -0.8087
vn -0.0086 0.6361 -0.7716
vn -0.8761 0.1472 -0.4592
vn -0.8919 0.2060 -0.4027
usemtl initialShadingGroup.009
s off
f 1/1/1 2/2/1 3/3/1 4/4/1
f 5/5/2 6/6/2 7/7/2 8/8/2
f 2/9/3 6/10/3 5/11/3 3/12/3
f 9/13/4 10/14/4 11/15/4 12/16/4 13/17/4 14/18/4
f 15/19/5 16/20/5 17/21/5 18/22/5 19/23/5 20/24/5
f 21/25/6 1/1/6 4/4/6 22/26/6
f 7/7/7 23/27/7 24/28/7 8/8/7
f 23/29/8 21/30/8 22/31/8 24/32/8
s 1
f 25/33/9 14/34/10 13/35/10 26/36/11
f 27/37/12 28/38/13 12/39/14 11/40/14
f 26/41/15 13/42/16 12/43/16 28/44/15
f 3/3/17 29/45/18 30/46/19 4/4/17
f 8/47/20 31/48/21 32/49/22 5/11/20
f 5/11/23 32/49/24 29/50/25 3/12/23
f 29/45/18 19/51/26 18/52/26 30/46/19
f 31/53/21 15/54/27 20/55/27 32/56/22
f 32/49/24 20/57/28 19/58/28 29/50/25
f 25/33/29 33/59/30 9/60/31 14/34/31
f 10/61/32 34/62/33 27/37/34 11/40/32
f 33/63/35 34/64/36 10/65/37 9/66/37
f 22/26/38 4/4/38 30/46/39 35/67/40
f 8/68/41 24/32/41 36/69/42 31/70/43
f 24/32/44 22/31/44 35/71/45 36/69/46
f 35/67/40 30/46/39 18/52/47 17/72/47
f 31/53/43 36/73/42 16/74/48 15/54/48
f 36/69/46 35/71/45 17/75/49 16/76/49
f 37/77/50 38/78/51 23/27/52 7/7/52
f 39/79/53 37/77/54 7/7/55 6/6/55
f 40/80/56 39/81/57 6/10/58 2/9/58
f 41/82/59 40/83/60 2/2/61 1/1/61
f 42/84/62 41/82/63 1/1/64 21/25/64
f 38/85/65 42/86/65 21/30/66 23/29/66
f 40/80/56 26/41/15 28/44/15 39/81/57
f 41/82/59 25/33/9 26/36/11 40/83/60
f 41/82/63 42/84/62 33/59/30 25/33/29
f 42/86/65 38/85/65 34/64/36 33/63/35
f 27/37/34 34/62/33 38/78/51 37/77/50
f 39/79/53 28/38/13 27/37/12 37/77/54
