# Blender v2.79 (sub 6) OBJ File: 'bailarina.blend1'
# www.blender.org
mtllib Flauta3_000005.mtl
o flauta3_f3_Flauta_3:Flauta_2:Flauta_1:pCylinder3
v -0.934867 11.607161 3.971174
v -0.804557 11.491681 4.108906
v -0.497771 8.517943 1.332197
v -0.614051 8.621020 1.209261
v -0.576723 8.425401 1.419445
v -0.893992 11.374147 4.221082
v -1.114992 11.372509 4.194929
v -0.781895 8.403224 1.416862
v -1.453949 12.623312 4.476761
v -1.716608 12.284412 4.799607
v -1.383848 11.962597 5.179606
v -0.788690 11.982063 5.234221
v -0.529380 12.322053 4.909806
v -0.861889 12.641470 4.532359
v -0.666450 8.065662 0.935856
v -0.715629 8.118835 0.873801
v -0.669781 8.177916 0.817527
v -0.575265 8.183988 0.823070
v -0.526094 8.131216 0.884702
v -0.571434 8.071970 0.941214
v -1.154752 11.605947 3.944716
v -0.810800 8.619682 1.185853
v -1.245448 11.488825 4.056301
v -0.877541 8.523170 1.278809
v -0.914245 12.262133 4.381805
v -0.690418 12.046795 4.636223
v -1.266433 11.804102 4.818494
v -0.865391 11.817406 4.855100
v -0.469593 8.322114 1.160704
v -0.591141 8.432284 1.029653
v -0.759059 8.214390 1.237347
v -0.540412 8.229974 1.248554
v -1.313205 12.249706 4.344540
v -1.490428 12.021053 4.562362
v -0.799788 8.429432 1.006334
v -0.870908 8.337390 1.094044
v -1.199432 11.661883 4.576396
v -1.368077 11.825562 4.383202
v -0.897055 11.672111 4.603790
v -0.764882 11.845363 4.438479
v -0.933401 12.007830 4.246572
v -1.234214 11.998262 4.218683
vt 0.309275 0.715233
vt 0.284202 0.715233
vt 0.286826 0.210009
vt 0.309202 0.210009
vt 0.567225 0.782290
vt 0.563570 0.277066
vt 0.588530 0.277066
vt 0.588561 0.782290
vt 0.401946 0.277066
vt 0.424912 0.277066
vt 0.427581 0.782290
vt 0.409057 0.782290
vt 0.792443 0.171143
vt 0.792144 0.237610
vt 0.725725 0.270617
vt 0.659845 0.236798
vt 0.660620 0.170334
vt 0.726798 0.137688
vt 0.852097 0.137688
vt 0.862412 0.143442
vt 0.862457 0.155032
vt 0.852260 0.160868
vt 0.841982 0.155177
vt 0.841864 0.143587
vt 0.334146 0.715233
vt 0.331434 0.210009
vt 0.613693 0.277066
vt 0.610093 0.782290
vt 0.472993 0.277066
vt 0.495959 0.277066
vt 0.488816 0.782290
vt 0.470304 0.782290
vt 0.309459 0.808469
vt 0.309670 0.854611
vt 0.243492 0.854611
vt 0.264882 0.808469
vt 0.588397 0.183830
vt 0.544021 0.183830
vt 0.522376 0.137688
vt 0.588256 0.137688
vt 0.390815 0.183830
vt 0.379815 0.137688
vt 0.446279 0.137688
vt 0.435659 0.183830
vt 0.285567 0.177619
vt 0.309172 0.177619
vt 0.441653 0.782290
vt 0.441662 0.814680
vt 0.427922 0.814680
vt 0.409882 0.814680
vt 0.298872 0.137688
vt 0.309150 0.137688
vt 0.797314 0.161332
vt 0.837245 0.161216
vt 0.837245 0.171449
vt 0.797314 0.184785
vt 0.419323 0.854611
vt 0.407733 0.854611
vt 0.353676 0.808469
vt 0.375314 0.854611
vt 0.654675 0.137688
vt 0.633135 0.183830
vt 0.506824 0.183830
vt 0.461979 0.183830
vt 0.451096 0.137688
vt 0.517563 0.137688
vt 0.332621 0.177619
vt 0.456535 0.782290
vt 0.469933 0.814680
vt 0.456525 0.814680
vt 0.487974 0.814680
vt 0.319348 0.137688
vt 0.797314 0.137688
vt 0.837245 0.150901
vt 0.490310 0.854611
vt 0.478719 0.854611
vt 0.588470 0.217852
vt 0.622183 0.217852
vt 0.555028 0.217852
vt 0.396398 0.217852
vt 0.430268 0.217852
vt 0.309352 0.774447
vt 0.275760 0.774447
vt 0.342674 0.774447
vt 0.467503 0.217852
vt 0.501375 0.217852
vn 0.8062 0.4461 -0.3887
vn -0.0106 -0.6866 0.7270
vn 0.8607 -0.2981 0.4127
vn -0.0866 0.7215 0.6869
vn 0.0866 -0.7215 -0.6869
vn 0.0829 0.6814 -0.7272
vn -0.8453 -0.4149 0.3365
vn -0.8779 0.2656 -0.3984
vn 0.8025 0.1532 -0.5766
vn 0.7949 0.1255 -0.5936
vn 0.8020 0.1514 -0.5777
vn -0.0095 -0.9028 0.4300
vn -0.0092 -0.9037 0.4281
vn -0.0065 -0.9166 0.3998
vn 0.8359 -0.5390 0.1034
vn 0.8262 -0.5583 0.0753
vn 0.8360 -0.5390 0.1034
vn 0.8083 0.4519 -0.3774
vn 0.8176 0.4202 -0.3936
vn 0.8184 0.4173 -0.3951
vn 0.0356 -0.6704 0.7412
vn 0.0375 -0.7846 0.6189
vn 0.0375 -0.7875 0.6152
vn 0.8517 -0.2585 0.4558
vn 0.8674 -0.3782 0.3234
vn 0.8674 -0.3872 0.3125
vn 0.8281 0.3782 -0.4139
vn 0.0383 -0.8908 0.4527
vn 0.8529 -0.4944 0.1678
vn 0.0738 0.3895 -0.9181
vn 0.0739 0.3873 -0.9190
vn 0.0761 0.3584 -0.9305
vn -0.7295 -0.6813 0.0614
vn -0.7417 -0.6653 0.0853
vn -0.7425 -0.6642 0.0869
vn -0.7646 -0.0210 -0.6442
vn -0.7646 -0.0209 -0.6441
vn -0.7493 -0.0485 -0.6605
vn 0.0759 0.6894 -0.7204
vn 0.0661 0.6614 -0.7471
vn 0.0670 0.6640 -0.7447
vn -0.8705 -0.3766 0.3168
vn -0.8400 -0.5025 0.2046
vn -0.8411 -0.4994 0.2076
vn -0.8833 0.3041 -0.3567
vn -0.8532 0.1714 -0.4926
vn -0.8565 0.1813 -0.4833
vn 0.0553 0.6293 -0.7752
vn -0.7765 -0.6260 0.0718
vn -0.7964 0.0416 -0.6033
vn -0.7856 -0.5840 0.2043
vn -0.7854 -0.5847 0.2033
vn -0.7959 -0.5499 0.2534
vn -0.0308 -0.8302 0.5566
vn -0.0310 -0.8296 0.5575
vn -0.0439 -0.7945 0.6056
vn 0.8687 -0.4335 0.2398
vn 0.8749 -0.3789 0.3017
vn 0.8210 0.2781 -0.4987
vn 0.8209 0.2771 -0.4993
vn 0.8209 0.3293 -0.4665
vn 0.0708 0.5210 -0.8506
vn 0.0708 0.5220 -0.8500
vn 0.0734 0.5728 -0.8164
vn -0.8263 0.1153 -0.5512
vn -0.8467 0.1785 -0.5013
usemtl initialShadingGroup.009
s off
f 1/1/1 2/2/1 3/3/1 4/4/1
f 5/5/2 6/6/2 7/7/2 8/8/2
f 2/9/3 6/10/3 5/11/3 3/12/3
f 9/13/4 10/14/4 11/15/4 12/16/4 13/17/4 14/18/4
f 15/19/5 16/20/5 17/21/5 18/22/5 19/23/5 20/24/5
f 21/25/6 1/1/6 4/4/6 22/26/6
f 7/7/7 23/27/7 24/28/7 8/8/7
f 23/29/8 21/30/8 22/31/8 24/32/8
s 1
f 25/33/9 14/34/10 13/35/10 26/36/11
f 27/37/12 28/38/13 12/39/14 11/40/14
f 26/41/15 13/42/16 12/43/16 28/44/17
f 3/3/18 29/45/19 30/46/20 4/4/18
f 8/47/21 31/48/22 32/49/23 5/11/21
f 5/11/24 32/49/25 29/50/26 3/12/24
f 29/45/19 19/51/27 18/52/27 30/46/20
f 31/53/22 15/54/28 20/55/28 32/56/23
f 32/49/25 20/57/29 19/58/29 29/50/26
f 25/33/30 33/59/31 9/60/32 14/34/32
f 10/61/33 34/62/34 27/37/35 11/40/33
f 33/63/36 34/64/37 10/65/38 9/66/38
f 22/26/39 4/4/39 30/46/40 35/67/41
f 8/68/42 24/32/42 36/69/43 31/70/44
f 24/32/45 22/31/45 35/71/46 36/69/47
f 35/67/41 30/46/40 18/52/48 17/72/48
f 31/53/44 36/73/43 16/74/49 15/54/49
f 36/69/47 35/71/46 17/75/50 16/76/50
f 37/77/51 38/78/52 23/27/53 7/7/53
f 39/79/54 37/77/55 7/7/56 6/6/56
f 40/80/57 39/81/57 6/10/58 2/9/58
f 41/82/59 40/83/60 2/2/61 1/1/61
f 42/84/62 41/82/63 1/1/64 21/25/64
f 38/85/65 42/86/65 21/30/66 23/29/66
f 40/80/57 26/41/15 28/44/17 39/81/57
f 41/82/59 25/33/9 26/36/11 40/83/60
f 41/82/63 42/84/62 33/59/31 25/33/30
f 42/86/65 38/85/65 34/64/37 33/63/36
f 27/37/35 34/62/34 38/78/52 37/77/51
f 39/79/54 28/38/13 27/37/12 37/77/55
