# Blender v2.79 (sub 0) OBJ File: 'flauta-2.blend'
# www.blender.org
mtllib flauta-2.mtl
o f2_Flauta_1:pCylinder3
v 0.322266 -0.050065 -3.804586
v 0.219952 0.012779 -3.568751
v 0.041410 -0.065608 -3.568751
v 0.040387 -0.189114 -3.804586
v 0.044962 0.377080 -3.804586
v 0.044308 0.253563 -3.568751
v 0.222045 0.172365 -3.568751
v 0.325571 0.233032 -3.804586
v 0.228797 0.012252 -3.343533
v 0.279882 -0.028708 -3.115215
v 0.040775 -0.147122 -3.115215
v 0.041330 -0.066629 -3.343533
v 0.044359 0.254577 -3.343533
v 0.044633 0.335061 -3.115215
v 0.282668 0.212384 -3.115215
v 0.230985 0.172855 -3.343533
v 0.221144 0.010154 -2.913309
v 0.205404 -0.001450 -0.141479
v 0.041474 -0.093555 -0.141479
v 0.041318 -0.070750 -2.913309
v 0.044215 0.258681 -2.913309
v 0.044115 0.281487 -0.141479
v 0.207311 0.186069 -0.141479
v 0.223237 0.174869 -2.913309
v 0.203459 -0.000306 0.200999
v 0.199723 0.061690 0.770762
v 0.041858 -0.009358 0.770762
v 0.041494 -0.091308 0.200999
v 0.044103 0.279240 0.200999
v 0.043977 0.291658 0.770762
v 0.194504 0.192379 0.770762
v 0.205344 0.184965 0.200999
v 0.208609 0.067510 0.999275
v 0.042073 -0.009426 0.999275
v 0.044194 0.291726 0.999275
v 0.209657 0.194788 0.999275
v 0.114739 0.052352 1.280994
v 0.042222 0.012197 1.280994
v 0.043374 0.175733 1.280994
v 0.115570 0.134119 1.280994
v -0.239216 -0.046618 -3.804586
v -0.135690 0.014722 -3.568751
v -0.237946 0.236491 -3.804586
v -0.134886 0.174314 -3.568751
v -0.029401 0.135140 1.280994
v -0.029721 0.053369 1.280994
v -0.144631 0.014216 -3.343533
v -0.196412 -0.025755 -3.115215
v -0.143790 0.174826 -3.343533
v -0.195341 0.215347 -3.115215
v -0.137067 0.012173 -2.913309
v -0.121142 0.000850 -0.141479
v -0.136262 0.176896 -2.913309
v -0.120408 0.188377 -0.141479
v -0.119174 0.001965 0.200999
v -0.114992 0.063907 0.770762
v -0.118449 0.187246 0.200999
v -0.107933 0.194509 0.770762
v -0.123364 0.069847 0.999275
v -0.122619 0.197128 0.999275
v 0.276048 0.224619 0.040459
v 0.273341 -0.041385 0.040459
v 0.040800 -0.172041 0.040459
v -0.189878 -0.038124 0.040459
v -0.188838 0.227892 0.040459
v 0.044547 0.359973 0.040459
vt 0.702577 0.155012
vt 0.702394 0.195958
vt 0.661476 0.216292
vt 0.620892 0.195458
vt 0.621370 0.154514
vt 0.662138 0.134403
vt 0.774035 0.140274
vt 0.774082 0.152100
vt 0.763676 0.158055
vt 0.753188 0.152248
vt 0.753068 0.140422
vt 0.763510 0.134403
vt 0.340220 0.869931
vt 0.355018 0.835822
vt 0.380841 0.835822
vt 0.380989 0.869931
vt 0.575158 0.134403
vt 0.575252 0.168512
vt 0.549546 0.168512
vt 0.534573 0.134403
vt 0.467619 0.134403
vt 0.458844 0.168512
vt 0.435764 0.168512
vt 0.426674 0.134403
vt 0.353739 0.803249
vt 0.346351 0.770227
vt 0.380933 0.770227
vt 0.380852 0.803249
vt 0.575245 0.201085
vt 0.575205 0.234107
vt 0.540778 0.234107
vt 0.548253 0.201085
vt 0.458915 0.201085
vt 0.464632 0.234107
vt 0.429763 0.234107
vt 0.435687 0.201085
vt 0.354846 0.741026
vt 0.357122 0.340135
vt 0.380831 0.340135
vt 0.380854 0.741026
vt 0.575266 0.263308
vt 0.575280 0.664199
vt 0.551677 0.664199
vt 0.549374 0.263308
vt 0.459207 0.263308
vt 0.460826 0.664199
vt 0.433705 0.664199
vt 0.435384 0.263308
vt 0.357404 0.290603
vt 0.357944 0.208198
vt 0.380776 0.208198
vt 0.380829 0.290603
vt 0.474302 0.713731
vt 0.476098 0.796136
vt 0.461739 0.796136
vt 0.460667 0.713731
vt 0.442837 0.796136
vt 0.433871 0.713731
vt 0.356659 0.175148
vt 0.380745 0.175148
vt 0.476107 0.829186
vt 0.462087 0.829186
vt 0.443679 0.829186
vt 0.370235 0.134403
vt 0.380723 0.134403
vt 0.707211 0.158529
vt 0.747956 0.158411
vt 0.747956 0.168852
vt 0.707211 0.182460
vt 0.453313 0.869931
vt 0.441487 0.869931
vt 0.421428 0.869931
vt 0.406455 0.835822
vt 0.616075 0.134403
vt 0.601169 0.168512
vt 0.488612 0.134403
vt 0.529558 0.134403
vt 0.520686 0.168512
vt 0.497605 0.168512
vt 0.407748 0.803249
vt 0.415237 0.770227
vt 0.602457 0.201085
vt 0.609913 0.234107
vt 0.497531 0.201085
vt 0.520760 0.201085
vt 0.526541 0.234107
vt 0.491670 0.234107
vt 0.406654 0.741026
vt 0.404351 0.340135
vt 0.601368 0.263308
vt 0.599075 0.664199
vt 0.497231 0.263308
vt 0.521055 0.263308
vt 0.522693 0.664199
vt 0.495571 0.664199
vt 0.404066 0.290603
vt 0.403461 0.208198
vt 0.482429 0.713731
vt 0.495735 0.713731
vt 0.494684 0.796136
vt 0.480633 0.796136
vt 0.522532 0.713731
vt 0.513573 0.796136
vt 0.404672 0.175148
vt 0.494305 0.829186
vt 0.480624 0.829186
vt 0.512714 0.829186
vt 0.391128 0.134403
vt 0.707211 0.134403
vt 0.747956 0.147885
vt 0.515097 0.869931
vt 0.503271 0.869931
vt 0.466402 0.690512
vt 0.427930 0.690512
vt 0.380929 0.313822
vt 0.347296 0.313822
vt 0.414292 0.313822
vt 0.489856 0.690512
vt 0.528330 0.690512
vt 0.575218 0.690512
vt 0.608972 0.690512
vt 0.598792 0.713731
vt 0.575282 0.713731
vt 0.541736 0.690512
vt 0.551961 0.713731
vn -0.0000 0.0000 -1.0000
vn 0.0000 0.0000 1.0000
vn 0.3896 -0.8249 0.4096
vn 0.4003 -0.8793 0.2580
vn 0.4004 -0.8798 0.2562
vn 0.4025 0.8191 0.4088
vn 0.4138 0.8738 0.2556
vn 0.4137 0.8732 0.2575
vn 0.9164 -0.0112 0.4000
vn 0.9683 -0.0122 0.2495
vn 0.4034 -0.8722 -0.2766
vn 0.4243 -0.9055 -0.0100
vn 0.4244 -0.9055 -0.0058
vn 0.4170 0.8663 -0.2751
vn 0.4383 0.8988 -0.0052
vn 0.4383 0.8988 -0.0095
vn 0.9891 -0.0127 -0.1466
vn 0.9998 -0.0122 0.0183
vn 0.9998 -0.0122 0.0184
vn 0.9891 -0.0127 -0.1465
vn 0.4496 -0.8932 -0.0043
vn 0.4526 -0.8911 -0.0339
vn 0.4526 -0.8911 -0.0341
vn 0.4639 0.8859 -0.0041
vn 0.4670 0.8836 -0.0339
vn 0.4670 0.8836 -0.0337
vn 0.9999 -0.0114 0.0057
vn 0.9996 -0.0112 -0.0275
vn 0.4533 -0.8683 0.2012
vn 0.4491 -0.8863 0.1133
vn 0.4535 -0.8672 0.2058
vn 0.5175 0.8478 0.1160
vn 0.5274 0.8495 -0.0097
vn 0.5173 0.8476 0.1181
vn 0.9896 0.0040 0.1441
vn 0.9999 0.0105 0.0121
vn 0.9885 0.0036 0.1513
vn 0.4150 -0.9098 0.0032
vn 0.4255 -0.9042 0.0379
vn 0.4265 -0.9036 0.0412
vn 0.5274 0.8493 -0.0223
vn 0.5116 0.8471 0.1442
vn 0.5109 0.8467 0.1489
vn 0.9985 0.0161 -0.0528
vn 0.9920 0.0044 0.1259
vn 0.9902 0.0035 0.1399
vn 0.4384 -0.8949 0.0832
vn 0.4745 0.8139 0.3351
vn 0.9489 -0.0085 0.3154
vn -0.4000 -0.8198 0.4099
vn -0.4112 -0.8747 0.2563
vn -0.4112 -0.8742 0.2583
vn -0.3919 0.8239 0.4094
vn -0.4027 0.8782 0.2580
vn -0.4028 0.8787 0.2561
vn -0.9160 0.0043 0.4012
vn -0.9681 0.0046 0.2504
vn -0.9681 0.0047 0.2503
vn -0.4144 -0.8672 -0.2763
vn -0.4358 -0.9000 -0.0056
vn -0.4357 -0.9000 -0.0098
vn -0.4059 0.8711 -0.2764
vn -0.4268 0.9043 -0.0100
vn -0.4269 0.9043 -0.0059
vn -0.9891 0.0049 -0.1472
vn -0.9891 0.0049 -0.1473
vn -0.9998 0.0047 0.0180
vn -0.4614 -0.8872 -0.0041
vn -0.4644 -0.8850 -0.0340
vn -0.4644 -0.8850 -0.0339
vn -0.4522 0.8919 -0.0042
vn -0.4552 0.8898 -0.0339
vn -0.4552 0.8898 -0.0340
vn -1.0000 0.0044 0.0057
vn -0.9996 0.0043 -0.0276
vn -0.4655 -0.8619 0.2012
vn -0.4656 -0.8607 0.2058
vn -0.4615 -0.8799 0.1130
vn -0.5055 0.8550 0.1159
vn -0.5053 0.8548 0.1181
vn -0.5154 0.8569 -0.0101
vn -0.9894 0.0179 0.1441
vn -0.9883 0.0176 0.1513
vn -0.9996 0.0246 0.0114
vn -0.4278 -0.9039 0.0040
vn -0.4392 -0.8974 0.0417
vn -0.4382 -0.8981 0.0383
vn -0.5154 0.8567 -0.0214
vn -0.4989 0.8537 0.1492
vn -0.4995 0.8541 0.1449
vn -0.9982 0.0302 -0.0509
vn -0.9899 0.0174 0.1408
vn -0.9917 0.0184 0.1269
vn -0.4509 -0.8887 0.0832
vn -0.4630 0.8206 0.3351
vn -0.9490 0.0048 0.3154
vn -0.3972 0.9177 -0.0109
vn 0.4082 0.9128 -0.0112
vn 0.3948 -0.9187 -0.0108
vn -0.4057 -0.9139 -0.0112
vn -0.4117 0.8591 0.3041
vn 0.4228 0.8539 0.3035
vn 0.9597 -0.0115 0.2809
vn 0.4092 -0.8601 0.3044
vn -0.4202 -0.8549 0.3043
vn -0.9596 0.0044 0.2814
vn 0.9999 -0.0102 0.0007
vn 0.4898 -0.8718 0.0007
vn 0.4898 -0.8718 0.0006
vn -0.5021 -0.8648 0.0006
vn -0.5021 -0.8648 0.0007
vn -1.0000 0.0039 0.0007
vn -0.4925 0.8703 0.0007
vn -0.4925 0.8703 0.0005
vn 0.5047 0.8633 0.0006
vn 0.5047 0.8633 0.0007
usemtl initialShadingGroup
s off
f 41/1/1 43/2/1 5/3/1 8/4/1 1/5/1 4/6/1
f 45/7/2 46/8/2 38/9/2 37/10/2 40/11/2 39/12/2
s 1
f 1/13/3 2/14/4 3/15/5 4/16/3
f 5/17/6 6/18/7 7/19/8 8/20/6
f 8/21/9 7/22/10 2/23/10 1/24/9
f 9/25/11 10/26/12 11/27/13 12/28/11
f 13/29/14 14/30/15 15/31/16 16/32/14
f 16/33/17 15/34/18 10/35/19 9/36/20
f 17/37/21 18/38/22 19/39/23 20/40/21
f 21/41/24 22/42/25 23/43/26 24/44/24
f 24/45/27 23/46/28 18/47/28 17/48/27
f 25/49/29 26/50/30 27/51/30 28/52/31
f 29/53/32 30/54/33 31/55/33 32/56/34
f 32/56/35 31/55/36 26/57/36 25/58/37
f 26/50/38 33/59/39 34/60/40 27/51/38
f 30/54/41 35/61/42 36/62/43 31/55/41
f 31/55/44 36/62/45 33/63/46 26/57/44
f 33/59/39 37/64/47 38/65/47 34/60/40
f 35/66/42 39/67/48 40/68/48 36/69/43
f 36/62/45 40/70/49 37/71/49 33/63/46
f 41/72/50 4/16/50 3/15/51 42/73/52
f 5/17/53 43/74/53 44/75/54 6/18/55
f 43/76/56 41/77/56 42/78/57 44/79/58
f 47/80/59 12/28/59 11/27/60 48/81/61
f 13/29/62 49/82/62 50/83/63 14/30/64
f 49/84/65 47/85/66 48/86/67 50/87/67
f 51/88/68 20/40/68 19/39/69 52/89/70
f 21/41/71 53/90/71 54/91/72 22/42/73
f 53/92/74 51/93/74 52/94/75 54/95/75
f 55/96/76 28/52/77 27/51/78 56/97/78
f 29/98/79 57/99/80 58/100/81 30/101/81
f 57/99/82 55/102/83 56/103/84 58/100/84
f 56/97/85 27/51/85 34/60/86 59/104/87
f 30/101/88 58/100/88 60/105/89 35/106/90
f 58/100/91 56/103/91 59/107/92 60/105/93
f 59/104/87 34/60/86 38/65/94 46/108/94
f 35/66/90 60/109/89 45/110/95 39/67/95
f 60/105/93 59/107/92 46/111/96 45/112/96
f 6/18/55 44/75/54 49/82/97 13/29/97
f 7/19/8 6/18/7 13/29/98 16/32/98
f 2/23/10 7/22/10 16/33/17 9/36/20
f 3/15/5 2/14/4 9/25/99 12/28/99
f 42/73/52 3/15/51 12/28/100 47/80/100
f 44/79/58 42/78/57 47/85/66 49/84/65
f 14/30/64 50/83/63 53/90/101 21/41/101
f 15/31/16 14/30/15 21/41/102 24/44/102
f 10/35/19 15/34/18 24/45/103 17/48/103
f 11/27/13 10/26/12 17/37/104 20/40/104
f 48/81/61 11/27/60 20/40/105 51/88/105
f 50/87/67 48/86/67 51/93/106 53/92/106
f 61/113/107 32/56/35 25/58/37 62/114/107
f 63/115/108 62/116/109 25/49/29 28/52/31
f 64/117/110 63/115/111 28/52/77 55/96/76
f 65/118/112 64/119/112 55/102/83 57/99/82
f 66/120/113 65/121/114 57/122/80 29/123/79
f 61/124/115 66/120/116 29/123/32 32/125/34
f 23/46/28 61/113/107 62/114/107 18/47/28
f 19/39/23 18/38/22 62/116/109 63/115/108
f 52/89/70 19/39/69 63/115/111 64/117/110
f 54/95/75 52/94/75 64/119/112 65/118/112
f 22/42/73 54/91/72 65/121/114 66/120/113
f 23/43/26 22/42/25 66/120/116 61/124/115
