# Blender v2.79 (sub 0) OBJ File: 'guitarra-electrica.blend'
# www.blender.org
mtllib guitarra-electrica.mtl
o guitarra-electrica_guitarra_3:Guitarra_2:pPlane4
v -1.144016 -0.365011 6.151672
v -1.144016 0.249892 6.244680
v -1.967496 0.244619 5.547880
v -1.967496 -0.370285 5.454873
v -2.298001 0.239647 4.890994
v -2.298001 -0.375256 4.797986
v -2.227864 0.234116 4.160135
v -2.227864 -0.380787 4.067127
v -1.547597 -0.388643 3.029185
v -1.576735 0.226704 3.180691
v -1.499870 0.223783 2.794740
v -1.499870 -0.391121 2.701732
v -1.983528 0.215353 1.680950
v -1.983528 -0.399550 1.587941
v -2.102295 0.208032 0.713607
v -2.102295 -0.406871 0.620599
v -1.835097 0.201593 -0.137241
v -1.835097 -0.413311 -0.230250
v -1.494742 0.205589 -0.428391
v -1.469101 -0.422652 -0.455235
v 0.264396 -0.361994 6.550353
v -1.516183 -0.426780 0.223766
v -1.109081 -0.436081 1.150376
v -0.745023 -0.442390 1.439601
v -0.405745 -0.448114 1.472635
v -0.140777 -0.448114 1.472634
v 0.381266 -0.448114 1.472637
v 0.844432 -0.398881 1.676309
v 1.159058 -0.399623 1.578300
v 1.486925 -0.401438 1.272057
v 1.665488 -0.397837 1.814349
v 1.365972 -0.391981 2.588063
v 1.216078 -0.388429 3.057484
v 1.346682 -0.385018 3.508138
v 1.610628 -0.381655 3.952528
v 1.926948 -0.376156 4.679142
v 1.971979 -0.370510 5.425090
v 1.450288 -0.364676 6.195920
v 0.264396 0.252733 6.620070
v -0.393972 -0.177639 1.470589
v -0.137423 -0.173765 1.470558
v -0.352433 0.260222 1.467276
v -0.261525 0.254934 -5.349056
v -0.262749 -0.184521 -5.344834
v -0.424259 0.287238 -5.700690
v -0.424259 -0.280144 -5.696396
v -0.114117 0.177338 -6.825192
v -0.114117 -0.235163 -6.822070
v 0.046378 0.224350 -7.233297
v 0.046378 -0.288345 -7.229417
v 0.171900 0.128002 -7.355046
v 0.171900 -0.193851 -7.352610
v 0.022457 0.254934 -5.349056
v -0.111251 0.260222 1.467275
v 0.437118 0.260222 1.467276
v 0.306438 0.254934 -5.349056
v 0.114847 0.311670 -5.908109
v 0.654225 0.283218 -6.114421
v 0.106064 0.177338 -6.825192
v 0.326246 0.175670 -6.824361
v 0.270293 0.225244 -7.115188
v 0.359873 0.128111 -7.340658
v 0.359873 -0.193742 -7.338222
v 0.270294 -0.287451 -7.111310
v 0.106064 -0.235162 -6.822070
v 0.114847 -0.313358 -5.903378
v 0.326246 -0.235133 -6.821841
v 0.654303 -0.282817 -6.109933
v 0.022457 -0.183322 -5.344843
v 0.307661 -0.184521 -5.344834
v 0.394311 -0.177639 1.470590
v 1.450288 0.250227 6.288929
v 1.971979 0.244393 5.518097
v 1.926948 0.238748 4.772151
v 1.610628 0.233249 4.045535
v 1.364585 0.230149 3.635772
v 1.216078 0.226475 3.150493
v 1.397736 0.222345 2.604803
v 1.665488 0.217067 1.907358
v 1.486924 0.212134 1.321920
v 1.159058 0.215280 1.671307
v 0.844432 0.216022 1.769318
v -0.730229 0.252804 1.403645
v -1.134688 0.240776 1.078077
v -1.500202 0.220989 0.273997
v 0.494209 -0.286557 -6.993198
v 0.494209 0.226138 -6.997078
v 0.488127 -0.192616 -7.189470
v 0.488127 0.129237 -7.191906
vt 0.803370 0.008952
vt 0.847142 0.001992
vt 0.847142 0.051653
vt 0.803370 0.058613
vt 0.847142 0.098469
vt 0.803370 0.105429
vt 0.803370 0.403151
vt 0.847142 0.396191
vt 0.847142 0.456831
vt 0.803370 0.463791
vt 0.673736 0.501284
vt 0.573361 0.472870
vt 0.514674 0.423209
vt 0.491119 0.376393
vt 0.496118 0.324305
vt 0.544599 0.250331
vt 0.548000 0.226993
vt 0.513531 0.147613
vt 0.505067 0.078671
vt 0.524109 0.018031
vt 0.550193 0.001992
vt 0.546838 0.050379
vt 0.575851 0.116410
vt 0.601797 0.137019
vt 0.625976 0.139369
vt 0.644860 0.139369
vt 0.682065 0.139370
vt 0.715074 0.153911
vt 0.737496 0.146926
vt 0.760863 0.125100
vt 0.773589 0.163749
vt 0.752243 0.218892
vt 0.741560 0.252347
vt 0.750868 0.284466
vt 0.769679 0.316137
vt 0.792222 0.367923
vt 0.795432 0.421087
vt 0.758252 0.476024
vt 0.949255 0.086508
vt 0.949255 0.186883
vt 0.905483 0.186883
vt 0.905483 0.086508
vt 0.955790 0.325592
vt 0.936513 0.324753
vt 0.936237 0.306469
vt 0.955790 0.306708
vt 0.348447 0.001992
vt 0.351746 0.487767
vt 0.320426 0.487703
vt 0.317241 0.001992
vt 0.167282 0.854981
vt 0.147043 0.854981
vt 0.140564 0.369206
vt 0.157753 0.369206
vt 0.196834 0.369206
vt 0.187521 0.854981
vt 0.691590 0.528045
vt 0.678193 0.528045
vt 0.678193 0.505107
vt 0.691590 0.505107
vt 0.380906 0.630793
vt 0.362622 0.630794
vt 0.371974 0.145083
vt 0.392300 0.145083
vt 0.412626 0.145083
vt 0.418801 0.630794
vt 0.184524 0.001992
vt 0.269040 0.025592
vt 0.306220 0.080530
vt 0.303011 0.133693
vt 0.280467 0.185479
vt 0.262933 0.214683
vt 0.252349 0.249269
vt 0.265295 0.288160
vt 0.284377 0.337867
vt 0.271651 0.379591
vt 0.248285 0.354690
vt 0.225862 0.347705
vt 0.113640 0.373745
vt 0.084815 0.396953
vt 0.058765 0.454267
vt 0.059154 0.504332
vt 0.034898 0.483585
vt 0.015855 0.422945
vt 0.024320 0.354003
vt 0.058789 0.274623
vt 0.053311 0.247116
vt 0.006906 0.177311
vt 0.001908 0.125223
vt 0.025462 0.078407
vt 0.084150 0.028746
vt 0.898859 0.008952
vt 0.898859 0.063889
vt 0.855088 0.056929
vt 0.855088 0.001992
vt 0.898859 0.117053
vt 0.855088 0.110093
vt 0.952391 0.214072
vt 0.952391 0.236494
vt 0.908619 0.236494
vt 0.908619 0.214072
vt 0.955790 0.269503
vt 0.936513 0.268574
vt 0.905306 0.265523
vt 0.905483 0.001992
vt 0.949255 0.001992
vt 0.450184 0.001992
vt 0.481391 0.001992
vt 0.478205 0.487703
vt 0.446885 0.487767
vt 0.484798 0.542281
vt 0.444456 0.542296
vt 0.727205 0.541927
vt 0.704266 0.541927
vt 0.704266 0.531325
vt 0.727205 0.531325
vt 0.847142 0.150557
vt 0.803370 0.157517
vt 0.803370 0.231491
vt 0.847142 0.220362
vt 0.847142 0.247869
vt 0.803370 0.254829
vt 0.847142 0.327249
vt 0.803370 0.334209
vt 0.847583 0.477578
vt 0.802826 0.479830
vt 0.354238 0.512809
vt 0.313801 0.512809
vt 0.347013 0.593007
vt 0.317614 0.593007
vt 0.350583 0.622065
vt 0.314043 0.622065
vt 0.343782 0.630794
vt 0.320844 0.630794
vt 0.173866 0.894792
vt 0.135445 0.880023
vt 0.212307 0.909510
vt 0.173240 0.960221
vt 0.157549 0.960221
vt 0.188932 0.960163
vt 0.184945 0.980862
vt 0.168987 0.989279
vt 0.191329 0.996983
vt 0.177932 0.998008
vt 0.409963 0.019138
vt 0.394005 0.010721
vt 0.402951 0.001992
vt 0.416347 0.003018
vt 0.398259 0.039779
vt 0.382567 0.039779
vt 0.398885 0.105208
vt 0.360464 0.119977
vt 0.413951 0.039796
vt 0.437331 0.090505
vt 0.898859 0.168838
vt 0.855088 0.161878
vt 0.855088 0.191082
vt 0.898859 0.200510
vt 0.898859 0.232628
vt 0.855088 0.225668
vt 0.898859 0.266084
vt 0.855088 0.264559
vt 0.898859 0.321226
vt 0.898823 0.359875
vt 0.855124 0.355991
vt 0.855088 0.314266
vt 0.701155 0.505107
vt 0.730433 0.505148
vt 0.734005 0.517388
vt 0.697465 0.517388
vt 0.200903 0.972444
vt 0.200469 0.986381
vt 0.425487 0.013619
vt 0.425921 0.027556
vt 0.747163 0.555774
vt 0.739881 0.505121
vt 0.780222 0.505107
vt 0.776440 0.555816
vt 0.908655 0.190705
vt 0.952355 0.190705
vt 0.897002 0.618679
vt 0.852245 0.616427
vt 0.851526 0.566362
vt 0.897663 0.570292
vt 0.850549 0.509048
vt 0.898825 0.504261
vt 0.955364 0.349771
vt 0.905801 0.348717
vt 0.905306 0.321792
vt 0.849868 0.485840
vt 0.899431 0.483653
vn -0.6413 -0.1148 0.7587
vn -0.8910 -0.0679 0.4488
vn -0.9530 0.0453 -0.2996
vn -0.0026 -0.9999 0.0125
vn -0.2626 -0.1266 0.9566
vn -0.0000 -0.0076 -1.0000
vn -0.9987 0.0485 -0.0163
vn 0.0000 1.0000 -0.0008
vn 0.0763 -0.0075 -0.9971
vn -0.0000 -1.0000 0.0013
vn -0.0025 1.0000 -0.0029
vn 0.8249 -0.0845 0.5589
vn 0.9981 0.0091 -0.0603
vn -0.2941 0.1429 -0.9450
vn 0.4981 0.0357 -0.8664
vn 0.2752 -0.1261 0.9531
vn 0.9987 -0.0475 -0.0159
vn 0.9107 0.0048 0.4130
vn 0.7574 -0.0049 -0.6530
vn -0.9953 0.0145 -0.0956
vn -0.9274 0.0597 -0.3692
vn -0.9104 0.0662 -0.4084
vn -0.8914 0.0679 -0.4481
vn -0.8696 0.0764 -0.4878
vn -0.9850 0.0109 -0.1721
vn -0.9154 -0.0602 0.3980
vn -0.9557 -0.0440 0.2911
vn -0.9635 -0.0401 0.2648
vn -0.9924 -0.0185 0.1220
vn -0.5884 0.0656 -0.8059
vn 0.8130 0.0578 -0.5794
vn 0.8205 0.0569 -0.5687
vn -0.9083 0.0046 0.4184
vn -0.9953 -0.0003 -0.0964
vn -0.9936 -0.0005 -0.1132
vn -0.9562 -0.0022 -0.2927
vn -0.9561 -0.0022 -0.2931
vn -0.8949 -0.0034 -0.4462
vn -0.6984 -0.0054 -0.7157
vn -0.0109 0.9987 -0.0502
vn -0.0034 0.9997 -0.0240
vn 0.0290 0.9956 0.0889
vn -0.0201 0.9964 -0.0820
vn -0.0361 0.9933 -0.1099
vn -0.0358 0.9924 -0.1181
vn -0.0369 0.9934 -0.1085
vn 0.0240 0.9975 -0.0670
vn 0.0212 0.9981 -0.0580
vn 0.1325 0.8985 -0.4186
vn 0.0240 -0.9984 -0.0519
vn 0.0212 -0.9989 -0.0429
vn 0.1325 -0.9047 -0.4049
vn -0.0261 -0.9983 -0.0522
vn -0.0255 -0.9979 -0.0590
vn 0.0074 -0.9992 0.0394
vn 0.0173 -0.9971 0.0743
vn -0.0270 -0.9984 -0.0504
vn -0.0040 -1.0000 -0.0010
vn 0.0572 -0.9749 0.2150
vn 0.9150 0.0603 -0.3988
vn 0.8914 0.0686 -0.4481
vn 0.8962 0.0670 -0.4385
vn 0.9065 0.0617 -0.4177
vn 0.9199 0.0562 -0.3882
vn 0.9575 0.0373 -0.2858
vn 0.9492 -0.0522 0.3104
vn 0.9388 -0.0546 0.3401
vn 0.9390 -0.0546 0.3396
vn 0.9987 -0.0136 0.0482
vn 0.4085 0.1054 -0.9067
vn 0.4283 0.1044 -0.8976
vn 0.9934 -0.0225 0.1129
vn 0.7155 0.0048 0.6986
vn 0.8886 0.0032 0.4587
vn 0.8890 0.0032 0.4579
vn 0.9995 -0.0002 -0.0311
vn 0.0983 0.9931 -0.0648
vn 0.0827 0.9958 -0.0383
vn 0.2674 0.8940 -0.3596
vn 0.0972 -0.9939 -0.0528
vn 0.2674 -0.8993 -0.3460
vn 0.0816 -0.9963 -0.0267
vn 0.9081 -0.0029 -0.4188
vn -0.7044 0.0820 -0.7051
vn 0.9699 0.0020 -0.2435
vn 0.9756 0.0023 -0.2197
vn 0.8396 -0.0191 -0.5428
vn 0.8242 -0.0225 -0.5659
vn 0.4286 -0.0495 -0.9021
vn 0.4279 -0.0494 -0.9024
vn 0.1352 -0.0360 -0.9902
usemtl initialShadingGroup
s off
f 1/1/1 2/2/1 3/3/1 4/4/1
f 4/4/2 3/3/2 5/5/2 6/6/2
f 16/7/3 15/8/3 17/9/3 18/10/3
f 21/11/4 1/12/4 4/13/4 6/14/4 8/15/4 9/16/4 12/17/4 14/18/4 16/19/4 18/20/4 20/21/4 22/22/4 23/23/4 24/24/4 25/25/4 26/26/4 27/27/4 28/28/4 29/29/4 30/30/4 31/31/4 32/32/4 33/33/4 34/34/4 35/35/4 36/36/4 37/37/4 38/38/4
f 39/39/5 2/40/5 1/41/5 21/42/5
f 25/43/6 40/44/6 41/45/6 26/46/6
f 42/47/7 43/48/7 44/49/7 40/50/7
f 53/51/8 43/52/8 42/53/8 54/54/8 55/55/8 56/56/8
f 63/57/9 52/58/9 51/59/9 62/60/9
f 41/61/10 40/62/10 44/63/10 69/64/10 70/65/10 71/66/10
f 39/67/11 72/68/11 73/69/11 74/70/11 75/71/11 76/72/11 77/73/11 78/74/11 79/75/11 80/76/11 81/77/11 82/78/11 55/55/11 54/54/11 42/53/11 83/79/11 84/80/11 85/81/11 19/82/11 17/83/11 15/84/11 13/85/11 11/86/11 10/87/11 7/88/11 5/89/11 3/90/11 2/91/11
f 38/92/12 37/93/12 73/94/12 72/95/12
f 37/93/13 36/96/13 74/97/13 73/94/13
f 29/98/14 28/99/14 82/100/14 81/101/14
f 28/99/15 27/102/15 71/103/15 55/104/15 82/100/15
f 39/39/16 21/42/16 38/105/16 72/106/16
f 27/102/6 26/46/6 41/45/6 71/103/6
f 55/107/17 71/108/17 70/109/17 56/110/17
f 56/110/18 70/109/18 68/111/18 58/112/18
f 63/113/19 62/114/19 89/115/19 88/116/19
s 1
f 6/6/20 5/5/20 7/117/21 8/118/22
f 9/119/23 10/120/24 11/121/25 12/122/25
f 12/122/26 11/121/26 13/123/27 14/124/28
f 14/124/28 13/123/27 15/8/29 16/7/29
f 18/10/30 17/9/30 19/125/31 20/126/32
f 43/48/33 45/127/34 46/128/35 44/49/33
f 46/128/35 45/127/34 47/129/36 48/130/37
f 47/129/36 49/131/38 50/132/38 48/130/37
f 49/131/38 51/133/39 52/134/39 50/132/38
f 57/135/40 45/136/41 43/52/42 53/51/42 56/56/42 58/137/43
f 59/138/44 47/139/45 45/136/41 57/135/40 58/137/43 60/140/46
f 61/141/47 49/142/48 47/139/45 59/138/44
f 62/143/49 51/144/49 49/142/48 61/141/47
f 64/145/50 50/146/51 52/147/52 63/148/52
f 65/149/53 48/150/54 50/146/51 64/145/50
f 66/151/55 46/152/56 48/150/54 65/149/53 67/153/57 68/154/58
f 69/64/59 44/63/59 46/152/56 66/151/55 68/154/58 70/65/59
f 36/96/60 35/155/61 75/156/62 74/97/60
f 76/157/63 34/158/64 33/159/65 77/160/65
f 33/159/66 32/161/67 78/162/68 77/160/66
f 31/163/69 30/164/70 80/165/71 79/166/72
f 60/167/73 67/168/73 86/169/74 87/170/75
f 87/170/75 86/169/74 88/116/76 89/115/76
f 61/141/77 59/138/44 60/140/46 87/171/78
f 62/143/79 61/141/77 87/171/78 89/172/79
f 64/145/80 63/148/81 88/173/81 86/174/82
f 65/149/53 64/145/80 86/174/82 67/153/57
f 60/175/83 58/176/83 68/177/83 67/178/83
f 80/179/71 30/180/70 29/98/84 81/101/84
f 78/162/68 32/161/67 31/163/69 79/166/72
f 20/181/32 19/182/31 85/183/85 22/184/86
f 22/184/86 85/183/85 84/185/87 23/186/88
f 24/187/89 83/188/90 42/189/91 40/44/91 25/43/91
f 35/155/61 34/158/64 76/157/63 75/156/62
f 8/118/22 7/117/21 10/120/24 9/119/23
f 23/186/88 84/185/87 83/190/90 24/191/89
