# Blender v2.79 (sub 6) OBJ File: 'cofrenormal.blend'
# www.blender.org
mtllib cofrenormal_000011.mtl
o cofre
v 1.960140 2.696185 -3.163639
v 1.960142 2.696177 3.169597
v 2.607004 7.236913 3.139724
v 2.607003 7.236909 -3.132476
v -1.894863 2.667998 -3.132476
v -1.894865 2.667998 3.139725
v 2.819333 3.445479 -3.133961
v 2.819334 3.445480 3.139920
v 4.630433 4.510781 3.139920
v 4.630433 4.510779 -3.133961
v 4.762385 5.059422 -3.133961
v 4.762385 5.059424 3.139920
v 4.458845 6.058792 -3.133963
v 4.458846 6.058794 3.139917
v 3.645389 6.880140 3.139917
v 3.905667 3.758727 3.139918
v -1.894865 0.000000 -3.132475
v -1.894866 -0.000000 3.139725
v 1.895514 0.000000 -3.165610
v 1.895513 -0.000000 3.171567
v 3.645388 6.880137 -3.133963
v 3.905666 3.758726 -3.133961
vt 0.130309 0.439479
vt 0.095585 0.439007
vt 0.095573 0.465262
vt 0.130633 0.465262
vt 0.095562 0.415861
vt 0.130524 0.415871
vt 0.130309 0.439479
vt 0.095585 0.439007
vt 0.502348 0.882649
vt 0.381279 0.882555
vt 0.381485 0.904116
vt 0.502472 0.903929
vt 0.381279 0.828144
vt 0.502386 0.828245
vt 0.502386 0.839037
vt 0.381279 0.839037
vt 0.502386 0.828245
vt 0.381279 0.828144
vt 0.381362 0.806118
vt 0.502308 0.806160
vt 0.505361 0.784409
vt 0.571281 0.785821
vt 0.561509 0.809954
vt 0.515657 0.810279
vt 0.507760 0.252160
vt 0.386457 0.252000
vt 0.386584 0.200841
vt 0.507871 0.200829
vt 0.384172 0.126902
vt 0.509698 0.126721
vt 0.507871 0.200829
vt 0.386584 0.200841
vt 0.545912 0.818893
vt 0.533907 0.819660
vt 0.507760 0.252160
vt 0.507760 0.303527
vt 0.386457 0.303562
vt 0.386457 0.252000
vt 0.312695 0.201020
vt 0.386457 0.252000
vt 0.312738 0.252313
vt 0.381700 0.763102
vt 0.502253 0.763261
vt 0.502218 0.784221
vt 0.381615 0.784050
vt 0.573339 0.763609
vt 0.503480 0.763378
vt 0.502386 0.839037
vt 0.502367 0.861995
vt 0.381259 0.861894
vt 0.381279 0.839037
vt 0.571281 0.785821
vt 0.561509 0.809954
vt 0.515657 0.810279
vt 0.505361 0.784409
vt 0.545912 0.818893
vt 0.533907 0.819660
vt 0.507760 0.252160
vt 0.507871 0.200829
vt 0.580595 0.200741
vt 0.580849 0.252371
vt 0.502860 0.763068
vt 0.573339 0.763609
vt 0.502367 0.861995
vt 0.502348 0.882649
vt 0.381279 0.882555
vt 0.381259 0.861894
vn -0.9900 0.1410 0.0000
vn -0.0073 1.0000 0.0000
vn 0.3457 -0.6157 -0.7081
vn 0.2524 -0.6181 0.7445
vn 0.6012 -0.6816 0.4172
vn 0.6010 -0.6817 -0.4173
vn 0.6644 -0.3643 0.6526
vn 0.6644 -0.3643 -0.6525
vn 0.7574 0.0223 -0.6525
vn 0.7574 0.0223 0.6526
vn 0.6477 0.3862 -0.6568
vn 0.6477 0.3862 0.6568
vn 0.4061 0.6293 0.6626
vn 0.3908 -0.6485 0.6533
vn -0.7083 0.0003 0.7059
vn -0.7085 0.0003 -0.7058
vn -0.5796 -0.5777 -0.5747
vn -0.5795 -0.5777 0.5749
vn 0.5674 -0.5830 -0.5815
vn 0.5675 -0.5830 0.5814
vn 0.7113 -0.0169 -0.7027
vn 0.7114 -0.0169 0.7026
vn 0.2530 0.7092 -0.6581
vn 0.2534 0.7088 0.6583
vn 0.3973 0.6391 -0.6586
vn 0.3908 -0.6485 -0.6533
usemtl None
s off
f 1/1/1 2/2/1 3/3/1 4/4/1
f 2/5/2 1/6/2 5/7/2 6/8/2
s 1
f 7/9/3 8/10/4 2/11/5 1/12/6
f 9/13/7 10/14/8 11/15/9 12/16/10
f 12/17/10 11/18/9 13/19/11 14/20/12
f 15/21/13 8/22/4 16/23/14 14/24/12
f 6/25/15 5/26/16 17/27/17 18/28/18
f 18/29/18 17/30/17 19/31/19 20/32/20
f 14/24/12 16/23/14 9/33/7 12/34/10
f 19/35/19 1/36/21 2/37/22 20/38/20
f 18/39/18 20/32/20 2/40/22 6/41/15
f 4/42/23 3/43/24 15/44/13 21/45/25
f 2/46/5 8/22/4 15/21/13 3/47/24
f 22/48/26 10/49/8 9/50/7 16/51/14
f 14/20/12 13/19/11 21/45/25 15/44/13
f 21/52/25 13/53/11 22/54/26 7/55/3
f 13/53/11 11/56/9 10/57/8 22/54/26
f 17/58/17 5/59/16 1/60/21 19/61/19
f 1/62/6 4/63/23 21/52/25 7/55/3
f 7/64/3 22/65/26 16/66/14 8/67/4
