# Blender v2.79 (sub 6) OBJ File: 'bailarina.blend1'
# www.blender.org
mtllib Guitarra1_000025.mtl
o g1_pCube6
v -2.870319 4.981300 -0.928788
v -2.703934 5.094814 -1.045592
v -2.764081 5.358714 -0.874803
v -2.930466 5.245200 -0.758000
v -2.955049 6.366437 -0.613523
v -3.146752 6.572614 -0.555350
v -3.539180 6.304884 -0.279865
v -3.438590 6.032819 -0.275462
v -4.766681 12.163697 3.474661
v -4.162855 12.575653 3.050770
v -3.047946 5.778677 -0.410531
v -2.876567 5.895598 -0.530840
v -2.945683 6.181532 -0.351410
v -3.116984 6.064576 -0.231022
v -2.848111 5.087682 -1.703941
v -3.332455 4.757245 -1.363929
v -3.507164 4.831677 -1.540466
v -3.022822 5.162112 -1.880477
v -3.529714 6.735766 -0.942319
v -4.609632 12.765992 2.599319
v -5.213460 12.354036 3.023210
v -3.922142 6.468036 -0.666832
v -3.777256 5.367679 -1.845210
v -3.837403 5.631578 -1.674421
v -3.671018 5.745093 -1.791225
v -3.610871 5.481194 -1.962014
v -3.960647 6.167511 -1.332776
v -4.021100 6.449754 -1.144595
v -3.849643 6.566644 -1.264825
v -3.789268 6.284433 -1.453085
v -5.319321 13.406830 2.055629
v -5.933061 14.442296 2.016470
v -6.208140 15.366030 2.440234
v -6.104451 16.184128 3.383002
v -5.713625 16.482189 4.229396
v -5.070472 16.415974 5.081213
v -4.322416 15.889496 5.635156
v -3.697052 15.158512 5.815578
v -3.158041 14.066603 5.522233
v -3.101273 13.235877 4.877875
v -3.481340 12.623801 3.912831
v -5.882310 15.862106 5.651128
v -6.525464 15.928317 4.799311
v -6.916291 15.630259 3.952917
v -7.019977 14.812160 3.010148
v -6.715463 13.908509 2.565721
v -6.040350 12.914917 2.561796
v -4.202369 12.131887 4.418998
v -3.883674 12.702090 5.427127
v -3.969877 13.512735 6.092147
v -4.508892 14.604643 6.385492
v -5.134254 15.335626 6.205071
v -3.853255 5.506877 -1.377712
v -3.803980 5.680381 -1.138468
v -3.319638 6.010818 -1.478478
v -3.369080 5.837165 -1.717675
v -3.252408 5.250900 -0.770582
v -2.768182 5.581165 -1.110494
v -2.915932 5.838830 -1.070551
v -3.400275 5.508391 -0.730540
v -3.229771 6.069498 -0.460997
v -3.111657 6.150168 -0.544047
v -3.528474 5.583989 -1.666674
v -3.638888 5.508660 -1.589163
v -3.355857 5.704102 -0.477071
v -2.871515 6.034539 -0.817081
v -3.177813 4.922929 -0.982627
v -3.333256 4.848953 -1.275941
v -2.848913 5.179392 -1.615953
v -2.693471 5.253365 -1.322638
v -3.012861 5.142405 -1.053338
v -2.937906 5.063544 -0.993045
v -2.980678 5.251209 -0.871593
v -3.037991 5.252662 -0.981982
v -2.848642 5.341288 -0.964284
v -2.927577 5.327991 -1.059493
v -2.805869 5.153624 -1.085737
v -2.902448 5.217732 -1.130849
v -3.195910 5.937929 -0.540625
v -3.121663 5.857384 -0.476073
v -3.172663 6.064148 -0.347781
v -3.027956 6.162960 -0.449500
v -2.976877 5.956163 -0.577713
v -3.077717 6.018564 -0.623598
v -3.778710 5.178928 -1.589808
v -3.552492 4.942354 -1.497472
v -3.068150 5.272791 -1.837482
v -3.294369 5.509364 -1.929820
v -3.472412 6.290537 -1.424263
v -3.538472 6.614991 -1.203047
v -4.022182 6.281446 -0.865157
v -3.956755 5.960101 -1.084251
v -3.613758 5.398403 -1.660520
v -3.735467 5.572770 -1.634277
v -3.692696 5.385103 -1.755728
v -3.603432 5.662849 -1.726967
v -3.503345 5.473730 -1.738030
v -3.560659 5.475184 -1.848419
v -3.793277 6.192423 -1.144240
v -3.818554 6.320336 -1.055938
v -3.919255 6.382216 -1.102180
v -3.876838 6.179110 -1.239147
v -3.700284 6.400938 -1.138829
v -3.774391 6.480962 -1.203742
v -3.675084 6.273059 -1.227213
v -3.732053 6.277888 -1.340787
vt 0.490765 0.813794
vt 0.479858 0.813794
vt 0.479858 0.798802
vt 0.490765 0.798802
vt 0.616076 0.511522
vt 0.619151 0.500416
vt 0.644876 0.500416
vt 0.647826 0.511700
vt 0.640393 0.169448
vt 0.600810 0.169448
vt 0.582271 0.814940
vt 0.571036 0.814940
vt 0.571036 0.798802
vt 0.582271 0.798802
vt 0.586269 0.830552
vt 0.586269 0.798802
vt 0.598415 0.798802
vt 0.598415 0.830552
vt 0.474138 0.589115
vt 0.476356 0.258148
vt 0.502981 0.258148
vt 0.505199 0.589115
vt 0.259064 0.707501
vt 0.256846 0.376534
vt 0.287906 0.376534
vt 0.285688 0.707501
vt 0.435681 0.813794
vt 0.435681 0.798802
vt 0.446588 0.798802
vt 0.446588 0.813794
vt 0.660312 0.169448
vt 0.699895 0.169448
vt 0.681554 0.500416
vt 0.655829 0.500416
vt 0.525283 0.814940
vt 0.525283 0.798802
vt 0.536518 0.798802
vt 0.536518 0.814940
vt 0.553558 0.606525
vt 0.588104 0.650946
vt 0.595692 0.699641
vt 0.573352 0.753896
vt 0.538028 0.783127
vt 0.489669 0.796201
vt 0.441309 0.783127
vt 0.405986 0.753896
vt 0.383645 0.699641
vt 0.391233 0.650946
vt 0.425779 0.606525
vt 0.272376 0.169448
vt 0.320735 0.182522
vt 0.356059 0.211753
vt 0.378400 0.266008
vt 0.370811 0.314703
vt 0.336265 0.359124
vt 0.208486 0.359124
vt 0.173941 0.314703
vt 0.166352 0.266008
vt 0.188693 0.211753
vt 0.224016 0.182522
vt 0.652889 0.555919
vt 0.652879 0.543671
vt 0.684630 0.543671
vt 0.684630 0.555922
vt 0.647816 0.555919
vt 0.616076 0.555922
vt 0.616076 0.543671
vt 0.647826 0.543671
vt 0.616076 0.555922
vt 0.647816 0.555919
vt 0.647826 0.511700
vt 0.684630 0.530166
vt 0.684630 0.555922
vt 0.652889 0.555919
vt 0.652879 0.530166
vt 0.647826 0.530166
vt 0.616076 0.530166
vt 0.647826 0.574545
vt 0.647826 0.583366
vt 0.616076 0.583366
vt 0.616076 0.574545
vt 0.647826 0.589115
vt 0.616076 0.589115
vt 0.475860 0.809430
vt 0.470510 0.811628
vt 0.470510 0.800967
vt 0.475860 0.803166
vt 0.342563 0.807874
vt 0.337214 0.808583
vt 0.337214 0.799927
vt 0.342563 0.800636
vt 0.461224 0.809430
vt 0.455874 0.811628
vt 0.455874 0.800967
vt 0.461224 0.803166
vt 0.327927 0.807874
vt 0.322578 0.808583
vt 0.322578 0.799927
vt 0.327927 0.800636
vt 0.566740 0.810738
vt 0.561254 0.812889
vt 0.561553 0.801247
vt 0.567038 0.803367
vt 0.402405 0.808295
vt 0.396920 0.809166
vt 0.396925 0.799675
vt 0.402411 0.800547
vt 0.551781 0.810374
vt 0.546295 0.812495
vt 0.545991 0.800852
vt 0.551477 0.803003
vt 0.387446 0.808291
vt 0.381960 0.809163
vt 0.381960 0.799672
vt 0.387446 0.800543
vt 0.317289 0.809709
vt 0.317289 0.798802
vt 0.450586 0.813794
vt 0.450586 0.798802
vt 0.331925 0.809709
vt 0.331925 0.798802
vt 0.465222 0.813794
vt 0.465222 0.798802
vt 0.376485 0.810036
vt 0.376485 0.798802
vt 0.540820 0.814940
vt 0.540516 0.798802
vt 0.391444 0.810036
vt 0.391449 0.798802
vt 0.555779 0.814940
vt 0.556077 0.798802
vt 0.251488 0.781630
vt 0.251490 0.763005
vt 0.293262 0.763005
vt 0.293263 0.781630
vt 0.264755 0.790452
vt 0.279997 0.790452
vt 0.266303 0.796201
vt 0.278449 0.796201
vt 0.482048 0.175197
vt 0.483596 0.169448
vt 0.495742 0.169448
vt 0.497289 0.175197
vt 0.468781 0.184019
vt 0.510556 0.184019
vt 0.468781 0.202641
vt 0.510556 0.202641
vt 0.475635 0.214893
vt 0.503702 0.214893
vt 0.468781 0.228398
vt 0.510556 0.228398
vt 0.469388 0.247042
vt 0.509949 0.247042
vt 0.252090 0.718786
vt 0.292662 0.718786
vt 0.251488 0.737251
vt 0.293263 0.737251
vt 0.258343 0.750756
vt 0.286409 0.750756
vt 0.706878 0.301629
vt 0.758167 0.301629
vt 0.758167 0.346050
vt 0.710901 0.346050
vt 0.700942 0.640075
vt 0.653676 0.640075
vt 0.657704 0.591716
vt 0.697287 0.591716
vt 0.704940 0.397010
vt 0.758159 0.397010
vt 0.758159 0.445370
vt 0.704940 0.445370
vt 0.704948 0.169448
vt 0.758167 0.169448
vt 0.758167 0.198679
vt 0.704948 0.198679
vt 0.758167 0.252934
vt 0.704948 0.252934
vt 0.647826 0.530166
vt 0.647816 0.555919
vt 0.616076 0.555922
vt 0.616076 0.530166
vt 0.652879 0.530166
vt 0.684630 0.530166
vt 0.652879 0.574545
vt 0.684630 0.574545
vt 0.684630 0.583366
vt 0.652879 0.583366
vt 0.684630 0.589115
vt 0.652879 0.589115
vt 0.684630 0.511522
vt 0.652879 0.511700
vt 0.421045 0.809430
vt 0.421045 0.803166
vt 0.426394 0.800967
vt 0.426394 0.811628
vt 0.302653 0.807874
vt 0.302653 0.800636
vt 0.308002 0.799927
vt 0.308002 0.808583
vt 0.406408 0.809430
vt 0.406408 0.803166
vt 0.411758 0.800967
vt 0.411758 0.811628
vt 0.288017 0.807874
vt 0.288017 0.800636
vt 0.293366 0.799927
vt 0.293366 0.808583
vt 0.510324 0.810738
vt 0.510026 0.803367
vt 0.515511 0.801247
vt 0.515810 0.812889
vt 0.361526 0.808295
vt 0.361520 0.800547
vt 0.367006 0.799675
vt 0.367011 0.809166
vt 0.494763 0.810374
vt 0.495067 0.803003
vt 0.500552 0.800852
vt 0.500248 0.812495
vt 0.346561 0.808291
vt 0.346561 0.800543
vt 0.352047 0.799672
vt 0.352047 0.809163
vt 0.298655 0.798802
vt 0.298655 0.809709
vt 0.417047 0.798802
vt 0.417047 0.813794
vt 0.313291 0.798802
vt 0.313291 0.809709
vt 0.431683 0.798802
vt 0.431683 0.813794
vt 0.357522 0.798802
vt 0.357522 0.810036
vt 0.506028 0.798802
vt 0.505724 0.814940
vt 0.372481 0.798802
vt 0.372487 0.810036
vt 0.520987 0.798802
vt 0.521285 0.814940
vt 0.813446 0.301629
vt 0.809422 0.346050
vt 0.762156 0.346050
vt 0.762156 0.301629
vt 0.649678 0.591716
vt 0.646023 0.640075
vt 0.606440 0.640075
vt 0.602412 0.591716
vt 0.704940 0.348651
vt 0.758159 0.348651
vt 0.815375 0.169448
vt 0.815375 0.198679
vt 0.762156 0.198679
vt 0.762156 0.169448
vt 0.815375 0.252934
vt 0.762156 0.252934
vt 0.647816 0.555919
vt 0.647826 0.530166
vt 0.616076 0.530166
vt 0.616076 0.555922
vt 0.616076 0.555922
vt 0.616076 0.555922
vt 0.647816 0.555919
vt 0.647826 0.530166
vt 0.616076 0.530166
vt 0.616076 0.555922
vt 0.647816 0.555919
vt 0.616076 0.530166
vt 0.647826 0.530166
vt 0.647816 0.555919
vt 0.616076 0.555922
vt 0.652889 0.555919
vt 0.684630 0.530166
vt 0.684630 0.555922
vt 0.652879 0.530166
vt 0.652889 0.555919
vt 0.684630 0.530166
vt 0.652879 0.530166
vt 0.652889 0.555919
vt 0.684630 0.555922
vt 0.652879 0.530166
vt 0.684630 0.530166
vt 0.684630 0.555922
vt 0.652889 0.555919
vt 0.684630 0.555922
vt 0.684630 0.530166
vt 0.652879 0.530166
vt 0.652889 0.555919
vt 0.684630 0.530166
vt 0.652879 0.530166
vt 0.684630 0.555922
vt 0.652889 0.555919
vn 0.6738 -0.2871 0.6809
vn 0.5974 -0.0540 0.8001
vn 0.4715 0.1914 0.8608
vn 0.5978 -0.0547 0.7998
vn 0.6751 -0.2926 0.6773
vn 0.6704 -0.2715 0.6906
vn 0.1879 -0.8246 -0.5336
vn 0.7239 0.4412 -0.5304
vn -0.7171 -0.4763 0.5088
vn -0.6738 0.2871 -0.6809
vn -0.6725 0.2815 -0.6844
vn -0.6770 0.3025 -0.6709
vn 0.7216 0.4541 -0.5227
vn -0.7128 -0.4954 0.4965
vn -0.6798 0.6531 -0.3336
vn 0.4963 0.1521 0.8547
vn 0.8154 -0.3351 0.4720
vn 0.6913 -0.2408 0.6812
vn 0.6669 -0.2579 0.6991
vn -0.6739 0.2871 -0.6808
vn 0.6981 -0.4739 0.5367
vn 0.6859 -0.6292 0.3656
vn 0.7110 -0.4581 0.5335
vn 0.5487 -0.7245 0.4172
vn 0.6065 -0.7892 0.0970
vn 0.6066 -0.7891 0.0969
vn 0.6518 -0.6731 0.3493
vn 0.6995 -0.4916 0.5187
vn -0.7969 -0.4456 0.4079
vn -0.8277 -0.4255 0.3659
vn -0.8277 -0.4255 0.3660
vn -0.4300 0.8718 0.2347
vn -0.4296 0.8718 0.2353
vn 0.6199 0.5210 -0.5867
vn 0.5765 0.5325 -0.6198
vn -0.0823 -0.6535 -0.7524
vn -0.0818 -0.6540 -0.7521
vn -0.8105 -0.4405 0.3860
vn -0.8107 -0.4397 0.3866
vn -0.4184 0.8725 0.2523
vn -0.4353 0.8712 0.2270
vn -0.4353 0.8712 0.2271
vn 0.6009 0.5224 -0.6050
vn 0.6005 0.5233 -0.6046
vn -0.0710 -0.6629 -0.7454
vn -0.0648 -0.6679 -0.7414
vn -0.0652 -0.6676 -0.7417
vn -0.0814 -0.6543 -0.7518
vn 0.5586 0.5366 -0.6324
vn -0.4292 0.8719 0.2359
vn -0.8392 -0.4171 0.3489
vn -0.0603 -0.6715 -0.7385
vn 0.6003 0.5238 -0.6044
vn -0.4465 0.8699 0.2098
vn -0.8108 -0.4393 0.3869
vn -0.7147 -0.4872 0.5019
vn -0.7146 -0.4875 0.5017
vn -0.7146 -0.4875 0.5016
vn 0.7146 0.4875 -0.5017
vn 0.7007 0.5406 -0.4656
vn 0.6385 0.6899 -0.3410
vn -0.7251 -0.4343 0.5345
vn -0.7389 -0.2632 0.6203
vn -0.7251 -0.4342 0.5345
vn -0.7145 -0.4878 0.5015
vn -0.7146 -0.4877 0.5016
vn -0.7145 -0.4879 0.5014
vn 0.6930 -0.5908 0.4131
vn 0.6922 -0.5967 0.4061
vn 0.5642 -0.8256 0.0013
vn 0.5665 -0.8240 0.0061
vn 0.4051 -0.8731 -0.2715
vn -0.0056 0.7211 0.6928
vn 0.1364 0.6063 0.7834
vn 0.1363 0.6063 0.7835
vn 0.4476 0.2325 0.8635
vn 0.4475 0.2325 0.8635
vn 0.6396 -0.1651 0.7508
vn 0.6387 -0.1621 0.7522
vn 0.6738 -0.2870 0.6809
vn -0.6365 0.1259 -0.7610
vn -0.6060 0.0744 -0.7920
vn -0.5158 -0.1172 -0.8487
vn -0.4754 -0.1877 -0.8595
vn -0.4755 -0.1875 -0.8595
vn -0.3385 -0.3866 -0.8579
vn -0.3387 -0.3867 -0.8578
vn -0.6018 0.0628 -0.7962
vn -0.7044 0.5165 -0.4869
vn -0.7303 0.5250 -0.4370
vn -0.6724 0.6788 -0.2951
vn -0.6199 -0.5210 0.5867
vn -0.5765 -0.5325 0.6198
vn 0.0823 0.6535 0.7524
vn 0.0818 0.6540 0.7521
vn 0.7969 0.4456 -0.4079
vn 0.8277 0.4255 -0.3660
vn 0.4300 -0.8718 -0.2347
vn 0.4296 -0.8718 -0.2353
vn -0.5992 -0.5306 0.5996
vn -0.5993 -0.5298 0.6001
vn -0.5994 -0.5295 0.6003
vn 0.0675 0.6655 0.7434
vn 0.0887 0.6480 0.7565
vn 0.8125 0.4323 -0.3912
vn 0.8124 0.4330 -0.3905
vn 0.4210 -0.8725 -0.2483
vn 0.4161 -0.8727 -0.2555
vn 0.4292 -0.8719 -0.2359
vn 0.8392 0.4171 -0.3489
vn 0.0814 0.6543 0.7518
vn -0.5587 -0.5366 0.6324
vn 0.4123 -0.8729 -0.2609
vn 0.8124 0.4334 -0.3901
vn 0.1030 0.6358 0.7650
vn -0.5995 -0.5293 0.6004
vn -0.5439 -0.0638 -0.8367
vn -0.2723 -0.4666 -0.8415
vn -0.2687 -0.4708 -0.8403
vn -0.5399 -0.0718 -0.8387
vn -0.0514 -0.6786 -0.7327
vn -0.3573 0.8709 0.3375
vn -0.4717 0.8654 0.1690
vn -0.4718 0.8654 0.1690
vn -0.6612 0.7048 -0.2569
vn -0.6942 0.4057 -0.5946
vn -0.6939 0.4031 -0.5967
vn 0.6674 -0.2658 0.6956
vn 0.6642 -0.2600 0.7009
vn 0.6896 -0.2558 0.6775
vn 0.6697 -0.2642 0.6941
vn 0.6694 -0.2562 0.6973
vn 0.8381 -0.0959 0.5370
vn -0.6738 0.2871 -0.6808
vn -0.6810 0.3150 -0.6610
vn -0.6797 0.3081 -0.6656
vn -0.6775 0.3097 -0.6672
vn -0.6788 0.3166 -0.6626
usemtl initialShadingGroup.001
s off
f 1/1/1 2/2/1 3/3/1 4/4/1
f 5/5/2 6/6/3 7/7/3 8/8/4
f 9/9/5 7/7/5 6/6/5 10/10/5
f 11/11/6 12/12/6 13/13/6 14/14/6
f 15/15/7 16/16/7 17/17/7 18/18/7
f 10/19/8 6/20/8 19/21/8 20/22/8
f 7/23/9 9/24/9 21/25/9 22/26/9
f 23/27/10 24/28/10 25/29/10 26/30/10
f 21/31/11 20/32/11 19/33/11 22/34/11
f 27/35/12 28/36/12 29/37/12 30/38/12
f 10/19/13 20/22/13 31/39/13 32/40/13 33/41/13 34/42/13 35/43/13 36/44/13 37/45/13 38/46/13 39/47/13 40/48/13 41/49/13
f 42/50/14 43/51/14 44/52/14 45/53/14 46/54/14 47/55/14 21/25/14 9/24/14 48/56/14 49/57/14 50/58/14 51/59/14 52/60/14
f 53/61/15 54/62/15 55/63/15 56/64/15
f 57/65/16 58/66/16 59/67/16 60/68/16
f 5/5/17 8/69/18 61/70/19 62/71/19
f 56/72/20 63/73/20 64/74/20 53/75/20
s 1
f 65/76/21 60/68/22 59/67/22 66/77/23
f 67/78/24 68/79/25 69/80/26 70/81/27
f 68/79/25 16/82/28 15/83/28 69/80/26
f 71/84/29 72/85/30 73/86/31 74/87/29
f 74/88/32 73/89/33 75/90/33 76/91/32
f 76/92/34 75/93/35 77/94/35 78/95/34
f 78/96/36 77/97/37 72/98/37 71/99/36
f 79/100/38 80/101/39 81/102/39 61/103/38
f 61/104/40 81/105/41 82/106/42 62/107/40
f 62/108/43 82/109/44 83/110/44 84/111/43
f 84/112/45 83/113/46 80/114/47 79/115/45
f 77/97/37 2/116/48 1/117/48 72/98/37
f 75/93/35 3/118/49 2/119/49 77/94/35
f 73/89/33 4/120/50 3/121/50 75/90/33
f 72/85/30 1/122/51 4/123/51 73/86/31
f 83/113/46 12/124/52 11/125/52 80/114/47
f 82/109/44 13/126/53 12/127/53 83/110/44
f 81/105/41 14/128/54 13/129/54 82/106/42
f 80/101/39 11/130/55 14/131/55 81/102/39
f 67/132/56 57/133/57 53/134/57 85/135/56
f 68/136/57 67/132/56 85/135/56 86/137/57
f 16/138/58 68/136/57 86/137/57 17/139/58
f 69/140/59 15/141/59 18/142/59 87/143/59
f 70/144/59 69/140/59 87/143/59 88/145/59
f 58/146/59 70/144/59 88/145/59 56/147/59
f 59/148/59 58/146/59 56/147/59 55/149/59
f 66/150/59 59/148/59 55/149/59 89/151/59
f 5/152/60 66/150/59 89/151/59 90/153/60
f 6/20/61 5/152/60 90/153/60 19/21/61
f 8/154/62 7/23/63 22/26/63 91/155/64
f 65/156/57 8/154/62 91/155/64 92/157/57
f 60/158/65 65/156/57 92/157/57 54/159/65
f 57/133/66 60/158/67 54/159/67 53/134/66
f 40/160/68 49/161/69 48/162/70 41/163/71
f 41/164/71 48/165/70 9/166/72 10/167/72
f 36/168/73 42/169/73 52/170/74 37/171/75
f 37/172/75 52/173/74 51/174/76 38/175/77
f 38/175/77 51/174/76 50/176/78 39/177/79
f 39/177/79 50/176/78 49/161/69 40/160/68
f 67/178/24 71/179/80 74/180/80 57/181/80
f 92/182/81 89/183/82 55/63/83 54/62/83
f 85/184/84 88/185/85 87/186/86 86/187/87
f 86/187/87 87/186/86 18/188/88 17/189/88
f 90/190/89 91/191/90 22/34/91 19/33/91
f 93/192/92 64/193/92 94/194/93 95/195/93
f 64/196/94 63/197/94 96/198/95 94/199/95
f 63/200/96 97/201/96 98/202/97 96/203/97
f 97/204/98 93/205/98 95/206/99 98/207/99
f 99/208/100 100/209/100 101/210/101 102/211/102
f 100/212/103 103/213/103 104/214/104 101/215/104
f 103/216/105 105/217/105 106/218/106 104/219/106
f 105/220/107 99/221/107 102/222/108 106/223/108
f 98/207/99 95/206/99 23/224/109 26/225/109
f 96/203/97 98/202/97 26/226/110 25/227/110
f 94/199/95 96/198/95 25/228/111 24/229/111
f 95/195/93 94/194/93 24/230/112 23/231/112
f 106/223/108 102/222/108 27/232/113 30/233/113
f 104/219/106 106/218/106 30/234/114 29/235/114
f 101/215/104 104/214/104 29/236/115 28/237/115
f 102/211/102 101/210/101 28/238/116 27/239/116
f 32/240/117 31/241/118 47/242/119 46/243/120
f 31/244/118 20/245/121 21/246/121 47/247/119
f 36/168/122 35/248/123 43/249/124 42/169/122
f 35/250/123 34/251/125 44/252/125 43/253/124
f 34/251/125 33/254/126 45/255/127 44/252/125
f 33/254/126 32/240/117 46/243/120 45/255/127
f 79/256/128 61/257/129 8/258/130 65/259/21
f 84/260/131 79/256/128 65/76/21 66/77/23
f 62/261/132 84/262/131 66/263/23 5/264/133
f 67/78/24 70/81/27 78/265/1 71/179/80
f 76/266/80 78/265/1 70/267/27 58/268/80
f 57/65/80 74/269/80 76/270/80 58/66/80
f 85/271/20 53/75/20 64/272/20 93/273/134
f 56/72/10 88/274/10 97/275/10 63/73/10
f 88/276/10 85/277/20 93/278/134 97/279/10
f 91/280/90 100/281/135 99/282/136 92/283/81
f 89/284/82 92/285/81 99/286/136 105/287/137
f 90/288/89 89/289/82 105/287/137 103/290/138
f 91/280/90 90/291/89 103/290/138 100/281/135
