# Blender v2.79 (sub 6) OBJ File: 'bailarina.blend1'
# www.blender.org
mtllib Guitarra1_000018.mtl
o g1_pCube6
v 2.769778 10.154636 2.442089
v 2.773302 9.958481 2.316694
v 3.093037 9.955411 2.330482
v 3.089512 10.151567 2.455877
v 4.111651 9.886575 2.051326
v 4.353670 10.019743 1.971727
v 4.345354 10.482384 2.267475
v 4.097573 10.457543 2.416284
v 11.403187 10.308512 2.560199
v 11.415981 9.596648 2.105133
v 3.736120 10.141519 2.486387
v 3.739751 9.939477 2.357229
v 4.084195 9.939667 2.366616
v 4.080558 10.141645 2.495871
v 2.469433 10.065828 1.724747
v 2.459171 10.636827 2.089765
v 2.469923 10.776499 1.871577
v 2.480184 10.205501 1.506561
v 4.377235 10.325900 1.493464
v 11.443473 9.953823 1.547175
v 11.430678 10.665688 2.002242
v 4.368919 10.788541 1.789213
v 2.825584 10.879683 1.309461
v 3.145318 10.876616 1.323251
v 3.148842 10.680459 1.197856
v 2.829109 10.683528 1.184067
v 3.792281 10.871173 1.346562
v 4.136191 10.864439 1.366766
v 4.139819 10.662333 1.237706
v 3.795912 10.669131 1.217405
v 11.858747 10.440622 0.652465
v 12.837955 10.756424 0.026509
v 13.883793 10.799019 -0.087204
v 15.021080 10.531011 0.364016
v 15.613201 10.118834 1.025435
v 15.849222 9.560059 1.906166
v 15.527594 9.006636 2.762845
v 14.872948 8.606426 3.370492
v 13.696112 8.360627 3.721909
v 12.663706 8.492559 3.562986
v 11.745649 8.971254 2.947824
v 15.832018 10.517148 2.517997
v 15.595997 11.075925 1.637266
v 15.003878 11.488101 0.975846
v 13.866592 11.756109 0.524627
v 12.821375 11.678813 0.616157
v 11.843470 11.290654 1.195857
v 11.730373 9.821288 3.491218
v 12.647126 9.414948 4.152634
v 13.678909 9.317718 4.333740
v 14.855745 9.563516 3.982322
v 15.510391 9.963726 3.374677
v 3.190988 10.939860 1.635905
v 3.446138 10.858732 1.770388
v 3.456403 10.287733 1.405370
v 3.201182 10.369062 1.270969
v 3.154016 10.459515 2.386270
v 3.164207 9.888678 2.021399
v 3.431561 9.964992 1.909535
v 3.421298 10.535992 2.274553
v 3.993448 10.237313 2.274752
v 3.995960 10.098037 2.185581
v 3.045760 10.592014 1.406033
v 3.043421 10.722183 1.489245
v 3.703240 10.454406 2.410108
v 3.713502 9.883406 2.045090
v 2.756791 10.463489 2.369288
v 2.580406 10.617854 2.122857
v 2.590669 10.046854 1.757838
v 2.767051 9.892489 2.004272
v 2.872860 10.243080 2.233912
v 2.821004 10.194762 2.336133
v 3.048375 10.192580 2.345938
v 3.006446 10.241798 2.239674
v 3.051172 10.036920 2.246430
v 3.008785 10.111629 2.156462
v 2.823801 10.039102 2.236624
v 2.875199 10.112912 2.150701
v 3.835995 10.235392 2.273333
v 3.784981 10.188416 2.379908
v 4.033541 10.189466 2.385257
v 4.036614 10.018837 2.276043
v 3.788051 10.017726 2.270792
v 3.838498 10.096052 2.184259
v 2.793765 10.943873 1.618858
v 2.593896 10.793122 1.849064
v 2.604159 10.222122 1.484046
v 2.804027 10.372875 1.253840
v 3.750478 10.363791 1.294660
v 4.147552 10.352990 1.322718
v 4.133483 10.924093 1.687467
v 3.740216 10.934791 1.659677
v 2.909835 10.723465 1.483483
v 3.094819 10.795994 1.403320
v 2.867448 10.798176 1.393514
v 3.097617 10.640334 1.303813
v 2.912173 10.593297 1.400272
v 2.870245 10.642515 1.294007
v 3.872752 10.712955 1.527312
v 4.029678 10.708014 1.539452
v 4.079482 10.786325 1.452876
v 3.831450 10.792140 1.436807
v 4.032180 10.568611 1.450476
v 4.082544 10.615572 1.343857
v 3.875256 10.573615 1.438238
v 3.834519 10.621449 1.327690
vt 0.490765 0.813794
vt 0.479858 0.813794
vt 0.479858 0.798802
vt 0.490765 0.798802
vt 0.616076 0.511522
vt 0.619151 0.500416
vt 0.644876 0.500416
vt 0.647826 0.511700
vt 0.640393 0.169448
vt 0.600810 0.169448
vt 0.582271 0.814940
vt 0.571036 0.814940
vt 0.571036 0.798802
vt 0.582271 0.798802
vt 0.586269 0.830552
vt 0.586269 0.798802
vt 0.598415 0.798802
vt 0.598415 0.830552
vt 0.474138 0.589115
vt 0.476356 0.258148
vt 0.502981 0.258148
vt 0.505199 0.589115
vt 0.259064 0.707501
vt 0.256846 0.376534
vt 0.287906 0.376534
vt 0.285688 0.707501
vt 0.435681 0.813794
vt 0.435681 0.798802
vt 0.446588 0.798802
vt 0.446588 0.813794
vt 0.660312 0.169448
vt 0.699895 0.169448
vt 0.681554 0.500416
vt 0.655829 0.500416
vt 0.525283 0.814940
vt 0.525283 0.798802
vt 0.536518 0.798802
vt 0.536518 0.814940
vt 0.553558 0.606525
vt 0.588104 0.650946
vt 0.595692 0.699641
vt 0.573352 0.753896
vt 0.538028 0.783127
vt 0.489669 0.796201
vt 0.441309 0.783127
vt 0.405986 0.753896
vt 0.383645 0.699641
vt 0.391233 0.650946
vt 0.425779 0.606525
vt 0.272376 0.169448
vt 0.320735 0.182522
vt 0.356059 0.211753
vt 0.378400 0.266008
vt 0.370811 0.314703
vt 0.336265 0.359124
vt 0.208486 0.359124
vt 0.173941 0.314703
vt 0.166352 0.266008
vt 0.188693 0.211753
vt 0.224016 0.182522
vt 0.652889 0.555919
vt 0.652879 0.543671
vt 0.684630 0.543671
vt 0.684630 0.555922
vt 0.647816 0.555919
vt 0.616076 0.555922
vt 0.616076 0.543671
vt 0.647826 0.543671
vt 0.616076 0.555922
vt 0.647816 0.555919
vt 0.647826 0.511700
vt 0.684630 0.530166
vt 0.684630 0.555922
vt 0.652889 0.555919
vt 0.652879 0.530166
vt 0.647826 0.530166
vt 0.616076 0.530166
vt 0.647826 0.574545
vt 0.647826 0.583366
vt 0.616076 0.583366
vt 0.616076 0.574545
vt 0.647826 0.589115
vt 0.616076 0.589115
vt 0.475860 0.809430
vt 0.470510 0.811628
vt 0.470510 0.800967
vt 0.475860 0.803166
vt 0.342563 0.807874
vt 0.337214 0.808583
vt 0.337214 0.799927
vt 0.342563 0.800636
vt 0.461224 0.809430
vt 0.455874 0.811628
vt 0.455874 0.800967
vt 0.461224 0.803166
vt 0.327927 0.807874
vt 0.322578 0.808583
vt 0.322578 0.799927
vt 0.327927 0.800636
vt 0.566740 0.810738
vt 0.561254 0.812889
vt 0.561553 0.801247
vt 0.567038 0.803367
vt 0.402405 0.808295
vt 0.396920 0.809166
vt 0.396925 0.799675
vt 0.402411 0.800547
vt 0.551781 0.810374
vt 0.546295 0.812495
vt 0.545991 0.800852
vt 0.551477 0.803003
vt 0.387446 0.808291
vt 0.381960 0.809163
vt 0.381960 0.799672
vt 0.387446 0.800543
vt 0.317289 0.809709
vt 0.317289 0.798802
vt 0.450586 0.813794
vt 0.450586 0.798802
vt 0.331925 0.809709
vt 0.331925 0.798802
vt 0.465222 0.813794
vt 0.465222 0.798802
vt 0.376485 0.810036
vt 0.376485 0.798802
vt 0.540820 0.814940
vt 0.540516 0.798802
vt 0.391444 0.810036
vt 0.391449 0.798802
vt 0.555779 0.814940
vt 0.556077 0.798802
vt 0.251488 0.781630
vt 0.251490 0.763005
vt 0.293262 0.763005
vt 0.293263 0.781630
vt 0.264755 0.790452
vt 0.279997 0.790452
vt 0.266303 0.796201
vt 0.278449 0.796201
vt 0.482048 0.175197
vt 0.483596 0.169448
vt 0.495742 0.169448
vt 0.497289 0.175197
vt 0.468781 0.184019
vt 0.510556 0.184019
vt 0.468781 0.202641
vt 0.510556 0.202641
vt 0.475635 0.214893
vt 0.503702 0.214893
vt 0.468781 0.228398
vt 0.510556 0.228398
vt 0.469388 0.247042
vt 0.509949 0.247042
vt 0.252090 0.718786
vt 0.292662 0.718786
vt 0.251488 0.737251
vt 0.293263 0.737251
vt 0.258343 0.750756
vt 0.286409 0.750756
vt 0.706878 0.301629
vt 0.758167 0.301629
vt 0.758167 0.346050
vt 0.710901 0.346050
vt 0.700942 0.640075
vt 0.653676 0.640075
vt 0.657704 0.591716
vt 0.697287 0.591716
vt 0.704940 0.397010
vt 0.758159 0.397010
vt 0.758159 0.445370
vt 0.704940 0.445370
vt 0.704948 0.169448
vt 0.758167 0.169448
vt 0.758167 0.198679
vt 0.704948 0.198679
vt 0.758167 0.252934
vt 0.704948 0.252934
vt 0.647826 0.530166
vt 0.647816 0.555919
vt 0.616076 0.555922
vt 0.616076 0.530166
vt 0.652879 0.530166
vt 0.684630 0.530166
vt 0.652879 0.574545
vt 0.684630 0.574545
vt 0.684630 0.583366
vt 0.652879 0.583366
vt 0.684630 0.589115
vt 0.652879 0.589115
vt 0.684630 0.511522
vt 0.652879 0.511700
vt 0.421045 0.809430
vt 0.421045 0.803166
vt 0.426394 0.800967
vt 0.426394 0.811628
vt 0.302653 0.807874
vt 0.302653 0.800636
vt 0.308002 0.799927
vt 0.308002 0.808583
vt 0.406408 0.809430
vt 0.406408 0.803166
vt 0.411758 0.800967
vt 0.411758 0.811628
vt 0.288017 0.807874
vt 0.288017 0.800636
vt 0.293366 0.799927
vt 0.293366 0.808583
vt 0.510324 0.810738
vt 0.510026 0.803367
vt 0.515511 0.801247
vt 0.515810 0.812889
vt 0.361526 0.808295
vt 0.361520 0.800547
vt 0.367006 0.799675
vt 0.367011 0.809166
vt 0.494763 0.810374
vt 0.495067 0.803003
vt 0.500552 0.800852
vt 0.500248 0.812495
vt 0.346561 0.808291
vt 0.346561 0.800543
vt 0.352047 0.799672
vt 0.352047 0.809163
vt 0.298655 0.798802
vt 0.298655 0.809709
vt 0.417047 0.798802
vt 0.417047 0.813794
vt 0.313291 0.798802
vt 0.313291 0.809709
vt 0.431683 0.798802
vt 0.431683 0.813794
vt 0.357522 0.798802
vt 0.357522 0.810036
vt 0.506028 0.798802
vt 0.505724 0.814940
vt 0.372481 0.798802
vt 0.372487 0.810036
vt 0.520987 0.798802
vt 0.521285 0.814940
vt 0.813446 0.301629
vt 0.809422 0.346050
vt 0.762156 0.346050
vt 0.762156 0.301629
vt 0.649678 0.591716
vt 0.646023 0.640075
vt 0.606440 0.640075
vt 0.602412 0.591716
vt 0.704940 0.348651
vt 0.758159 0.348651
vt 0.815375 0.169448
vt 0.815375 0.198679
vt 0.762156 0.198679
vt 0.762156 0.169448
vt 0.815375 0.252934
vt 0.762156 0.252934
vt 0.647816 0.555919
vt 0.647826 0.530166
vt 0.616076 0.530166
vt 0.616076 0.555922
vt 0.616076 0.555922
vt 0.616076 0.555922
vt 0.647816 0.555919
vt 0.647826 0.530166
vt 0.616076 0.530166
vt 0.616076 0.555922
vt 0.647816 0.555919
vt 0.616076 0.530166
vt 0.647826 0.530166
vt 0.647816 0.555919
vt 0.616076 0.555922
vt 0.652889 0.555919
vt 0.684630 0.530166
vt 0.684630 0.555922
vt 0.652879 0.530166
vt 0.652889 0.555919
vt 0.684630 0.530166
vt 0.652879 0.530166
vt 0.652889 0.555919
vt 0.684630 0.555922
vt 0.652879 0.530166
vt 0.684630 0.530166
vt 0.684630 0.555922
vt 0.652889 0.555919
vt 0.684630 0.555922
vt 0.684630 0.530166
vt 0.652879 0.530166
vt 0.652889 0.555919
vt 0.684630 0.530166
vt 0.652879 0.530166
vt 0.684630 0.555922
vt 0.652889 0.555919
vn -0.0415 -0.5387 0.8415
vn 0.2299 -0.5206 0.8223
vn 0.4928 -0.4610 0.7379
vn 0.2291 -0.5208 0.8224
vn -0.0482 -0.5386 0.8412
vn -0.0228 -0.5390 0.8420
vn -0.9990 0.0096 -0.0431
vn -0.0402 -0.8406 -0.5401
vn -0.0016 0.8423 0.5391
vn 0.0415 0.5387 -0.8415
vn 0.0348 0.5387 -0.8418
vn 0.0601 0.5382 -0.8407
vn -0.0249 -0.8414 -0.5398
vn -0.0247 0.8425 0.5381
vn 0.5240 0.4654 -0.7133
vn 0.4516 -0.4748 0.7554
vn -0.2148 -0.6730 0.7077
vn -0.0059 -0.5677 0.8232
vn -0.0064 -0.5388 0.8424
vn 0.0416 0.5387 -0.8415
vn -0.2756 -0.5201 0.8084
vn -0.4891 -0.4760 0.7309
vn -0.2665 -0.5368 0.8005
vn -0.5157 -0.3161 0.7963
vn -0.7413 -0.3709 0.5594
vn -0.7413 -0.3710 0.5593
vn -0.5273 -0.4324 0.7314
vn -0.2998 -0.5177 0.8014
vn -0.0096 0.9059 0.4234
vn -0.0071 0.9281 0.3722
vn -0.0071 0.9281 0.3723
vn 0.9398 0.1959 -0.2801
vn 0.9400 0.1955 -0.2795
vn 0.0205 -0.7644 -0.6444
vn 0.0226 -0.7273 -0.6859
vn -0.9082 0.2137 -0.3598
vn -0.9086 0.2133 -0.3592
vn -0.0134 0.9166 0.3997
vn -0.0124 0.9165 0.3997
vn 0.9468 0.1855 -0.2631
vn 0.9365 0.2008 -0.2874
vn 0.9365 0.2008 -0.2873
vn 0.0165 -0.7474 -0.6642
vn 0.0174 -0.7472 -0.6643
vn -0.9149 0.2056 -0.3473
vn -0.9185 0.2011 -0.3405
vn -0.9183 0.2014 -0.3409
vn -0.9088 0.2130 -0.3587
vn 0.0234 -0.7118 -0.7020
vn 0.9402 0.1952 -0.2790
vn -0.0062 0.9362 0.3515
vn -0.9210 0.1979 -0.3355
vn 0.0180 -0.7472 -0.6644
vn 0.9291 0.2111 -0.3036
vn -0.0118 0.9165 0.3998
vn -0.0147 0.8425 0.5386
vn -0.0151 0.8425 0.5386
vn -0.0152 0.8425 0.5386
vn 0.0151 -0.8425 -0.5386
vn 0.0151 -0.8425 -0.5385
vn 0.0807 -0.8413 -0.5346
vn 0.2812 -0.8145 -0.5075
vn 0.0482 0.8402 0.5402
vn 0.2380 0.8126 0.5319
vn 0.0483 0.8402 0.5402
vn -0.0151 0.8425 0.5385
vn -0.0155 0.8425 0.5385
vn -0.0153 0.8425 0.5385
vn -0.0156 0.8425 0.5385
vn -0.4346 -0.4906 0.7553
vn -0.4428 -0.4886 0.7518
vn -0.8110 -0.3254 0.4862
vn -0.8077 -0.3278 0.4901
vn -0.9540 -0.1734 0.2445
vn 0.9536 -0.1498 0.2612
vn 0.8728 -0.2517 0.4181
vn 0.8728 -0.2516 0.4182
vn 0.5337 -0.4487 0.7168
vn 0.5337 -0.4486 0.7169
vn 0.1032 -0.5344 0.8389
vn 0.1066 -0.5342 0.8386
vn -0.0414 -0.5387 0.8415
vn -0.0414 -0.5386 0.8415
vn -0.1419 0.5412 -0.8288
vn -0.2070 0.5238 -0.8263
vn -0.4152 0.4847 -0.7699
vn -0.4882 0.4638 -0.7392
vn -0.4881 0.4639 -0.7393
vn -0.6832 0.3846 -0.6208
vn -0.6832 0.3847 -0.6207
vn -0.2197 0.5226 -0.8238
vn 0.3376 0.5174 -0.7863
vn 0.3749 0.5427 -0.7516
vn 0.5632 0.4535 -0.6907
vn -0.0205 0.7644 0.6444
vn -0.0226 0.7273 0.6859
vn 0.9083 -0.2137 0.3598
vn 0.9086 -0.2133 0.3592
vn 0.0096 -0.9059 -0.4234
vn 0.0071 -0.9281 -0.3723
vn -0.9398 -0.1959 0.2801
vn -0.9400 -0.1955 0.2795
vn -0.0264 0.7476 0.6636
vn -0.0254 0.7476 0.6637
vn -0.0251 0.7476 0.6637
vn 0.9169 -0.2030 0.3438
vn 0.9043 -0.2181 0.3670
vn 0.0034 -0.9165 -0.3999
vn 0.0044 -0.9166 -0.3997
vn -0.9452 -0.1877 0.2671
vn -0.9480 -0.1833 0.2601
vn -0.9402 -0.1952 0.2790
vn 0.0062 -0.9362 -0.3515
vn 0.9088 -0.2130 0.3587
vn -0.0234 0.7118 0.7020
vn -0.9501 -0.1800 0.2548
vn 0.0050 -0.9167 -0.3996
vn 0.8953 -0.2282 0.3826
vn -0.0248 0.7476 0.6637
vn -0.3585 0.4983 -0.7895
vn -0.7561 0.3428 -0.5575
vn -0.7597 0.3405 -0.5540
vn -0.3670 0.4964 -0.7867
vn -0.9259 0.1915 -0.3256
vn 0.9752 0.1313 -0.1780
vn 0.9102 0.2345 -0.3413
vn 0.6019 0.4378 -0.6679
vn 0.6019 0.4378 -0.6678
vn 0.1886 0.5313 -0.8259
vn 0.1852 0.5317 -0.8265
vn -0.0149 -0.5374 0.8432
vn -0.0067 -0.5355 0.8445
vn -0.0200 -0.5623 0.8267
vn -0.0147 -0.5401 0.8415
vn -0.0064 -0.5417 0.8405
vn 0.0145 -0.7547 0.6559
vn -0.0413 -0.5386 0.8415
vn 0.0763 0.5393 -0.8387
vn 0.0680 0.5396 -0.8392
vn 0.0681 0.5369 -0.8409
vn 0.0765 0.5367 -0.8403
usemtl initialShadingGroup.001
s off
f 1/1/1 2/2/1 3/3/1 4/4/1
f 5/5/2 6/6/3 7/7/3 8/8/4
f 9/9/5 7/7/5 6/6/5 10/10/5
f 11/11/6 12/12/6 13/13/6 14/14/6
f 15/15/7 16/16/7 17/17/7 18/18/7
f 10/19/8 6/20/8 19/21/8 20/22/8
f 7/23/9 9/24/9 21/25/9 22/26/9
f 23/27/10 24/28/10 25/29/10 26/30/10
f 21/31/11 20/32/11 19/33/11 22/34/11
f 27/35/12 28/36/12 29/37/12 30/38/12
f 10/19/13 20/22/13 31/39/13 32/40/13 33/41/13 34/42/13 35/43/13 36/44/13 37/45/13 38/46/13 39/47/13 40/48/13 41/49/13
f 42/50/14 43/51/14 44/52/14 45/53/14 46/54/14 47/55/14 21/25/14 9/24/14 48/56/14 49/57/14 50/58/14 51/59/14 52/60/14
f 53/61/15 54/62/15 55/63/15 56/64/15
f 57/65/16 58/66/16 59/67/16 60/68/16
f 5/5/17 8/69/18 61/70/19 62/71/19
f 56/72/20 63/73/20 64/74/20 53/75/20
s 1
f 65/76/21 60/68/22 59/67/22 66/77/23
f 67/78/24 68/79/25 69/80/26 70/81/27
f 68/79/25 16/82/28 15/83/28 69/80/26
f 71/84/29 72/85/30 73/86/31 74/87/29
f 74/88/32 73/89/33 75/90/33 76/91/32
f 76/92/34 75/93/35 77/94/35 78/95/34
f 78/96/36 77/97/37 72/98/37 71/99/36
f 79/100/38 80/101/39 81/102/39 61/103/38
f 61/104/40 81/105/41 82/106/42 62/107/40
f 62/108/43 82/109/44 83/110/44 84/111/43
f 84/112/45 83/113/46 80/114/47 79/115/45
f 77/97/37 2/116/48 1/117/48 72/98/37
f 75/93/35 3/118/49 2/119/49 77/94/35
f 73/89/33 4/120/50 3/121/50 75/90/33
f 72/85/30 1/122/51 4/123/51 73/86/31
f 83/113/46 12/124/52 11/125/52 80/114/47
f 82/109/44 13/126/53 12/127/53 83/110/44
f 81/105/41 14/128/54 13/129/54 82/106/42
f 80/101/39 11/130/55 14/131/55 81/102/39
f 67/132/56 57/133/57 53/134/57 85/135/56
f 68/136/57 67/132/56 85/135/56 86/137/57
f 16/138/58 68/136/57 86/137/57 17/139/58
f 69/140/59 15/141/59 18/142/59 87/143/59
f 70/144/60 69/140/59 87/143/59 88/145/60
f 58/146/60 70/144/60 88/145/60 56/147/60
f 59/148/59 58/146/59 56/147/59 55/149/59
f 66/150/59 59/148/59 55/149/59 89/151/59
f 5/152/61 66/150/59 89/151/59 90/153/61
f 6/20/62 5/152/61 90/153/61 19/21/62
f 8/154/63 7/23/64 22/26/64 91/155/65
f 65/156/66 8/154/63 91/155/65 92/157/66
f 60/158/67 65/156/66 92/157/66 54/159/67
f 57/133/68 60/158/69 54/159/69 53/134/68
f 40/160/70 49/161/71 48/162/72 41/163/73
f 41/164/73 48/165/72 9/166/74 10/167/74
f 36/168/75 42/169/75 52/170/76 37/171/77
f 37/172/77 52/173/76 51/174/78 38/175/79
f 38/175/79 51/174/78 50/176/80 39/177/81
f 39/177/81 50/176/80 49/161/71 40/160/70
f 67/178/24 71/179/82 74/180/83 57/181/83
f 92/182/84 89/183/85 55/63/86 54/62/86
f 85/184/87 88/185/88 87/186/89 86/187/90
f 86/187/90 87/186/89 18/188/91 17/189/91
f 90/190/92 91/191/93 22/34/94 19/33/94
f 93/192/95 64/193/95 94/194/96 95/195/96
f 64/196/97 63/197/97 96/198/98 94/199/98
f 63/200/99 97/201/99 98/202/100 96/203/100
f 97/204/101 93/205/101 95/206/102 98/207/102
f 99/208/103 100/209/103 101/210/104 102/211/105
f 100/212/106 103/213/106 104/214/107 101/215/107
f 103/216/108 105/217/108 106/218/109 104/219/109
f 105/220/110 99/221/110 102/222/111 106/223/111
f 98/207/102 95/206/102 23/224/112 26/225/112
f 96/203/100 98/202/100 26/226/113 25/227/113
f 94/199/98 96/198/98 25/228/114 24/229/114
f 95/195/96 94/194/96 24/230/115 23/231/115
f 106/223/111 102/222/111 27/232/116 30/233/116
f 104/219/109 106/218/109 30/234/117 29/235/117
f 101/215/107 104/214/107 29/236/118 28/237/118
f 102/211/105 101/210/104 28/238/119 27/239/119
f 32/240/120 31/241/121 47/242/122 46/243/123
f 31/244/121 20/245/124 21/246/124 47/247/122
f 36/168/125 35/248/126 43/249/126 42/169/125
f 35/250/126 34/251/127 44/252/128 43/253/126
f 34/251/127 33/254/129 45/255/130 44/252/128
f 33/254/129 32/240/120 46/243/123 45/255/130
f 79/256/131 61/257/132 8/258/133 65/259/21
f 84/260/134 79/256/131 65/76/21 66/77/23
f 62/261/135 84/262/134 66/263/23 5/264/136
f 67/78/24 70/81/27 78/265/1 71/179/82
f 76/266/82 78/265/1 70/267/27 58/268/82
f 57/65/137 74/269/137 76/270/82 58/66/82
f 85/271/10 53/75/10 64/272/10 93/273/10
f 56/72/10 88/274/10 97/275/10 63/73/10
f 88/276/10 85/277/10 93/278/10 97/279/10
f 91/280/93 100/281/138 99/282/139 92/283/84
f 89/284/85 92/285/84 99/286/139 105/287/140
f 90/288/92 89/289/85 105/287/140 103/290/141
f 91/280/93 90/291/92 103/290/141 100/281/138
