# Blender v2.79 (sub 6) OBJ File: 'bailarinaacortados.blend1'
# www.blender.org
mtllib guitarra1_000207.mtl
o g1_pCube6
v -0.695255 9.353062 2.100945
v -0.540430 9.381646 1.929409
v -0.597454 9.696569 1.930418
v -0.752279 9.667986 2.101954
v -0.802078 10.683179 1.606420
v -0.995869 10.889186 1.554955
v -1.361031 10.821766 1.959532
v -1.251999 10.596232 2.105829
v -2.521904 17.791779 1.943341
v -1.960029 17.895515 1.320818
v -0.863313 10.305788 2.105544
v -0.703841 10.335231 1.928859
v -0.769929 10.673389 1.925562
v -0.929316 10.643961 2.102324
v -0.726924 9.014110 1.396118
v -1.177615 8.930901 1.895455
v -1.365681 8.897410 1.720131
v -0.914990 8.980618 1.220794
v -1.408106 10.815772 1.170646
v -2.440958 17.809868 0.872468
v -3.002834 17.706131 1.494990
v -1.773268 10.748353 1.575221
v -1.671519 9.179203 1.190817
v -1.728544 9.494126 1.191826
v -1.573719 9.522710 1.020290
v -1.516694 9.207788 1.019281
v -1.845782 10.130825 1.189632
v -1.902544 10.470643 1.195026
v -1.742989 10.500101 1.018420
v -1.686309 10.160267 1.012947
v -3.204069 18.051805 0.118107
v -3.850803 18.900169 -0.440827
v -4.126130 19.907177 -0.577435
v -3.986574 21.108431 -0.251300
v -3.550819 21.819836 0.260552
v -2.851770 22.227810 0.959485
v -2.053263 22.086527 1.656656
v -1.395151 21.569925 2.164568
v -0.842873 20.491875 2.483397
v -0.802548 19.443020 2.400923
v -1.225590 18.404144 1.962554
v -3.607204 22.088337 1.796456
v -4.306253 21.680363 1.097523
v -4.742008 20.968960 0.585672
v -4.881561 19.767704 0.259537
v -4.578846 18.765755 0.365798
v -3.875002 17.927935 0.861458
v -1.896523 18.280273 2.705905
v -1.530590 19.308605 3.207549
v -1.598307 20.352402 3.320368
v -2.150584 21.430452 3.001540
v -2.808696 21.947054 2.493629
v -1.721156 9.553891 1.508389
v -1.661782 9.830050 1.608292
v -1.211091 9.913260 1.108954
v -1.270622 9.637003 1.009185
v -1.074379 9.669072 2.111349
v -0.623792 9.752195 1.612197
v -0.776526 9.990650 1.514080
v -1.227217 9.907440 2.013416
v -1.056953 10.522390 1.916412
v -0.947057 10.542683 1.794483
v -1.418443 9.455564 1.202408
v -1.521186 9.436595 1.316239
v -1.172450 10.210016 2.113270
v -0.721759 10.293225 1.613933
v -1.003651 9.277806 2.110280
v -1.175518 9.055929 1.918185
v -0.724827 9.139138 1.418848
v -0.552960 9.361013 1.610945
v -0.850530 9.420210 1.918828
v -0.769399 9.386916 2.007044
v -0.809951 9.610866 2.007760
v -0.874355 9.551785 1.919250
v -0.687088 9.633549 1.871637
v -0.771613 9.570754 1.805419
v -0.646536 9.409599 1.870918
v -0.747788 9.439178 1.804997
v -1.024297 10.368389 1.920222
v -0.943545 10.336046 2.012959
v -0.992449 10.579782 2.009436
v -0.857806 10.604643 1.860089
v -0.808818 10.360921 1.863690
v -0.914317 10.388693 1.798371
v -1.650482 9.162615 1.507268
v -1.411513 9.013901 1.698177
v -0.960822 9.097111 1.198841
v -1.199792 9.245823 1.007933
v -1.368590 10.178034 1.010921
v -1.430098 10.571337 1.020944
v -1.880201 10.484359 1.520184
v -1.819282 10.094826 1.510258
v -1.497360 9.305018 1.315817
v -1.622437 9.466173 1.250314
v -1.581886 9.242223 1.249599
v -1.499575 9.488856 1.114192
v -1.394618 9.323987 1.201986
v -1.459023 9.264908 1.113473
v -1.667328 10.253874 1.320753
v -1.690743 10.409522 1.325558
v -1.796111 10.436663 1.260217
v -1.756448 10.191280 1.255125
v -1.580678 10.429844 1.203786
v -1.661301 10.461552 1.111028
v -1.557348 10.274179 1.198902
v -1.621721 10.216154 1.105857
vt 0.490765 0.813794
vt 0.479858 0.813794
vt 0.479858 0.798802
vt 0.490765 0.798802
vt 0.616076 0.511522
vt 0.619151 0.500416
vt 0.644876 0.500416
vt 0.647826 0.511700
vt 0.640393 0.169448
vt 0.600810 0.169448
vt 0.582271 0.814940
vt 0.571036 0.814940
vt 0.571036 0.798802
vt 0.582271 0.798802
vt 0.586269 0.830552
vt 0.586269 0.798802
vt 0.598415 0.798802
vt 0.598415 0.830552
vt 0.474138 0.589115
vt 0.476356 0.258148
vt 0.502981 0.258148
vt 0.505199 0.589115
vt 0.259064 0.707501
vt 0.256846 0.376534
vt 0.287906 0.376534
vt 0.285688 0.707501
vt 0.435681 0.813794
vt 0.435681 0.798802
vt 0.446588 0.798802
vt 0.446588 0.813794
vt 0.660312 0.169448
vt 0.699895 0.169448
vt 0.681554 0.500416
vt 0.655829 0.500416
vt 0.525283 0.814940
vt 0.525283 0.798802
vt 0.536518 0.798802
vt 0.536518 0.814940
vt 0.553558 0.606525
vt 0.588104 0.650946
vt 0.595692 0.699641
vt 0.573352 0.753896
vt 0.538028 0.783127
vt 0.489669 0.796201
vt 0.441309 0.783127
vt 0.405986 0.753896
vt 0.383645 0.699641
vt 0.391233 0.650946
vt 0.425779 0.606525
vt 0.272376 0.169448
vt 0.320735 0.182522
vt 0.356059 0.211753
vt 0.378400 0.266008
vt 0.370811 0.314703
vt 0.336265 0.359124
vt 0.208486 0.359124
vt 0.173941 0.314703
vt 0.166352 0.266008
vt 0.188693 0.211753
vt 0.224016 0.182522
vt 0.652889 0.555919
vt 0.652879 0.543671
vt 0.684630 0.543671
vt 0.684630 0.555922
vt 0.647816 0.555919
vt 0.616076 0.555922
vt 0.616076 0.543671
vt 0.647826 0.543671
vt 0.616076 0.555922
vt 0.647816 0.555919
vt 0.647826 0.511700
vt 0.684630 0.530166
vt 0.684630 0.555922
vt 0.652889 0.555919
vt 0.652879 0.530166
vt 0.647826 0.530166
vt 0.616076 0.530166
vt 0.647826 0.574545
vt 0.647826 0.583366
vt 0.616076 0.583366
vt 0.616076 0.574545
vt 0.647826 0.589115
vt 0.616076 0.589115
vt 0.475860 0.809430
vt 0.470510 0.811628
vt 0.470510 0.800967
vt 0.475860 0.803166
vt 0.342563 0.807874
vt 0.337214 0.808583
vt 0.337214 0.799927
vt 0.342563 0.800636
vt 0.461224 0.809430
vt 0.455874 0.811628
vt 0.455874 0.800967
vt 0.461224 0.803166
vt 0.327927 0.807874
vt 0.322578 0.808583
vt 0.322578 0.799927
vt 0.327927 0.800636
vt 0.566740 0.810738
vt 0.561254 0.812889
vt 0.561553 0.801247
vt 0.567038 0.803367
vt 0.402405 0.808295
vt 0.396920 0.809166
vt 0.396925 0.799675
vt 0.402411 0.800547
vt 0.551781 0.810374
vt 0.546295 0.812495
vt 0.545991 0.800852
vt 0.551477 0.803003
vt 0.387446 0.808291
vt 0.381960 0.809163
vt 0.381960 0.799672
vt 0.387446 0.800543
vt 0.317289 0.809709
vt 0.317289 0.798802
vt 0.450586 0.813794
vt 0.450586 0.798802
vt 0.331925 0.809709
vt 0.331925 0.798802
vt 0.465222 0.813794
vt 0.465222 0.798802
vt 0.376485 0.810036
vt 0.376485 0.798802
vt 0.540820 0.814940
vt 0.540516 0.798802
vt 0.391444 0.810036
vt 0.391449 0.798802
vt 0.555779 0.814940
vt 0.556077 0.798802
vt 0.251488 0.781630
vt 0.251490 0.763005
vt 0.293262 0.763005
vt 0.293263 0.781630
vt 0.264755 0.790452
vt 0.279997 0.790452
vt 0.266303 0.796201
vt 0.278449 0.796201
vt 0.482048 0.175197
vt 0.483596 0.169448
vt 0.495742 0.169448
vt 0.497289 0.175197
vt 0.468781 0.184019
vt 0.510556 0.184019
vt 0.468781 0.202641
vt 0.510556 0.202641
vt 0.475635 0.214893
vt 0.503702 0.214893
vt 0.468781 0.228398
vt 0.510556 0.228398
vt 0.469388 0.247042
vt 0.509949 0.247042
vt 0.252090 0.718786
vt 0.292662 0.718786
vt 0.251488 0.737251
vt 0.293263 0.737251
vt 0.258343 0.750756
vt 0.286409 0.750756
vt 0.706878 0.301629
vt 0.758167 0.301629
vt 0.758167 0.346050
vt 0.710901 0.346050
vt 0.700942 0.640075
vt 0.653676 0.640075
vt 0.657704 0.591716
vt 0.697287 0.591716
vt 0.704940 0.397010
vt 0.758159 0.397010
vt 0.758159 0.445370
vt 0.704940 0.445370
vt 0.704948 0.169448
vt 0.758167 0.169448
vt 0.758167 0.198679
vt 0.704948 0.198679
vt 0.758167 0.252934
vt 0.704948 0.252934
vt 0.647826 0.530166
vt 0.647816 0.555919
vt 0.616076 0.555922
vt 0.616076 0.530166
vt 0.652879 0.530166
vt 0.684630 0.530166
vt 0.652879 0.574545
vt 0.684630 0.574545
vt 0.684630 0.583366
vt 0.652879 0.583366
vt 0.684630 0.589115
vt 0.652879 0.589115
vt 0.684630 0.511522
vt 0.652879 0.511700
vt 0.421045 0.809430
vt 0.421045 0.803166
vt 0.426394 0.800967
vt 0.426394 0.811628
vt 0.302653 0.807874
vt 0.302653 0.800636
vt 0.308002 0.799927
vt 0.308002 0.808583
vt 0.406408 0.809430
vt 0.406408 0.803166
vt 0.411758 0.800967
vt 0.411758 0.811628
vt 0.288017 0.807874
vt 0.288017 0.800636
vt 0.293366 0.799927
vt 0.293366 0.808583
vt 0.510324 0.810738
vt 0.510026 0.803367
vt 0.515511 0.801247
vt 0.515810 0.812889
vt 0.361526 0.808295
vt 0.361520 0.800547
vt 0.367006 0.799675
vt 0.367011 0.809166
vt 0.494763 0.810374
vt 0.495067 0.803003
vt 0.500552 0.800852
vt 0.500248 0.812495
vt 0.346561 0.808291
vt 0.346561 0.800543
vt 0.352047 0.799672
vt 0.352047 0.809163
vt 0.298655 0.798802
vt 0.298655 0.809709
vt 0.417047 0.798802
vt 0.417047 0.813794
vt 0.313291 0.798802
vt 0.313291 0.809709
vt 0.431683 0.798802
vt 0.431683 0.813794
vt 0.357522 0.798802
vt 0.357522 0.810036
vt 0.506028 0.798802
vt 0.505724 0.814940
vt 0.372481 0.798802
vt 0.372487 0.810036
vt 0.520987 0.798802
vt 0.521285 0.814940
vt 0.813446 0.301629
vt 0.809422 0.346050
vt 0.762156 0.346050
vt 0.762156 0.301629
vt 0.649678 0.591716
vt 0.646023 0.640075
vt 0.606440 0.640075
vt 0.602412 0.591716
vt 0.704940 0.348651
vt 0.758159 0.348651
vt 0.815375 0.169448
vt 0.815375 0.198679
vt 0.762156 0.198679
vt 0.762156 0.169448
vt 0.815375 0.252934
vt 0.762156 0.252934
vt 0.647816 0.555919
vt 0.647826 0.530166
vt 0.616076 0.530166
vt 0.616076 0.555922
vt 0.616076 0.555922
vt 0.616076 0.555922
vt 0.647816 0.555919
vt 0.647826 0.530166
vt 0.616076 0.530166
vt 0.616076 0.555922
vt 0.647816 0.555919
vt 0.616076 0.530166
vt 0.647826 0.530166
vt 0.647816 0.555919
vt 0.616076 0.555922
vt 0.652889 0.555919
vt 0.684630 0.530166
vt 0.684630 0.555922
vt 0.652879 0.530166
vt 0.652889 0.555919
vt 0.684630 0.530166
vt 0.652879 0.530166
vt 0.652889 0.555919
vt 0.684630 0.555922
vt 0.652879 0.530166
vt 0.684630 0.530166
vt 0.684630 0.555922
vt 0.652889 0.555919
vt 0.684630 0.555922
vt 0.684630 0.530166
vt 0.652879 0.530166
vt 0.652889 0.555919
vt 0.684630 0.530166
vt 0.652879 0.530166
vt 0.684630 0.555922
vt 0.652889 0.555919
vn 0.7253 0.1292 0.6762
vn 0.6497 0.3901 0.6525
vn 0.5205 0.6296 0.5768
vn 0.6501 0.3893 0.6526
vn 0.7265 0.1226 0.6761
vn 0.7220 0.1475 0.6759
vn 0.1782 -0.9840 -0.0032
vn 0.6738 0.0681 -0.7358
vn -0.6673 -0.1094 0.7367
vn -0.7253 -0.1292 -0.6762
vn -0.7241 -0.1358 -0.6762
vn -0.7284 -0.1108 -0.6762
vn 0.6716 0.0832 -0.7363
vn -0.6632 -0.1322 0.7367
vn -0.7200 0.3677 -0.5886
vn 0.5460 0.5932 0.5917
vn 0.8544 -0.0275 0.5188
vn 0.7414 0.1678 0.6498
vn 0.7187 0.1636 0.6758
vn -0.7254 -0.1291 -0.6762
vn 0.7460 -0.1064 0.6574
vn 0.7274 -0.3302 0.6015
vn 0.7581 -0.0951 0.6452
vn 0.5969 -0.3798 0.7067
vn 0.6356 -0.6109 0.4719
vn 0.6357 -0.6110 0.4718
vn 0.6937 -0.3755 0.6146
vn 0.7467 -0.1311 0.6521
vn -0.7545 -0.1387 0.6415
vn -0.7885 -0.1447 0.5978
vn -0.4405 0.8610 -0.2542
vn -0.4401 0.8614 -0.2537
vn 0.5639 0.1047 -0.8192
vn 0.5181 0.0965 -0.8498
vn -0.1110 -0.9592 -0.2600
vn -0.1104 -0.9594 -0.2595
vn -0.7696 -0.1464 0.6215
vn -0.7698 -0.1454 0.6215
vn -0.4279 0.8712 -0.2407
vn -0.4463 0.8563 -0.2599
vn -0.4463 0.8563 -0.2598
vn 0.5437 0.0960 -0.8338
vn 0.5434 0.0969 -0.8339
vn 0.5433 0.0970 -0.8339
vn -0.0989 -0.9632 -0.2498
vn -0.0923 -0.9653 -0.2442
vn -0.0927 -0.9652 -0.2445
vn -0.1099 -0.9596 -0.2591
vn 0.4994 0.0932 -0.8614
vn -0.4397 0.8617 -0.2533
vn -0.8014 -0.1470 0.5798
vn -0.0875 -0.9668 -0.2401
vn 0.5432 0.0975 -0.8340
vn -0.4586 0.8458 -0.2727
vn -0.7699 -0.1448 0.6216
vn -0.6650 -0.1224 0.7367
vn -0.6650 -0.1227 0.7367
vn -0.6650 -0.1228 0.7367
vn 0.6650 0.1228 -0.7367
vn 0.6518 0.1871 -0.7349
vn 0.5933 0.3809 -0.7092
vn -0.6749 -0.0601 0.7354
vn -0.6884 0.1301 0.7136
vn -0.6649 -0.1231 0.7367
vn -0.6649 -0.1229 0.7367
vn -0.6649 -0.1233 0.7367
vn 0.7364 -0.2720 0.6194
vn 0.7353 -0.2808 0.6169
vn 0.5884 -0.6937 0.4154
vn 0.5910 -0.6897 0.4184
vn 0.4133 -0.8821 0.2261
vn 0.0173 0.9836 0.1795
vn 0.1683 0.9364 0.3079
vn 0.4955 0.6656 0.5581
vn 0.4955 0.6655 0.5582
vn 0.6920 0.2699 0.6696
vn 0.6910 0.2731 0.6692
vn -0.6883 -0.3082 -0.6567
vn -0.6583 -0.3685 -0.6564
vn -0.5661 -0.5605 -0.6044
vn -0.5244 -0.6257 -0.5775
vn -0.5245 -0.6256 -0.5776
vn -0.3816 -0.7921 -0.4764
vn -0.3817 -0.7921 -0.4763
vn -0.6541 -0.3805 -0.6538
vn -0.7502 0.1695 -0.6391
vn -0.7731 0.2044 -0.6004
vn -0.7109 0.4103 -0.5712
vn -0.5639 -0.1047 0.8192
vn -0.5181 -0.0965 0.8498
vn 0.1109 0.9592 0.2600
vn 0.1104 0.9594 0.2595
vn 0.7545 0.1387 -0.6415
vn 0.7885 0.1447 -0.5978
vn 0.4405 -0.8610 0.2541
vn 0.4401 -0.8614 0.2537
vn -0.5421 -0.1058 0.8336
vn -0.5423 -0.1049 0.8336
vn -0.5423 -0.1046 0.8336
vn 0.0952 0.9643 0.2469
vn 0.1177 0.9568 0.2660
vn 0.7715 0.1366 -0.6214
vn 0.7714 0.1376 -0.6212
vn 0.4307 -0.8689 0.2439
vn 0.4253 -0.8731 0.2384
vn 0.4397 -0.8617 0.2533
vn 0.8014 0.1470 -0.5798
vn 0.1099 0.9596 0.2591
vn -0.4994 -0.0932 0.8614
vn 0.4212 -0.8762 0.2342
vn 0.7714 0.1382 -0.6212
vn 0.1329 0.9511 0.2787
vn -0.5424 -0.1043 0.8336
vn -0.5950 -0.5091 -0.6219
vn -0.3120 -0.8505 -0.4234
vn -0.3082 -0.8534 -0.4204
vn -0.5909 -0.5169 -0.6194
vn -0.0780 -0.9696 -0.2320
vn -0.3613 0.9162 -0.1734
vn -0.4863 0.8198 -0.3023
vn -0.6980 0.4530 -0.5545
vn -0.6981 0.4530 -0.5545
vn -0.7437 0.0176 -0.6683
vn -0.7434 0.0142 -0.6686
vn 0.7193 0.1551 0.6772
vn 0.7162 0.1629 0.6786
vn 0.7399 0.1532 0.6550
vn 0.7214 0.1556 0.6749
vn 0.7211 0.1640 0.6732
vn 0.8739 0.2076 0.4395
vn 0.7253 0.1293 0.6762
vn -0.7254 -0.1291 -0.6761
vn -0.7253 -0.1291 -0.6762
vn -0.7321 -0.0949 -0.6746
vn -0.7309 -0.1032 -0.6747
vn -0.7288 -0.1027 -0.6770
vn -0.7300 -0.0944 -0.6768
usemtl initialShadingGroup.001
s off
f 1/1/1 2/2/1 3/3/1 4/4/1
f 5/5/2 6/6/3 7/7/3 8/8/4
f 9/9/5 7/7/5 6/6/5 10/10/5
f 11/11/6 12/12/6 13/13/6 14/14/6
f 15/15/7 16/16/7 17/17/7 18/18/7
f 10/19/8 6/20/8 19/21/8 20/22/8
f 7/23/9 9/24/9 21/25/9 22/26/9
f 23/27/10 24/28/10 25/29/10 26/30/10
f 21/31/11 20/32/11 19/33/11 22/34/11
f 27/35/12 28/36/12 29/37/12 30/38/12
f 10/19/13 20/22/13 31/39/13 32/40/13 33/41/13 34/42/13 35/43/13 36/44/13 37/45/13 38/46/13 39/47/13 40/48/13 41/49/13
f 42/50/14 43/51/14 44/52/14 45/53/14 46/54/14 47/55/14 21/25/14 9/24/14 48/56/14 49/57/14 50/58/14 51/59/14 52/60/14
f 53/61/15 54/62/15 55/63/15 56/64/15
f 57/65/16 58/66/16 59/67/16 60/68/16
f 5/5/17 8/69/18 61/70/19 62/71/19
f 56/72/20 63/73/20 64/74/20 53/75/20
s 1
f 65/76/21 60/68/22 59/67/22 66/77/23
f 67/78/24 68/79/25 69/80/26 70/81/27
f 68/79/25 16/82/28 15/83/28 69/80/26
f 71/84/29 72/85/30 73/86/30 74/87/29
f 74/88/31 73/89/32 75/90/32 76/91/31
f 76/92/33 75/93/34 77/94/34 78/95/33
f 78/96/35 77/97/36 72/98/36 71/99/35
f 79/100/37 80/101/38 81/102/38 61/103/37
f 61/104/39 81/105/40 82/106/41 62/107/39
f 62/108/42 82/109/43 83/110/44 84/111/42
f 84/112/45 83/113/46 80/114/47 79/115/45
f 77/97/36 2/116/48 1/117/48 72/98/36
f 75/93/34 3/118/49 2/119/49 77/94/34
f 73/89/32 4/120/50 3/121/50 75/90/32
f 72/85/30 1/122/51 4/123/51 73/86/30
f 83/113/46 12/124/52 11/125/52 80/114/47
f 82/109/43 13/126/53 12/127/53 83/110/44
f 81/105/40 14/128/54 13/129/54 82/106/41
f 80/101/38 11/130/55 14/131/55 81/102/38
f 67/132/56 57/133/57 53/134/57 85/135/56
f 68/136/58 67/132/56 85/135/56 86/137/58
f 16/138/58 68/136/58 86/137/58 17/139/58
f 69/140/59 15/141/59 18/142/59 87/143/59
f 70/144/59 69/140/59 87/143/59 88/145/59
f 58/146/59 70/144/59 88/145/59 56/147/59
f 59/148/59 58/146/59 56/147/59 55/149/59
f 66/150/59 59/148/59 55/149/59 89/151/59
f 5/152/60 66/150/59 89/151/59 90/153/60
f 6/20/61 5/152/60 90/153/60 19/21/61
f 8/154/62 7/23/63 22/26/63 91/155/62
f 65/156/58 8/154/62 91/155/62 92/157/58
f 60/158/64 65/156/58 92/157/58 54/159/64
f 57/133/65 60/158/66 54/159/66 53/134/65
f 40/160/67 49/161/68 48/162/69 41/163/70
f 41/164/70 48/165/69 9/166/71 10/167/71
f 36/168/72 42/169/72 52/170/73 37/171/73
f 37/172/73 52/173/73 51/174/74 38/175/75
f 38/175/75 51/174/74 50/176/76 39/177/77
f 39/177/77 50/176/76 49/161/68 40/160/67
f 67/178/24 71/179/1 74/180/1 57/181/1
f 92/182/78 89/183/79 55/63/80 54/62/80
f 85/184/81 88/185/82 87/186/83 86/187/84
f 86/187/84 87/186/83 18/188/85 17/189/85
f 90/190/86 91/191/87 22/34/88 19/33/88
f 93/192/89 64/193/89 94/194/90 95/195/90
f 64/196/91 63/197/91 96/198/92 94/199/92
f 63/200/93 97/201/93 98/202/94 96/203/94
f 97/204/95 93/205/95 95/206/96 98/207/96
f 99/208/97 100/209/97 101/210/98 102/211/99
f 100/212/100 103/213/100 104/214/101 101/215/101
f 103/216/102 105/217/102 106/218/103 104/219/103
f 105/220/104 99/221/104 102/222/105 106/223/105
f 98/207/96 95/206/96 23/224/106 26/225/106
f 96/203/94 98/202/94 26/226/107 25/227/107
f 94/199/92 96/198/92 25/228/108 24/229/108
f 95/195/90 94/194/90 24/230/109 23/231/109
f 106/223/105 102/222/105 27/232/110 30/233/110
f 104/219/103 106/218/103 30/234/111 29/235/111
f 101/215/101 104/214/101 29/236/112 28/237/112
f 102/211/99 101/210/98 28/238/113 27/239/113
f 32/240/114 31/241/115 47/242/116 46/243/117
f 31/244/115 20/245/118 21/246/118 47/247/116
f 36/168/119 35/248/120 43/249/120 42/169/119
f 35/250/120 34/251/121 44/252/122 43/253/120
f 34/251/121 33/254/123 45/255/124 44/252/122
f 33/254/123 32/240/114 46/243/117 45/255/124
f 79/256/125 61/257/126 8/258/127 65/259/21
f 84/260/128 79/256/125 65/76/21 66/77/23
f 62/261/129 84/262/128 66/263/23 5/264/130
f 67/78/24 70/81/27 78/265/1 71/179/1
f 76/266/1 78/265/1 70/267/27 58/268/1
f 57/65/131 74/269/131 76/270/1 58/66/1
f 85/271/132 53/75/132 64/272/132 93/273/133
f 56/72/10 88/274/10 97/275/10 63/73/10
f 88/276/10 85/277/132 93/278/133 97/279/10
f 91/280/87 100/281/134 99/282/135 92/283/78
f 89/284/79 92/285/78 99/286/135 105/287/136
f 90/288/86 89/289/79 105/287/136 103/290/137
f 91/280/87 90/291/86 103/290/137 100/281/134
