# Blender v2.79 (sub 6) OBJ File: 'bailarinaacortados.blend1'
# www.blender.org
mtllib guitarra1_000190.mtl
o g1_pCube6
v -3.564677 8.638513 -0.658148
v -3.671523 8.593609 -0.456206
v -3.805968 8.883972 -0.462774
v -3.699122 8.928876 -0.664716
v -4.143408 9.843474 -0.169973
v -4.096411 10.126822 -0.157803
v -3.844410 10.232727 -0.634093
v -3.830880 9.970677 -0.757801
v -6.893368 16.606537 -0.719684
v -7.281121 16.443581 0.013181
v -3.975264 9.514273 -0.678552
v -4.085316 9.468021 -0.470549
v -4.224961 9.783004 -0.474394
v -4.114999 9.829210 -0.682455
v -3.210138 8.454048 0.014867
v -2.899115 8.584760 -0.572979
v -2.696116 8.681671 -0.444026
v -3.007140 8.550959 0.143820
v -3.651441 10.339250 0.124860
v -6.762003 16.691406 0.342948
v -6.374250 16.854362 -0.389918
v -3.399440 10.445155 -0.351430
v -2.510893 9.141586 0.011261
v -2.645339 9.431950 0.004692
v -2.752184 9.387047 0.206635
v -2.617739 9.096684 0.213203
v -2.914783 10.020543 -0.004889
v -3.064493 10.330719 -0.015129
v -3.174637 10.284426 0.192817
v -3.024836 9.974293 0.203115
v -6.145703 17.399391 0.916415
v -6.006098 18.518766 1.338203
v -6.334850 19.514473 1.433156
v -7.194766 20.386993 1.172193
v -8.047256 20.671274 0.784358
v -8.972733 20.538635 0.265204
v -9.663724 19.899576 -0.242491
v -9.991960 19.051619 -0.604704
v -9.878808 17.822594 -0.818118
v -9.296396 16.947983 -0.751937
v -8.281281 16.379871 -0.440196
v -8.451405 20.757729 -0.720123
v -7.525928 20.890366 -0.200968
v -6.673438 20.606087 0.186864
v -5.813522 19.733566 0.447828
v -5.503672 18.729916 0.388600
v -5.682690 17.593977 0.041303
v -7.818267 16.574455 -1.315308
v -8.793972 17.159134 -1.701540
v -9.357480 18.041687 -1.803445
v -9.470631 19.270712 -1.590032
v -9.142396 20.118668 -1.227818
v -2.746334 9.442736 -0.301121
v -2.970607 9.625324 -0.379431
v -3.281632 9.494615 0.208415
v -3.057202 9.312020 0.286557
v -3.444467 9.109448 -0.744605
v -3.755394 8.978705 -0.156965
v -3.750703 9.270681 -0.089560
v -3.439678 9.401391 -0.677405
v -3.907916 9.821071 -0.531843
v -3.983724 9.789219 -0.388337
v -2.872872 9.225196 0.061635
v -2.801970 9.254993 -0.072373
v -3.675344 9.608253 -0.756097
v -3.986368 9.477541 -0.168252
v -3.277370 8.748745 -0.736650
v -2.976536 8.683753 -0.591933
v -3.287560 8.553041 -0.004087
v -3.588394 8.618032 -0.148804
v -3.443989 8.800364 -0.513150
v -3.506735 8.718015 -0.582101
v -3.602341 8.924500 -0.586774
v -3.500161 8.921679 -0.515894
v -3.687129 8.888866 -0.426521
v -3.571064 8.891880 -0.381886
v -3.591521 8.682381 -0.421849
v -3.514892 8.770565 -0.379141
v -3.846806 9.675940 -0.531783
v -3.910662 9.594095 -0.605207
v -4.010081 9.821963 -0.607141
v -4.102966 9.782933 -0.431355
v -4.003639 9.555022 -0.429478
v -3.922704 9.644041 -0.388331
v -2.579178 9.082059 -0.293128
v -2.721802 8.805362 -0.430114
v -3.032826 8.674651 0.157732
v -2.890202 8.951347 0.294717
v -3.288176 9.810858 0.275270
v -3.465520 10.167097 0.260651
v -3.152796 10.294394 -0.327053
v -2.977153 9.941568 -0.312576
v -2.745798 9.133678 -0.069628
v -2.725339 9.343178 -0.029664
v -2.629733 9.136693 -0.024992
v -2.810127 9.307545 0.130587
v -2.816701 9.103880 0.064380
v -2.714520 9.101060 0.135260
v -3.152715 10.007296 -0.090867
v -3.223800 10.147665 -0.097264
v -3.142605 10.236095 -0.056082
v -3.033211 10.012989 -0.047812
v -3.299790 10.115727 0.046128
v -3.235671 10.196978 0.119588
v -3.228614 9.975399 0.052585
v -3.126188 9.973914 0.127916
vt 0.490765 0.813794
vt 0.479858 0.813794
vt 0.479858 0.798802
vt 0.490765 0.798802
vt 0.616076 0.511522
vt 0.619151 0.500416
vt 0.644876 0.500416
vt 0.647826 0.511700
vt 0.640393 0.169448
vt 0.600810 0.169448
vt 0.582271 0.814940
vt 0.571036 0.814940
vt 0.571036 0.798802
vt 0.582271 0.798802
vt 0.586269 0.830552
vt 0.586269 0.798802
vt 0.598415 0.798802
vt 0.598415 0.830552
vt 0.474138 0.589115
vt 0.476356 0.258148
vt 0.502981 0.258148
vt 0.505199 0.589115
vt 0.259064 0.707501
vt 0.256846 0.376534
vt 0.287906 0.376534
vt 0.285688 0.707501
vt 0.435681 0.813794
vt 0.435681 0.798802
vt 0.446588 0.798802
vt 0.446588 0.813794
vt 0.660312 0.169448
vt 0.699895 0.169448
vt 0.681554 0.500416
vt 0.655829 0.500416
vt 0.525283 0.814940
vt 0.525283 0.798802
vt 0.536518 0.798802
vt 0.536518 0.814940
vt 0.553558 0.606525
vt 0.588104 0.650946
vt 0.595692 0.699641
vt 0.573352 0.753896
vt 0.538028 0.783127
vt 0.489669 0.796201
vt 0.441309 0.783127
vt 0.405986 0.753896
vt 0.383645 0.699641
vt 0.391233 0.650946
vt 0.425779 0.606525
vt 0.272376 0.169448
vt 0.320735 0.182522
vt 0.356059 0.211753
vt 0.378400 0.266008
vt 0.370811 0.314703
vt 0.336265 0.359124
vt 0.208486 0.359124
vt 0.173941 0.314703
vt 0.166352 0.266008
vt 0.188693 0.211753
vt 0.224016 0.182522
vt 0.652889 0.555919
vt 0.652879 0.543671
vt 0.684630 0.543671
vt 0.684630 0.555922
vt 0.647816 0.555919
vt 0.616076 0.555922
vt 0.616076 0.543671
vt 0.647826 0.543671
vt 0.616076 0.555922
vt 0.647816 0.555919
vt 0.647826 0.511700
vt 0.684630 0.530166
vt 0.684630 0.555922
vt 0.652889 0.555919
vt 0.652879 0.530166
vt 0.647826 0.530166
vt 0.616076 0.530166
vt 0.647826 0.574545
vt 0.647826 0.583366
vt 0.616076 0.583366
vt 0.616076 0.574545
vt 0.647826 0.589115
vt 0.616076 0.589115
vt 0.475860 0.809430
vt 0.470510 0.811628
vt 0.470510 0.800967
vt 0.475860 0.803166
vt 0.342563 0.807874
vt 0.337214 0.808583
vt 0.337214 0.799927
vt 0.342563 0.800636
vt 0.461224 0.809430
vt 0.455874 0.811628
vt 0.455874 0.800967
vt 0.461224 0.803166
vt 0.327927 0.807874
vt 0.322578 0.808583
vt 0.322578 0.799927
vt 0.327927 0.800636
vt 0.566740 0.810738
vt 0.561254 0.812889
vt 0.561553 0.801247
vt 0.567038 0.803367
vt 0.402405 0.808295
vt 0.396920 0.809166
vt 0.396925 0.799675
vt 0.402411 0.800547
vt 0.551781 0.810374
vt 0.546295 0.812495
vt 0.545991 0.800852
vt 0.551477 0.803003
vt 0.387446 0.808291
vt 0.381960 0.809163
vt 0.381960 0.799672
vt 0.387446 0.800543
vt 0.317289 0.809709
vt 0.317289 0.798802
vt 0.450586 0.813794
vt 0.450586 0.798802
vt 0.331925 0.809709
vt 0.331925 0.798802
vt 0.465222 0.813794
vt 0.465222 0.798802
vt 0.376485 0.810036
vt 0.376485 0.798802
vt 0.540820 0.814940
vt 0.540516 0.798802
vt 0.391444 0.810036
vt 0.391449 0.798802
vt 0.555779 0.814940
vt 0.556077 0.798802
vt 0.251488 0.781630
vt 0.251490 0.763005
vt 0.293262 0.763005
vt 0.293263 0.781630
vt 0.264755 0.790452
vt 0.279997 0.790452
vt 0.266303 0.796201
vt 0.278449 0.796201
vt 0.482048 0.175197
vt 0.483596 0.169448
vt 0.495742 0.169448
vt 0.497289 0.175197
vt 0.468781 0.184019
vt 0.510556 0.184019
vt 0.468781 0.202641
vt 0.510556 0.202641
vt 0.475635 0.214893
vt 0.503702 0.214893
vt 0.468781 0.228398
vt 0.510556 0.228398
vt 0.469388 0.247042
vt 0.509949 0.247042
vt 0.252090 0.718786
vt 0.292662 0.718786
vt 0.251488 0.737251
vt 0.293263 0.737251
vt 0.258343 0.750756
vt 0.286409 0.750756
vt 0.706878 0.301629
vt 0.758167 0.301629
vt 0.758167 0.346050
vt 0.710901 0.346050
vt 0.700942 0.640075
vt 0.653676 0.640075
vt 0.657704 0.591716
vt 0.697287 0.591716
vt 0.704940 0.397010
vt 0.758159 0.397010
vt 0.758159 0.445370
vt 0.704940 0.445370
vt 0.704948 0.169448
vt 0.758167 0.169448
vt 0.758167 0.198679
vt 0.704948 0.198679
vt 0.758167 0.252934
vt 0.704948 0.252934
vt 0.647826 0.530166
vt 0.647816 0.555919
vt 0.616076 0.555922
vt 0.616076 0.530166
vt 0.652879 0.530166
vt 0.684630 0.530166
vt 0.652879 0.574545
vt 0.684630 0.574545
vt 0.684630 0.583366
vt 0.652879 0.583366
vt 0.684630 0.589115
vt 0.652879 0.589115
vt 0.684630 0.511522
vt 0.652879 0.511700
vt 0.421045 0.809430
vt 0.421045 0.803166
vt 0.426394 0.800967
vt 0.426394 0.811628
vt 0.302653 0.807874
vt 0.302653 0.800636
vt 0.308002 0.799927
vt 0.308002 0.808583
vt 0.406408 0.809430
vt 0.406408 0.803166
vt 0.411758 0.800967
vt 0.411758 0.811628
vt 0.288017 0.807874
vt 0.288017 0.800636
vt 0.293366 0.799927
vt 0.293366 0.808583
vt 0.510324 0.810738
vt 0.510026 0.803367
vt 0.515511 0.801247
vt 0.515810 0.812889
vt 0.361526 0.808295
vt 0.361520 0.800547
vt 0.367006 0.799675
vt 0.367011 0.809166
vt 0.494763 0.810374
vt 0.495067 0.803003
vt 0.500552 0.800852
vt 0.500248 0.812495
vt 0.346561 0.808291
vt 0.346561 0.800543
vt 0.352047 0.799672
vt 0.352047 0.809163
vt 0.298655 0.798802
vt 0.298655 0.809709
vt 0.417047 0.798802
vt 0.417047 0.813794
vt 0.313291 0.798802
vt 0.313291 0.809709
vt 0.431683 0.798802
vt 0.431683 0.813794
vt 0.357522 0.798802
vt 0.357522 0.810036
vt 0.506028 0.798802
vt 0.505724 0.814940
vt 0.372481 0.798802
vt 0.372487 0.810036
vt 0.520987 0.798802
vt 0.521285 0.814940
vt 0.813446 0.301629
vt 0.809422 0.346050
vt 0.762156 0.346050
vt 0.762156 0.301629
vt 0.649678 0.591716
vt 0.646023 0.640075
vt 0.606440 0.640075
vt 0.602412 0.591716
vt 0.704940 0.348651
vt 0.758159 0.348651
vt 0.815375 0.169448
vt 0.815375 0.198679
vt 0.762156 0.198679
vt 0.762156 0.169448
vt 0.815375 0.252934
vt 0.762156 0.252934
vt 0.647816 0.555919
vt 0.647826 0.530166
vt 0.616076 0.530166
vt 0.616076 0.555922
vt 0.616076 0.555922
vt 0.616076 0.555922
vt 0.647816 0.555919
vt 0.647826 0.530166
vt 0.616076 0.530166
vt 0.616076 0.555922
vt 0.647816 0.555919
vt 0.616076 0.530166
vt 0.647826 0.530166
vt 0.647816 0.555919
vt 0.616076 0.555922
vt 0.652889 0.555919
vt 0.684630 0.530166
vt 0.684630 0.555922
vt 0.652879 0.530166
vt 0.652889 0.555919
vt 0.684630 0.530166
vt 0.652879 0.530166
vt 0.652889 0.555919
vt 0.684630 0.555922
vt 0.652879 0.530166
vt 0.684630 0.530166
vt 0.684630 0.555922
vt 0.652889 0.555919
vt 0.684630 0.555922
vt 0.684630 0.530166
vt 0.652879 0.530166
vt 0.652889 0.555919
vt 0.684630 0.530166
vt 0.652879 0.530166
vt 0.684630 0.555922
vt 0.652889 0.555919
vn -0.7829 -0.3738 -0.4973
vn -0.8669 -0.1146 -0.4851
vn -0.8859 0.1626 -0.4344
vn -0.8668 -0.1155 -0.4851
vn -0.7801 -0.3798 -0.4972
vn -0.7907 -0.3568 -0.4974
vn 0.4201 -0.9073 0.0205
vn -0.4349 -0.2428 0.8671
vn 0.4532 0.2051 -0.8675
vn 0.7829 0.3738 0.4973
vn 0.7857 0.3677 0.4975
vn 0.7748 0.3906 0.4971
vn -0.4417 -0.2291 0.8674
vn 0.4629 0.1841 -0.8671
vn 0.4781 0.7692 0.4240
vn -0.8884 0.1168 -0.4441
vn -0.7662 -0.5578 -0.3189
vn -0.8127 -0.3483 -0.4672
vn -0.7972 -0.3417 -0.4976
vn 0.7829 0.3739 0.4973
vn -0.6613 -0.5767 -0.4797
vn -0.5080 -0.7439 -0.4342
vn -0.6751 -0.5729 -0.4649
vn -0.3958 -0.7227 -0.5666
vn -0.2495 -0.9089 -0.3341
vn -0.2495 -0.9089 -0.3340
vn -0.4578 -0.7636 -0.4554
vn -0.6468 -0.5968 -0.4749
vn 0.5577 0.2403 -0.7945
vn 0.5968 0.2592 -0.7594
vn 0.5968 0.2591 -0.7594
vn -0.0909 0.9812 0.1701
vn -0.0916 0.9812 0.1697
vn -0.3521 -0.1421 0.9251
vn -0.3049 -0.1198 0.9448
vn 0.6862 -0.6970 0.2081
vn 0.6858 -0.6976 0.2077
vn 0.5781 0.2446 -0.7785
vn 0.5776 0.2455 -0.7785
vn 0.5777 0.2455 -0.7785
vn -0.1094 0.9810 0.1600
vn -0.0825 0.9812 0.1743
vn -0.0825 0.9812 0.1742
vn -0.3281 -0.1363 0.9347
vn -0.3284 -0.1354 0.9348
vn -0.3284 -0.1353 0.9348
vn 0.6769 -0.7082 0.2007
vn 0.6718 -0.7142 0.1966
vn 0.6720 -0.7139 0.1968
vn 0.6854 -0.6980 0.2074
vn -0.2858 -0.1108 0.9519
vn -0.0921 0.9812 0.1694
vn 0.6118 0.2664 -0.7448
vn 0.6680 -0.7185 0.1937
vn -0.3285 -0.1348 0.9348
vn -0.0643 0.9809 0.1838
vn 0.5774 0.2460 -0.7785
vn 0.4587 0.1932 -0.8673
vn 0.4589 0.1929 -0.8673
vn 0.4589 0.1928 -0.8673
vn -0.4589 -0.1928 0.8673
vn -0.4589 -0.1929 0.8673
vn -0.4855 -0.1329 0.8641
vn -0.5544 0.0563 0.8304
vn 0.4313 0.2500 -0.8669
vn 0.3377 0.4160 -0.8443
vn 0.4590 0.1925 -0.8673
vn 0.4590 0.1927 -0.8673
vn 0.4591 0.1924 -0.8673
vn -0.5519 -0.7032 -0.4484
vn -0.5454 -0.7094 -0.4463
vn -0.1537 -0.9442 -0.2912
vn -0.1586 -0.9427 -0.2935
vn 0.1300 -0.9802 -0.1491
vn -0.6098 0.7783 -0.1496
vn -0.7282 0.6410 -0.2427
vn -0.8829 0.2081 -0.4209
vn -0.8353 -0.2389 -0.4951
vn -0.8364 -0.2356 -0.4949
vn -0.7829 -0.3737 -0.4974
vn 0.8518 0.2040 0.4825
vn 0.8622 0.1376 0.4874
vn 0.8883 -0.0773 0.4528
vn 0.8870 -0.1571 0.4343
vn 0.8870 -0.1570 0.4344
vn 0.8485 -0.3847 0.3634
vn 0.8486 -0.3847 0.3632
vn 0.8652 0.1251 0.4856
vn 0.6252 0.6289 0.4622
vn 0.6161 0.6662 0.4203
vn 0.4433 0.7971 0.4100
vn 0.3521 0.1421 -0.9251
vn 0.3049 0.1198 -0.9448
vn -0.6862 0.6970 -0.2081
vn -0.6858 0.6976 -0.2077
vn -0.5577 -0.2403 0.7945
vn -0.5968 -0.2591 0.7594
vn 0.0909 -0.9812 -0.1701
vn 0.0916 -0.9812 -0.1697
vn 0.3325 0.1274 -0.9345
vn 0.3321 0.1283 -0.9345
vn 0.3320 0.1286 -0.9345
vn -0.6740 0.7115 -0.1987
vn -0.6913 0.6906 -0.2125
vn -0.5740 -0.2537 0.7785
vn -0.5746 -0.2529 0.7784
vn 0.1053 -0.9811 -0.1624
vn 0.1130 -0.9809 -0.1583
vn 0.0921 -0.9812 -0.1695
vn -0.6118 -0.2664 0.7447
vn -0.6854 0.6980 -0.2074
vn 0.2858 0.1108 -0.9519
vn 0.1188 -0.9807 -0.1552
vn -0.5749 -0.2524 0.7783
vn -0.7027 0.6761 -0.2217
vn 0.3319 0.1288 -0.9345
vn 0.8853 -0.0170 0.4646
vn 0.8161 -0.4774 0.3257
vn 0.8141 -0.4822 0.3235
vn 0.8860 -0.0260 0.4630
vn 0.6604 -0.7270 0.1878
vn -0.2012 0.9734 0.1100
vn -0.0216 0.9783 0.2061
vn 0.4054 0.8232 0.3975
vn 0.7122 0.5037 0.4889
vn 0.7141 0.5008 0.4892
vn -0.7931 -0.3492 -0.4991
vn -0.7953 -0.3412 -0.5010
vn -0.8042 -0.3599 -0.4730
vn -0.7946 -0.3497 -0.4963
vn -0.7988 -0.3425 -0.4946
vn -0.9007 -0.3672 -0.2321
vn -0.7829 -0.3736 -0.4974
vn 0.7684 0.4055 0.4950
vn 0.7722 0.3980 0.4952
vn 0.7707 0.3975 0.4980
vn 0.7670 0.4050 0.4977
usemtl initialShadingGroup.001
s off
f 1/1/1 2/2/1 3/3/1 4/4/1
f 5/5/2 6/6/3 7/7/3 8/8/4
f 9/9/5 7/7/5 6/6/5 10/10/5
f 11/11/6 12/12/6 13/13/6 14/14/6
f 15/15/7 16/16/7 17/17/7 18/18/7
f 10/19/8 6/20/8 19/21/8 20/22/8
f 7/23/9 9/24/9 21/25/9 22/26/9
f 23/27/10 24/28/10 25/29/10 26/30/10
f 21/31/11 20/32/11 19/33/11 22/34/11
f 27/35/12 28/36/12 29/37/12 30/38/12
f 10/19/13 20/22/13 31/39/13 32/40/13 33/41/13 34/42/13 35/43/13 36/44/13 37/45/13 38/46/13 39/47/13 40/48/13 41/49/13
f 42/50/14 43/51/14 44/52/14 45/53/14 46/54/14 47/55/14 21/25/14 9/24/14 48/56/14 49/57/14 50/58/14 51/59/14 52/60/14
f 53/61/15 54/62/15 55/63/15 56/64/15
f 57/65/16 58/66/16 59/67/16 60/68/16
f 5/5/17 8/69/18 61/70/19 62/71/19
f 56/72/20 63/73/20 64/74/20 53/75/20
s 1
f 65/76/21 60/68/22 59/67/22 66/77/23
f 67/78/24 68/79/25 69/80/26 70/81/27
f 68/79/25 16/82/28 15/83/28 69/80/26
f 71/84/29 72/85/30 73/86/31 74/87/29
f 74/88/32 73/89/33 75/90/33 76/91/32
f 76/92/34 75/93/35 77/94/35 78/95/34
f 78/96/36 77/97/37 72/98/37 71/99/36
f 79/100/38 80/101/39 81/102/40 61/103/38
f 61/104/41 81/105/42 82/106/43 62/107/41
f 62/108/44 82/109/45 83/110/46 84/111/44
f 84/112/47 83/113/48 80/114/49 79/115/47
f 77/97/37 2/116/50 1/117/50 72/98/37
f 75/93/35 3/118/51 2/119/51 77/94/35
f 73/89/33 4/120/52 3/121/52 75/90/33
f 72/85/30 1/122/53 4/123/53 73/86/31
f 83/113/48 12/124/54 11/125/54 80/114/49
f 82/109/45 13/126/55 12/127/55 83/110/46
f 81/105/42 14/128/56 13/129/56 82/106/43
f 80/101/39 11/130/57 14/131/57 81/102/40
f 67/132/58 57/133/59 53/134/59 85/135/58
f 68/136/60 67/132/58 85/135/58 86/137/60
f 16/138/60 68/136/60 86/137/60 17/139/60
f 69/140/61 15/141/61 18/142/61 87/143/61
f 70/144/62 69/140/61 87/143/61 88/145/62
f 58/146/62 70/144/62 88/145/62 56/147/62
f 59/148/62 58/146/62 56/147/62 55/149/62
f 66/150/62 59/148/61 55/149/61 89/151/62
f 5/152/63 66/150/62 89/151/62 90/153/63
f 6/20/64 5/152/63 90/153/63 19/21/64
f 8/154/65 7/23/66 22/26/66 91/155/65
f 65/156/59 8/154/65 91/155/65 92/157/59
f 60/158/67 65/156/59 92/157/59 54/159/67
f 57/133/68 60/158/69 54/159/69 53/134/68
f 40/160/70 49/161/71 48/162/72 41/163/73
f 41/164/73 48/165/72 9/166/74 10/167/74
f 36/168/75 42/169/75 52/170/76 37/171/76
f 37/172/76 52/173/76 51/174/77 38/175/77
f 38/175/77 51/174/77 50/176/78 39/177/79
f 39/177/79 50/176/78 49/161/71 40/160/70
f 67/178/24 71/179/80 74/180/80 57/181/80
f 92/182/81 89/183/82 55/63/83 54/62/83
f 85/184/84 88/185/85 87/186/86 86/187/87
f 86/187/87 87/186/86 18/188/88 17/189/88
f 90/190/89 91/191/90 22/34/91 19/33/91
f 93/192/92 64/193/92 94/194/93 95/195/93
f 64/196/94 63/197/94 96/198/95 94/199/95
f 63/200/96 97/201/96 98/202/97 96/203/97
f 97/204/98 93/205/98 95/206/99 98/207/99
f 99/208/100 100/209/100 101/210/101 102/211/102
f 100/212/103 103/213/103 104/214/104 101/215/104
f 103/216/105 105/217/105 106/218/106 104/219/106
f 105/220/107 99/221/107 102/222/108 106/223/108
f 98/207/99 95/206/99 23/224/109 26/225/109
f 96/203/97 98/202/97 26/226/110 25/227/110
f 94/199/95 96/198/95 25/228/111 24/229/111
f 95/195/93 94/194/93 24/230/112 23/231/112
f 106/223/108 102/222/108 27/232/113 30/233/113
f 104/219/106 106/218/106 30/234/114 29/235/114
f 101/215/104 104/214/104 29/236/115 28/237/115
f 102/211/102 101/210/101 28/238/116 27/239/116
f 32/240/117 31/241/118 47/242/119 46/243/120
f 31/244/118 20/245/121 21/246/121 47/247/119
f 36/168/122 35/248/123 43/249/123 42/169/122
f 35/250/123 34/251/124 44/252/124 43/253/123
f 34/251/124 33/254/125 45/255/126 44/252/124
f 33/254/125 32/240/117 46/243/120 45/255/126
f 79/256/127 61/257/128 8/258/129 65/259/21
f 84/260/130 79/256/127 65/76/21 66/77/23
f 62/261/131 84/262/130 66/263/23 5/264/132
f 67/78/24 70/81/27 78/265/1 71/179/80
f 76/266/80 78/265/1 70/267/27 58/268/80
f 57/65/133 74/269/133 76/270/80 58/66/80
f 85/271/10 53/75/10 64/272/10 93/273/10
f 56/72/10 88/274/10 97/275/10 63/73/10
f 88/276/10 85/277/10 93/278/10 97/279/10
f 91/280/90 100/281/134 99/282/135 92/283/81
f 89/284/82 92/285/81 99/286/135 105/287/136
f 90/288/89 89/289/82 105/287/136 103/290/137
f 91/280/90 90/291/89 103/290/137 100/281/134
