# Blender v2.79 (sub 6) OBJ File: 'bailarina.blend1'
# www.blender.org
mtllib Guitarra1_000020.mtl
o g1_pCube6
v -0.278378 11.486134 2.219253
v -0.144876 11.533012 2.034341
v -0.278402 11.822971 2.011449
v -0.411904 11.776093 2.196360
v -0.739192 12.690295 1.616906
v -0.980635 12.836479 1.562324
v -1.295504 12.725911 1.998447
v -1.126133 12.550422 2.155527
v -4.154915 19.163858 1.445682
v -3.670425 19.333986 0.774620
v -0.677938 12.364583 2.151188
v -0.540429 12.412868 1.960726
v -0.688734 12.722577 1.932171
v -0.826161 12.674334 2.122704
v -0.261976 11.076677 1.552358
v -0.650596 10.940214 2.090631
v -0.833421 10.843672 1.934160
v -0.444801 10.980133 1.395888
v -1.381385 12.624856 1.219342
v -4.137956 19.087101 0.374483
v -4.622445 18.916973 1.045545
v -1.696254 12.514289 1.655465
v -1.227441 10.984965 1.406996
v -1.360967 11.274924 1.384105
v -1.227465 11.321803 1.199192
v -1.093940 11.031845 1.222085
v -1.633031 11.860229 1.333769
v -1.772272 12.174725 1.312973
v -1.634682 12.223055 1.122581
v -1.495523 11.908516 1.143307
v -4.976185 19.055141 -0.337049
v -5.842547 19.656958 -0.918110
v -6.366847 20.546722 -1.122937
v -6.513775 21.773609 -0.917972
v -6.242412 22.619713 -0.507554
v -5.630938 23.256958 0.095471
v -4.786582 23.388485 0.738419
v -3.994554 23.103924 1.238103
v -3.175070 22.232189 1.608746
v -2.879221 21.221786 1.618050
v -3.052832 20.070797 1.309054
v -6.282329 23.028221 0.997705
v -6.893803 22.390976 0.394682
v -7.165166 21.544876 -0.015738
v -7.018236 20.317987 -0.220704
v -6.470319 19.436516 -0.048589
v -5.554713 18.851992 0.464263
v -3.631360 19.867645 2.110366
v -3.506993 21.001345 2.487571
v -3.826460 22.003452 2.510978
v -4.645945 22.875187 2.140337
v -5.437972 23.159748 1.640654
v -1.351913 11.367999 1.692477
v -1.357977 11.659319 1.762227
v -0.969358 11.795783 1.223956
v -0.963416 11.504345 1.154358
v -0.723157 11.700023 2.230597
v -0.334607 11.836396 1.692524
v -0.546902 12.018867 1.585515
v -0.935521 11.882404 2.123787
v -0.929174 12.506386 1.958949
v -0.834423 12.539645 1.827527
v -1.050923 11.314071 1.374005
v -1.139515 11.282962 1.496712
v -0.952621 12.198076 2.191471
v -0.564002 12.334539 1.653199
v -0.557370 11.339764 2.259232
v -0.678501 11.063704 2.101794
v -0.289882 11.200168 1.563520
v -0.168750 11.476225 1.720960
v -0.454920 11.493868 2.044443
v -0.363492 11.490816 2.128728
v -0.458445 11.697014 2.112449
v -0.510707 11.615013 2.034878
v -0.352504 11.734213 1.965711
v -0.422115 11.646122 1.912171
v -0.257549 11.528016 1.981989
v -0.366327 11.524976 1.921734
v -0.859038 12.366205 1.974047
v -0.767972 12.364460 2.062766
v -0.876156 12.587261 2.041147
v -0.760066 12.628012 1.880168
v -0.651801 12.405254 1.901859
v -0.764204 12.399507 1.842694
v -1.186178 11.007710 1.721065
v -0.907921 10.942554 1.905443
v -0.519302 11.079019 1.367172
v -0.797559 11.144173 1.182794
v -1.192811 12.002487 1.115033
v -1.349716 12.367899 1.094389
v -1.736831 12.227933 1.632860
v -1.581431 11.866025 1.653305
v -1.083728 11.161816 1.506276
v -1.248293 11.279921 1.436455
v -1.153340 11.073724 1.452736
v -1.142353 11.317122 1.289719
v -0.995135 11.192924 1.383569
v -1.047398 11.110925 1.305996
v -1.484153 12.036104 1.439043
v -1.545305 12.181028 1.431632
v -1.657426 12.174699 1.372495
v -1.558226 11.947155 1.386426
v -1.450391 12.214375 1.300351
v -1.541173 12.215536 1.211656
v -1.389319 12.069405 1.307689
v -1.442055 11.987948 1.225519
vt 0.490765 0.813794
vt 0.479858 0.813794
vt 0.479858 0.798802
vt 0.490765 0.798802
vt 0.616076 0.511522
vt 0.619151 0.500416
vt 0.644876 0.500416
vt 0.647826 0.511700
vt 0.640393 0.169448
vt 0.600810 0.169448
vt 0.582271 0.814940
vt 0.571036 0.814940
vt 0.571036 0.798802
vt 0.582271 0.798802
vt 0.586269 0.830552
vt 0.586269 0.798802
vt 0.598415 0.798802
vt 0.598415 0.830552
vt 0.474138 0.589115
vt 0.476356 0.258148
vt 0.502981 0.258148
vt 0.505199 0.589115
vt 0.259064 0.707501
vt 0.256846 0.376534
vt 0.287906 0.376534
vt 0.285688 0.707501
vt 0.435681 0.813794
vt 0.435681 0.798802
vt 0.446588 0.798802
vt 0.446588 0.813794
vt 0.660312 0.169448
vt 0.699895 0.169448
vt 0.681554 0.500416
vt 0.655829 0.500416
vt 0.525283 0.814940
vt 0.525283 0.798802
vt 0.536518 0.798802
vt 0.536518 0.814940
vt 0.553558 0.606525
vt 0.588104 0.650946
vt 0.595692 0.699641
vt 0.573352 0.753896
vt 0.538028 0.783127
vt 0.489669 0.796201
vt 0.441309 0.783127
vt 0.405986 0.753896
vt 0.383645 0.699641
vt 0.391233 0.650946
vt 0.425779 0.606525
vt 0.272376 0.169448
vt 0.320735 0.182522
vt 0.356059 0.211753
vt 0.378400 0.266008
vt 0.370811 0.314703
vt 0.336265 0.359124
vt 0.208486 0.359124
vt 0.173941 0.314703
vt 0.166352 0.266008
vt 0.188693 0.211753
vt 0.224016 0.182522
vt 0.652889 0.555919
vt 0.652879 0.543671
vt 0.684630 0.543671
vt 0.684630 0.555922
vt 0.647816 0.555919
vt 0.616076 0.555922
vt 0.616076 0.543671
vt 0.647826 0.543671
vt 0.616076 0.555922
vt 0.647816 0.555919
vt 0.647826 0.511700
vt 0.684630 0.530166
vt 0.684630 0.555922
vt 0.652889 0.555919
vt 0.652879 0.530166
vt 0.647826 0.530166
vt 0.616076 0.530166
vt 0.647826 0.574545
vt 0.647826 0.583366
vt 0.616076 0.583366
vt 0.616076 0.574545
vt 0.647826 0.589115
vt 0.616076 0.589115
vt 0.475860 0.809430
vt 0.470510 0.811628
vt 0.470510 0.800967
vt 0.475860 0.803166
vt 0.342563 0.807874
vt 0.337214 0.808583
vt 0.337214 0.799927
vt 0.342563 0.800636
vt 0.461224 0.809430
vt 0.455874 0.811628
vt 0.455874 0.800967
vt 0.461224 0.803166
vt 0.327927 0.807874
vt 0.322578 0.808583
vt 0.322578 0.799927
vt 0.327927 0.800636
vt 0.566740 0.810738
vt 0.561254 0.812889
vt 0.561553 0.801247
vt 0.567038 0.803367
vt 0.402405 0.808295
vt 0.396920 0.809166
vt 0.396925 0.799675
vt 0.402411 0.800547
vt 0.551781 0.810374
vt 0.546295 0.812495
vt 0.545991 0.800852
vt 0.551477 0.803003
vt 0.387446 0.808291
vt 0.381960 0.809163
vt 0.381960 0.799672
vt 0.387446 0.800543
vt 0.317289 0.809709
vt 0.317289 0.798802
vt 0.450586 0.813794
vt 0.450586 0.798802
vt 0.331925 0.809709
vt 0.331925 0.798802
vt 0.465222 0.813794
vt 0.465222 0.798802
vt 0.376485 0.810036
vt 0.376485 0.798802
vt 0.540820 0.814940
vt 0.540516 0.798802
vt 0.391444 0.810036
vt 0.391449 0.798802
vt 0.555779 0.814940
vt 0.556077 0.798802
vt 0.251488 0.781630
vt 0.251490 0.763005
vt 0.293262 0.763005
vt 0.293263 0.781630
vt 0.264755 0.790452
vt 0.279997 0.790452
vt 0.266303 0.796201
vt 0.278449 0.796201
vt 0.482048 0.175197
vt 0.483596 0.169448
vt 0.495742 0.169448
vt 0.497289 0.175197
vt 0.468781 0.184019
vt 0.510556 0.184019
vt 0.468781 0.202641
vt 0.510556 0.202641
vt 0.475635 0.214893
vt 0.503702 0.214893
vt 0.468781 0.228398
vt 0.510556 0.228398
vt 0.469388 0.247042
vt 0.509949 0.247042
vt 0.252090 0.718786
vt 0.292662 0.718786
vt 0.251488 0.737251
vt 0.293263 0.737251
vt 0.258343 0.750756
vt 0.286409 0.750756
vt 0.706878 0.301629
vt 0.758167 0.301629
vt 0.758167 0.346050
vt 0.710901 0.346050
vt 0.700942 0.640075
vt 0.653676 0.640075
vt 0.657704 0.591716
vt 0.697287 0.591716
vt 0.704940 0.397010
vt 0.758159 0.397010
vt 0.758159 0.445370
vt 0.704940 0.445370
vt 0.704948 0.169448
vt 0.758167 0.169448
vt 0.758167 0.198679
vt 0.704948 0.198679
vt 0.758167 0.252934
vt 0.704948 0.252934
vt 0.647826 0.530166
vt 0.647816 0.555919
vt 0.616076 0.555922
vt 0.616076 0.530166
vt 0.652879 0.530166
vt 0.684630 0.530166
vt 0.652879 0.574545
vt 0.684630 0.574545
vt 0.684630 0.583366
vt 0.652879 0.583366
vt 0.684630 0.589115
vt 0.652879 0.589115
vt 0.684630 0.511522
vt 0.652879 0.511700
vt 0.421045 0.809430
vt 0.421045 0.803166
vt 0.426394 0.800967
vt 0.426394 0.811628
vt 0.302653 0.807874
vt 0.302653 0.800636
vt 0.308002 0.799927
vt 0.308002 0.808583
vt 0.406408 0.809430
vt 0.406408 0.803166
vt 0.411758 0.800967
vt 0.411758 0.811628
vt 0.288017 0.807874
vt 0.288017 0.800636
vt 0.293366 0.799927
vt 0.293366 0.808583
vt 0.510324 0.810738
vt 0.510026 0.803367
vt 0.515511 0.801247
vt 0.515810 0.812889
vt 0.361526 0.808295
vt 0.361520 0.800547
vt 0.367006 0.799675
vt 0.367011 0.809166
vt 0.494763 0.810374
vt 0.495067 0.803003
vt 0.500552 0.800852
vt 0.500248 0.812495
vt 0.346561 0.808291
vt 0.346561 0.800543
vt 0.352047 0.799672
vt 0.352047 0.809163
vt 0.298655 0.798802
vt 0.298655 0.809709
vt 0.417047 0.798802
vt 0.417047 0.813794
vt 0.313291 0.798802
vt 0.313291 0.809709
vt 0.431683 0.798802
vt 0.431683 0.813794
vt 0.357522 0.798802
vt 0.357522 0.810036
vt 0.506028 0.798802
vt 0.505724 0.814940
vt 0.372481 0.798802
vt 0.372487 0.810036
vt 0.520987 0.798802
vt 0.521285 0.814940
vt 0.813446 0.301629
vt 0.809422 0.346050
vt 0.762156 0.346050
vt 0.762156 0.301629
vt 0.649678 0.591716
vt 0.646023 0.640075
vt 0.606440 0.640075
vt 0.602412 0.591716
vt 0.704940 0.348651
vt 0.758159 0.348651
vt 0.815375 0.169448
vt 0.815375 0.198679
vt 0.762156 0.198679
vt 0.762156 0.169448
vt 0.815375 0.252934
vt 0.762156 0.252934
vt 0.647816 0.555919
vt 0.647826 0.530166
vt 0.616076 0.530166
vt 0.616076 0.555922
vt 0.616076 0.555922
vt 0.616076 0.555922
vt 0.647816 0.555919
vt 0.647826 0.530166
vt 0.616076 0.530166
vt 0.616076 0.555922
vt 0.647816 0.555919
vt 0.616076 0.530166
vt 0.647826 0.530166
vt 0.647816 0.555919
vt 0.616076 0.555922
vt 0.652889 0.555919
vt 0.684630 0.530166
vt 0.684630 0.555922
vt 0.652879 0.530166
vt 0.652889 0.555919
vt 0.684630 0.530166
vt 0.652879 0.530166
vt 0.652889 0.555919
vt 0.684630 0.555922
vt 0.652879 0.530166
vt 0.684630 0.530166
vt 0.684630 0.555922
vt 0.652889 0.555919
vt 0.684630 0.555922
vt 0.684630 0.530166
vt 0.652879 0.530166
vt 0.652889 0.555919
vt 0.684630 0.530166
vt 0.652879 0.530166
vt 0.684630 0.555922
vt 0.652889 0.555919
vn 0.7051 0.3723 0.6035
vn 0.5658 0.6031 0.5623
vn 0.3771 0.7947 0.4757
vn 0.5663 0.6025 0.5625
vn 0.7079 0.3663 0.6039
vn 0.6973 0.3892 0.6018
vn 0.4172 -0.9060 0.0715
vn 0.5956 0.1509 -0.7890
vn -0.5790 -0.1891 0.7931
vn -0.7051 -0.3723 -0.6035
vn -0.7023 -0.3784 -0.6030
vn -0.7126 -0.3553 -0.6049
vn 0.5896 0.1648 -0.7907
vn -0.5693 -0.2100 0.7948
vn -0.8191 0.1174 -0.5616
vn 0.4117 0.7673 0.4917
vn 0.8607 0.2359 0.4513
vn 0.7096 0.4107 0.5725
vn 0.6901 0.4039 0.6005
vn -0.7052 -0.3722 -0.6034
vn 0.7827 0.1482 0.6044
vn 0.8176 -0.0780 0.5705
vn 0.7910 0.1607 0.5903
vn 0.7093 -0.1464 0.6895
vn 0.7919 -0.3848 0.4742
vn 0.7919 -0.3848 0.4741
vn 0.7970 -0.1285 0.5902
vn 0.7893 0.1240 0.6013
vn -0.6610 -0.2485 0.7080
vn -0.6948 -0.2672 0.6678
vn -0.6947 -0.2672 0.6678
vn -0.6539 0.6964 -0.2956
vn -0.6536 0.6969 -0.2952
vn 0.4758 0.1507 -0.8666
vn 0.4319 0.1284 -0.8927
vn 0.1178 -0.9795 -0.1633
vn 0.1184 -0.9795 -0.1628
vn -0.6748 -0.2617 0.6900
vn -0.6752 -0.2608 0.6900
vn -0.6435 0.7107 -0.2841
vn -0.6587 0.6899 -0.3004
vn -0.6587 0.6899 -0.3003
vn 0.4576 0.1358 -0.8787
vn 0.4571 0.1366 -0.8789
vn 0.4570 0.1366 -0.8789
vn 0.1310 -0.9794 -0.1537
vn 0.1382 -0.9792 -0.1485
vn 0.1378 -0.9792 -0.1488
vn 0.1189 -0.9795 -0.1625
vn 0.4140 0.1194 -0.9024
vn -0.6533 0.6973 -0.2949
vn -0.7076 -0.2744 0.6511
vn 0.1434 -0.9790 -0.1447
vn 0.4567 0.1371 -0.8790
vn -0.6686 0.6754 -0.3112
vn -0.6754 -0.2603 0.6900
vn -0.5735 -0.2010 0.7941
vn -0.5734 -0.2013 0.7942
vn 0.5734 0.2013 -0.7942
vn 0.5734 0.2014 -0.7942
vn 0.5448 0.2604 -0.7972
vn 0.4412 0.4358 -0.7845
vn 0.5448 0.2604 -0.7971
vn -0.5987 -0.1435 0.7880
vn -0.6602 0.0343 0.7503
vn -0.5987 -0.1434 0.7880
vn -0.5732 -0.2016 0.7942
vn -0.5733 -0.2015 0.7942
vn -0.5732 -0.2018 0.7942
vn 0.8128 -0.0178 0.5823
vn 0.8137 -0.0268 0.5807
vn 0.7638 -0.4821 0.4292
vn 0.7655 -0.4773 0.4316
vn 0.6314 -0.7263 0.2717
vn -0.2187 0.9718 0.0884
vn -0.0541 0.9765 0.2084
vn -0.0541 0.9765 0.2085
vn 0.3430 0.8213 0.4559
vn 0.6375 0.4992 0.5869
vn 0.6357 0.5021 0.5863
vn 0.7051 0.3724 0.6035
vn 0.7050 0.3724 0.6035
vn -0.6237 -0.5339 -0.5709
vn -0.5797 -0.5848 -0.5675
vn -0.4399 -0.7421 -0.5058
vn -0.3819 -0.7919 -0.4764
vn -0.3820 -0.7918 -0.4765
vn -0.1970 -0.9070 -0.3722
vn -0.1971 -0.9071 -0.3720
vn -0.5724 -0.5951 -0.5641
vn -0.8016 -0.0864 -0.5915
vn -0.8304 -0.0543 -0.5545
vn -0.8200 0.1625 -0.5488
vn -0.4758 -0.1507 0.8665
vn -0.4319 -0.1284 0.8927
vn -0.1178 0.9795 0.1633
vn -0.1184 0.9795 0.1628
vn 0.6610 0.2485 -0.7080
vn 0.6947 0.2672 -0.6678
vn 0.6539 -0.6964 0.2956
vn 0.6536 -0.6969 0.2952
vn -0.4536 -0.1449 0.8793
vn -0.4540 -0.1441 0.8793
vn -0.4542 -0.1437 0.8792
vn -0.1350 0.9793 0.1511
vn -0.1104 0.9794 0.1689
vn 0.6791 0.2528 -0.6892
vn 0.6788 0.2537 -0.6891
vn 0.6458 -0.7075 0.2869
vn 0.6414 -0.7134 0.2822
vn 0.6533 -0.6973 0.2949
vn 0.7076 0.2745 -0.6511
vn -0.1189 0.9795 0.1625
vn -0.4140 -0.1194 0.9024
vn 0.6380 -0.7178 0.2786
vn 0.6786 0.2543 -0.6891
vn -0.0936 0.9790 0.1809
vn -0.4543 -0.1435 0.8792
vn -0.4816 -0.7014 -0.5255
vn -0.1124 -0.9408 -0.3197
vn -0.1078 -0.9424 -0.3167
vn -0.4755 -0.7076 -0.5227
vn 0.1537 -0.9786 -0.1371
vn -0.5868 0.7774 -0.2265
vn -0.6905 0.6405 -0.3362
vn -0.6905 0.6405 -0.3361
vn -0.8173 0.2086 -0.5372
vn -0.8173 0.2086 -0.5371
vn -0.7590 -0.2344 -0.6074
vn -0.7580 -0.2377 -0.6075
vn 0.6928 0.3960 0.6026
vn 0.6880 0.4029 0.6036
vn 0.7121 0.3968 0.5792
vn 0.6946 0.3967 0.6001
vn 0.6922 0.4046 0.5977
vn 0.8167 0.4589 0.3498
vn -0.7052 -0.3723 -0.6034
vn -0.7201 -0.3407 -0.6044
vn -0.7169 -0.3485 -0.6039
vn -0.7151 -0.3477 -0.6064
vn -0.7184 -0.3400 -0.6069
usemtl initialShadingGroup.001
s off
f 1/1/1 2/2/1 3/3/1 4/4/1
f 5/5/2 6/6/3 7/7/3 8/8/4
f 9/9/5 7/7/5 6/6/5 10/10/5
f 11/11/6 12/12/6 13/13/6 14/14/6
f 15/15/7 16/16/7 17/17/7 18/18/7
f 10/19/8 6/20/8 19/21/8 20/22/8
f 7/23/9 9/24/9 21/25/9 22/26/9
f 23/27/10 24/28/10 25/29/10 26/30/10
f 21/31/11 20/32/11 19/33/11 22/34/11
f 27/35/12 28/36/12 29/37/12 30/38/12
f 10/19/13 20/22/13 31/39/13 32/40/13 33/41/13 34/42/13 35/43/13 36/44/13 37/45/13 38/46/13 39/47/13 40/48/13 41/49/13
f 42/50/14 43/51/14 44/52/14 45/53/14 46/54/14 47/55/14 21/25/14 9/24/14 48/56/14 49/57/14 50/58/14 51/59/14 52/60/14
f 53/61/15 54/62/15 55/63/15 56/64/15
f 57/65/16 58/66/16 59/67/16 60/68/16
f 5/5/17 8/69/18 61/70/19 62/71/19
f 56/72/20 63/73/20 64/74/20 53/75/20
s 1
f 65/76/21 60/68/22 59/67/22 66/77/23
f 67/78/24 68/79/25 69/80/26 70/81/27
f 68/79/25 16/82/28 15/83/28 69/80/26
f 71/84/29 72/85/30 73/86/31 74/87/29
f 74/88/32 73/89/33 75/90/33 76/91/32
f 76/92/34 75/93/35 77/94/35 78/95/34
f 78/96/36 77/97/37 72/98/37 71/99/36
f 79/100/38 80/101/39 81/102/39 61/103/38
f 61/104/40 81/105/41 82/106/42 62/107/40
f 62/108/43 82/109/44 83/110/45 84/111/43
f 84/112/46 83/113/47 80/114/48 79/115/46
f 77/97/37 2/116/49 1/117/49 72/98/37
f 75/93/35 3/118/50 2/119/50 77/94/35
f 73/89/33 4/120/51 3/121/51 75/90/33
f 72/85/30 1/122/52 4/123/52 73/86/31
f 83/113/47 12/124/53 11/125/53 80/114/48
f 82/109/44 13/126/54 12/127/54 83/110/45
f 81/105/41 14/128/55 13/129/55 82/106/42
f 80/101/39 11/130/56 14/131/56 81/102/39
f 67/132/57 57/133/58 53/134/58 85/135/57
f 68/136/58 67/132/57 85/135/57 86/137/58
f 16/138/58 68/136/58 86/137/58 17/139/58
f 69/140/59 15/141/60 18/142/60 87/143/59
f 70/144/59 69/140/59 87/143/59 88/145/59
f 58/146/59 70/144/59 88/145/59 56/147/59
f 59/148/59 58/146/59 56/147/59 55/149/59
f 66/150/59 59/148/59 55/149/59 89/151/59
f 5/152/61 66/150/59 89/151/59 90/153/61
f 6/20/62 5/152/61 90/153/63 19/21/62
f 8/154/64 7/23/65 22/26/65 91/155/66
f 65/156/58 8/154/64 91/155/66 92/157/58
f 60/158/67 65/156/58 92/157/58 54/159/67
f 57/133/68 60/158/69 54/159/69 53/134/68
f 40/160/70 49/161/71 48/162/72 41/163/73
f 41/164/73 48/165/72 9/166/74 10/167/74
f 36/168/75 42/169/75 52/170/76 37/171/77
f 37/172/77 52/173/76 51/174/78 38/175/78
f 38/175/78 51/174/78 50/176/79 39/177/80
f 39/177/80 50/176/79 49/161/71 40/160/70
f 67/178/24 71/179/81 74/180/82 57/181/82
f 92/182/83 89/183/84 55/63/85 54/62/85
f 85/184/86 88/185/87 87/186/88 86/187/89
f 86/187/89 87/186/88 18/188/90 17/189/90
f 90/190/91 91/191/92 22/34/93 19/33/93
f 93/192/94 64/193/94 94/194/95 95/195/95
f 64/196/96 63/197/96 96/198/97 94/199/97
f 63/200/98 97/201/98 98/202/99 96/203/99
f 97/204/100 93/205/100 95/206/101 98/207/101
f 99/208/102 100/209/102 101/210/103 102/211/104
f 100/212/105 103/213/105 104/214/106 101/215/106
f 103/216/107 105/217/107 106/218/108 104/219/108
f 105/220/109 99/221/109 102/222/110 106/223/110
f 98/207/101 95/206/101 23/224/111 26/225/111
f 96/203/99 98/202/99 26/226/112 25/227/112
f 94/199/97 96/198/97 25/228/113 24/229/113
f 95/195/95 94/194/95 24/230/114 23/231/114
f 106/223/110 102/222/110 27/232/115 30/233/115
f 104/219/108 106/218/108 30/234/116 29/235/116
f 101/215/106 104/214/106 29/236/117 28/237/117
f 102/211/104 101/210/103 28/238/118 27/239/118
f 32/240/119 31/241/120 47/242/121 46/243/122
f 31/244/120 20/245/123 21/246/123 47/247/121
f 36/168/124 35/248/125 43/249/126 42/169/124
f 35/250/125 34/251/127 44/252/128 43/253/126
f 34/251/127 33/254/129 45/255/130 44/252/128
f 33/254/129 32/240/119 46/243/122 45/255/130
f 79/256/131 61/257/132 8/258/133 65/259/21
f 84/260/134 79/256/131 65/76/21 66/77/23
f 62/261/135 84/262/134 66/263/23 5/264/136
f 67/78/24 70/81/27 78/265/1 71/179/81
f 76/266/81 78/265/1 70/267/27 58/268/81
f 57/65/82 74/269/82 76/270/81 58/66/81
f 85/271/137 53/75/137 64/272/137 93/273/10
f 56/72/10 88/274/10 97/275/10 63/73/10
f 88/276/10 85/277/137 93/278/10 97/279/10
f 91/280/92 100/281/138 99/282/139 92/283/83
f 89/284/84 92/285/83 99/286/139 105/287/140
f 90/288/91 89/289/84 105/287/140 103/290/141
f 91/280/92 90/291/91 103/290/141 100/281/138
