# Blender v2.79 (sub 6) OBJ File: 'bailarinaacortados.blend1'
# www.blender.org
mtllib guitarra1_000210.mtl
o g1_pCube6
v -2.763672 5.001006 -0.400286
v -2.609825 5.088519 -0.551564
v -2.656016 5.380742 -0.429490
v -2.809863 5.293228 -0.278213
v -2.830226 6.421607 -0.348907
v -3.017395 6.636936 -0.313635
v -3.380252 6.430528 0.043161
v -3.277428 6.163353 0.090084
v -4.301845 12.909996 2.707009
v -3.743518 13.227594 2.158008
v -2.898944 5.884343 -0.029652
v -2.740479 5.974484 -0.185471
v -2.794978 6.290071 -0.058330
v -2.953357 6.199910 0.097565
v -2.814559 4.957203 -1.180135
v -3.262404 4.702452 -0.739770
v -3.453393 4.743486 -0.910265
v -3.005549 4.998237 -1.350630
v -3.436040 6.726882 -0.687356
v -4.231925 13.332529 1.722011
v -4.790252 13.014933 2.271011
v -3.798897 6.520475 -0.330560
v -3.755114 5.214017 -1.285341
v -3.801305 5.506239 -1.163266
v -3.647458 5.593753 -1.314544
v -3.601267 5.301531 -1.436619
v -3.896686 6.098708 -0.920331
v -3.941716 6.412259 -0.784737
v -3.783165 6.502383 -0.940479
v -3.738221 6.188849 -1.076150
v -4.994423 13.864574 1.134255
v -5.617739 14.879379 0.955230
v -5.859877 15.869637 1.218447
v -5.675741 16.851662 1.973809
v -5.210363 17.302067 2.707655
v -4.490226 17.393524 3.492931
v -3.689526 16.975313 4.065297
v -3.044030 16.286236 4.323123
v -2.525579 15.153261 4.194952
v -2.522093 14.214277 3.718694
v -2.985186 13.432888 2.927888
v -5.240887 16.966516 4.231056
v -5.961024 16.875061 3.445777
v -6.426403 16.424652 2.711935
v -6.610538 15.442631 1.956570
v -6.341183 14.467854 1.666593
v -5.661119 13.485332 1.789815
v -3.651881 13.053646 3.583448
v -3.245538 13.802752 4.430057
v -3.276241 14.726256 4.933077
v -3.794693 15.859230 5.061246
v -4.440187 16.548307 4.803422
v -3.788448 5.440644 -0.848037
v -3.718573 5.656154 -0.651969
v -3.270730 5.910906 -1.092332
v -3.340765 5.695260 -1.288310
v -3.131616 5.299524 -0.261687
v -2.683877 5.554127 -0.701911
v -2.829409 5.816088 -0.698368
v -3.277253 5.561337 -0.258005
v -3.087087 6.161916 -0.117625
v -2.977887 6.224103 -0.225160
v -3.492611 5.458029 -1.175307
v -3.594704 5.399955 -1.074919
v -3.211077 5.801406 -0.051825
v -2.763233 6.056157 -0.492189
v -3.074345 4.936396 -0.413181
v -3.255780 4.809277 -0.671232
v -2.807936 5.064030 -1.111596
v -2.626501 5.191146 -0.853545
v -2.918519 5.136731 -0.539523
v -2.837626 5.070114 -0.472507
v -2.870474 5.277921 -0.385697
v -2.937818 5.258822 -0.488521
v -2.748387 5.347368 -0.505746
v -2.835724 5.316896 -0.588909
v -2.715539 5.139562 -0.592556
v -2.816426 5.194804 -0.639910
v -3.059687 6.017243 -0.173450
v -2.979090 5.949793 -0.101884
v -3.019653 6.177732 -0.011273
v -2.885862 6.253905 -0.142990
v -2.845214 6.025949 -0.233524
v -2.950400 6.079410 -0.280913
v -3.731233 5.077528 -0.999579
v -3.495444 4.860769 -0.885179
v -3.047600 5.115520 -1.325543
v -3.283388 5.332279 -1.439944
v -3.420119 6.197290 -1.078589
v -3.468010 6.558635 -0.918254
v -3.915397 6.300421 -0.479426
v -3.867964 5.942539 -0.638223
v -3.575405 5.277864 -1.125922
v -3.695591 5.455198 -1.122276
v -3.662743 5.247391 -1.209085
v -3.573505 5.524645 -1.242323
v -3.473313 5.335937 -1.226309
v -3.540657 5.316839 -1.329133
v -3.712715 6.157547 -0.756404
v -3.730731 6.300203 -0.692201
v -3.835809 6.353084 -0.739851
v -3.804631 6.127162 -0.838840
v -3.621360 6.362354 -0.799584
v -3.701848 6.429220 -0.871415
v -3.603428 6.219713 -0.863867
v -3.670754 6.203316 -0.970479
vt 0.490765 0.813794
vt 0.479858 0.813794
vt 0.479858 0.798802
vt 0.490765 0.798802
vt 0.616076 0.511522
vt 0.619151 0.500416
vt 0.644876 0.500416
vt 0.647826 0.511700
vt 0.640393 0.169448
vt 0.600810 0.169448
vt 0.582271 0.814940
vt 0.571036 0.814940
vt 0.571036 0.798802
vt 0.582271 0.798802
vt 0.586269 0.830552
vt 0.586269 0.798802
vt 0.598415 0.798802
vt 0.598415 0.830552
vt 0.474138 0.589115
vt 0.476356 0.258148
vt 0.502981 0.258148
vt 0.505199 0.589115
vt 0.259064 0.707501
vt 0.256846 0.376534
vt 0.287906 0.376534
vt 0.285688 0.707501
vt 0.435681 0.813794
vt 0.435681 0.798802
vt 0.446588 0.798802
vt 0.446588 0.813794
vt 0.660312 0.169448
vt 0.699895 0.169448
vt 0.681554 0.500416
vt 0.655829 0.500416
vt 0.525283 0.814940
vt 0.525283 0.798802
vt 0.536518 0.798802
vt 0.536518 0.814940
vt 0.553558 0.606525
vt 0.588104 0.650946
vt 0.595692 0.699641
vt 0.573352 0.753896
vt 0.538028 0.783127
vt 0.489669 0.796201
vt 0.441309 0.783127
vt 0.405986 0.753896
vt 0.383645 0.699641
vt 0.391233 0.650946
vt 0.425779 0.606525
vt 0.272376 0.169448
vt 0.320735 0.182522
vt 0.356059 0.211753
vt 0.378400 0.266008
vt 0.370811 0.314703
vt 0.336265 0.359124
vt 0.208486 0.359124
vt 0.173941 0.314703
vt 0.166352 0.266008
vt 0.188693 0.211753
vt 0.224016 0.182522
vt 0.652889 0.555919
vt 0.652879 0.543671
vt 0.684630 0.543671
vt 0.684630 0.555922
vt 0.647816 0.555919
vt 0.616076 0.555922
vt 0.616076 0.543671
vt 0.647826 0.543671
vt 0.616076 0.555922
vt 0.647816 0.555919
vt 0.647826 0.511700
vt 0.684630 0.530166
vt 0.684630 0.555922
vt 0.652889 0.555919
vt 0.652879 0.530166
vt 0.647826 0.530166
vt 0.616076 0.530166
vt 0.647826 0.574545
vt 0.647826 0.583366
vt 0.616076 0.583366
vt 0.616076 0.574545
vt 0.647826 0.589115
vt 0.616076 0.589115
vt 0.475860 0.809430
vt 0.470510 0.811628
vt 0.470510 0.800967
vt 0.475860 0.803166
vt 0.342563 0.807874
vt 0.337214 0.808583
vt 0.337214 0.799927
vt 0.342563 0.800636
vt 0.461224 0.809430
vt 0.455874 0.811628
vt 0.455874 0.800967
vt 0.461224 0.803166
vt 0.327927 0.807874
vt 0.322578 0.808583
vt 0.322578 0.799927
vt 0.327927 0.800636
vt 0.566740 0.810738
vt 0.561254 0.812889
vt 0.561553 0.801247
vt 0.567038 0.803367
vt 0.402405 0.808295
vt 0.396920 0.809166
vt 0.396925 0.799675
vt 0.402411 0.800547
vt 0.551781 0.810374
vt 0.546295 0.812495
vt 0.545991 0.800852
vt 0.551477 0.803003
vt 0.387446 0.808291
vt 0.381960 0.809163
vt 0.381960 0.799672
vt 0.387446 0.800543
vt 0.317289 0.809709
vt 0.317289 0.798802
vt 0.450586 0.813794
vt 0.450586 0.798802
vt 0.331925 0.809709
vt 0.331925 0.798802
vt 0.465222 0.813794
vt 0.465222 0.798802
vt 0.376485 0.810036
vt 0.376485 0.798802
vt 0.540820 0.814940
vt 0.540516 0.798802
vt 0.391444 0.810036
vt 0.391449 0.798802
vt 0.555779 0.814940
vt 0.556077 0.798802
vt 0.251488 0.781630
vt 0.251490 0.763005
vt 0.293262 0.763005
vt 0.293263 0.781630
vt 0.264755 0.790452
vt 0.279997 0.790452
vt 0.266303 0.796201
vt 0.278449 0.796201
vt 0.482048 0.175197
vt 0.483596 0.169448
vt 0.495742 0.169448
vt 0.497289 0.175197
vt 0.468781 0.184019
vt 0.510556 0.184019
vt 0.468781 0.202641
vt 0.510556 0.202641
vt 0.475635 0.214893
vt 0.503702 0.214893
vt 0.468781 0.228398
vt 0.510556 0.228398
vt 0.469388 0.247042
vt 0.509949 0.247042
vt 0.252090 0.718786
vt 0.292662 0.718786
vt 0.251488 0.737251
vt 0.293263 0.737251
vt 0.258343 0.750756
vt 0.286409 0.750756
vt 0.706878 0.301629
vt 0.758167 0.301629
vt 0.758167 0.346050
vt 0.710901 0.346050
vt 0.700942 0.640075
vt 0.653676 0.640075
vt 0.657704 0.591716
vt 0.697287 0.591716
vt 0.704940 0.397010
vt 0.758159 0.397010
vt 0.758159 0.445370
vt 0.704940 0.445370
vt 0.704948 0.169448
vt 0.758167 0.169448
vt 0.758167 0.198679
vt 0.704948 0.198679
vt 0.758167 0.252934
vt 0.704948 0.252934
vt 0.647826 0.530166
vt 0.647816 0.555919
vt 0.616076 0.555922
vt 0.616076 0.530166
vt 0.652879 0.530166
vt 0.684630 0.530166
vt 0.652879 0.574545
vt 0.684630 0.574545
vt 0.684630 0.583366
vt 0.652879 0.583366
vt 0.684630 0.589115
vt 0.652879 0.589115
vt 0.684630 0.511522
vt 0.652879 0.511700
vt 0.421045 0.809430
vt 0.421045 0.803166
vt 0.426394 0.800967
vt 0.426394 0.811628
vt 0.302653 0.807874
vt 0.302653 0.800636
vt 0.308002 0.799927
vt 0.308002 0.808583
vt 0.406408 0.809430
vt 0.406408 0.803166
vt 0.411758 0.800967
vt 0.411758 0.811628
vt 0.288017 0.807874
vt 0.288017 0.800636
vt 0.293366 0.799927
vt 0.293366 0.808583
vt 0.510324 0.810738
vt 0.510026 0.803367
vt 0.515511 0.801247
vt 0.515810 0.812889
vt 0.361526 0.808295
vt 0.361520 0.800547
vt 0.367006 0.799675
vt 0.367011 0.809166
vt 0.494763 0.810374
vt 0.495067 0.803003
vt 0.500552 0.800852
vt 0.500248 0.812495
vt 0.346561 0.808291
vt 0.346561 0.800543
vt 0.352047 0.799672
vt 0.352047 0.809163
vt 0.298655 0.798802
vt 0.298655 0.809709
vt 0.417047 0.798802
vt 0.417047 0.813794
vt 0.313291 0.798802
vt 0.313291 0.809709
vt 0.431683 0.798802
vt 0.431683 0.813794
vt 0.357522 0.798802
vt 0.357522 0.810036
vt 0.506028 0.798802
vt 0.505724 0.814940
vt 0.372481 0.798802
vt 0.372487 0.810036
vt 0.520987 0.798802
vt 0.521285 0.814940
vt 0.813446 0.301629
vt 0.809422 0.346050
vt 0.762156 0.346050
vt 0.762156 0.301629
vt 0.649678 0.591716
vt 0.646023 0.640075
vt 0.606440 0.640075
vt 0.602412 0.591716
vt 0.704940 0.348651
vt 0.758159 0.348651
vt 0.815375 0.169448
vt 0.815375 0.198679
vt 0.762156 0.198679
vt 0.762156 0.169448
vt 0.815375 0.252934
vt 0.762156 0.252934
vt 0.647816 0.555919
vt 0.647826 0.530166
vt 0.616076 0.530166
vt 0.616076 0.555922
vt 0.616076 0.555922
vt 0.616076 0.555922
vt 0.647816 0.555919
vt 0.647826 0.530166
vt 0.616076 0.530166
vt 0.616076 0.555922
vt 0.647816 0.555919
vt 0.616076 0.530166
vt 0.647826 0.530166
vt 0.647816 0.555919
vt 0.616076 0.555922
vt 0.652889 0.555919
vt 0.684630 0.530166
vt 0.684630 0.555922
vt 0.652879 0.530166
vt 0.652889 0.555919
vt 0.684630 0.530166
vt 0.652879 0.530166
vt 0.652889 0.555919
vt 0.684630 0.555922
vt 0.652879 0.530166
vt 0.684630 0.530166
vt 0.684630 0.555922
vt 0.652889 0.555919
vt 0.684630 0.555922
vt 0.684630 0.530166
vt 0.652879 0.530166
vt 0.652889 0.555919
vt 0.684630 0.530166
vt 0.652879 0.530166
vt 0.684630 0.555922
vt 0.652889 0.555919
vn 0.7366 -0.1583 0.6576
vn 0.6697 0.0940 0.7367
vn 0.5480 0.3477 0.7608
vn 0.6700 0.0932 0.7364
vn 0.7375 -0.1644 0.6550
vn 0.7339 -0.1411 0.6644
vn 0.1443 -0.9131 -0.3814
vn 0.6677 0.3248 -0.6698
vn -0.6626 -0.3635 0.6548
vn -0.7366 0.1583 -0.6576
vn -0.7356 0.1521 -0.6601
vn -0.7390 0.1754 -0.6505
vn 0.6660 0.3389 -0.6645
vn -0.6593 -0.3846 0.6460
vn -0.7133 0.5839 -0.3876
vn 0.5724 0.3077 0.7601
vn 0.8586 -0.2466 0.4495
vn 0.7537 -0.1130 0.6475
vn 0.7312 -0.1261 0.6704
vn -0.7366 0.1584 -0.6575
vn 0.7490 -0.3694 0.5501
vn 0.7222 -0.5544 0.4137
vn 0.7613 -0.3546 0.5428
vn 0.5911 -0.6367 0.4951
vn 0.6194 -0.7619 0.1892
vn 0.6195 -0.7619 0.1891
vn 0.6871 -0.6003 0.4094
vn 0.7488 -0.3902 0.5358
vn -0.7518 -0.3518 0.5577
vn -0.7865 -0.3398 0.5158
vn -0.4135 0.9047 0.1028
vn -0.4131 0.9048 0.1034
vn 0.5583 0.3934 -0.7305
vn 0.5119 0.3988 -0.7609
vn -0.1465 -0.7843 -0.6028
vn -0.1460 -0.7847 -0.6024
vn -0.7674 -0.3509 0.5367
vn -0.7675 -0.3500 0.5370
vn -0.4004 0.9086 0.1188
vn -0.4195 0.9027 0.0959
vn 0.5376 0.3915 -0.7468
vn 0.5373 0.3924 -0.7466
vn -0.1345 -0.7923 -0.5952
vn -0.1280 -0.7965 -0.5909
vn -0.1283 -0.7963 -0.5912
vn -0.1455 -0.7850 -0.6021
vn 0.4929 0.4006 -0.7724
vn -0.4127 0.9049 0.1038
vn -0.7996 -0.3347 0.4986
vn -0.1232 -0.7996 -0.5878
vn 0.5371 0.3929 -0.7464
vn -0.4323 0.8982 0.0803
vn -0.7676 -0.3495 0.5373
vn -0.6608 -0.3755 0.6499
vn -0.6608 -0.3758 0.6497
vn -0.6608 -0.3759 0.6497
vn 0.6608 0.3759 -0.6497
vn 0.6499 0.4350 -0.6233
vn 0.5983 0.6059 -0.5243
vn -0.6686 -0.3172 0.6726
vn -0.6758 -0.1327 0.7251
vn -0.6607 -0.3762 0.6496
vn -0.6607 -0.3760 0.6497
vn -0.6607 -0.3763 0.6495
vn 0.7334 -0.5077 0.4522
vn 0.7319 -0.5148 0.4465
vn 0.5687 -0.8156 0.1065
vn 0.5715 -0.8131 0.1108
vn 0.3853 -0.9127 -0.1361
vn 0.0529 0.8401 0.5398
vn 0.2036 0.7434 0.6371
vn 0.5240 0.3888 0.7578
vn 0.5240 0.3887 0.7578
vn 0.7080 -0.0248 0.7058
vn 0.7072 -0.0216 0.7067
vn 0.7366 -0.1582 0.6576
vn 0.7365 -0.1582 0.6576
vn -0.7055 -0.0156 -0.7085
vn -0.6776 -0.0723 -0.7318
vn -0.5915 -0.2721 -0.7590
vn -0.5517 -0.3437 -0.7599
vn -0.5518 -0.3436 -0.7599
vn -0.4136 -0.5400 -0.7330
vn -0.4138 -0.5400 -0.7329
vn -0.6738 -0.0845 -0.7341
vn -0.7509 0.4208 -0.5090
vn -0.7721 0.4389 -0.4595
vn -0.7026 0.6164 -0.3556
vn -0.5583 -0.3934 0.7305
vn -0.5119 -0.3988 0.7609
vn 0.1465 0.7843 0.6028
vn 0.1460 0.7847 0.6024
vn 0.7518 0.3518 -0.5577
vn 0.7865 0.3398 -0.5158
vn 0.4135 -0.9047 -0.1028
vn 0.4131 -0.9048 -0.1034
vn -0.5363 -0.4005 0.7429
vn -0.5365 -0.3996 0.7433
vn -0.5366 -0.3993 0.7434
vn 0.1308 0.7945 0.5930
vn 0.1533 0.7796 0.6072
vn 0.7689 0.3418 -0.5403
vn 0.7689 0.3426 -0.5398
vn 0.4033 -0.9078 -0.1150
vn 0.3977 -0.9094 -0.1216
vn 0.4127 -0.9049 -0.1038
vn 0.7996 0.3347 -0.4986
vn 0.1455 0.7850 0.6021
vn -0.4929 -0.4006 0.7724
vn 0.3935 -0.9106 -0.1266
vn 0.7689 0.3431 -0.5395
vn 0.1684 0.7691 0.6165
vn -0.5366 -0.3991 0.7435
vn -0.6188 -0.2172 -0.7549
vn -0.3455 -0.6161 -0.7079
vn -0.3418 -0.6200 -0.7063
vn -0.6149 -0.2254 -0.7557
vn -0.1137 -0.8055 -0.5816
vn -0.3316 0.9227 0.1966
vn -0.4612 0.8862 0.0436
vn -0.4612 0.8862 0.0437
vn -0.6881 0.6492 -0.3242
vn -0.7498 0.2914 -0.5940
vn -0.7497 0.2884 -0.5956
vn 0.7314 -0.1345 0.6685
vn 0.7286 -0.1278 0.6729
vn 0.7518 -0.1284 0.6468
vn 0.7335 -0.1332 0.6665
vn 0.7335 -0.1248 0.6681
vn 0.8852 0.0003 0.4651
vn -0.7366 0.1583 -0.6575
vn -0.7367 0.1583 -0.6575
vn -0.7422 0.1895 -0.6428
vn -0.7412 0.1819 -0.6461
vn -0.7391 0.1832 -0.6482
vn -0.7401 0.1908 -0.6448
usemtl initialShadingGroup.001
s off
f 1/1/1 2/2/1 3/3/1 4/4/1
f 5/5/2 6/6/3 7/7/3 8/8/4
f 9/9/5 7/7/5 6/6/5 10/10/5
f 11/11/6 12/12/6 13/13/6 14/14/6
f 15/15/7 16/16/7 17/17/7 18/18/7
f 10/19/8 6/20/8 19/21/8 20/22/8
f 7/23/9 9/24/9 21/25/9 22/26/9
f 23/27/10 24/28/10 25/29/10 26/30/10
f 21/31/11 20/32/11 19/33/11 22/34/11
f 27/35/12 28/36/12 29/37/12 30/38/12
f 10/19/13 20/22/13 31/39/13 32/40/13 33/41/13 34/42/13 35/43/13 36/44/13 37/45/13 38/46/13 39/47/13 40/48/13 41/49/13
f 42/50/14 43/51/14 44/52/14 45/53/14 46/54/14 47/55/14 21/25/14 9/24/14 48/56/14 49/57/14 50/58/14 51/59/14 52/60/14
f 53/61/15 54/62/15 55/63/15 56/64/15
f 57/65/16 58/66/16 59/67/16 60/68/16
f 5/5/17 8/69/18 61/70/19 62/71/19
f 56/72/20 63/73/20 64/74/20 53/75/20
s 1
f 65/76/21 60/68/22 59/67/22 66/77/23
f 67/78/24 68/79/25 69/80/26 70/81/27
f 68/79/25 16/82/28 15/83/28 69/80/26
f 71/84/29 72/85/30 73/86/30 74/87/29
f 74/88/31 73/89/32 75/90/32 76/91/31
f 76/92/33 75/93/34 77/94/34 78/95/33
f 78/96/35 77/97/36 72/98/36 71/99/35
f 79/100/37 80/101/38 81/102/38 61/103/37
f 61/104/39 81/105/40 82/106/40 62/107/39
f 62/108/41 82/109/42 83/110/42 84/111/41
f 84/112/43 83/113/44 80/114/45 79/115/43
f 77/97/36 2/116/46 1/117/46 72/98/36
f 75/93/34 3/118/47 2/119/47 77/94/34
f 73/89/32 4/120/48 3/121/48 75/90/32
f 72/85/30 1/122/49 4/123/49 73/86/30
f 83/113/44 12/124/50 11/125/50 80/114/45
f 82/109/42 13/126/51 12/127/51 83/110/42
f 81/105/40 14/128/52 13/129/52 82/106/40
f 80/101/38 11/130/53 14/131/53 81/102/38
f 67/132/54 57/133/55 53/134/55 85/135/54
f 68/136/56 67/132/54 85/135/54 86/137/56
f 16/138/56 68/136/56 86/137/56 17/139/56
f 69/140/57 15/141/57 18/142/57 87/143/57
f 70/144/57 69/140/57 87/143/57 88/145/57
f 58/146/57 70/144/57 88/145/57 56/147/57
f 59/148/57 58/146/57 56/147/57 55/149/57
f 66/150/57 59/148/57 55/149/57 89/151/57
f 5/152/58 66/150/57 89/151/57 90/153/58
f 6/20/59 5/152/58 90/153/58 19/21/59
f 8/154/60 7/23/61 22/26/61 91/155/60
f 65/156/56 8/154/60 91/155/60 92/157/56
f 60/158/62 65/156/56 92/157/56 54/159/62
f 57/133/63 60/158/64 54/159/64 53/134/63
f 40/160/65 49/161/66 48/162/67 41/163/68
f 41/164/68 48/165/67 9/166/69 10/167/69
f 36/168/70 42/169/70 52/170/71 37/171/71
f 37/172/71 52/173/71 51/174/72 38/175/73
f 38/175/73 51/174/72 50/176/74 39/177/75
f 39/177/75 50/176/74 49/161/66 40/160/65
f 67/178/24 71/179/76 74/180/77 57/181/77
f 92/182/78 89/183/79 55/63/80 54/62/80
f 85/184/81 88/185/82 87/186/83 86/187/84
f 86/187/84 87/186/83 18/188/85 17/189/85
f 90/190/86 91/191/87 22/34/88 19/33/88
f 93/192/89 64/193/89 94/194/90 95/195/90
f 64/196/91 63/197/91 96/198/92 94/199/92
f 63/200/93 97/201/93 98/202/94 96/203/94
f 97/204/95 93/205/95 95/206/96 98/207/96
f 99/208/97 100/209/97 101/210/98 102/211/99
f 100/212/100 103/213/100 104/214/101 101/215/101
f 103/216/102 105/217/102 106/218/103 104/219/103
f 105/220/104 99/221/104 102/222/105 106/223/105
f 98/207/96 95/206/96 23/224/106 26/225/106
f 96/203/94 98/202/94 26/226/107 25/227/107
f 94/199/92 96/198/92 25/228/108 24/229/108
f 95/195/90 94/194/90 24/230/109 23/231/109
f 106/223/105 102/222/105 27/232/110 30/233/110
f 104/219/103 106/218/103 30/234/111 29/235/111
f 101/215/101 104/214/101 29/236/112 28/237/112
f 102/211/99 101/210/98 28/238/113 27/239/113
f 32/240/114 31/241/115 47/242/116 46/243/117
f 31/244/115 20/245/118 21/246/118 47/247/116
f 36/168/119 35/248/120 43/249/121 42/169/119
f 35/250/120 34/251/122 44/252/122 43/253/121
f 34/251/122 33/254/123 45/255/124 44/252/122
f 33/254/123 32/240/114 46/243/117 45/255/124
f 79/256/125 61/257/126 8/258/127 65/259/21
f 84/260/128 79/256/125 65/76/21 66/77/23
f 62/261/129 84/262/128 66/263/23 5/264/130
f 67/78/24 70/81/27 78/265/1 71/179/76
f 76/266/76 78/265/1 70/267/27 58/268/76
f 57/65/77 74/269/77 76/270/76 58/66/76
f 85/271/131 53/75/132 64/272/132 93/273/131
f 56/72/10 88/274/10 97/275/10 63/73/10
f 88/276/10 85/277/131 93/278/131 97/279/10
f 91/280/87 100/281/133 99/282/134 92/283/78
f 89/284/79 92/285/78 99/286/134 105/287/135
f 90/288/86 89/289/79 105/287/135 103/290/136
f 91/280/87 90/291/86 103/290/136 100/281/133
