# Blender v2.79 (sub 6) OBJ File: 'bailarina.blend1'
# www.blender.org
mtllib Guitarra1_000011.mtl
o g1_pCube6
v 2.606798 9.689555 -2.621634
v 2.495179 9.884588 -2.560675
v 2.627103 10.037663 -2.808855
v 2.738724 9.842629 -2.869814
v 3.120615 10.769700 -3.392646
v 3.365063 10.867338 -3.508209
v 3.628323 10.407343 -3.651982
v 3.443867 10.200109 -3.567207
v 6.458110 13.854200 -9.132896
v 6.053030 14.561992 -8.911673
v 3.001395 10.152665 -3.373814
v 2.886425 10.353552 -3.311026
v 3.033460 10.520037 -3.574451
v 3.148339 10.319119 -3.637305
v 2.672804 10.057481 -1.933922
v 2.997726 9.489747 -2.111370
v 3.198613 9.558153 -1.962394
v 2.873691 10.125886 -1.784945
v 3.805403 11.017283 -3.181653
v 6.566748 14.736925 -8.530700
v 6.971827 14.029133 -8.751924
v 4.068664 10.557288 -3.325426
v 3.649619 10.044660 -1.848279
v 3.781545 10.197733 -2.096459
v 3.669924 10.392766 -2.035500
v 3.537999 10.239692 -1.787320
v 4.050843 10.510026 -2.595544
v 4.187917 10.673119 -2.866355
v 4.072857 10.873976 -2.803634
v 3.935873 10.710913 -2.532756
v 7.482362 15.252397 -8.205324
v 8.403422 15.972432 -8.494452
v 8.937681 16.546858 -9.196682
v 9.045598 16.974979 -10.368823
v 8.718592 17.074486 -11.285956
v 8.033813 16.935612 -12.095531
v 7.118941 16.529768 -12.472256
v 6.277506 16.032383 -12.421638
v 5.430593 15.352614 -11.797533
v 5.147354 14.863667 -10.909147
v 5.369001 14.532749 -9.772590
v 8.578436 15.983995 -12.392965
v 9.263216 16.122868 -11.583389
v 9.590223 16.023363 -10.666256
v 9.482304 15.595243 -9.494115
v 8.928299 15.055319 -8.781099
v 7.966066 14.407226 -8.469488
v 5.852705 13.687578 -10.036753
v 5.672229 13.946553 -11.195797
v 5.975216 14.400999 -12.094967
v 6.822129 15.080765 -12.719070
v 7.663563 15.578151 -12.769690
v 3.735610 9.980692 -2.330170
v 3.730157 10.066974 -2.617042
v 3.405235 10.634709 -2.439594
v 3.410793 10.548222 -2.152706
v 3.044740 9.745435 -2.842519
v 2.719865 10.312944 -2.665098
v 2.941044 10.476641 -2.783838
v 3.265966 9.908907 -2.961285
v 3.271632 10.365370 -3.417547
v 3.192434 10.503942 -3.374180
v 3.474349 10.255487 -2.103991
v 3.548420 10.126065 -2.144443
v 3.271432 10.008187 -3.268915
v 2.946510 10.575921 -3.091467
v 2.880917 9.555074 -2.534271
v 3.022717 9.539724 -2.225523
v 2.697795 10.107460 -2.048074
v 2.555994 10.122807 -2.356822
v 2.802373 9.826833 -2.553144
v 2.701803 9.761583 -2.586319
v 2.795619 9.870437 -2.762807
v 2.857492 9.890788 -2.656835
v 2.707042 10.025205 -2.714432
v 2.783422 10.020211 -2.616382
v 2.613226 9.916352 -2.537944
v 2.728302 9.956255 -2.512691
v 3.201840 10.288433 -3.299196
v 3.101099 10.220000 -3.335736
v 3.208483 10.340551 -3.524806
v 3.111443 10.510299 -3.471694
v 3.003969 10.389717 -3.282692
v 3.122549 10.426976 -3.255892
v 3.571845 9.790350 -2.021879
v 3.274801 9.625565 -2.038577
v 2.949879 10.193299 -1.861129
v 3.246923 10.358084 -1.844430
v 3.637438 10.811198 -2.579075
v 3.791451 10.998134 -2.895155
v 4.114897 10.428610 -3.069573
v 3.962361 10.243464 -2.756524
v 3.493301 10.062110 -2.040752
v 3.663496 10.165969 -2.119189
v 3.569680 10.057115 -1.942702
v 3.574920 10.320738 -2.070815
v 3.419230 10.191531 -2.000300
v 3.481104 10.211885 -1.894327
v 3.888709 10.522327 -2.789814
v 3.948631 10.595902 -2.915486
v 4.066935 10.632874 -2.888180
v 3.969421 10.515684 -2.691790
v 3.869252 10.734415 -2.872252
v 3.969715 10.802560 -2.835200
v 3.809419 10.660871 -2.746511
v 3.872291 10.685400 -2.638745
vt 0.490765 0.813794
vt 0.479858 0.813794
vt 0.479858 0.798802
vt 0.490765 0.798802
vt 0.616076 0.511522
vt 0.619151 0.500416
vt 0.644876 0.500416
vt 0.647826 0.511700
vt 0.640393 0.169448
vt 0.600810 0.169448
vt 0.582271 0.814940
vt 0.571036 0.814940
vt 0.571036 0.798802
vt 0.582271 0.798802
vt 0.586269 0.830552
vt 0.586269 0.798802
vt 0.598415 0.798802
vt 0.598415 0.830552
vt 0.474138 0.589115
vt 0.476356 0.258148
vt 0.502981 0.258148
vt 0.505199 0.589115
vt 0.259064 0.707501
vt 0.256846 0.376534
vt 0.287906 0.376534
vt 0.285688 0.707501
vt 0.435681 0.813794
vt 0.435681 0.798802
vt 0.446588 0.798802
vt 0.446588 0.813794
vt 0.660312 0.169448
vt 0.699895 0.169448
vt 0.681554 0.500416
vt 0.655829 0.500416
vt 0.525283 0.814940
vt 0.525283 0.798802
vt 0.536518 0.798802
vt 0.536518 0.814940
vt 0.553558 0.606525
vt 0.588104 0.650946
vt 0.595692 0.699641
vt 0.573352 0.753896
vt 0.538028 0.783127
vt 0.489669 0.796201
vt 0.441309 0.783127
vt 0.405986 0.753896
vt 0.383645 0.699641
vt 0.391233 0.650946
vt 0.425779 0.606525
vt 0.272376 0.169448
vt 0.320735 0.182522
vt 0.356059 0.211753
vt 0.378400 0.266008
vt 0.370811 0.314703
vt 0.336265 0.359124
vt 0.208486 0.359124
vt 0.173941 0.314703
vt 0.166352 0.266008
vt 0.188693 0.211753
vt 0.224016 0.182522
vt 0.652889 0.555919
vt 0.652879 0.543671
vt 0.684630 0.543671
vt 0.684630 0.555922
vt 0.647816 0.555919
vt 0.616076 0.555922
vt 0.616076 0.543671
vt 0.647826 0.543671
vt 0.616076 0.555922
vt 0.647816 0.555919
vt 0.647826 0.511700
vt 0.684630 0.530166
vt 0.684630 0.555922
vt 0.652889 0.555919
vt 0.652879 0.530166
vt 0.647826 0.530166
vt 0.616076 0.530166
vt 0.647826 0.574545
vt 0.647826 0.583366
vt 0.616076 0.583366
vt 0.616076 0.574545
vt 0.647826 0.589115
vt 0.616076 0.589115
vt 0.475860 0.809430
vt 0.470510 0.811628
vt 0.470510 0.800967
vt 0.475860 0.803166
vt 0.342563 0.807874
vt 0.337214 0.808583
vt 0.337214 0.799927
vt 0.342563 0.800636
vt 0.461224 0.809430
vt 0.455874 0.811628
vt 0.455874 0.800967
vt 0.461224 0.803166
vt 0.327927 0.807874
vt 0.322578 0.808583
vt 0.322578 0.799927
vt 0.327927 0.800636
vt 0.566740 0.810738
vt 0.561254 0.812889
vt 0.561553 0.801247
vt 0.567038 0.803367
vt 0.402405 0.808295
vt 0.396920 0.809166
vt 0.396925 0.799675
vt 0.402411 0.800547
vt 0.551781 0.810374
vt 0.546295 0.812495
vt 0.545991 0.800852
vt 0.551477 0.803003
vt 0.387446 0.808291
vt 0.381960 0.809163
vt 0.381960 0.799672
vt 0.387446 0.800543
vt 0.317289 0.809709
vt 0.317289 0.798802
vt 0.450586 0.813794
vt 0.450586 0.798802
vt 0.331925 0.809709
vt 0.331925 0.798802
vt 0.465222 0.813794
vt 0.465222 0.798802
vt 0.376485 0.810036
vt 0.376485 0.798802
vt 0.540820 0.814940
vt 0.540516 0.798802
vt 0.391444 0.810036
vt 0.391449 0.798802
vt 0.555779 0.814940
vt 0.556077 0.798802
vt 0.251488 0.781630
vt 0.251490 0.763005
vt 0.293262 0.763005
vt 0.293263 0.781630
vt 0.264755 0.790452
vt 0.279997 0.790452
vt 0.266303 0.796201
vt 0.278449 0.796201
vt 0.482048 0.175197
vt 0.483596 0.169448
vt 0.495742 0.169448
vt 0.497289 0.175197
vt 0.468781 0.184019
vt 0.510556 0.184019
vt 0.468781 0.202641
vt 0.510556 0.202641
vt 0.475635 0.214893
vt 0.503702 0.214893
vt 0.468781 0.228398
vt 0.510556 0.228398
vt 0.469388 0.247042
vt 0.509949 0.247042
vt 0.252090 0.718786
vt 0.292662 0.718786
vt 0.251488 0.737251
vt 0.293263 0.737251
vt 0.258343 0.750756
vt 0.286409 0.750756
vt 0.706878 0.301629
vt 0.758167 0.301629
vt 0.758167 0.346050
vt 0.710901 0.346050
vt 0.700942 0.640075
vt 0.653676 0.640075
vt 0.657704 0.591716
vt 0.697287 0.591716
vt 0.704940 0.397010
vt 0.758159 0.397010
vt 0.758159 0.445370
vt 0.704940 0.445370
vt 0.704948 0.169448
vt 0.758167 0.169448
vt 0.758167 0.198679
vt 0.704948 0.198679
vt 0.758167 0.252934
vt 0.704948 0.252934
vt 0.647826 0.530166
vt 0.647816 0.555919
vt 0.616076 0.555922
vt 0.616076 0.530166
vt 0.652879 0.530166
vt 0.684630 0.530166
vt 0.652879 0.574545
vt 0.684630 0.574545
vt 0.684630 0.583366
vt 0.652879 0.583366
vt 0.684630 0.589115
vt 0.652879 0.589115
vt 0.684630 0.511522
vt 0.652879 0.511700
vt 0.421045 0.809430
vt 0.421045 0.803166
vt 0.426394 0.800967
vt 0.426394 0.811628
vt 0.302653 0.807874
vt 0.302653 0.800636
vt 0.308002 0.799927
vt 0.308002 0.808583
vt 0.406408 0.809430
vt 0.406408 0.803166
vt 0.411758 0.800967
vt 0.411758 0.811628
vt 0.288017 0.807874
vt 0.288017 0.800636
vt 0.293366 0.799927
vt 0.293366 0.808583
vt 0.510324 0.810738
vt 0.510026 0.803367
vt 0.515511 0.801247
vt 0.515810 0.812889
vt 0.361526 0.808295
vt 0.361520 0.800547
vt 0.367006 0.799675
vt 0.367011 0.809166
vt 0.494763 0.810374
vt 0.495067 0.803003
vt 0.500552 0.800852
vt 0.500248 0.812495
vt 0.346561 0.808291
vt 0.346561 0.800543
vt 0.352047 0.799672
vt 0.352047 0.809163
vt 0.298655 0.798802
vt 0.298655 0.809709
vt 0.417047 0.798802
vt 0.417047 0.813794
vt 0.313291 0.798802
vt 0.313291 0.809709
vt 0.431683 0.798802
vt 0.431683 0.813794
vt 0.357522 0.798802
vt 0.357522 0.810036
vt 0.506028 0.798802
vt 0.505724 0.814940
vt 0.372481 0.798802
vt 0.372487 0.810036
vt 0.520987 0.798802
vt 0.521285 0.814940
vt 0.813446 0.301629
vt 0.809422 0.346050
vt 0.762156 0.346050
vt 0.762156 0.301629
vt 0.649678 0.591716
vt 0.646023 0.640075
vt 0.606440 0.640075
vt 0.602412 0.591716
vt 0.704940 0.348651
vt 0.758159 0.348651
vt 0.815375 0.169448
vt 0.815375 0.198679
vt 0.762156 0.198679
vt 0.762156 0.169448
vt 0.815375 0.252934
vt 0.762156 0.252934
vt 0.647816 0.555919
vt 0.647826 0.530166
vt 0.616076 0.530166
vt 0.616076 0.555922
vt 0.616076 0.555922
vt 0.616076 0.555922
vt 0.647816 0.555919
vt 0.647826 0.530166
vt 0.616076 0.530166
vt 0.616076 0.555922
vt 0.647816 0.555919
vt 0.616076 0.530166
vt 0.647826 0.530166
vt 0.647816 0.555919
vt 0.616076 0.555922
vt 0.652889 0.555919
vt 0.684630 0.530166
vt 0.684630 0.555922
vt 0.652879 0.530166
vt 0.652889 0.555919
vt 0.684630 0.530166
vt 0.652879 0.530166
vt 0.652889 0.555919
vt 0.684630 0.555922
vt 0.652879 0.530166
vt 0.684630 0.530166
vt 0.684630 0.555922
vt 0.652889 0.555919
vt 0.684630 0.555922
vt 0.684630 0.530166
vt 0.652879 0.530166
vt 0.652889 0.555919
vt 0.684630 0.530166
vt 0.652879 0.530166
vt 0.684630 0.555922
vt 0.652889 0.555919
vn -0.7748 -0.2638 -0.5746
vn -0.6342 -0.1255 -0.7629
vn -0.4391 0.0276 -0.8980
vn -0.6348 -0.1258 -0.7624
vn -0.7775 -0.2670 -0.5694
vn -0.7671 -0.2547 -0.5889
vn -0.4122 -0.4783 0.7755
vn -0.5015 0.8099 0.3043
vn 0.4849 -0.8311 -0.2723
vn 0.7748 0.2638 0.5746
vn 0.7720 0.2606 0.5798
vn 0.7822 0.2729 0.5601
vn -0.4955 0.8178 0.2927
vn 0.4754 -0.8422 -0.2544
vn 0.8774 0.4638 0.1228
vn -0.4749 0.0033 -0.8800
vn -0.9100 -0.1872 -0.3700
vn -0.7761 -0.2175 -0.5919
vn -0.7599 -0.2468 -0.6014
vn 0.7748 0.2638 0.5745
vn -0.8494 -0.3702 -0.3761
vn -0.8774 -0.4517 -0.1614
vn -0.8561 -0.3510 -0.3793
vn -0.7830 -0.5986 -0.1692
vn -0.8372 -0.5260 0.1499
vn -0.8372 -0.5259 0.1500
vn -0.8587 -0.4960 -0.1291
vn -0.8553 -0.3791 -0.3532
vn 0.5770 -0.7957 -0.1841
vn 0.6154 -0.7738 -0.1501
vn 0.6758 0.5427 -0.4988
vn 0.6754 0.5426 -0.4994
vn -0.3735 0.8650 0.3350
vn -0.3266 0.8721 0.3643
vn -0.0867 -0.3421 0.9357
vn -0.0874 -0.3424 0.9355
vn 0.5929 -0.7882 -0.1646
vn 0.5933 -0.7878 -0.1654
vn 0.6640 0.5410 -0.5162
vn 0.6811 0.5430 -0.4911
vn -0.3538 0.8663 0.3527
vn -0.3533 0.8668 0.3520
vn -0.1009 -0.3490 0.9317
vn -0.1087 -0.3527 0.9294
vn -0.1082 -0.3525 0.9295
vn -0.0879 -0.3427 0.9353
vn -0.3076 0.8742 0.3757
vn 0.6750 0.5426 -0.4999
vn 0.6302 -0.7643 -0.1364
vn -0.1143 -0.3554 0.9277
vn -0.3529 0.8671 0.3516
vn 0.6924 0.5441 -0.4738
vn 0.5936 -0.7875 -0.1659
vn 0.4796 -0.8374 -0.2621
vn 0.4794 -0.8376 -0.2619
vn 0.4794 -0.8376 -0.2618
vn 0.4794 -0.8377 -0.2618
vn -0.4794 0.8376 0.2618
vn -0.4513 0.8672 0.2104
vn -0.3520 0.9349 0.0453
vn 0.5046 -0.8056 -0.3104
vn 0.5681 -0.6895 -0.4494
vn 0.5046 -0.8056 -0.3105
vn 0.4793 -0.8378 -0.2616
vn 0.4793 -0.8377 -0.2617
vn 0.4792 -0.8379 -0.2614
vn -0.8747 -0.4320 -0.2196
vn -0.8754 -0.4350 -0.2109
vn -0.8029 -0.5390 0.2545
vn -0.8049 -0.5385 0.2493
vn -0.6503 -0.5394 0.5350
vn 0.1957 0.3929 -0.8985
vn 0.0182 0.3078 -0.9513
vn 0.0183 0.3078 -0.9513
vn -0.4032 0.0548 -0.9135
vn -0.4031 0.0547 -0.9135
vn -0.7071 -0.1921 -0.6805
vn -0.7054 -0.1903 -0.6828
vn -0.7747 -0.2638 -0.5746
vn 0.6920 0.1622 0.7035
vn 0.6484 0.1378 0.7487
vn 0.5043 0.0188 0.8633
vn 0.4439 -0.0260 0.8957
vn 0.4440 -0.0259 0.8957
vn 0.2494 -0.1560 0.9558
vn 0.2495 -0.1561 0.9557
vn 0.6410 0.1304 0.7564
vn 0.8659 0.3885 0.3150
vn 0.8898 0.3701 0.2668
vn 0.8763 0.4755 0.0774
vn 0.3735 -0.8650 -0.3350
vn 0.3266 -0.8721 -0.3643
vn 0.0867 0.3421 -0.9357
vn 0.0874 0.3424 -0.9355
vn -0.5770 0.7957 0.1841
vn -0.6154 0.7738 0.1502
vn -0.6758 -0.5427 0.4988
vn -0.6754 -0.5426 0.4994
vn 0.3499 -0.8710 -0.3449
vn 0.3503 -0.8705 -0.3456
vn 0.3505 -0.8704 -0.3459
vn 0.1052 0.3508 -0.9305
vn 0.0787 0.3379 -0.9379
vn -0.5972 0.7834 0.1722
vn -0.5969 0.7838 0.1713
vn -0.5969 0.7838 0.1714
vn -0.6666 -0.5416 0.5122
vn -0.6616 -0.5409 0.5193
vn -0.6750 -0.5426 0.4999
vn -0.6302 0.7643 0.1364
vn 0.0879 0.3427 -0.9353
vn 0.3076 -0.8742 -0.3757
vn -0.6578 -0.5404 0.5247
vn -0.5967 0.7840 0.1708
vn 0.0606 0.3290 -0.9424
vn 0.3506 -0.8703 -0.3461
vn 0.5475 0.0523 0.8352
vn 0.1596 -0.2101 0.9646
vn 0.1548 -0.2129 0.9647
vn 0.5412 0.0473 0.8395
vn -0.1254 -0.3606 0.9242
vn 0.6001 0.5306 -0.5986
vn 0.7174 0.5459 -0.4327
vn 0.7175 0.5459 -0.4328
vn 0.8717 0.4889 0.0320
vn 0.8718 0.4889 0.0320
vn 0.8271 0.3316 0.4537
vn 0.8262 0.3301 0.4566
vn -0.7628 -0.2524 -0.5954
vn -0.7581 -0.2502 -0.6022
vn -0.7792 -0.2300 -0.5831
vn -0.7642 -0.2496 -0.5947
vn -0.7616 -0.2439 -0.6004
vn -0.8571 0.0081 -0.5151
vn -0.7747 -0.2638 -0.5747
vn 0.7894 0.2791 0.5467
vn 0.7862 0.2751 0.5533
vn 0.7847 0.2778 0.5541
vn 0.7880 0.2818 0.5475
usemtl initialShadingGroup.001
s off
f 1/1/1 2/2/1 3/3/1 4/4/1
f 5/5/2 6/6/3 7/7/3 8/8/4
f 9/9/5 7/7/5 6/6/5 10/10/5
f 11/11/6 12/12/6 13/13/6 14/14/6
f 15/15/7 16/16/7 17/17/7 18/18/7
f 10/19/8 6/20/8 19/21/8 20/22/8
f 7/23/9 9/24/9 21/25/9 22/26/9
f 23/27/10 24/28/10 25/29/10 26/30/10
f 21/31/11 20/32/11 19/33/11 22/34/11
f 27/35/12 28/36/12 29/37/12 30/38/12
f 10/19/13 20/22/13 31/39/13 32/40/13 33/41/13 34/42/13 35/43/13 36/44/13 37/45/13 38/46/13 39/47/13 40/48/13 41/49/13
f 42/50/14 43/51/14 44/52/14 45/53/14 46/54/14 47/55/14 21/25/14 9/24/14 48/56/14 49/57/14 50/58/14 51/59/14 52/60/14
f 53/61/15 54/62/15 55/63/15 56/64/15
f 57/65/16 58/66/16 59/67/16 60/68/16
f 5/5/17 8/69/18 61/70/19 62/71/19
f 56/72/20 63/73/20 64/74/20 53/75/20
s 1
f 65/76/21 60/68/22 59/67/22 66/77/23
f 67/78/24 68/79/25 69/80/26 70/81/27
f 68/79/25 16/82/28 15/83/28 69/80/26
f 71/84/29 72/85/30 73/86/30 74/87/29
f 74/88/31 73/89/32 75/90/32 76/91/31
f 76/92/33 75/93/34 77/94/34 78/95/33
f 78/96/35 77/97/36 72/98/36 71/99/35
f 79/100/37 80/101/38 81/102/38 61/103/37
f 61/104/39 81/105/40 82/106/40 62/107/39
f 62/108/41 82/109/42 83/110/42 84/111/41
f 84/112/43 83/113/44 80/114/45 79/115/43
f 77/97/36 2/116/46 1/117/46 72/98/36
f 75/93/34 3/118/47 2/119/47 77/94/34
f 73/89/32 4/120/48 3/121/48 75/90/32
f 72/85/30 1/122/49 4/123/49 73/86/30
f 83/113/44 12/124/50 11/125/50 80/114/45
f 82/109/42 13/126/51 12/127/51 83/110/42
f 81/105/40 14/128/52 13/129/52 82/106/40
f 80/101/38 11/130/53 14/131/53 81/102/38
f 67/132/54 57/133/55 53/134/55 85/135/54
f 68/136/56 67/132/54 85/135/54 86/137/56
f 16/138/57 68/136/56 86/137/56 17/139/57
f 69/140/58 15/141/58 18/142/58 87/143/58
f 70/144/58 69/140/58 87/143/58 88/145/58
f 58/146/58 70/144/58 88/145/58 56/147/58
f 59/148/58 58/146/58 56/147/58 55/149/58
f 66/150/58 59/148/58 55/149/58 89/151/58
f 5/152/59 66/150/58 89/151/58 90/153/59
f 6/20/60 5/152/59 90/153/59 19/21/60
f 8/154/61 7/23/62 22/26/62 91/155/63
f 65/156/56 8/154/61 91/155/63 92/157/56
f 60/158/64 65/156/56 92/157/56 54/159/64
f 57/133/65 60/158/66 54/159/66 53/134/65
f 40/160/67 49/161/68 48/162/69 41/163/70
f 41/164/70 48/165/69 9/166/71 10/167/71
f 36/168/72 42/169/72 52/170/73 37/171/74
f 37/172/74 52/173/73 51/174/75 38/175/76
f 38/175/76 51/174/75 50/176/77 39/177/78
f 39/177/78 50/176/77 49/161/68 40/160/67
f 67/178/24 71/179/79 74/180/79 57/181/79
f 92/182/80 89/183/81 55/63/82 54/62/82
f 85/184/83 88/185/84 87/186/85 86/187/86
f 86/187/86 87/186/85 18/188/87 17/189/87
f 90/190/88 91/191/89 22/34/90 19/33/90
f 93/192/91 64/193/91 94/194/92 95/195/92
f 64/196/93 63/197/93 96/198/94 94/199/94
f 63/200/95 97/201/95 98/202/96 96/203/96
f 97/204/97 93/205/97 95/206/98 98/207/98
f 99/208/99 100/209/99 101/210/100 102/211/101
f 100/212/102 103/213/102 104/214/103 101/215/103
f 103/216/104 105/217/104 106/218/105 104/219/106
f 105/220/107 99/221/107 102/222/108 106/223/108
f 98/207/98 95/206/98 23/224/109 26/225/109
f 96/203/96 98/202/96 26/226/110 25/227/110
f 94/199/94 96/198/94 25/228/111 24/229/111
f 95/195/92 94/194/92 24/230/112 23/231/112
f 106/223/108 102/222/108 27/232/113 30/233/113
f 104/219/106 106/218/105 30/234/114 29/235/114
f 101/215/103 104/214/103 29/236/115 28/237/115
f 102/211/101 101/210/100 28/238/116 27/239/116
f 32/240/117 31/241/118 47/242/119 46/243/120
f 31/244/118 20/245/121 21/246/121 47/247/119
f 36/168/122 35/248/123 43/249/124 42/169/122
f 35/250/123 34/251/125 44/252/126 43/253/124
f 34/251/125 33/254/127 45/255/128 44/252/126
f 33/254/127 32/240/117 46/243/120 45/255/128
f 79/256/129 61/257/130 8/258/131 65/259/21
f 84/260/132 79/256/129 65/76/21 66/77/23
f 62/261/133 84/262/132 66/263/23 5/264/134
f 67/78/24 70/81/27 78/265/1 71/179/79
f 76/266/79 78/265/1 70/267/27 58/268/79
f 57/65/135 74/269/135 76/270/79 58/66/79
f 85/271/20 53/75/20 64/272/20 93/273/20
f 56/72/10 88/274/10 97/275/10 63/73/10
f 88/276/10 85/277/20 93/278/20 97/279/10
f 91/280/89 100/281/136 99/282/137 92/283/80
f 89/284/81 92/285/80 99/286/137 105/287/138
f 90/288/88 89/289/81 105/287/138 103/290/139
f 91/280/89 90/291/88 103/290/139 100/281/136
