# Blender v2.79 (sub 6) OBJ File: 'bailarinaacortados.blend1'
# www.blender.org
mtllib guitarra1_000196.mtl
o g1_pCube6
v 3.077053 6.729315 -1.683792
v 3.183691 6.836724 -1.860724
v 3.398630 6.600016 -1.874877
v 3.291991 6.492606 -1.697945
v 4.316706 6.076647 -1.933716
v 4.532488 5.943916 -1.797838
v 4.280978 5.690590 -1.380538
v 4.003654 5.766747 -1.418588
v 9.042103 0.486009 -1.796397
v 9.429101 0.875803 -2.438498
v 3.725110 6.012537 -1.730734
v 3.834949 6.123169 -1.912975
v 4.070093 5.871543 -1.924004
v 3.960186 5.760856 -1.741838
v 3.380935 7.450377 -1.663778
v 3.070518 7.137714 -1.148736
v 3.221532 7.264785 -0.980580
v 3.531949 7.577446 -1.495621
v 4.863511 6.222453 -1.429241
v 9.815285 1.200753 -2.008478
v 9.428286 0.810960 -1.366378
v 4.612001 5.969127 -1.011940
v 3.860984 7.388950 -0.810874
v 4.075922 7.152241 -0.825026
v 4.182560 7.259650 -1.001959
v 3.967623 7.496358 -0.987806
v 4.514023 6.676364 -0.852268
v 4.741679 6.418440 -0.871635
v 4.851450 6.529014 -1.053952
v 4.623861 6.786996 -1.034510
v 10.701874 1.467795 -1.414696
v 11.807549 1.167484 -1.043626
v 12.618883 0.497044 -1.015834
v 13.118933 -0.593291 -1.376347
v 13.098810 -1.424350 -1.892977
v 12.684986 -2.136700 -2.574832
v 11.896286 -2.436205 -3.232004
v 11.038044 -2.344244 -3.693446
v 9.982460 -1.721359 -3.951526
v 9.359828 -0.892137 -3.769197
v 9.113173 0.130992 -3.183734
v 12.164671 -2.660771 -1.711538
v 12.578497 -1.948421 -1.029682
v 12.598621 -1.117362 -0.513053
v 12.098570 -0.027029 -0.152539
v 11.306101 0.662413 -0.211632
v 10.239761 1.002344 -0.647966
v 8.651062 -0.334457 -2.417006
v 8.858379 -1.397207 -2.937202
v 9.462146 -2.245431 -3.088231
v 10.517733 -2.868315 -2.830150
v 11.375973 -2.960278 -2.368710
v 3.881712 6.895735 -0.807004
v 3.972012 6.630554 -0.913277
v 4.282432 6.943213 -1.428318
v 4.192009 7.208364 -1.321855
v 3.362357 6.458726 -1.385314
v 3.672610 6.771318 -1.900213
v 3.933481 6.649590 -1.816880
v 3.623062 6.336930 -1.301840
v 4.048034 5.964766 -1.614019
v 4.123853 6.041119 -1.739629
v 3.969789 7.199194 -1.115360
v 3.899025 7.127918 -0.997948
v 3.731447 6.051995 -1.409485
v 4.041865 6.364656 -1.924526
v 3.095208 6.752683 -1.367592
v 3.133692 7.030753 -1.175591
v 3.444112 7.343414 -1.690633
v 3.405626 7.065344 -1.882632
v 3.289824 6.789772 -1.570393
v 3.184862 6.761542 -1.630880
v 3.337710 6.593214 -1.640945
v 3.379626 6.690873 -1.576305
v 3.422331 6.678448 -1.781349
v 3.450390 6.762149 -1.693717
v 3.269486 6.846778 -1.771285
v 3.360589 6.861047 -1.687804
v 3.938654 6.078015 -1.611192
v 3.831095 6.046013 -1.670976
v 4.001719 5.865314 -1.677835
v 4.094582 5.958835 -1.831723
v 3.923892 6.139477 -1.824940
v 4.014405 6.154315 -1.736876
v 3.614609 7.189729 -0.789234
v 3.323195 7.190209 -0.964579
v 3.633613 7.502870 -1.479619
v 3.925026 7.502390 -1.304274
v 4.561265 6.801702 -1.346168
v 4.821001 6.500984 -1.372177
v 4.508094 6.191206 -0.856887
v 4.250848 6.489040 -0.831127
v 3.809223 7.226817 -0.992035
v 3.990129 7.142188 -0.914467
v 3.837282 7.310517 -0.904402
v 4.074751 7.227422 -1.054871
v 3.879987 7.298092 -1.109447
v 3.921905 7.395753 -1.044808
v 4.455002 6.512495 -1.036232
v 4.556961 6.393000 -1.047322
v 4.647053 6.408326 -0.959248
v 4.483850 6.595269 -0.944126
v 4.632646 6.469239 -1.173081
v 4.739780 6.501733 -1.113286
v 4.530754 6.588792 -1.161915
v 4.576646 6.688734 -1.098090
vt 0.490765 0.813794
vt 0.479858 0.813794
vt 0.479858 0.798802
vt 0.490765 0.798802
vt 0.616076 0.511522
vt 0.619151 0.500416
vt 0.644876 0.500416
vt 0.647826 0.511700
vt 0.640393 0.169448
vt 0.600810 0.169448
vt 0.582271 0.814940
vt 0.571036 0.814940
vt 0.571036 0.798802
vt 0.582271 0.798802
vt 0.586269 0.830552
vt 0.586269 0.798802
vt 0.598415 0.798802
vt 0.598415 0.830552
vt 0.474138 0.589115
vt 0.476356 0.258148
vt 0.502981 0.258148
vt 0.505199 0.589115
vt 0.259064 0.707501
vt 0.256846 0.376534
vt 0.287906 0.376534
vt 0.285688 0.707501
vt 0.435681 0.813794
vt 0.435681 0.798802
vt 0.446588 0.798802
vt 0.446588 0.813794
vt 0.660312 0.169448
vt 0.699895 0.169448
vt 0.681554 0.500416
vt 0.655829 0.500416
vt 0.525283 0.814940
vt 0.525283 0.798802
vt 0.536518 0.798802
vt 0.536518 0.814940
vt 0.553558 0.606525
vt 0.588104 0.650946
vt 0.595692 0.699641
vt 0.573352 0.753896
vt 0.538028 0.783127
vt 0.489669 0.796201
vt 0.441309 0.783127
vt 0.405986 0.753896
vt 0.383645 0.699641
vt 0.391233 0.650946
vt 0.425779 0.606525
vt 0.272376 0.169448
vt 0.320735 0.182522
vt 0.356059 0.211753
vt 0.378400 0.266008
vt 0.370811 0.314703
vt 0.336265 0.359124
vt 0.208486 0.359124
vt 0.173941 0.314703
vt 0.166352 0.266008
vt 0.188693 0.211753
vt 0.224016 0.182522
vt 0.652889 0.555919
vt 0.652879 0.543671
vt 0.684630 0.543671
vt 0.684630 0.555922
vt 0.647816 0.555919
vt 0.616076 0.555922
vt 0.616076 0.543671
vt 0.647826 0.543671
vt 0.616076 0.555922
vt 0.647816 0.555919
vt 0.647826 0.511700
vt 0.684630 0.530166
vt 0.684630 0.555922
vt 0.652889 0.555919
vt 0.652879 0.530166
vt 0.647826 0.530166
vt 0.616076 0.530166
vt 0.647826 0.574545
vt 0.647826 0.583366
vt 0.616076 0.583366
vt 0.616076 0.574545
vt 0.647826 0.589115
vt 0.616076 0.589115
vt 0.475860 0.809430
vt 0.470510 0.811628
vt 0.470510 0.800967
vt 0.475860 0.803166
vt 0.342563 0.807874
vt 0.337214 0.808583
vt 0.337214 0.799927
vt 0.342563 0.800636
vt 0.461224 0.809430
vt 0.455874 0.811628
vt 0.455874 0.800967
vt 0.461224 0.803166
vt 0.327927 0.807874
vt 0.322578 0.808583
vt 0.322578 0.799927
vt 0.327927 0.800636
vt 0.566740 0.810738
vt 0.561254 0.812889
vt 0.561553 0.801247
vt 0.567038 0.803367
vt 0.402405 0.808295
vt 0.396920 0.809166
vt 0.396925 0.799675
vt 0.402411 0.800547
vt 0.551781 0.810374
vt 0.546295 0.812495
vt 0.545991 0.800852
vt 0.551477 0.803003
vt 0.387446 0.808291
vt 0.381960 0.809163
vt 0.381960 0.799672
vt 0.387446 0.800543
vt 0.317289 0.809709
vt 0.317289 0.798802
vt 0.450586 0.813794
vt 0.450586 0.798802
vt 0.331925 0.809709
vt 0.331925 0.798802
vt 0.465222 0.813794
vt 0.465222 0.798802
vt 0.376485 0.810036
vt 0.376485 0.798802
vt 0.540820 0.814940
vt 0.540516 0.798802
vt 0.391444 0.810036
vt 0.391449 0.798802
vt 0.555779 0.814940
vt 0.556077 0.798802
vt 0.251488 0.781630
vt 0.251490 0.763005
vt 0.293262 0.763005
vt 0.293263 0.781630
vt 0.264755 0.790452
vt 0.279997 0.790452
vt 0.266303 0.796201
vt 0.278449 0.796201
vt 0.482048 0.175197
vt 0.483596 0.169448
vt 0.495742 0.169448
vt 0.497289 0.175197
vt 0.468781 0.184019
vt 0.510556 0.184019
vt 0.468781 0.202641
vt 0.510556 0.202641
vt 0.475635 0.214893
vt 0.503702 0.214893
vt 0.468781 0.228398
vt 0.510556 0.228398
vt 0.469388 0.247042
vt 0.509949 0.247042
vt 0.252090 0.718786
vt 0.292662 0.718786
vt 0.251488 0.737251
vt 0.293263 0.737251
vt 0.258343 0.750756
vt 0.286409 0.750756
vt 0.706878 0.301629
vt 0.758167 0.301629
vt 0.758167 0.346050
vt 0.710901 0.346050
vt 0.700942 0.640075
vt 0.653676 0.640075
vt 0.657704 0.591716
vt 0.697287 0.591716
vt 0.704940 0.397010
vt 0.758159 0.397010
vt 0.758159 0.445370
vt 0.704940 0.445370
vt 0.704948 0.169448
vt 0.758167 0.169448
vt 0.758167 0.198679
vt 0.704948 0.198679
vt 0.758167 0.252934
vt 0.704948 0.252934
vt 0.647826 0.530166
vt 0.647816 0.555919
vt 0.616076 0.555922
vt 0.616076 0.530166
vt 0.652879 0.530166
vt 0.684630 0.530166
vt 0.652879 0.574545
vt 0.684630 0.574545
vt 0.684630 0.583366
vt 0.652879 0.583366
vt 0.684630 0.589115
vt 0.652879 0.589115
vt 0.684630 0.511522
vt 0.652879 0.511700
vt 0.421045 0.809430
vt 0.421045 0.803166
vt 0.426394 0.800967
vt 0.426394 0.811628
vt 0.302653 0.807874
vt 0.302653 0.800636
vt 0.308002 0.799927
vt 0.308002 0.808583
vt 0.406408 0.809430
vt 0.406408 0.803166
vt 0.411758 0.800967
vt 0.411758 0.811628
vt 0.288017 0.807874
vt 0.288017 0.800636
vt 0.293366 0.799927
vt 0.293366 0.808583
vt 0.510324 0.810738
vt 0.510026 0.803367
vt 0.515511 0.801247
vt 0.515810 0.812889
vt 0.361526 0.808295
vt 0.361520 0.800547
vt 0.367006 0.799675
vt 0.367011 0.809166
vt 0.494763 0.810374
vt 0.495067 0.803003
vt 0.500552 0.800852
vt 0.500248 0.812495
vt 0.346561 0.808291
vt 0.346561 0.800543
vt 0.352047 0.799672
vt 0.352047 0.809163
vt 0.298655 0.798802
vt 0.298655 0.809709
vt 0.417047 0.798802
vt 0.417047 0.813794
vt 0.313291 0.798802
vt 0.313291 0.809709
vt 0.431683 0.798802
vt 0.431683 0.813794
vt 0.357522 0.798802
vt 0.357522 0.810036
vt 0.506028 0.798802
vt 0.505724 0.814940
vt 0.372481 0.798802
vt 0.372487 0.810036
vt 0.520987 0.798802
vt 0.521285 0.814940
vt 0.813446 0.301629
vt 0.809422 0.346050
vt 0.762156 0.346050
vt 0.762156 0.301629
vt 0.649678 0.591716
vt 0.646023 0.640075
vt 0.606440 0.640075
vt 0.602412 0.591716
vt 0.704940 0.348651
vt 0.758159 0.348651
vt 0.815375 0.169448
vt 0.815375 0.198679
vt 0.762156 0.198679
vt 0.762156 0.169448
vt 0.815375 0.252934
vt 0.762156 0.252934
vt 0.647816 0.555919
vt 0.647826 0.530166
vt 0.616076 0.530166
vt 0.616076 0.555922
vt 0.616076 0.555922
vt 0.616076 0.555922
vt 0.647816 0.555919
vt 0.647826 0.530166
vt 0.616076 0.530166
vt 0.616076 0.555922
vt 0.647816 0.555919
vt 0.616076 0.530166
vt 0.647826 0.530166
vt 0.647816 0.555919
vt 0.616076 0.555922
vt 0.652889 0.555919
vt 0.684630 0.530166
vt 0.684630 0.555922
vt 0.652879 0.530166
vt 0.652889 0.555919
vt 0.684630 0.530166
vt 0.652879 0.530166
vt 0.652889 0.555919
vt 0.684630 0.555922
vt 0.652879 0.530166
vt 0.684630 0.530166
vt 0.684630 0.555922
vt 0.652889 0.555919
vt 0.684630 0.555922
vt 0.684630 0.530166
vt 0.652879 0.530166
vt 0.652889 0.555919
vt 0.684630 0.530166
vt 0.652879 0.530166
vt 0.684630 0.555922
vt 0.652889 0.555919
vn -0.5824 -0.4901 -0.6485
vn -0.3797 -0.6720 -0.6358
vn -0.1401 -0.8077 -0.5727
vn -0.3803 -0.6715 -0.6359
vn -0.5869 -0.4851 -0.6482
vn -0.5697 -0.5037 -0.6494
vn -0.6716 0.7396 0.0442
vn 0.4201 0.5015 -0.7563
vn -0.4489 -0.4713 0.7592
vn 0.5824 0.4901 0.6485
vn 0.5779 0.4950 0.6488
vn 0.5950 0.4763 0.6474
vn 0.4307 0.4906 -0.7575
vn -0.4644 -0.4542 0.7603
vn 0.8362 0.0666 0.5444
vn -0.1804 -0.7888 -0.5876
vn -0.5989 -0.2583 -0.7580
vn -0.5422 -0.4993 -0.6758
vn -0.5585 -0.5157 -0.6498
vn 0.5825 0.4900 0.6486
vn -0.7248 -0.3027 -0.6188
vn -0.8233 -0.1023 -0.5583
vn -0.7116 -0.3018 -0.6345
vn -0.9009 -0.1475 -0.4083
vn -0.8872 0.1836 -0.4233
vn -0.8872 0.1837 -0.4233
vn -0.8539 -0.0806 -0.5141
vn -0.7370 -0.2810 -0.6147
vn -0.3775 -0.3929 0.8385
vn -0.3414 -0.3619 0.8675
vn 0.8426 -0.4978 0.2057
vn 0.8424 -0.4983 0.2052
vn 0.5305 0.5217 -0.6681
vn 0.5585 0.5446 -0.6257
vn -0.3997 0.8704 0.2875
vn -0.4003 0.8703 0.2870
vn -0.3643 -0.3751 0.8524
vn -0.3636 -0.3758 0.8524
vn -0.3637 -0.3758 0.8524
vn 0.8363 -0.5132 0.1928
vn 0.8451 -0.4909 0.2116
vn 0.8451 -0.4910 0.2116
vn 0.5404 0.5362 -0.6484
vn 0.5412 0.5356 -0.6483
vn -0.4126 0.8675 0.2779
vn -0.4196 0.8658 0.2727
vn -0.4192 0.8659 0.2730
vn -0.4008 0.8702 0.2867
vn 0.5692 0.5532 -0.6082
vn 0.8422 -0.4988 0.2048
vn -0.3267 -0.3491 0.8783
vn -0.4246 0.8645 0.2689
vn 0.5416 0.5352 -0.6482
vn 0.8506 -0.4756 0.2242
vn -0.3633 -0.3763 0.8523
vn -0.4577 -0.4616 0.7599
vn -0.4580 -0.4613 0.7599
vn 0.4580 0.4613 -0.7599
vn 0.5011 0.4118 -0.7612
vn 0.6206 0.2472 -0.7441
vn -0.4145 -0.5073 0.7556
vn -0.2733 -0.6334 0.7240
vn -0.4582 -0.4611 0.7599
vn -0.4581 -0.4612 0.7599
vn -0.4583 -0.4609 0.7599
vn -0.8012 -0.1563 -0.5777
vn -0.8047 -0.1482 -0.5749
vn -0.8879 0.2786 -0.3661
vn -0.8881 0.2738 -0.3691
vn -0.8292 0.5299 -0.1781
vn 0.4963 -0.8419 -0.2119
vn 0.3365 -0.8812 -0.3321
vn -0.0975 -0.8236 -0.5587
vn -0.4794 -0.5917 -0.6481
vn -0.4768 -0.5940 -0.6480
vn -0.5824 -0.4902 -0.6485
vn 0.4445 0.6115 0.6546
vn 0.3984 0.6581 0.6389
vn 0.2154 0.7718 0.5983
vn 0.1441 0.8050 0.5756
vn 0.1442 0.8049 0.5756
vn -0.0704 0.8710 0.4863
vn -0.0705 0.8709 0.4865
vn 0.3878 0.6655 0.6377
vn 0.7530 0.2436 0.6113
vn 0.7526 0.1901 0.6304
vn 0.8487 0.0244 0.5283
vn -0.5305 -0.5217 0.6681
vn -0.5585 -0.5446 0.6257
vn 0.3997 -0.8704 -0.2875
vn 0.4003 -0.8703 -0.2870
vn 0.3775 0.3929 -0.8385
vn 0.3414 0.3619 -0.8675
vn -0.8426 0.4978 -0.2056
vn -0.8424 0.4983 -0.2052
vn -0.5470 -0.5288 0.6490
vn -0.5463 -0.5295 0.6490
vn -0.5461 -0.5298 0.6490
vn 0.4163 -0.8667 -0.2749
vn 0.3922 -0.8721 -0.2927
vn 0.3575 0.3823 -0.8521
vn 0.3580 0.3815 -0.8522
vn -0.8379 0.5096 -0.1956
vn -0.8352 0.5160 -0.1902
vn -0.8422 0.4988 -0.2048
vn 0.3267 0.3492 -0.8783
vn 0.4008 -0.8702 -0.2867
vn -0.5692 -0.5532 0.6082
vn -0.8332 0.5207 -0.1860
vn 0.3583 0.3810 -0.8523
vn 0.3757 -0.8753 -0.3046
vn -0.5459 -0.5300 0.6489
vn 0.2680 0.7434 0.6128
vn -0.1631 0.8839 0.4383
vn -0.1680 0.8843 0.4356
vn 0.2602 0.7478 0.6108
vn -0.4346 0.8619 0.2613
vn 0.8003 -0.5861 0.1266
vn 0.8622 -0.4389 0.2531
vn 0.8621 -0.4389 0.2532
vn 0.8609 -0.0172 0.5085
vn 0.6753 0.3754 0.6349
vn 0.6733 0.3782 0.6354
vn -0.5651 -0.5103 -0.6483
vn -0.5604 -0.5173 -0.6468
vn -0.5550 -0.4923 -0.6705
vn -0.5636 -0.5089 -0.6507
vn -0.5569 -0.5140 -0.6524
vn -0.3948 -0.3759 -0.8383
vn 0.5824 0.4900 0.6486
vn 0.6049 0.4632 0.6477
vn 0.5993 0.4695 0.6484
vn 0.6009 0.4709 0.6459
vn 0.6063 0.4646 0.6454
usemtl initialShadingGroup.001
s off
f 1/1/1 2/2/1 3/3/1 4/4/1
f 5/5/2 6/6/3 7/7/3 8/8/4
f 9/9/5 7/7/5 6/6/5 10/10/5
f 11/11/6 12/12/6 13/13/6 14/14/6
f 15/15/7 16/16/7 17/17/7 18/18/7
f 10/19/8 6/20/8 19/21/8 20/22/8
f 7/23/9 9/24/9 21/25/9 22/26/9
f 23/27/10 24/28/10 25/29/10 26/30/10
f 21/31/11 20/32/11 19/33/11 22/34/11
f 27/35/12 28/36/12 29/37/12 30/38/12
f 10/19/13 20/22/13 31/39/13 32/40/13 33/41/13 34/42/13 35/43/13 36/44/13 37/45/13 38/46/13 39/47/13 40/48/13 41/49/13
f 42/50/14 43/51/14 44/52/14 45/53/14 46/54/14 47/55/14 21/25/14 9/24/14 48/56/14 49/57/14 50/58/14 51/59/14 52/60/14
f 53/61/15 54/62/15 55/63/15 56/64/15
f 57/65/16 58/66/16 59/67/16 60/68/16
f 5/5/17 8/69/18 61/70/19 62/71/19
f 56/72/20 63/73/20 64/74/20 53/75/20
s 1
f 65/76/21 60/68/22 59/67/22 66/77/23
f 67/78/24 68/79/25 69/80/26 70/81/27
f 68/79/25 16/82/28 15/83/28 69/80/26
f 71/84/29 72/85/30 73/86/30 74/87/29
f 74/88/31 73/89/32 75/90/32 76/91/31
f 76/92/33 75/93/34 77/94/34 78/95/33
f 78/96/35 77/97/36 72/98/36 71/99/35
f 79/100/37 80/101/38 81/102/39 61/103/37
f 61/104/40 81/105/41 82/106/42 62/107/40
f 62/108/43 82/109/44 83/110/44 84/111/43
f 84/112/45 83/113/46 80/114/47 79/115/45
f 77/97/36 2/116/48 1/117/48 72/98/36
f 75/93/34 3/118/49 2/119/49 77/94/34
f 73/89/32 4/120/50 3/121/50 75/90/32
f 72/85/30 1/122/51 4/123/51 73/86/30
f 83/113/46 12/124/52 11/125/52 80/114/47
f 82/109/44 13/126/53 12/127/53 83/110/44
f 81/105/41 14/128/54 13/129/54 82/106/42
f 80/101/38 11/130/55 14/131/55 81/102/39
f 67/132/56 57/133/57 53/134/57 85/135/56
f 68/136/57 67/132/56 85/135/56 86/137/57
f 16/138/57 68/136/57 86/137/57 17/139/57
f 69/140/58 15/141/58 18/142/58 87/143/58
f 70/144/58 69/140/58 87/143/58 88/145/58
f 58/146/58 70/144/58 88/145/58 56/147/58
f 59/148/58 58/146/58 56/147/58 55/149/58
f 66/150/58 59/148/58 55/149/58 89/151/58
f 5/152/59 66/150/58 89/151/58 90/153/59
f 6/20/60 5/152/59 90/153/59 19/21/60
f 8/154/61 7/23/62 22/26/62 91/155/61
f 65/156/57 8/154/61 91/155/61 92/157/57
f 60/158/63 65/156/57 92/157/57 54/159/63
f 57/133/64 60/158/65 54/159/65 53/134/64
f 40/160/66 49/161/67 48/162/68 41/163/69
f 41/164/69 48/165/68 9/166/70 10/167/70
f 36/168/71 42/169/71 52/170/72 37/171/72
f 37/172/72 52/173/72 51/174/73 38/175/73
f 38/175/73 51/174/73 50/176/74 39/177/75
f 39/177/75 50/176/74 49/161/67 40/160/66
f 67/178/24 71/179/1 74/180/76 57/181/76
f 92/182/77 89/183/78 55/63/79 54/62/79
f 85/184/80 88/185/81 87/186/82 86/187/83
f 86/187/83 87/186/82 18/188/84 17/189/84
f 90/190/85 91/191/86 22/34/87 19/33/87
f 93/192/88 64/193/88 94/194/89 95/195/89
f 64/196/90 63/197/90 96/198/91 94/199/91
f 63/200/92 97/201/92 98/202/93 96/203/93
f 97/204/94 93/205/94 95/206/95 98/207/95
f 99/208/96 100/209/96 101/210/97 102/211/98
f 100/212/99 103/213/99 104/214/100 101/215/100
f 103/216/101 105/217/101 106/218/102 104/219/102
f 105/220/103 99/221/103 102/222/104 106/223/104
f 98/207/95 95/206/95 23/224/105 26/225/105
f 96/203/93 98/202/93 26/226/106 25/227/106
f 94/199/91 96/198/91 25/228/107 24/229/107
f 95/195/89 94/194/89 24/230/108 23/231/108
f 106/223/104 102/222/104 27/232/109 30/233/109
f 104/219/102 106/218/102 30/234/110 29/235/110
f 101/215/100 104/214/100 29/236/111 28/237/111
f 102/211/98 101/210/97 28/238/112 27/239/112
f 32/240/113 31/241/114 47/242/115 46/243/116
f 31/244/114 20/245/117 21/246/117 47/247/115
f 36/168/118 35/248/119 43/249/120 42/169/118
f 35/250/119 34/251/121 44/252/121 43/253/120
f 34/251/121 33/254/122 45/255/123 44/252/121
f 33/254/122 32/240/113 46/243/116 45/255/123
f 79/256/124 61/257/125 8/258/126 65/259/21
f 84/260/127 79/256/124 65/76/21 66/77/23
f 62/261/128 84/262/127 66/263/23 5/264/129
f 67/78/24 70/81/27 78/265/1 71/179/1
f 76/266/1 78/265/1 70/267/27 58/268/1
f 57/65/76 74/269/76 76/270/1 58/66/1
f 85/271/130 53/75/130 64/272/130 93/273/130
f 56/72/10 88/274/10 97/275/10 63/73/10
f 88/276/10 85/277/130 93/278/130 97/279/10
f 91/280/86 100/281/131 99/282/132 92/283/77
f 89/284/78 92/285/77 99/286/132 105/287/133
f 90/288/85 89/289/78 105/287/133 103/290/134
f 91/280/86 90/291/85 103/290/134 100/281/131
