# Blender v2.79 (sub 6) OBJ File: 'bailarina.blend1'
# www.blender.org
mtllib Guitarra1_000006.mtl
o g1_pCube6
v -3.564676 8.790362 -0.928459
v -3.671520 8.719172 -0.734220
v -3.805967 9.007858 -0.702370
v -3.699121 9.079048 -0.896610
v -4.143406 9.920267 -0.285372
v -4.096409 10.199524 -0.235876
v -3.844408 10.367424 -0.693999
v -3.830878 10.124016 -0.851243
v -6.893366 16.696674 0.063228
v -7.281119 16.438324 0.768141
v -3.975262 9.661140 -0.832985
v -4.085314 9.587816 -0.632916
v -4.224959 9.900545 -0.595115
v -4.114997 9.973834 -0.795248
v -3.210136 8.518600 -0.285716
v -2.899112 8.725828 -0.851140
v -2.696115 8.804852 -0.710513
v -3.007138 8.597625 -0.145090
v -3.651439 10.372746 0.072376
v -6.762001 16.640411 1.127758
v -6.374249 16.898760 0.422845
v -3.399438 10.540647 -0.385748
v -2.510892 9.200589 -0.198455
v -2.645337 9.489274 -0.166606
v -2.752183 9.418085 0.027634
v -2.617737 9.129399 -0.004216
v -2.914781 10.073974 -0.098342
v -3.064491 10.382784 -0.067513
v -3.174635 10.309424 0.132494
v -3.024834 10.000648 0.101727
v -6.145701 17.266426 1.789732
v -6.006097 18.320267 2.355707
v -6.334848 19.294701 2.581376
v -7.194766 20.194050 2.437973
v -8.047255 20.527079 2.091096
v -8.972733 20.464188 1.558968
v -9.663723 19.897804 0.971295
v -9.991957 19.105133 0.500229
v -9.878805 17.915075 0.126315
v -9.296394 17.039389 0.076368
v -8.281279 16.435068 0.310321
v -8.451403 20.811535 0.611222
v -7.525926 20.874424 1.143350
v -6.673437 20.541397 1.490226
v -5.813520 19.642048 1.633631
v -5.503671 18.655020 1.442325
v -5.682688 17.574921 0.947999
v -7.818265 16.743565 -0.531413
v -8.793970 17.374144 -0.837015
v -9.357477 18.262424 -0.821430
v -9.470629 19.452480 -0.447517
v -9.142393 20.245150 0.023549
v -2.746333 9.540367 -0.468314
v -2.970605 9.731701 -0.521816
v -3.281631 9.524475 0.043609
v -3.057200 9.333158 0.096943
v -3.444466 9.268592 -0.951941
v -3.755392 9.061359 -0.386726
v -3.750701 9.341871 -0.281337
v -3.439676 9.549098 -0.846763
v -3.907914 9.945868 -0.647031
v -3.983722 9.895336 -0.508990
v -2.872871 9.276810 -0.137478
v -2.801969 9.324051 -0.266375
v -3.675343 9.764543 -0.897436
v -3.986367 9.557314 -0.332011
v -3.277369 8.909999 -0.991711
v -2.976535 8.826458 -0.856849
v -3.287559 8.619230 -0.291425
v -3.588392 8.702770 -0.426287
v -3.443988 8.931639 -0.763351
v -3.506732 8.859120 -0.842577
v -3.602339 9.064412 -0.819930
v -3.500160 9.052252 -0.750044
v -3.687126 9.007919 -0.665789
v -3.571062 9.005011 -0.621147
v -3.591519 8.802628 -0.688437
v -3.514890 8.884397 -0.634453
v -3.846804 9.802001 -0.666145
v -3.910661 9.730575 -0.749738
v -4.010079 9.956700 -0.721551
v -4.102964 9.894789 -0.552462
v -4.003637 9.668628 -0.580712
v -3.922702 9.751430 -0.528165
v -2.579177 9.181797 -0.508042
v -2.721800 8.925623 -0.680381
v -3.032824 8.718395 -0.114958
v -2.890201 8.974569 0.057383
v -3.288175 9.829113 0.151658
v -3.465518 10.184162 0.184232
v -3.152794 10.387987 -0.381503
v -2.977151 10.036342 -0.413766
v -2.745796 9.203436 -0.279681
v -2.725338 9.405819 -0.212390
v -2.629731 9.200527 -0.235038
v -2.810125 9.349327 -0.058250
v -2.816699 9.156195 -0.150784
v -2.714518 9.144034 -0.080898
v -3.152714 10.072202 -0.185316
v -3.223798 10.212186 -0.173112
v -3.142603 10.294400 -0.120610
v -3.033210 10.072157 -0.141887
v -3.299789 10.161584 -0.035198
v -3.235669 10.232417 0.048353
v -3.228612 10.021632 -0.047336
v -3.126186 10.010209 0.027139
vt 0.490765 0.813794
vt 0.479858 0.813794
vt 0.479858 0.798802
vt 0.490765 0.798802
vt 0.616076 0.511522
vt 0.619151 0.500416
vt 0.644876 0.500416
vt 0.647826 0.511700
vt 0.640393 0.169448
vt 0.600810 0.169448
vt 0.582271 0.814940
vt 0.571036 0.814940
vt 0.571036 0.798802
vt 0.582271 0.798802
vt 0.586269 0.830552
vt 0.586269 0.798802
vt 0.598415 0.798802
vt 0.598415 0.830552
vt 0.474138 0.589115
vt 0.476356 0.258148
vt 0.502981 0.258148
vt 0.505199 0.589115
vt 0.259064 0.707501
vt 0.256846 0.376534
vt 0.287906 0.376534
vt 0.285688 0.707501
vt 0.435681 0.813794
vt 0.435681 0.798802
vt 0.446588 0.798802
vt 0.446588 0.813794
vt 0.660312 0.169448
vt 0.699895 0.169448
vt 0.681554 0.500416
vt 0.655829 0.500416
vt 0.525283 0.814940
vt 0.525283 0.798802
vt 0.536518 0.798802
vt 0.536518 0.814940
vt 0.553558 0.606525
vt 0.588104 0.650946
vt 0.595692 0.699641
vt 0.573352 0.753896
vt 0.538028 0.783127
vt 0.489669 0.796201
vt 0.441309 0.783127
vt 0.405986 0.753896
vt 0.383645 0.699641
vt 0.391233 0.650946
vt 0.425779 0.606525
vt 0.272376 0.169448
vt 0.320735 0.182522
vt 0.356059 0.211753
vt 0.378400 0.266008
vt 0.370811 0.314703
vt 0.336265 0.359124
vt 0.208486 0.359124
vt 0.173941 0.314703
vt 0.166352 0.266008
vt 0.188693 0.211753
vt 0.224016 0.182522
vt 0.652889 0.555919
vt 0.652879 0.543671
vt 0.684630 0.543671
vt 0.684630 0.555922
vt 0.647816 0.555919
vt 0.616076 0.555922
vt 0.616076 0.543671
vt 0.647826 0.543671
vt 0.616076 0.555922
vt 0.647816 0.555919
vt 0.647826 0.511700
vt 0.684630 0.530166
vt 0.684630 0.555922
vt 0.652889 0.555919
vt 0.652879 0.530166
vt 0.647826 0.530166
vt 0.616076 0.530166
vt 0.647826 0.574545
vt 0.647826 0.583366
vt 0.616076 0.583366
vt 0.616076 0.574545
vt 0.647826 0.589115
vt 0.616076 0.589115
vt 0.475860 0.809430
vt 0.470510 0.811628
vt 0.470510 0.800967
vt 0.475860 0.803166
vt 0.342563 0.807874
vt 0.337214 0.808583
vt 0.337214 0.799927
vt 0.342563 0.800636
vt 0.461224 0.809430
vt 0.455874 0.811628
vt 0.455874 0.800967
vt 0.461224 0.803166
vt 0.327927 0.807874
vt 0.322578 0.808583
vt 0.322578 0.799927
vt 0.327927 0.800636
vt 0.566740 0.810738
vt 0.561254 0.812889
vt 0.561553 0.801247
vt 0.567038 0.803367
vt 0.402405 0.808295
vt 0.396920 0.809166
vt 0.396925 0.799675
vt 0.402411 0.800547
vt 0.551781 0.810374
vt 0.546295 0.812495
vt 0.545991 0.800852
vt 0.551477 0.803003
vt 0.387446 0.808291
vt 0.381960 0.809163
vt 0.381960 0.799672
vt 0.387446 0.800543
vt 0.317289 0.809709
vt 0.317289 0.798802
vt 0.450586 0.813794
vt 0.450586 0.798802
vt 0.331925 0.809709
vt 0.331925 0.798802
vt 0.465222 0.813794
vt 0.465222 0.798802
vt 0.376485 0.810036
vt 0.376485 0.798802
vt 0.540820 0.814940
vt 0.540516 0.798802
vt 0.391444 0.810036
vt 0.391449 0.798802
vt 0.555779 0.814940
vt 0.556077 0.798802
vt 0.251488 0.781630
vt 0.251490 0.763005
vt 0.293262 0.763005
vt 0.293263 0.781630
vt 0.264755 0.790452
vt 0.279997 0.790452
vt 0.266303 0.796201
vt 0.278449 0.796201
vt 0.482048 0.175197
vt 0.483596 0.169448
vt 0.495742 0.169448
vt 0.497289 0.175197
vt 0.468781 0.184019
vt 0.510556 0.184019
vt 0.468781 0.202641
vt 0.510556 0.202641
vt 0.475635 0.214893
vt 0.503702 0.214893
vt 0.468781 0.228398
vt 0.510556 0.228398
vt 0.469388 0.247042
vt 0.509949 0.247042
vt 0.252090 0.718786
vt 0.292662 0.718786
vt 0.251488 0.737251
vt 0.293263 0.737251
vt 0.258343 0.750756
vt 0.286409 0.750756
vt 0.706878 0.301629
vt 0.758167 0.301629
vt 0.758167 0.346050
vt 0.710901 0.346050
vt 0.700942 0.640075
vt 0.653676 0.640075
vt 0.657704 0.591716
vt 0.697287 0.591716
vt 0.704940 0.397010
vt 0.758159 0.397010
vt 0.758159 0.445370
vt 0.704940 0.445370
vt 0.704948 0.169448
vt 0.758167 0.169448
vt 0.758167 0.198679
vt 0.704948 0.198679
vt 0.758167 0.252934
vt 0.704948 0.252934
vt 0.647826 0.530166
vt 0.647816 0.555919
vt 0.616076 0.555922
vt 0.616076 0.530166
vt 0.652879 0.530166
vt 0.684630 0.530166
vt 0.652879 0.574545
vt 0.684630 0.574545
vt 0.684630 0.583366
vt 0.652879 0.583366
vt 0.684630 0.589115
vt 0.652879 0.589115
vt 0.684630 0.511522
vt 0.652879 0.511700
vt 0.421045 0.809430
vt 0.421045 0.803166
vt 0.426394 0.800967
vt 0.426394 0.811628
vt 0.302653 0.807874
vt 0.302653 0.800636
vt 0.308002 0.799927
vt 0.308002 0.808583
vt 0.406408 0.809430
vt 0.406408 0.803166
vt 0.411758 0.800967
vt 0.411758 0.811628
vt 0.288017 0.807874
vt 0.288017 0.800636
vt 0.293366 0.799927
vt 0.293366 0.808583
vt 0.510324 0.810738
vt 0.510026 0.803367
vt 0.515511 0.801247
vt 0.515810 0.812889
vt 0.361526 0.808295
vt 0.361520 0.800547
vt 0.367006 0.799675
vt 0.367011 0.809166
vt 0.494763 0.810374
vt 0.495067 0.803003
vt 0.500552 0.800852
vt 0.500248 0.812495
vt 0.346561 0.808291
vt 0.346561 0.800543
vt 0.352047 0.799672
vt 0.352047 0.809163
vt 0.298655 0.798802
vt 0.298655 0.809709
vt 0.417047 0.798802
vt 0.417047 0.813794
vt 0.313291 0.798802
vt 0.313291 0.809709
vt 0.431683 0.798802
vt 0.431683 0.813794
vt 0.357522 0.798802
vt 0.357522 0.810036
vt 0.506028 0.798802
vt 0.505724 0.814940
vt 0.372481 0.798802
vt 0.372487 0.810036
vt 0.520987 0.798802
vt 0.521285 0.814940
vt 0.813446 0.301629
vt 0.809422 0.346050
vt 0.762156 0.346050
vt 0.762156 0.301629
vt 0.649678 0.591716
vt 0.646023 0.640075
vt 0.606440 0.640075
vt 0.602412 0.591716
vt 0.704940 0.348651
vt 0.758159 0.348651
vt 0.815375 0.169448
vt 0.815375 0.198679
vt 0.762156 0.198679
vt 0.762156 0.169448
vt 0.815375 0.252934
vt 0.762156 0.252934
vt 0.647816 0.555919
vt 0.647826 0.530166
vt 0.616076 0.530166
vt 0.616076 0.555922
vt 0.616076 0.555922
vt 0.616076 0.555922
vt 0.647816 0.555919
vt 0.647826 0.530166
vt 0.616076 0.530166
vt 0.616076 0.555922
vt 0.647816 0.555919
vt 0.616076 0.530166
vt 0.647826 0.530166
vt 0.647816 0.555919
vt 0.616076 0.555922
vt 0.652889 0.555919
vt 0.684630 0.530166
vt 0.684630 0.555922
vt 0.652879 0.530166
vt 0.652889 0.555919
vt 0.684630 0.530166
vt 0.652879 0.530166
vt 0.652889 0.555919
vt 0.684630 0.555922
vt 0.652879 0.530166
vt 0.684630 0.530166
vt 0.684630 0.555922
vt 0.652889 0.555919
vt 0.684630 0.555922
vt 0.684630 0.530166
vt 0.652879 0.530166
vt 0.652889 0.555919
vt 0.684630 0.530166
vt 0.652879 0.530166
vt 0.684630 0.555922
vt 0.652889 0.555919
vn -0.7829 -0.3048 -0.5424
vn -0.8669 -0.0496 -0.4960
vn -0.8859 0.2185 -0.4091
vn -0.8668 -0.0504 -0.4961
vn -0.7801 -0.3108 -0.5430
vn -0.7907 -0.2880 -0.5402
vn 0.4201 -0.9020 -0.0995
vn -0.4349 -0.3552 0.8274
vn 0.4532 0.3179 -0.8328
vn 0.7829 0.3048 0.5424
vn 0.7857 0.2987 0.5417
vn 0.7748 0.3215 0.5443
vn -0.4417 -0.3417 0.8296
vn 0.4629 0.2971 -0.8351
vn 0.4781 0.7064 0.5219
vn -0.8884 0.1744 -0.4247
vn -0.7662 -0.5108 -0.3898
vn -0.8127 -0.2835 -0.5091
vn -0.7972 -0.2730 -0.5384
vn 0.7829 0.3049 0.5423
vn -0.6613 -0.5082 -0.5517
vn -0.5080 -0.6800 -0.5287
vn -0.6751 -0.5064 -0.5365
vn -0.3958 -0.6415 -0.6571
vn -0.2495 -0.8568 -0.4513
vn -0.2495 -0.8568 -0.4512
vn -0.4578 -0.6967 -0.5523
vn -0.6468 -0.5288 -0.5496
vn 0.5577 0.3431 -0.7558
vn 0.5968 0.3572 -0.7185
vn -0.0909 0.9502 0.2982
vn -0.0916 0.9502 0.2979
vn -0.3521 -0.2631 0.8982
vn -0.3049 -0.2436 0.9207
vn 0.6862 -0.7184 0.1141
vn 0.6858 -0.7189 0.1137
vn 0.5781 0.3453 -0.7393
vn 0.5776 0.3462 -0.7392
vn 0.5777 0.3462 -0.7392
vn -0.1094 0.9513 0.2882
vn -0.0825 0.9496 0.3024
vn -0.0825 0.9496 0.3023
vn -0.3281 -0.2586 0.9085
vn -0.3284 -0.2577 0.9087
vn 0.6769 -0.7285 0.1053
vn 0.6718 -0.7339 0.1005
vn 0.6720 -0.7336 0.1008
vn 0.6854 -0.7193 0.1134
vn -0.2858 -0.2356 0.9289
vn -0.0921 0.9502 0.2976
vn 0.6118 0.3625 -0.7030
vn 0.6680 -0.7378 0.0970
vn -0.3285 -0.2571 0.9088
vn -0.0643 0.9480 0.3118
vn 0.5774 0.3467 -0.7392
vn 0.4587 0.3061 -0.8342
vn 0.4589 0.3058 -0.8342
vn 0.4589 0.3057 -0.8342
vn -0.4589 -0.3057 0.8342
vn -0.4855 -0.2459 0.8390
vn -0.5544 -0.0539 0.8305
vn 0.4313 0.3623 -0.8262
vn 0.3377 0.5239 -0.7819
vn 0.4313 0.3624 -0.8262
vn 0.4590 0.3054 -0.8343
vn 0.4590 0.3056 -0.8342
vn 0.4591 0.3053 -0.8343
vn -0.5519 -0.6378 -0.5373
vn -0.5454 -0.6442 -0.5361
vn -0.1537 -0.8975 -0.4134
vn -0.1586 -0.8957 -0.4155
vn 0.1301 -0.9519 -0.2773
vn -0.6098 0.7912 -0.0455
vn -0.7282 0.6674 -0.1559
vn -0.8829 0.2619 -0.3897
vn -0.8353 -0.1714 -0.5224
vn -0.8364 -0.1682 -0.5217
vn -0.7829 -0.3047 -0.5424
vn 0.8518 0.1384 0.5052
vn 0.8622 0.0720 0.5013
vn 0.8883 -0.1365 0.4386
vn 0.8870 -0.2131 0.4097
vn 0.8870 -0.2130 0.4098
vn 0.8485 -0.4294 0.3094
vn 0.8486 -0.4293 0.3093
vn 0.8652 0.0598 0.4978
vn 0.6252 0.5623 0.5413
vn 0.6161 0.6048 0.5046
vn 0.4433 0.7360 0.5117
vn 0.3521 0.2631 -0.8982
vn 0.3049 0.2436 -0.9207
vn -0.6862 0.7184 -0.1141
vn -0.6858 0.7189 -0.1137
vn -0.5577 -0.3431 0.7558
vn -0.5968 -0.3572 0.7185
vn 0.0909 -0.9502 -0.2982
vn 0.0916 -0.9502 -0.2979
vn 0.3325 0.2497 -0.9095
vn 0.3321 0.2506 -0.9094
vn 0.3320 0.2509 -0.9093
vn -0.6740 0.7315 -0.1030
vn -0.6913 0.7126 -0.1194
vn -0.5740 -0.3543 0.7382
vn -0.5746 -0.3535 0.7382
vn 0.1053 -0.9510 -0.2906
vn 0.1130 -0.9514 -0.2865
vn 0.0921 -0.9502 -0.2976
vn -0.6118 -0.3625 0.7030
vn -0.6854 0.7193 -0.1134
vn 0.2858 0.2356 -0.9289
vn 0.1188 -0.9516 -0.2834
vn -0.5749 -0.3530 0.7382
vn -0.7027 0.6994 -0.1304
vn 0.3319 0.2511 -0.9093
vn 0.8853 -0.0783 0.4583
vn 0.8161 -0.5163 0.2597
vn 0.8141 -0.5207 0.2570
vn 0.8860 -0.0869 0.4555
vn 0.6604 -0.7455 0.0901
vn -0.2012 0.9503 0.2376
vn -0.0216 0.9425 0.3336
vn -0.0216 0.9425 0.3335
vn 0.4054 0.7634 0.5028
vn 0.4054 0.7635 0.5028
vn 0.7122 0.4347 0.5511
vn 0.7141 0.4318 0.5510
vn -0.7931 -0.2802 -0.5409
vn -0.7953 -0.2720 -0.5417
vn -0.8042 -0.2943 -0.5164
vn -0.7946 -0.2811 -0.5382
vn -0.7988 -0.2741 -0.5355
vn -0.9007 -0.3333 -0.2786
vn 0.7829 0.3048 0.5423
vn 0.7684 0.3366 0.5443
vn 0.7722 0.3291 0.5435
vn 0.7707 0.3283 0.5461
vn 0.7670 0.3357 0.5469
usemtl initialShadingGroup.001
s off
f 1/1/1 2/2/1 3/3/1 4/4/1
f 5/5/2 6/6/3 7/7/3 8/8/4
f 9/9/5 7/7/5 6/6/5 10/10/5
f 11/11/6 12/12/6 13/13/6 14/14/6
f 15/15/7 16/16/7 17/17/7 18/18/7
f 10/19/8 6/20/8 19/21/8 20/22/8
f 7/23/9 9/24/9 21/25/9 22/26/9
f 23/27/10 24/28/10 25/29/10 26/30/10
f 21/31/11 20/32/11 19/33/11 22/34/11
f 27/35/12 28/36/12 29/37/12 30/38/12
f 10/19/13 20/22/13 31/39/13 32/40/13 33/41/13 34/42/13 35/43/13 36/44/13 37/45/13 38/46/13 39/47/13 40/48/13 41/49/13
f 42/50/14 43/51/14 44/52/14 45/53/14 46/54/14 47/55/14 21/25/14 9/24/14 48/56/14 49/57/14 50/58/14 51/59/14 52/60/14
f 53/61/15 54/62/15 55/63/15 56/64/15
f 57/65/16 58/66/16 59/67/16 60/68/16
f 5/5/17 8/69/18 61/70/19 62/71/19
f 56/72/20 63/73/20 64/74/20 53/75/20
s 1
f 65/76/21 60/68/22 59/67/22 66/77/23
f 67/78/24 68/79/25 69/80/26 70/81/27
f 68/79/25 16/82/28 15/83/28 69/80/26
f 71/84/29 72/85/30 73/86/30 74/87/29
f 74/88/31 73/89/32 75/90/32 76/91/31
f 76/92/33 75/93/34 77/94/34 78/95/33
f 78/96/35 77/97/36 72/98/36 71/99/35
f 79/100/37 80/101/38 81/102/39 61/103/37
f 61/104/40 81/105/41 82/106/42 62/107/40
f 62/108/43 82/109/44 83/110/44 84/111/43
f 84/112/45 83/113/46 80/114/47 79/115/45
f 77/97/36 2/116/48 1/117/48 72/98/36
f 75/93/34 3/118/49 2/119/49 77/94/34
f 73/89/32 4/120/50 3/121/50 75/90/32
f 72/85/30 1/122/51 4/123/51 73/86/30
f 83/113/46 12/124/52 11/125/52 80/114/47
f 82/109/44 13/126/53 12/127/53 83/110/44
f 81/105/41 14/128/54 13/129/54 82/106/42
f 80/101/38 11/130/55 14/131/55 81/102/39
f 67/132/56 57/133/57 53/134/57 85/135/56
f 68/136/58 67/132/56 85/135/56 86/137/58
f 16/138/58 68/136/58 86/137/58 17/139/58
f 69/140/59 15/141/59 18/142/59 87/143/59
f 70/144/59 69/140/59 87/143/59 88/145/59
f 58/146/59 70/144/59 88/145/59 56/147/59
f 59/148/59 58/146/59 56/147/59 55/149/59
f 66/150/59 59/148/59 55/149/59 89/151/59
f 5/152/60 66/150/59 89/151/59 90/153/60
f 6/20/61 5/152/60 90/153/60 19/21/61
f 8/154/62 7/23/63 22/26/63 91/155/64
f 65/156/58 8/154/62 91/155/64 92/157/58
f 60/158/65 65/156/58 92/157/58 54/159/65
f 57/133/66 60/158/67 54/159/67 53/134/66
f 40/160/68 49/161/69 48/162/70 41/163/71
f 41/164/71 48/165/70 9/166/72 10/167/72
f 36/168/73 42/169/73 52/170/74 37/171/74
f 37/172/74 52/173/74 51/174/75 38/175/75
f 38/175/75 51/174/75 50/176/76 39/177/77
f 39/177/77 50/176/76 49/161/69 40/160/68
f 67/178/24 71/179/78 74/180/78 57/181/78
f 92/182/79 89/183/80 55/63/81 54/62/81
f 85/184/82 88/185/83 87/186/84 86/187/85
f 86/187/85 87/186/84 18/188/86 17/189/86
f 90/190/87 91/191/88 22/34/89 19/33/89
f 93/192/90 64/193/90 94/194/91 95/195/91
f 64/196/92 63/197/92 96/198/93 94/199/93
f 63/200/94 97/201/94 98/202/95 96/203/95
f 97/204/96 93/205/96 95/206/97 98/207/97
f 99/208/98 100/209/98 101/210/99 102/211/100
f 100/212/101 103/213/101 104/214/102 101/215/102
f 103/216/103 105/217/103 106/218/104 104/219/104
f 105/220/105 99/221/105 102/222/106 106/223/106
f 98/207/97 95/206/97 23/224/107 26/225/107
f 96/203/95 98/202/95 26/226/108 25/227/108
f 94/199/93 96/198/93 25/228/109 24/229/109
f 95/195/91 94/194/91 24/230/110 23/231/110
f 106/223/106 102/222/106 27/232/111 30/233/111
f 104/219/104 106/218/104 30/234/112 29/235/112
f 101/215/102 104/214/102 29/236/113 28/237/113
f 102/211/100 101/210/99 28/238/114 27/239/114
f 32/240/115 31/241/116 47/242/117 46/243/118
f 31/244/116 20/245/119 21/246/119 47/247/117
f 36/168/120 35/248/121 43/249/122 42/169/120
f 35/250/121 34/251/123 44/252/124 43/253/122
f 34/251/123 33/254/125 45/255/126 44/252/124
f 33/254/125 32/240/115 46/243/118 45/255/126
f 79/256/127 61/257/128 8/258/129 65/259/21
f 84/260/130 79/256/127 65/76/21 66/77/23
f 62/261/131 84/262/130 66/263/23 5/264/132
f 67/78/24 70/81/27 78/265/1 71/179/78
f 76/266/78 78/265/1 70/267/27 58/268/78
f 57/65/78 74/269/78 76/270/78 58/66/78
f 85/271/133 53/75/20 64/272/20 93/273/133
f 56/72/10 88/274/10 97/275/10 63/73/10
f 88/276/10 85/277/133 93/278/133 97/279/10
f 91/280/88 100/281/134 99/282/135 92/283/79
f 89/284/80 92/285/79 99/286/135 105/287/136
f 90/288/87 89/289/80 105/287/136 103/290/137
f 91/280/88 90/291/87 103/290/137 100/281/134
