# Blender v2.79 (sub 6) OBJ File: 'bailarina.blend1'
# www.blender.org
mtllib Guitarra1_000016.mtl
o g1_pCube6
v -1.983844 8.536172 1.255854
v -1.998938 8.379524 1.084255
v -2.194269 8.201073 1.264340
v -2.179175 8.357722 1.435940
v -2.633388 7.372736 1.755535
v -2.656385 7.212383 1.993024
v -2.620784 7.581847 2.397748
v -2.587218 7.830920 2.252860
v -6.976444 3.601091 6.285001
v -7.031224 3.032598 5.662253
v -2.577785 7.997606 1.797270
v -2.593333 7.836256 1.620521
v -2.798475 7.641010 1.816801
v -2.783019 7.802419 1.993506
v -1.383004 8.148824 0.937067
v -1.339064 8.604823 1.436585
v -1.134360 8.478737 1.533679
v -1.178300 8.022738 1.034161
v -2.207675 6.936005 2.205854
v -6.507742 2.710165 5.910547
v -6.452962 3.278657 6.533295
v -2.172073 7.305468 2.610577
v -0.921201 7.881649 1.759879
v -1.116532 7.703200 1.939966
v -1.131626 7.546550 1.768365
v -0.936296 7.725001 1.588280
v -1.508390 7.338924 2.304499
v -1.723681 7.149931 2.495963
v -1.739321 6.988636 2.319171
v -1.523938 7.177574 2.127750
v -5.924604 1.948439 6.448744
v -5.926699 1.003324 7.195169
v -6.435911 0.317230 7.810394
v -7.519301 -0.096635 8.283502
v -8.495463 -0.077873 8.352243
v -9.480830 0.268518 8.122707
v -10.125520 0.926144 7.579085
v -10.340010 1.640749 6.945604
v -10.009662 2.518442 6.115318
v -9.244658 3.046986 5.621418
v -8.078135 3.274883 5.427296
v -9.407180 1.032849 8.959982
v -8.421812 0.686459 9.189517
v -7.445650 0.667697 9.120775
v -6.362259 1.081560 8.647669
v -5.855718 1.739943 8.002087
v -5.859191 2.627274 7.192364
v -8.012723 3.953718 6.170916
v -9.173677 3.783604 6.428336
v -9.936010 3.282773 6.952593
v -10.266358 2.405081 7.782878
v -10.051869 1.690476 8.416357
v -1.317224 7.929702 2.050675
v -1.592289 7.855193 2.143182
v -1.636230 7.399193 1.643665
v -1.361081 7.473868 1.551293
v -2.021227 8.363324 1.716758
v -2.065142 7.907526 1.217347
v -2.109244 7.690541 1.419308
v -2.065303 8.146540 1.918825
v -2.541206 7.717973 1.998891
v -2.551838 7.606639 1.877040
v -1.251519 7.735279 1.659767
v -1.241502 7.839230 1.773640
v -2.356777 8.056953 2.026249
v -2.400717 7.600954 1.526731
v -1.778574 8.585185 1.493174
v -1.440052 8.552463 1.493268
v -1.483992 8.096463 0.993751
v -1.822513 8.129188 0.993657
v -1.863952 8.347445 1.364454
v -1.924481 8.439327 1.306431
v -2.063385 8.312426 1.434492
v -1.945563 8.272889 1.439694
v -2.075364 8.188117 1.298319
v -1.955579 8.168937 1.325821
v -1.936458 8.315016 1.170256
v -1.873969 8.243494 1.250580
v -2.450205 7.808800 1.907970
v -2.513424 7.903859 1.851985
v -2.660083 7.762184 1.994220
v -2.673126 7.625813 1.844941
v -2.526559 7.767545 1.702663
v -2.460927 7.697526 1.786074
v -1.074512 8.151526 1.827119
v -1.183175 8.394243 1.615107
v -1.227115 7.938243 1.115590
v -1.118452 7.695529 1.327602
v -1.696656 7.167295 1.860677
v -1.949800 6.951687 2.079770
v -1.903434 7.409751 2.577187
v -1.652716 7.623295 2.360195
v -1.159891 7.913787 1.698399
v -1.179011 7.767706 1.853963
v -1.040107 7.894607 1.725900
v -1.190989 7.643396 1.717789
v -1.169909 7.809836 1.584525
v -1.052085 7.770296 1.589726
v -1.750279 7.377689 2.239954
v -1.851339 7.293057 2.326104
v -1.785314 7.223380 2.409135
v -1.628596 7.358858 2.271670
v -1.862155 7.181836 2.204166
v -1.798540 7.087121 2.259768
v -1.761001 7.266414 2.118059
v -1.641732 7.222546 2.122348
vt 0.490765 0.813794
vt 0.479858 0.813794
vt 0.479858 0.798802
vt 0.490765 0.798802
vt 0.616076 0.511522
vt 0.619151 0.500416
vt 0.644876 0.500416
vt 0.647826 0.511700
vt 0.640393 0.169448
vt 0.600810 0.169448
vt 0.582271 0.814940
vt 0.571036 0.814940
vt 0.571036 0.798802
vt 0.582271 0.798802
vt 0.586269 0.830552
vt 0.586269 0.798802
vt 0.598415 0.798802
vt 0.598415 0.830552
vt 0.474138 0.589115
vt 0.476356 0.258148
vt 0.502981 0.258148
vt 0.505199 0.589115
vt 0.259064 0.707501
vt 0.256846 0.376534
vt 0.287906 0.376534
vt 0.285688 0.707501
vt 0.435681 0.813794
vt 0.435681 0.798802
vt 0.446588 0.798802
vt 0.446588 0.813794
vt 0.660312 0.169448
vt 0.699895 0.169448
vt 0.681554 0.500416
vt 0.655829 0.500416
vt 0.525283 0.814940
vt 0.525283 0.798802
vt 0.536518 0.798802
vt 0.536518 0.814940
vt 0.553558 0.606525
vt 0.588104 0.650946
vt 0.595692 0.699641
vt 0.573352 0.753896
vt 0.538028 0.783127
vt 0.489669 0.796201
vt 0.441309 0.783127
vt 0.405986 0.753896
vt 0.383645 0.699641
vt 0.391233 0.650946
vt 0.425779 0.606525
vt 0.272376 0.169448
vt 0.320735 0.182522
vt 0.356059 0.211753
vt 0.378400 0.266008
vt 0.370811 0.314703
vt 0.336265 0.359124
vt 0.208486 0.359124
vt 0.173941 0.314703
vt 0.166352 0.266008
vt 0.188693 0.211753
vt 0.224016 0.182522
vt 0.652889 0.555919
vt 0.652879 0.543671
vt 0.684630 0.543671
vt 0.684630 0.555922
vt 0.647816 0.555919
vt 0.616076 0.555922
vt 0.616076 0.543671
vt 0.647826 0.543671
vt 0.616076 0.555922
vt 0.647816 0.555919
vt 0.647826 0.511700
vt 0.684630 0.530166
vt 0.684630 0.555922
vt 0.652889 0.555919
vt 0.652879 0.530166
vt 0.647826 0.530166
vt 0.616076 0.530166
vt 0.647826 0.574545
vt 0.647826 0.583366
vt 0.616076 0.583366
vt 0.616076 0.574545
vt 0.647826 0.589115
vt 0.616076 0.589115
vt 0.475860 0.809430
vt 0.470510 0.811628
vt 0.470510 0.800967
vt 0.475860 0.803166
vt 0.342563 0.807874
vt 0.337214 0.808583
vt 0.337214 0.799927
vt 0.342563 0.800636
vt 0.461224 0.809430
vt 0.455874 0.811628
vt 0.455874 0.800967
vt 0.461224 0.803166
vt 0.327927 0.807874
vt 0.322578 0.808583
vt 0.322578 0.799927
vt 0.327927 0.800636
vt 0.566740 0.810738
vt 0.561254 0.812889
vt 0.561553 0.801247
vt 0.567038 0.803367
vt 0.402405 0.808295
vt 0.396920 0.809166
vt 0.396925 0.799675
vt 0.402411 0.800547
vt 0.551781 0.810374
vt 0.546295 0.812495
vt 0.545991 0.800852
vt 0.551477 0.803003
vt 0.387446 0.808291
vt 0.381960 0.809163
vt 0.381960 0.799672
vt 0.387446 0.800543
vt 0.317289 0.809709
vt 0.317289 0.798802
vt 0.450586 0.813794
vt 0.450586 0.798802
vt 0.331925 0.809709
vt 0.331925 0.798802
vt 0.465222 0.813794
vt 0.465222 0.798802
vt 0.376485 0.810036
vt 0.376485 0.798802
vt 0.540820 0.814940
vt 0.540516 0.798802
vt 0.391444 0.810036
vt 0.391449 0.798802
vt 0.555779 0.814940
vt 0.556077 0.798802
vt 0.251488 0.781630
vt 0.251490 0.763005
vt 0.293262 0.763005
vt 0.293263 0.781630
vt 0.264755 0.790452
vt 0.279997 0.790452
vt 0.266303 0.796201
vt 0.278449 0.796201
vt 0.482048 0.175197
vt 0.483596 0.169448
vt 0.495742 0.169448
vt 0.497289 0.175197
vt 0.468781 0.184019
vt 0.510556 0.184019
vt 0.468781 0.202641
vt 0.510556 0.202641
vt 0.475635 0.214893
vt 0.503702 0.214893
vt 0.468781 0.228398
vt 0.510556 0.228398
vt 0.469388 0.247042
vt 0.509949 0.247042
vt 0.252090 0.718786
vt 0.292662 0.718786
vt 0.251488 0.737251
vt 0.293263 0.737251
vt 0.258343 0.750756
vt 0.286409 0.750756
vt 0.706878 0.301629
vt 0.758167 0.301629
vt 0.758167 0.346050
vt 0.710901 0.346050
vt 0.700942 0.640075
vt 0.653676 0.640075
vt 0.657704 0.591716
vt 0.697287 0.591716
vt 0.704940 0.397010
vt 0.758159 0.397010
vt 0.758159 0.445370
vt 0.704940 0.445370
vt 0.704948 0.169448
vt 0.758167 0.169448
vt 0.758167 0.198679
vt 0.704948 0.198679
vt 0.758167 0.252934
vt 0.704948 0.252934
vt 0.647826 0.530166
vt 0.647816 0.555919
vt 0.616076 0.555922
vt 0.616076 0.530166
vt 0.652879 0.530166
vt 0.684630 0.530166
vt 0.652879 0.574545
vt 0.684630 0.574545
vt 0.684630 0.583366
vt 0.652879 0.583366
vt 0.684630 0.589115
vt 0.652879 0.589115
vt 0.684630 0.511522
vt 0.652879 0.511700
vt 0.421045 0.809430
vt 0.421045 0.803166
vt 0.426394 0.800967
vt 0.426394 0.811628
vt 0.302653 0.807874
vt 0.302653 0.800636
vt 0.308002 0.799927
vt 0.308002 0.808583
vt 0.406408 0.809430
vt 0.406408 0.803166
vt 0.411758 0.800967
vt 0.411758 0.811628
vt 0.288017 0.807874
vt 0.288017 0.800636
vt 0.293366 0.799927
vt 0.293366 0.808583
vt 0.510324 0.810738
vt 0.510026 0.803367
vt 0.515511 0.801247
vt 0.515810 0.812889
vt 0.361526 0.808295
vt 0.361520 0.800547
vt 0.367006 0.799675
vt 0.367011 0.809166
vt 0.494763 0.810374
vt 0.495067 0.803003
vt 0.500552 0.800852
vt 0.500248 0.812495
vt 0.346561 0.808291
vt 0.346561 0.800543
vt 0.352047 0.799672
vt 0.352047 0.809163
vt 0.298655 0.798802
vt 0.298655 0.809709
vt 0.417047 0.798802
vt 0.417047 0.813794
vt 0.313291 0.798802
vt 0.313291 0.809709
vt 0.431683 0.798802
vt 0.431683 0.813794
vt 0.357522 0.798802
vt 0.357522 0.810036
vt 0.506028 0.798802
vt 0.505724 0.814940
vt 0.372481 0.798802
vt 0.372487 0.810036
vt 0.520987 0.798802
vt 0.521285 0.814940
vt 0.813446 0.301629
vt 0.809422 0.346050
vt 0.762156 0.346050
vt 0.762156 0.301629
vt 0.649678 0.591716
vt 0.646023 0.640075
vt 0.606440 0.640075
vt 0.602412 0.591716
vt 0.704940 0.348651
vt 0.758159 0.348651
vt 0.815375 0.169448
vt 0.815375 0.198679
vt 0.762156 0.198679
vt 0.762156 0.169448
vt 0.815375 0.252934
vt 0.762156 0.252934
vt 0.647816 0.555919
vt 0.647826 0.530166
vt 0.616076 0.530166
vt 0.616076 0.555922
vt 0.616076 0.555922
vt 0.616076 0.555922
vt 0.647816 0.555919
vt 0.647826 0.530166
vt 0.616076 0.530166
vt 0.616076 0.555922
vt 0.647816 0.555919
vt 0.616076 0.530166
vt 0.647826 0.530166
vt 0.647816 0.555919
vt 0.616076 0.555922
vt 0.652889 0.555919
vt 0.684630 0.530166
vt 0.684630 0.555922
vt 0.652879 0.530166
vt 0.652889 0.555919
vt 0.684630 0.530166
vt 0.652879 0.530166
vt 0.652889 0.555919
vt 0.684630 0.555922
vt 0.652879 0.530166
vt 0.684630 0.530166
vt 0.684630 0.555922
vt 0.652889 0.555919
vt 0.684630 0.555922
vt 0.684630 0.530166
vt 0.652879 0.530166
vt 0.652889 0.555919
vt 0.684630 0.530166
vt 0.652879 0.530166
vt 0.684630 0.555922
vt 0.652889 0.555919
vn -0.7895 0.4863 -0.3745
vn -0.9250 0.3181 -0.2080
vn -0.9927 0.1191 -0.0193
vn -0.9247 0.3186 -0.2086
vn -0.7854 0.4900 -0.3782
vn -0.8008 0.4756 -0.3641
vn 0.6103 0.5576 -0.5627
vn -0.0310 -0.6409 -0.7670
vn 0.0566 0.6652 0.7445
vn 0.7895 -0.4863 0.3745
vn 0.7936 -0.4825 0.3707
vn 0.7780 -0.4968 0.3847
vn -0.0403 -0.6499 -0.7590
vn 0.0707 0.6781 0.7316
vn 0.3910 -0.6966 0.6015
vn -0.9870 0.1521 -0.0521
vn -0.6668 0.4465 -0.5966
vn -0.8122 0.4427 -0.3800
vn -0.8104 0.4663 -0.3546
vn 0.7894 -0.4863 0.3746
vn -0.6235 0.6048 -0.4954
vn -0.4278 0.6860 -0.5886
vn -0.6316 0.5884 -0.5048
vn -0.3777 0.8001 -0.4660
vn -0.1185 0.7385 -0.6637
vn -0.1185 0.7384 -0.6639
vn -0.3849 0.7223 -0.5745
vn -0.6037 0.6145 -0.5079
vn 0.1680 0.6031 0.7798
vn 0.2109 0.5703 0.7939
vn 0.2108 0.5704 0.7939
vn -0.2644 -0.7006 0.6628
vn -0.2651 -0.7004 0.6627
vn 0.0394 -0.7308 -0.6814
vn 0.0835 -0.7516 -0.6543
vn 0.8646 0.3308 -0.3781
vn 0.8643 0.3313 -0.3785
vn 0.1909 0.5909 0.7838
vn 0.1903 0.5904 0.7844
vn -0.2846 -0.6953 0.6600
vn -0.2553 -0.7026 0.6642
vn 0.0630 -0.7380 -0.6718
vn 0.0626 -0.7386 -0.6712
vn 0.8564 0.3416 -0.3871
vn 0.8518 0.3474 -0.3921
vn 0.8521 0.3471 -0.3918
vn 0.8640 0.3317 -0.3788
vn 0.1010 -0.7593 -0.6429
vn -0.2657 -0.7003 0.6626
vn 0.2278 0.5568 0.7988
vn 0.8485 0.3516 -0.3956
vn 0.0623 -0.7390 -0.6708
vn -0.2354 -0.7072 0.6666
vn 0.1899 0.5901 0.7847
vn 0.0646 0.6726 0.7372
vn 0.0648 0.6727 0.7370
vn 0.0648 0.6728 0.7370
vn -0.0648 -0.6728 -0.7370
vn -0.1047 -0.7079 -0.6985
vn -0.2254 -0.7972 -0.5601
vn 0.0260 0.6361 0.7712
vn -0.0916 0.5099 0.8553
vn 0.0650 0.6730 0.7368
vn 0.0649 0.6729 0.7369
vn 0.0651 0.6731 0.7367
vn -0.4824 0.6677 -0.5670
vn -0.4743 0.6705 -0.5704
vn -0.0082 0.7388 -0.6738
vn -0.0138 0.7391 -0.6735
vn 0.3068 0.6893 -0.6563
vn -0.7952 -0.4113 0.4455
vn -0.9009 -0.2782 0.3331
vn -0.9009 -0.2782 0.3332
vn -0.9965 0.0832 0.0117
vn -0.8693 0.4007 -0.2893
vn -0.8710 0.3986 -0.2872
vn -0.7895 0.4863 -0.3744
vn 0.8884 -0.3683 0.2740
vn 0.9159 -0.3336 0.2232
vn 0.9802 -0.1813 0.0792
vn 0.9922 -0.1219 0.0241
vn 0.9922 -0.1220 0.0242
vn 0.9887 0.0565 -0.1386
vn 0.9888 0.0566 -0.1384
vn 0.9210 -0.3246 0.2153
vn 0.5718 -0.6256 0.5307
vn 0.5398 -0.6137 0.5761
vn 0.3477 -0.7065 0.6165
vn -0.0394 0.7308 0.6814
vn -0.0835 0.7516 0.6543
vn -0.8646 -0.3308 0.3781
vn -0.8643 -0.3313 0.3785
vn -0.1680 -0.6031 -0.7798
vn -0.2108 -0.5704 -0.7939
vn 0.2644 0.7006 -0.6628
vn 0.2651 0.7004 -0.6627
vn -0.0568 0.7435 0.6664
vn -0.0574 0.7429 0.6669
vn -0.0576 0.7427 0.6671
vn -0.8539 -0.3446 0.3900
vn -0.8692 -0.3245 0.3730
vn -0.1849 -0.5853 -0.7895
vn -0.1857 -0.5857 -0.7890
vn 0.2800 0.6966 -0.6606
vn 0.2883 0.6944 -0.6593
vn 0.2657 0.7003 -0.6626
vn -0.2278 -0.5568 -0.7988
vn -0.8640 -0.3317 0.3788
vn -0.1010 0.7593 0.6429
vn 0.2947 0.6927 -0.6583
vn -0.1861 -0.5860 -0.7887
vn -0.8792 -0.3107 0.3613
vn -0.0577 0.7426 0.6673
vn 0.9669 -0.2250 0.1204
vn 0.9691 0.1337 -0.2073
vn 0.9677 0.1378 -0.2109
vn 0.9691 -0.2185 0.1143
vn 0.8417 0.3599 -0.4026
vn -0.3831 -0.6652 0.6409
vn -0.1884 -0.7170 0.6711
vn 0.3027 -0.7170 0.6279
vn 0.3027 -0.7170 0.6280
vn 0.6907 -0.5633 0.4535
vn 0.6931 -0.5617 0.4518
vn -0.8053 0.4724 -0.3582
vn -0.8100 0.4691 -0.3519
vn -0.8036 0.4553 -0.3832
vn -0.8056 0.4702 -0.3605
vn -0.8106 0.4640 -0.3572
vn -0.8051 0.2476 -0.5390
vn -0.7896 0.4862 -0.3744
vn 0.7895 -0.4863 0.3746
vn 0.7678 -0.5045 0.3950
vn 0.7731 -0.4998 0.3905
vn 0.7728 -0.5021 0.3882
vn 0.7675 -0.5066 0.3928
usemtl initialShadingGroup.001
s off
f 1/1/1 2/2/1 3/3/1 4/4/1
f 5/5/2 6/6/3 7/7/3 8/8/4
f 9/9/5 7/7/5 6/6/5 10/10/5
f 11/11/6 12/12/6 13/13/6 14/14/6
f 15/15/7 16/16/7 17/17/7 18/18/7
f 10/19/8 6/20/8 19/21/8 20/22/8
f 7/23/9 9/24/9 21/25/9 22/26/9
f 23/27/10 24/28/10 25/29/10 26/30/10
f 21/31/11 20/32/11 19/33/11 22/34/11
f 27/35/12 28/36/12 29/37/12 30/38/12
f 10/19/13 20/22/13 31/39/13 32/40/13 33/41/13 34/42/13 35/43/13 36/44/13 37/45/13 38/46/13 39/47/13 40/48/13 41/49/13
f 42/50/14 43/51/14 44/52/14 45/53/14 46/54/14 47/55/14 21/25/14 9/24/14 48/56/14 49/57/14 50/58/14 51/59/14 52/60/14
f 53/61/15 54/62/15 55/63/15 56/64/15
f 57/65/16 58/66/16 59/67/16 60/68/16
f 5/5/17 8/69/18 61/70/19 62/71/19
f 56/72/20 63/73/20 64/74/20 53/75/20
s 1
f 65/76/21 60/68/22 59/67/22 66/77/23
f 67/78/24 68/79/25 69/80/26 70/81/27
f 68/79/25 16/82/28 15/83/28 69/80/26
f 71/84/29 72/85/30 73/86/31 74/87/29
f 74/88/32 73/89/33 75/90/33 76/91/32
f 76/92/34 75/93/35 77/94/35 78/95/34
f 78/96/36 77/97/37 72/98/37 71/99/36
f 79/100/38 80/101/39 81/102/39 61/103/38
f 61/104/40 81/105/41 82/106/41 62/107/40
f 62/108/42 82/109/43 83/110/43 84/111/42
f 84/112/44 83/113/45 80/114/46 79/115/44
f 77/97/37 2/116/47 1/117/47 72/98/37
f 75/93/35 3/118/48 2/119/48 77/94/35
f 73/89/33 4/120/49 3/121/49 75/90/33
f 72/85/30 1/122/50 4/123/50 73/86/31
f 83/113/45 12/124/51 11/125/51 80/114/46
f 82/109/43 13/126/52 12/127/52 83/110/43
f 81/105/41 14/128/53 13/129/53 82/106/41
f 80/101/39 11/130/54 14/131/54 81/102/39
f 67/132/55 57/133/56 53/134/56 85/135/55
f 68/136/57 67/132/55 85/135/55 86/137/57
f 16/138/57 68/136/57 86/137/57 17/139/57
f 69/140/58 15/141/58 18/142/58 87/143/58
f 70/144/58 69/140/58 87/143/58 88/145/58
f 58/146/58 70/144/58 88/145/58 56/147/58
f 59/148/58 58/146/58 56/147/58 55/149/58
f 66/150/58 59/148/58 55/149/58 89/151/58
f 5/152/59 66/150/58 89/151/58 90/153/59
f 6/20/60 5/152/59 90/153/59 19/21/60
f 8/154/61 7/23/62 22/26/62 91/155/61
f 65/156/57 8/154/61 91/155/61 92/157/57
f 60/158/63 65/156/57 92/157/57 54/159/63
f 57/133/64 60/158/65 54/159/65 53/134/64
f 40/160/66 49/161/67 48/162/68 41/163/69
f 41/164/69 48/165/68 9/166/70 10/167/70
f 36/168/71 42/169/71 52/170/72 37/171/73
f 37/172/73 52/173/72 51/174/74 38/175/74
f 38/175/74 51/174/74 50/176/75 39/177/76
f 39/177/76 50/176/75 49/161/67 40/160/66
f 67/178/24 71/179/77 74/180/77 57/181/77
f 92/182/78 89/183/79 55/63/80 54/62/80
f 85/184/81 88/185/82 87/186/83 86/187/84
f 86/187/84 87/186/83 18/188/85 17/189/85
f 90/190/86 91/191/87 22/34/88 19/33/88
f 93/192/89 64/193/89 94/194/90 95/195/90
f 64/196/91 63/197/91 96/198/92 94/199/92
f 63/200/93 97/201/93 98/202/94 96/203/94
f 97/204/95 93/205/95 95/206/96 98/207/96
f 99/208/97 100/209/97 101/210/98 102/211/99
f 100/212/100 103/213/100 104/214/101 101/215/101
f 103/216/102 105/217/102 106/218/103 104/219/103
f 105/220/104 99/221/104 102/222/105 106/223/105
f 98/207/96 95/206/96 23/224/106 26/225/106
f 96/203/94 98/202/94 26/226/107 25/227/107
f 94/199/92 96/198/92 25/228/108 24/229/108
f 95/195/90 94/194/90 24/230/109 23/231/109
f 106/223/105 102/222/105 27/232/110 30/233/110
f 104/219/103 106/218/103 30/234/111 29/235/111
f 101/215/101 104/214/101 29/236/112 28/237/112
f 102/211/99 101/210/98 28/238/113 27/239/113
f 32/240/114 31/241/115 47/242/116 46/243/117
f 31/244/115 20/245/118 21/246/118 47/247/116
f 36/168/119 35/248/120 43/249/120 42/169/119
f 35/250/120 34/251/121 44/252/122 43/253/120
f 34/251/121 33/254/123 45/255/124 44/252/122
f 33/254/123 32/240/114 46/243/117 45/255/124
f 79/256/125 61/257/126 8/258/127 65/259/21
f 84/260/128 79/256/125 65/76/21 66/77/23
f 62/261/129 84/262/128 66/263/23 5/264/130
f 67/78/24 70/81/27 78/265/1 71/179/77
f 76/266/77 78/265/1 70/267/27 58/268/77
f 57/65/131 74/269/131 76/270/77 58/66/77
f 85/271/10 53/75/132 64/272/132 93/273/10
f 56/72/10 88/274/10 97/275/10 63/73/10
f 88/276/10 85/277/10 93/278/10 97/279/10
f 91/280/87 100/281/133 99/282/134 92/283/78
f 89/284/79 92/285/78 99/286/134 105/287/135
f 90/288/86 89/289/79 105/287/135 103/290/136
f 91/280/87 90/291/86 103/290/136 100/281/133
