# Blender v2.79 (sub 6) OBJ File: 'bailarinaacortados.blend1'
# www.blender.org
mtllib guitarra1_000203.mtl
o g1_pCube6
v -0.310434 8.404575 3.107218
v -0.321840 8.172320 3.119057
v -0.116494 8.174748 3.364529
v -0.105088 8.407003 3.352690
v 0.701929 7.942335 3.994142
v 0.971119 7.999185 4.077491
v 0.998020 8.546970 4.049566
v 0.732587 8.618402 3.956831
v 5.490233 8.508463 9.503689
v 5.448840 7.665587 9.546656
v 0.306923 8.410398 3.852060
v 0.295174 8.171171 3.864254
v 0.521182 8.173329 4.124342
v 0.532839 8.412564 4.112221
v -0.128692 7.908473 2.529701
v -0.095490 8.584561 2.495237
v 0.102983 8.566360 2.329387
v 0.069781 7.890273 2.363851
v 1.406170 7.959289 3.713951
v 5.956388 7.619042 9.122537
v 5.997780 8.461917 9.079571
v 1.433071 8.507074 3.686026
v 0.719860 8.310092 2.246277
v 0.925206 8.312519 2.491749
v 0.913800 8.080265 2.503588
v 0.708454 8.077837 2.258116
v 1.343764 8.315313 2.985647
v 1.559930 8.318376 3.253958
v 1.548094 8.079156 3.266227
v 1.332016 8.076087 2.997842
v 6.981237 7.471563 8.751236
v 8.149934 7.341323 9.011202
v 8.938884 7.296753 9.706974
v 9.316935 7.339021 10.900347
v 9.140094 7.396688 11.861269
v 8.528945 7.471273 12.735658
v 7.559656 7.541621 13.181923
v 6.582091 7.589819 13.185651
v 5.473923 7.614507 12.602385
v 4.932977 7.636334 11.699374
v 4.893263 7.663042 10.496000
v 8.584594 8.604508 12.677890
v 9.195744 8.529923 11.803499
v 9.372585 8.472255 10.842578
v 8.994534 8.429987 9.649204
v 8.203567 8.433470 8.955528
v 7.030664 8.478037 8.699929
v 4.942688 8.669516 10.444695
v 4.986611 8.728482 11.643700
v 5.529575 8.747741 12.544617
v 6.637743 8.723054 13.127883
v 7.615306 8.674857 13.124153
v 0.799696 8.549326 2.670658
v 0.855494 8.561795 2.964767
v 0.822294 7.885709 2.999232
v 0.766491 7.873452 2.705036
v 0.117125 8.611921 3.241032
v 0.083863 7.936052 3.275459
v 0.363678 7.927767 3.382463
v 0.396880 8.603853 3.347998
v 0.647593 8.358322 3.889683
v 0.639581 8.193332 3.898021
v 0.682109 8.134564 2.575400
v 0.689678 8.288689 2.567544
v 0.469843 8.616314 3.662710
v 0.436642 7.940225 3.697174
v -0.138005 8.609123 2.936083
v -0.042040 8.587814 2.610500
v -0.075240 7.911726 2.644964
v -0.171207 7.933035 2.970548
v -0.078744 8.350274 3.035406
v -0.195532 8.373027 3.071680
v -0.049504 8.374754 3.246241
v 0.007050 8.351289 3.137965
v -0.058556 8.190446 3.255635
v -0.000519 8.197165 3.145822
v -0.204582 8.188718 3.081074
v -0.086313 8.196151 3.043263
v 0.541764 8.357577 3.773077
v 0.423575 8.383998 3.811813
v 0.587916 8.385438 3.998364
v 0.578080 8.183321 4.008593
v 0.413651 8.181890 3.822116
v 0.533661 8.192592 3.781486
v 0.544625 8.546522 2.365661
v 0.207016 8.564974 2.402381
v 0.173815 7.888887 2.436846
v 0.511423 7.870434 2.400125
v 1.119270 7.877625 3.126752
v 1.364706 7.881555 3.440307
v 1.395556 8.557605 3.402837
v 1.152472 8.553714 3.092288
v 0.603884 8.287673 2.464984
v 0.807948 8.296121 2.529730
v 0.661921 8.294394 2.355170
v 0.798897 8.111814 2.539126
v 0.596314 8.133551 2.472841
v 0.652870 8.110086 2.364565
v 1.220382 8.295344 3.206005
v 1.316459 8.296984 3.330760
v 1.436056 8.307658 3.289636
v 1.281467 8.305324 3.094936
v 1.308270 8.132009 3.339247
v 1.426043 8.105558 3.300014
v 1.212280 8.130360 3.214415
v 1.271542 8.103217 3.105239
vt 0.490765 0.813794
vt 0.479858 0.813794
vt 0.479858 0.798802
vt 0.490765 0.798802
vt 0.616076 0.511522
vt 0.619151 0.500416
vt 0.644876 0.500416
vt 0.647826 0.511700
vt 0.640393 0.169448
vt 0.600810 0.169448
vt 0.582271 0.814940
vt 0.571036 0.814940
vt 0.571036 0.798802
vt 0.582271 0.798802
vt 0.586269 0.830552
vt 0.586269 0.798802
vt 0.598415 0.798802
vt 0.598415 0.830552
vt 0.474138 0.589115
vt 0.476356 0.258148
vt 0.502981 0.258148
vt 0.505199 0.589115
vt 0.259064 0.707501
vt 0.256846 0.376534
vt 0.287906 0.376534
vt 0.285688 0.707501
vt 0.435681 0.813794
vt 0.435681 0.798802
vt 0.446588 0.798802
vt 0.446588 0.813794
vt 0.660312 0.169448
vt 0.699895 0.169448
vt 0.681554 0.500416
vt 0.655829 0.500416
vt 0.525283 0.814940
vt 0.525283 0.798802
vt 0.536518 0.798802
vt 0.536518 0.814940
vt 0.553558 0.606525
vt 0.588104 0.650946
vt 0.595692 0.699641
vt 0.573352 0.753896
vt 0.538028 0.783127
vt 0.489669 0.796201
vt 0.441309 0.783127
vt 0.405986 0.753896
vt 0.383645 0.699641
vt 0.391233 0.650946
vt 0.425779 0.606525
vt 0.272376 0.169448
vt 0.320735 0.182522
vt 0.356059 0.211753
vt 0.378400 0.266008
vt 0.370811 0.314703
vt 0.336265 0.359124
vt 0.208486 0.359124
vt 0.173941 0.314703
vt 0.166352 0.266008
vt 0.188693 0.211753
vt 0.224016 0.182522
vt 0.652889 0.555919
vt 0.652879 0.543671
vt 0.684630 0.543671
vt 0.684630 0.555922
vt 0.647816 0.555919
vt 0.616076 0.555922
vt 0.616076 0.543671
vt 0.647826 0.543671
vt 0.616076 0.555922
vt 0.647816 0.555919
vt 0.647826 0.511700
vt 0.684630 0.530166
vt 0.684630 0.555922
vt 0.652889 0.555919
vt 0.652879 0.530166
vt 0.647826 0.530166
vt 0.616076 0.530166
vt 0.647826 0.574545
vt 0.647826 0.583366
vt 0.616076 0.583366
vt 0.616076 0.574545
vt 0.647826 0.589115
vt 0.616076 0.589115
vt 0.475860 0.809430
vt 0.470510 0.811628
vt 0.470510 0.800967
vt 0.475860 0.803166
vt 0.342563 0.807874
vt 0.337214 0.808583
vt 0.337214 0.799927
vt 0.342563 0.800636
vt 0.461224 0.809430
vt 0.455874 0.811628
vt 0.455874 0.800967
vt 0.461224 0.803166
vt 0.327927 0.807874
vt 0.322578 0.808583
vt 0.322578 0.799927
vt 0.327927 0.800636
vt 0.566740 0.810738
vt 0.561254 0.812889
vt 0.561553 0.801247
vt 0.567038 0.803367
vt 0.402405 0.808295
vt 0.396920 0.809166
vt 0.396925 0.799675
vt 0.402411 0.800547
vt 0.551781 0.810374
vt 0.546295 0.812495
vt 0.545991 0.800852
vt 0.551477 0.803003
vt 0.387446 0.808291
vt 0.381960 0.809163
vt 0.381960 0.799672
vt 0.387446 0.800543
vt 0.317289 0.809709
vt 0.317289 0.798802
vt 0.450586 0.813794
vt 0.450586 0.798802
vt 0.331925 0.809709
vt 0.331925 0.798802
vt 0.465222 0.813794
vt 0.465222 0.798802
vt 0.376485 0.810036
vt 0.376485 0.798802
vt 0.540820 0.814940
vt 0.540516 0.798802
vt 0.391444 0.810036
vt 0.391449 0.798802
vt 0.555779 0.814940
vt 0.556077 0.798802
vt 0.251488 0.781630
vt 0.251490 0.763005
vt 0.293262 0.763005
vt 0.293263 0.781630
vt 0.264755 0.790452
vt 0.279997 0.790452
vt 0.266303 0.796201
vt 0.278449 0.796201
vt 0.482048 0.175197
vt 0.483596 0.169448
vt 0.495742 0.169448
vt 0.497289 0.175197
vt 0.468781 0.184019
vt 0.510556 0.184019
vt 0.468781 0.202641
vt 0.510556 0.202641
vt 0.475635 0.214893
vt 0.503702 0.214893
vt 0.468781 0.228398
vt 0.510556 0.228398
vt 0.469388 0.247042
vt 0.509949 0.247042
vt 0.252090 0.718786
vt 0.292662 0.718786
vt 0.251488 0.737251
vt 0.293263 0.737251
vt 0.258343 0.750756
vt 0.286409 0.750756
vt 0.706878 0.301629
vt 0.758167 0.301629
vt 0.758167 0.346050
vt 0.710901 0.346050
vt 0.700942 0.640075
vt 0.653676 0.640075
vt 0.657704 0.591716
vt 0.697287 0.591716
vt 0.704940 0.397010
vt 0.758159 0.397010
vt 0.758159 0.445370
vt 0.704940 0.445370
vt 0.704948 0.169448
vt 0.758167 0.169448
vt 0.758167 0.198679
vt 0.704948 0.198679
vt 0.758167 0.252934
vt 0.704948 0.252934
vt 0.647826 0.530166
vt 0.647816 0.555919
vt 0.616076 0.555922
vt 0.616076 0.530166
vt 0.652879 0.530166
vt 0.684630 0.530166
vt 0.652879 0.574545
vt 0.684630 0.574545
vt 0.684630 0.583366
vt 0.652879 0.583366
vt 0.684630 0.589115
vt 0.652879 0.589115
vt 0.684630 0.511522
vt 0.652879 0.511700
vt 0.421045 0.809430
vt 0.421045 0.803166
vt 0.426394 0.800967
vt 0.426394 0.811628
vt 0.302653 0.807874
vt 0.302653 0.800636
vt 0.308002 0.799927
vt 0.308002 0.808583
vt 0.406408 0.809430
vt 0.406408 0.803166
vt 0.411758 0.800967
vt 0.411758 0.811628
vt 0.288017 0.807874
vt 0.288017 0.800636
vt 0.293366 0.799927
vt 0.293366 0.808583
vt 0.510324 0.810738
vt 0.510026 0.803367
vt 0.515511 0.801247
vt 0.515810 0.812889
vt 0.361526 0.808295
vt 0.361520 0.800547
vt 0.367006 0.799675
vt 0.367011 0.809166
vt 0.494763 0.810374
vt 0.495067 0.803003
vt 0.500552 0.800852
vt 0.500248 0.812495
vt 0.346561 0.808291
vt 0.346561 0.800543
vt 0.352047 0.799672
vt 0.352047 0.809163
vt 0.298655 0.798802
vt 0.298655 0.809709
vt 0.417047 0.798802
vt 0.417047 0.813794
vt 0.313291 0.798802
vt 0.313291 0.809709
vt 0.431683 0.798802
vt 0.431683 0.813794
vt 0.357522 0.798802
vt 0.357522 0.810036
vt 0.506028 0.798802
vt 0.505724 0.814940
vt 0.372481 0.798802
vt 0.372487 0.810036
vt 0.520987 0.798802
vt 0.521285 0.814940
vt 0.813446 0.301629
vt 0.809422 0.346050
vt 0.762156 0.346050
vt 0.762156 0.301629
vt 0.649678 0.591716
vt 0.646023 0.640075
vt 0.606440 0.640075
vt 0.602412 0.591716
vt 0.704940 0.348651
vt 0.758159 0.348651
vt 0.815375 0.169448
vt 0.815375 0.198679
vt 0.762156 0.198679
vt 0.762156 0.169448
vt 0.815375 0.252934
vt 0.762156 0.252934
vt 0.647816 0.555919
vt 0.647826 0.530166
vt 0.616076 0.530166
vt 0.616076 0.555922
vt 0.616076 0.555922
vt 0.616076 0.555922
vt 0.647816 0.555919
vt 0.647826 0.530166
vt 0.616076 0.530166
vt 0.616076 0.555922
vt 0.647816 0.555919
vt 0.616076 0.530166
vt 0.647826 0.530166
vt 0.647816 0.555919
vt 0.616076 0.555922
vt 0.652889 0.555919
vt 0.684630 0.530166
vt 0.684630 0.555922
vt 0.652879 0.530166
vt 0.652889 0.555919
vt 0.684630 0.530166
vt 0.652879 0.530166
vt 0.652889 0.555919
vt 0.684630 0.555922
vt 0.652879 0.530166
vt 0.684630 0.530166
vt 0.684630 0.555922
vt 0.652889 0.555919
vt 0.684630 0.555922
vt 0.684630 0.530166
vt 0.652879 0.530166
vt 0.652889 0.555919
vt 0.684630 0.530166
vt 0.652879 0.530166
vt 0.684630 0.555922
vt 0.652889 0.555919
vn -0.7655 0.0702 0.6396
vn -0.5637 0.0704 0.8230
vn -0.3106 0.0652 0.9483
vn -0.5643 0.0703 0.8225
vn -0.7697 0.0701 0.6345
vn -0.7534 0.0701 0.6538
vn -0.6416 -0.0076 -0.7670
vn -0.0844 -0.9964 0.0083
vn 0.0577 0.9975 -0.0405
vn 0.7655 -0.0702 -0.6396
vn 0.7611 -0.0702 -0.6448
vn 0.7773 -0.0703 -0.6252
vn -0.0747 -0.9970 0.0200
vn 0.0428 0.9974 -0.0582
vn 0.9813 -0.0576 -0.1837
vn -0.3548 0.0650 0.9327
vn -0.8631 -0.1156 0.4915
vn -0.7438 0.0356 0.6675
vn -0.7425 0.0703 0.6662
vn 0.7655 -0.0702 -0.6395
vn -0.8950 0.0678 0.4409
vn -0.9730 0.0592 0.2232
vn -0.8917 0.0496 0.4500
vn -0.9579 0.2268 0.1761
vn -0.9942 0.0438 -0.0983
vn -0.9942 0.0436 -0.0983
vn -0.9794 0.0949 0.1781
vn -0.9059 0.0658 0.4183
vn 0.1491 0.9796 -0.1344
vn 0.1908 0.9669 -0.1692
vn 0.8844 -0.0197 0.4662
vn 0.8841 -0.0196 0.4669
vn 0.0520 -0.9981 -0.0336
vn 0.0945 -0.9931 -0.0693
vn -0.3024 -0.0337 -0.9526
vn -0.3031 -0.0337 -0.9524
vn 0.1653 0.9741 -0.1543
vn 0.1659 0.9741 -0.1536
vn 0.8745 -0.0180 0.4847
vn 0.8888 -0.0201 0.4579
vn 0.0686 -0.9962 -0.0541
vn 0.0694 -0.9962 -0.0535
vn -0.3179 -0.0327 -0.9476
vn -0.3263 -0.0321 -0.9447
vn -0.3258 -0.0322 -0.9449
vn -0.3037 -0.0336 -0.9522
vn 0.1115 -0.9903 -0.0834
vn 0.8838 -0.0196 0.4674
vn 0.2073 0.9610 -0.1829
vn -0.3324 -0.0317 -0.9426
vn 0.0699 -0.9961 -0.0531
vn 0.8980 -0.0215 0.4395
vn 0.1662 0.9741 -0.1531
vn 0.0492 0.9975 -0.0505
vn 0.0490 0.9975 -0.0508
vn 0.0490 0.9975 -0.0509
vn -0.0490 -0.9975 0.0508
vn -0.0490 -0.9975 0.0509
vn -0.0068 -0.9949 0.1011
vn 0.1240 -0.9593 0.2537
vn 0.0896 0.9960 -0.0021
vn 0.2097 0.9670 0.1448
vn 0.0488 0.9975 -0.0511
vn 0.0489 0.9975 -0.0510
vn 0.0487 0.9975 -0.0512
vn -0.9572 0.0614 0.2827
vn -0.9598 0.0611 0.2738
vn -0.9775 0.0374 -0.2076
vn -0.9786 0.0377 -0.2021
vn -0.8630 0.0166 -0.5050
vn 0.4196 0.0256 0.9073
vn 0.2272 0.0384 0.9731
vn -0.2651 0.0621 0.9622
vn -0.6648 0.0706 0.7437
vn -0.6623 0.0705 0.7459
vn -0.7654 0.0702 0.6397
vn -0.7654 0.0703 0.6397
vn 0.6359 -0.0587 -0.7695
vn 0.5829 -0.0704 -0.8095
vn 0.3922 -0.0660 -0.9175
vn 0.3157 -0.0637 -0.9467
vn 0.3158 -0.0637 -0.9467
vn 0.0793 -0.0546 -0.9953
vn 0.0793 -0.0544 -0.9954
vn 0.5723 -0.0698 -0.8170
vn 0.9224 -0.0575 -0.3819
vn 0.9383 -0.0169 -0.3454
vn 0.9890 -0.0540 -0.1376
vn -0.0520 0.9981 0.0336
vn -0.0945 0.9931 0.0693
vn 0.3024 0.0337 0.9526
vn 0.3031 0.0337 0.9524
vn -0.1491 -0.9796 0.1344
vn -0.1908 -0.9669 0.1692
vn -0.8844 0.0197 -0.4662
vn -0.8841 0.0196 -0.4669
vn -0.0748 0.9961 0.0463
vn -0.0742 0.9961 0.0470
vn -0.0740 0.9961 0.0473
vn 0.3224 0.0326 0.9460
vn 0.2935 0.0345 0.9553
vn -0.1718 -0.9741 0.1468
vn -0.1713 -0.9741 0.1477
vn -0.8768 0.0186 -0.4805
vn -0.8726 0.0180 -0.4882
vn -0.8838 0.0196 -0.4674
vn -0.2073 -0.9610 0.1829
vn 0.3037 0.0336 0.9522
vn -0.1115 0.9903 0.0835
vn -0.8693 0.0175 -0.4939
vn -0.1710 -0.9741 0.1482
vn 0.2738 0.0358 0.9611
vn -0.0738 0.9961 0.0475
vn 0.4479 -0.0674 -0.8915
vn -0.0257 -0.0497 -0.9984
vn -0.0313 -0.0494 -0.9983
vn 0.4397 -0.0672 -0.8956
vn -0.3444 -0.0309 -0.9383
vn 0.8191 -0.0110 0.5735
vn 0.9180 -0.0249 0.3958
vn 0.9945 -0.0534 -0.0903
vn 0.8518 -0.0683 -0.5193
vn 0.8501 -0.0684 -0.5222
vn -0.7481 0.0720 0.6597
vn -0.7425 0.0742 0.6658
vn -0.7529 0.0421 0.6568
vn -0.7481 0.0688 0.6600
vn -0.7427 0.0668 0.6663
vn -0.7150 -0.2145 0.6654
vn 0.7655 -0.0701 -0.6396
vn 0.7875 -0.0684 -0.6125
vn 0.7823 -0.0684 -0.6191
vn 0.7822 -0.0715 -0.6189
vn 0.7874 -0.0715 -0.6123
usemtl initialShadingGroup.001
s off
f 1/1/1 2/2/1 3/3/1 4/4/1
f 5/5/2 6/6/3 7/7/3 8/8/4
f 9/9/5 7/7/5 6/6/5 10/10/5
f 11/11/6 12/12/6 13/13/6 14/14/6
f 15/15/7 16/16/7 17/17/7 18/18/7
f 10/19/8 6/20/8 19/21/8 20/22/8
f 7/23/9 9/24/9 21/25/9 22/26/9
f 23/27/10 24/28/10 25/29/10 26/30/10
f 21/31/11 20/32/11 19/33/11 22/34/11
f 27/35/12 28/36/12 29/37/12 30/38/12
f 10/19/13 20/22/13 31/39/13 32/40/13 33/41/13 34/42/13 35/43/13 36/44/13 37/45/13 38/46/13 39/47/13 40/48/13 41/49/13
f 42/50/14 43/51/14 44/52/14 45/53/14 46/54/14 47/55/14 21/25/14 9/24/14 48/56/14 49/57/14 50/58/14 51/59/14 52/60/14
f 53/61/15 54/62/15 55/63/15 56/64/15
f 57/65/16 58/66/16 59/67/16 60/68/16
f 5/5/17 8/69/18 61/70/19 62/71/19
f 56/72/20 63/73/20 64/74/20 53/75/20
s 1
f 65/76/21 60/68/22 59/67/22 66/77/23
f 67/78/24 68/79/25 69/80/26 70/81/27
f 68/79/25 16/82/28 15/83/28 69/80/26
f 71/84/29 72/85/30 73/86/30 74/87/29
f 74/88/31 73/89/32 75/90/32 76/91/31
f 76/92/33 75/93/34 77/94/34 78/95/33
f 78/96/35 77/97/36 72/98/36 71/99/35
f 79/100/37 80/101/38 81/102/38 61/103/37
f 61/104/39 81/105/40 82/106/40 62/107/39
f 62/108/41 82/109/42 83/110/42 84/111/41
f 84/112/43 83/113/44 80/114/45 79/115/43
f 77/97/36 2/116/46 1/117/46 72/98/36
f 75/93/34 3/118/47 2/119/47 77/94/34
f 73/89/32 4/120/48 3/121/48 75/90/32
f 72/85/30 1/122/49 4/123/49 73/86/30
f 83/113/44 12/124/50 11/125/50 80/114/45
f 82/109/42 13/126/51 12/127/51 83/110/42
f 81/105/40 14/128/52 13/129/52 82/106/40
f 80/101/38 11/130/53 14/131/53 81/102/38
f 67/132/54 57/133/55 53/134/55 85/135/54
f 68/136/56 67/132/54 85/135/54 86/137/56
f 16/138/56 68/136/56 86/137/56 17/139/56
f 69/140/57 15/141/58 18/142/58 87/143/57
f 70/144/57 69/140/57 87/143/57 88/145/57
f 58/146/57 70/144/57 88/145/57 56/147/57
f 59/148/58 58/146/58 56/147/58 55/149/58
f 66/150/57 59/148/57 55/149/57 89/151/57
f 5/152/59 66/150/57 89/151/57 90/153/59
f 6/20/60 5/152/59 90/153/59 19/21/60
f 8/154/61 7/23/62 22/26/62 91/155/61
f 65/156/55 8/154/61 91/155/61 92/157/55
f 60/158/63 65/156/55 92/157/55 54/159/63
f 57/133/64 60/158/65 54/159/65 53/134/64
f 40/160/66 49/161/67 48/162/68 41/163/69
f 41/164/69 48/165/68 9/166/70 10/167/70
f 36/168/71 42/169/71 52/170/72 37/171/72
f 37/172/72 52/173/72 51/174/73 38/175/73
f 38/175/73 51/174/73 50/176/74 39/177/75
f 39/177/75 50/176/74 49/161/67 40/160/66
f 67/178/24 71/179/76 74/180/77 57/181/77
f 92/182/78 89/183/79 55/63/80 54/62/80
f 85/184/81 88/185/82 87/186/83 86/187/84
f 86/187/84 87/186/83 18/188/85 17/189/85
f 90/190/86 91/191/87 22/34/88 19/33/88
f 93/192/89 64/193/89 94/194/90 95/195/90
f 64/196/91 63/197/91 96/198/92 94/199/92
f 63/200/93 97/201/93 98/202/94 96/203/94
f 97/204/95 93/205/95 95/206/96 98/207/96
f 99/208/97 100/209/97 101/210/98 102/211/99
f 100/212/100 103/213/100 104/214/101 101/215/101
f 103/216/102 105/217/102 106/218/103 104/219/103
f 105/220/104 99/221/104 102/222/105 106/223/105
f 98/207/96 95/206/96 23/224/106 26/225/106
f 96/203/94 98/202/94 26/226/107 25/227/107
f 94/199/92 96/198/92 25/228/108 24/229/108
f 95/195/90 94/194/90 24/230/109 23/231/109
f 106/223/105 102/222/105 27/232/110 30/233/110
f 104/219/103 106/218/103 30/234/111 29/235/111
f 101/215/101 104/214/101 29/236/112 28/237/112
f 102/211/99 101/210/98 28/238/113 27/239/113
f 32/240/114 31/241/115 47/242/116 46/243/117
f 31/244/115 20/245/118 21/246/118 47/247/116
f 36/168/119 35/248/120 43/249/120 42/169/119
f 35/250/120 34/251/121 44/252/121 43/253/120
f 34/251/121 33/254/122 45/255/123 44/252/121
f 33/254/122 32/240/114 46/243/117 45/255/123
f 79/256/124 61/257/125 8/258/126 65/259/21
f 84/260/127 79/256/124 65/76/21 66/77/23
f 62/261/128 84/262/127 66/263/23 5/264/129
f 67/78/24 70/81/27 78/265/1 71/179/76
f 76/266/76 78/265/1 70/267/27 58/268/76
f 57/65/76 74/269/76 76/270/76 58/66/76
f 85/271/130 53/75/130 64/272/130 93/273/10
f 56/72/10 88/274/10 97/275/10 63/73/10
f 88/276/10 85/277/130 93/278/10 97/279/10
f 91/280/87 100/281/131 99/282/132 92/283/78
f 89/284/79 92/285/78 99/286/132 105/287/133
f 90/288/86 89/289/79 105/287/133 103/290/134
f 91/280/87 90/291/86 103/290/134 100/281/131
