# Blender v2.79 (sub 6) OBJ File: 'bailarinaacortados.blend1'
# www.blender.org
mtllib guitarra1_000208.mtl
o g1_pCube6
v -0.579762 6.324584 1.879824
v -0.430871 6.365820 1.705628
v -0.482038 6.680254 1.736329
v -0.630930 6.639018 1.910524
v -0.680361 7.694505 1.507840
v -0.872111 7.907129 1.482036
v -1.223276 7.809868 1.892884
v -1.113072 7.570725 2.014631
v -2.256037 14.770924 2.530131
v -1.715700 14.920575 1.897963
v -0.730049 7.275627 1.974070
v -0.576690 7.318103 1.794646
v -0.636646 7.656194 1.823437
v -0.789917 7.613725 2.002936
v -0.643613 6.049472 1.149817
v -1.077029 5.929432 1.656893
v -1.272015 5.914325 1.486655
v -0.838600 6.034363 0.979580
v -1.299519 7.874012 1.108876
v -2.214330 14.881941 1.462620
v -2.754667 14.732288 2.094789
v -1.650684 7.776752 1.519723
v -1.591955 6.246155 0.996101
v -1.643123 6.560590 1.026802
v -1.494232 6.601827 0.852606
v -1.443064 6.287394 0.821905
v -1.748674 7.196701 1.084731
v -1.798963 7.535541 1.121962
v -1.645517 7.578023 0.942614
v -1.595315 7.239177 0.905307
v -3.000185 15.200745 0.762100
v -3.651442 16.104612 0.304624
v -3.913117 17.123755 0.267163
v -3.739639 18.289425 0.691390
v -3.272338 18.946411 1.246338
v -2.540625 19.280766 1.950912
v -1.719669 19.066717 2.601938
v -1.052845 18.497604 3.037168
v -0.509033 17.387512 3.239192
v -0.491003 16.349491 3.063931
v -0.948894 15.359684 2.553035
v -3.267099 19.079556 2.800854
v -3.998814 18.745201 2.096281
v -4.466115 18.088217 1.541333
v -4.639594 16.922546 1.117105
v -4.351577 15.910700 1.123750
v -3.645398 15.022043 1.516970
v -1.594107 15.180984 3.307905
v -1.191138 16.155581 3.883056
v -1.235509 17.186306 4.089133
v -1.779322 18.296396 3.887110
v -2.446144 18.865509 3.451881
v -1.622969 6.592154 1.346857
v -1.554900 6.857529 1.468150
v -1.121485 6.977570 0.961075
v -1.189709 6.712088 0.839913
v -0.952389 6.644113 1.932323
v -0.519073 6.764050 1.425429
v -0.670927 7.012481 1.354446
v -1.104342 6.892440 1.861521
v -0.926531 7.510914 1.812148
v -0.820854 7.540202 1.688332
v -1.333601 6.516593 1.022073
v -1.432406 6.489228 1.137670
v -1.040394 7.184201 1.985249
v -0.606979 7.304241 1.478174
v -0.888930 6.253440 1.894369
v -1.071802 6.051930 1.690359
v -0.638388 6.171970 1.183285
v -0.455516 6.373478 1.387295
v -0.740391 6.409818 1.710357
v -0.656686 6.367678 1.792151
v -0.693072 6.591280 1.813982
v -0.761770 6.541191 1.723186
v -0.574920 6.624003 1.675751
v -0.662966 6.568555 1.607589
v -0.538532 6.400402 1.653917
v -0.641587 6.437183 1.594762
v -0.896586 7.356701 1.801237
v -0.813073 7.315115 1.887627
v -0.857599 7.558924 1.907286
v -0.728124 7.594801 1.755629
v -0.683511 7.351001 1.736044
v -0.790820 7.385994 1.677495
v -1.559566 6.201477 1.308852
v -1.316483 6.032970 1.476734
v -0.883069 6.153011 0.969661
v -1.126152 6.321516 0.801778
v -1.277614 7.252278 0.892658
v -1.331494 7.644053 0.939350
v -1.764393 7.520259 1.445976
v -1.711030 7.132239 1.399733
v -1.411027 6.357856 1.124840
v -1.535461 6.526009 1.078513
v -1.499074 6.302407 1.056682
v -1.417308 6.558733 0.940280
v -1.312223 6.385221 1.009246
v -1.380920 6.335132 0.918447
v -1.563282 7.305043 1.219159
v -1.583646 7.459998 1.238435
v -1.690838 7.494363 1.179804
v -1.655893 7.249812 1.151781
v -1.477795 7.489301 1.114772
v -1.561189 7.530253 1.028299
v -1.457516 7.334336 1.095419
v -1.526330 7.285696 1.000198
vt 0.490765 0.813794
vt 0.479858 0.813794
vt 0.479858 0.798802
vt 0.490765 0.798802
vt 0.616076 0.511522
vt 0.619151 0.500416
vt 0.644876 0.500416
vt 0.647826 0.511700
vt 0.640393 0.169448
vt 0.600810 0.169448
vt 0.582271 0.814940
vt 0.571036 0.814940
vt 0.571036 0.798802
vt 0.582271 0.798802
vt 0.586269 0.830552
vt 0.586269 0.798802
vt 0.598415 0.798802
vt 0.598415 0.830552
vt 0.474138 0.589115
vt 0.476356 0.258148
vt 0.502981 0.258148
vt 0.505199 0.589115
vt 0.259064 0.707501
vt 0.256846 0.376534
vt 0.287906 0.376534
vt 0.285688 0.707501
vt 0.435681 0.813794
vt 0.435681 0.798802
vt 0.446588 0.798802
vt 0.446588 0.813794
vt 0.660312 0.169448
vt 0.699895 0.169448
vt 0.681554 0.500416
vt 0.655829 0.500416
vt 0.525283 0.814940
vt 0.525283 0.798802
vt 0.536518 0.798802
vt 0.536518 0.814940
vt 0.553558 0.606525
vt 0.588104 0.650946
vt 0.595692 0.699641
vt 0.573352 0.753896
vt 0.538028 0.783127
vt 0.489669 0.796201
vt 0.441309 0.783127
vt 0.405986 0.753896
vt 0.383645 0.699641
vt 0.391233 0.650946
vt 0.425779 0.606525
vt 0.272376 0.169448
vt 0.320735 0.182522
vt 0.356059 0.211753
vt 0.378400 0.266008
vt 0.370811 0.314703
vt 0.336265 0.359124
vt 0.208486 0.359124
vt 0.173941 0.314703
vt 0.166352 0.266008
vt 0.188693 0.211753
vt 0.224016 0.182522
vt 0.652889 0.555919
vt 0.652879 0.543671
vt 0.684630 0.543671
vt 0.684630 0.555922
vt 0.647816 0.555919
vt 0.616076 0.555922
vt 0.616076 0.543671
vt 0.647826 0.543671
vt 0.616076 0.555922
vt 0.647816 0.555919
vt 0.647826 0.511700
vt 0.684630 0.530166
vt 0.684630 0.555922
vt 0.652889 0.555919
vt 0.652879 0.530166
vt 0.647826 0.530166
vt 0.616076 0.530166
vt 0.647826 0.574545
vt 0.647826 0.583366
vt 0.616076 0.583366
vt 0.616076 0.574545
vt 0.647826 0.589115
vt 0.616076 0.589115
vt 0.475860 0.809430
vt 0.470510 0.811628
vt 0.470510 0.800967
vt 0.475860 0.803166
vt 0.342563 0.807874
vt 0.337214 0.808583
vt 0.337214 0.799927
vt 0.342563 0.800636
vt 0.461224 0.809430
vt 0.455874 0.811628
vt 0.455874 0.800967
vt 0.461224 0.803166
vt 0.327927 0.807874
vt 0.322578 0.808583
vt 0.322578 0.799927
vt 0.327927 0.800636
vt 0.566740 0.810738
vt 0.561254 0.812889
vt 0.561553 0.801247
vt 0.567038 0.803367
vt 0.402405 0.808295
vt 0.396920 0.809166
vt 0.396925 0.799675
vt 0.402411 0.800547
vt 0.551781 0.810374
vt 0.546295 0.812495
vt 0.545991 0.800852
vt 0.551477 0.803003
vt 0.387446 0.808291
vt 0.381960 0.809163
vt 0.381960 0.799672
vt 0.387446 0.800543
vt 0.317289 0.809709
vt 0.317289 0.798802
vt 0.450586 0.813794
vt 0.450586 0.798802
vt 0.331925 0.809709
vt 0.331925 0.798802
vt 0.465222 0.813794
vt 0.465222 0.798802
vt 0.376485 0.810036
vt 0.376485 0.798802
vt 0.540820 0.814940
vt 0.540516 0.798802
vt 0.391444 0.810036
vt 0.391449 0.798802
vt 0.555779 0.814940
vt 0.556077 0.798802
vt 0.251488 0.781630
vt 0.251490 0.763005
vt 0.293262 0.763005
vt 0.293263 0.781630
vt 0.264755 0.790452
vt 0.279997 0.790452
vt 0.266303 0.796201
vt 0.278449 0.796201
vt 0.482048 0.175197
vt 0.483596 0.169448
vt 0.495742 0.169448
vt 0.497289 0.175197
vt 0.468781 0.184019
vt 0.510556 0.184019
vt 0.468781 0.202641
vt 0.510556 0.202641
vt 0.475635 0.214893
vt 0.503702 0.214893
vt 0.468781 0.228398
vt 0.510556 0.228398
vt 0.469388 0.247042
vt 0.509949 0.247042
vt 0.252090 0.718786
vt 0.292662 0.718786
vt 0.251488 0.737251
vt 0.293263 0.737251
vt 0.258343 0.750756
vt 0.286409 0.750756
vt 0.706878 0.301629
vt 0.758167 0.301629
vt 0.758167 0.346050
vt 0.710901 0.346050
vt 0.700942 0.640075
vt 0.653676 0.640075
vt 0.657704 0.591716
vt 0.697287 0.591716
vt 0.704940 0.397010
vt 0.758159 0.397010
vt 0.758159 0.445370
vt 0.704940 0.445370
vt 0.704948 0.169448
vt 0.758167 0.169448
vt 0.758167 0.198679
vt 0.704948 0.198679
vt 0.758167 0.252934
vt 0.704948 0.252934
vt 0.647826 0.530166
vt 0.647816 0.555919
vt 0.616076 0.555922
vt 0.616076 0.530166
vt 0.652879 0.530166
vt 0.684630 0.530166
vt 0.652879 0.574545
vt 0.684630 0.574545
vt 0.684630 0.583366
vt 0.652879 0.583366
vt 0.684630 0.589115
vt 0.652879 0.589115
vt 0.684630 0.511522
vt 0.652879 0.511700
vt 0.421045 0.809430
vt 0.421045 0.803166
vt 0.426394 0.800967
vt 0.426394 0.811628
vt 0.302653 0.807874
vt 0.302653 0.800636
vt 0.308002 0.799927
vt 0.308002 0.808583
vt 0.406408 0.809430
vt 0.406408 0.803166
vt 0.411758 0.800967
vt 0.411758 0.811628
vt 0.288017 0.807874
vt 0.288017 0.800636
vt 0.293366 0.799927
vt 0.293366 0.808583
vt 0.510324 0.810738
vt 0.510026 0.803367
vt 0.515511 0.801247
vt 0.515810 0.812889
vt 0.361526 0.808295
vt 0.361520 0.800547
vt 0.367006 0.799675
vt 0.367011 0.809166
vt 0.494763 0.810374
vt 0.495067 0.803003
vt 0.500552 0.800852
vt 0.500248 0.812495
vt 0.346561 0.808291
vt 0.346561 0.800543
vt 0.352047 0.799672
vt 0.352047 0.809163
vt 0.298655 0.798802
vt 0.298655 0.809709
vt 0.417047 0.798802
vt 0.417047 0.813794
vt 0.313291 0.798802
vt 0.313291 0.809709
vt 0.431683 0.798802
vt 0.431683 0.813794
vt 0.357522 0.798802
vt 0.357522 0.810036
vt 0.506028 0.798802
vt 0.505724 0.814940
vt 0.372481 0.798802
vt 0.372487 0.810036
vt 0.520987 0.798802
vt 0.521285 0.814940
vt 0.813446 0.301629
vt 0.809422 0.346050
vt 0.762156 0.346050
vt 0.762156 0.301629
vt 0.649678 0.591716
vt 0.646023 0.640075
vt 0.606440 0.640075
vt 0.602412 0.591716
vt 0.704940 0.348651
vt 0.758159 0.348651
vt 0.815375 0.169448
vt 0.815375 0.198679
vt 0.762156 0.198679
vt 0.762156 0.169448
vt 0.815375 0.252934
vt 0.762156 0.252934
vt 0.647816 0.555919
vt 0.647826 0.530166
vt 0.616076 0.530166
vt 0.616076 0.555922
vt 0.616076 0.555922
vt 0.616076 0.555922
vt 0.647816 0.555919
vt 0.647826 0.530166
vt 0.616076 0.530166
vt 0.616076 0.555922
vt 0.647816 0.555919
vt 0.616076 0.530166
vt 0.647826 0.530166
vt 0.647816 0.555919
vt 0.616076 0.555922
vt 0.652889 0.555919
vt 0.684630 0.530166
vt 0.684630 0.555922
vt 0.652879 0.530166
vt 0.652889 0.555919
vt 0.684630 0.530166
vt 0.652879 0.530166
vt 0.652889 0.555919
vt 0.684630 0.555922
vt 0.652879 0.530166
vt 0.684630 0.530166
vt 0.684630 0.555922
vt 0.652889 0.555919
vt 0.684630 0.555922
vt 0.684630 0.530166
vt 0.652879 0.530166
vt 0.652889 0.555919
vt 0.684630 0.530166
vt 0.652879 0.530166
vt 0.684630 0.555922
vt 0.652889 0.555919
vn 0.7520 0.0583 0.6566
vn 0.6804 0.3214 0.6587
vn 0.5529 0.5685 0.6092
vn 0.6807 0.3206 0.6587
vn 0.7531 0.0517 0.6559
vn 0.7491 0.0766 0.6581
vn 0.1599 -0.9825 -0.0959
vn 0.6473 0.1225 -0.7523
vn -0.6416 -0.1638 0.7494
vn -0.7520 -0.0583 -0.6566
vn -0.7509 -0.0649 -0.6572
vn -0.7547 -0.0399 -0.6548
vn 0.6454 0.1376 -0.7514
vn -0.6379 -0.1865 0.7472
vn -0.7343 0.4288 -0.5261
vn 0.5782 0.5305 0.6198
vn 0.8724 -0.0859 0.4813
vn 0.7678 0.0988 0.6330
vn 0.7460 0.0927 0.6594
vn -0.7521 -0.0582 -0.6565
vn 0.7676 -0.1750 0.6165
vn 0.7429 -0.3927 0.5421
vn 0.7795 -0.1629 0.6049
vn 0.6155 -0.4494 0.6475
vn 0.6413 -0.6596 0.3920
vn 0.6414 -0.6596 0.3919
vn 0.7089 -0.4384 0.5524
vn 0.7677 -0.1991 0.6091
vn -0.7327 -0.1832 0.6554
vn -0.7684 -0.1849 0.6126
vn -0.7684 -0.1849 0.6127
vn -0.4338 0.8865 -0.1609
vn -0.4333 0.8869 -0.1604
vn 0.5352 0.1679 -0.8279
vn 0.4881 0.1631 -0.8574
vn -0.1380 -0.9308 -0.3383
vn -0.1375 -0.9311 -0.3379
vn -0.7487 -0.1889 0.6354
vn -0.7488 -0.1879 0.6355
vn -0.7488 -0.1880 0.6355
vn -0.4204 0.8953 -0.1471
vn -0.4399 0.8824 -0.1668
vn -0.4398 0.8825 -0.1667
vn 0.5142 0.1608 -0.8424
vn 0.5139 0.1618 -0.8425
vn -0.1257 -0.9359 -0.3290
vn -0.1190 -0.9386 -0.3239
vn -0.1193 -0.9384 -0.3242
vn -0.1370 -0.9313 -0.3376
vn 0.4689 0.1611 -0.8685
vn -0.4329 0.8871 -0.1600
vn -0.7820 -0.1854 0.5950
vn -0.1140 -0.9405 -0.3201
vn 0.5137 0.1624 -0.8425
vn -0.4527 0.8733 -0.1799
vn -0.7489 -0.1874 0.6356
vn -0.6395 -0.1767 0.7482
vn -0.6395 -0.1770 0.7482
vn -0.6395 -0.1771 0.7481
vn 0.6395 0.1771 -0.7481
vn 0.6276 0.2412 -0.7402
vn 0.5736 0.4329 -0.6954
vn -0.6483 -0.1145 0.7527
vn -0.6591 0.0771 0.7481
vn -0.6483 -0.1144 0.7527
vn -0.6394 -0.1774 0.7481
vn -0.6394 -0.1773 0.7481
vn -0.6394 -0.1776 0.7481
vn 0.7537 -0.3365 0.5646
vn 0.7523 -0.3450 0.5613
vn 0.5905 -0.7363 0.3303
vn 0.5933 -0.7326 0.3336
vn 0.4052 -0.9046 0.1321
vn 0.0419 0.9636 0.2640
vn 0.1967 0.9031 0.3818
vn 0.1967 0.9030 0.3819
vn 0.5279 0.6063 0.5947
vn 0.5278 0.6063 0.5948
vn 0.7210 0.1995 0.6636
vn 0.7201 0.2028 0.6635
vn -0.7176 -0.2388 -0.6542
vn -0.6887 -0.2994 -0.6603
vn -0.5982 -0.4966 -0.6289
vn -0.5567 -0.5645 -0.6094
vn -0.5568 -0.5644 -0.6095
vn -0.4134 -0.7413 -0.5288
vn -0.4135 -0.7413 -0.5287
vn -0.6846 -0.3117 -0.6589
vn -0.7701 0.2363 -0.5926
vn -0.7909 0.2680 -0.5502
vn -0.7239 0.4696 -0.5055
vn -0.5352 -0.1679 0.8279
vn -0.4881 -0.1631 0.8574
vn 0.1380 0.9309 0.3383
vn 0.1375 0.9311 0.3379
vn 0.7327 0.1832 -0.6554
vn 0.7684 0.1849 -0.6127
vn 0.4338 -0.8865 0.1609
vn 0.4333 -0.8869 0.1604
vn -0.5128 -0.1706 0.8414
vn -0.5130 -0.1697 0.8415
vn -0.5131 -0.1693 0.8415
vn 0.1219 0.9373 0.3264
vn 0.1449 0.9278 0.3438
vn 0.7504 0.1791 -0.6362
vn 0.7504 0.1801 -0.6360
vn 0.4234 -0.8934 0.1504
vn 0.4178 -0.8970 0.1447
vn 0.4329 -0.8871 0.1600
vn 0.7820 0.1854 -0.5950
vn 0.1370 0.9313 0.3376
vn -0.4689 -0.1611 0.8685
vn 0.4135 -0.8996 0.1404
vn 0.7504 0.1807 -0.6358
vn 0.1605 0.9208 0.3554
vn -0.5131 -0.1691 0.8415
vn -0.6268 -0.4434 -0.6407
vn -0.3430 -0.8052 -0.4838
vn -0.3391 -0.8084 -0.4812
vn -0.6227 -0.4515 -0.6391
vn -0.1043 -0.9441 -0.3127
vn -0.3506 0.9332 -0.0787
vn -0.4820 0.8505 -0.2107
vn -0.7096 0.5105 -0.4857
vn -0.7096 0.5105 -0.4856
vn -0.7674 0.0875 -0.6352
vn -0.7672 0.0842 -0.6358
vn 0.7465 0.0841 0.6601
vn 0.7436 0.0918 0.6623
vn 0.7663 0.0839 0.6370
vn 0.7485 0.0848 0.6577
vn 0.7483 0.0933 0.6568
vn 0.8932 0.1550 0.4221
vn 0.7520 0.0584 0.6566
vn -0.7520 -0.0582 -0.6565
vn -0.7581 -0.0241 -0.6517
vn -0.7570 -0.0324 -0.6526
vn -0.7550 -0.0317 -0.6550
vn -0.7561 -0.0235 -0.6540
usemtl initialShadingGroup.001
s off
f 1/1/1 2/2/1 3/3/1 4/4/1
f 5/5/2 6/6/3 7/7/3 8/8/4
f 9/9/5 7/7/5 6/6/5 10/10/5
f 11/11/6 12/12/6 13/13/6 14/14/6
f 15/15/7 16/16/7 17/17/7 18/18/7
f 10/19/8 6/20/8 19/21/8 20/22/8
f 7/23/9 9/24/9 21/25/9 22/26/9
f 23/27/10 24/28/10 25/29/10 26/30/10
f 21/31/11 20/32/11 19/33/11 22/34/11
f 27/35/12 28/36/12 29/37/12 30/38/12
f 10/19/13 20/22/13 31/39/13 32/40/13 33/41/13 34/42/13 35/43/13 36/44/13 37/45/13 38/46/13 39/47/13 40/48/13 41/49/13
f 42/50/14 43/51/14 44/52/14 45/53/14 46/54/14 47/55/14 21/25/14 9/24/14 48/56/14 49/57/14 50/58/14 51/59/14 52/60/14
f 53/61/15 54/62/15 55/63/15 56/64/15
f 57/65/16 58/66/16 59/67/16 60/68/16
f 5/5/17 8/69/18 61/70/19 62/71/19
f 56/72/20 63/73/20 64/74/20 53/75/20
s 1
f 65/76/21 60/68/22 59/67/22 66/77/23
f 67/78/24 68/79/25 69/80/26 70/81/27
f 68/79/25 16/82/28 15/83/28 69/80/26
f 71/84/29 72/85/30 73/86/31 74/87/29
f 74/88/32 73/89/33 75/90/33 76/91/32
f 76/92/34 75/93/35 77/94/35 78/95/34
f 78/96/36 77/97/37 72/98/37 71/99/36
f 79/100/38 80/101/39 81/102/40 61/103/38
f 61/104/41 81/105/42 82/106/43 62/107/41
f 62/108/44 82/109/45 83/110/45 84/111/44
f 84/112/46 83/113/47 80/114/48 79/115/46
f 77/97/37 2/116/49 1/117/49 72/98/37
f 75/93/35 3/118/50 2/119/50 77/94/35
f 73/89/33 4/120/51 3/121/51 75/90/33
f 72/85/30 1/122/52 4/123/52 73/86/31
f 83/113/47 12/124/53 11/125/53 80/114/48
f 82/109/45 13/126/54 12/127/54 83/110/45
f 81/105/42 14/128/55 13/129/55 82/106/43
f 80/101/39 11/130/56 14/131/56 81/102/40
f 67/132/57 57/133/58 53/134/58 85/135/57
f 68/136/59 67/132/57 85/135/57 86/137/59
f 16/138/59 68/136/59 86/137/59 17/139/59
f 69/140/60 15/141/60 18/142/60 87/143/60
f 70/144/60 69/140/60 87/143/60 88/145/60
f 58/146/60 70/144/60 88/145/60 56/147/60
f 59/148/60 58/146/60 56/147/60 55/149/60
f 66/150/60 59/148/60 55/149/60 89/151/60
f 5/152/61 66/150/60 89/151/60 90/153/61
f 6/20/62 5/152/61 90/153/61 19/21/62
f 8/154/63 7/23/64 22/26/64 91/155/65
f 65/156/59 8/154/63 91/155/65 92/157/59
f 60/158/66 65/156/59 92/157/59 54/159/66
f 57/133/67 60/158/68 54/159/68 53/134/67
f 40/160/69 49/161/70 48/162/71 41/163/72
f 41/164/72 48/165/71 9/166/73 10/167/73
f 36/168/74 42/169/74 52/170/75 37/171/76
f 37/172/76 52/173/75 51/174/77 38/175/78
f 38/175/78 51/174/77 50/176/79 39/177/80
f 39/177/80 50/176/79 49/161/70 40/160/69
f 67/178/24 71/179/1 74/180/1 57/181/1
f 92/182/81 89/183/82 55/63/83 54/62/83
f 85/184/84 88/185/85 87/186/86 86/187/87
f 86/187/87 87/186/86 18/188/88 17/189/88
f 90/190/89 91/191/90 22/34/91 19/33/91
f 93/192/92 64/193/92 94/194/93 95/195/93
f 64/196/94 63/197/94 96/198/95 94/199/95
f 63/200/96 97/201/96 98/202/97 96/203/97
f 97/204/98 93/205/98 95/206/99 98/207/99
f 99/208/100 100/209/100 101/210/101 102/211/102
f 100/212/103 103/213/103 104/214/104 101/215/104
f 103/216/105 105/217/105 106/218/106 104/219/106
f 105/220/107 99/221/107 102/222/108 106/223/108
f 98/207/99 95/206/99 23/224/109 26/225/109
f 96/203/97 98/202/97 26/226/110 25/227/110
f 94/199/95 96/198/95 25/228/111 24/229/111
f 95/195/93 94/194/93 24/230/112 23/231/112
f 106/223/108 102/222/108 27/232/113 30/233/113
f 104/219/106 106/218/106 30/234/114 29/235/114
f 101/215/104 104/214/104 29/236/115 28/237/115
f 102/211/102 101/210/101 28/238/116 27/239/116
f 32/240/117 31/241/118 47/242/119 46/243/120
f 31/244/118 20/245/121 21/246/121 47/247/119
f 36/168/122 35/248/123 43/249/123 42/169/122
f 35/250/123 34/251/124 44/252/125 43/253/123
f 34/251/124 33/254/126 45/255/127 44/252/125
f 33/254/126 32/240/117 46/243/120 45/255/127
f 79/256/128 61/257/129 8/258/130 65/259/21
f 84/260/131 79/256/128 65/76/21 66/77/23
f 62/261/132 84/262/131 66/263/23 5/264/133
f 67/78/24 70/81/27 78/265/1 71/179/1
f 76/266/1 78/265/1 70/267/27 58/268/1
f 57/65/134 74/269/134 76/270/1 58/66/1
f 85/271/20 53/75/20 64/272/20 93/273/135
f 56/72/10 88/274/10 97/275/10 63/73/10
f 88/276/10 85/277/20 93/278/135 97/279/10
f 91/280/90 100/281/136 99/282/137 92/283/81
f 89/284/82 92/285/81 99/286/137 105/287/138
f 90/288/89 89/289/82 105/287/138 103/290/139
f 91/280/90 90/291/89 103/290/139 100/281/136
