# Blender v2.79 (sub 6) OBJ File: 'bailarinaacortados.blend1'
# www.blender.org
mtllib guitarra1_000209.mtl
o g1_pCube6
v -1.987603 5.159443 0.830045
v -1.843451 5.209911 0.654301
v -1.894045 5.522237 0.702489
v -2.038198 5.471769 0.878235
v -2.099250 6.546452 0.531849
v -2.291799 6.759696 0.522132
v -2.631789 6.640663 0.936631
v -2.518173 6.395822 1.042937
v -3.653028 13.557444 1.958462
v -3.129885 13.740596 1.320672
v -2.136122 6.104049 0.977066
v -1.987643 6.156032 0.796048
v -2.047093 6.492063 0.843780
v -2.195482 6.440082 1.024873
v -2.070689 4.922086 0.088809
v -2.490311 4.775176 0.600393
v -2.689760 4.768409 0.434854
v -2.270138 4.915318 -0.076731
v -2.728988 6.744861 0.159271
v -3.639925 13.723291 0.897345
v -4.163068 13.540138 1.535135
v -3.068978 6.625829 0.573770
v -3.022961 5.124311 -0.029288
v -3.073556 5.436637 0.018903
v -2.929402 5.487105 -0.156843
v -2.878808 5.174780 -0.205031
v -3.178058 6.068694 0.112273
v -3.227620 6.405059 0.168213
v -3.079052 6.457047 -0.012732
v -3.029579 6.120677 -0.068746
v -4.444468 14.075946 0.235321
v -5.108466 15.000694 -0.157546
v -5.371908 16.019831 -0.135541
v -5.188147 17.162531 0.343333
v -4.706751 17.791149 0.918714
v -3.956770 18.090460 1.619831
v -3.118547 17.845039 2.236899
v -2.439866 17.255783 2.624369
v -1.889919 16.137980 2.754461
v -1.875700 15.110388 2.525604
v -2.346233 14.147142 1.976827
v -4.660128 17.844212 2.477330
v -5.410109 17.544905 1.776213
v -5.891505 16.916283 1.200832
v -6.075266 15.773585 0.721958
v -5.786322 14.763376 0.668864
v -5.069151 13.857244 0.996903
v -2.970915 13.928440 2.738410
v -2.553556 14.873069 3.352014
v -2.593277 15.891734 3.611960
v -3.143224 17.009539 3.481868
v -3.821907 17.598795 3.094399
v -3.044891 5.451749 0.339507
v -2.973831 5.710689 0.472438
v -2.554209 5.857600 -0.039146
v -2.625420 5.598547 -0.171947
v -2.358965 5.475024 0.908815
v -1.939436 5.621823 0.397409
v -2.093340 5.873237 0.343369
v -2.512962 5.726326 0.854953
v -2.337054 6.346913 0.832751
v -2.234744 6.382762 0.707837
v -2.764234 5.393627 0.003678
v -2.859893 5.360137 0.120301
v -2.445980 6.011482 0.991784
v -2.026357 6.158392 0.480201
v -2.296214 5.086961 0.849135
v -2.484297 4.895802 0.639967
v -2.064674 5.042712 0.128383
v -1.876591 5.233870 0.337552
v -2.152772 5.252922 0.669524
v -2.066877 5.206818 0.746785
v -2.102856 5.428921 0.781052
v -2.173910 5.383413 0.689658
v -1.988463 5.468969 0.641589
v -2.078250 5.416903 0.573034
v -1.952483 5.246866 0.607319
v -2.057112 5.286412 0.552901
v -2.307280 6.193532 0.813126
v -2.221457 6.147744 0.895011
v -2.265647 6.390121 0.928367
v -2.140297 6.434034 0.775363
v -2.096017 6.191662 0.742080
v -2.204881 6.229382 0.688286
v -2.982197 5.063684 0.279778
v -2.734577 4.887310 0.432238
v -2.314954 5.034220 -0.079346
v -2.562575 5.210594 -0.231806
v -2.712341 6.135116 -0.089157
v -2.765284 6.523851 -0.020951
v -3.184400 6.373216 0.489978
v -3.131964 5.988206 0.422428
v -2.838755 5.229646 0.100168
v -2.964522 5.399683 0.065881
v -2.928543 5.177580 0.031613
v -2.850129 5.439732 -0.073582
v -2.743095 5.263135 -0.016455
v -2.814149 5.217629 -0.107851
v -2.989233 6.170392 0.247114
v -3.009207 6.324105 0.274874
v -3.117955 6.361201 0.220962
v -3.083565 6.118492 0.179472
v -2.906719 6.359961 0.150107
v -2.992426 6.405120 0.068107
v -2.886835 6.206242 0.122273
v -2.958125 6.162409 0.026543
vt 0.490765 0.813794
vt 0.479858 0.813794
vt 0.479858 0.798802
vt 0.490765 0.798802
vt 0.616076 0.511522
vt 0.619151 0.500416
vt 0.644876 0.500416
vt 0.647826 0.511700
vt 0.640393 0.169448
vt 0.600810 0.169448
vt 0.582271 0.814940
vt 0.571036 0.814940
vt 0.571036 0.798802
vt 0.582271 0.798802
vt 0.586269 0.830552
vt 0.586269 0.798802
vt 0.598415 0.798802
vt 0.598415 0.830552
vt 0.474138 0.589115
vt 0.476356 0.258148
vt 0.502981 0.258148
vt 0.505199 0.589115
vt 0.259064 0.707501
vt 0.256846 0.376534
vt 0.287906 0.376534
vt 0.285688 0.707501
vt 0.435681 0.813794
vt 0.435681 0.798802
vt 0.446588 0.798802
vt 0.446588 0.813794
vt 0.660312 0.169448
vt 0.699895 0.169448
vt 0.681554 0.500416
vt 0.655829 0.500416
vt 0.525283 0.814940
vt 0.525283 0.798802
vt 0.536518 0.798802
vt 0.536518 0.814940
vt 0.553558 0.606525
vt 0.588104 0.650946
vt 0.595692 0.699641
vt 0.573352 0.753896
vt 0.538028 0.783127
vt 0.489669 0.796201
vt 0.441309 0.783127
vt 0.405986 0.753896
vt 0.383645 0.699641
vt 0.391233 0.650946
vt 0.425779 0.606525
vt 0.272376 0.169448
vt 0.320735 0.182522
vt 0.356059 0.211753
vt 0.378400 0.266008
vt 0.370811 0.314703
vt 0.336265 0.359124
vt 0.208486 0.359124
vt 0.173941 0.314703
vt 0.166352 0.266008
vt 0.188693 0.211753
vt 0.224016 0.182522
vt 0.652889 0.555919
vt 0.652879 0.543671
vt 0.684630 0.543671
vt 0.684630 0.555922
vt 0.647816 0.555919
vt 0.616076 0.555922
vt 0.616076 0.543671
vt 0.647826 0.543671
vt 0.616076 0.555922
vt 0.647816 0.555919
vt 0.647826 0.511700
vt 0.684630 0.530166
vt 0.684630 0.555922
vt 0.652889 0.555919
vt 0.652879 0.530166
vt 0.647826 0.530166
vt 0.616076 0.530166
vt 0.647826 0.574545
vt 0.647826 0.583366
vt 0.616076 0.583366
vt 0.616076 0.574545
vt 0.647826 0.589115
vt 0.616076 0.589115
vt 0.475860 0.809430
vt 0.470510 0.811628
vt 0.470510 0.800967
vt 0.475860 0.803166
vt 0.342563 0.807874
vt 0.337214 0.808583
vt 0.337214 0.799927
vt 0.342563 0.800636
vt 0.461224 0.809430
vt 0.455874 0.811628
vt 0.455874 0.800967
vt 0.461224 0.803166
vt 0.327927 0.807874
vt 0.322578 0.808583
vt 0.322578 0.799927
vt 0.327927 0.800636
vt 0.566740 0.810738
vt 0.561254 0.812889
vt 0.561553 0.801247
vt 0.567038 0.803367
vt 0.402405 0.808295
vt 0.396920 0.809166
vt 0.396925 0.799675
vt 0.402411 0.800547
vt 0.551781 0.810374
vt 0.546295 0.812495
vt 0.545991 0.800852
vt 0.551477 0.803003
vt 0.387446 0.808291
vt 0.381960 0.809163
vt 0.381960 0.799672
vt 0.387446 0.800543
vt 0.317289 0.809709
vt 0.317289 0.798802
vt 0.450586 0.813794
vt 0.450586 0.798802
vt 0.331925 0.809709
vt 0.331925 0.798802
vt 0.465222 0.813794
vt 0.465222 0.798802
vt 0.376485 0.810036
vt 0.376485 0.798802
vt 0.540820 0.814940
vt 0.540516 0.798802
vt 0.391444 0.810036
vt 0.391449 0.798802
vt 0.555779 0.814940
vt 0.556077 0.798802
vt 0.251488 0.781630
vt 0.251490 0.763005
vt 0.293262 0.763005
vt 0.293263 0.781630
vt 0.264755 0.790452
vt 0.279997 0.790452
vt 0.266303 0.796201
vt 0.278449 0.796201
vt 0.482048 0.175197
vt 0.483596 0.169448
vt 0.495742 0.169448
vt 0.497289 0.175197
vt 0.468781 0.184019
vt 0.510556 0.184019
vt 0.468781 0.202641
vt 0.510556 0.202641
vt 0.475635 0.214893
vt 0.503702 0.214893
vt 0.468781 0.228398
vt 0.510556 0.228398
vt 0.469388 0.247042
vt 0.509949 0.247042
vt 0.252090 0.718786
vt 0.292662 0.718786
vt 0.251488 0.737251
vt 0.293263 0.737251
vt 0.258343 0.750756
vt 0.286409 0.750756
vt 0.706878 0.301629
vt 0.758167 0.301629
vt 0.758167 0.346050
vt 0.710901 0.346050
vt 0.700942 0.640075
vt 0.653676 0.640075
vt 0.657704 0.591716
vt 0.697287 0.591716
vt 0.704940 0.397010
vt 0.758159 0.397010
vt 0.758159 0.445370
vt 0.704940 0.445370
vt 0.704948 0.169448
vt 0.758167 0.169448
vt 0.758167 0.198679
vt 0.704948 0.198679
vt 0.758167 0.252934
vt 0.704948 0.252934
vt 0.647826 0.530166
vt 0.647816 0.555919
vt 0.616076 0.555922
vt 0.616076 0.530166
vt 0.652879 0.530166
vt 0.684630 0.530166
vt 0.652879 0.574545
vt 0.684630 0.574545
vt 0.684630 0.583366
vt 0.652879 0.583366
vt 0.684630 0.589115
vt 0.652879 0.589115
vt 0.684630 0.511522
vt 0.652879 0.511700
vt 0.421045 0.809430
vt 0.421045 0.803166
vt 0.426394 0.800967
vt 0.426394 0.811628
vt 0.302653 0.807874
vt 0.302653 0.800636
vt 0.308002 0.799927
vt 0.308002 0.808583
vt 0.406408 0.809430
vt 0.406408 0.803166
vt 0.411758 0.800967
vt 0.411758 0.811628
vt 0.288017 0.807874
vt 0.288017 0.800636
vt 0.293366 0.799927
vt 0.293366 0.808583
vt 0.510324 0.810738
vt 0.510026 0.803367
vt 0.515511 0.801247
vt 0.515810 0.812889
vt 0.361526 0.808295
vt 0.361520 0.800547
vt 0.367006 0.799675
vt 0.367011 0.809166
vt 0.494763 0.810374
vt 0.495067 0.803003
vt 0.500552 0.800852
vt 0.500248 0.812495
vt 0.346561 0.808291
vt 0.346561 0.800543
vt 0.352047 0.799672
vt 0.352047 0.809163
vt 0.298655 0.798802
vt 0.298655 0.809709
vt 0.417047 0.798802
vt 0.417047 0.813794
vt 0.313291 0.798802
vt 0.313291 0.809709
vt 0.431683 0.798802
vt 0.431683 0.813794
vt 0.357522 0.798802
vt 0.357522 0.810036
vt 0.506028 0.798802
vt 0.505724 0.814940
vt 0.372481 0.798802
vt 0.372487 0.810036
vt 0.520987 0.798802
vt 0.521285 0.814940
vt 0.813446 0.301629
vt 0.809422 0.346050
vt 0.762156 0.346050
vt 0.762156 0.301629
vt 0.649678 0.591716
vt 0.646023 0.640075
vt 0.606440 0.640075
vt 0.602412 0.591716
vt 0.704940 0.348651
vt 0.758159 0.348651
vt 0.815375 0.169448
vt 0.815375 0.198679
vt 0.762156 0.198679
vt 0.762156 0.169448
vt 0.815375 0.252934
vt 0.762156 0.252934
vt 0.647816 0.555919
vt 0.647826 0.530166
vt 0.616076 0.530166
vt 0.616076 0.555922
vt 0.616076 0.555922
vt 0.616076 0.555922
vt 0.647816 0.555919
vt 0.647826 0.530166
vt 0.616076 0.530166
vt 0.616076 0.555922
vt 0.647816 0.555919
vt 0.616076 0.530166
vt 0.647826 0.530166
vt 0.647816 0.555919
vt 0.616076 0.555922
vt 0.652889 0.555919
vt 0.684630 0.530166
vt 0.684630 0.555922
vt 0.652879 0.530166
vt 0.652889 0.555919
vt 0.684630 0.530166
vt 0.652879 0.530166
vt 0.652889 0.555919
vt 0.684630 0.555922
vt 0.652879 0.530166
vt 0.684630 0.530166
vt 0.684630 0.555922
vt 0.652889 0.555919
vt 0.684630 0.555922
vt 0.684630 0.530166
vt 0.652879 0.530166
vt 0.652889 0.555919
vt 0.684630 0.530166
vt 0.652879 0.530166
vt 0.684630 0.555922
vt 0.652889 0.555919
vn 0.7692 0.0261 0.6384
vn 0.6974 0.2886 0.6560
vn 0.5685 0.5377 0.6227
vn 0.6978 0.2878 0.6559
vn 0.7703 0.0196 0.6374
vn 0.7663 0.0444 0.6410
vn 0.1581 -0.9759 -0.1506
vn 0.6269 0.1624 -0.7620
vn -0.6212 -0.2035 0.7568
vn -0.7692 -0.0261 -0.6384
vn -0.7681 -0.0326 -0.6394
vn -0.7719 -0.0078 -0.6357
vn 0.6250 0.1774 -0.7602
vn -0.6176 -0.2261 0.7533
vn -0.7485 0.4537 -0.4837
vn 0.5941 0.4993 0.6307
vn 0.8850 -0.1086 0.4528
vn 0.7843 0.0678 0.6166
vn 0.7633 0.0603 0.6432
vn -0.7693 -0.0260 -0.6384
vn 0.7840 -0.2048 0.5861
vn 0.7575 -0.4184 0.5012
vn 0.7955 -0.1920 0.5747
vn 0.6329 -0.4807 0.6069
vn 0.6521 -0.6774 0.3403
vn 0.6522 -0.6774 0.3402
vn 0.7238 -0.4647 0.5101
vn 0.7839 -0.2285 0.5773
vn -0.7148 -0.2183 0.6644
vn -0.7517 -0.2178 0.6225
vn -0.7516 -0.2178 0.6226
vn -0.4387 0.8927 -0.1035
vn -0.4382 0.8930 -0.1030
vn 0.5127 0.2114 -0.8321
vn 0.4649 0.2081 -0.8606
vn -0.1462 -0.9125 -0.3820
vn -0.1456 -0.9128 -0.3816
vn -0.7313 -0.2230 0.6446
vn -0.7315 -0.2220 0.6447
vn -0.4250 0.9008 -0.0896
vn -0.4449 0.8889 -0.1094
vn -0.4449 0.8889 -0.1093
vn 0.4914 0.2051 -0.8464
vn 0.4911 0.2060 -0.8464
vn -0.1337 -0.9180 -0.3733
vn -0.1268 -0.9210 -0.3685
vn -0.1271 -0.9208 -0.3687
vn -0.1452 -0.9130 -0.3813
vn 0.4454 0.2066 -0.8712
vn -0.4378 0.8932 -0.1026
vn -0.7657 -0.2174 0.6053
vn -0.1217 -0.9230 -0.3649
vn 0.4909 0.2066 -0.8464
vn -0.4581 0.8804 -0.1227
vn -0.7315 -0.2214 0.6448
vn -0.6192 -0.2164 0.7549
vn -0.6191 -0.2167 0.7548
vn -0.6191 -0.2168 0.7548
vn 0.6191 0.2168 -0.7548
vn 0.6191 0.2167 -0.7548
vn 0.6074 0.2803 -0.7433
vn 0.5545 0.4693 -0.6872
vn -0.6279 -0.1544 0.7628
vn -0.6390 0.0371 0.7683
vn -0.6191 -0.2171 0.7547
vn -0.6191 -0.2169 0.7548
vn -0.6190 -0.2172 0.7547
vn 0.7688 -0.3634 0.5263
vn 0.7673 -0.3717 0.5226
vn 0.5997 -0.7510 0.2762
vn 0.6026 -0.7475 0.2795
vn 0.4093 -0.9093 0.0746
vn 0.0481 0.9489 0.3120
vn 0.2060 0.8827 0.4224
vn 0.2060 0.8827 0.4225
vn 0.5430 0.5761 0.6109
vn 0.7383 0.1667 0.6535
vn 0.7374 0.1700 0.6537
vn 0.7692 0.0261 0.6385
vn 0.7692 0.0262 0.6385
vn -0.7346 -0.2065 -0.6463
vn -0.7059 -0.2666 -0.6563
vn -0.6144 -0.4650 -0.6375
vn -0.5723 -0.5337 -0.6226
vn -0.5724 -0.5335 -0.6227
vn -0.4267 -0.7140 -0.5550
vn -0.4268 -0.7141 -0.5550
vn -0.7017 -0.2789 -0.6556
vn -0.7858 0.2648 -0.5589
vn -0.8055 0.2942 -0.5144
vn -0.7375 0.4933 -0.4612
vn -0.5127 -0.2114 0.8321
vn -0.4649 -0.2081 0.8606
vn 0.1462 0.9125 0.3820
vn 0.1456 0.9128 0.3816
vn 0.7148 0.2183 -0.6644
vn 0.7516 0.2178 -0.6226
vn 0.4386 -0.8927 0.1035
vn 0.4382 -0.8930 0.1030
vn -0.4900 -0.2148 0.8448
vn -0.4902 -0.2138 0.8450
vn -0.4903 -0.2135 0.8450
vn 0.1298 0.9196 0.3708
vn 0.1533 0.9092 0.3871
vn 0.7330 0.2133 -0.6459
vn 0.7330 0.2142 -0.6456
vn 0.4280 -0.8990 0.0929
vn 0.4222 -0.9023 0.0872
vn 0.4378 -0.8932 0.1026
vn 0.7657 0.2174 -0.6053
vn 0.1452 0.9130 0.3813
vn -0.4454 -0.2066 0.8712
vn 0.4178 -0.9047 0.0829
vn 0.7330 0.2148 -0.6454
vn 0.1692 0.9017 0.3980
vn -0.4903 -0.2133 0.8451
vn -0.6433 -0.4113 -0.6457
vn -0.3551 -0.7800 -0.5153
vn -0.3511 -0.7833 -0.5130
vn -0.6392 -0.4194 -0.6447
vn -0.1118 -0.9270 -0.3579
vn -0.3534 0.9352 -0.0213
vn -0.4882 0.8591 -0.1537
vn -0.7227 0.5332 -0.4397
vn -0.7228 0.5332 -0.4397
vn -0.7841 0.1184 -0.6092
vn -0.7840 0.1150 -0.6100
vn 0.7637 0.0517 0.6434
vn 0.7609 0.0592 0.6461
vn 0.7829 0.0527 0.6199
vn 0.7657 0.0525 0.6410
vn 0.7655 0.0610 0.6406
vn 0.9040 0.1351 0.4056
vn -0.7693 -0.0261 -0.6384
vn -0.7752 0.0077 -0.6317
vn -0.7742 -0.0005 -0.6330
vn -0.7722 0.0003 -0.6354
vn -0.7733 0.0085 -0.6340
usemtl initialShadingGroup.001
s off
f 1/1/1 2/2/1 3/3/1 4/4/1
f 5/5/2 6/6/3 7/7/3 8/8/4
f 9/9/5 7/7/5 6/6/5 10/10/5
f 11/11/6 12/12/6 13/13/6 14/14/6
f 15/15/7 16/16/7 17/17/7 18/18/7
f 10/19/8 6/20/8 19/21/8 20/22/8
f 7/23/9 9/24/9 21/25/9 22/26/9
f 23/27/10 24/28/10 25/29/10 26/30/10
f 21/31/11 20/32/11 19/33/11 22/34/11
f 27/35/12 28/36/12 29/37/12 30/38/12
f 10/19/13 20/22/13 31/39/13 32/40/13 33/41/13 34/42/13 35/43/13 36/44/13 37/45/13 38/46/13 39/47/13 40/48/13 41/49/13
f 42/50/14 43/51/14 44/52/14 45/53/14 46/54/14 47/55/14 21/25/14 9/24/14 48/56/14 49/57/14 50/58/14 51/59/14 52/60/14
f 53/61/15 54/62/15 55/63/15 56/64/15
f 57/65/16 58/66/16 59/67/16 60/68/16
f 5/5/17 8/69/18 61/70/19 62/71/19
f 56/72/20 63/73/20 64/74/20 53/75/20
s 1
f 65/76/21 60/68/22 59/67/22 66/77/23
f 67/78/24 68/79/25 69/80/26 70/81/27
f 68/79/25 16/82/28 15/83/28 69/80/26
f 71/84/29 72/85/30 73/86/31 74/87/29
f 74/88/32 73/89/33 75/90/33 76/91/32
f 76/92/34 75/93/35 77/94/35 78/95/34
f 78/96/36 77/97/37 72/98/37 71/99/36
f 79/100/38 80/101/39 81/102/39 61/103/38
f 61/104/40 81/105/41 82/106/42 62/107/40
f 62/108/43 82/109/44 83/110/44 84/111/43
f 84/112/45 83/113/46 80/114/47 79/115/45
f 77/97/37 2/116/48 1/117/48 72/98/37
f 75/93/35 3/118/49 2/119/49 77/94/35
f 73/89/33 4/120/50 3/121/50 75/90/33
f 72/85/30 1/122/51 4/123/51 73/86/31
f 83/113/46 12/124/52 11/125/52 80/114/47
f 82/109/44 13/126/53 12/127/53 83/110/44
f 81/105/41 14/128/54 13/129/54 82/106/42
f 80/101/39 11/130/55 14/131/55 81/102/39
f 67/132/56 57/133/57 53/134/57 85/135/56
f 68/136/58 67/132/56 85/135/56 86/137/58
f 16/138/58 68/136/58 86/137/58 17/139/58
f 69/140/59 15/141/59 18/142/59 87/143/59
f 70/144/59 69/140/59 87/143/59 88/145/59
f 58/146/60 70/144/59 88/145/59 56/147/60
f 59/148/59 58/146/59 56/147/59 55/149/59
f 66/150/59 59/148/59 55/149/59 89/151/59
f 5/152/61 66/150/59 89/151/59 90/153/61
f 6/20/62 5/152/61 90/153/61 19/21/62
f 8/154/63 7/23/64 22/26/64 91/155/63
f 65/156/58 8/154/63 91/155/63 92/157/58
f 60/158/65 65/156/58 92/157/58 54/159/65
f 57/133/66 60/158/67 54/159/67 53/134/66
f 40/160/68 49/161/69 48/162/70 41/163/71
f 41/164/71 48/165/70 9/166/72 10/167/72
f 36/168/73 42/169/73 52/170/74 37/171/75
f 37/172/75 52/173/74 51/174/76 38/175/76
f 38/175/76 51/174/76 50/176/77 39/177/78
f 39/177/78 50/176/77 49/161/69 40/160/68
f 67/178/24 71/179/79 74/180/80 57/181/80
f 92/182/81 89/183/82 55/63/83 54/62/83
f 85/184/84 88/185/85 87/186/86 86/187/87
f 86/187/87 87/186/86 18/188/88 17/189/88
f 90/190/89 91/191/90 22/34/91 19/33/91
f 93/192/92 64/193/92 94/194/93 95/195/93
f 64/196/94 63/197/94 96/198/95 94/199/95
f 63/200/96 97/201/96 98/202/97 96/203/97
f 97/204/98 93/205/98 95/206/99 98/207/99
f 99/208/100 100/209/100 101/210/101 102/211/102
f 100/212/103 103/213/103 104/214/104 101/215/104
f 103/216/105 105/217/105 106/218/106 104/219/106
f 105/220/107 99/221/107 102/222/108 106/223/108
f 98/207/99 95/206/99 23/224/109 26/225/109
f 96/203/97 98/202/97 26/226/110 25/227/110
f 94/199/95 96/198/95 25/228/111 24/229/111
f 95/195/93 94/194/93 24/230/112 23/231/112
f 106/223/108 102/222/108 27/232/113 30/233/113
f 104/219/106 106/218/106 30/234/114 29/235/114
f 101/215/104 104/214/104 29/236/115 28/237/115
f 102/211/102 101/210/101 28/238/116 27/239/116
f 32/240/117 31/241/118 47/242/119 46/243/120
f 31/244/118 20/245/121 21/246/121 47/247/119
f 36/168/122 35/248/123 43/249/123 42/169/122
f 35/250/123 34/251/124 44/252/125 43/253/123
f 34/251/124 33/254/126 45/255/127 44/252/125
f 33/254/126 32/240/117 46/243/120 45/255/127
f 79/256/128 61/257/129 8/258/130 65/259/21
f 84/260/131 79/256/128 65/76/21 66/77/23
f 62/261/132 84/262/131 66/263/23 5/264/133
f 67/78/24 70/81/27 78/265/1 71/179/79
f 76/266/80 78/265/1 70/267/27 58/268/79
f 57/65/80 74/269/80 76/270/80 58/66/79
f 85/271/134 53/75/20 64/272/20 93/273/10
f 56/72/10 88/274/10 97/275/10 63/73/10
f 88/276/10 85/277/134 93/278/10 97/279/10
f 91/280/90 100/281/135 99/282/136 92/283/81
f 89/284/82 92/285/81 99/286/136 105/287/137
f 90/288/89 89/289/82 105/287/137 103/290/138
f 91/280/90 90/291/89 103/290/138 100/281/135
