# Blender v2.79 (sub 0) OBJ File: 'DISPOSICIONICIONescenario077.blend'
# www.blender.org
mtllib CascadaAnimada_000007.mtl
o Cube.054
v -114.280594 13.192755 359.508087
v -119.674438 24.232475 361.964722
v -117.892418 10.321145 392.486786
v -120.715294 18.351847 388.000000
v -164.366180 13.192752 359.508087
v -159.357620 24.232475 361.964722
v -166.304092 10.834674 393.243195
v -162.306580 17.337334 390.406128
v -115.769196 21.846191 361.433716
v -119.303856 14.336496 390.243378
v -164.305328 14.086004 391.824646
v -163.720367 20.306461 361.091095
vt 0.481464 0.104594
vt 0.521153 0.125110
vt 0.522129 0.318353
vt 0.495061 0.356071
vt 0.821799 0.333141
vt 0.849929 0.359523
vt 0.786124 0.131306
vt 0.832386 0.104593
vt 0.448807 0.283836
vt 0.438499 0.545367
vt 0.210942 0.534925
vt 0.243856 0.216132
vt 0.150071 0.592223
vt 0.150071 0.104593
vt 0.475037 0.588160
vt 0.481323 0.245560
vn 0.7205 0.6574 0.2206
vn 0.0346 0.4475 0.8936
vn -0.7405 0.6641 0.1030
vn 0.0000 0.2172 -0.9761
vn -0.0058 -0.9969 -0.0786
vn -0.0054 0.9737 0.2279
vn -0.9689 0.2473 -0.0050
vn 0.0236 0.4484 0.8935
vn 0.9631 0.2242 0.1491
usemtl Material.008
s off
f 9/1/1 2/2/1 4/3/1 10/4/1
f 10/4/2 4/3/2 8/5/2 11/6/2
f 11/6/3 8/5/3 6/7/3 12/8/3
f 12/8/4 6/7/4 2/2/4 9/1/4
f 3/9/5 7/10/5 5/11/5 1/12/5
f 8/5/6 4/3/6 2/2/6 6/7/6
f 5/11/4 12/13/4 9/14/4 1/12/4
f 7/10/7 11/15/7 12/13/7 5/11/7
f 3/9/8 10/16/8 11/15/8 7/10/8
f 1/12/9 9/14/9 10/16/9 3/9/9
o Cube.053
v -119.840530 -30.997360 346.227631
v -121.427498 20.270260 354.932434
v -119.840530 -36.473152 361.283691
v -121.427498 9.303622 366.031921
v -163.294891 -30.997360 346.227631
v -158.062042 18.699932 354.604980
v -163.294891 -36.473156 361.283691
v -158.062042 7.653893 365.761169
v -113.498383 -33.367889 352.745575
v -115.769188 21.846191 361.433716
v -169.637024 -33.367893 352.745575
v -163.720367 20.306461 361.091095
v -158.949463 -36.473156 361.283691
v -154.830963 11.860347 366.451508
v -158.949463 -30.997360 346.227631
v -154.830963 22.703945 355.439911
v -159.357620 24.232475 361.964722
v -116.898239 -104.557274 338.519592
v -119.938919 12.478190 353.307617
v -119.938919 1.117581 364.688507
v -158.707870 1.117579 364.688507
v -158.707870 12.478187 353.307617
v -164.366180 13.192752 359.508087
v -114.280602 13.192754 359.508087
v -154.830963 12.478189 353.307617
v -154.830963 1.117579 364.688507
v -124.520226 -36.473152 361.283691
v -124.114029 22.703945 355.439911
v -109.579300 -106.087372 347.940399
v -124.114029 11.860349 366.451508
v -124.520226 -30.997360 346.227631
v -119.674438 24.232475 361.964722
v -124.114029 1.117581 364.688507
v -124.114029 12.478189 353.307617
v -114.489365 -75.575035 348.683746
v -120.670685 -74.044945 339.262939
v -125.231712 -77.105133 358.104553
v -120.670685 -77.105133 358.104553
v -169.204407 -75.575043 348.683746
v -163.023102 -77.105133 358.104553
v -158.787857 -74.044945 339.262939
v -163.023102 -74.044945 339.262939
v -118.005142 -115.794594 338.003540
v -158.787842 -77.105133 358.104553
v -125.231712 -74.044945 339.262939
v -111.083817 -117.324684 347.424347
v -122.298676 -107.617470 357.361206
v -116.898239 -107.617470 357.361206
v -174.364197 -106.087372 347.940399
v -167.045258 -107.617470 357.361206
v -162.030533 -104.557281 338.519592
v -167.045258 -104.557281 338.519592
v -111.618820 -155.473831 335.468109
v -162.030533 -107.617470 357.361206
v -122.298683 -104.557281 338.519592
v -103.368057 -157.274811 344.882812
v -123.112198 -118.854782 356.845154
v -118.005142 -118.854782 356.845154
v -172.349182 -117.324692 347.424347
v -165.427856 -118.854782 356.845154
v -160.685577 -115.794594 338.003540
v -165.427856 -115.794594 338.003540
v -160.685577 -118.854782 356.845154
v -123.112198 -115.794594 338.003540
v -117.797958 -158.332687 354.314209
v -111.685394 -158.532944 354.309723
v -176.695770 -154.872452 344.936707
v -168.445023 -156.673401 354.351440
v -162.702469 -153.800262 335.505646
v -168.378448 -153.614304 335.509827
v -162.769043 -156.859360 354.347260
v -117.731400 -155.273575 335.472595
v -97.992935 -169.780563 343.738800
v -107.872131 -168.964859 334.301971
v -115.004730 -172.550705 353.131775
v -107.757462 -172.023987 353.143585
v -184.932739 -176.099457 343.597076
v -175.053589 -176.915176 353.033875
v -168.438629 -173.366928 334.203217
v -175.168274 -173.856049 334.192261
v -91.548355 -250.164917 331.015137
v -168.323959 -176.426056 353.044861
v -115.119400 -169.491608 334.290161
v -76.164734 -251.695053 340.435944
v -103.473907 -208.660568 342.305084
v -112.571518 -206.847900 331.144440
v -119.284386 -210.473251 353.465729
v -112.571518 -210.473251 353.465729
v -184.003021 -208.660568 342.305084
v -174.905411 -210.473251 353.465729
v -168.671997 -206.847900 331.144440
v -174.905411 -206.847900 331.144440
v -168.671997 -210.473251 353.465729
v -119.284386 -206.847900 331.144440
v -102.899490 -253.225113 349.856750
v -91.548355 -253.225113 349.856750
v -212.335495 -251.695053 340.435944
v -196.951889 -253.225113 349.856750
v -186.411499 -250.164932 331.015137
v -196.951889 -250.164932 331.015137
v -90.829277 -251.695053 340.435944
v -186.411499 -253.225113 349.856750
v -102.899490 -250.164917 331.015137
v -198.718445 -251.695053 340.435944
v -167.192719 -53.495518 351.466858
v -122.427856 -51.554081 343.893341
v -116.726547 -53.495514 351.466858
v -161.491425 -51.554081 343.893341
v -157.585052 -51.554081 343.893341
v -157.585052 -55.804314 360.050476
v -161.491425 -55.804314 360.050476
v -126.634697 -55.804314 360.050476
v -122.427856 -55.804314 360.050476
v -126.634697 -51.554081 343.893341
v -100.205536 -226.445099 341.454224
v -188.438110 -227.165222 331.109863
v -180.741013 -226.956604 331.114563
v -188.381683 -230.506119 351.691376
v -199.643707 -229.140152 341.393799
v -119.700272 -228.644669 351.733124
v -180.684601 -230.297516 351.696045
v -111.467575 -225.079102 331.156647
v -119.756699 -225.303757 331.151611
v -111.411148 -228.419998 351.738159
v -94.387047 -235.708618 341.020477
v -181.093231 -235.199280 331.140228
v -201.465439 -237.056137 340.990265
v -181.066772 -238.399857 350.851776
v -106.470795 -237.461090 350.872833
v -189.381714 -235.303589 331.137909
v -189.355255 -238.504166 350.849457
v -115.396805 -237.573410 350.870331
v -106.497238 -234.260529 331.161285
v -115.423241 -234.372879 331.158783
vt 0.905983 0.929429
vt 0.889562 0.959007
vt 0.859198 0.914690
vt 0.866210 0.889441
vt 0.744590 0.893991
vt 0.748422 0.927411
vt 0.735895 0.916012
vt 0.730153 0.895520
vt 0.313759 0.940909
vt 0.304817 0.966740
vt 0.272995 0.937110
vt 0.277242 0.918573
vt 0.166212 0.915284
vt 0.167831 0.946182
vt 0.158369 0.939492
vt 0.151665 0.915923
vt 0.375743 0.603623
vt 0.318543 0.597820
vt 0.319045 0.540417
vt 0.380392 0.546718
vt 0.143364 0.982455
vt 0.126710 0.972639
vt 0.849706 0.922139
vt 0.873639 0.967464
vt 0.849652 0.583542
vt 0.706228 0.589087
vt 0.702567 0.534934
vt 0.842911 0.529185
vt 0.706970 0.960775
vt 0.694081 0.937719
vt 0.112384 0.938779
vt 0.688292 0.590278
vt 0.624945 0.596859
vt 0.621594 0.539950
vt 0.685170 0.536201
vt 0.726259 0.972785
vt 0.287007 0.981472
vt 0.261428 0.947600
vt 0.138808 0.592509
vt 0.081368 0.594043
vt 0.084736 0.535557
vt 0.147540 0.535221
vt 0.263892 0.917552
vt 0.850872 0.889107
vt 0.848370 0.644819
vt 0.710500 0.650121
vt 0.314357 0.664024
vt 0.297265 0.663326
vt 0.140949 0.659104
vt 0.088596 0.660291
vt 0.693547 0.650944
vt 0.631777 0.661520
vt 0.159586 0.659208
vt 0.365555 0.668433
vt 0.930066 0.648775
vt 0.866815 0.644309
vt 0.300497 0.597221
vt 0.302319 0.539336
vt 0.165735 0.534996
vt 0.173450 0.481235
vt 0.302955 0.486893
vt 0.861779 0.529280
vt 0.833355 0.474696
vt 0.851281 0.473767
vt 0.926140 0.525616
vt 0.917413 0.472604
vt 0.155489 0.481098
vt 0.686469 0.481778
vt 0.702742 0.480999
vt 0.089248 0.480453
vt 0.868752 0.583326
vt 0.158108 0.592951
vt 0.931885 0.583706
vt 0.382926 0.493116
vt 0.319068 0.488096
vt 0.333788 0.413139
vt 0.398244 0.423105
vt 0.159397 0.385171
vt 0.314899 0.409853
vt 0.842075 0.380600
vt 0.861741 0.377878
vt 0.924305 0.374435
vt 0.138487 0.382262
vt 0.674304 0.408262
vt 0.692329 0.405172
vt 0.622320 0.487555
vt 0.612134 0.416284
vt 0.599162 0.349538
vt 0.658231 0.345210
vt 0.676911 0.341186
vt 0.842494 0.322962
vt 0.347539 0.347482
vt 0.406286 0.355917
vt 0.161769 0.326338
vt 0.328939 0.344154
vt 0.865460 0.322686
vt 0.930814 0.323542
vt 0.071660 0.382647
vt 0.301961 0.283589
vt 0.320544 0.285004
vt 0.613396 0.290079
vt 0.684468 0.281875
vt 0.703141 0.280372
vt 0.845227 0.273672
vt 0.392038 0.294735
vt 0.160365 0.276864
vt 0.864290 0.272853
vt 0.073478 0.329509
vt 0.138979 0.325165
vt 0.663991 0.215064
vt 0.684185 0.217141
vt 0.141484 0.275765
vt 0.074214 0.284446
vt 0.057230 0.231635
vt 0.132326 0.221151
vt 0.321705 0.220756
vt 0.342054 0.218782
vt 0.588722 0.235216
vt 0.852226 0.218600
vt 0.418441 0.238771
vt 0.931799 0.279572
vt 0.116158 0.130933
vt 0.083940 0.126819
vt 0.069773 0.053473
vt 0.106236 0.052947
vt 0.630937 0.126447
vt 0.600698 0.122346
vt 0.574810 0.050740
vt 0.607038 0.050114
vt 0.004383 0.120793
vt 0.000140 0.018863
vt 0.406766 0.125877
vt 0.375939 0.129430
vt 0.401601 0.051664
vt 0.435069 0.052522
vt 0.520638 0.123399
vt 0.505795 0.019417
vt 0.888580 0.127701
vt 0.896739 0.051367
vt 0.153583 0.222198
vt 0.873417 0.217412
vt 0.947778 0.228011
vt 0.450426 0.000140
vt 0.505515 0.018464
vt 0.559461 0.000140
vt 0.942675 0.000140
vt 0.058990 0.000140
vt 0.931843 0.051595
vt 0.999860 0.019853
vt 0.998614 0.119672
vt 0.920173 0.122910
vt 0.488094 0.123947
vt 0.383822 0.167013
vt 0.459058 0.176682
vt 0.149102 0.176544
vt 0.358356 0.169847
vt 0.856487 0.173098
vt 0.885796 0.172273
vt 0.963251 0.184077
vt 0.648106 0.166451
vt 0.548709 0.175077
vt 0.622742 0.163406
vt 0.041238 0.186390
vt 0.119700 0.176020
vn 0.6805 -0.0219 0.7324
vn -0.0000 -0.1619 0.9868
vn -0.7092 0.2138 -0.6718
vn 0.0000 0.2041 -0.9789
vn -0.8242 0.1561 -0.5444
vn 0.4488 0.7261 -0.5210
vn 0.2977 0.2182 0.9294
vn 0.0000 -0.0910 0.9959
vn -0.7303 -0.0632 0.6802
vn 0.6943 0.2697 -0.6672
vn -0.8338 0.0079 0.5520
vn -0.3782 0.1785 0.9084
vn -0.5304 0.6301 -0.5671
vn 0.8239 0.1641 -0.5425
vn 0.0000 -0.0902 0.9959
vn -0.0000 0.1607 -0.9870
vn 0.7300 0.1108 -0.6744
vn -0.7485 0.0076 0.6631
vn -0.7270 0.1814 -0.6623
vn 0.7861 -0.0660 0.6146
vn 0.0000 0.2016 -0.9795
vn 0.0000 0.3409 0.9401
vn 0.0000 0.9736 -0.2281
vn 0.0000 0.0244 -0.9997
vn 0.0000 -0.0244 0.9997
vn 0.8011 0.0996 0.5902
vn 0.8159 0.1298 -0.5635
vn 0.0000 0.2017 -0.9795
vn 0.8329 0.0164 0.5532
vn -0.7861 -0.0990 -0.6102
vn 0.0000 0.0459 -0.9989
vn 0.0000 -0.0459 0.9989
vn 0.8013 -0.1200 0.5861
vn -0.8156 0.1364 -0.5623
vn -0.8001 0.1060 0.5905
vn -0.7754 0.0341 0.6306
vn -0.0008 -0.0648 0.9979
vn -0.7807 0.1162 -0.6140
vn 0.0008 0.0648 -0.9979
vn -0.0007 -0.0640 0.9980
vn 0.7672 0.0948 0.6343
vn -0.8000 -0.1559 0.5793
vn 0.7911 -0.0640 -0.6083
vn -0.0011 0.0660 -0.9978
vn -0.6915 0.2031 0.6932
vn 0.0012 -0.0735 0.9973
vn -0.7154 0.2997 -0.6312
vn -0.0012 0.0735 -0.9973
vn 0.0015 -0.0841 0.9965
vn 0.0008 0.0656 -0.9978
vn 0.7816 0.1766 -0.5983
vn -0.0008 -0.0656 0.9978
vn 0.0007 0.0640 -0.9980
vn -0.0013 0.0126 0.9999
vn 0.7307 -0.0562 -0.6804
vn -0.0026 0.0915 -0.9958
vn -0.7366 -0.0208 0.6760
vn -0.0012 0.0106 0.9999
vn -0.7397 0.0311 -0.6723
vn 0.7072 0.3048 -0.6379
vn 0.0011 -0.0660 0.9978
vn -0.0015 0.0841 -0.9965
vn 0.6914 0.1854 0.6983
vn 0.0001 0.0092 -1.0000
vn 0.0002 -0.0672 0.9977
vn 0.5176 0.5533 -0.6526
vn 0.0001 0.0083 -1.0000
vn -0.5282 0.2902 0.7980
vn 0.0002 -0.0657 0.9978
vn -0.0023 0.0838 -0.9965
vn 0.7432 -0.1084 0.6602
vn -0.0012 0.0087 1.0000
vn -0.0025 0.0874 -0.9962
vn 0.0000 -0.9871 -0.1603
vn 0.4738 0.4566 0.7530
vn 0.0002 -0.0643 0.9979
vn 0.0001 0.0088 -1.0000
vn -0.5630 0.3689 -0.7395
vn 0.8305 -0.1564 0.5347
vn 0.0000 0.1128 -0.9936
vn 0.0000 -0.0637 0.9980
vn 0.7518 -0.0491 -0.6576
vn -0.8296 -0.1240 0.5444
vn -0.7568 -0.0210 -0.6533
vn -0.6732 0.4942 -0.5501
vn 0.0003 0.0005 -1.0000
vn 0.0011 -0.0953 0.9954
vn 0.7221 0.0397 0.6907
vn 0.0010 -0.0921 0.9957
vn -0.6307 0.4096 0.6591
vn 0.0003 0.0014 -1.0000
vn 0.7291 0.1043 -0.6764
vn 0.0010 -0.0892 0.9960
vn 0.0003 -0.0005 -1.0000
vn -0.6603 0.1310 -0.7395
vn 0.0005 -0.0018 -1.0000
vn 0.0014 -0.0950 0.9955
vn 0.5966 0.2978 0.7452
vn 0.0015 -0.0994 0.9950
vn -0.6484 0.0545 0.7594
vn 0.0005 -0.0033 -1.0000
vn 0.6292 0.3837 -0.6760
vn 0.0016 -0.1043 0.9945
vn 0.0004 -0.0004 -1.0000
usemtl Material.008
s off
f 36/17/10 22/18/10 16/19/10 32/20/10
f 38/21/11 26/22/11 20/23/11 33/24/11
f 35/25/12 24/26/12 18/27/12 34/28/12
f 46/29/13 40/30/13 14/31/13 31/32/13
f 117/33/14 120/34/14 54/35/14 51/36/14
f 44/37/15 22/38/15 14/31/15 40/30/15
f 42/39/16 16/19/16 22/18/16 44/40/16
f 124/41/17 122/42/17 56/43/17 49/44/17
f 33/24/18 20/23/18 24/45/18 35/46/18
f 31/32/19 14/31/19 22/38/19 36/47/19
f 123/48/20 117/49/20 51/50/20 52/51/20
f 20/23/21 26/22/21 29/52/21 24/45/21
f 24/26/22 29/53/22 28/54/22 18/27/22
f 118/55/23 119/56/23 47/57/23 48/58/23
f 34/28/13 18/27/13 28/54/13 37/59/13
f 45/60/11 42/39/11 26/22/11 38/21/11
f 39/61/24 45/60/24 38/21/24 25/62/24
f 17/63/25 34/28/25 37/59/25 27/64/25
f 13/65/26 31/32/26 36/47/26 21/66/26
f 19/67/27 33/24/27 35/46/27 23/68/27
f 43/69/25 46/29/25 31/32/25 13/65/25
f 23/70/28 35/25/28 34/28/28 17/63/28
f 25/62/24 38/21/24 33/24/24 19/67/24
f 21/71/29 36/17/29 32/20/29 15/72/29
f 27/64/25 37/59/25 46/29/25 43/69/25
f 15/72/24 32/20/24 45/60/24 39/61/24
f 32/20/11 16/19/11 42/39/11 45/60/11
f 120/34/30 121/73/30 53/74/30 54/35/30
f 122/42/17 123/48/17 52/51/17 56/43/17
f 26/22/31 42/39/31 44/40/31 29/52/31
f 29/53/32 44/37/32 40/30/32 28/54/32
f 37/59/13 28/54/13 40/30/13 46/29/13
f 53/74/33 57/75/33 67/76/33 63/77/33
f 50/78/34 49/44/34 59/79/34 60/80/34
f 47/81/35 50/78/35 60/80/35 41/82/35
f 57/75/33 48/58/33 30/83/33 67/76/33
f 56/43/34 52/51/34 62/84/34 66/85/34
f 48/58/36 47/57/36 41/86/36 30/83/36
f 125/87/17 124/41/17 49/44/17 50/78/17
f 126/88/30 118/55/30 48/58/30 57/75/30
f 121/73/37 126/88/37 57/75/37 53/74/37
f 119/89/38 125/87/38 50/78/38 47/81/38
f 61/90/39 64/91/39 74/92/39 71/93/39
f 63/77/40 67/76/40 76/94/40 73/95/40
f 60/80/41 59/79/41 69/96/41 70/97/41
f 41/82/42 60/80/42 70/97/42 58/98/42
f 67/76/40 30/83/40 55/99/40 76/94/40
f 66/85/41 62/84/41 72/100/41 75/101/41
f 51/36/43 54/35/43 64/91/43 61/90/43
f 49/44/34 56/43/34 66/85/34 59/79/34
f 52/51/44 51/50/44 61/102/44 62/84/44
f 54/35/33 53/74/33 63/77/33 64/91/33
f 72/100/45 71/103/45 79/104/45 80/105/45
f 69/96/46 75/101/46 83/106/46 77/107/46
f 71/93/47 74/92/47 82/108/47 79/109/47
f 73/95/48 76/94/48 84/110/48 81/111/48
f 70/97/49 69/96/49 77/107/49 78/112/49
f 58/98/50 70/97/50 78/112/50 68/113/50
f 59/79/41 66/85/41 75/101/41 69/96/41
f 62/84/51 61/102/51 71/103/51 72/100/51
f 64/91/40 63/77/40 73/95/40 74/92/40
f 30/83/52 41/86/52 58/114/52 55/99/52
f 82/108/53 81/111/53 91/115/53 92/116/53
f 80/105/54 79/104/54 89/117/54 90/118/54
f 77/107/55 83/106/55 94/119/55 87/120/55
f 79/109/56 82/108/56 92/116/56 89/121/56
f 81/111/57 84/110/57 95/122/57 91/115/57
f 78/112/58 77/107/58 87/120/58 88/123/58
f 74/92/59 73/95/59 81/111/59 82/108/59
f 55/99/60 58/114/60 68/124/60 65/125/60
f 75/101/61 72/100/61 80/105/61 83/106/61
f 76/94/62 55/99/62 65/125/62 84/110/62
f 94/119/63 90/118/63 102/126/63 105/127/63
f 86/128/64 85/129/64 97/130/64 98/131/64
f 92/116/65 91/115/65 103/132/65 104/133/65
f 90/118/66 89/117/66 101/134/66 102/126/66
f 87/120/67 94/119/67 105/127/67 99/135/67
f 89/121/68 92/116/68 104/133/68 101/136/68
f 65/125/69 68/124/69 85/129/69 86/128/69
f 83/106/70 80/105/70 90/118/70 94/119/70
f 84/110/71 65/125/71 86/128/71 95/122/71
f 68/113/72 78/112/72 88/123/72 85/137/72
f 146/138/73 145/139/73 93/140/73 115/141/73
f 140/142/74 143/143/74 110/144/74 114/145/74
f 145/139/75 137/146/75 96/147/75 93/140/75
f 142/148/76 138/149/76 111/150/76 112/151/76
f 143/143/77 139/152/77 109/153/77 110/144/77
f 144/154/78 140/142/78 114/145/78 107/155/78
f 95/122/79 86/128/79 98/131/79 106/156/79
f 85/137/80 88/123/80 100/157/80 97/158/80
f 88/123/81 87/120/81 99/135/81 100/157/81
f 91/115/82 95/122/82 106/156/82 103/132/82
f 116/159/83 109/160/83 112/151/83 111/150/83
f 114/145/83 110/144/83 109/153/83 116/161/83
f 107/155/83 114/145/83 116/161/83 113/162/83
f 113/163/83 116/159/83 111/150/83 115/141/83
f 96/147/83 113/163/83 115/141/83 93/140/83
f 108/164/83 107/155/83 113/162/83 96/165/83
f 137/166/84 141/167/84 108/164/84 96/165/84
f 141/167/85 144/154/85 107/155/85 108/164/85
f 138/149/86 146/138/86 115/141/86 111/150/86
f 139/168/87 142/148/87 112/151/87 109/160/87
f 21/71/88 15/72/88 125/87/88 119/89/88
f 27/64/89 43/69/89 126/88/89 121/73/89
f 43/69/89 13/65/89 118/55/89 126/88/89
f 15/72/90 39/61/90 124/41/90 125/87/90
f 25/62/90 19/67/90 123/48/90 122/42/90
f 17/63/89 27/64/89 121/73/89 120/34/89
f 13/65/91 21/66/91 119/56/91 118/55/91
f 19/67/92 23/68/92 117/49/92 123/48/92
f 39/61/90 25/62/90 122/42/90 124/41/90
f 23/70/93 17/63/93 120/34/93 117/33/93
f 101/136/94 104/133/94 128/169/94 131/170/94
f 103/132/95 106/156/95 135/171/95 129/172/95
f 100/157/96 99/135/96 132/173/96 136/174/96
f 97/158/97 100/157/97 136/174/97 127/175/97
f 99/135/98 105/127/98 133/176/98 132/173/98
f 102/126/99 101/134/99 131/177/99 130/178/99
f 104/133/100 103/132/100 129/172/100 128/169/100
f 98/131/101 97/130/101 127/179/101 134/180/101
f 105/127/102 102/126/102 130/178/102 133/176/102
f 106/156/103 98/131/103 134/180/103 135/171/103
f 131/170/104 128/169/104 142/148/104 139/168/104
f 129/172/105 135/171/105 146/138/105 138/149/105
f 136/174/106 132/173/106 144/154/106 141/167/106
f 127/175/107 136/174/107 141/167/107 137/166/107
f 132/173/108 133/176/108 140/142/108 144/154/108
f 130/178/109 131/177/109 139/152/109 143/143/109
f 128/169/110 129/172/110 138/149/110 142/148/110
f 134/180/111 127/179/111 137/146/111 145/139/111
f 133/176/112 130/178/112 143/143/112 140/142/112
f 135/171/113 134/180/113 145/139/113 146/138/113
