# Blender v2.79 (sub 6) OBJ File: 'bailarina.blend1'
# www.blender.org
mtllib Guitarra3_000008.mtl
o Guitarra_2:pPlane4
v 12.110890 -3.037998 -3.355959
v 11.748548 -3.558048 -2.637573
v 10.780394 -3.627378 -3.253800
v 11.142738 -3.107330 -3.972188
v 9.895637 -3.139196 -3.475197
v 10.257980 -2.619150 -4.193584
v 8.145614 0.341185 -3.610060
v 7.783271 -0.178864 -2.891671
v 7.576421 0.571618 -2.549129
v 7.938764 1.091668 -3.267517
v 8.017954 1.498824 -1.715623
v 8.229446 1.833550 -2.157357
v 8.377488 2.021779 -2.431410
v 12.904814 -2.571411 -2.596741
v 9.741248 -1.852128 -4.024286
v 9.369813 -0.840514 -3.617394
v 8.576889 -0.130968 -3.647248
v 8.571403 2.124004 -2.253245
v 9.063994 1.960547 -2.062852
v 9.654703 1.871770 -1.768084
v 9.991651 2.316267 -1.293144
v 10.421646 2.520899 -0.911736
v 10.861891 2.088645 -0.918894
v 11.204604 1.462397 -1.104008
v 11.551041 0.994867 -1.188568
v 12.555364 0.515794 -0.890730
v 13.287291 -0.070154 -0.820406
v 13.683228 -0.969650 -1.143319
v 13.489435 -1.878035 -1.820930
v 12.526696 -3.074364 -1.877103
v 8.410009 1.946087 -1.973859
v 4.978663 4.767328 -1.462106
v 5.240339 5.041160 -1.904030
v 4.640168 6.140283 -1.112454
v 4.415551 6.142988 -0.912779
v 4.667010 5.871165 -0.933196
v 4.776496 5.997569 -1.127040
v 4.754930 6.260375 -1.306266
v 4.768051 6.511864 -1.508091
v 8.181069 1.636076 -1.533993
v 8.706177 1.439039 -1.345152
v 5.309463 5.045674 -1.093759
v 4.300406 6.447787 -1.824701
v 3.947906 6.078910 -1.229389
v 4.053463 6.167731 -1.111850
v 4.405963 6.536606 -1.707163
v 5.404189 5.178710 -1.717239
v 5.320588 5.122846 -2.041599
v 5.654236 5.403591 -1.670078
v 5.571136 5.319507 -1.535683
v 8.916810 1.773042 -1.787844
v 4.147356 5.749134 -1.982809
v 4.281425 5.604053 -1.993577
v 4.168922 5.486328 -1.803584
v 4.032595 5.629043 -1.788996
v 4.777858 5.061271 -2.029243
v 4.668055 4.940565 -1.839421
v 4.536563 5.083198 -1.829113
v 4.651833 5.202311 -2.022643
v 4.394408 5.482400 -2.003115
v 4.538525 5.319271 -2.009270
v 4.428145 5.203770 -1.822862
v 4.281775 5.364536 -1.812899
v 4.267453 5.850191 -1.849078
v 4.152692 5.730099 -1.655265
v 4.289020 5.587385 -1.669852
v 4.401522 5.705109 -1.859846
v 4.897957 5.162327 -1.895512
v 4.771932 5.303366 -1.888912
v 4.656662 5.184255 -1.695382
v 4.788155 5.041621 -1.705689
v 4.514508 5.583456 -1.869383
v 4.401874 5.465593 -1.679168
v 4.548245 5.304825 -1.689131
v 4.658622 5.420328 -1.875538
v 13.127092 -2.398081 -1.102544
v 13.320883 -1.489697 -0.424932
v 12.924948 -0.590202 -0.102020
v 12.193019 -0.004254 -0.172341
v 11.188696 0.474819 -0.470180
v 10.809107 1.013885 -0.360925
v 10.499546 1.568596 -0.200507
v 9.990567 1.973851 -0.250779
v 9.629307 1.796220 -0.574755
v 9.292360 1.351721 -1.049697
v 8.214548 -0.651017 -2.928860
v 9.007467 -1.360561 -2.899007
v 9.378902 -2.372177 -3.305898
v 5.001983 5.993641 -1.326572
v 4.888997 6.115294 -1.317034
v 4.889350 5.875777 -1.136356
v 4.875029 6.361431 -1.172534
v 4.760267 6.241339 -0.978722
v 4.896595 6.098626 -0.993309
v 5.009097 6.216351 -1.183302
v 5.505531 5.673568 -1.218969
v 5.379507 5.814607 -1.212368
v 5.264235 5.695494 -1.018840
v 5.395728 5.552861 -1.029146
v 5.122082 6.094697 -1.192840
v 5.009449 5.976833 -1.002624
v 5.155820 5.816066 -1.012587
v 5.266197 5.931570 -1.198995
v 5.385434 5.572511 -1.352700
v 5.259406 5.713551 -1.346100
v 5.144136 5.594438 -1.152570
v 5.275630 5.451805 -1.162877
v 5.035721 5.715009 -1.146319
v 5.146098 5.830513 -1.332727
v 4.787036 5.741331 -0.942875
v 4.933920 5.582875 -0.955047
v 4.436100 5.181781 -1.495436
v 4.286520 5.343104 -1.483013
v 3.928074 5.732804 -1.455590
v 4.280573 6.101680 -2.050903
v 4.143747 5.499113 -1.472685
v 4.639338 5.713580 -2.079819
v 4.784633 5.556820 -2.091843
v 4.790765 4.798044 -1.523972
v 5.143268 5.166920 -2.119285
v 5.010200 6.249962 -1.527644
v 3.990534 5.956138 -1.280220
v 4.343036 6.325014 -1.875534
v 5.278243 5.208228 -0.981160
v 4.552794 5.055496 -1.504806
v 5.041800 5.464048 -0.962136
v 4.175656 6.111908 -1.074082
v 4.528159 6.480784 -1.669397
v 4.900068 5.429940 -2.099633
v 4.514134 5.848930 -2.069659
v 5.113011 6.138472 -1.535726
v 5.272566 5.966517 -1.549074
v 5.393653 5.833616 -1.557389
v 5.630744 5.577104 -1.576473
vt 0.735914 0.659422
vt 0.789193 0.659422
vt 0.789193 0.715185
vt 0.735914 0.715185
vt 0.816888 0.113382
vt 0.870167 0.107923
vt 0.870167 0.160781
vt 0.816888 0.166240
vt 0.816888 0.369404
vt 0.870167 0.363945
vt 0.870167 0.403590
vt 0.816888 0.409050
vt 0.731155 0.575499
vt 0.677876 0.575499
vt 0.677981 0.505501
vt 0.710850 0.505460
vt 0.731155 0.505418
vt 0.616009 0.468244
vt 0.549850 0.459605
vt 0.494086 0.427645
vt 0.470627 0.374786
vt 0.480954 0.323250
vt 0.511328 0.266468
vt 0.503868 0.207431
vt 0.504109 0.171623
vt 0.530354 0.131977
vt 0.600435 0.107922
vt 0.616009 0.110536
vt 0.634472 0.135319
vt 0.661960 0.160441
vt 0.702327 0.153537
vt 0.735762 0.160278
vt 0.737994 0.194699
vt 0.725284 0.233919
vt 0.720689 0.266468
vt 0.751063 0.323250
vt 0.761390 0.374786
vt 0.737931 0.427645
vt 0.682167 0.459605
vt 0.789193 0.593263
vt 0.735914 0.593263
vt 0.710560 0.489845
vt 0.731155 0.489845
vt 0.808348 0.107923
vt 0.809532 0.357831
vt 0.776995 0.357831
vt 0.775479 0.112321
vt 0.772042 0.359625
vt 0.771570 0.373161
vt 0.810410 0.373121
vt 0.810927 0.360098
vt 0.810927 0.360098
vt 0.772042 0.359625
vt 0.810410 0.373121
vt 0.243136 0.716617
vt 0.243355 0.466708
vt 0.259011 0.466708
vt 0.277557 0.439312
vt 0.274887 0.716617
vt 0.522564 0.515171
vt 0.522564 0.471340
vt 0.532696 0.471340
vt 0.532696 0.515171
vt 0.486970 0.487353
vt 0.486778 0.503228
vt 0.476773 0.503365
vt 0.476773 0.471340
vt 0.486778 0.471477
vt 0.867866 0.659325
vt 0.852251 0.657656
vt 0.851991 0.412147
vt 0.867866 0.412147
vt 0.883742 0.412147
vt 0.886370 0.685053
vt 0.472013 0.506882
vt 0.460953 0.506893
vt 0.460953 0.492905
vt 0.472013 0.492612
vt 0.397163 0.827232
vt 0.396938 0.813240
vt 0.407799 0.813249
vt 0.407740 0.827494
vt 0.343983 0.827371
vt 0.331817 0.826964
vt 0.331817 0.813240
vt 0.343983 0.813366
vt 0.440374 0.506882
vt 0.428846 0.506882
vt 0.428846 0.492612
vt 0.440374 0.492612
vt 0.124689 0.828503
vt 0.124689 0.840031
vt 0.113630 0.840031
vt 0.113630 0.828503
vt 0.244980 0.827228
vt 0.233453 0.827228
vt 0.233453 0.813240
vt 0.244980 0.813240
vt 0.141473 0.828503
vt 0.141473 0.840031
vt 0.130413 0.840031
vt 0.130413 0.828503
vt 0.157623 0.828503
vt 0.157623 0.840031
vt 0.147046 0.840031
vt 0.147046 0.828503
vt 0.376558 0.827485
vt 0.365031 0.827485
vt 0.365031 0.813240
vt 0.376558 0.813240
vt 0.174539 0.828503
vt 0.174539 0.840031
vt 0.163679 0.840031
vt 0.163679 0.828503
vt 0.277555 0.827232
vt 0.266028 0.827232
vt 0.266028 0.813240
vt 0.277555 0.813240
vt 0.310130 0.827245
vt 0.298602 0.827245
vt 0.298602 0.813240
vt 0.310130 0.813240
vt 0.179831 0.825407
vt 0.168303 0.825407
vt 0.168303 0.813240
vt 0.179831 0.813240
vt 0.212405 0.826964
vt 0.200878 0.826964
vt 0.200878 0.813240
vt 0.212405 0.813240
vt 0.163543 0.825406
vt 0.152016 0.825406
vt 0.152016 0.813240
vt 0.163543 0.813240
vt 0.259011 0.107923
vt 0.325170 0.115259
vt 0.380934 0.147220
vt 0.404393 0.200078
vt 0.394066 0.251614
vt 0.363692 0.308396
vt 0.370063 0.345209
vt 0.380997 0.380166
vt 0.373705 0.415909
vt 0.345330 0.421327
vt 0.304962 0.414424
vt 0.173357 0.442887
vt 0.147112 0.403242
vt 0.146870 0.367433
vt 0.154331 0.308396
vt 0.123957 0.251614
vt 0.113630 0.200078
vt 0.137089 0.147220
vt 0.192853 0.115259
vt 0.735914 0.527104
vt 0.735914 0.471340
vt 0.789193 0.471340
vt 0.789193 0.527104
vt 0.847231 0.445787
vt 0.847231 0.498646
vt 0.793953 0.493186
vt 0.793953 0.440328
vt 0.621567 0.504775
vt 0.621567 0.545143
vt 0.568289 0.545143
vt 0.568289 0.504775
vt 0.465791 0.113382
vt 0.465791 0.138503
vt 0.445487 0.137209
vt 0.412617 0.132810
vt 0.412513 0.107923
vt 0.731155 0.471382
vt 0.710850 0.471340
vt 0.443970 0.410115
vt 0.411433 0.410115
vt 0.810927 0.360098
vt 0.772042 0.359625
vt 0.771570 0.373161
vt 0.810410 0.373121
vt 0.456193 0.492623
vt 0.456193 0.506893
vt 0.445134 0.506601
vt 0.445134 0.492612
vt 0.381543 0.813502
vt 0.392120 0.813240
vt 0.392178 0.827485
vt 0.381318 0.827493
vt 0.327057 0.813240
vt 0.327057 0.827245
vt 0.314890 0.827371
vt 0.314890 0.813647
vt 0.412559 0.506882
vt 0.412559 0.492612
vt 0.424086 0.492612
vt 0.424086 0.506882
vt 0.191371 0.841588
vt 0.180311 0.841588
vt 0.180311 0.830061
vt 0.191371 0.830061
vt 0.217165 0.827228
vt 0.217165 0.813240
vt 0.228693 0.813240
vt 0.228693 0.827228
vt 0.208004 0.841588
vt 0.196944 0.841588
vt 0.196944 0.830061
vt 0.208004 0.830061
vt 0.224154 0.841852
vt 0.213577 0.841852
vt 0.213577 0.830325
vt 0.224154 0.830325
vt 0.348743 0.827485
vt 0.348743 0.813240
vt 0.360271 0.813240
vt 0.360271 0.827485
vt 0.241070 0.841852
vt 0.230209 0.841852
vt 0.230209 0.830325
vt 0.241070 0.830325
vt 0.249740 0.827232
vt 0.249740 0.813240
vt 0.261268 0.813240
vt 0.261268 0.827232
vt 0.282315 0.827245
vt 0.282315 0.813240
vt 0.293842 0.813240
vt 0.293842 0.827245
vt 0.135728 0.825407
vt 0.135728 0.813240
vt 0.147256 0.813240
vt 0.147256 0.825407
vt 0.184591 0.826964
vt 0.184591 0.813240
vt 0.196118 0.813240
vt 0.196118 0.826964
vt 0.119441 0.825406
vt 0.119441 0.813240
vt 0.130968 0.813240
vt 0.130968 0.825406
vt 0.810927 0.360098
vt 0.772042 0.359625
vt 0.771570 0.373161
vt 0.810927 0.360098
vt 0.810410 0.373121
vt 0.771570 0.373161
vt 0.772042 0.359625
vt 0.771570 0.373161
vt 0.810410 0.373121
vt 0.810927 0.360098
vt 0.772042 0.359625
vt 0.771570 0.373161
vt 0.772042 0.359625
vt 0.810927 0.360098
vt 0.810410 0.373121
vt 0.810410 0.373121
vt 0.810927 0.360098
vt 0.772042 0.359625
vt 0.771570 0.373161
vt 0.810927 0.360098
vt 0.810410 0.373121
vt 0.771570 0.373161
vt 0.772042 0.359625
vt 0.810410 0.373121
vt 0.810927 0.360098
vt 0.772042 0.359625
vt 0.771570 0.373161
vt 0.772042 0.359625
vt 0.771570 0.373161
vt 0.810410 0.373121
vt 0.870167 0.212317
vt 0.816888 0.217777
vt 0.870167 0.269099
vt 0.816888 0.274559
vt 0.870167 0.328136
vt 0.816888 0.333596
vt 0.810821 0.366019
vt 0.766990 0.366019
vt 0.766990 0.357731
vt 0.771570 0.373161
vt 0.810410 0.373121
vt 0.549018 0.471340
vt 0.563529 0.471340
vt 0.563529 0.515171
vt 0.549018 0.515171
vt 0.537455 0.471340
vt 0.544258 0.471340
vt 0.544258 0.515171
vt 0.537455 0.515171
vt 0.235617 0.724805
vt 0.282406 0.724805
vt 0.235617 0.796017
vt 0.235617 0.778214
vt 0.235617 0.760411
vt 0.235617 0.751510
vt 0.235617 0.742608
vt 0.282406 0.742608
vt 0.282406 0.760411
vt 0.282406 0.769313
vt 0.282406 0.778214
vt 0.282406 0.796017
vt 0.250127 0.803340
vt 0.267896 0.803340
vt 0.253946 0.810143
vt 0.264077 0.810143
vt 0.640837 0.478143
vt 0.644656 0.471340
vt 0.654787 0.471340
vt 0.658606 0.478143
vt 0.626327 0.485467
vt 0.673117 0.485467
vt 0.626327 0.556679
vt 0.626327 0.538876
vt 0.626327 0.521073
vt 0.626327 0.512172
vt 0.626327 0.503270
vt 0.673117 0.503270
vt 0.673117 0.512172
vt 0.673117 0.521073
vt 0.673117 0.538876
vt 0.673117 0.556679
vt 0.633709 0.564967
vt 0.665734 0.564967
vt 0.847231 0.550182
vt 0.793953 0.544723
vt 0.847231 0.606964
vt 0.793953 0.601505
vt 0.847231 0.639513
vt 0.793953 0.638317
vt 0.847231 0.678733
vt 0.847231 0.713154
vt 0.793953 0.709017
vt 0.793953 0.673274
vt 0.453975 0.410015
vt 0.453975 0.418303
vt 0.410144 0.418303
vt 0.772042 0.359625
vt 0.771570 0.373161
vt 0.772042 0.359625
vt 0.771570 0.373161
vt 0.810410 0.373121
vt 0.810927 0.360098
vt 0.517804 0.471340
vt 0.517804 0.515171
vt 0.503293 0.515171
vt 0.503293 0.471340
vt 0.491730 0.515171
vt 0.491730 0.471340
vt 0.498533 0.471340
vt 0.498533 0.515171
vt 0.568289 0.476400
vt 0.621567 0.471340
vt 0.771570 0.373161
vt 0.810410 0.373121
vt 0.810927 0.360098
vt 0.810410 0.373121
vt 0.771570 0.373161
vt 0.772042 0.359625
vt 0.772042 0.359625
vt 0.810927 0.360098
vt 0.810410 0.373121
vt 0.772042 0.359625
vt 0.810927 0.360098
vt 0.771570 0.373161
vt 0.810410 0.373121
vt 0.772042 0.359625
vt 0.810927 0.360098
vt 0.771570 0.373161
vt 0.772042 0.359625
vt 0.810927 0.360098
vt 0.772042 0.359625
vt 0.771570 0.373161
vt 0.810927 0.360098
vt 0.772042 0.359625
vt 0.810927 0.360098
vt 0.810410 0.373121
vt 0.771570 0.373161
vt 0.810927 0.360098
vt 0.772042 0.359625
vt 0.810927 0.360098
vt 0.810410 0.373121
vt 0.771570 0.373161
vt 0.810410 0.373121
vt 0.810927 0.360098
vt 0.772042 0.359625
vt 0.771570 0.373161
vt 0.810410 0.373121
vn 0.3366 -0.8352 -0.4349
vn -0.2387 -0.7254 -0.6456
vn -0.8835 -0.0302 -0.4675
vn -0.8712 0.4832 -0.0871
vn 0.4496 0.4705 -0.7593
vn 0.6403 -0.7421 -0.1983
vn -0.6094 0.7741 0.1714
vn -0.5815 -0.4905 -0.6491
vn 0.5824 0.4901 0.6485
vn 0.6012 0.5119 0.6137
vn 0.5676 0.3539 0.7434
vn 0.6932 0.4825 0.5355
vn -0.4476 -0.4748 0.7578
vn -0.6772 0.7338 0.0537
vn 0.6727 -0.7384 -0.0462
vn 0.4469 0.4757 -0.7577
vn -0.5824 -0.4901 -0.6485
vn -0.4316 -0.4897 0.7576
vn 0.6772 -0.7338 -0.0537
vn 0.4489 0.4712 -0.7592
vn 0.4662 0.4522 -0.7604
vn -0.6754 0.7357 0.0506
vn -0.4502 -0.4699 0.7593
vn 0.6844 -0.7262 -0.0659
vn -0.4566 -0.4628 0.7598
vn 0.4720 0.4457 -0.7607
vn -0.4496 -0.4704 0.7593
vn 0.9136 -0.3497 0.2076
vn 0.8251 0.1697 0.5390
vn -0.8070 0.5902 0.0202
vn -0.1346 0.8330 0.5366
vn 0.7793 -0.6251 -0.0434
vn 0.0598 0.8178 0.5723
vn 0.5759 0.4971 0.6490
vn 0.6125 0.4565 0.6453
vn 0.6000 0.5131 0.6138
vn -0.4622 -0.4859 -0.7418
vn -0.5814 -0.6084 -0.5402
vn -0.4729 -0.5959 -0.6491
vn -0.7130 -0.3457 -0.6099
vn -0.7949 -0.2247 -0.5636
vn -0.8032 -0.2103 -0.5573
vn -0.8537 -0.1086 -0.5093
vn -0.4871 -0.5721 -0.6599
vn -0.5227 -0.5433 -0.6570
vn -0.5290 -0.5380 -0.6563
vn -0.5873 -0.4854 -0.6476
vn 0.0266 -0.8579 -0.5132
vn -0.2381 -0.6932 -0.6803
vn -0.4479 -0.6174 -0.6467
vn 0.6869 0.3616 0.6305
vn -0.7887 0.5006 -0.3568
vn -0.8919 0.2820 -0.3534
vn -0.9278 0.3535 -0.1197
vn -0.8394 -0.0682 -0.5393
vn -0.4439 -0.4758 0.7593
vn -0.3388 -0.5788 0.7417
vn -0.4440 -0.4757 0.7593
vn -0.4493 -0.4702 0.7596
vn -0.4490 -0.4700 0.7599
vn -0.4793 -0.4362 0.7616
vn -0.4790 -0.4365 0.7616
vn -0.4792 -0.4363 0.7616
vn -0.4496 -0.4705 0.7593
vn -0.4491 -0.4701 0.7598
vn 0.4289 0.6151 0.6616
vn 0.2828 0.7035 0.6520
vn 0.2985 0.6953 0.6539
vn 0.1722 0.7546 0.6331
vn 0.6926 0.3817 0.6121
vn 0.7388 0.3183 0.5940
vn 0.7381 0.3193 0.5944
vn 0.6307 0.4211 0.6518
vn -0.0445 0.8024 0.5951
vn -0.0500 0.8037 0.5930
vn 0.6510 0.4019 0.6440
vn 0.8860 -0.1348 0.4437
vn 0.6945 0.3490 0.6292
vn 0.8338 0.2082 0.5114
vn 0.6125 0.4564 0.6454
vn 0.5998 0.5132 0.6138
vn -0.2668 0.9392 0.2159
vn -0.4121 0.7856 0.4615
vn -0.1808 0.8804 0.4384
vn -0.1809 0.8803 0.4385
vn 0.1764 0.7865 0.5918
vn -0.5931 0.7651 0.2507
vn 0.6122 0.4562 0.6459
vn -0.4666 -0.6010 -0.6489
usemtl initialShadingGroup.004
s off
f 1/1/1 2/2/1 3/3/1 4/4/1
f 4/5/2 3/6/2 5/7/2 6/8/2
f 7/9/3 8/10/3 9/11/3 10/12/3
f 10/13/4 9/14/4 11/15/4 12/16/4 13/17/4
f 14/18/5 1/19/5 4/20/5 6/21/5 15/22/5 16/23/5 17/24/5 7/25/5 10/26/5 13/27/5 18/28/5 19/29/5 20/30/5 21/31/5 22/32/5 23/33/5 24/34/5 25/35/5 26/36/5 27/37/5 28/38/5 29/39/5
f 30/40/6 2/2/6 1/1/6 14/41/6
f 13/17/7 12/16/7 31/42/7 18/43/7
f 11/44/8 32/45/8 33/46/8 12/47/8
f 34/48/9 35/49/9 36/50/10 37/51/9
f 38/52/9 39/53/11 35/49/12 34/54/9
f 32/55/13 11/56/13 40/57/13 41/58/13 42/59/13
f 43/60/14 44/61/14 45/62/14 46/63/14
f 47/64/15 33/65/15 48/66/15 49/67/15 50/68/15
f 31/69/16 12/70/16 33/71/16 47/72/16 50/73/16 51/74/16
f 52/75/17 53/76/17 54/77/17 55/78/17
f 56/79/17 57/80/17 58/81/17 59/82/17
f 60/83/17 61/84/17 62/85/17 63/86/17
f 64/87/14 52/88/14 55/89/14 65/90/14
f 65/91/18 55/92/18 54/93/18 66/94/18
f 66/95/19 54/96/19 53/97/19 67/98/19
f 67/99/20 53/100/20 52/101/20 64/102/20
f 68/103/21 56/104/21 59/105/21 69/106/21
f 69/107/22 59/108/22 58/109/22 70/110/22
f 70/111/23 58/112/23 57/113/23 71/114/23
f 71/115/24 57/116/24 56/117/24 68/118/24
f 72/119/14 60/120/14 63/121/14 73/122/14
f 73/123/25 63/124/25 62/125/25 74/126/25
f 74/127/19 62/128/19 61/129/19 75/130/19
f 75/131/26 61/132/26 60/133/26 72/134/26
f 30/135/27 76/136/27 77/137/27 78/138/27 79/139/27 80/140/27 81/141/27 82/142/27 83/143/27 84/144/27 85/145/27 41/58/27 40/57/27 11/56/27 9/146/27 8/147/27 86/148/27 87/149/27 88/150/27 5/151/27 3/152/27 2/153/27
f 29/154/28 28/155/28 77/156/28 76/157/28
f 28/158/29 27/159/29 78/160/29 77/161/29
f 21/162/30 20/163/30 85/164/30 84/165/30
f 20/166/31 19/167/31 51/168/31 41/169/31 85/170/31
f 30/40/32 14/41/32 29/154/32 76/157/32
f 19/171/33 18/43/33 31/42/33 51/172/33
f 41/169/34 51/168/34 50/173/34 42/174/34
f 89/175/9 90/176/9 37/177/9 91/178/9
f 92/179/9 93/180/9 94/181/9 95/182/9
f 96/183/9 97/184/9 98/185/9 99/186/9
f 100/187/9 101/188/9 102/189/9 103/190/9
f 38/191/14 34/192/14 93/193/14 92/194/14
f 34/195/18 37/196/18 94/197/18 93/198/18
f 37/199/19 90/200/19 95/201/19 94/202/19
f 90/203/20 38/204/20 92/205/20 95/206/20
f 104/207/21 105/208/21 97/209/21 96/210/21
f 105/211/22 106/212/22 98/213/22 97/214/22
f 106/215/23 107/216/23 99/217/23 98/218/23
f 107/219/24 104/220/24 96/221/24 99/222/24
f 89/223/14 91/224/14 101/225/14 100/226/14
f 91/227/25 108/228/25 102/229/25 101/230/25
f 108/231/19 109/232/19 103/233/19 102/234/19
f 109/235/26 89/236/26 100/237/26 103/238/26
f 91/178/9 110/239/35 111/240/36 108/241/9
f 106/242/9 105/243/9 109/244/9 108/245/9
f 73/246/17 74/247/17 112/248/17 113/249/17
f 64/250/17 65/251/17 114/252/37 115/253/38
f 65/254/17 66/255/17 116/256/17 114/257/39
f 72/258/17 73/259/17 66/260/17 67/261/17
f 70/262/17 74/263/17 75/264/17 69/265/17
f 72/258/17 117/266/17 118/267/17 75/268/17
s 1
f 6/8/40 5/7/40 88/269/41 15/270/42
f 15/270/42 88/269/41 87/271/43 16/272/43
f 16/272/44 87/271/44 86/273/45 17/274/46
f 17/274/46 86/273/45 8/10/47 7/9/47
f 32/45/48 119/275/49 120/276/50 48/277/48 33/46/48
f 121/278/9 39/53/51 38/52/9 90/279/9
f 114/280/52 122/281/53 123/282/53 115/283/54
f 122/284/53 44/285/55 43/286/55 123/287/53
f 119/288/56 32/55/57 42/59/57 124/289/58
f 114/290/59 116/291/60 113/292/60 112/293/60 125/294/60 119/288/56 124/289/58 126/295/61 111/296/62 110/297/63 36/298/63 35/299/59
f 122/300/64 114/290/65 35/299/65 127/301/64
f 44/302/64 122/300/64 127/301/64 45/303/64
f 123/304/5 43/305/5 46/306/5 128/307/5
f 115/308/5 123/304/5 128/307/5 39/309/5
f 120/310/5 129/311/5 118/312/5 117/313/5 130/314/5 115/308/5 39/309/5 121/315/5 131/316/5 132/317/5 133/318/5 134/319/5
f 48/320/5 120/310/5 134/319/5 49/321/5
f 27/159/66 26/322/67 79/323/68 78/160/66
f 26/322/67 25/324/69 80/325/69 79/323/68
f 25/324/70 24/326/71 81/327/72 80/325/70
f 23/328/73 22/329/74 83/330/75 82/331/76
f 42/174/77 50/173/77 49/332/77 134/333/78 124/334/79
f 36/335/80 110/336/81 91/178/9 37/51/9
f 121/337/9 90/338/9 89/339/9 131/340/9
f 35/341/82 39/342/83 128/343/84 127/344/85
f 127/345/85 128/346/84 46/347/86 45/348/86
f 83/349/75 22/350/74 21/162/87 84/165/87
f 81/327/72 24/326/71 23/328/73 82/331/76
f 111/351/88 126/352/80 106/242/9 108/245/9
f 126/353/80 124/354/79 107/355/9 106/356/9
f 124/357/79 134/358/78 104/359/9 107/355/9
f 132/360/9 109/361/9 105/243/9 133/362/9
f 132/363/9 131/340/9 89/364/9 109/244/9
f 133/365/9 105/243/9 104/366/9 134/367/78
f 73/259/17 113/368/17 116/256/17 66/260/17
f 112/369/17 74/370/17 70/262/17 125/371/17
f 125/372/17 70/373/17 71/374/17 119/375/49
f 119/375/49 71/374/17 68/376/17 120/377/50
f 69/378/17 75/264/17 118/267/17 129/379/17
f 130/380/17 117/266/17 72/258/17 67/381/17
f 115/253/89 130/382/17 67/261/17 64/250/17
f 129/383/17 120/384/50 68/385/17 69/378/17
