# Blender v2.79 (sub 6) OBJ File: 'bailarina.blend1'
# www.blender.org
mtllib Guitarra3_000010.mtl
o Guitarra_2:pPlane4
v 13.354898 19.455545 0.188159
v 13.991404 18.769281 0.392412
v 13.726400 18.302271 -0.624224
v 13.089895 18.988539 -0.828475
v 13.059462 17.674955 -1.105678
v 12.422958 18.361221 -1.309932
v 9.448388 16.210920 -1.002835
v 10.084895 15.524651 -0.798580
v 9.438890 15.146614 -0.394709
v 8.802384 15.832884 -0.598961
v 8.869321 15.035322 0.793821
v 8.461976 15.447533 0.667122
v 8.230352 15.717751 0.591074
v 13.256655 19.689535 1.354362
v 11.662308 17.819628 -1.200030
v 10.761065 17.262972 -0.747495
v 9.953847 16.601856 -0.958204
v 8.215395 15.779169 0.866391
v 8.503280 16.089039 1.222366
v 8.765917 16.421638 1.736279
v 8.534403 16.431328 2.431252
v 8.518220 16.575537 3.023860
v 8.995897 16.956526 3.109764
v 9.590906 17.358465 2.941486
v 10.064902 17.704586 2.905711
v 10.764149 18.389380 3.513165
v 11.456120 18.974541 3.763675
v 12.279072 19.502892 3.426435
v 12.914919 19.734650 2.496998
v 13.874809 18.989031 1.556839
v 8.436627 15.494642 0.942944
v 5.360474 12.286356 0.453453
v 5.018744 12.741911 0.333262
v 4.106715 11.780605 0.995807
v 4.124421 11.483165 1.035136
v 4.416210 11.710328 1.063280
v 4.259513 11.905594 1.009815
v 3.956847 11.980394 0.943096
v 3.664081 12.096840 0.873229
v 8.817261 15.068348 1.067010
v 9.141700 15.406958 1.427990
v 5.254896 12.353329 1.007484
v 3.559636 11.882383 0.357341
v 4.019976 11.268708 0.519248
v 3.986286 11.290079 0.696038
v 3.525947 11.903755 0.534132
v 4.967981 12.772698 0.610990
v 4.915534 12.882792 0.294055
v 4.809047 12.950344 0.852862
v 4.913168 12.808886 0.887295
v 8.734628 15.818996 1.299853
v 4.150761 11.857384 -0.074495
v 4.306514 11.978437 -0.059448
v 4.453427 11.782583 -0.007776
v 4.300630 11.657595 -0.021784
v 4.889693 12.424488 -0.002237
v 5.039812 12.231047 0.049755
v 4.886662 12.112452 0.034907
v 4.737880 12.312533 -0.017632
v 4.437060 12.080695 -0.046932
v 4.612803 12.207996 -0.028831
v 4.756943 12.015840 0.021865
v 4.584147 11.884611 0.004801
v 4.112431 11.881699 0.126651
v 4.262299 11.681910 0.179361
v 4.415097 11.806899 0.193371
v 4.268180 12.002752 0.141697
v 4.851361 12.448804 0.198909
v 4.699550 12.336848 0.183513
v 4.848330 12.136766 0.236053
v 5.001482 12.255362 0.250901
v 4.398729 12.105009 0.154214
v 4.545818 11.908926 0.205947
v 4.718613 12.040155 0.223011
v 4.574470 12.232311 0.172314
v 13.551426 19.048384 2.701250
v 12.915577 18.816624 3.630688
v 12.092623 18.288275 3.967929
v 11.400650 17.703108 3.717416
v 10.701406 17.018316 3.109962
v 10.161416 16.629328 3.170906
v 9.632405 16.270256 3.314017
v 9.152914 15.864140 3.138018
v 9.170907 15.745058 2.635505
v 9.402420 15.735369 1.940532
v 10.590355 15.915586 -0.753950
v 11.397572 16.576700 -0.543241
v 12.298807 17.133358 -0.995778
v 4.243145 12.203705 0.970659
v 4.112598 12.101449 0.958142
v 4.390236 12.007622 1.022392
v 3.918516 12.004709 1.144242
v 4.068384 11.804920 1.196953
v 4.221181 11.929911 1.210961
v 4.074267 12.125763 1.159288
v 4.657448 12.571815 1.216499
v 4.505634 12.459859 1.201104
v 4.654414 12.259776 1.253643
v 4.807567 12.378373 1.268491
v 4.204816 12.228022 1.171805
v 4.351903 12.031937 1.223537
v 4.524698 12.163166 1.240601
v 4.380555 12.355324 1.189905
v 4.695779 12.547500 1.015354
v 4.543964 12.435543 0.999958
v 4.692746 12.235462 1.052497
v 4.845897 12.354057 1.067345
v 4.563028 12.138850 1.039456
v 4.418886 12.331007 0.988759
v 4.555589 11.818723 1.076736
v 4.725653 11.951544 1.093088
v 4.871662 11.842680 0.276049
v 4.698519 11.707407 0.259407
v 4.280005 11.384470 0.218691
v 3.819664 11.998144 0.056784
v 4.530908 11.579088 0.242978
v 4.236296 12.322132 0.097013
v 4.404547 12.453506 0.113194
v 5.283616 12.162941 0.315837
v 4.823276 12.776615 0.153930
v 3.945233 12.315535 0.900369
v 4.128548 11.335020 0.461899
v 3.668207 11.948698 0.299991
v 5.128032 12.261637 1.132282
v 5.007236 11.948044 0.289147
v 4.853400 12.048130 1.105756
v 4.069464 11.372499 0.771949
v 3.609123 11.986177 0.610042
v 4.540924 12.556963 0.126676
v 4.091004 12.209028 0.082999
v 4.064943 12.408274 0.911970
v 4.249483 12.552617 0.929689
v 4.392320 12.661216 0.943779
v 4.667692 12.875311 0.970375
vt 0.735914 0.659422
vt 0.789193 0.659422
vt 0.789193 0.715185
vt 0.735914 0.715185
vt 0.816888 0.113382
vt 0.870167 0.107923
vt 0.870167 0.160781
vt 0.816888 0.166240
vt 0.816888 0.369404
vt 0.870167 0.363945
vt 0.870167 0.403590
vt 0.816888 0.409050
vt 0.731155 0.575499
vt 0.677876 0.575499
vt 0.677981 0.505501
vt 0.710850 0.505460
vt 0.731155 0.505418
vt 0.616009 0.468244
vt 0.549850 0.459605
vt 0.494086 0.427645
vt 0.470627 0.374786
vt 0.480954 0.323250
vt 0.511328 0.266468
vt 0.503868 0.207431
vt 0.504109 0.171623
vt 0.530354 0.131977
vt 0.600435 0.107922
vt 0.616009 0.110536
vt 0.634472 0.135319
vt 0.661960 0.160441
vt 0.702327 0.153537
vt 0.735762 0.160278
vt 0.737994 0.194699
vt 0.725284 0.233919
vt 0.720689 0.266468
vt 0.751063 0.323250
vt 0.761390 0.374786
vt 0.737931 0.427645
vt 0.682167 0.459605
vt 0.789193 0.593263
vt 0.735914 0.593263
vt 0.710560 0.489845
vt 0.731155 0.489845
vt 0.808348 0.107923
vt 0.809532 0.357831
vt 0.776995 0.357831
vt 0.775479 0.112321
vt 0.772042 0.359625
vt 0.771570 0.373161
vt 0.810410 0.373121
vt 0.810927 0.360098
vt 0.810927 0.360098
vt 0.772042 0.359625
vt 0.810410 0.373121
vt 0.243136 0.716617
vt 0.243355 0.466708
vt 0.259011 0.466708
vt 0.277557 0.439312
vt 0.274887 0.716617
vt 0.522564 0.515171
vt 0.522564 0.471340
vt 0.532696 0.471340
vt 0.532696 0.515171
vt 0.486970 0.487353
vt 0.486778 0.503228
vt 0.476773 0.503365
vt 0.476773 0.471340
vt 0.486778 0.471477
vt 0.867866 0.659325
vt 0.852251 0.657656
vt 0.851991 0.412147
vt 0.867866 0.412147
vt 0.883742 0.412147
vt 0.886370 0.685053
vt 0.472013 0.506882
vt 0.460953 0.506893
vt 0.460953 0.492905
vt 0.472013 0.492612
vt 0.397163 0.827232
vt 0.396938 0.813240
vt 0.407799 0.813249
vt 0.407740 0.827494
vt 0.343983 0.827371
vt 0.331817 0.826964
vt 0.331817 0.813240
vt 0.343983 0.813366
vt 0.440374 0.506882
vt 0.428846 0.506882
vt 0.428846 0.492612
vt 0.440374 0.492612
vt 0.124689 0.828503
vt 0.124689 0.840031
vt 0.113630 0.840031
vt 0.113630 0.828503
vt 0.244980 0.827228
vt 0.233453 0.827228
vt 0.233453 0.813240
vt 0.244980 0.813240
vt 0.141473 0.828503
vt 0.141473 0.840031
vt 0.130413 0.840031
vt 0.130413 0.828503
vt 0.157623 0.828503
vt 0.157623 0.840031
vt 0.147046 0.840031
vt 0.147046 0.828503
vt 0.376558 0.827485
vt 0.365031 0.827485
vt 0.365031 0.813240
vt 0.376558 0.813240
vt 0.174539 0.828503
vt 0.174539 0.840031
vt 0.163679 0.840031
vt 0.163679 0.828503
vt 0.277555 0.827232
vt 0.266028 0.827232
vt 0.266028 0.813240
vt 0.277555 0.813240
vt 0.310130 0.827245
vt 0.298602 0.827245
vt 0.298602 0.813240
vt 0.310130 0.813240
vt 0.179831 0.825407
vt 0.168303 0.825407
vt 0.168303 0.813240
vt 0.179831 0.813240
vt 0.212405 0.826964
vt 0.200878 0.826964
vt 0.200878 0.813240
vt 0.212405 0.813240
vt 0.163543 0.825406
vt 0.152016 0.825406
vt 0.152016 0.813240
vt 0.163543 0.813240
vt 0.259011 0.107923
vt 0.325170 0.115259
vt 0.380934 0.147220
vt 0.404393 0.200078
vt 0.394066 0.251614
vt 0.363692 0.308396
vt 0.370063 0.345209
vt 0.380997 0.380166
vt 0.373705 0.415909
vt 0.345330 0.421327
vt 0.304962 0.414424
vt 0.173357 0.442887
vt 0.147112 0.403242
vt 0.146870 0.367433
vt 0.154331 0.308396
vt 0.123957 0.251614
vt 0.113630 0.200078
vt 0.137089 0.147220
vt 0.192853 0.115259
vt 0.735914 0.527104
vt 0.735914 0.471340
vt 0.789193 0.471340
vt 0.789193 0.527104
vt 0.847231 0.445787
vt 0.847231 0.498646
vt 0.793953 0.493186
vt 0.793953 0.440328
vt 0.621567 0.504775
vt 0.621567 0.545143
vt 0.568289 0.545143
vt 0.568289 0.504775
vt 0.465791 0.113382
vt 0.465791 0.138503
vt 0.445487 0.137209
vt 0.412617 0.132810
vt 0.412513 0.107923
vt 0.731155 0.471382
vt 0.710850 0.471340
vt 0.443970 0.410115
vt 0.411433 0.410115
vt 0.810927 0.360098
vt 0.772042 0.359625
vt 0.771570 0.373161
vt 0.810410 0.373121
vt 0.456193 0.492623
vt 0.456193 0.506893
vt 0.445134 0.506601
vt 0.445134 0.492612
vt 0.381543 0.813502
vt 0.392120 0.813240
vt 0.392178 0.827485
vt 0.381318 0.827493
vt 0.327057 0.813240
vt 0.327057 0.827245
vt 0.314890 0.827371
vt 0.314890 0.813647
vt 0.412559 0.506882
vt 0.412559 0.492612
vt 0.424086 0.492612
vt 0.424086 0.506882
vt 0.191371 0.841588
vt 0.180311 0.841588
vt 0.180311 0.830061
vt 0.191371 0.830061
vt 0.217165 0.827228
vt 0.217165 0.813240
vt 0.228693 0.813240
vt 0.228693 0.827228
vt 0.208004 0.841588
vt 0.196944 0.841588
vt 0.196944 0.830061
vt 0.208004 0.830061
vt 0.224154 0.841852
vt 0.213577 0.841852
vt 0.213577 0.830325
vt 0.224154 0.830325
vt 0.348743 0.827485
vt 0.348743 0.813240
vt 0.360271 0.813240
vt 0.360271 0.827485
vt 0.241070 0.841852
vt 0.230209 0.841852
vt 0.230209 0.830325
vt 0.241070 0.830325
vt 0.249740 0.827232
vt 0.249740 0.813240
vt 0.261268 0.813240
vt 0.261268 0.827232
vt 0.282315 0.827245
vt 0.282315 0.813240
vt 0.293842 0.813240
vt 0.293842 0.827245
vt 0.135728 0.825407
vt 0.135728 0.813240
vt 0.147256 0.813240
vt 0.147256 0.825407
vt 0.184591 0.826964
vt 0.184591 0.813240
vt 0.196118 0.813240
vt 0.196118 0.826964
vt 0.119441 0.825406
vt 0.119441 0.813240
vt 0.130968 0.813240
vt 0.130968 0.825406
vt 0.810927 0.360098
vt 0.772042 0.359625
vt 0.771570 0.373161
vt 0.810927 0.360098
vt 0.810410 0.373121
vt 0.771570 0.373161
vt 0.772042 0.359625
vt 0.771570 0.373161
vt 0.810410 0.373121
vt 0.810927 0.360098
vt 0.772042 0.359625
vt 0.771570 0.373161
vt 0.772042 0.359625
vt 0.810927 0.360098
vt 0.810410 0.373121
vt 0.810410 0.373121
vt 0.810927 0.360098
vt 0.772042 0.359625
vt 0.771570 0.373161
vt 0.810927 0.360098
vt 0.810410 0.373121
vt 0.771570 0.373161
vt 0.772042 0.359625
vt 0.810410 0.373121
vt 0.810927 0.360098
vt 0.772042 0.359625
vt 0.771570 0.373161
vt 0.772042 0.359625
vt 0.771570 0.373161
vt 0.810410 0.373121
vt 0.870167 0.212317
vt 0.816888 0.217777
vt 0.870167 0.269099
vt 0.816888 0.274559
vt 0.870167 0.328136
vt 0.816888 0.333596
vt 0.810821 0.366019
vt 0.766990 0.366019
vt 0.766990 0.357731
vt 0.771570 0.373161
vt 0.810410 0.373121
vt 0.549018 0.471340
vt 0.563529 0.471340
vt 0.563529 0.515171
vt 0.549018 0.515171
vt 0.537455 0.471340
vt 0.544258 0.471340
vt 0.544258 0.515171
vt 0.537455 0.515171
vt 0.235617 0.724805
vt 0.282406 0.724805
vt 0.235617 0.796017
vt 0.235617 0.778214
vt 0.235617 0.760411
vt 0.235617 0.751510
vt 0.235617 0.742608
vt 0.282406 0.742608
vt 0.282406 0.760411
vt 0.282406 0.769313
vt 0.282406 0.778214
vt 0.282406 0.796017
vt 0.250127 0.803340
vt 0.267896 0.803340
vt 0.253946 0.810143
vt 0.264077 0.810143
vt 0.640837 0.478143
vt 0.644656 0.471340
vt 0.654787 0.471340
vt 0.658606 0.478143
vt 0.626327 0.485467
vt 0.673117 0.485467
vt 0.626327 0.556679
vt 0.626327 0.538876
vt 0.626327 0.521073
vt 0.626327 0.512172
vt 0.626327 0.503270
vt 0.673117 0.503270
vt 0.673117 0.512172
vt 0.673117 0.521073
vt 0.673117 0.538876
vt 0.673117 0.556679
vt 0.633709 0.564967
vt 0.665734 0.564967
vt 0.847231 0.550182
vt 0.793953 0.544723
vt 0.847231 0.606964
vt 0.793953 0.601505
vt 0.847231 0.639513
vt 0.793953 0.638317
vt 0.847231 0.678733
vt 0.847231 0.713154
vt 0.793953 0.709017
vt 0.793953 0.673274
vt 0.453975 0.410015
vt 0.453975 0.418303
vt 0.410144 0.418303
vt 0.772042 0.359625
vt 0.771570 0.373161
vt 0.772042 0.359625
vt 0.771570 0.373161
vt 0.810410 0.373121
vt 0.810927 0.360098
vt 0.517804 0.471340
vt 0.517804 0.515171
vt 0.503293 0.515171
vt 0.503293 0.471340
vt 0.491730 0.515171
vt 0.491730 0.471340
vt 0.498533 0.471340
vt 0.498533 0.515171
vt 0.568289 0.476400
vt 0.621567 0.471340
vt 0.771570 0.373161
vt 0.810410 0.373121
vt 0.810927 0.360098
vt 0.810410 0.373121
vt 0.771570 0.373161
vt 0.772042 0.359625
vt 0.772042 0.359625
vt 0.810927 0.360098
vt 0.810410 0.373121
vt 0.772042 0.359625
vt 0.810927 0.360098
vt 0.771570 0.373161
vt 0.810410 0.373121
vt 0.772042 0.359625
vt 0.810927 0.360098
vt 0.771570 0.373161
vt 0.772042 0.359625
vt 0.810927 0.360098
vt 0.772042 0.359625
vt 0.771570 0.373161
vt 0.810927 0.360098
vt 0.772042 0.359625
vt 0.810927 0.360098
vt 0.810410 0.373121
vt 0.771570 0.373161
vt 0.810927 0.360098
vt 0.772042 0.359625
vt 0.810927 0.360098
vt 0.810410 0.373121
vt 0.771570 0.373161
vt 0.810410 0.373121
vt 0.810927 0.360098
vt 0.772042 0.359625
vt 0.771570 0.373161
vt 0.810410 0.373121
vn 0.7209 0.5390 -0.4355
vn 0.4647 0.1725 -0.8685
vn -0.2463 -0.4792 -0.8425
vn -0.6220 -0.6898 -0.3704
vn -0.5871 0.7827 -0.2065
vn 0.7488 0.6601 -0.0595
vn -0.7817 -0.6203 0.0650
vn 0.1862 -0.1168 -0.9755
vn -0.1859 0.1179 0.9755
vn -0.2134 0.1523 0.9650
vn -0.0327 0.0564 0.9979
vn -0.1929 0.2728 0.9426
vn 0.5911 -0.7801 0.2050
vn -0.7879 -0.6111 -0.0763
vn 0.7936 0.6033 0.0783
vn -0.5920 0.7794 -0.2050
vn 0.1859 -0.1179 -0.9755
vn 0.6077 -0.7663 0.2084
vn 0.7879 0.6111 0.0763
vn -0.5879 0.7821 -0.2066
vn -0.5674 0.7976 -0.2046
vn -0.7903 -0.6079 -0.0771
vn 0.5865 -0.7832 0.2064
vn 0.7783 0.6236 0.0729
vn 0.5789 -0.7890 0.2057
vn -0.5605 0.8027 -0.2038
vn 0.5870 -0.7828 0.2065
vn 0.5368 0.6558 0.5308
vn 0.1252 0.3879 0.9132
vn -0.6825 -0.6978 -0.2176
vn -0.6575 -0.4265 0.6212
vn 0.7045 0.6882 0.1734
vn -0.6016 -0.2836 0.7467
vn -0.1935 0.1120 0.9747
vn -0.1502 0.1455 0.9779
vn -0.2147 0.1512 0.9649
vn 0.1749 0.0337 -0.9840
vn 0.3286 -0.1741 -0.9283
vn 0.3034 -0.0239 -0.9526
vn 0.0393 -0.2514 -0.9671
vn -0.0752 -0.3479 -0.9345
vn -0.0885 -0.3587 -0.9293
vn -0.1791 -0.4296 -0.8851
vn 0.2756 -0.0303 -0.9608
vn 0.2434 -0.0623 -0.9679
vn 0.2377 -0.0680 -0.9690
vn 0.1810 -0.1226 -0.9758
vn 0.6702 0.3240 -0.6677
vn 0.4245 0.1915 -0.8850
vn 0.3285 -0.0038 -0.9445
vn -0.0527 0.2179 0.9745
vn -0.7015 -0.4729 -0.5331
vn -0.5105 -0.5560 -0.6559
vn -0.5177 -0.7162 -0.4680
vn -0.2235 -0.4020 -0.8880
vn 0.5931 -0.7779 0.2078
vn 0.7025 -0.6782 0.2158
vn 0.5930 -0.7780 0.2077
vn 0.5870 -0.7826 0.2070
vn 0.5869 -0.7826 0.2075
vn 0.5505 -0.8095 0.2038
vn 0.5510 -0.8092 0.2039
vn 0.5507 -0.8094 0.2038
vn 0.5871 -0.7827 0.2065
vn 0.5870 -0.7826 0.2073
vn -0.3252 -0.0202 0.9454
vn -0.4351 -0.1388 0.8896
vn -0.4242 -0.1266 0.8967
vn -0.5066 -0.2218 0.8332
vn -0.0759 0.2323 0.9697
vn -0.0137 0.2823 0.9592
vn -0.0147 0.2815 0.9595
vn -0.1119 0.1580 0.9811
vn -0.5974 -0.3828 0.7047
vn -0.6001 -0.3862 0.7005
vn -0.0928 0.1796 0.9794
vn 0.3959 0.4980 0.7715
vn -0.0399 0.2252 0.9735
vn 0.0824 0.4095 0.9086
vn -0.1501 0.1455 0.9779
vn -0.2148 0.1510 0.9649
vn -0.8700 -0.3626 0.3341
vn -0.6787 -0.6156 0.4006
vn -0.7375 -0.4120 0.5351
vn -0.7374 -0.4121 0.5351
vn -0.5477 -0.1963 0.8133
vn -0.7481 -0.6501 0.1330
vn -0.1498 0.1450 0.9780
vn 0.3094 -0.0186 -0.9508
usemtl initialShadingGroup.004
s off
f 1/1/1 2/2/1 3/3/1 4/4/1
f 4/5/2 3/6/2 5/7/2 6/8/2
f 7/9/3 8/10/3 9/11/3 10/12/3
f 10/13/4 9/14/4 11/15/4 12/16/4 13/17/4
f 14/18/5 1/19/5 4/20/5 6/21/5 15/22/5 16/23/5 17/24/5 7/25/5 10/26/5 13/27/5 18/28/5 19/29/5 20/30/5 21/31/5 22/32/5 23/33/5 24/34/5 25/35/5 26/36/5 27/37/5 28/38/5 29/39/5
f 30/40/6 2/2/6 1/1/6 14/41/6
f 13/17/7 12/16/7 31/42/7 18/43/7
f 11/44/8 32/45/8 33/46/8 12/47/8
f 34/48/9 35/49/9 36/50/10 37/51/9
f 38/52/9 39/53/11 35/49/12 34/54/9
f 32/55/13 11/56/13 40/57/13 41/58/13 42/59/13
f 43/60/14 44/61/14 45/62/14 46/63/14
f 47/64/15 33/65/15 48/66/15 49/67/15 50/68/15
f 31/69/16 12/70/16 33/71/16 47/72/16 50/73/16 51/74/16
f 52/75/17 53/76/17 54/77/17 55/78/17
f 56/79/17 57/80/17 58/81/17 59/82/17
f 60/83/17 61/84/17 62/85/17 63/86/17
f 64/87/14 52/88/14 55/89/14 65/90/14
f 65/91/18 55/92/18 54/93/18 66/94/18
f 66/95/19 54/96/19 53/97/19 67/98/19
f 67/99/20 53/100/20 52/101/20 64/102/20
f 68/103/21 56/104/21 59/105/21 69/106/21
f 69/107/22 59/108/22 58/109/22 70/110/22
f 70/111/23 58/112/23 57/113/23 71/114/23
f 71/115/24 57/116/24 56/117/24 68/118/24
f 72/119/14 60/120/14 63/121/14 73/122/14
f 73/123/25 63/124/25 62/125/25 74/126/25
f 74/127/19 62/128/19 61/129/19 75/130/19
f 75/131/26 61/132/26 60/133/26 72/134/26
f 30/135/27 76/136/27 77/137/27 78/138/27 79/139/27 80/140/27 81/141/27 82/142/27 83/143/27 84/144/27 85/145/27 41/58/27 40/57/27 11/56/27 9/146/27 8/147/27 86/148/27 87/149/27 88/150/27 5/151/27 3/152/27 2/153/27
f 29/154/28 28/155/28 77/156/28 76/157/28
f 28/158/29 27/159/29 78/160/29 77/161/29
f 21/162/30 20/163/30 85/164/30 84/165/30
f 20/166/31 19/167/31 51/168/31 41/169/31 85/170/31
f 30/40/32 14/41/32 29/154/32 76/157/32
f 19/171/33 18/43/33 31/42/33 51/172/33
f 41/169/34 51/168/34 50/173/34 42/174/34
f 89/175/9 90/176/9 37/177/9 91/178/9
f 92/179/9 93/180/9 94/181/9 95/182/9
f 96/183/9 97/184/9 98/185/9 99/186/9
f 100/187/9 101/188/9 102/189/9 103/190/9
f 38/191/14 34/192/14 93/193/14 92/194/14
f 34/195/18 37/196/18 94/197/18 93/198/18
f 37/199/19 90/200/19 95/201/19 94/202/19
f 90/203/20 38/204/20 92/205/20 95/206/20
f 104/207/21 105/208/21 97/209/21 96/210/21
f 105/211/22 106/212/22 98/213/22 97/214/22
f 106/215/23 107/216/23 99/217/23 98/218/23
f 107/219/24 104/220/24 96/221/24 99/222/24
f 89/223/14 91/224/14 101/225/14 100/226/14
f 91/227/25 108/228/25 102/229/25 101/230/25
f 108/231/19 109/232/19 103/233/19 102/234/19
f 109/235/26 89/236/26 100/237/26 103/238/26
f 91/178/9 110/239/35 111/240/36 108/241/9
f 106/242/9 105/243/9 109/244/9 108/245/9
f 73/246/17 74/247/17 112/248/17 113/249/17
f 64/250/17 65/251/17 114/252/37 115/253/38
f 65/254/17 66/255/17 116/256/17 114/257/39
f 72/258/17 73/259/17 66/260/17 67/261/17
f 70/262/17 74/263/17 75/264/17 69/265/17
f 72/258/17 117/266/17 118/267/17 75/268/17
s 1
f 6/8/40 5/7/40 88/269/41 15/270/42
f 15/270/42 88/269/41 87/271/43 16/272/43
f 16/272/44 87/271/44 86/273/45 17/274/46
f 17/274/46 86/273/45 8/10/47 7/9/47
f 32/45/48 119/275/49 120/276/50 48/277/48 33/46/48
f 121/278/9 39/53/51 38/52/9 90/279/9
f 114/280/52 122/281/53 123/282/53 115/283/54
f 122/284/53 44/285/55 43/286/55 123/287/53
f 119/288/56 32/55/57 42/59/57 124/289/58
f 114/290/59 116/291/60 113/292/60 112/293/60 125/294/60 119/288/56 124/289/58 126/295/61 111/296/62 110/297/63 36/298/63 35/299/59
f 122/300/64 114/290/65 35/299/65 127/301/64
f 44/302/64 122/300/64 127/301/64 45/303/64
f 123/304/5 43/305/5 46/306/5 128/307/5
f 115/308/5 123/304/5 128/307/5 39/309/5
f 120/310/5 129/311/5 118/312/5 117/313/5 130/314/5 115/308/5 39/309/5 121/315/5 131/316/5 132/317/5 133/318/5 134/319/5
f 48/320/5 120/310/5 134/319/5 49/321/5
f 27/159/66 26/322/67 79/323/68 78/160/66
f 26/322/67 25/324/69 80/325/69 79/323/68
f 25/324/70 24/326/71 81/327/72 80/325/70
f 23/328/73 22/329/74 83/330/75 82/331/76
f 42/174/77 50/173/77 49/332/77 134/333/78 124/334/79
f 36/335/80 110/336/81 91/178/9 37/51/9
f 121/337/9 90/338/9 89/339/9 131/340/9
f 35/341/82 39/342/83 128/343/84 127/344/85
f 127/345/85 128/346/84 46/347/86 45/348/86
f 83/349/75 22/350/74 21/162/87 84/165/87
f 81/327/72 24/326/71 23/328/73 82/331/76
f 111/351/88 126/352/80 106/242/9 108/245/9
f 126/353/80 124/354/79 107/355/9 106/356/9
f 124/357/79 134/358/78 104/359/9 107/355/9
f 132/360/9 109/361/9 105/243/9 133/362/9
f 132/363/9 131/340/9 89/364/9 109/244/9
f 133/365/9 105/243/9 104/366/9 134/367/78
f 73/259/17 113/368/17 116/256/17 66/260/17
f 112/369/17 74/370/17 70/262/17 125/371/17
f 125/372/17 70/373/17 71/374/17 119/375/49
f 119/375/49 71/374/17 68/376/17 120/377/50
f 69/378/17 75/264/17 118/267/17 129/379/17
f 130/380/17 117/266/17 72/258/17 67/381/17
f 115/253/89 130/382/17 67/261/17 64/250/17
f 129/383/17 120/384/50 68/385/17 69/378/17
