# Blender v2.79 (sub 6) OBJ File: 'bailarinaacortados.blend1'
# www.blender.org
mtllib guitarra3_000211.mtl
o Guitarra_2:pPlane4
v -4.326339 16.266502 6.165649
v -5.027042 15.892800 6.701544
v -4.252563 15.131604 7.079212
v -3.551857 15.505303 6.543317
v -3.800535 14.225808 6.866303
v -3.099829 14.599505 6.330407
v -2.852811 11.752961 4.006114
v -3.553518 11.379263 4.542011
v -3.742898 10.925001 3.848377
v -3.042191 11.298699 3.312480
v -4.508973 10.931413 2.770192
v -4.073878 11.146867 2.429355
v -3.809856 11.301174 2.232042
v -5.151423 16.734570 5.441375
v -3.059275 13.886846 5.718472
v -3.243538 13.199179 4.812902
v -2.964566 12.283736 4.346848
v -4.005939 11.419973 2.067017
v -4.307842 11.882997 2.075937
v -4.719604 12.397380 1.978130
v -5.184063 12.502110 1.421361
v -5.608644 12.773942 1.077735
v -5.745774 13.296808 1.375250
v -5.718173 13.814258 1.900029
v -5.767019 14.274253 2.263031
v -6.314950 15.273847 2.428746
v -6.604465 16.092575 2.789122
v -6.490972 16.757446 3.573466
v -5.921187 16.945950 4.554121
v -5.847960 16.341522 5.964985
v -4.271163 11.249361 2.257562
v -3.721237 7.207204 0.426178
v -3.303989 7.484960 0.130354
v -3.806168 6.475012 -0.830215
v -3.956834 6.218178 -0.789395
v -4.022743 6.526524 -0.594164
v -3.837838 6.641820 -0.728543
v -3.623178 6.596826 -0.959951
v -3.394762 6.592339 -1.187897
v -4.697681 11.011807 2.579511
v -5.008947 11.514078 2.612080
v -4.103938 7.370245 0.039474
v -3.006484 6.236318 -0.974522
v -3.568555 5.862154 -0.576021
v -3.690675 5.914181 -0.699417
v -3.128603 6.288343 -1.097918
v -3.497813 7.564835 -0.061244
v -3.174364 7.571150 0.042003
v -3.560364 7.735596 -0.348033
v -3.686691 7.648001 -0.256350
v -4.572856 11.729110 2.272245
v -2.920270 6.297367 -0.249691
v -2.955546 6.461778 -0.145463
v -3.134928 6.342362 -0.018284
v -3.103259 6.175554 -0.119956
v -3.091028 7.070994 0.245474
v -3.271174 6.954895 0.374805
v -3.236281 6.793615 0.272276
v -3.053800 6.916087 0.143320
v -2.984740 6.600286 -0.058174
v -3.028921 6.777574 0.060298
v -3.204918 6.660413 0.185077
v -3.164333 6.480732 0.069155
v -3.059213 6.356561 -0.390089
v -3.242202 6.234749 -0.260352
v -3.273872 6.401557 -0.158680
v -3.094489 6.520971 -0.285858
v -3.229972 7.130189 0.105078
v -3.192744 6.975283 0.002924
v -3.375226 6.852809 0.131880
v -3.410117 7.014087 0.234408
v -3.123684 6.659480 -0.198570
v -3.303276 6.539927 -0.071241
v -3.343860 6.719606 0.044680
v -3.167863 6.836765 -0.080099
v -6.621891 16.572247 5.090014
v -7.191678 16.383747 4.109362
v -7.305170 15.718875 3.325017
v -7.015656 14.900147 2.964643
v -6.467726 13.900550 2.798929
v -6.426628 13.386327 2.374076
v -6.446480 12.923110 1.911147
v -6.244128 12.354614 1.662782
v -5.884769 12.128411 1.957256
v -5.420311 12.023682 2.514027
v -3.665273 11.910039 4.882746
v -3.944244 12.825480 5.348800
v -3.759980 13.513144 6.254367
v -3.687649 6.899743 -0.768433
v -3.658454 6.761235 -0.855723
v -3.867242 6.780190 -0.641105
v -3.762122 6.656019 -1.100348
v -3.945112 6.534205 -0.970612
v -3.976781 6.701015 -0.868939
v -3.797398 6.820429 -0.996119
v -3.932880 7.429646 -0.605182
v -3.895652 7.274739 -0.707336
v -4.078134 7.152266 -0.578380
v -4.113027 7.313545 -0.475851
v -3.826593 6.958938 -0.908829
v -4.006186 6.839383 -0.781501
v -4.046770 7.019062 -0.665580
v -3.870772 7.136225 -0.790359
v -3.793937 7.370453 -0.464785
v -3.756708 7.215546 -0.566941
v -3.939190 7.093072 -0.437984
v -3.974083 7.254352 -0.335454
v -3.907827 6.959871 -0.525183
v -3.731829 7.077030 -0.649962
v -4.054279 6.673708 -0.500898
v -4.092495 6.853795 -0.387149
v -3.527647 6.601008 0.176561
v -3.488762 6.417621 0.060758
v -3.392868 5.977912 -0.219532
v -2.830797 6.352075 -0.618032
v -3.449878 6.242420 -0.051590
v -2.925079 6.792019 -0.339237
v -2.962899 6.970160 -0.226700
v -3.620910 7.035937 0.452233
v -3.058839 7.410100 0.053732
v -3.458358 6.889278 -0.999764
v -3.544315 5.943619 -0.465340
v -2.982243 6.317782 -0.863842
v -4.184876 7.276201 -0.117630
v -3.558354 6.744113 0.267286
v -4.122702 6.986253 -0.301409
v -3.758485 6.034861 -0.681750
v -3.196414 6.409024 -1.080251
v -2.994983 7.111873 -0.135201
v -2.892256 6.638491 -0.436450
v -3.485612 7.015375 -0.919626
v -3.526979 7.210984 -0.796216
v -3.560468 7.359620 -0.700405
v -3.622805 7.650365 -0.516131
vt 0.735914 0.659422
vt 0.789193 0.659422
vt 0.789193 0.715185
vt 0.735914 0.715185
vt 0.816888 0.113382
vt 0.870167 0.107923
vt 0.870167 0.160781
vt 0.816888 0.166240
vt 0.816888 0.369404
vt 0.870167 0.363945
vt 0.870167 0.403590
vt 0.816888 0.409050
vt 0.731155 0.575499
vt 0.677876 0.575499
vt 0.677981 0.505501
vt 0.710850 0.505460
vt 0.731155 0.505418
vt 0.616009 0.468244
vt 0.549850 0.459605
vt 0.494086 0.427645
vt 0.470627 0.374786
vt 0.480954 0.323250
vt 0.511328 0.266468
vt 0.503868 0.207431
vt 0.504109 0.171623
vt 0.530354 0.131977
vt 0.600435 0.107922
vt 0.616009 0.110536
vt 0.634472 0.135319
vt 0.661960 0.160441
vt 0.702327 0.153537
vt 0.735762 0.160278
vt 0.737994 0.194699
vt 0.725284 0.233919
vt 0.720689 0.266468
vt 0.751063 0.323250
vt 0.761390 0.374786
vt 0.737931 0.427645
vt 0.682167 0.459605
vt 0.789193 0.593263
vt 0.735914 0.593263
vt 0.710560 0.489845
vt 0.731155 0.489845
vt 0.808348 0.107923
vt 0.809532 0.357831
vt 0.776995 0.357831
vt 0.775479 0.112321
vt 0.772042 0.359625
vt 0.771570 0.373161
vt 0.810410 0.373121
vt 0.810927 0.360098
vt 0.810927 0.360098
vt 0.772042 0.359625
vt 0.810410 0.373121
vt 0.243136 0.716617
vt 0.243355 0.466708
vt 0.259011 0.466708
vt 0.277557 0.439312
vt 0.274887 0.716617
vt 0.522564 0.515171
vt 0.522564 0.471340
vt 0.532696 0.471340
vt 0.532696 0.515171
vt 0.486970 0.487353
vt 0.486778 0.503228
vt 0.476773 0.503365
vt 0.476773 0.471340
vt 0.486778 0.471477
vt 0.867866 0.659325
vt 0.852251 0.657656
vt 0.851991 0.412147
vt 0.867866 0.412147
vt 0.883742 0.412147
vt 0.886370 0.685053
vt 0.472013 0.506882
vt 0.460953 0.506893
vt 0.460953 0.492905
vt 0.472013 0.492612
vt 0.397163 0.827232
vt 0.396938 0.813240
vt 0.407799 0.813249
vt 0.407740 0.827494
vt 0.343983 0.827371
vt 0.331817 0.826964
vt 0.331817 0.813240
vt 0.343983 0.813366
vt 0.440374 0.506882
vt 0.428846 0.506882
vt 0.428846 0.492612
vt 0.440374 0.492612
vt 0.124689 0.828503
vt 0.124689 0.840031
vt 0.113630 0.840031
vt 0.113630 0.828503
vt 0.244980 0.827228
vt 0.233453 0.827228
vt 0.233453 0.813240
vt 0.244980 0.813240
vt 0.141473 0.828503
vt 0.141473 0.840031
vt 0.130413 0.840031
vt 0.130413 0.828503
vt 0.157623 0.828503
vt 0.157623 0.840031
vt 0.147046 0.840031
vt 0.147046 0.828503
vt 0.376558 0.827485
vt 0.365031 0.827485
vt 0.365031 0.813240
vt 0.376558 0.813240
vt 0.174539 0.828503
vt 0.174539 0.840031
vt 0.163679 0.840031
vt 0.163679 0.828503
vt 0.277555 0.827232
vt 0.266028 0.827232
vt 0.266028 0.813240
vt 0.277555 0.813240
vt 0.310130 0.827245
vt 0.298602 0.827245
vt 0.298602 0.813240
vt 0.310130 0.813240
vt 0.179831 0.825407
vt 0.168303 0.825407
vt 0.168303 0.813240
vt 0.179831 0.813240
vt 0.212405 0.826964
vt 0.200878 0.826964
vt 0.200878 0.813240
vt 0.212405 0.813240
vt 0.163543 0.825406
vt 0.152016 0.825406
vt 0.152016 0.813240
vt 0.163543 0.813240
vt 0.259011 0.107923
vt 0.325170 0.115259
vt 0.380934 0.147220
vt 0.404393 0.200078
vt 0.394066 0.251614
vt 0.363692 0.308396
vt 0.370063 0.345209
vt 0.380997 0.380166
vt 0.373705 0.415909
vt 0.345330 0.421327
vt 0.304962 0.414424
vt 0.173357 0.442887
vt 0.147112 0.403242
vt 0.146870 0.367433
vt 0.154331 0.308396
vt 0.123957 0.251614
vt 0.113630 0.200078
vt 0.137089 0.147220
vt 0.192853 0.115259
vt 0.735914 0.527104
vt 0.735914 0.471340
vt 0.789193 0.471340
vt 0.789193 0.527104
vt 0.847231 0.445787
vt 0.847231 0.498646
vt 0.793953 0.493186
vt 0.793953 0.440328
vt 0.621567 0.504775
vt 0.621567 0.545143
vt 0.568289 0.545143
vt 0.568289 0.504775
vt 0.465791 0.113382
vt 0.465791 0.138503
vt 0.445487 0.137209
vt 0.412617 0.132810
vt 0.412513 0.107923
vt 0.731155 0.471382
vt 0.710850 0.471340
vt 0.443970 0.410115
vt 0.411433 0.410115
vt 0.810927 0.360098
vt 0.772042 0.359625
vt 0.771570 0.373161
vt 0.810410 0.373121
vt 0.456193 0.492623
vt 0.456193 0.506893
vt 0.445134 0.506601
vt 0.445134 0.492612
vt 0.381543 0.813502
vt 0.392120 0.813240
vt 0.392178 0.827485
vt 0.381318 0.827493
vt 0.327057 0.813240
vt 0.327057 0.827245
vt 0.314890 0.827371
vt 0.314890 0.813647
vt 0.412559 0.506882
vt 0.412559 0.492612
vt 0.424086 0.492612
vt 0.424086 0.506882
vt 0.191371 0.841588
vt 0.180311 0.841588
vt 0.180311 0.830061
vt 0.191371 0.830061
vt 0.217165 0.827228
vt 0.217165 0.813240
vt 0.228693 0.813240
vt 0.228693 0.827228
vt 0.208004 0.841588
vt 0.196944 0.841588
vt 0.196944 0.830061
vt 0.208004 0.830061
vt 0.224154 0.841852
vt 0.213577 0.841852
vt 0.213577 0.830325
vt 0.224154 0.830325
vt 0.348743 0.827485
vt 0.348743 0.813240
vt 0.360271 0.813240
vt 0.360271 0.827485
vt 0.241070 0.841852
vt 0.230209 0.841852
vt 0.230209 0.830325
vt 0.241070 0.830325
vt 0.249740 0.827232
vt 0.249740 0.813240
vt 0.261268 0.813240
vt 0.261268 0.827232
vt 0.282315 0.827245
vt 0.282315 0.813240
vt 0.293842 0.813240
vt 0.293842 0.827245
vt 0.135728 0.825407
vt 0.135728 0.813240
vt 0.147256 0.813240
vt 0.147256 0.825407
vt 0.184591 0.826964
vt 0.184591 0.813240
vt 0.196118 0.813240
vt 0.196118 0.826964
vt 0.119441 0.825406
vt 0.119441 0.813240
vt 0.130968 0.813240
vt 0.130968 0.825406
vt 0.810927 0.360098
vt 0.772042 0.359625
vt 0.771570 0.373161
vt 0.810927 0.360098
vt 0.810410 0.373121
vt 0.771570 0.373161
vt 0.772042 0.359625
vt 0.771570 0.373161
vt 0.810410 0.373121
vt 0.810927 0.360098
vt 0.772042 0.359625
vt 0.771570 0.373161
vt 0.772042 0.359625
vt 0.810927 0.360098
vt 0.810410 0.373121
vt 0.810410 0.373121
vt 0.810927 0.360098
vt 0.772042 0.359625
vt 0.771570 0.373161
vt 0.810927 0.360098
vt 0.810410 0.373121
vt 0.771570 0.373161
vt 0.772042 0.359625
vt 0.810410 0.373121
vt 0.810927 0.360098
vt 0.772042 0.359625
vt 0.771570 0.373161
vt 0.772042 0.359625
vt 0.771570 0.373161
vt 0.810410 0.373121
vt 0.870167 0.212317
vt 0.816888 0.217777
vt 0.870167 0.269099
vt 0.816888 0.274559
vt 0.870167 0.328136
vt 0.816888 0.333596
vt 0.810821 0.366019
vt 0.766990 0.366019
vt 0.766990 0.357731
vt 0.771570 0.373161
vt 0.810410 0.373121
vt 0.549018 0.471340
vt 0.563529 0.471340
vt 0.563529 0.515171
vt 0.549018 0.515171
vt 0.537455 0.471340
vt 0.544258 0.471340
vt 0.544258 0.515171
vt 0.537455 0.515171
vt 0.235617 0.724805
vt 0.282406 0.724805
vt 0.235617 0.796017
vt 0.235617 0.778214
vt 0.235617 0.760411
vt 0.235617 0.751510
vt 0.235617 0.742608
vt 0.282406 0.742608
vt 0.282406 0.760411
vt 0.282406 0.769313
vt 0.282406 0.778214
vt 0.282406 0.796017
vt 0.250127 0.803340
vt 0.267896 0.803340
vt 0.253946 0.810143
vt 0.264077 0.810143
vt 0.640837 0.478143
vt 0.644656 0.471340
vt 0.654787 0.471340
vt 0.658606 0.478143
vt 0.626327 0.485467
vt 0.673117 0.485467
vt 0.626327 0.556679
vt 0.626327 0.538876
vt 0.626327 0.521073
vt 0.626327 0.512172
vt 0.626327 0.503270
vt 0.673117 0.503270
vt 0.673117 0.512172
vt 0.673117 0.521073
vt 0.673117 0.538876
vt 0.673117 0.556679
vt 0.633709 0.564967
vt 0.665734 0.564967
vt 0.847231 0.550182
vt 0.793953 0.544723
vt 0.847231 0.606964
vt 0.793953 0.601505
vt 0.847231 0.639513
vt 0.793953 0.638317
vt 0.847231 0.678733
vt 0.847231 0.713154
vt 0.793953 0.709017
vt 0.793953 0.673274
vt 0.453975 0.410015
vt 0.453975 0.418303
vt 0.410144 0.418303
vt 0.772042 0.359625
vt 0.771570 0.373161
vt 0.772042 0.359625
vt 0.771570 0.373161
vt 0.810410 0.373121
vt 0.810927 0.360098
vt 0.517804 0.471340
vt 0.517804 0.515171
vt 0.503293 0.515171
vt 0.503293 0.471340
vt 0.491730 0.515171
vt 0.491730 0.471340
vt 0.498533 0.471340
vt 0.498533 0.515171
vt 0.568289 0.476400
vt 0.621567 0.471340
vt 0.771570 0.373161
vt 0.810410 0.373121
vt 0.810927 0.360098
vt 0.810410 0.373121
vt 0.771570 0.373161
vt 0.772042 0.359625
vt 0.772042 0.359625
vt 0.810927 0.360098
vt 0.810410 0.373121
vt 0.772042 0.359625
vt 0.810927 0.360098
vt 0.771570 0.373161
vt 0.810410 0.373121
vt 0.772042 0.359625
vt 0.810927 0.360098
vt 0.771570 0.373161
vt 0.772042 0.359625
vt 0.810927 0.360098
vt 0.772042 0.359625
vt 0.771570 0.373161
vt 0.810927 0.360098
vt 0.772042 0.359625
vt 0.810927 0.360098
vt 0.810410 0.373121
vt 0.771570 0.373161
vt 0.810927 0.360098
vt 0.772042 0.359625
vt 0.810927 0.360098
vt 0.810410 0.373121
vt 0.771570 0.373161
vt 0.810410 0.373121
vt 0.810927 0.360098
vt 0.772042 0.359625
vt 0.771570 0.373161
vt 0.810410 0.373121
vn 0.2425 0.6179 0.7480
vn 0.5726 0.0943 0.8144
vn 0.6191 -0.7237 0.3049
vn 0.3182 -0.9214 -0.2230
vn 0.7169 0.4772 -0.5083
vn -0.0326 0.8296 0.5574
vn 0.0573 -0.8024 -0.5941
vn 0.6741 -0.2859 0.6810
vn -0.6738 0.2871 -0.6809
vn -0.6405 0.3071 -0.7039
vn -0.7820 0.2854 -0.5541
vn -0.5862 0.4185 -0.6938
vn -0.7164 -0.4739 0.5120
vn 0.1790 -0.8306 -0.5274
vn -0.1861 0.8258 0.5324
vn 0.7165 0.4730 -0.5127
vn 0.6738 -0.2871 0.6809
vn 0.1790 -0.8306 -0.5273
vn -0.7214 -0.4551 0.5220
vn -0.1790 0.8306 0.5274
vn 0.7171 0.4764 -0.5088
vn 0.7122 0.4976 -0.4951
vn 0.1820 -0.8286 -0.5294
vn -0.7167 -0.4779 0.5078
vn -0.1675 0.8381 0.5191
vn -0.7150 -0.4858 0.5027
vn -0.1790 0.8306 0.5273
vn 0.7105 0.5047 -0.4903
vn -0.7169 -0.4773 0.5082
vn -0.4250 0.9022 0.0735
vn -0.6581 0.6186 -0.4292
vn 0.2165 -0.9106 -0.3519
vn -0.3804 -0.4491 -0.8085
vn -0.1935 0.8982 0.3948
vn -0.4544 -0.2697 -0.8490
vn -0.6721 0.2790 -0.6859
vn -0.6811 0.3244 -0.6564
vn -0.6402 0.3057 -0.7047
vn 0.7420 -0.1539 0.6525
vn 0.5520 -0.2811 0.7850
vn 0.6387 -0.1577 0.7531
vn 0.6813 -0.4542 0.5741
vn 0.6687 -0.5713 0.4760
vn 0.6661 -0.5841 0.4638
vn 0.6432 -0.6672 0.3758
vn 0.6552 -0.1745 0.7350
vn 0.6632 -0.2158 0.7166
vn 0.6645 -0.2232 0.7132
vn 0.6745 -0.2930 0.6776
vn 0.3748 0.3480 0.8593
vn 0.6107 0.0947 0.7862
vn 0.6286 -0.1293 0.7669
vn -0.6940 0.4211 -0.5840
vn 0.5669 -0.7883 -0.2392
vn 0.5531 -0.8331 -0.0020
vn 0.3428 -0.9359 -0.0806
vn 0.6752 -0.6569 0.3356
vn -0.7187 -0.4706 0.5118
vn -0.7360 -0.3423 0.5841
vn -0.7187 -0.4707 0.5118
vn -0.7173 -0.4771 0.5079
vn -0.7176 -0.4769 0.5076
vn -0.7087 -0.5142 0.4831
vn -0.7088 -0.5138 0.4834
vn -0.7087 -0.5140 0.4832
vn -0.7169 -0.4772 0.5083
vn -0.7175 -0.4770 0.5077
vn 0.7169 0.4772 -0.5082
vn -0.6398 0.1086 -0.7608
vn -0.5903 -0.0488 -0.8057
vn -0.5963 -0.0324 -0.8021
vn -0.5437 -0.1615 -0.8236
vn -0.6745 0.4256 -0.6033
vn -0.6745 0.4887 -0.5533
vn -0.6746 0.4877 -0.5541
vn -0.6958 0.3488 -0.6278
vn -0.4587 -0.3694 -0.8082
vn -0.4554 -0.3744 -0.8077
vn -0.6947 0.3744 -0.6142
vn -0.6193 0.7716 -0.1453
vn -0.6960 0.4316 -0.5739
vn -0.6276 0.6235 -0.4661
vn -0.6812 0.3243 -0.6564
vn -0.6402 0.3055 -0.7048
vn -0.0287 -0.5291 -0.8481
vn -0.2609 -0.6829 -0.6823
vn -0.2696 -0.4826 -0.8333
vn -0.5000 -0.1562 -0.8518
vn -0.0242 -0.8023 -0.5964
vn -0.6816 0.3240 -0.6560
vn 0.6366 -0.1505 0.7563
usemtl initialShadingGroup.004
s off
f 1/1/1 2/2/1 3/3/1 4/4/1
f 4/5/2 3/6/2 5/7/2 6/8/2
f 7/9/3 8/10/3 9/11/3 10/12/3
f 10/13/4 9/14/4 11/15/4 12/16/4 13/17/4
f 14/18/5 1/19/5 4/20/5 6/21/5 15/22/5 16/23/5 17/24/5 7/25/5 10/26/5 13/27/5 18/28/5 19/29/5 20/30/5 21/31/5 22/32/5 23/33/5 24/34/5 25/35/5 26/36/5 27/37/5 28/38/5 29/39/5
f 30/40/6 2/2/6 1/1/6 14/41/6
f 13/17/7 12/16/7 31/42/7 18/43/7
f 11/44/8 32/45/8 33/46/8 12/47/8
f 34/48/9 35/49/9 36/50/10 37/51/9
f 38/52/9 39/53/11 35/49/12 34/54/9
f 32/55/13 11/56/13 40/57/13 41/58/13 42/59/13
f 43/60/14 44/61/14 45/62/14 46/63/14
f 47/64/15 33/65/15 48/66/15 49/67/15 50/68/15
f 31/69/16 12/70/16 33/71/16 47/72/16 50/73/16 51/74/16
f 52/75/17 53/76/17 54/77/17 55/78/17
f 56/79/17 57/80/17 58/81/17 59/82/17
f 60/83/17 61/84/17 62/85/17 63/86/17
f 64/87/18 52/88/18 55/89/18 65/90/18
f 65/91/19 55/92/19 54/93/19 66/94/19
f 66/95/20 54/96/20 53/97/20 67/98/20
f 67/99/21 53/100/21 52/101/21 64/102/21
f 68/103/22 56/104/22 59/105/22 69/106/22
f 69/107/23 59/108/23 58/109/23 70/110/23
f 70/111/24 58/112/24 57/113/24 71/114/24
f 71/115/25 57/116/25 56/117/25 68/118/25
f 72/119/14 60/120/14 63/121/14 73/122/14
f 73/123/26 63/124/26 62/125/26 74/126/26
f 74/127/27 62/128/27 61/129/27 75/130/27
f 75/131/28 61/132/28 60/133/28 72/134/28
f 30/135/29 76/136/29 77/137/29 78/138/29 79/139/29 80/140/29 81/141/29 82/142/29 83/143/29 84/144/29 85/145/29 41/58/29 40/57/29 11/56/29 9/146/29 8/147/29 86/148/29 87/149/29 88/150/29 5/151/29 3/152/29 2/153/29
f 29/154/30 28/155/30 77/156/30 76/157/30
f 28/158/31 27/159/31 78/160/31 77/161/31
f 21/162/32 20/163/32 85/164/32 84/165/32
f 20/166/33 19/167/33 51/168/33 41/169/33 85/170/33
f 30/40/34 14/41/34 29/154/34 76/157/34
f 19/171/35 18/43/35 31/42/35 51/172/35
f 41/169/36 51/168/36 50/173/36 42/174/36
f 89/175/9 90/176/9 37/177/9 91/178/9
f 92/179/9 93/180/9 94/181/9 95/182/9
f 96/183/9 97/184/9 98/185/9 99/186/9
f 100/187/9 101/188/9 102/189/9 103/190/9
f 38/191/14 34/192/14 93/193/14 92/194/14
f 34/195/19 37/196/19 94/197/19 93/198/19
f 37/199/20 90/200/20 95/201/20 94/202/20
f 90/203/21 38/204/21 92/205/21 95/206/21
f 104/207/22 105/208/22 97/209/22 96/210/22
f 105/211/23 106/212/23 98/213/23 97/214/23
f 106/215/24 107/216/24 99/217/24 98/218/24
f 107/219/25 104/220/25 96/221/25 99/222/25
f 89/223/14 91/224/14 101/225/14 100/226/14
f 91/227/26 108/228/26 102/229/26 101/230/26
f 108/231/20 109/232/20 103/233/20 102/234/20
f 109/235/28 89/236/28 100/237/28 103/238/28
f 91/178/9 110/239/37 111/240/38 108/241/9
f 106/242/9 105/243/9 109/244/9 108/245/9
f 73/246/17 74/247/17 112/248/17 113/249/17
f 64/250/17 65/251/17 114/252/39 115/253/40
f 65/254/17 66/255/17 116/256/17 114/257/41
f 72/258/17 73/259/17 66/260/17 67/261/17
f 70/262/17 74/263/17 75/264/17 69/265/17
f 72/258/17 117/266/17 118/267/17 75/268/17
s 1
f 6/8/42 5/7/42 88/269/43 15/270/44
f 15/270/44 88/269/43 87/271/45 16/272/45
f 16/272/46 87/271/46 86/273/47 17/274/48
f 17/274/48 86/273/47 8/10/49 7/9/49
f 32/45/50 119/275/51 120/276/52 48/277/50 33/46/50
f 121/278/9 39/53/53 38/52/9 90/279/9
f 114/280/54 122/281/55 123/282/55 115/283/56
f 122/284/55 44/285/57 43/286/57 123/287/55
f 119/288/58 32/55/59 42/59/59 124/289/60
f 114/290/61 116/291/62 113/292/62 112/293/62 125/294/62 119/288/58 124/289/60 126/295/63 111/296/64 110/297/65 36/298/65 35/299/61
f 122/300/66 114/290/67 35/299/67 127/301/66
f 44/302/66 122/300/66 127/301/66 45/303/66
f 123/304/5 43/305/5 46/306/5 128/307/5
f 115/308/68 123/304/5 128/307/5 39/309/68
f 120/310/68 129/311/68 118/312/68 117/313/68 130/314/68 115/308/68 39/309/68 121/315/68 131/316/68 132/317/68 133/318/68 134/319/68
f 48/320/5 120/310/68 134/319/68 49/321/5
f 27/159/69 26/322/70 79/323/71 78/160/69
f 26/322/70 25/324/72 80/325/72 79/323/71
f 25/324/73 24/326/74 81/327/75 80/325/73
f 23/328/76 22/329/77 83/330/78 82/331/79
f 42/174/80 50/173/80 49/332/80 134/333/81 124/334/82
f 36/335/83 110/336/84 91/178/9 37/51/9
f 121/337/9 90/338/9 89/339/9 131/340/9
f 35/341/85 39/342/86 128/343/87 127/344/87
f 127/345/87 128/346/87 46/347/88 45/348/88
f 83/349/78 22/350/77 21/162/89 84/165/89
f 81/327/75 24/326/74 23/328/76 82/331/79
f 111/351/90 126/352/83 106/242/9 108/245/9
f 126/353/83 124/354/82 107/355/9 106/356/9
f 124/357/82 134/358/81 104/359/9 107/355/9
f 132/360/9 109/361/9 105/243/9 133/362/9
f 132/363/9 131/340/9 89/364/9 109/244/9
f 133/365/9 105/243/9 104/366/9 134/367/81
f 73/259/17 113/368/17 116/256/17 66/260/17
f 112/369/17 74/370/17 70/262/17 125/371/17
f 125/372/17 70/373/17 71/374/17 119/375/51
f 119/375/51 71/374/17 68/376/17 120/377/52
f 69/378/17 75/264/17 118/267/17 129/379/17
f 130/380/17 117/266/17 72/258/17 67/381/17
f 115/253/91 130/382/17 67/261/17 64/250/17
f 129/383/17 120/384/52 68/385/17 69/378/17
