# Blender v2.79 (sub 6) OBJ File: 'bailarinaacortados.blend1'
# www.blender.org
mtllib guitarra3_000201.mtl
o Guitarra_2:pPlane4
v -13.776296 2.316150 -2.592878
v -13.912560 2.012384 -1.694557
v -14.013417 3.118604 -1.397943
v -13.877154 3.422367 -2.296266
v -13.478358 3.963639 -1.133828
v -13.342093 4.267405 -2.032150
v -10.023518 5.745100 -1.424175
v -10.159781 5.441335 -0.525852
v -9.311006 5.447497 -0.472116
v -9.174742 5.751262 -1.370441
v -8.247419 4.675324 -0.620203
v -8.147834 4.872066 -1.170906
v -8.107006 4.979665 -1.516168
v -13.227614 1.285769 -2.841271
v -12.481557 4.615993 -1.883966
v -11.339555 4.728122 -1.783245
v -10.550663 5.403624 -1.549969
v -7.986340 4.731527 -1.576690
v -8.161030 4.228462 -1.725102
v -8.248557 3.592939 -1.904426
v -7.735393 3.081504 -2.012951
v -7.492901 2.537903 -2.146877
v -7.974466 2.174375 -2.275912
v -8.678869 1.978532 -2.372714
v -9.202682 1.730778 -2.472652
v -9.724666 0.748960 -2.773404
v -10.374384 0.104664 -2.989604
v -11.388328 -0.068658 -3.099221
v -12.425784 0.421815 -3.028585
v -13.344798 0.994551 -1.938347
v -8.013217 4.631063 -1.223217
v -4.589158 7.080215 0.284397
v -4.554792 7.233610 -0.276000
v -3.146469 7.254255 0.183419
v -3.026299 7.276776 0.457978
v -3.330035 7.077243 0.384039
v -3.308210 7.149096 0.139291
v -3.131399 7.321526 -0.062350
v -2.980007 7.483412 -0.296926
v -8.087623 4.451180 -0.671756
v -8.299760 3.921764 -0.829678
v -4.265088 6.625650 0.179845
v -3.063512 8.026947 -0.153271
v -3.109804 7.820312 0.601635
v -3.006394 7.675260 0.568272
v -2.960102 7.881895 -0.186633
v -4.392963 7.005416 -0.324956
v -4.547091 7.281769 -0.448217
v -4.220227 6.823287 -0.553669
v -4.230722 6.779044 -0.380553
v -8.201015 4.119687 -1.380112
v -3.726619 8.156429 0.129682
v -3.888658 8.049944 0.090396
v -3.903430 7.983998 0.331322
v -3.741689 8.089157 0.375450
v -4.492167 7.652037 -0.050240
v -4.510240 7.583908 0.189950
v -4.351100 7.688566 0.228188
v -4.336914 7.755157 -0.017359
v -4.024827 7.960602 0.056754
v -4.203526 7.841485 0.020756
v -4.218019 7.776785 0.257135
v -4.039618 7.894580 0.297965
v -3.608962 7.991395 0.091722
v -3.624032 7.924123 0.337492
v -3.785772 7.818964 0.293363
v -3.771000 7.884911 0.052436
v -4.374510 7.487005 -0.088198
v -4.219259 7.590121 -0.055318
v -4.233443 7.523532 0.190229
v -4.392581 7.418875 0.151991
v -3.907171 7.795569 0.018797
v -3.921961 7.729547 0.260006
v -4.100364 7.611751 0.219175
v -4.085870 7.676452 -0.017203
v -12.562047 0.118052 -2.130264
v -11.524592 -0.372423 -2.200900
v -10.510649 -0.199100 -2.091282
v -9.860929 0.445195 -1.875081
v -9.338945 1.427014 -1.574328
v -8.734532 1.690419 -1.465164
v -8.110732 1.870610 -1.377591
v -7.661433 2.319317 -1.227218
v -7.871657 2.777740 -1.114628
v -8.384821 3.289176 -1.006104
v -10.686927 5.099858 -0.651647
v -11.475820 4.424358 -0.884920
v -12.617820 4.312229 -0.985642
v -3.429607 7.125701 -0.135277
v -3.293437 7.215043 -0.101636
v -3.444398 7.059678 0.105933
v -3.013742 7.156494 -0.100309
v -3.028812 7.089220 0.145461
v -3.190553 6.984062 0.101332
v -3.175780 7.050009 -0.139595
v -3.779289 6.652101 -0.280231
v -3.624038 6.755219 -0.247350
v -3.638222 6.688631 -0.001803
v -3.797361 6.583972 -0.040043
v -3.311951 6.960666 -0.173236
v -3.326740 6.894644 0.067974
v -3.505143 6.776849 0.027143
v -3.490649 6.841549 -0.209236
v -3.896947 6.817136 -0.242272
v -3.741693 6.920254 -0.209391
v -3.755878 6.853665 0.036156
v -3.915018 6.749006 -0.002084
v -3.622799 6.941883 0.065103
v -3.608305 7.006585 -0.171277
v -3.475069 6.981945 0.348824
v -3.652285 6.865603 0.305352
v -4.118672 7.542320 0.464284
v -3.938228 7.660774 0.508587
v -3.503861 7.946644 0.612051
v -3.457570 8.153280 -0.142854
v -3.764720 7.775150 0.549113
v -3.891096 7.868417 -0.248099
v -4.066408 7.753321 -0.291081
v -4.547292 7.260666 0.360301
v -4.500999 7.467301 -0.394606
v -3.272587 7.291174 -0.368003
v -3.248457 7.809448 0.590161
v -3.202166 8.016084 -0.164747
v -4.069728 6.590798 0.206228
v -4.259714 7.449633 0.430094
v -3.783986 6.778565 0.275550
v -3.067098 7.555061 0.531649
v -3.020806 7.761696 -0.223258
v -4.207160 7.660363 -0.323206
v -3.739859 7.967771 -0.211290
v -3.396995 7.209363 -0.397928
v -3.589390 7.083094 -0.445295
v -3.736917 6.985709 -0.479156
v -4.023437 6.797433 -0.548678
vt 0.735914 0.659422
vt 0.789193 0.659422
vt 0.789193 0.715185
vt 0.735914 0.715185
vt 0.816888 0.113382
vt 0.870167 0.107923
vt 0.870167 0.160781
vt 0.816888 0.166240
vt 0.816888 0.369404
vt 0.870167 0.363945
vt 0.870167 0.403590
vt 0.816888 0.409050
vt 0.731155 0.575499
vt 0.677876 0.575499
vt 0.677981 0.505501
vt 0.710850 0.505460
vt 0.731155 0.505418
vt 0.616009 0.468244
vt 0.549850 0.459605
vt 0.494086 0.427645
vt 0.470627 0.374786
vt 0.480954 0.323250
vt 0.511328 0.266468
vt 0.503868 0.207431
vt 0.504109 0.171623
vt 0.530354 0.131977
vt 0.600435 0.107922
vt 0.616009 0.110536
vt 0.634472 0.135319
vt 0.661960 0.160441
vt 0.702327 0.153537
vt 0.735762 0.160278
vt 0.737994 0.194699
vt 0.725284 0.233919
vt 0.720689 0.266468
vt 0.751063 0.323250
vt 0.761390 0.374786
vt 0.737931 0.427645
vt 0.682167 0.459605
vt 0.789193 0.593263
vt 0.735914 0.593263
vt 0.710560 0.489845
vt 0.731155 0.489845
vt 0.808348 0.107923
vt 0.809532 0.357831
vt 0.776995 0.357831
vt 0.775479 0.112321
vt 0.772042 0.359625
vt 0.771570 0.373161
vt 0.810410 0.373121
vt 0.810927 0.360098
vt 0.810927 0.360098
vt 0.772042 0.359625
vt 0.810410 0.373121
vt 0.243136 0.716617
vt 0.243355 0.466708
vt 0.259011 0.466708
vt 0.277557 0.439312
vt 0.274887 0.716617
vt 0.522564 0.515171
vt 0.522564 0.471340
vt 0.532696 0.471340
vt 0.532696 0.515171
vt 0.486970 0.487353
vt 0.486778 0.503228
vt 0.476773 0.503365
vt 0.476773 0.471340
vt 0.486778 0.471477
vt 0.867866 0.659325
vt 0.852251 0.657656
vt 0.851991 0.412147
vt 0.867866 0.412147
vt 0.883742 0.412147
vt 0.886370 0.685053
vt 0.472013 0.506882
vt 0.460953 0.506893
vt 0.460953 0.492905
vt 0.472013 0.492612
vt 0.397163 0.827232
vt 0.396938 0.813240
vt 0.407799 0.813249
vt 0.407740 0.827494
vt 0.343983 0.827371
vt 0.331817 0.826964
vt 0.331817 0.813240
vt 0.343983 0.813366
vt 0.440374 0.506882
vt 0.428846 0.506882
vt 0.428846 0.492612
vt 0.440374 0.492612
vt 0.124689 0.828503
vt 0.124689 0.840031
vt 0.113630 0.840031
vt 0.113630 0.828503
vt 0.244980 0.827228
vt 0.233453 0.827228
vt 0.233453 0.813240
vt 0.244980 0.813240
vt 0.141473 0.828503
vt 0.141473 0.840031
vt 0.130413 0.840031
vt 0.130413 0.828503
vt 0.157623 0.828503
vt 0.157623 0.840031
vt 0.147046 0.840031
vt 0.147046 0.828503
vt 0.376558 0.827485
vt 0.365031 0.827485
vt 0.365031 0.813240
vt 0.376558 0.813240
vt 0.174539 0.828503
vt 0.174539 0.840031
vt 0.163679 0.840031
vt 0.163679 0.828503
vt 0.277555 0.827232
vt 0.266028 0.827232
vt 0.266028 0.813240
vt 0.277555 0.813240
vt 0.310130 0.827245
vt 0.298602 0.827245
vt 0.298602 0.813240
vt 0.310130 0.813240
vt 0.179831 0.825407
vt 0.168303 0.825407
vt 0.168303 0.813240
vt 0.179831 0.813240
vt 0.212405 0.826964
vt 0.200878 0.826964
vt 0.200878 0.813240
vt 0.212405 0.813240
vt 0.163543 0.825406
vt 0.152016 0.825406
vt 0.152016 0.813240
vt 0.163543 0.813240
vt 0.259011 0.107923
vt 0.325170 0.115259
vt 0.380934 0.147220
vt 0.404393 0.200078
vt 0.394066 0.251614
vt 0.363692 0.308396
vt 0.370063 0.345209
vt 0.380997 0.380166
vt 0.373705 0.415909
vt 0.345330 0.421327
vt 0.304962 0.414424
vt 0.173357 0.442887
vt 0.147112 0.403242
vt 0.146870 0.367433
vt 0.154331 0.308396
vt 0.123957 0.251614
vt 0.113630 0.200078
vt 0.137089 0.147220
vt 0.192853 0.115259
vt 0.735914 0.527104
vt 0.735914 0.471340
vt 0.789193 0.471340
vt 0.789193 0.527104
vt 0.847231 0.445787
vt 0.847231 0.498646
vt 0.793953 0.493186
vt 0.793953 0.440328
vt 0.621567 0.504775
vt 0.621567 0.545143
vt 0.568289 0.545143
vt 0.568289 0.504775
vt 0.465791 0.113382
vt 0.465791 0.138503
vt 0.445487 0.137209
vt 0.412617 0.132810
vt 0.412513 0.107923
vt 0.731155 0.471382
vt 0.710850 0.471340
vt 0.443970 0.410115
vt 0.411433 0.410115
vt 0.810927 0.360098
vt 0.772042 0.359625
vt 0.771570 0.373161
vt 0.810410 0.373121
vt 0.456193 0.492623
vt 0.456193 0.506893
vt 0.445134 0.506601
vt 0.445134 0.492612
vt 0.381543 0.813502
vt 0.392120 0.813240
vt 0.392178 0.827485
vt 0.381318 0.827493
vt 0.327057 0.813240
vt 0.327057 0.827245
vt 0.314890 0.827371
vt 0.314890 0.813647
vt 0.412559 0.506882
vt 0.412559 0.492612
vt 0.424086 0.492612
vt 0.424086 0.506882
vt 0.191371 0.841588
vt 0.180311 0.841588
vt 0.180311 0.830061
vt 0.191371 0.830061
vt 0.217165 0.827228
vt 0.217165 0.813240
vt 0.228693 0.813240
vt 0.228693 0.827228
vt 0.208004 0.841588
vt 0.196944 0.841588
vt 0.196944 0.830061
vt 0.208004 0.830061
vt 0.224154 0.841852
vt 0.213577 0.841852
vt 0.213577 0.830325
vt 0.224154 0.830325
vt 0.348743 0.827485
vt 0.348743 0.813240
vt 0.360271 0.813240
vt 0.360271 0.827485
vt 0.241070 0.841852
vt 0.230209 0.841852
vt 0.230209 0.830325
vt 0.241070 0.830325
vt 0.249740 0.827232
vt 0.249740 0.813240
vt 0.261268 0.813240
vt 0.261268 0.827232
vt 0.282315 0.827245
vt 0.282315 0.813240
vt 0.293842 0.813240
vt 0.293842 0.827245
vt 0.135728 0.825407
vt 0.135728 0.813240
vt 0.147256 0.813240
vt 0.147256 0.825407
vt 0.184591 0.826964
vt 0.184591 0.813240
vt 0.196118 0.813240
vt 0.196118 0.826964
vt 0.119441 0.825406
vt 0.119441 0.813240
vt 0.130968 0.813240
vt 0.130968 0.825406
vt 0.810927 0.360098
vt 0.772042 0.359625
vt 0.771570 0.373161
vt 0.810927 0.360098
vt 0.810410 0.373121
vt 0.771570 0.373161
vt 0.772042 0.359625
vt 0.771570 0.373161
vt 0.810410 0.373121
vt 0.810927 0.360098
vt 0.772042 0.359625
vt 0.771570 0.373161
vt 0.772042 0.359625
vt 0.810927 0.360098
vt 0.810410 0.373121
vt 0.810410 0.373121
vt 0.810927 0.360098
vt 0.772042 0.359625
vt 0.771570 0.373161
vt 0.810927 0.360098
vt 0.810410 0.373121
vt 0.771570 0.373161
vt 0.772042 0.359625
vt 0.810410 0.373121
vt 0.810927 0.360098
vt 0.772042 0.359625
vt 0.771570 0.373161
vt 0.772042 0.359625
vt 0.771570 0.373161
vt 0.810410 0.373121
vt 0.870167 0.212317
vt 0.816888 0.217777
vt 0.870167 0.269099
vt 0.816888 0.274559
vt 0.870167 0.328136
vt 0.816888 0.333596
vt 0.810821 0.366019
vt 0.766990 0.366019
vt 0.766990 0.357731
vt 0.771570 0.373161
vt 0.810410 0.373121
vt 0.549018 0.471340
vt 0.563529 0.471340
vt 0.563529 0.515171
vt 0.549018 0.515171
vt 0.537455 0.471340
vt 0.544258 0.471340
vt 0.544258 0.515171
vt 0.537455 0.515171
vt 0.235617 0.724805
vt 0.282406 0.724805
vt 0.235617 0.796017
vt 0.235617 0.778214
vt 0.235617 0.760411
vt 0.235617 0.751510
vt 0.235617 0.742608
vt 0.282406 0.742608
vt 0.282406 0.760411
vt 0.282406 0.769313
vt 0.282406 0.778214
vt 0.282406 0.796017
vt 0.250127 0.803340
vt 0.267896 0.803340
vt 0.253946 0.810143
vt 0.264077 0.810143
vt 0.640837 0.478143
vt 0.644656 0.471340
vt 0.654787 0.471340
vt 0.658606 0.478143
vt 0.626327 0.485467
vt 0.673117 0.485467
vt 0.626327 0.556679
vt 0.626327 0.538876
vt 0.626327 0.521073
vt 0.626327 0.512172
vt 0.626327 0.503270
vt 0.673117 0.503270
vt 0.673117 0.512172
vt 0.673117 0.521073
vt 0.673117 0.538876
vt 0.673117 0.556679
vt 0.633709 0.564967
vt 0.665734 0.564967
vt 0.847231 0.550182
vt 0.793953 0.544723
vt 0.847231 0.606964
vt 0.793953 0.601505
vt 0.847231 0.639513
vt 0.793953 0.638317
vt 0.847231 0.678733
vt 0.847231 0.713154
vt 0.793953 0.709017
vt 0.793953 0.673274
vt 0.453975 0.410015
vt 0.453975 0.418303
vt 0.410144 0.418303
vt 0.772042 0.359625
vt 0.771570 0.373161
vt 0.772042 0.359625
vt 0.771570 0.373161
vt 0.810410 0.373121
vt 0.810927 0.360098
vt 0.517804 0.471340
vt 0.517804 0.515171
vt 0.503293 0.515171
vt 0.503293 0.471340
vt 0.491730 0.515171
vt 0.491730 0.471340
vt 0.498533 0.471340
vt 0.498533 0.515171
vt 0.568289 0.476400
vt 0.621567 0.471340
vt 0.771570 0.373161
vt 0.810410 0.373121
vt 0.810927 0.360098
vt 0.810410 0.373121
vt 0.771570 0.373161
vt 0.772042 0.359625
vt 0.772042 0.359625
vt 0.810927 0.360098
vt 0.810410 0.373121
vt 0.772042 0.359625
vt 0.810927 0.360098
vt 0.771570 0.373161
vt 0.810410 0.373121
vt 0.772042 0.359625
vt 0.810927 0.360098
vt 0.771570 0.373161
vt 0.772042 0.359625
vt 0.810927 0.360098
vt 0.772042 0.359625
vt 0.771570 0.373161
vt 0.810927 0.360098
vt 0.772042 0.359625
vt 0.810927 0.360098
vt 0.810410 0.373121
vt 0.771570 0.373161
vt 0.810927 0.360098
vt 0.772042 0.359625
vt 0.810927 0.360098
vt 0.810410 0.373121
vt 0.771570 0.373161
vt 0.810410 0.373121
vt 0.810927 0.360098
vt 0.772042 0.359625
vt 0.771570 0.373161
vt 0.810410 0.373121
vn -0.9853 -0.0456 -0.1649
vn -0.8506 0.5236 0.0480
vn -0.0269 0.9482 0.3165
vn 0.5775 0.7420 0.3405
vn 0.0590 0.2636 -0.9628
vn -0.8728 -0.4134 -0.2594
vn 0.8859 0.4141 0.2091
vn -0.5713 0.8000 0.1832
vn 0.5706 -0.8003 -0.1841
vn 0.5739 -0.7868 -0.2271
vn 0.4847 -0.8725 -0.0608
vn 0.5003 -0.8021 -0.3261
vn -0.0639 -0.2645 0.9623
vn 0.8191 0.5385 0.1976
vn -0.8197 -0.5411 -0.1881
vn 0.0649 0.2650 -0.9621
vn -0.5706 0.8003 0.1841
vn -0.0806 -0.2777 0.9573
vn -0.8191 -0.5385 -0.1976
vn 0.0598 0.2641 -0.9626
vn 0.0388 0.2501 -0.9674
vn 0.8194 0.5396 0.1937
vn -0.0584 -0.2631 0.9630
vn -0.8181 -0.5342 -0.2131
vn -0.0505 -0.2579 0.9648
vn 0.0316 0.2454 -0.9689
vn -0.0589 -0.2635 0.9629
vn -0.4200 -0.8385 -0.3472
vn 0.1915 -0.9382 -0.2882
vn 0.7017 0.6358 0.3214
vn 0.9813 -0.1688 0.0930
vn -0.7366 -0.6045 -0.3033
vn 0.9426 -0.3339 -0.0098
vn 0.5784 -0.7951 -0.1822
vn 0.0387 0.2501 -0.9674
vn 0.5330 -0.8238 -0.1930
vn 0.5752 -0.7859 -0.2267
vn -0.6248 0.7796 0.0433
vn -0.6383 0.7098 0.2979
vn -0.6883 0.7093 0.1521
vn -0.3996 0.8851 0.2387
vn -0.2565 0.9267 0.2745
vn -0.2394 0.9302 0.2783
vn -0.1195 0.9459 0.3017
vn -0.6680 0.7298 0.1455
vn -0.6337 0.7569 0.1598
vn -0.6275 0.7615 0.1624
vn -0.5651 0.8038 0.1861
vn -0.9740 0.2264 0.0043
vn -0.8343 0.5512 0.0131
vn -0.7119 0.6870 0.1453
vn 0.4267 -0.8786 -0.2146
vn 0.4776 0.8717 0.1102
vn 0.3004 0.9151 0.2689
vn 0.4586 0.7884 0.4100
vn -0.0966 0.9615 0.2573
vn -0.0650 -0.2683 0.9612
vn -0.1857 -0.3441 0.9204
vn -0.0649 -0.2682 0.9612
vn -0.0587 -0.2640 0.9627
vn -0.0585 -0.2644 0.9626
vn -0.0212 -0.2396 0.9706
vn -0.0216 -0.2399 0.9706
vn -0.0214 -0.2397 0.9706
vn -0.0213 -0.2397 0.9706
vn -0.0590 -0.2636 0.9628
vn -0.0586 -0.2642 0.9627
vn -0.0590 -0.2635 0.9628
vn 0.0590 0.2635 -0.9628
vn 0.7191 -0.6841 -0.1223
vn 0.8245 -0.5622 -0.0650
vn 0.8146 -0.5757 -0.0711
vn 0.8856 -0.4639 -0.0225
vn 0.4371 -0.8674 -0.2378
vn 0.3637 -0.8959 -0.2550
vn 0.3650 -0.8955 -0.2547
vn 0.4996 -0.8458 -0.1871
vn 0.9574 -0.2773 0.0808
vn 0.9588 -0.2717 0.0827
vn 0.4754 -0.8572 -0.1980
vn -0.1322 -0.9545 -0.2673
vn 0.4133 -0.8847 -0.2154
vn 0.2146 -0.9205 -0.3266
vn 0.5330 -0.8238 -0.1929
vn 0.5754 -0.7858 -0.2266
vn 0.9853 0.1603 -0.0598
vn 0.9648 0.0747 0.2521
vn 0.9971 -0.0621 0.0441
vn 0.9971 -0.0621 0.0442
vn 0.8985 -0.4343 -0.0638
vn 0.9038 0.3466 0.2511
vn 0.5330 -0.8240 -0.1923
vn -0.6942 0.7040 0.1500
usemtl initialShadingGroup.004
s off
f 1/1/1 2/2/1 3/3/1 4/4/1
f 4/5/2 3/6/2 5/7/2 6/8/2
f 7/9/3 8/10/3 9/11/3 10/12/3
f 10/13/4 9/14/4 11/15/4 12/16/4 13/17/4
f 14/18/5 1/19/5 4/20/5 6/21/5 15/22/5 16/23/5 17/24/5 7/25/5 10/26/5 13/27/5 18/28/5 19/29/5 20/30/5 21/31/5 22/32/5 23/33/5 24/34/5 25/35/5 26/36/5 27/37/5 28/38/5 29/39/5
f 30/40/6 2/2/6 1/1/6 14/41/6
f 13/17/7 12/16/7 31/42/7 18/43/7
f 11/44/8 32/45/8 33/46/8 12/47/8
f 34/48/9 35/49/9 36/50/10 37/51/9
f 38/52/9 39/53/11 35/49/12 34/54/9
f 32/55/13 11/56/13 40/57/13 41/58/13 42/59/13
f 43/60/14 44/61/14 45/62/14 46/63/14
f 47/64/15 33/65/15 48/66/15 49/67/15 50/68/15
f 31/69/16 12/70/16 33/71/16 47/72/16 50/73/16 51/74/16
f 52/75/17 53/76/17 54/77/17 55/78/17
f 56/79/17 57/80/17 58/81/17 59/82/17
f 60/83/17 61/84/17 62/85/17 63/86/17
f 64/87/14 52/88/14 55/89/14 65/90/14
f 65/91/18 55/92/18 54/93/18 66/94/18
f 66/95/19 54/96/19 53/97/19 67/98/19
f 67/99/20 53/100/20 52/101/20 64/102/20
f 68/103/21 56/104/21 59/105/21 69/106/21
f 69/107/22 59/108/22 58/109/22 70/110/22
f 70/111/23 58/112/23 57/113/23 71/114/23
f 71/115/24 57/116/24 56/117/24 68/118/24
f 72/119/14 60/120/14 63/121/14 73/122/14
f 73/123/25 63/124/25 62/125/25 74/126/25
f 74/127/19 62/128/19 61/129/19 75/130/19
f 75/131/26 61/132/26 60/133/26 72/134/26
f 30/135/27 76/136/27 77/137/27 78/138/27 79/139/27 80/140/27 81/141/27 82/142/27 83/143/27 84/144/27 85/145/27 41/58/27 40/57/27 11/56/27 9/146/27 8/147/27 86/148/27 87/149/27 88/150/27 5/151/27 3/152/27 2/153/27
f 29/154/28 28/155/28 77/156/28 76/157/28
f 28/158/29 27/159/29 78/160/29 77/161/29
f 21/162/30 20/163/30 85/164/30 84/165/30
f 20/166/31 19/167/31 51/168/31 41/169/31 85/170/31
f 30/40/32 14/41/32 29/154/32 76/157/32
f 19/171/33 18/43/33 31/42/33 51/172/33
f 41/169/34 51/168/34 50/173/34 42/174/34
f 89/175/9 90/176/9 37/177/9 91/178/9
f 92/179/9 93/180/9 94/181/9 95/182/9
f 96/183/9 97/184/9 98/185/9 99/186/9
f 100/187/9 101/188/9 102/189/9 103/190/9
f 38/191/14 34/192/14 93/193/14 92/194/14
f 34/195/18 37/196/18 94/197/18 93/198/18
f 37/199/19 90/200/19 95/201/19 94/202/19
f 90/203/20 38/204/20 92/205/20 95/206/20
f 104/207/35 105/208/35 97/209/35 96/210/35
f 105/211/22 106/212/22 98/213/22 97/214/22
f 106/215/23 107/216/23 99/217/23 98/218/23
f 107/219/24 104/220/24 96/221/24 99/222/24
f 89/223/14 91/224/14 101/225/14 100/226/14
f 91/227/25 108/228/25 102/229/25 101/230/25
f 108/231/19 109/232/19 103/233/19 102/234/19
f 109/235/26 89/236/26 100/237/26 103/238/26
f 91/178/9 110/239/36 111/240/37 108/241/9
f 106/242/9 105/243/9 109/244/9 108/245/9
f 73/246/17 74/247/17 112/248/17 113/249/17
f 64/250/17 65/251/17 114/252/38 115/253/39
f 65/254/17 66/255/17 116/256/17 114/257/40
f 72/258/17 73/259/17 66/260/17 67/261/17
f 70/262/17 74/263/17 75/264/17 69/265/17
f 72/258/17 117/266/17 118/267/17 75/268/17
s 1
f 6/8/41 5/7/41 88/269/42 15/270/43
f 15/270/43 88/269/42 87/271/44 16/272/44
f 16/272/45 87/271/45 86/273/46 17/274/47
f 17/274/47 86/273/46 8/10/48 7/9/48
f 32/45/49 119/275/50 120/276/51 48/277/49 33/46/49
f 121/278/9 39/53/52 38/52/9 90/279/9
f 114/280/53 122/281/54 123/282/54 115/283/55
f 122/284/54 44/285/56 43/286/56 123/287/54
f 119/288/57 32/55/58 42/59/58 124/289/59
f 114/290/60 116/291/61 113/292/61 112/293/61 125/294/61 119/288/57 124/289/59 126/295/62 111/296/63 110/297/64 36/298/65 35/299/60
f 122/300/66 114/290/67 35/299/67 127/301/66
f 44/302/68 122/300/66 127/301/66 45/303/68
f 123/304/69 43/305/5 46/306/5 128/307/69
f 115/308/5 123/304/69 128/307/69 39/309/5
f 120/310/5 129/311/5 118/312/5 117/313/5 130/314/5 115/308/5 39/309/5 121/315/5 131/316/5 132/317/5 133/318/5 134/319/5
f 48/320/5 120/310/5 134/319/5 49/321/5
f 27/159/70 26/322/71 79/323/72 78/160/70
f 26/322/71 25/324/73 80/325/73 79/323/72
f 25/324/74 24/326/75 81/327/76 80/325/74
f 23/328/77 22/329/78 83/330/79 82/331/80
f 42/174/81 50/173/81 49/332/81 134/333/82 124/334/83
f 36/335/84 110/336/85 91/178/9 37/51/9
f 121/337/9 90/338/9 89/339/9 131/340/9
f 35/341/86 39/342/87 128/343/88 127/344/89
f 127/345/89 128/346/88 46/347/90 45/348/90
f 83/349/79 22/350/78 21/162/91 84/165/91
f 81/327/76 24/326/75 23/328/77 82/331/80
f 111/351/92 126/352/84 106/242/9 108/245/9
f 126/353/84 124/354/83 107/355/9 106/356/9
f 124/357/83 134/358/82 104/359/9 107/355/9
f 132/360/9 109/361/9 105/243/9 133/362/9
f 132/363/9 131/340/9 89/364/9 109/244/9
f 133/365/9 105/243/9 104/366/9 134/367/82
f 73/259/17 113/368/17 116/256/17 66/260/17
f 112/369/17 74/370/17 70/262/17 125/371/17
f 125/372/17 70/373/17 71/374/17 119/375/50
f 119/375/50 71/374/17 68/376/17 120/377/51
f 69/378/17 75/264/17 118/267/17 129/379/17
f 130/380/17 117/266/17 72/258/17 67/381/17
f 115/253/93 130/382/17 67/261/17 64/250/17
f 129/383/17 120/384/51 68/385/17 69/378/17
