# Blender v2.79 (sub 6) OBJ File: 'bailarinaacortados.blend1'
# www.blender.org
mtllib guitarra3_000204.mtl
o Guitarra_2:pPlane4
v 16.110046 8.937804 3.044960
v 16.205053 9.738564 3.562243
v 15.592474 9.212709 4.380838
v 15.497471 8.411952 3.863554
v 14.630358 9.005644 4.699570
v 14.535357 8.204886 4.182285
v 10.929121 8.600494 3.546090
v 11.024126 9.401256 4.063374
v 10.335018 9.668391 3.642520
v 10.240015 8.867631 3.125236
v 9.961195 10.349863 2.572360
v 9.884199 9.856610 2.251935
v 9.862078 9.551558 2.054690
v 16.313509 9.572201 2.054718
v 13.621929 8.322912 3.993297
v 12.629612 8.635983 3.499149
v 11.568928 8.585303 3.573028
v 9.920334 9.700687 1.821964
v 10.376970 9.869695 1.560172
v 10.846336 10.125542 1.162752
v 10.752903 10.517001 0.550617
v 10.898170 10.836755 0.051720
v 11.515018 10.845900 0.040518
v 12.206566 10.709339 0.257359
v 12.784887 10.653371 0.347702
v 13.822258 10.925652 -0.072549
v 14.751007 11.006655 -0.194473
v 15.678322 10.761616 0.193046
v 16.208183 10.212803 1.053233
v 16.385241 10.373425 2.571155
v 9.925591 10.010856 2.020776
v 5.494463 10.455358 2.424467
v 5.496034 9.965132 2.110728
v 4.269795 10.666704 1.664626
v 4.104438 10.881699 1.794106
v 4.474977 10.873688 1.807235
v 4.467473 10.658332 1.669006
v 4.270484 10.451711 1.527032
v 4.106551 10.221320 1.371472
v 9.972807 10.500725 2.336691
v 10.476210 10.669588 2.075358
v 5.518013 10.761307 1.946531
v 3.832973 9.952150 1.790688
v 3.830859 10.612529 2.213324
v 3.838374 10.710156 2.060814
v 3.840487 10.049779 1.638180
v 5.507800 10.121012 1.873620
v 5.498203 9.813042 2.016383
v 5.521955 10.121628 1.534328
v 5.519583 10.271082 1.632791
v 10.399153 10.175539 1.756174
v 4.227233 9.889772 2.404858
v 4.424899 9.885635 2.411950
v 4.424221 10.096394 2.546832
v 4.226543 10.104766 2.542451
v 5.160661 9.875136 2.441482
v 5.164007 10.085864 2.576543
v 4.969906 10.089631 2.569390
v 4.971638 9.874990 2.432075
v 4.591055 9.881619 2.417565
v 4.808482 9.883381 2.429407
v 4.807819 10.090161 2.561744
v 4.590377 10.092623 2.552607
v 4.235781 10.000850 2.231340
v 4.235093 10.215844 2.368934
v 4.432769 10.207471 2.373313
v 4.433448 9.996713 2.238431
v 5.169212 9.986215 2.267964
v 4.980191 9.986068 2.258555
v 4.978455 10.200708 2.395871
v 5.172556 10.196941 2.403024
v 4.599604 9.992697 2.244046
v 4.598928 10.203701 2.379087
v 4.816368 10.201239 2.388225
v 4.817031 9.994459 2.255889
v 16.303190 11.013558 1.570517
v 15.773327 11.562374 0.710329
v 14.846010 11.807412 0.322811
v 13.917263 11.726410 0.444735
v 12.879892 11.454129 0.864988
v 12.226681 11.528740 0.745139
v 11.610022 11.646658 0.557803
v 10.965790 11.589232 0.644309
v 10.847910 11.317762 1.067900
v 10.941343 10.926300 1.680035
v 11.663937 9.386065 4.090313
v 12.724615 9.436742 4.016434
v 13.716930 9.123670 4.510580
v 4.634306 10.443558 1.539740
v 4.468149 10.447573 1.534123
v 4.633631 10.654562 1.674780
v 4.279033 10.562788 1.353513
v 4.278346 10.777782 1.491107
v 4.476021 10.769409 1.495487
v 4.476699 10.558651 1.360604
v 5.212465 10.548152 1.390137
v 5.023441 10.548005 1.380729
v 5.021705 10.762646 1.518044
v 5.215807 10.758880 1.525198
v 4.642857 10.554635 1.366220
v 4.642180 10.765639 1.501261
v 4.859621 10.763177 1.510399
v 4.860283 10.556396 1.378062
v 5.203914 10.437075 1.563656
v 5.014891 10.436928 1.554248
v 5.013156 10.651568 1.691563
v 5.207259 10.647802 1.698717
v 4.851072 10.652100 1.683918
v 4.851734 10.445319 1.551581
v 4.651904 10.869939 1.813553
v 4.868122 10.864977 1.821031
v 4.819622 10.416259 2.526029
v 4.599460 10.421345 2.518437
v 4.069735 10.430839 2.498415
v 4.071848 9.770459 2.075780
v 4.387922 10.424443 2.509998
v 4.600701 9.759274 2.094677
v 4.814597 9.754386 2.102086
v 5.342483 10.405260 2.544751
v 5.344597 9.744882 2.122116
v 4.463470 10.213730 1.384199
v 3.949610 10.573291 2.275229
v 3.951725 9.912911 1.852593
v 5.377185 10.856120 1.840444
v 4.991673 10.412662 2.532204
v 5.028615 10.863454 1.827964
v 3.962789 10.744509 2.007763
v 3.964904 10.084129 1.585128
v 4.986142 9.752521 2.109344
v 4.416201 9.763259 2.088137
v 4.615212 10.210759 1.389774
v 4.849966 10.205226 1.397798
v 5.029780 10.203104 1.405301
v 5.379300 10.195742 1.417808
vt 0.735914 0.659422
vt 0.789193 0.659422
vt 0.789193 0.715185
vt 0.735914 0.715185
vt 0.816888 0.113382
vt 0.870167 0.107923
vt 0.870167 0.160781
vt 0.816888 0.166240
vt 0.816888 0.369404
vt 0.870167 0.363945
vt 0.870167 0.403590
vt 0.816888 0.409050
vt 0.731155 0.575499
vt 0.677876 0.575499
vt 0.677981 0.505501
vt 0.710850 0.505460
vt 0.731155 0.505418
vt 0.616009 0.468244
vt 0.549850 0.459605
vt 0.494086 0.427645
vt 0.470627 0.374786
vt 0.480954 0.323250
vt 0.511328 0.266468
vt 0.503868 0.207431
vt 0.504109 0.171623
vt 0.530354 0.131977
vt 0.600435 0.107922
vt 0.616009 0.110536
vt 0.634472 0.135319
vt 0.661960 0.160441
vt 0.702327 0.153537
vt 0.735762 0.160278
vt 0.737994 0.194699
vt 0.725284 0.233919
vt 0.720689 0.266468
vt 0.751063 0.323250
vt 0.761390 0.374786
vt 0.737931 0.427645
vt 0.682167 0.459605
vt 0.789193 0.593263
vt 0.735914 0.593263
vt 0.710560 0.489845
vt 0.731155 0.489845
vt 0.808348 0.107923
vt 0.809532 0.357831
vt 0.776995 0.357831
vt 0.775479 0.112321
vt 0.772042 0.359625
vt 0.771570 0.373161
vt 0.810410 0.373121
vt 0.810927 0.360098
vt 0.810927 0.360098
vt 0.772042 0.359625
vt 0.810410 0.373121
vt 0.243136 0.716617
vt 0.243355 0.466708
vt 0.259011 0.466708
vt 0.277557 0.439312
vt 0.274887 0.716617
vt 0.522564 0.515171
vt 0.522564 0.471340
vt 0.532696 0.471340
vt 0.532696 0.515171
vt 0.486970 0.487353
vt 0.486778 0.503228
vt 0.476773 0.503365
vt 0.476773 0.471340
vt 0.486778 0.471477
vt 0.867866 0.659325
vt 0.852251 0.657656
vt 0.851991 0.412147
vt 0.867866 0.412147
vt 0.883742 0.412147
vt 0.886370 0.685053
vt 0.472013 0.506882
vt 0.460953 0.506893
vt 0.460953 0.492905
vt 0.472013 0.492612
vt 0.397163 0.827232
vt 0.396938 0.813240
vt 0.407799 0.813249
vt 0.407740 0.827494
vt 0.343983 0.827371
vt 0.331817 0.826964
vt 0.331817 0.813240
vt 0.343983 0.813366
vt 0.440374 0.506882
vt 0.428846 0.506882
vt 0.428846 0.492612
vt 0.440374 0.492612
vt 0.124689 0.828503
vt 0.124689 0.840031
vt 0.113630 0.840031
vt 0.113630 0.828503
vt 0.244980 0.827228
vt 0.233453 0.827228
vt 0.233453 0.813240
vt 0.244980 0.813240
vt 0.141473 0.828503
vt 0.141473 0.840031
vt 0.130413 0.840031
vt 0.130413 0.828503
vt 0.157623 0.828503
vt 0.157623 0.840031
vt 0.147046 0.840031
vt 0.147046 0.828503
vt 0.376558 0.827485
vt 0.365031 0.827485
vt 0.365031 0.813240
vt 0.376558 0.813240
vt 0.174539 0.828503
vt 0.174539 0.840031
vt 0.163679 0.840031
vt 0.163679 0.828503
vt 0.277555 0.827232
vt 0.266028 0.827232
vt 0.266028 0.813240
vt 0.277555 0.813240
vt 0.310130 0.827245
vt 0.298602 0.827245
vt 0.298602 0.813240
vt 0.310130 0.813240
vt 0.179831 0.825407
vt 0.168303 0.825407
vt 0.168303 0.813240
vt 0.179831 0.813240
vt 0.212405 0.826964
vt 0.200878 0.826964
vt 0.200878 0.813240
vt 0.212405 0.813240
vt 0.163543 0.825406
vt 0.152016 0.825406
vt 0.152016 0.813240
vt 0.163543 0.813240
vt 0.259011 0.107923
vt 0.325170 0.115259
vt 0.380934 0.147220
vt 0.404393 0.200078
vt 0.394066 0.251614
vt 0.363692 0.308396
vt 0.370063 0.345209
vt 0.380997 0.380166
vt 0.373705 0.415909
vt 0.345330 0.421327
vt 0.304962 0.414424
vt 0.173357 0.442887
vt 0.147112 0.403242
vt 0.146870 0.367433
vt 0.154331 0.308396
vt 0.123957 0.251614
vt 0.113630 0.200078
vt 0.137089 0.147220
vt 0.192853 0.115259
vt 0.735914 0.527104
vt 0.735914 0.471340
vt 0.789193 0.471340
vt 0.789193 0.527104
vt 0.847231 0.445787
vt 0.847231 0.498646
vt 0.793953 0.493186
vt 0.793953 0.440328
vt 0.621567 0.504775
vt 0.621567 0.545143
vt 0.568289 0.545143
vt 0.568289 0.504775
vt 0.465791 0.113382
vt 0.465791 0.138503
vt 0.445487 0.137209
vt 0.412617 0.132810
vt 0.412513 0.107923
vt 0.731155 0.471382
vt 0.710850 0.471340
vt 0.443970 0.410115
vt 0.411433 0.410115
vt 0.810927 0.360098
vt 0.772042 0.359625
vt 0.771570 0.373161
vt 0.810410 0.373121
vt 0.456193 0.492623
vt 0.456193 0.506893
vt 0.445134 0.506601
vt 0.445134 0.492612
vt 0.381543 0.813502
vt 0.392120 0.813240
vt 0.392178 0.827485
vt 0.381318 0.827493
vt 0.327057 0.813240
vt 0.327057 0.827245
vt 0.314890 0.827371
vt 0.314890 0.813647
vt 0.412559 0.506882
vt 0.412559 0.492612
vt 0.424086 0.492612
vt 0.424086 0.506882
vt 0.191371 0.841588
vt 0.180311 0.841588
vt 0.180311 0.830061
vt 0.191371 0.830061
vt 0.217165 0.827228
vt 0.217165 0.813240
vt 0.228693 0.813240
vt 0.228693 0.827228
vt 0.208004 0.841588
vt 0.196944 0.841588
vt 0.196944 0.830061
vt 0.208004 0.830061
vt 0.224154 0.841852
vt 0.213577 0.841852
vt 0.213577 0.830325
vt 0.224154 0.830325
vt 0.348743 0.827485
vt 0.348743 0.813240
vt 0.360271 0.813240
vt 0.360271 0.827485
vt 0.241070 0.841852
vt 0.230209 0.841852
vt 0.230209 0.830325
vt 0.241070 0.830325
vt 0.249740 0.827232
vt 0.249740 0.813240
vt 0.261268 0.813240
vt 0.261268 0.827232
vt 0.282315 0.827245
vt 0.282315 0.813240
vt 0.293842 0.813240
vt 0.293842 0.827245
vt 0.135728 0.825407
vt 0.135728 0.813240
vt 0.147256 0.813240
vt 0.147256 0.825407
vt 0.184591 0.826964
vt 0.184591 0.813240
vt 0.196118 0.813240
vt 0.196118 0.826964
vt 0.119441 0.825406
vt 0.119441 0.813240
vt 0.130968 0.813240
vt 0.130968 0.825406
vt 0.810927 0.360098
vt 0.772042 0.359625
vt 0.771570 0.373161
vt 0.810927 0.360098
vt 0.810410 0.373121
vt 0.771570 0.373161
vt 0.772042 0.359625
vt 0.771570 0.373161
vt 0.810410 0.373121
vt 0.810927 0.360098
vt 0.772042 0.359625
vt 0.771570 0.373161
vt 0.772042 0.359625
vt 0.810927 0.360098
vt 0.810410 0.373121
vt 0.810410 0.373121
vt 0.810927 0.360098
vt 0.772042 0.359625
vt 0.771570 0.373161
vt 0.810927 0.360098
vt 0.810410 0.373121
vt 0.771570 0.373161
vt 0.772042 0.359625
vt 0.810410 0.373121
vt 0.810927 0.360098
vt 0.772042 0.359625
vt 0.771570 0.373161
vt 0.772042 0.359625
vt 0.771570 0.373161
vt 0.810410 0.373121
vt 0.870167 0.212317
vt 0.816888 0.217777
vt 0.870167 0.269099
vt 0.816888 0.274559
vt 0.870167 0.328136
vt 0.816888 0.333596
vt 0.810821 0.366019
vt 0.766990 0.366019
vt 0.766990 0.357731
vt 0.771570 0.373161
vt 0.810410 0.373121
vt 0.549018 0.471340
vt 0.563529 0.471340
vt 0.563529 0.515171
vt 0.549018 0.515171
vt 0.537455 0.471340
vt 0.544258 0.471340
vt 0.544258 0.515171
vt 0.537455 0.515171
vt 0.235617 0.724805
vt 0.282406 0.724805
vt 0.235617 0.796017
vt 0.235617 0.778214
vt 0.235617 0.760411
vt 0.235617 0.751510
vt 0.235617 0.742608
vt 0.282406 0.742608
vt 0.282406 0.760411
vt 0.282406 0.769313
vt 0.282406 0.778214
vt 0.282406 0.796017
vt 0.250127 0.803340
vt 0.267896 0.803340
vt 0.253946 0.810143
vt 0.264077 0.810143
vt 0.640837 0.478143
vt 0.644656 0.471340
vt 0.654787 0.471340
vt 0.658606 0.478143
vt 0.626327 0.485467
vt 0.673117 0.485467
vt 0.626327 0.556679
vt 0.626327 0.538876
vt 0.626327 0.521073
vt 0.626327 0.512172
vt 0.626327 0.503270
vt 0.673117 0.503270
vt 0.673117 0.512172
vt 0.673117 0.521073
vt 0.673117 0.538876
vt 0.673117 0.556679
vt 0.633709 0.564967
vt 0.665734 0.564967
vt 0.847231 0.550182
vt 0.793953 0.544723
vt 0.847231 0.606964
vt 0.793953 0.601505
vt 0.847231 0.639513
vt 0.793953 0.638317
vt 0.847231 0.678733
vt 0.847231 0.713154
vt 0.793953 0.709017
vt 0.793953 0.673274
vt 0.453975 0.410015
vt 0.453975 0.418303
vt 0.410144 0.418303
vt 0.772042 0.359625
vt 0.771570 0.373161
vt 0.772042 0.359625
vt 0.771570 0.373161
vt 0.810410 0.373121
vt 0.810927 0.360098
vt 0.517804 0.471340
vt 0.517804 0.515171
vt 0.503293 0.515171
vt 0.503293 0.471340
vt 0.491730 0.515171
vt 0.491730 0.471340
vt 0.498533 0.471340
vt 0.498533 0.515171
vt 0.568289 0.476400
vt 0.621567 0.471340
vt 0.771570 0.373161
vt 0.810410 0.373121
vt 0.810927 0.360098
vt 0.810410 0.373121
vt 0.771570 0.373161
vt 0.772042 0.359625
vt 0.772042 0.359625
vt 0.810927 0.360098
vt 0.810410 0.373121
vt 0.772042 0.359625
vt 0.810927 0.360098
vt 0.771570 0.373161
vt 0.810410 0.373121
vt 0.772042 0.359625
vt 0.810927 0.360098
vt 0.771570 0.373161
vt 0.772042 0.359625
vt 0.810927 0.360098
vt 0.772042 0.359625
vt 0.771570 0.373161
vt 0.810927 0.360098
vt 0.772042 0.359625
vt 0.810927 0.360098
vt 0.810410 0.373121
vt 0.771570 0.373161
vt 0.810927 0.360098
vt 0.772042 0.359625
vt 0.810927 0.360098
vt 0.810410 0.373121
vt 0.771570 0.373161
vt 0.810410 0.373121
vt 0.810927 0.360098
vt 0.772042 0.359625
vt 0.771570 0.373161
vt 0.810410 0.373121
vn 0.8431 -0.3588 0.4005
vn 0.3672 -0.5351 0.7608
vn -0.5853 -0.3898 0.7109
vn -0.9529 -0.0746 0.2940
vn 0.0027 -0.8423 -0.5390
vn 0.9833 -0.1593 0.0883
vn -0.9836 0.1265 -0.1285
vn -0.0405 -0.5393 0.8412
vn 0.0415 0.5387 -0.8415
vn 0.0401 0.5001 -0.8650
vn 0.1253 0.6497 -0.7498
vn 0.1278 0.4189 -0.8990
vn 0.0018 0.8411 0.5408
vn -0.9991 0.0201 -0.0364
vn 0.9991 -0.0117 0.0417
vn -0.0030 -0.8411 -0.5409
vn -0.0415 -0.5387 0.8415
vn 0.0237 0.8414 0.5398
vn 0.9991 -0.0201 0.0364
vn 0.0017 -0.8423 -0.5391
vn 0.0274 -0.8425 -0.5380
vn -0.9991 0.0166 -0.0386
vn -0.0035 0.8423 0.5390
vn 0.9991 -0.0336 0.0277
vn -0.0131 0.8424 0.5386
vn 0.0361 -0.8425 -0.5375
vn -0.0028 0.8423 0.5390
vn 0.8842 0.1749 -0.4331
vn 0.4429 0.4488 -0.7761
vn -0.9871 0.0140 0.1596
vn -0.7027 0.4439 -0.5560
vn 0.9932 -0.0307 -0.1126
vn -0.5565 0.4658 -0.6881
vn 0.0318 0.5389 -0.8418
vn 0.0866 0.5371 -0.8391
vn 0.0384 0.5002 -0.8650
vn 0.0427 -0.6410 0.7664
vn 0.0403 -0.4176 0.9077
vn 0.1107 -0.5354 0.8373
vn -0.2370 -0.5072 0.8286
vn -0.3819 -0.4691 0.7963
vn -0.3982 -0.4639 0.7913
vn -0.5074 -0.4243 0.7500
vn 0.0841 -0.5477 0.8324
vn 0.0385 -0.5455 0.8372
vn 0.0304 -0.5449 0.8380
vn -0.0482 -0.5379 0.8416
vn 0.6439 -0.4093 0.6464
vn 0.3457 -0.5733 0.7428
vn 0.1435 -0.5324 0.8342
vn 0.2067 0.5277 -0.8239
vn -0.8997 -0.3501 0.2609
vn -0.8167 -0.3129 0.4849
vn -0.8994 -0.0872 0.4284
vn -0.5252 -0.4599 0.7160
vn 0.0050 0.8425 0.5387
vn 0.1527 0.8289 0.5381
vn 0.0049 0.8425 0.5387
vn -0.0027 0.8426 0.5386
vn -0.0027 0.8428 0.5382
vn -0.0480 0.8429 0.5360
vn -0.0475 0.8429 0.5360
vn -0.0478 0.8429 0.5360
vn -0.0027 0.8423 0.5390
vn -0.0027 0.8427 0.5383
vn -0.1557 0.5490 -0.8212
vn -0.3209 0.5405 -0.7777
vn -0.3040 0.5421 -0.7833
vn -0.4343 0.5246 -0.7323
vn 0.1970 0.5067 -0.8393
vn 0.2751 0.4926 -0.8256
vn 0.2738 0.4929 -0.8259
vn 0.1244 0.5462 -0.8283
vn -0.6193 0.4983 -0.6067
vn -0.6240 0.4965 -0.6034
vn 0.1525 0.5391 -0.8283
vn 0.7051 0.3855 -0.5952
vn 0.2210 0.5273 -0.8204
vn 0.4225 0.4163 -0.8051
vn 0.0866 0.5372 -0.8390
vn 0.0382 0.5002 -0.8650
vn -0.8619 0.1243 -0.4916
vn -0.8616 0.3969 -0.3164
vn -0.7660 0.3448 -0.5425
vn -0.4529 0.4796 -0.7516
vn -0.9680 0.2049 -0.1448
vn 0.0866 0.5377 -0.8387
vn 0.1188 -0.5351 0.8364
usemtl initialShadingGroup.004
s off
f 1/1/1 2/2/1 3/3/1 4/4/1
f 4/5/2 3/6/2 5/7/2 6/8/2
f 7/9/3 8/10/3 9/11/3 10/12/3
f 10/13/4 9/14/4 11/15/4 12/16/4 13/17/4
f 14/18/5 1/19/5 4/20/5 6/21/5 15/22/5 16/23/5 17/24/5 7/25/5 10/26/5 13/27/5 18/28/5 19/29/5 20/30/5 21/31/5 22/32/5 23/33/5 24/34/5 25/35/5 26/36/5 27/37/5 28/38/5 29/39/5
f 30/40/6 2/2/6 1/1/6 14/41/6
f 13/17/7 12/16/7 31/42/7 18/43/7
f 11/44/8 32/45/8 33/46/8 12/47/8
f 34/48/9 35/49/9 36/50/10 37/51/9
f 38/52/9 39/53/11 35/49/12 34/54/9
f 32/55/13 11/56/13 40/57/13 41/58/13 42/59/13
f 43/60/14 44/61/14 45/62/14 46/63/14
f 47/64/15 33/65/15 48/66/15 49/67/15 50/68/15
f 31/69/16 12/70/16 33/71/16 47/72/16 50/73/16 51/74/16
f 52/75/17 53/76/17 54/77/17 55/78/17
f 56/79/17 57/80/17 58/81/17 59/82/17
f 60/83/17 61/84/17 62/85/17 63/86/17
f 64/87/14 52/88/14 55/89/14 65/90/14
f 65/91/18 55/92/18 54/93/18 66/94/18
f 66/95/19 54/96/19 53/97/19 67/98/19
f 67/99/20 53/100/20 52/101/20 64/102/20
f 68/103/21 56/104/21 59/105/21 69/106/21
f 69/107/22 59/108/22 58/109/22 70/110/22
f 70/111/23 58/112/23 57/113/23 71/114/23
f 71/115/24 57/116/24 56/117/24 68/118/24
f 72/119/14 60/120/14 63/121/14 73/122/14
f 73/123/25 63/124/25 62/125/25 74/126/25
f 74/127/19 62/128/19 61/129/19 75/130/19
f 75/131/26 61/132/26 60/133/26 72/134/26
f 30/135/27 76/136/27 77/137/27 78/138/27 79/139/27 80/140/27 81/141/27 82/142/27 83/143/27 84/144/27 85/145/27 41/58/27 40/57/27 11/56/27 9/146/27 8/147/27 86/148/27 87/149/27 88/150/27 5/151/27 3/152/27 2/153/27
f 29/154/28 28/155/28 77/156/28 76/157/28
f 28/158/29 27/159/29 78/160/29 77/161/29
f 21/162/30 20/163/30 85/164/30 84/165/30
f 20/166/31 19/167/31 51/168/31 41/169/31 85/170/31
f 30/40/32 14/41/32 29/154/32 76/157/32
f 19/171/33 18/43/33 31/42/33 51/172/33
f 41/169/34 51/168/34 50/173/34 42/174/34
f 89/175/9 90/176/9 37/177/9 91/178/9
f 92/179/9 93/180/9 94/181/9 95/182/9
f 96/183/9 97/184/9 98/185/9 99/186/9
f 100/187/9 101/188/9 102/189/9 103/190/9
f 38/191/14 34/192/14 93/193/14 92/194/14
f 34/195/18 37/196/18 94/197/18 93/198/18
f 37/199/19 90/200/19 95/201/19 94/202/19
f 90/203/20 38/204/20 92/205/20 95/206/20
f 104/207/21 105/208/21 97/209/21 96/210/21
f 105/211/22 106/212/22 98/213/22 97/214/22
f 106/215/23 107/216/23 99/217/23 98/218/23
f 107/219/24 104/220/24 96/221/24 99/222/24
f 89/223/14 91/224/14 101/225/14 100/226/14
f 91/227/25 108/228/25 102/229/25 101/230/25
f 108/231/19 109/232/19 103/233/19 102/234/19
f 109/235/26 89/236/26 100/237/26 103/238/26
f 91/178/9 110/239/35 111/240/36 108/241/9
f 106/242/9 105/243/9 109/244/9 108/245/9
f 73/246/17 74/247/17 112/248/17 113/249/17
f 64/250/17 65/251/17 114/252/37 115/253/38
f 65/254/17 66/255/17 116/256/17 114/257/39
f 72/258/17 73/259/17 66/260/17 67/261/17
f 70/262/17 74/263/17 75/264/17 69/265/17
f 72/258/17 117/266/17 118/267/17 75/268/17
s 1
f 6/8/40 5/7/40 88/269/41 15/270/42
f 15/270/42 88/269/41 87/271/43 16/272/43
f 16/272/44 87/271/44 86/273/45 17/274/46
f 17/274/46 86/273/45 8/10/47 7/9/47
f 32/45/48 119/275/49 120/276/50 48/277/48 33/46/48
f 121/278/9 39/53/51 38/52/9 90/279/9
f 114/280/52 122/281/53 123/282/53 115/283/54
f 122/284/53 44/285/55 43/286/55 123/287/53
f 119/288/56 32/55/57 42/59/57 124/289/58
f 114/290/59 116/291/60 113/292/60 112/293/60 125/294/60 119/288/56 124/289/58 126/295/61 111/296/62 110/297/63 36/298/63 35/299/59
f 122/300/64 114/290/65 35/299/65 127/301/64
f 44/302/64 122/300/64 127/301/64 45/303/64
f 123/304/5 43/305/5 46/306/5 128/307/5
f 115/308/5 123/304/5 128/307/5 39/309/5
f 120/310/5 129/311/5 118/312/5 117/313/5 130/314/5 115/308/5 39/309/5 121/315/5 131/316/5 132/317/5 133/318/5 134/319/5
f 48/320/5 120/310/5 134/319/5 49/321/5
f 27/159/66 26/322/67 79/323/68 78/160/66
f 26/322/67 25/324/69 80/325/69 79/323/68
f 25/324/70 24/326/71 81/327/72 80/325/70
f 23/328/73 22/329/74 83/330/75 82/331/76
f 42/174/77 50/173/77 49/332/77 134/333/78 124/334/79
f 36/335/80 110/336/81 91/178/9 37/51/9
f 121/337/9 90/338/9 89/339/9 131/340/9
f 35/341/82 39/342/83 128/343/84 127/344/84
f 127/345/84 128/346/84 46/347/85 45/348/85
f 83/349/75 22/350/74 21/162/86 84/165/86
f 81/327/72 24/326/71 23/328/73 82/331/76
f 111/351/87 126/352/80 106/242/9 108/245/9
f 126/353/80 124/354/79 107/355/9 106/356/9
f 124/357/79 134/358/78 104/359/9 107/355/9
f 132/360/9 109/361/9 105/243/9 133/362/9
f 132/363/9 131/340/9 89/364/9 109/244/9
f 133/365/9 105/243/9 104/366/9 134/367/78
f 73/259/17 113/368/17 116/256/17 66/260/17
f 112/369/17 74/370/17 70/262/17 125/371/17
f 125/372/17 70/373/17 71/374/17 119/375/49
f 119/375/49 71/374/17 68/376/17 120/377/50
f 69/378/17 75/264/17 118/267/17 129/379/17
f 130/380/17 117/266/17 72/258/17 67/381/17
f 115/253/88 130/382/17 67/261/17 64/250/17
f 129/383/17 120/384/50 68/385/17 69/378/17
