# Blender v2.79 (sub 6) OBJ File: 'bailarina.blend1'
# www.blender.org
mtllib Guitarra3_000006.mtl
o Guitarra_2:pPlane4
v -4.641468 22.786671 -8.002377
v -3.818872 22.725897 -8.489683
v -4.169718 21.687859 -8.837900
v -4.992313 21.748632 -8.350594
v -4.201586 20.687227 -8.577412
v -5.024179 20.748001 -8.090107
v -4.160604 18.189728 -5.584980
v -3.338006 18.128958 -6.072286
v -3.012298 17.835007 -5.343689
v -3.834894 17.895779 -4.856383
v -2.385791 18.223404 -4.245495
v -2.889928 18.246582 -3.933715
v -3.205397 18.281422 -3.755624
v -4.139242 23.599257 -7.286906
v -4.790492 20.118149 -7.432328
v -4.381543 19.621998 -6.476567
v -4.267676 18.699574 -5.957681
v -3.088875 18.481003 -3.593187
v -3.014413 19.027893 -3.624538
v -2.868972 19.673599 -3.549613
v -2.526784 19.995228 -2.987345
v -2.279946 20.439867 -2.650286
v -2.363220 20.955624 -2.978570
v -2.579744 21.384445 -3.538155
v -2.711963 21.802317 -3.930142
v -2.636479 22.931093 -4.147052
v -2.705451 23.776052 -4.553608
v -3.047744 24.288065 -5.384758
v -3.586286 24.164642 -6.393029
v -3.312825 23.519855 -7.760765
v -2.765728 18.432322 -3.763378
v -1.635075 14.642228 -1.677170
v -2.147228 14.727049 -1.413999
v -1.316683 14.080205 -0.371568
v -1.068473 13.911739 -0.390063
v -1.129942 14.208483 -0.603841
v -1.353755 14.239213 -0.483407
v -1.541294 14.117405 -0.256151
v -1.758392 14.025998 -0.035547
v -2.260938 18.386450 -4.055070
v -2.193490 18.971588 -4.112404
v -1.381872 14.972888 -1.290990
v -1.943874 13.527482 -0.235840
v -1.253956 13.413222 -0.590358
v -1.173160 13.518736 -0.467128
v -1.863078 13.632996 -0.112611
v -2.017592 14.891876 -1.222467
v -2.306091 14.753137 -1.335774
v -2.050707 15.086646 -0.946265
v -1.894026 15.057709 -1.027817
v -2.698287 18.993912 -3.801627
v -2.006351 13.510083 -0.965451
v -2.038999 13.668357 -1.079565
v -1.818813 13.631888 -1.192707
v -1.781740 13.472884 -1.080868
v -2.155402 14.256665 -1.506971
v -1.935825 14.223408 -1.622463
v -1.904076 14.068037 -1.510246
v -2.128468 14.106009 -1.395635
v -2.067006 13.801497 -1.175199
v -2.096323 13.974517 -1.304125
v -1.880293 13.938738 -1.415131
v -1.846561 13.764985 -1.288474
v -1.914424 13.630130 -0.825245
v -1.689813 13.592931 -0.940661
v -1.726885 13.751938 -1.052500
v -1.947072 13.788405 -0.939358
v -2.063475 14.376715 -1.366765
v -2.036540 14.226061 -1.255430
v -1.812149 14.188086 -1.370039
v -1.843898 14.343455 -1.482256
v -1.975078 13.921543 -1.034993
v -1.754634 13.885034 -1.148269
v -1.788366 14.058787 -1.274925
v -2.004396 14.094565 -1.163918
v -2.763691 24.103868 -6.880334
v -2.225147 24.227293 -5.872062
v -1.882856 23.715279 -5.040914
v -1.813883 22.870323 -4.634359
v -1.889366 21.741545 -4.417449
v -1.730468 21.281158 -3.959835
v -1.540624 20.894852 -3.465877
v -1.493818 20.307480 -3.185479
v -1.704188 19.934456 -3.474652
v -2.046377 19.612829 -4.036918
v -3.445081 18.638802 -6.444986
v -3.558945 19.561222 -6.963873
v -3.967896 20.057373 -7.919634
v -1.601948 14.408817 -0.465899
v -1.573942 14.275679 -0.370265
v -1.381504 14.372308 -0.579175
v -1.449367 14.237453 -0.115945
v -1.224756 14.200254 -0.231362
v -1.261828 14.359260 -0.343201
v -1.482014 14.395728 -0.230060
v -1.598418 14.984036 -0.657466
v -1.571484 14.833383 -0.546130
v -1.347092 14.795408 -0.660740
v -1.378841 14.950778 -0.772957
v -1.510021 14.528867 -0.325693
v -1.289577 14.492357 -0.438969
v -1.323309 14.666109 -0.565625
v -1.539338 14.701889 -0.454619
v -1.690346 14.863987 -0.797671
v -1.663410 14.713333 -0.686336
v -1.439019 14.675358 -0.800945
v -1.470768 14.830729 -0.913164
v -1.415236 14.546062 -0.705832
v -1.631266 14.581840 -0.594825
v -1.159210 14.350158 -0.705958
v -1.195377 14.523364 -0.830550
v -1.564293 14.024725 -1.392674
v -1.527432 13.848357 -1.265831
v -1.441603 13.424464 -0.959156
v -2.131522 13.538725 -0.604640
v -1.493881 13.679200 -1.142992
v -2.218990 13.962209 -0.909890
v -2.254749 14.133549 -1.033151
v -1.650709 14.443403 -1.694499
v -2.340627 14.557664 -1.339982
v -1.817467 14.311812 -0.241535
v -1.304384 13.470795 -0.707048
v -1.994303 13.585054 -0.352531
v -1.277579 14.930676 -1.125406
v -1.592705 14.162492 -1.492005
v -1.219967 14.651562 -0.924193
v -1.162685 13.655841 -0.490931
v -1.852603 13.770101 -0.136415
v -2.281281 14.270617 -1.133115
v -2.188391 13.814456 -0.803441
v -1.842315 14.433280 -0.329248
v -1.881737 14.621360 -0.464438
v -1.909720 14.765061 -0.569135
v -1.967497 15.044938 -0.770889
vt 0.735914 0.659422
vt 0.789193 0.659422
vt 0.789193 0.715185
vt 0.735914 0.715185
vt 0.816888 0.113382
vt 0.870167 0.107923
vt 0.870167 0.160781
vt 0.816888 0.166240
vt 0.816888 0.369404
vt 0.870167 0.363945
vt 0.870167 0.403590
vt 0.816888 0.409050
vt 0.731155 0.575499
vt 0.677876 0.575499
vt 0.677981 0.505501
vt 0.710850 0.505460
vt 0.731155 0.505418
vt 0.616009 0.468244
vt 0.549850 0.459605
vt 0.494086 0.427645
vt 0.470627 0.374786
vt 0.480954 0.323250
vt 0.511328 0.266468
vt 0.503868 0.207431
vt 0.504109 0.171623
vt 0.530354 0.131977
vt 0.600435 0.107922
vt 0.616009 0.110536
vt 0.634472 0.135319
vt 0.661960 0.160441
vt 0.702327 0.153537
vt 0.735762 0.160278
vt 0.737994 0.194699
vt 0.725284 0.233919
vt 0.720689 0.266468
vt 0.751063 0.323250
vt 0.761390 0.374786
vt 0.737931 0.427645
vt 0.682167 0.459605
vt 0.789193 0.593263
vt 0.735914 0.593263
vt 0.710560 0.489845
vt 0.731155 0.489845
vt 0.808348 0.107923
vt 0.809532 0.357831
vt 0.776995 0.357831
vt 0.775479 0.112321
vt 0.772042 0.359625
vt 0.771570 0.373161
vt 0.810410 0.373121
vt 0.810927 0.360098
vt 0.810927 0.360098
vt 0.772042 0.359625
vt 0.810410 0.373121
vt 0.243136 0.716617
vt 0.243355 0.466708
vt 0.259011 0.466708
vt 0.277557 0.439312
vt 0.274887 0.716617
vt 0.522564 0.515171
vt 0.522564 0.471340
vt 0.532696 0.471340
vt 0.532696 0.515171
vt 0.486970 0.487353
vt 0.486778 0.503228
vt 0.476773 0.503365
vt 0.476773 0.471340
vt 0.486778 0.471477
vt 0.867866 0.659325
vt 0.852251 0.657656
vt 0.851991 0.412147
vt 0.867866 0.412147
vt 0.883742 0.412147
vt 0.886370 0.685053
vt 0.472013 0.506882
vt 0.460953 0.506893
vt 0.460953 0.492905
vt 0.472013 0.492612
vt 0.397163 0.827232
vt 0.396938 0.813240
vt 0.407799 0.813249
vt 0.407740 0.827494
vt 0.343983 0.827371
vt 0.331817 0.826964
vt 0.331817 0.813240
vt 0.343983 0.813366
vt 0.440374 0.506882
vt 0.428846 0.506882
vt 0.428846 0.492612
vt 0.440374 0.492612
vt 0.124689 0.828503
vt 0.124689 0.840031
vt 0.113630 0.840031
vt 0.113630 0.828503
vt 0.244980 0.827228
vt 0.233453 0.827228
vt 0.233453 0.813240
vt 0.244980 0.813240
vt 0.141473 0.828503
vt 0.141473 0.840031
vt 0.130413 0.840031
vt 0.130413 0.828503
vt 0.157623 0.828503
vt 0.157623 0.840031
vt 0.147046 0.840031
vt 0.147046 0.828503
vt 0.376558 0.827485
vt 0.365031 0.827485
vt 0.365031 0.813240
vt 0.376558 0.813240
vt 0.174539 0.828503
vt 0.174539 0.840031
vt 0.163679 0.840031
vt 0.163679 0.828503
vt 0.277555 0.827232
vt 0.266028 0.827232
vt 0.266028 0.813240
vt 0.277555 0.813240
vt 0.310130 0.827245
vt 0.298602 0.827245
vt 0.298602 0.813240
vt 0.310130 0.813240
vt 0.179831 0.825407
vt 0.168303 0.825407
vt 0.168303 0.813240
vt 0.179831 0.813240
vt 0.212405 0.826964
vt 0.200878 0.826964
vt 0.200878 0.813240
vt 0.212405 0.813240
vt 0.163543 0.825406
vt 0.152016 0.825406
vt 0.152016 0.813240
vt 0.163543 0.813240
vt 0.259011 0.107923
vt 0.325170 0.115259
vt 0.380934 0.147220
vt 0.404393 0.200078
vt 0.394066 0.251614
vt 0.363692 0.308396
vt 0.370063 0.345209
vt 0.380997 0.380166
vt 0.373705 0.415909
vt 0.345330 0.421327
vt 0.304962 0.414424
vt 0.173357 0.442887
vt 0.147112 0.403242
vt 0.146870 0.367433
vt 0.154331 0.308396
vt 0.123957 0.251614
vt 0.113630 0.200078
vt 0.137089 0.147220
vt 0.192853 0.115259
vt 0.735914 0.527104
vt 0.735914 0.471340
vt 0.789193 0.471340
vt 0.789193 0.527104
vt 0.847231 0.445787
vt 0.847231 0.498646
vt 0.793953 0.493186
vt 0.793953 0.440328
vt 0.621567 0.504775
vt 0.621567 0.545143
vt 0.568289 0.545143
vt 0.568289 0.504775
vt 0.465791 0.113382
vt 0.465791 0.138503
vt 0.445487 0.137209
vt 0.412617 0.132810
vt 0.412513 0.107923
vt 0.731155 0.471382
vt 0.710850 0.471340
vt 0.443970 0.410115
vt 0.411433 0.410115
vt 0.810927 0.360098
vt 0.772042 0.359625
vt 0.771570 0.373161
vt 0.810410 0.373121
vt 0.456193 0.492623
vt 0.456193 0.506893
vt 0.445134 0.506601
vt 0.445134 0.492612
vt 0.381543 0.813502
vt 0.392120 0.813240
vt 0.392178 0.827485
vt 0.381318 0.827493
vt 0.327057 0.813240
vt 0.327057 0.827245
vt 0.314890 0.827371
vt 0.314890 0.813647
vt 0.412559 0.506882
vt 0.412559 0.492612
vt 0.424086 0.492612
vt 0.424086 0.506882
vt 0.191371 0.841588
vt 0.180311 0.841588
vt 0.180311 0.830061
vt 0.191371 0.830061
vt 0.217165 0.827228
vt 0.217165 0.813240
vt 0.228693 0.813240
vt 0.228693 0.827228
vt 0.208004 0.841588
vt 0.196944 0.841588
vt 0.196944 0.830061
vt 0.208004 0.830061
vt 0.224154 0.841852
vt 0.213577 0.841852
vt 0.213577 0.830325
vt 0.224154 0.830325
vt 0.348743 0.827485
vt 0.348743 0.813240
vt 0.360271 0.813240
vt 0.360271 0.827485
vt 0.241070 0.841852
vt 0.230209 0.841852
vt 0.230209 0.830325
vt 0.241070 0.830325
vt 0.249740 0.827232
vt 0.249740 0.813240
vt 0.261268 0.813240
vt 0.261268 0.827232
vt 0.282315 0.827245
vt 0.282315 0.813240
vt 0.293842 0.813240
vt 0.293842 0.827245
vt 0.135728 0.825407
vt 0.135728 0.813240
vt 0.147256 0.813240
vt 0.147256 0.825407
vt 0.184591 0.826964
vt 0.184591 0.813240
vt 0.196118 0.813240
vt 0.196118 0.826964
vt 0.119441 0.825406
vt 0.119441 0.813240
vt 0.130968 0.813240
vt 0.130968 0.825406
vt 0.810927 0.360098
vt 0.772042 0.359625
vt 0.771570 0.373161
vt 0.810927 0.360098
vt 0.810410 0.373121
vt 0.771570 0.373161
vt 0.772042 0.359625
vt 0.771570 0.373161
vt 0.810410 0.373121
vt 0.810927 0.360098
vt 0.772042 0.359625
vt 0.771570 0.373161
vt 0.772042 0.359625
vt 0.810927 0.360098
vt 0.810410 0.373121
vt 0.810410 0.373121
vt 0.810927 0.360098
vt 0.772042 0.359625
vt 0.771570 0.373161
vt 0.810927 0.360098
vt 0.810410 0.373121
vt 0.771570 0.373161
vt 0.772042 0.359625
vt 0.810410 0.373121
vt 0.810927 0.360098
vt 0.772042 0.359625
vt 0.771570 0.373161
vt 0.772042 0.359625
vt 0.771570 0.373161
vt 0.810410 0.373121
vt 0.870167 0.212317
vt 0.816888 0.217777
vt 0.870167 0.269099
vt 0.816888 0.274559
vt 0.870167 0.328136
vt 0.816888 0.333596
vt 0.810821 0.366019
vt 0.766990 0.366019
vt 0.766990 0.357731
vt 0.771570 0.373161
vt 0.810410 0.373121
vt 0.549018 0.471340
vt 0.563529 0.471340
vt 0.563529 0.515171
vt 0.549018 0.515171
vt 0.537455 0.471340
vt 0.544258 0.471340
vt 0.544258 0.515171
vt 0.537455 0.515171
vt 0.235617 0.724805
vt 0.282406 0.724805
vt 0.235617 0.796017
vt 0.235617 0.778214
vt 0.235617 0.760411
vt 0.235617 0.751510
vt 0.235617 0.742608
vt 0.282406 0.742608
vt 0.282406 0.760411
vt 0.282406 0.769313
vt 0.282406 0.778214
vt 0.282406 0.796017
vt 0.250127 0.803340
vt 0.267896 0.803340
vt 0.253946 0.810143
vt 0.264077 0.810143
vt 0.640837 0.478143
vt 0.644656 0.471340
vt 0.654787 0.471340
vt 0.658606 0.478143
vt 0.626327 0.485467
vt 0.673117 0.485467
vt 0.626327 0.556679
vt 0.626327 0.538876
vt 0.626327 0.521073
vt 0.626327 0.512172
vt 0.626327 0.503270
vt 0.673117 0.503270
vt 0.673117 0.512172
vt 0.673117 0.521073
vt 0.673117 0.538876
vt 0.673117 0.556679
vt 0.633709 0.564967
vt 0.665734 0.564967
vt 0.847231 0.550182
vt 0.793953 0.544723
vt 0.847231 0.606964
vt 0.793953 0.601505
vt 0.847231 0.639513
vt 0.793953 0.638317
vt 0.847231 0.678733
vt 0.847231 0.713154
vt 0.793953 0.709017
vt 0.793953 0.673274
vt 0.453975 0.410015
vt 0.453975 0.418303
vt 0.410144 0.418303
vt 0.772042 0.359625
vt 0.771570 0.373161
vt 0.772042 0.359625
vt 0.771570 0.373161
vt 0.810410 0.373121
vt 0.810927 0.360098
vt 0.517804 0.471340
vt 0.517804 0.515171
vt 0.503293 0.515171
vt 0.503293 0.471340
vt 0.491730 0.515171
vt 0.491730 0.471340
vt 0.498533 0.471340
vt 0.498533 0.515171
vt 0.568289 0.476400
vt 0.621567 0.471340
vt 0.771570 0.373161
vt 0.810410 0.373121
vt 0.810927 0.360098
vt 0.810410 0.373121
vt 0.771570 0.373161
vt 0.772042 0.359625
vt 0.772042 0.359625
vt 0.810927 0.360098
vt 0.810410 0.373121
vt 0.772042 0.359625
vt 0.810927 0.360098
vt 0.771570 0.373161
vt 0.810410 0.373121
vt 0.772042 0.359625
vt 0.810927 0.360098
vt 0.771570 0.373161
vt 0.772042 0.359625
vt 0.810927 0.360098
vt 0.772042 0.359625
vt 0.771570 0.373161
vt 0.810927 0.360098
vt 0.772042 0.359625
vt 0.810927 0.360098
vt 0.810410 0.373121
vt 0.771570 0.373161
vt 0.810927 0.360098
vt 0.772042 0.359625
vt 0.810927 0.360098
vt 0.810410 0.373121
vt 0.771570 0.373161
vt 0.810410 0.373121
vt 0.810927 0.360098
vt 0.772042 0.359625
vt 0.771570 0.373161
vt 0.810410 0.373121
vn -0.4406 0.4158 -0.7956
vn -0.5102 -0.2014 -0.8361
vn -0.2310 -0.9337 -0.2735
vn 0.0949 -0.9565 0.2758
vn -0.8799 0.1457 0.4522
vn -0.2941 0.7345 -0.6116
vn 0.2581 -0.7188 0.6456
vn -0.4466 -0.5813 -0.6802
vn 0.4458 0.5822 0.6799
vn 0.4058 0.5870 0.7005
vn 0.5513 0.6212 0.5570
vn 0.3098 0.6634 0.6811
vn 0.8783 -0.1432 -0.4561
vn 0.1642 -0.7999 0.5773
vn -0.1554 0.7984 -0.5817
vn -0.8781 0.1423 0.4569
vn -0.4458 -0.5822 -0.6799
vn 0.1641 -0.7999 0.5773
vn 0.8753 -0.1246 -0.4672
vn -0.1641 0.7999 -0.5773
vn -0.8798 0.1449 0.4527
vn -0.8837 0.1655 0.4377
vn 0.1605 -0.7993 0.5791
vn 0.8801 -0.1464 -0.4517
vn -0.1783 0.8021 -0.5699
vn 0.8816 -0.1541 -0.4461
vn -0.1642 0.7999 -0.5773
vn -0.8849 0.1724 0.4326
vn 0.8800 -0.1458 -0.4521
vn 0.0010 0.9925 -0.1220
vn 0.3040 0.8619 0.4058
vn 0.1747 -0.8967 0.4067
vn 0.4892 -0.2014 0.8486
vn -0.1876 0.8735 -0.4493
vn 0.4768 -0.0058 0.8790
vn 0.4474 0.5745 0.6855
vn 0.8816 -0.1540 -0.4461
vn 0.4378 0.6178 0.6532
vn 0.4062 0.5856 0.7015
vn -0.5660 -0.4903 -0.6628
vn -0.3325 -0.5294 -0.7805
vn -0.4654 -0.4540 -0.7598
vn -0.3871 -0.7308 -0.5623
vn -0.3311 -0.8261 -0.4560
vn -0.3241 -0.8359 -0.4429
vn -0.2728 -0.8966 -0.3487
vn -0.4741 -0.4754 -0.7411
vn -0.4647 -0.5152 -0.7201
vn -0.4629 -0.5222 -0.7163
vn -0.4441 -0.5877 -0.6763
vn -0.4380 0.1102 -0.8922
vn -0.5464 -0.2161 -0.8092
vn -0.4677 -0.4248 -0.7751
vn 0.4122 0.7069 0.5748
vn -0.1873 -0.9430 0.2751
vn -0.1421 -0.9890 0.0421
vn 0.0871 -0.9871 0.1340
vn -0.3084 -0.8992 -0.3104
vn 0.8790 -0.1391 -0.4561
vn 0.8437 -0.0196 -0.5364
vn 0.8790 -0.1393 -0.4561
vn 0.8802 -0.1454 -0.4518
vn 0.8804 -0.1451 -0.4515
vn 0.8870 -0.1813 -0.4248
vn 0.8869 -0.1809 -0.4251
vn 0.8869 -0.1812 -0.4249
vn 0.8799 -0.1457 -0.4522
vn 0.8803 -0.1452 -0.4516
vn -0.8800 0.1457 0.4521
vn 0.4870 0.4106 0.7708
vn 0.5072 0.2496 0.8249
vn 0.5057 0.2668 0.8204
vn 0.5125 0.1289 0.8490
vn 0.3915 0.7035 0.5931
vn 0.3674 0.7580 0.5390
vn 0.3678 0.7571 0.5399
vn 0.4422 0.6447 0.6235
vn 0.5257 -0.0958 0.8453
vn 0.5249 -0.1018 0.8451
vn 0.4311 0.6666 0.6082
vn 0.2198 0.9692 0.1110
vn 0.4100 0.7168 0.5640
vn 0.2723 0.8550 0.4413
vn 0.4379 0.6177 0.6532
vn 0.4062 0.5855 0.7015
vn 0.2040 -0.4231 0.8828
vn 0.4887 -0.4697 0.7352
vn 0.4022 -0.2781 0.8723
vn 0.4023 -0.2781 0.8722
vn 0.4691 0.1162 0.8755
vn 0.3314 -0.6835 0.6505
vn 0.4384 0.6176 0.6529
vn -0.4665 -0.4468 -0.7634
usemtl initialShadingGroup.004
s off
f 1/1/1 2/2/1 3/3/1 4/4/1
f 4/5/2 3/6/2 5/7/2 6/8/2
f 7/9/3 8/10/3 9/11/3 10/12/3
f 10/13/4 9/14/4 11/15/4 12/16/4 13/17/4
f 14/18/5 1/19/5 4/20/5 6/21/5 15/22/5 16/23/5 17/24/5 7/25/5 10/26/5 13/27/5 18/28/5 19/29/5 20/30/5 21/31/5 22/32/5 23/33/5 24/34/5 25/35/5 26/36/5 27/37/5 28/38/5 29/39/5
f 30/40/6 2/2/6 1/1/6 14/41/6
f 13/17/7 12/16/7 31/42/7 18/43/7
f 11/44/8 32/45/8 33/46/8 12/47/8
f 34/48/9 35/49/9 36/50/10 37/51/9
f 38/52/9 39/53/11 35/49/12 34/54/9
f 32/55/13 11/56/13 40/57/13 41/58/13 42/59/13
f 43/60/14 44/61/14 45/62/14 46/63/14
f 47/64/15 33/65/15 48/66/15 49/67/15 50/68/15
f 31/69/16 12/70/16 33/71/16 47/72/16 50/73/16 51/74/16
f 52/75/17 53/76/17 54/77/17 55/78/17
f 56/79/17 57/80/17 58/81/17 59/82/17
f 60/83/17 61/84/17 62/85/17 63/86/17
f 64/87/18 52/88/18 55/89/18 65/90/18
f 65/91/19 55/92/19 54/93/19 66/94/19
f 66/95/20 54/96/20 53/97/20 67/98/20
f 67/99/21 53/100/21 52/101/21 64/102/21
f 68/103/22 56/104/22 59/105/22 69/106/22
f 69/107/23 59/108/23 58/109/23 70/110/23
f 70/111/24 58/112/24 57/113/24 71/114/24
f 71/115/25 57/116/25 56/117/25 68/118/25
f 72/119/18 60/120/18 63/121/18 73/122/18
f 73/123/26 63/124/26 62/125/26 74/126/26
f 74/127/27 62/128/27 61/129/27 75/130/27
f 75/131/28 61/132/28 60/133/28 72/134/28
f 30/135/29 76/136/29 77/137/29 78/138/29 79/139/29 80/140/29 81/141/29 82/142/29 83/143/29 84/144/29 85/145/29 41/58/29 40/57/29 11/56/29 9/146/29 8/147/29 86/148/29 87/149/29 88/150/29 5/151/29 3/152/29 2/153/29
f 29/154/30 28/155/30 77/156/30 76/157/30
f 28/158/31 27/159/31 78/160/31 77/161/31
f 21/162/32 20/163/32 85/164/32 84/165/32
f 20/166/33 19/167/33 51/168/33 41/169/33 85/170/33
f 30/40/34 14/41/34 29/154/34 76/157/34
f 19/171/35 18/43/35 31/42/35 51/172/35
f 41/169/36 51/168/36 50/173/36 42/174/36
f 89/175/9 90/176/9 37/177/9 91/178/9
f 92/179/9 93/180/9 94/181/9 95/182/9
f 96/183/9 97/184/9 98/185/9 99/186/9
f 100/187/9 101/188/9 102/189/9 103/190/9
f 38/191/14 34/192/14 93/193/14 92/194/14
f 34/195/19 37/196/19 94/197/19 93/198/19
f 37/199/20 90/200/20 95/201/20 94/202/20
f 90/203/21 38/204/21 92/205/21 95/206/21
f 104/207/22 105/208/22 97/209/22 96/210/22
f 105/211/23 106/212/23 98/213/23 97/214/23
f 106/215/24 107/216/24 99/217/24 98/218/24
f 107/219/25 104/220/25 96/221/25 99/222/25
f 89/223/14 91/224/14 101/225/14 100/226/14
f 91/227/37 108/228/37 102/229/37 101/230/37
f 108/231/20 109/232/20 103/233/20 102/234/20
f 109/235/28 89/236/28 100/237/28 103/238/28
f 91/178/9 110/239/38 111/240/39 108/241/9
f 106/242/9 105/243/9 109/244/9 108/245/9
f 73/246/17 74/247/17 112/248/17 113/249/17
f 64/250/17 65/251/17 114/252/40 115/253/41
f 65/254/17 66/255/17 116/256/17 114/257/42
f 72/258/17 73/259/17 66/260/17 67/261/17
f 70/262/17 74/263/17 75/264/17 69/265/17
f 72/258/17 117/266/17 118/267/17 75/268/17
s 1
f 6/8/43 5/7/43 88/269/44 15/270/45
f 15/270/45 88/269/44 87/271/46 16/272/46
f 16/272/47 87/271/47 86/273/48 17/274/49
f 17/274/49 86/273/48 8/10/50 7/9/50
f 32/45/51 119/275/52 120/276/53 48/277/51 33/46/51
f 121/278/9 39/53/54 38/52/9 90/279/9
f 114/280/55 122/281/56 123/282/56 115/283/57
f 122/284/56 44/285/58 43/286/58 123/287/56
f 119/288/59 32/55/60 42/59/60 124/289/61
f 114/290/62 116/291/63 113/292/63 112/293/63 125/294/63 119/288/59 124/289/61 126/295/64 111/296/65 110/297/66 36/298/66 35/299/62
f 122/300/67 114/290/68 35/299/68 127/301/67
f 44/302/67 122/300/67 127/301/67 45/303/67
f 123/304/5 43/305/5 46/306/5 128/307/5
f 115/308/69 123/304/5 128/307/5 39/309/69
f 120/310/69 129/311/69 118/312/69 117/313/69 130/314/69 115/308/69 39/309/69 121/315/69 131/316/69 132/317/69 133/318/69 134/319/69
f 48/320/5 120/310/69 134/319/69 49/321/5
f 27/159/70 26/322/71 79/323/72 78/160/70
f 26/322/71 25/324/73 80/325/73 79/323/72
f 25/324/74 24/326/75 81/327/76 80/325/74
f 23/328/77 22/329/78 83/330/79 82/331/80
f 42/174/81 50/173/81 49/332/81 134/333/82 124/334/83
f 36/335/84 110/336/85 91/178/9 37/51/9
f 121/337/9 90/338/9 89/339/9 131/340/9
f 35/341/86 39/342/87 128/343/88 127/344/89
f 127/345/89 128/346/88 46/347/90 45/348/90
f 83/349/79 22/350/78 21/162/91 84/165/91
f 81/327/76 24/326/75 23/328/77 82/331/80
f 111/351/92 126/352/84 106/242/9 108/245/9
f 126/353/84 124/354/83 107/355/9 106/356/9
f 124/357/83 134/358/82 104/359/9 107/355/9
f 132/360/9 109/361/9 105/243/9 133/362/9
f 132/363/9 131/340/9 89/364/9 109/244/9
f 133/365/9 105/243/9 104/366/9 134/367/82
f 73/259/17 113/368/17 116/256/17 66/260/17
f 112/369/17 74/370/17 70/262/17 125/371/17
f 125/372/17 70/373/17 71/374/17 119/375/52
f 119/375/52 71/374/17 68/376/17 120/377/53
f 69/378/17 75/264/17 118/267/17 129/379/17
f 130/380/17 117/266/17 72/258/17 67/381/17
f 115/253/93 130/382/17 67/261/17 64/250/17
f 129/383/17 120/384/53 68/385/17 69/378/17
