# Blender v2.79 (sub 6) OBJ File: 'bailarinaacortados.blend1'
# www.blender.org
mtllib guitarra3_000187.mtl
o Guitarra_2:pPlane4
v -10.069662 20.355627 -0.493847
v -9.678850 20.638590 -1.321507
v -10.216447 19.748587 -1.812171
v -10.607260 19.465624 -0.984513
v -10.142496 18.736252 -2.011783
v -10.533310 18.453291 -1.184123
v -8.517378 15.388770 -0.851102
v -8.126565 15.671732 -1.678763
v -7.457120 15.205459 -1.438387
v -7.847933 14.922499 -0.610727
v -6.296268 15.287364 -0.809809
v -6.528953 15.096393 -0.298647
v -6.683301 15.001559 0.017002
v -9.208897 20.937632 0.093340
v -9.996247 17.688177 -1.083326
v -9.138497 16.972136 -0.803256
v -8.793430 15.966729 -0.859439
v -6.485091 15.147946 0.155127
v -6.415233 15.672480 0.315130
v -6.221556 16.262800 0.555380
v -5.603645 16.420877 0.915764
v -5.186721 16.753439 1.212103
v -5.417562 17.325480 1.226019
v -5.894214 17.875334 1.106150
v -6.206411 18.371443 1.059643
v -6.213408 19.493494 1.320098
v -6.461200 20.396662 1.403090
v -7.192242 21.095406 1.185218
v -8.216574 21.239994 0.683512
v -8.808168 21.199514 -0.734094
v -6.320615 15.228831 -0.164505
v -4.386776 11.245335 -0.786967
v -4.650837 11.126493 -0.282086
v -3.405925 10.325195 -0.227401
v -3.221739 10.227378 -0.443822
v -3.379910 10.562801 -0.446821
v -3.492509 10.503133 -0.224779
v -3.521731 10.273077 -0.005980
v -3.577451 10.067286 0.236299
v -6.077004 15.392006 -0.670499
v -6.025890 15.959386 -0.510214
v -3.942107 11.457549 -0.504447
v -3.868475 9.648427 -0.014503
v -3.512763 9.808517 -0.694625
v -3.370869 9.876234 -0.604474
v -3.726582 9.716144 0.075648
v -4.426937 11.233304 -0.143819
v -4.734708 11.090656 -0.128079
v -4.286207 11.304698 0.156876
v -4.206167 11.338706 0.000434
v -6.259731 15.767861 0.000214
v -4.338456 9.883304 -0.524885
v -4.422760 10.062270 -0.526625
v -4.309234 10.113361 -0.743684
v -4.222649 9.935424 -0.746305
v -4.733927 10.729634 -0.538153
v -4.622088 10.784379 -0.755302
v -4.539463 10.608565 -0.753288
v -4.655514 10.557487 -0.532262
v -4.493915 10.212577 -0.527533
v -4.583254 10.410985 -0.535951
v -4.471872 10.461111 -0.748912
v -4.380257 10.263728 -0.744846
v -4.177015 9.960351 -0.422313
v -4.061208 10.012469 -0.643735
v -4.147793 10.190407 -0.641113
v -4.261319 10.139317 -0.424053
v -4.572487 10.806681 -0.435582
v -4.494074 10.634533 -0.429691
v -4.378023 10.685612 -0.650717
v -4.460647 10.861423 -0.652731
v -4.332474 10.289622 -0.424962
v -4.218816 10.340774 -0.642273
v -4.310431 10.538157 -0.646340
v -4.421813 10.488029 -0.433379
v -7.825761 21.522955 -0.144147
v -6.801428 21.378363 0.357559
v -6.070388 20.679619 0.575430
v -5.822594 19.776453 0.492437
v -5.815597 18.654402 0.231983
v -5.446064 18.101151 0.295026
v -5.026749 17.608442 0.398359
v -4.856701 16.981182 0.339648
v -5.212831 16.703838 0.088105
v -5.830742 16.545759 -0.272280
v -8.402617 16.249691 -1.687100
v -8.747684 17.255096 -1.630917
v -9.605433 17.971136 -1.910988
v -3.677190 10.602350 -0.008628
v -3.606035 10.452042 -0.007720
v -3.563532 10.653501 -0.225941
v -3.360291 10.350123 0.096592
v -3.244484 10.402243 -0.124829
v -3.331068 10.580179 -0.122208
v -3.444594 10.529088 0.094851
v -3.755762 11.196453 0.083323
v -3.677349 11.024304 0.089214
v -3.561298 11.075383 -0.131811
v -3.643922 11.251196 -0.133825
v -3.515749 10.679395 0.093943
v -3.402092 10.730547 -0.123369
v -3.493707 10.927930 -0.127435
v -3.605089 10.877803 0.085526
v -3.917203 11.119408 -0.019248
v -3.838790 10.947259 -0.013357
v -3.722739 10.998337 -0.234383
v -3.805363 11.174150 -0.236396
v -3.655148 10.850883 -0.230007
v -3.766530 10.800756 -0.017046
v -3.455393 10.722980 -0.448333
v -3.547844 10.918637 -0.449787
v -4.196247 10.593871 -0.867909
v -4.102093 10.394653 -0.866461
v -3.877023 9.914651 -0.860155
v -4.232735 9.754560 -0.180036
v -4.012587 10.202803 -0.863230
v -4.458352 10.233356 -0.184572
v -4.549798 10.426913 -0.186032
v -4.419275 11.067257 -0.872457
v -4.774988 10.907166 -0.192337
v -3.729740 10.390410 0.233279
v -3.618042 9.893103 -0.729777
v -3.973755 9.733014 -0.049658
v -3.763992 11.379983 -0.456122
v -4.269625 10.749649 -0.869429
v -3.615308 11.064398 -0.453092
v -3.369193 10.011863 -0.571671
v -3.724906 9.851774 0.108448
v -4.622035 10.582653 -0.189319
v -4.379598 10.066339 -0.183074
v -3.794347 10.527848 0.231732
v -3.894803 10.740242 0.230302
v -3.970611 10.903450 0.227026
v -4.119705 11.219893 0.223997
vt 0.735914 0.659422
vt 0.789193 0.659422
vt 0.789193 0.715185
vt 0.735914 0.715185
vt 0.816888 0.113382
vt 0.870167 0.107923
vt 0.870167 0.160781
vt 0.816888 0.166240
vt 0.816888 0.369404
vt 0.870167 0.363945
vt 0.870167 0.403590
vt 0.816888 0.409050
vt 0.731155 0.575499
vt 0.677876 0.575499
vt 0.677981 0.505501
vt 0.710850 0.505460
vt 0.731155 0.505418
vt 0.616009 0.468244
vt 0.549850 0.459605
vt 0.494086 0.427645
vt 0.470627 0.374786
vt 0.480954 0.323250
vt 0.511328 0.266468
vt 0.503868 0.207431
vt 0.504109 0.171623
vt 0.530354 0.131977
vt 0.600435 0.107922
vt 0.616009 0.110536
vt 0.634472 0.135319
vt 0.661960 0.160441
vt 0.702327 0.153537
vt 0.735762 0.160278
vt 0.737994 0.194699
vt 0.725284 0.233919
vt 0.720689 0.266468
vt 0.751063 0.323250
vt 0.761390 0.374786
vt 0.737931 0.427645
vt 0.682167 0.459605
vt 0.789193 0.593263
vt 0.735914 0.593263
vt 0.710560 0.489845
vt 0.731155 0.489845
vt 0.808348 0.107923
vt 0.809532 0.357831
vt 0.776995 0.357831
vt 0.775479 0.112321
vt 0.772042 0.359625
vt 0.771570 0.373161
vt 0.810410 0.373121
vt 0.810927 0.360098
vt 0.810927 0.360098
vt 0.772042 0.359625
vt 0.810410 0.373121
vt 0.243136 0.716617
vt 0.243355 0.466708
vt 0.259011 0.466708
vt 0.277557 0.439312
vt 0.274887 0.716617
vt 0.522564 0.515171
vt 0.522564 0.471340
vt 0.532696 0.471340
vt 0.532696 0.515171
vt 0.486970 0.487353
vt 0.486778 0.503228
vt 0.476773 0.503365
vt 0.476773 0.471340
vt 0.486778 0.471477
vt 0.867866 0.659325
vt 0.852251 0.657656
vt 0.851991 0.412147
vt 0.867866 0.412147
vt 0.883742 0.412147
vt 0.886370 0.685053
vt 0.472013 0.506882
vt 0.460953 0.506893
vt 0.460953 0.492905
vt 0.472013 0.492612
vt 0.397163 0.827232
vt 0.396938 0.813240
vt 0.407799 0.813249
vt 0.407740 0.827494
vt 0.343983 0.827371
vt 0.331817 0.826964
vt 0.331817 0.813240
vt 0.343983 0.813366
vt 0.440374 0.506882
vt 0.428846 0.506882
vt 0.428846 0.492612
vt 0.440374 0.492612
vt 0.124689 0.828503
vt 0.124689 0.840031
vt 0.113630 0.840031
vt 0.113630 0.828503
vt 0.244980 0.827228
vt 0.233453 0.827228
vt 0.233453 0.813240
vt 0.244980 0.813240
vt 0.141473 0.828503
vt 0.141473 0.840031
vt 0.130413 0.840031
vt 0.130413 0.828503
vt 0.157623 0.828503
vt 0.157623 0.840031
vt 0.147046 0.840031
vt 0.147046 0.828503
vt 0.376558 0.827485
vt 0.365031 0.827485
vt 0.365031 0.813240
vt 0.376558 0.813240
vt 0.174539 0.828503
vt 0.174539 0.840031
vt 0.163679 0.840031
vt 0.163679 0.828503
vt 0.277555 0.827232
vt 0.266028 0.827232
vt 0.266028 0.813240
vt 0.277555 0.813240
vt 0.310130 0.827245
vt 0.298602 0.827245
vt 0.298602 0.813240
vt 0.310130 0.813240
vt 0.179831 0.825407
vt 0.168303 0.825407
vt 0.168303 0.813240
vt 0.179831 0.813240
vt 0.212405 0.826964
vt 0.200878 0.826964
vt 0.200878 0.813240
vt 0.212405 0.813240
vt 0.163543 0.825406
vt 0.152016 0.825406
vt 0.152016 0.813240
vt 0.163543 0.813240
vt 0.259011 0.107923
vt 0.325170 0.115259
vt 0.380934 0.147220
vt 0.404393 0.200078
vt 0.394066 0.251614
vt 0.363692 0.308396
vt 0.370063 0.345209
vt 0.380997 0.380166
vt 0.373705 0.415909
vt 0.345330 0.421327
vt 0.304962 0.414424
vt 0.173357 0.442887
vt 0.147112 0.403242
vt 0.146870 0.367433
vt 0.154331 0.308396
vt 0.123957 0.251614
vt 0.113630 0.200078
vt 0.137089 0.147220
vt 0.192853 0.115259
vt 0.735914 0.527104
vt 0.735914 0.471340
vt 0.789193 0.471340
vt 0.789193 0.527104
vt 0.847231 0.445787
vt 0.847231 0.498646
vt 0.793953 0.493186
vt 0.793953 0.440328
vt 0.621567 0.504775
vt 0.621567 0.545143
vt 0.568289 0.545143
vt 0.568289 0.504775
vt 0.465791 0.113382
vt 0.465791 0.138503
vt 0.445487 0.137209
vt 0.412617 0.132810
vt 0.412513 0.107923
vt 0.731155 0.471382
vt 0.710850 0.471340
vt 0.443970 0.410115
vt 0.411433 0.410115
vt 0.810927 0.360098
vt 0.772042 0.359625
vt 0.771570 0.373161
vt 0.810410 0.373121
vt 0.456193 0.492623
vt 0.456193 0.506893
vt 0.445134 0.506601
vt 0.445134 0.492612
vt 0.381543 0.813502
vt 0.392120 0.813240
vt 0.392178 0.827485
vt 0.381318 0.827493
vt 0.327057 0.813240
vt 0.327057 0.827245
vt 0.314890 0.827371
vt 0.314890 0.813647
vt 0.412559 0.506882
vt 0.412559 0.492612
vt 0.424086 0.492612
vt 0.424086 0.506882
vt 0.191371 0.841588
vt 0.180311 0.841588
vt 0.180311 0.830061
vt 0.191371 0.830061
vt 0.217165 0.827228
vt 0.217165 0.813240
vt 0.228693 0.813240
vt 0.228693 0.827228
vt 0.208004 0.841588
vt 0.196944 0.841588
vt 0.196944 0.830061
vt 0.208004 0.830061
vt 0.224154 0.841852
vt 0.213577 0.841852
vt 0.213577 0.830325
vt 0.224154 0.830325
vt 0.348743 0.827485
vt 0.348743 0.813240
vt 0.360271 0.813240
vt 0.360271 0.827485
vt 0.241070 0.841852
vt 0.230209 0.841852
vt 0.230209 0.830325
vt 0.241070 0.830325
vt 0.249740 0.827232
vt 0.249740 0.813240
vt 0.261268 0.813240
vt 0.261268 0.827232
vt 0.282315 0.827245
vt 0.282315 0.813240
vt 0.293842 0.813240
vt 0.293842 0.827245
vt 0.135728 0.825407
vt 0.135728 0.813240
vt 0.147256 0.813240
vt 0.147256 0.825407
vt 0.184591 0.826964
vt 0.184591 0.813240
vt 0.196118 0.813240
vt 0.196118 0.826964
vt 0.119441 0.825406
vt 0.119441 0.813240
vt 0.130968 0.813240
vt 0.130968 0.825406
vt 0.810927 0.360098
vt 0.772042 0.359625
vt 0.771570 0.373161
vt 0.810927 0.360098
vt 0.810410 0.373121
vt 0.771570 0.373161
vt 0.772042 0.359625
vt 0.771570 0.373161
vt 0.810410 0.373121
vt 0.810927 0.360098
vt 0.772042 0.359625
vt 0.771570 0.373161
vt 0.772042 0.359625
vt 0.810927 0.360098
vt 0.810410 0.373121
vt 0.810410 0.373121
vt 0.810927 0.360098
vt 0.772042 0.359625
vt 0.771570 0.373161
vt 0.810927 0.360098
vt 0.810410 0.373121
vt 0.771570 0.373161
vt 0.772042 0.359625
vt 0.810410 0.373121
vt 0.810927 0.360098
vt 0.772042 0.359625
vt 0.771570 0.373161
vt 0.772042 0.359625
vt 0.771570 0.373161
vt 0.810410 0.373121
vt 0.870167 0.212317
vt 0.816888 0.217777
vt 0.870167 0.269099
vt 0.816888 0.274559
vt 0.870167 0.328136
vt 0.816888 0.333596
vt 0.810821 0.366019
vt 0.766990 0.366019
vt 0.766990 0.357731
vt 0.771570 0.373161
vt 0.810410 0.373121
vt 0.549018 0.471340
vt 0.563529 0.471340
vt 0.563529 0.515171
vt 0.549018 0.515171
vt 0.537455 0.471340
vt 0.544258 0.471340
vt 0.544258 0.515171
vt 0.537455 0.515171
vt 0.235617 0.724805
vt 0.282406 0.724805
vt 0.235617 0.796017
vt 0.235617 0.778214
vt 0.235617 0.760411
vt 0.235617 0.751510
vt 0.235617 0.742608
vt 0.282406 0.742608
vt 0.282406 0.760411
vt 0.282406 0.769313
vt 0.282406 0.778214
vt 0.282406 0.796017
vt 0.250127 0.803340
vt 0.267896 0.803340
vt 0.253946 0.810143
vt 0.264077 0.810143
vt 0.640837 0.478143
vt 0.644656 0.471340
vt 0.654787 0.471340
vt 0.658606 0.478143
vt 0.626327 0.485467
vt 0.673117 0.485467
vt 0.626327 0.556679
vt 0.626327 0.538876
vt 0.626327 0.521073
vt 0.626327 0.512172
vt 0.626327 0.503270
vt 0.673117 0.503270
vt 0.673117 0.512172
vt 0.673117 0.521073
vt 0.673117 0.538876
vt 0.673117 0.556679
vt 0.633709 0.564967
vt 0.665734 0.564967
vt 0.847231 0.550182
vt 0.793953 0.544723
vt 0.847231 0.606964
vt 0.793953 0.601505
vt 0.847231 0.639513
vt 0.793953 0.638317
vt 0.847231 0.678733
vt 0.847231 0.713154
vt 0.793953 0.709017
vt 0.793953 0.673274
vt 0.453975 0.410015
vt 0.453975 0.418303
vt 0.410144 0.418303
vt 0.772042 0.359625
vt 0.771570 0.373161
vt 0.772042 0.359625
vt 0.771570 0.373161
vt 0.810410 0.373121
vt 0.810927 0.360098
vt 0.517804 0.471340
vt 0.517804 0.515171
vt 0.503293 0.515171
vt 0.503293 0.471340
vt 0.491730 0.515171
vt 0.491730 0.471340
vt 0.498533 0.471340
vt 0.498533 0.515171
vt 0.568289 0.476400
vt 0.621567 0.471340
vt 0.771570 0.373161
vt 0.810410 0.373121
vt 0.810927 0.360098
vt 0.810410 0.373121
vt 0.771570 0.373161
vt 0.772042 0.359625
vt 0.772042 0.359625
vt 0.810927 0.360098
vt 0.810410 0.373121
vt 0.772042 0.359625
vt 0.810927 0.360098
vt 0.771570 0.373161
vt 0.810410 0.373121
vt 0.772042 0.359625
vt 0.810927 0.360098
vt 0.771570 0.373161
vt 0.772042 0.359625
vt 0.810927 0.360098
vt 0.772042 0.359625
vt 0.771570 0.373161
vt 0.810927 0.360098
vt 0.772042 0.359625
vt 0.810927 0.360098
vt 0.810410 0.373121
vt 0.771570 0.373161
vt 0.810927 0.360098
vt 0.772042 0.359625
vt 0.810927 0.360098
vt 0.810410 0.373121
vt 0.771570 0.373161
vt 0.810410 0.373121
vt 0.810927 0.360098
vt 0.772042 0.359625
vt 0.771570 0.373161
vt 0.810410 0.373121
vn -0.7958 0.5788 -0.1779
vn -0.9064 0.0170 -0.4222
vn -0.3916 -0.7982 -0.4578
vn 0.1886 -0.9526 -0.2388
vn -0.4537 -0.2042 0.8675
vn -0.5549 0.8319 0.0085
vn 0.5456 -0.8369 0.0423
vn -0.7836 -0.3729 -0.4968
vn 0.7829 0.3736 0.4974
vn 0.7622 0.3627 0.5361
vn 0.8007 0.4744 0.3659
vn 0.6763 0.4204 0.6049
vn 0.4502 0.2076 -0.8684
vn 0.4257 -0.9048 0.0097
vn -0.4212 0.9068 -0.0183
vn -0.4497 -0.2086 0.8685
vn -0.7829 -0.3736 -0.4974
vn 0.4423 0.2280 -0.8674
vn -0.4257 0.9048 -0.0097
vn -0.4533 -0.2051 0.8675
vn -0.4641 -0.1817 0.8669
vn 0.4238 -0.9057 0.0132
vn 0.4540 0.2034 -0.8674
vn -0.4329 0.9014 0.0043
vn 0.4581 0.1948 -0.8673
vn -0.4677 -0.1738 0.8666
vn 0.4538 0.2041 -0.8674
vn -0.0203 0.9489 0.3148
vn 0.5236 0.6995 0.4864
vn 0.3318 -0.9295 -0.1611
vn 0.8765 -0.3928 0.2783
vn -0.3679 0.9211 0.1272
vn 0.8934 -0.2280 0.3872
vn 0.7870 0.3649 0.4975
vn 0.7628 0.4141 0.4966
vn 0.7630 0.3612 0.5361
vn -0.8669 -0.3198 -0.3824
vn -0.7452 -0.2669 -0.6111
vn -0.8384 -0.2319 -0.4933
vn -0.6747 -0.5399 -0.5032
vn -0.5728 -0.6540 -0.4941
vn -0.5600 -0.6663 -0.4923
vn -0.4671 -0.7455 -0.4754
vn -0.8359 -0.2599 -0.4835
vn -0.8181 -0.3018 -0.4895
vn -0.8148 -0.3092 -0.4905
vn -0.7797 -0.3796 -0.4980
vn -0.8641 0.3356 -0.3752
vn -0.9212 -0.0132 -0.3888
vn -0.8476 -0.2001 -0.4914
vn 0.7013 0.5186 0.4891
vn -0.0420 -0.9958 -0.0814
vn -0.1408 -0.9447 -0.2960
vn -0.1408 -0.9448 -0.2960
vn 0.0995 -0.9309 -0.3514
vn -0.4744 -0.7687 -0.4290
vn 0.4509 0.2114 -0.8672
vn 0.3820 0.3424 -0.8584
vn 0.4510 0.2113 -0.8672
vn 0.4541 0.2044 -0.8672
vn 0.4545 0.2046 -0.8669
vn 0.4734 0.1632 -0.8656
vn 0.4731 0.1637 -0.8656
vn 0.4733 0.1634 -0.8656
vn 0.4537 0.2042 -0.8675
vn 0.4544 0.2045 -0.8670
vn -0.4537 -0.2042 0.8674
vn 0.8603 0.1926 0.4721
vn 0.8998 0.0304 0.4352
vn 0.8969 0.0474 0.4397
vn 0.9120 -0.0873 0.4008
vn 0.6947 0.5048 0.5124
vn 0.6466 0.5692 0.5078
vn 0.6475 0.5682 0.5079
vn 0.7507 0.4503 0.4834
vn 0.9096 -0.2882 0.2992
vn 0.9086 -0.2938 0.2970
vn 0.7339 0.4735 0.4870
vn 0.2911 0.8869 0.3588
vn 0.6939 0.5310 0.4864
vn 0.5177 0.6741 0.5269
vn 0.7629 0.4141 0.4965
vn 0.7631 0.3610 0.5360
vn 0.6519 -0.6637 0.3669
vn 0.7980 -0.5966 0.0854
vn 0.8151 -0.4885 0.3113
vn 0.8911 -0.1171 0.4385
vn 0.6101 -0.7920 0.0208
vn 0.7631 0.4143 0.4960
vn -0.8410 -0.2242 -0.4924
usemtl initialShadingGroup.004
s off
f 1/1/1 2/2/1 3/3/1 4/4/1
f 4/5/2 3/6/2 5/7/2 6/8/2
f 7/9/3 8/10/3 9/11/3 10/12/3
f 10/13/4 9/14/4 11/15/4 12/16/4 13/17/4
f 14/18/5 1/19/5 4/20/5 6/21/5 15/22/5 16/23/5 17/24/5 7/25/5 10/26/5 13/27/5 18/28/5 19/29/5 20/30/5 21/31/5 22/32/5 23/33/5 24/34/5 25/35/5 26/36/5 27/37/5 28/38/5 29/39/5
f 30/40/6 2/2/6 1/1/6 14/41/6
f 13/17/7 12/16/7 31/42/7 18/43/7
f 11/44/8 32/45/8 33/46/8 12/47/8
f 34/48/9 35/49/9 36/50/10 37/51/9
f 38/52/9 39/53/11 35/49/12 34/54/9
f 32/55/13 11/56/13 40/57/13 41/58/13 42/59/13
f 43/60/14 44/61/14 45/62/14 46/63/14
f 47/64/15 33/65/15 48/66/15 49/67/15 50/68/15
f 31/69/16 12/70/16 33/71/16 47/72/16 50/73/16 51/74/16
f 52/75/17 53/76/17 54/77/17 55/78/17
f 56/79/17 57/80/17 58/81/17 59/82/17
f 60/83/17 61/84/17 62/85/17 63/86/17
f 64/87/14 52/88/14 55/89/14 65/90/14
f 65/91/18 55/92/18 54/93/18 66/94/18
f 66/95/19 54/96/19 53/97/19 67/98/19
f 67/99/20 53/100/20 52/101/20 64/102/20
f 68/103/21 56/104/21 59/105/21 69/106/21
f 69/107/22 59/108/22 58/109/22 70/110/22
f 70/111/23 58/112/23 57/113/23 71/114/23
f 71/115/24 57/116/24 56/117/24 68/118/24
f 72/119/14 60/120/14 63/121/14 73/122/14
f 73/123/25 63/124/25 62/125/25 74/126/25
f 74/127/19 62/128/19 61/129/19 75/130/19
f 75/131/26 61/132/26 60/133/26 72/134/26
f 30/135/27 76/136/27 77/137/27 78/138/27 79/139/27 80/140/27 81/141/27 82/142/27 83/143/27 84/144/27 85/145/27 41/58/27 40/57/27 11/56/27 9/146/27 8/147/27 86/148/27 87/149/27 88/150/27 5/151/27 3/152/27 2/153/27
f 29/154/28 28/155/28 77/156/28 76/157/28
f 28/158/29 27/159/29 78/160/29 77/161/29
f 21/162/30 20/163/30 85/164/30 84/165/30
f 20/166/31 19/167/31 51/168/31 41/169/31 85/170/31
f 30/40/32 14/41/32 29/154/32 76/157/32
f 19/171/33 18/43/33 31/42/33 51/172/33
f 41/169/34 51/168/34 50/173/34 42/174/34
f 89/175/9 90/176/9 37/177/9 91/178/9
f 92/179/9 93/180/9 94/181/9 95/182/9
f 96/183/9 97/184/9 98/185/9 99/186/9
f 100/187/9 101/188/9 102/189/9 103/190/9
f 38/191/14 34/192/14 93/193/14 92/194/14
f 34/195/18 37/196/18 94/197/18 93/198/18
f 37/199/19 90/200/19 95/201/19 94/202/19
f 90/203/20 38/204/20 92/205/20 95/206/20
f 104/207/21 105/208/21 97/209/21 96/210/21
f 105/211/22 106/212/22 98/213/22 97/214/22
f 106/215/23 107/216/23 99/217/23 98/218/23
f 107/219/24 104/220/24 96/221/24 99/222/24
f 89/223/14 91/224/14 101/225/14 100/226/14
f 91/227/25 108/228/25 102/229/25 101/230/25
f 108/231/19 109/232/19 103/233/19 102/234/19
f 109/235/26 89/236/26 100/237/26 103/238/26
f 91/178/9 110/239/35 111/240/36 108/241/9
f 106/242/9 105/243/9 109/244/9 108/245/9
f 73/246/17 74/247/17 112/248/17 113/249/17
f 64/250/17 65/251/17 114/252/37 115/253/38
f 65/254/17 66/255/17 116/256/17 114/257/39
f 72/258/17 73/259/17 66/260/17 67/261/17
f 70/262/17 74/263/17 75/264/17 69/265/17
f 72/258/17 117/266/17 118/267/17 75/268/17
s 1
f 6/8/40 5/7/40 88/269/41 15/270/42
f 15/270/42 88/269/41 87/271/43 16/272/43
f 16/272/44 87/271/44 86/273/45 17/274/46
f 17/274/46 86/273/45 8/10/47 7/9/47
f 32/45/48 119/275/49 120/276/50 48/277/48 33/46/48
f 121/278/9 39/53/51 38/52/9 90/279/9
f 114/280/52 122/281/53 123/282/54 115/283/55
f 122/284/53 44/285/56 43/286/56 123/287/54
f 119/288/57 32/55/58 42/59/58 124/289/59
f 114/290/60 116/291/61 113/292/61 112/293/61 125/294/61 119/288/57 124/289/59 126/295/62 111/296/63 110/297/64 36/298/64 35/299/60
f 122/300/65 114/290/66 35/299/66 127/301/65
f 44/302/65 122/300/65 127/301/65 45/303/65
f 123/304/5 43/305/5 46/306/5 128/307/5
f 115/308/67 123/304/5 128/307/5 39/309/67
f 120/310/67 129/311/67 118/312/67 117/313/67 130/314/67 115/308/67 39/309/67 121/315/67 131/316/67 132/317/67 133/318/67 134/319/67
f 48/320/5 120/310/67 134/319/67 49/321/5
f 27/159/68 26/322/69 79/323/70 78/160/68
f 26/322/69 25/324/71 80/325/71 79/323/70
f 25/324/72 24/326/73 81/327/74 80/325/72
f 23/328/75 22/329/76 83/330/77 82/331/78
f 42/174/79 50/173/79 49/332/79 134/333/80 124/334/81
f 36/335/82 110/336/83 91/178/9 37/51/9
f 121/337/9 90/338/9 89/339/9 131/340/9
f 35/341/84 39/342/85 128/343/86 127/344/86
f 127/345/86 128/346/86 46/347/87 45/348/87
f 83/349/77 22/350/76 21/162/88 84/165/88
f 81/327/74 24/326/73 23/328/75 82/331/78
f 111/351/89 126/352/82 106/242/9 108/245/9
f 126/353/82 124/354/81 107/355/9 106/356/9
f 124/357/81 134/358/80 104/359/9 107/355/9
f 132/360/9 109/361/9 105/243/9 133/362/9
f 132/363/9 131/340/9 89/364/9 109/244/9
f 133/365/9 105/243/9 104/366/9 134/367/80
f 73/259/17 113/368/17 116/256/17 66/260/17
f 112/369/17 74/370/17 70/262/17 125/371/17
f 125/372/17 70/373/17 71/374/17 119/375/49
f 119/375/49 71/374/17 68/376/17 120/377/50
f 69/378/17 75/264/17 118/267/17 129/379/17
f 130/380/17 117/266/17 72/258/17 67/381/17
f 115/253/90 130/382/17 67/261/17 64/250/17
f 129/383/17 120/384/50 68/385/17 69/378/17
