# Blender v2.79 (sub 6) OBJ File: 'bailarinaacortados.blend1'
# www.blender.org
mtllib guitarra3_000192.mtl
o Guitarra_2:pPlane4
v -10.070461 20.383961 0.823692
v -9.679726 20.773743 0.040612
v -10.217272 19.956253 -0.563223
v -10.608008 19.566467 0.219856
v -10.143240 18.979134 -0.894732
v -10.533978 18.589352 -0.111651
v -8.517750 15.507885 -0.186190
v -8.127010 15.897669 -0.969272
v -7.457508 15.403811 -0.792584
v -7.848247 15.014029 -0.009503
v -6.296627 15.402135 -0.158750
v -6.529264 15.145331 0.322739
v -6.683584 15.009645 0.623114
v -9.209715 20.883438 1.482531
v -9.996841 17.817680 -0.112765
v -9.139008 17.071018 0.070289
v -8.793853 16.081860 -0.118144
v -6.485379 15.136538 0.779345
v -6.415559 15.635364 1.007190
v -6.221921 16.188820 1.323253
v -5.604004 16.298000 1.701325
v -5.187091 16.588573 2.038951
v -5.417983 17.153748 2.128273
v -5.894693 17.714569 2.082062
v -6.206937 18.212444 2.101468
v -6.214021 19.290291 2.507766
v -6.461889 20.174568 2.709272
v -7.193007 20.895893 2.585584
v -8.217382 21.105347 2.107405
v -8.809060 21.252304 0.696890
v -6.320929 15.258924 0.473181
v -4.386767 11.392653 -0.669791
v -4.650786 11.208176 -0.185005
v -3.405798 10.406794 -0.236636
v -3.221617 10.338420 -0.464085
v -3.379819 10.671288 -0.422771
v -3.492398 10.582820 -0.210544
v -3.521587 10.325890 -0.024027
v -3.577274 10.089911 0.188966
v -6.077365 15.487492 -0.006856
v -6.026292 16.028751 0.226925
v -3.942100 11.565756 -0.361750
v -3.868274 9.707798 -0.114922
v -3.512617 9.956306 -0.767974
v -3.370725 10.011543 -0.669679
v -3.726382 9.763036 -0.016627
v -4.426888 11.295821 -0.033858
v -4.734645 11.152313 -0.037071
v -4.286146 11.326908 0.273624
v -4.206119 11.381280 0.123037
v -6.260084 15.771499 0.707615
v -4.338307 10.007950 -0.589808
v -4.422627 10.185571 -0.567903
v -4.309119 10.264880 -0.776323
v -4.222518 10.088853 -0.802416
v -4.733856 10.848585 -0.491217
v -4.622035 10.931527 -0.699244
v -4.539394 10.756995 -0.720459
v -4.655427 10.677174 -0.508106
v -4.493795 10.334675 -0.548958
v -4.583154 10.532449 -0.531107
v -4.471789 10.610261 -0.735592
v -4.380155 10.414078 -0.757623
v -4.176867 10.070796 -0.477970
v -4.061079 10.151700 -0.690579
v -4.147679 10.327726 -0.664486
v -4.261187 10.248416 -0.456066
v -4.572416 10.911431 -0.379380
v -4.493988 10.740023 -0.396269
v -4.377954 10.819841 -0.608622
v -4.460595 10.994372 -0.587408
v -4.332355 10.397521 -0.437122
v -4.218715 10.476925 -0.645787
v -4.310349 10.673108 -0.623755
v -4.421714 10.595296 -0.419270
v -7.826646 21.495132 1.324326
v -6.802270 21.285671 1.802504
v -6.071152 20.564354 1.926191
v -5.823282 19.680069 1.724684
v -5.816199 18.602222 1.318387
v -5.446612 18.045528 1.307826
v -5.027246 17.543533 1.345190
v -4.857144 16.929527 1.204181
v -5.213265 16.687782 0.918242
v -5.831184 16.578602 0.540173
v -8.403114 16.471645 -0.901225
v -8.748270 17.460800 -0.712793
v -9.606101 18.207462 -0.895848
v -3.677075 10.652615 0.016821
v -3.605906 10.503510 -0.002123
v -3.563435 10.732017 -0.191844
v -3.360147 10.388736 0.087809
v -3.244358 10.469641 -0.124800
v -3.330958 10.645666 -0.098707
v -3.444467 10.566358 0.109713
v -3.755696 11.229373 0.186399
v -3.677267 11.057961 0.169511
v -3.561234 11.137782 -0.042843
v -3.643874 11.312313 -0.021627
v -3.515635 10.715463 0.128658
v -3.401995 10.794864 -0.080007
v -3.493629 10.991048 -0.057976
v -3.604994 10.913235 0.146509
v -3.917136 11.166525 0.074563
v -3.838707 10.995114 0.057673
v -3.722674 11.074934 -0.154680
v -3.805314 11.249466 -0.133465
v -3.655069 10.928202 -0.169813
v -3.766434 10.850389 0.034673
v -3.455316 10.830256 -0.403121
v -3.547785 11.024384 -0.378731
v -4.196183 10.757596 -0.836035
v -4.102011 10.559940 -0.860902
v -3.876897 10.083326 -0.918028
v -4.232554 9.834817 -0.264977
v -4.012487 10.369348 -0.883030
v -4.458214 10.309999 -0.206259
v -4.549678 10.502048 -0.182148
v -4.419255 11.227416 -0.778040
v -4.774912 10.978908 -0.124987
v -3.729592 10.410592 0.228635
v -3.617906 10.044782 -0.791648
v -3.973564 9.796274 -0.138595
v -3.763975 11.482509 -0.324097
v -4.269575 10.912203 -0.816973
v -3.615262 11.169299 -0.362761
v -3.369058 10.141655 -0.619260
v -3.724716 9.893147 0.033792
v -4.621929 10.656851 -0.164845
v -4.379445 10.144256 -0.226824
v -3.794212 10.547025 0.245247
v -3.894686 10.757739 0.271875
v -3.970509 10.919942 0.290176
v -4.119632 11.234001 0.328955
vt 0.735914 0.659422
vt 0.789193 0.659422
vt 0.789193 0.715185
vt 0.735914 0.715185
vt 0.816888 0.113382
vt 0.870167 0.107923
vt 0.870167 0.160781
vt 0.816888 0.166240
vt 0.816888 0.369404
vt 0.870167 0.363945
vt 0.870167 0.403590
vt 0.816888 0.409050
vt 0.731155 0.575499
vt 0.677876 0.575499
vt 0.677981 0.505501
vt 0.710850 0.505460
vt 0.731155 0.505418
vt 0.616009 0.468244
vt 0.549850 0.459605
vt 0.494086 0.427645
vt 0.470627 0.374786
vt 0.480954 0.323250
vt 0.511328 0.266468
vt 0.503868 0.207431
vt 0.504109 0.171623
vt 0.530354 0.131977
vt 0.600435 0.107922
vt 0.616009 0.110536
vt 0.634472 0.135319
vt 0.661960 0.160441
vt 0.702327 0.153537
vt 0.735762 0.160278
vt 0.737994 0.194699
vt 0.725284 0.233919
vt 0.720689 0.266468
vt 0.751063 0.323250
vt 0.761390 0.374786
vt 0.737931 0.427645
vt 0.682167 0.459605
vt 0.789193 0.593263
vt 0.735914 0.593263
vt 0.710560 0.489845
vt 0.731155 0.489845
vt 0.808348 0.107923
vt 0.809532 0.357831
vt 0.776995 0.357831
vt 0.775479 0.112321
vt 0.772042 0.359625
vt 0.771570 0.373161
vt 0.810410 0.373121
vt 0.810927 0.360098
vt 0.810927 0.360098
vt 0.772042 0.359625
vt 0.810410 0.373121
vt 0.243136 0.716617
vt 0.243355 0.466708
vt 0.259011 0.466708
vt 0.277557 0.439312
vt 0.274887 0.716617
vt 0.522564 0.515171
vt 0.522564 0.471340
vt 0.532696 0.471340
vt 0.532696 0.515171
vt 0.486970 0.487353
vt 0.486778 0.503228
vt 0.476773 0.503365
vt 0.476773 0.471340
vt 0.486778 0.471477
vt 0.867866 0.659325
vt 0.852251 0.657656
vt 0.851991 0.412147
vt 0.867866 0.412147
vt 0.883742 0.412147
vt 0.886370 0.685053
vt 0.472013 0.506882
vt 0.460953 0.506893
vt 0.460953 0.492905
vt 0.472013 0.492612
vt 0.397163 0.827232
vt 0.396938 0.813240
vt 0.407799 0.813249
vt 0.407740 0.827494
vt 0.343983 0.827371
vt 0.331817 0.826964
vt 0.331817 0.813240
vt 0.343983 0.813366
vt 0.440374 0.506882
vt 0.428846 0.506882
vt 0.428846 0.492612
vt 0.440374 0.492612
vt 0.124689 0.828503
vt 0.124689 0.840031
vt 0.113630 0.840031
vt 0.113630 0.828503
vt 0.244980 0.827228
vt 0.233453 0.827228
vt 0.233453 0.813240
vt 0.244980 0.813240
vt 0.141473 0.828503
vt 0.141473 0.840031
vt 0.130413 0.840031
vt 0.130413 0.828503
vt 0.157623 0.828503
vt 0.157623 0.840031
vt 0.147046 0.840031
vt 0.147046 0.828503
vt 0.376558 0.827485
vt 0.365031 0.827485
vt 0.365031 0.813240
vt 0.376558 0.813240
vt 0.174539 0.828503
vt 0.174539 0.840031
vt 0.163679 0.840031
vt 0.163679 0.828503
vt 0.277555 0.827232
vt 0.266028 0.827232
vt 0.266028 0.813240
vt 0.277555 0.813240
vt 0.310130 0.827245
vt 0.298602 0.827245
vt 0.298602 0.813240
vt 0.310130 0.813240
vt 0.179831 0.825407
vt 0.168303 0.825407
vt 0.168303 0.813240
vt 0.179831 0.813240
vt 0.212405 0.826964
vt 0.200878 0.826964
vt 0.200878 0.813240
vt 0.212405 0.813240
vt 0.163543 0.825406
vt 0.152016 0.825406
vt 0.152016 0.813240
vt 0.163543 0.813240
vt 0.259011 0.107923
vt 0.325170 0.115259
vt 0.380934 0.147220
vt 0.404393 0.200078
vt 0.394066 0.251614
vt 0.363692 0.308396
vt 0.370063 0.345209
vt 0.380997 0.380166
vt 0.373705 0.415909
vt 0.345330 0.421327
vt 0.304962 0.414424
vt 0.173357 0.442887
vt 0.147112 0.403242
vt 0.146870 0.367433
vt 0.154331 0.308396
vt 0.123957 0.251614
vt 0.113630 0.200078
vt 0.137089 0.147220
vt 0.192853 0.115259
vt 0.735914 0.527104
vt 0.735914 0.471340
vt 0.789193 0.471340
vt 0.789193 0.527104
vt 0.847231 0.445787
vt 0.847231 0.498646
vt 0.793953 0.493186
vt 0.793953 0.440328
vt 0.621567 0.504775
vt 0.621567 0.545143
vt 0.568289 0.545143
vt 0.568289 0.504775
vt 0.465791 0.113382
vt 0.465791 0.138503
vt 0.445487 0.137209
vt 0.412617 0.132810
vt 0.412513 0.107923
vt 0.731155 0.471382
vt 0.710850 0.471340
vt 0.443970 0.410115
vt 0.411433 0.410115
vt 0.810927 0.360098
vt 0.772042 0.359625
vt 0.771570 0.373161
vt 0.810410 0.373121
vt 0.456193 0.492623
vt 0.456193 0.506893
vt 0.445134 0.506601
vt 0.445134 0.492612
vt 0.381543 0.813502
vt 0.392120 0.813240
vt 0.392178 0.827485
vt 0.381318 0.827493
vt 0.327057 0.813240
vt 0.327057 0.827245
vt 0.314890 0.827371
vt 0.314890 0.813647
vt 0.412559 0.506882
vt 0.412559 0.492612
vt 0.424086 0.492612
vt 0.424086 0.506882
vt 0.191371 0.841588
vt 0.180311 0.841588
vt 0.180311 0.830061
vt 0.191371 0.830061
vt 0.217165 0.827228
vt 0.217165 0.813240
vt 0.228693 0.813240
vt 0.228693 0.827228
vt 0.208004 0.841588
vt 0.196944 0.841588
vt 0.196944 0.830061
vt 0.208004 0.830061
vt 0.224154 0.841852
vt 0.213577 0.841852
vt 0.213577 0.830325
vt 0.224154 0.830325
vt 0.348743 0.827485
vt 0.348743 0.813240
vt 0.360271 0.813240
vt 0.360271 0.827485
vt 0.241070 0.841852
vt 0.230209 0.841852
vt 0.230209 0.830325
vt 0.241070 0.830325
vt 0.249740 0.827232
vt 0.249740 0.813240
vt 0.261268 0.813240
vt 0.261268 0.827232
vt 0.282315 0.827245
vt 0.282315 0.813240
vt 0.293842 0.813240
vt 0.293842 0.827245
vt 0.135728 0.825407
vt 0.135728 0.813240
vt 0.147256 0.813240
vt 0.147256 0.825407
vt 0.184591 0.826964
vt 0.184591 0.813240
vt 0.196118 0.813240
vt 0.196118 0.826964
vt 0.119441 0.825406
vt 0.119441 0.813240
vt 0.130968 0.813240
vt 0.130968 0.825406
vt 0.810927 0.360098
vt 0.772042 0.359625
vt 0.771570 0.373161
vt 0.810927 0.360098
vt 0.810410 0.373121
vt 0.771570 0.373161
vt 0.772042 0.359625
vt 0.771570 0.373161
vt 0.810410 0.373121
vt 0.810927 0.360098
vt 0.772042 0.359625
vt 0.771570 0.373161
vt 0.772042 0.359625
vt 0.810927 0.360098
vt 0.810410 0.373121
vt 0.810410 0.373121
vt 0.810927 0.360098
vt 0.772042 0.359625
vt 0.771570 0.373161
vt 0.810927 0.360098
vt 0.810410 0.373121
vt 0.771570 0.373161
vt 0.772042 0.359625
vt 0.810410 0.373121
vt 0.810927 0.360098
vt 0.772042 0.359625
vt 0.771570 0.373161
vt 0.772042 0.359625
vt 0.771570 0.373161
vt 0.810410 0.373121
vt 0.870167 0.212317
vt 0.816888 0.217777
vt 0.870167 0.269099
vt 0.816888 0.274559
vt 0.870167 0.328136
vt 0.816888 0.333596
vt 0.810821 0.366019
vt 0.766990 0.366019
vt 0.766990 0.357731
vt 0.771570 0.373161
vt 0.810410 0.373121
vt 0.549018 0.471340
vt 0.563529 0.471340
vt 0.563529 0.515171
vt 0.549018 0.515171
vt 0.537455 0.471340
vt 0.544258 0.471340
vt 0.544258 0.515171
vt 0.537455 0.515171
vt 0.235617 0.724805
vt 0.282406 0.724805
vt 0.235617 0.796017
vt 0.235617 0.778214
vt 0.235617 0.760411
vt 0.235617 0.751510
vt 0.235617 0.742608
vt 0.282406 0.742608
vt 0.282406 0.760411
vt 0.282406 0.769313
vt 0.282406 0.778214
vt 0.282406 0.796017
vt 0.250127 0.803340
vt 0.267896 0.803340
vt 0.253946 0.810143
vt 0.264077 0.810143
vt 0.640837 0.478143
vt 0.644656 0.471340
vt 0.654787 0.471340
vt 0.658606 0.478143
vt 0.626327 0.485467
vt 0.673117 0.485467
vt 0.626327 0.556679
vt 0.626327 0.538876
vt 0.626327 0.521073
vt 0.626327 0.512172
vt 0.626327 0.503270
vt 0.673117 0.503270
vt 0.673117 0.512172
vt 0.673117 0.521073
vt 0.673117 0.538876
vt 0.673117 0.556679
vt 0.633709 0.564967
vt 0.665734 0.564967
vt 0.847231 0.550182
vt 0.793953 0.544723
vt 0.847231 0.606964
vt 0.793953 0.601505
vt 0.847231 0.639513
vt 0.793953 0.638317
vt 0.847231 0.678733
vt 0.847231 0.713154
vt 0.793953 0.709017
vt 0.793953 0.673274
vt 0.453975 0.410015
vt 0.453975 0.418303
vt 0.410144 0.418303
vt 0.772042 0.359625
vt 0.771570 0.373161
vt 0.772042 0.359625
vt 0.771570 0.373161
vt 0.810410 0.373121
vt 0.810927 0.360098
vt 0.517804 0.471340
vt 0.517804 0.515171
vt 0.503293 0.515171
vt 0.503293 0.471340
vt 0.491730 0.515171
vt 0.491730 0.471340
vt 0.498533 0.471340
vt 0.498533 0.515171
vt 0.568289 0.476400
vt 0.621567 0.471340
vt 0.771570 0.373161
vt 0.810410 0.373121
vt 0.810927 0.360098
vt 0.810410 0.373121
vt 0.771570 0.373161
vt 0.772042 0.359625
vt 0.772042 0.359625
vt 0.810927 0.360098
vt 0.810410 0.373121
vt 0.772042 0.359625
vt 0.810927 0.360098
vt 0.771570 0.373161
vt 0.810410 0.373121
vt 0.772042 0.359625
vt 0.810927 0.360098
vt 0.771570 0.373161
vt 0.772042 0.359625
vt 0.810927 0.360098
vt 0.772042 0.359625
vt 0.771570 0.373161
vt 0.810927 0.360098
vt 0.772042 0.359625
vt 0.810927 0.360098
vt 0.810410 0.373121
vt 0.771570 0.373161
vt 0.810927 0.360098
vt 0.772042 0.359625
vt 0.810927 0.360098
vt 0.810410 0.373121
vt 0.771570 0.373161
vt 0.810410 0.373121
vt 0.810927 0.360098
vt 0.772042 0.359625
vt 0.771570 0.373161
vt 0.810410 0.373121
vn -0.7959 0.5971 -0.0999
vn -0.9064 0.0725 -0.4162
vn -0.3915 -0.7308 -0.5591
vn 0.1886 -0.9127 -0.3625
vn -0.4536 -0.3170 0.8329
vn -0.5550 0.8234 0.1183
vn 0.5457 -0.8352 -0.0685
vn -0.7836 -0.3041 -0.5417
vn 0.7829 0.3048 0.5424
vn 0.7622 0.2889 0.5793
vn 0.8007 0.4220 0.4253
vn 0.6763 0.3369 0.6551
vn 0.4501 0.3205 -0.8334
vn 0.4258 -0.8981 -0.1099
vn -0.4213 0.9012 0.1016
vn -0.4496 -0.3215 0.8334
vn -0.7829 -0.3048 -0.5424
vn 0.4422 0.3406 -0.8297
vn -0.4258 0.8981 0.1099
vn -0.4532 -0.3178 0.8328
vn -0.4640 -0.2946 0.8354
vn 0.4239 -0.8994 -0.1065
vn 0.4540 0.3162 -0.8330
vn -0.4330 0.8929 0.1233
vn 0.4580 0.3076 -0.8340
vn -0.4676 -0.2867 0.8361
vn 0.4537 0.3169 -0.8329
vn -0.0203 0.8991 0.4374
vn 0.5236 0.6292 0.5744
vn 0.3318 -0.9001 -0.2824
vn 0.8766 -0.4260 0.2239
vn -0.3680 0.8962 0.2477
vn 0.8934 -0.2771 0.3536
vn 0.7870 0.2961 0.5413
vn 0.7628 0.3450 0.5469
vn 0.7630 0.2873 0.5790
vn -0.8669 -0.2666 -0.4212
vn -0.7452 -0.1839 -0.6409
vn -0.8384 -0.1649 -0.5195
vn -0.6747 -0.4688 -0.5700
vn -0.5728 -0.5831 -0.5761
vn -0.5600 -0.5956 -0.5759
vn -0.4671 -0.6763 -0.5697
vn -0.8359 -0.1938 -0.5136
vn -0.8181 -0.2346 -0.5250
vn -0.8148 -0.2418 -0.5270
vn -0.7797 -0.3106 -0.5437
vn -0.8641 0.3821 -0.3276
vn -0.9213 0.0381 -0.3871
vn -0.8476 -0.1336 -0.5135
vn 0.7013 0.4496 0.5533
vn -0.0419 -0.9763 -0.2121
vn -0.1407 -0.8974 -0.4181
vn -0.1407 -0.8974 -0.4182
vn 0.0995 -0.8764 -0.4713
vn -0.4743 -0.7054 -0.5267
vn 0.4509 0.3241 -0.8317
vn 0.3819 0.4527 -0.8057
vn 0.4509 0.3240 -0.8317
vn 0.4540 0.3171 -0.8326
vn 0.4544 0.3173 -0.8324
vn 0.4733 0.2761 -0.8365
vn 0.4731 0.2766 -0.8365
vn 0.4732 0.2763 -0.8365
vn 0.4536 0.3170 -0.8329
vn 0.4543 0.3172 -0.8325
vn 0.8603 0.1287 0.4933
vn 0.8998 -0.0273 0.4354
vn 0.8969 -0.0110 0.4420
vn 0.9120 -0.1394 0.3857
vn 0.6947 0.4328 0.5745
vn 0.6466 0.4973 0.5785
vn 0.6474 0.4963 0.5784
vn 0.7507 0.3826 0.5386
vn 0.9097 -0.3251 0.2585
vn 0.9086 -0.3303 0.2556
vn 0.7339 0.4052 0.5452
vn 0.2910 0.8318 0.4727
vn 0.6939 0.4623 0.5522
vn 0.5177 0.5987 0.6112
vn 0.7628 0.3450 0.5468
vn 0.7631 0.2872 0.5790
vn 0.6520 -0.7062 0.2760
vn 0.7980 -0.6026 0.0059
vn 0.8152 -0.5253 0.2441
vn 0.8152 -0.5253 0.2440
vn 0.8911 -0.1738 0.4192
vn 0.6102 -0.7878 -0.0840
vn 0.7631 0.3452 0.5463
vn 0.7629 0.3450 0.5468
vn -0.8410 -0.1573 -0.5177
usemtl initialShadingGroup.004
s off
f 1/1/1 2/2/1 3/3/1 4/4/1
f 4/5/2 3/6/2 5/7/2 6/8/2
f 7/9/3 8/10/3 9/11/3 10/12/3
f 10/13/4 9/14/4 11/15/4 12/16/4 13/17/4
f 14/18/5 1/19/5 4/20/5 6/21/5 15/22/5 16/23/5 17/24/5 7/25/5 10/26/5 13/27/5 18/28/5 19/29/5 20/30/5 21/31/5 22/32/5 23/33/5 24/34/5 25/35/5 26/36/5 27/37/5 28/38/5 29/39/5
f 30/40/6 2/2/6 1/1/6 14/41/6
f 13/17/7 12/16/7 31/42/7 18/43/7
f 11/44/8 32/45/8 33/46/8 12/47/8
f 34/48/9 35/49/9 36/50/10 37/51/9
f 38/52/9 39/53/11 35/49/12 34/54/9
f 32/55/13 11/56/13 40/57/13 41/58/13 42/59/13
f 43/60/14 44/61/14 45/62/14 46/63/14
f 47/64/15 33/65/15 48/66/15 49/67/15 50/68/15
f 31/69/16 12/70/16 33/71/16 47/72/16 50/73/16 51/74/16
f 52/75/17 53/76/17 54/77/17 55/78/17
f 56/79/17 57/80/17 58/81/17 59/82/17
f 60/83/17 61/84/17 62/85/17 63/86/17
f 64/87/14 52/88/14 55/89/14 65/90/14
f 65/91/18 55/92/18 54/93/18 66/94/18
f 66/95/19 54/96/19 53/97/19 67/98/19
f 67/99/20 53/100/20 52/101/20 64/102/20
f 68/103/21 56/104/21 59/105/21 69/106/21
f 69/107/22 59/108/22 58/109/22 70/110/22
f 70/111/23 58/112/23 57/113/23 71/114/23
f 71/115/24 57/116/24 56/117/24 68/118/24
f 72/119/14 60/120/14 63/121/14 73/122/14
f 73/123/25 63/124/25 62/125/25 74/126/25
f 74/127/19 62/128/19 61/129/19 75/130/19
f 75/131/26 61/132/26 60/133/26 72/134/26
f 30/135/27 76/136/27 77/137/27 78/138/27 79/139/27 80/140/27 81/141/27 82/142/27 83/143/27 84/144/27 85/145/27 41/58/27 40/57/27 11/56/27 9/146/27 8/147/27 86/148/27 87/149/27 88/150/27 5/151/27 3/152/27 2/153/27
f 29/154/28 28/155/28 77/156/28 76/157/28
f 28/158/29 27/159/29 78/160/29 77/161/29
f 21/162/30 20/163/30 85/164/30 84/165/30
f 20/166/31 19/167/31 51/168/31 41/169/31 85/170/31
f 30/40/32 14/41/32 29/154/32 76/157/32
f 19/171/33 18/43/33 31/42/33 51/172/33
f 41/169/34 51/168/34 50/173/34 42/174/34
f 89/175/9 90/176/9 37/177/9 91/178/9
f 92/179/9 93/180/9 94/181/9 95/182/9
f 96/183/9 97/184/9 98/185/9 99/186/9
f 100/187/9 101/188/9 102/189/9 103/190/9
f 38/191/14 34/192/14 93/193/14 92/194/14
f 34/195/18 37/196/18 94/197/18 93/198/18
f 37/199/19 90/200/19 95/201/19 94/202/19
f 90/203/20 38/204/20 92/205/20 95/206/20
f 104/207/21 105/208/21 97/209/21 96/210/21
f 105/211/22 106/212/22 98/213/22 97/214/22
f 106/215/23 107/216/23 99/217/23 98/218/23
f 107/219/24 104/220/24 96/221/24 99/222/24
f 89/223/14 91/224/14 101/225/14 100/226/14
f 91/227/25 108/228/25 102/229/25 101/230/25
f 108/231/19 109/232/19 103/233/19 102/234/19
f 109/235/26 89/236/26 100/237/26 103/238/26
f 91/178/9 110/239/35 111/240/36 108/241/9
f 106/242/9 105/243/9 109/244/9 108/245/9
f 73/246/17 74/247/17 112/248/17 113/249/17
f 64/250/17 65/251/17 114/252/37 115/253/38
f 65/254/17 66/255/17 116/256/17 114/257/39
f 72/258/17 73/259/17 66/260/17 67/261/17
f 70/262/17 74/263/17 75/264/17 69/265/17
f 72/258/17 117/266/17 118/267/17 75/268/17
s 1
f 6/8/40 5/7/40 88/269/41 15/270/42
f 15/270/42 88/269/41 87/271/43 16/272/43
f 16/272/44 87/271/44 86/273/45 17/274/46
f 17/274/46 86/273/45 8/10/47 7/9/47
f 32/45/48 119/275/49 120/276/50 48/277/48 33/46/48
f 121/278/9 39/53/51 38/52/9 90/279/9
f 114/280/52 122/281/53 123/282/54 115/283/55
f 122/284/53 44/285/56 43/286/56 123/287/54
f 119/288/57 32/55/58 42/59/58 124/289/59
f 114/290/60 116/291/61 113/292/61 112/293/61 125/294/61 119/288/57 124/289/59 126/295/62 111/296/63 110/297/64 36/298/64 35/299/60
f 122/300/65 114/290/66 35/299/66 127/301/65
f 44/302/65 122/300/65 127/301/65 45/303/65
f 123/304/5 43/305/5 46/306/5 128/307/5
f 115/308/5 123/304/5 128/307/5 39/309/5
f 120/310/5 129/311/5 118/312/5 117/313/5 130/314/5 115/308/5 39/309/5 121/315/5 131/316/5 132/317/5 133/318/5 134/319/5
f 48/320/5 120/310/5 134/319/5 49/321/5
f 27/159/67 26/322/68 79/323/69 78/160/67
f 26/322/68 25/324/70 80/325/70 79/323/69
f 25/324/71 24/326/72 81/327/73 80/325/71
f 23/328/74 22/329/75 83/330/76 82/331/77
f 42/174/78 50/173/78 49/332/78 134/333/79 124/334/80
f 36/335/81 110/336/82 91/178/9 37/51/9
f 121/337/9 90/338/9 89/339/9 131/340/9
f 35/341/83 39/342/84 128/343/85 127/344/86
f 127/345/86 128/346/85 46/347/87 45/348/87
f 83/349/76 22/350/75 21/162/88 84/165/88
f 81/327/73 24/326/72 23/328/74 82/331/77
f 111/351/89 126/352/90 106/242/9 108/245/9
f 126/353/90 124/354/80 107/355/9 106/356/9
f 124/357/80 134/358/79 104/359/9 107/355/9
f 132/360/9 109/361/9 105/243/9 133/362/9
f 132/363/9 131/340/9 89/364/9 109/244/9
f 133/365/9 105/243/9 104/366/9 134/367/79
f 73/259/17 113/368/17 116/256/17 66/260/17
f 112/369/17 74/370/17 70/262/17 125/371/17
f 125/372/17 70/373/17 71/374/17 119/375/49
f 119/375/49 71/374/17 68/376/17 120/377/50
f 69/378/17 75/264/17 118/267/17 129/379/17
f 130/380/17 117/266/17 72/258/17 67/381/17
f 115/253/91 130/382/17 67/261/17 64/250/17
f 129/383/17 120/384/50 68/385/17 69/378/17
