# Blender v2.79 (sub 6) OBJ File: 'bailarina.blend1'
# www.blender.org
mtllib Guitarra3_000009.mtl
o Guitarra_2:pPlane4
v 7.210948 16.676851 -13.099527
v 7.712351 15.932013 -13.433634
v 6.707284 15.389460 -13.565331
v 6.205878 16.134300 -13.231226
v 5.998079 14.816685 -13.076368
v 5.496672 15.561525 -12.742262
v 4.484476 13.943577 -9.592043
v 4.985883 13.198736 -9.926149
v 5.061541 12.976030 -9.108822
v 4.560133 13.720871 -8.774715
v 5.857654 13.099698 -8.059868
v 5.541400 13.550407 -7.839089
v 5.356601 13.841333 -7.722200
v 8.190617 17.064592 -12.538870
v 5.265328 15.159758 -11.924303
v 5.273684 14.806738 -10.827856
v 4.741316 14.255455 -10.089109
v 5.591428 13.937674 -7.598228
v 6.027393 14.241453 -7.750772
v 6.590889 14.590776 -7.815226
v 7.100193 14.720943 -7.304986
v 7.612545 14.937654 -7.054445
v 7.893592 15.249081 -7.506923
v 8.002430 15.531948 -8.179270
v 8.175253 15.794788 -8.676056
v 9.008797 16.434492 -9.148153
v 9.526400 16.933739 -9.753822
v 9.585352 17.285088 -10.725012
v 9.044748 17.301304 -11.739582
v 8.682564 16.308371 -12.854992
v 5.772457 13.634363 -7.703061
v 4.048988 10.896467 -4.616153
v 3.767002 11.380491 -4.458164
v 3.972654 10.658098 -3.181164
v 4.027468 10.368546 -3.122121
v 4.177788 10.550335 -3.408290
v 4.050484 10.759120 -3.332499
v 3.848987 10.870373 -3.111876
v 3.647606 11.020569 -2.909295
v 6.074636 13.173586 -7.898955
v 6.530731 13.500597 -8.086744
v 4.489028 11.046310 -4.289819
v 3.150523 10.762770 -3.006701
v 3.530384 10.110745 -3.219527
v 3.670800 10.158560 -3.115396
v 3.290939 10.810585 -2.902568
v 3.988694 11.452544 -4.295934
v 3.679127 11.529549 -4.412371
v 4.122961 11.680684 -4.083227
v 4.207042 11.530334 -4.131829
v 6.213334 13.950918 -7.866813
v 3.040763 10.595154 -3.711255
v 3.121030 10.691995 -3.863957
v 3.242260 10.483902 -3.931877
v 3.164432 10.382880 -3.780542
v 3.422633 11.047630 -4.433948
v 3.545528 10.841455 -4.504993
v 3.466536 10.746653 -4.354947
v 3.343509 10.959070 -4.286590
v 3.188192 10.773931 -3.992142
v 3.280126 10.874228 -4.162164
v 3.399067 10.670065 -4.228803
v 3.309566 10.565594 -4.060144
v 3.200523 10.649555 -3.592775
v 3.324191 10.437281 -3.662063
v 3.402021 10.538303 -3.813399
v 3.280790 10.746397 -3.745477
v 3.582394 11.102034 -4.315470
v 3.503272 11.013474 -4.168113
v 3.626297 10.801056 -4.236469
v 3.705287 10.895858 -4.386513
v 3.347953 10.828333 -3.873664
v 3.469326 10.619995 -3.941666
v 3.558827 10.724467 -4.110324
v 3.439885 10.928631 -4.043684
v 9.546158 16.556467 -12.073692
v 10.086761 16.540249 -11.059116
v 10.027802 16.188898 -10.087927
v 9.510199 15.689651 -9.482256
v 8.676659 15.049946 -9.010160
v 8.497463 14.758213 -8.436232
v 8.395000 14.504240 -7.841030
v 8.034220 14.157375 -7.422292
v 7.601600 13.976103 -7.639094
v 7.092294 13.845936 -8.149332
v 5.242724 13.510615 -10.423220
v 5.775092 14.061895 -11.161961
v 5.766734 14.414917 -12.258406
v 3.996416 11.049149 -3.392766
v 3.929253 10.967214 -3.264578
v 4.117789 10.840813 -3.460766
v 4.008747 10.924774 -2.993397
v 4.132416 10.712502 -3.062686
v 4.210245 10.813522 -3.214021
v 4.089015 11.021615 -3.146101
v 4.390618 11.377253 -3.716093
v 4.311495 11.288691 -3.568734
v 4.434521 11.076273 -3.637091
v 4.513511 11.171076 -3.787137
v 4.156178 11.103552 -3.274287
v 4.277548 10.895214 -3.342288
v 4.367051 10.999684 -3.510947
v 4.248107 11.203850 -3.444305
v 4.230856 11.322849 -3.834570
v 4.151733 11.234288 -3.687212
v 4.274759 11.021872 -3.755569
v 4.353751 11.116673 -3.905615
v 4.207290 10.945282 -3.629426
v 4.088348 11.149446 -3.562785
v 4.249606 10.637059 -3.544956
v 4.337156 10.743420 -3.711850
v 3.684159 10.514015 -4.182692
v 3.595033 10.405684 -4.012766
v 3.379004 10.147730 -3.603020
v 2.999142 10.799753 -3.390193
v 3.508365 10.303356 -3.848915
v 3.213831 11.058966 -3.798710
v 3.300451 11.164164 -3.963816
v 3.896450 10.770233 -4.586600
v 3.516588 11.422257 -4.373773
v 3.792474 11.195551 -3.184986
v 3.526895 10.152192 -3.352735
v 3.147033 10.804217 -3.139909
v 4.544912 10.991050 -4.105701
v 3.754028 10.598305 -4.315609
v 4.403388 10.820239 -3.836433
v 3.773153 10.236048 -3.170110
v 3.393291 10.888073 -2.957283
v 3.371106 11.246506 -4.096900
v 3.138980 10.968453 -3.656218
v 3.854211 11.269690 -3.302277
v 3.949181 11.385313 -3.483428
v 4.023146 11.471788 -3.622876
v 4.165051 11.643074 -3.892874
vt 0.735914 0.659422
vt 0.789193 0.659422
vt 0.789193 0.715185
vt 0.735914 0.715185
vt 0.816888 0.113382
vt 0.870167 0.107923
vt 0.870167 0.160781
vt 0.816888 0.166240
vt 0.816888 0.369404
vt 0.870167 0.363945
vt 0.870167 0.403590
vt 0.816888 0.409050
vt 0.731155 0.575499
vt 0.677876 0.575499
vt 0.677981 0.505501
vt 0.710850 0.505460
vt 0.731155 0.505418
vt 0.616009 0.468244
vt 0.549850 0.459605
vt 0.494086 0.427645
vt 0.470627 0.374786
vt 0.480954 0.323250
vt 0.511328 0.266468
vt 0.503868 0.207431
vt 0.504109 0.171623
vt 0.530354 0.131977
vt 0.600435 0.107922
vt 0.616009 0.110536
vt 0.634472 0.135319
vt 0.661960 0.160441
vt 0.702327 0.153537
vt 0.735762 0.160278
vt 0.737994 0.194699
vt 0.725284 0.233919
vt 0.720689 0.266468
vt 0.751063 0.323250
vt 0.761390 0.374786
vt 0.737931 0.427645
vt 0.682167 0.459605
vt 0.789193 0.593263
vt 0.735914 0.593263
vt 0.710560 0.489845
vt 0.731155 0.489845
vt 0.808348 0.107923
vt 0.809532 0.357831
vt 0.776995 0.357831
vt 0.775479 0.112321
vt 0.772042 0.359625
vt 0.771570 0.373161
vt 0.810410 0.373121
vt 0.810927 0.360098
vt 0.810927 0.360098
vt 0.772042 0.359625
vt 0.810410 0.373121
vt 0.243136 0.716617
vt 0.243355 0.466708
vt 0.259011 0.466708
vt 0.277557 0.439312
vt 0.274887 0.716617
vt 0.522564 0.515171
vt 0.522564 0.471340
vt 0.532696 0.471340
vt 0.532696 0.515171
vt 0.486970 0.487353
vt 0.486778 0.503228
vt 0.476773 0.503365
vt 0.476773 0.471340
vt 0.486778 0.471477
vt 0.867866 0.659325
vt 0.852251 0.657656
vt 0.851991 0.412147
vt 0.867866 0.412147
vt 0.883742 0.412147
vt 0.886370 0.685053
vt 0.472013 0.506882
vt 0.460953 0.506893
vt 0.460953 0.492905
vt 0.472013 0.492612
vt 0.397163 0.827232
vt 0.396938 0.813240
vt 0.407799 0.813249
vt 0.407740 0.827494
vt 0.343983 0.827371
vt 0.331817 0.826964
vt 0.331817 0.813240
vt 0.343983 0.813366
vt 0.440374 0.506882
vt 0.428846 0.506882
vt 0.428846 0.492612
vt 0.440374 0.492612
vt 0.124689 0.828503
vt 0.124689 0.840031
vt 0.113630 0.840031
vt 0.113630 0.828503
vt 0.244980 0.827228
vt 0.233453 0.827228
vt 0.233453 0.813240
vt 0.244980 0.813240
vt 0.141473 0.828503
vt 0.141473 0.840031
vt 0.130413 0.840031
vt 0.130413 0.828503
vt 0.157623 0.828503
vt 0.157623 0.840031
vt 0.147046 0.840031
vt 0.147046 0.828503
vt 0.376558 0.827485
vt 0.365031 0.827485
vt 0.365031 0.813240
vt 0.376558 0.813240
vt 0.174539 0.828503
vt 0.174539 0.840031
vt 0.163679 0.840031
vt 0.163679 0.828503
vt 0.277555 0.827232
vt 0.266028 0.827232
vt 0.266028 0.813240
vt 0.277555 0.813240
vt 0.310130 0.827245
vt 0.298602 0.827245
vt 0.298602 0.813240
vt 0.310130 0.813240
vt 0.179831 0.825407
vt 0.168303 0.825407
vt 0.168303 0.813240
vt 0.179831 0.813240
vt 0.212405 0.826964
vt 0.200878 0.826964
vt 0.200878 0.813240
vt 0.212405 0.813240
vt 0.163543 0.825406
vt 0.152016 0.825406
vt 0.152016 0.813240
vt 0.163543 0.813240
vt 0.259011 0.107923
vt 0.325170 0.115259
vt 0.380934 0.147220
vt 0.404393 0.200078
vt 0.394066 0.251614
vt 0.363692 0.308396
vt 0.370063 0.345209
vt 0.380997 0.380166
vt 0.373705 0.415909
vt 0.345330 0.421327
vt 0.304962 0.414424
vt 0.173357 0.442887
vt 0.147112 0.403242
vt 0.146870 0.367433
vt 0.154331 0.308396
vt 0.123957 0.251614
vt 0.113630 0.200078
vt 0.137089 0.147220
vt 0.192853 0.115259
vt 0.735914 0.527104
vt 0.735914 0.471340
vt 0.789193 0.471340
vt 0.789193 0.527104
vt 0.847231 0.445787
vt 0.847231 0.498646
vt 0.793953 0.493186
vt 0.793953 0.440328
vt 0.621567 0.504775
vt 0.621567 0.545143
vt 0.568289 0.545143
vt 0.568289 0.504775
vt 0.465791 0.113382
vt 0.465791 0.138503
vt 0.445487 0.137209
vt 0.412617 0.132810
vt 0.412513 0.107923
vt 0.731155 0.471382
vt 0.710850 0.471340
vt 0.443970 0.410115
vt 0.411433 0.410115
vt 0.810927 0.360098
vt 0.772042 0.359625
vt 0.771570 0.373161
vt 0.810410 0.373121
vt 0.456193 0.492623
vt 0.456193 0.506893
vt 0.445134 0.506601
vt 0.445134 0.492612
vt 0.381543 0.813502
vt 0.392120 0.813240
vt 0.392178 0.827485
vt 0.381318 0.827493
vt 0.327057 0.813240
vt 0.327057 0.827245
vt 0.314890 0.827371
vt 0.314890 0.813647
vt 0.412559 0.506882
vt 0.412559 0.492612
vt 0.424086 0.492612
vt 0.424086 0.506882
vt 0.191371 0.841588
vt 0.180311 0.841588
vt 0.180311 0.830061
vt 0.191371 0.830061
vt 0.217165 0.827228
vt 0.217165 0.813240
vt 0.228693 0.813240
vt 0.228693 0.827228
vt 0.208004 0.841588
vt 0.196944 0.841588
vt 0.196944 0.830061
vt 0.208004 0.830061
vt 0.224154 0.841852
vt 0.213577 0.841852
vt 0.213577 0.830325
vt 0.224154 0.830325
vt 0.348743 0.827485
vt 0.348743 0.813240
vt 0.360271 0.813240
vt 0.360271 0.827485
vt 0.241070 0.841852
vt 0.230209 0.841852
vt 0.230209 0.830325
vt 0.241070 0.830325
vt 0.249740 0.827232
vt 0.249740 0.813240
vt 0.261268 0.813240
vt 0.261268 0.827232
vt 0.282315 0.827245
vt 0.282315 0.813240
vt 0.293842 0.813240
vt 0.293842 0.827245
vt 0.135728 0.825407
vt 0.135728 0.813240
vt 0.147256 0.813240
vt 0.147256 0.825407
vt 0.184591 0.826964
vt 0.184591 0.813240
vt 0.196118 0.813240
vt 0.196118 0.826964
vt 0.119441 0.825406
vt 0.119441 0.813240
vt 0.130968 0.813240
vt 0.130968 0.825406
vt 0.810927 0.360098
vt 0.772042 0.359625
vt 0.771570 0.373161
vt 0.810927 0.360098
vt 0.810410 0.373121
vt 0.771570 0.373161
vt 0.772042 0.359625
vt 0.771570 0.373161
vt 0.810410 0.373121
vt 0.810927 0.360098
vt 0.772042 0.359625
vt 0.771570 0.373161
vt 0.772042 0.359625
vt 0.810927 0.360098
vt 0.810410 0.373121
vt 0.810410 0.373121
vt 0.810927 0.360098
vt 0.772042 0.359625
vt 0.771570 0.373161
vt 0.810927 0.360098
vt 0.810410 0.373121
vt 0.771570 0.373161
vt 0.772042 0.359625
vt 0.810410 0.373121
vt 0.810927 0.360098
vt 0.772042 0.359625
vt 0.771570 0.373161
vt 0.772042 0.359625
vt 0.771570 0.373161
vt 0.810410 0.373121
vt 0.870167 0.212317
vt 0.816888 0.217777
vt 0.870167 0.269099
vt 0.816888 0.274559
vt 0.870167 0.328136
vt 0.816888 0.333596
vt 0.810821 0.366019
vt 0.766990 0.366019
vt 0.766990 0.357731
vt 0.771570 0.373161
vt 0.810410 0.373121
vt 0.549018 0.471340
vt 0.563529 0.471340
vt 0.563529 0.515171
vt 0.549018 0.515171
vt 0.537455 0.471340
vt 0.544258 0.471340
vt 0.544258 0.515171
vt 0.537455 0.515171
vt 0.235617 0.724805
vt 0.282406 0.724805
vt 0.235617 0.796017
vt 0.235617 0.778214
vt 0.235617 0.760411
vt 0.235617 0.751510
vt 0.235617 0.742608
vt 0.282406 0.742608
vt 0.282406 0.760411
vt 0.282406 0.769313
vt 0.282406 0.778214
vt 0.282406 0.796017
vt 0.250127 0.803340
vt 0.267896 0.803340
vt 0.253946 0.810143
vt 0.264077 0.810143
vt 0.640837 0.478143
vt 0.644656 0.471340
vt 0.654787 0.471340
vt 0.658606 0.478143
vt 0.626327 0.485467
vt 0.673117 0.485467
vt 0.626327 0.556679
vt 0.626327 0.538876
vt 0.626327 0.521073
vt 0.626327 0.512172
vt 0.626327 0.503270
vt 0.673117 0.503270
vt 0.673117 0.512172
vt 0.673117 0.521073
vt 0.673117 0.538876
vt 0.673117 0.556679
vt 0.633709 0.564967
vt 0.665734 0.564967
vt 0.847231 0.550182
vt 0.793953 0.544723
vt 0.847231 0.606964
vt 0.793953 0.601505
vt 0.847231 0.639513
vt 0.793953 0.638317
vt 0.847231 0.678733
vt 0.847231 0.713154
vt 0.793953 0.709017
vt 0.793953 0.673274
vt 0.453975 0.410015
vt 0.453975 0.418303
vt 0.410144 0.418303
vt 0.772042 0.359625
vt 0.771570 0.373161
vt 0.772042 0.359625
vt 0.771570 0.373161
vt 0.810410 0.373121
vt 0.810927 0.360098
vt 0.517804 0.471340
vt 0.517804 0.515171
vt 0.503293 0.515171
vt 0.503293 0.471340
vt 0.491730 0.515171
vt 0.491730 0.471340
vt 0.498533 0.471340
vt 0.498533 0.515171
vt 0.568289 0.476400
vt 0.621567 0.471340
vt 0.771570 0.373161
vt 0.810410 0.373121
vt 0.810927 0.360098
vt 0.810410 0.373121
vt 0.771570 0.373161
vt 0.772042 0.359625
vt 0.772042 0.359625
vt 0.810927 0.360098
vt 0.810410 0.373121
vt 0.772042 0.359625
vt 0.810927 0.360098
vt 0.771570 0.373161
vt 0.810410 0.373121
vt 0.772042 0.359625
vt 0.810927 0.360098
vt 0.771570 0.373161
vt 0.772042 0.359625
vt 0.810927 0.360098
vt 0.772042 0.359625
vt 0.771570 0.373161
vt 0.810927 0.360098
vt 0.772042 0.359625
vt 0.810927 0.360098
vt 0.810410 0.373121
vt 0.771570 0.373161
vt 0.810927 0.360098
vt 0.772042 0.359625
vt 0.810927 0.360098
vt 0.810410 0.373121
vt 0.771570 0.373161
vt 0.810410 0.373121
vt 0.810927 0.360098
vt 0.772042 0.359625
vt 0.771570 0.373161
vt 0.810410 0.373121
vn -0.0756 0.3653 -0.9278
vn -0.5630 -0.0083 -0.8264
vn -0.8415 -0.5359 -0.0681
vn -0.5876 -0.6273 0.5111
vn -0.4845 0.8316 0.2714
vn 0.2659 0.5259 -0.8079
vn -0.2778 -0.4812 0.8314
vn -0.7747 -0.2628 -0.5751
vn 0.7748 0.2638 0.5746
vn 0.7515 0.3004 0.5874
vn 0.8676 0.1829 0.4623
vn 0.7362 0.4127 0.5363
vn 0.4849 -0.8299 -0.2761
vn -0.4062 -0.4887 0.7721
vn 0.4110 0.4804 -0.7748
vn -0.4853 0.8293 0.2771
vn -0.7748 -0.2638 -0.5746
vn 0.4950 -0.8184 -0.2917
vn 0.4062 0.4887 -0.7721
vn -0.4849 0.8311 0.2722
vn -0.4743 0.8435 0.2522
vn -0.4082 -0.4852 0.7732
vn 0.4842 -0.8320 -0.2708
vn 0.3984 0.5020 -0.7677
vn 0.4802 -0.8367 -0.2634
vn -0.4706 0.8475 0.2455
vn 0.4845 -0.8317 -0.2713
vn 0.6919 0.6266 -0.3586
vn 0.8521 0.4735 0.2230
vn -0.4796 -0.6071 0.6336
vn 0.2650 -0.2418 0.9334
vn 0.4509 0.5889 -0.6707
vn 0.3964 -0.0947 0.9132
vn 0.7708 0.2591 0.5820
vn 0.7923 0.2858 0.5391
vn 0.7509 0.2995 0.5887
vn -0.7934 -0.1145 -0.5979
vn -0.6650 -0.3349 -0.6675
vn -0.7041 -0.1867 -0.6852
vn -0.8296 -0.3714 -0.4170
vn -0.8496 -0.4446 -0.2839
vn -0.8506 -0.4525 -0.2679
vn -0.8504 -0.5027 -0.1554
vn -0.7239 -0.1898 -0.6633
vn -0.7438 -0.2171 -0.6322
vn -0.7471 -0.2220 -0.6265
vn -0.7772 -0.2677 -0.5695
vn -0.2964 0.1336 -0.9457
vn -0.5969 0.0144 -0.8022
vn -0.6861 -0.1699 -0.7074
vn 0.8313 0.3415 0.4385
vn -0.7771 -0.4225 0.4666
vn -0.7947 -0.5481 0.2608
vn -0.6251 -0.6810 0.3815
vn -0.8744 -0.4693 -0.1231
vn 0.4882 -0.8276 -0.2770
vn 0.5418 -0.7455 -0.3882
vn 0.4881 -0.8277 -0.2769
vn 0.4849 -0.8315 -0.2711
vn 0.4853 -0.8313 -0.2709
vn 0.4663 -0.8527 -0.2355
vn 0.4665 -0.8525 -0.2359
vn 0.4664 -0.8526 -0.2357
vn 0.4845 -0.8316 -0.2714
vn 0.4852 -0.8314 -0.2710
vn 0.6895 0.1459 0.7095
vn 0.5941 0.0395 0.8034
vn 0.6049 0.0507 0.7947
vn 0.5144 -0.0380 0.8567
vn 0.8157 0.3586 0.4539
vn 0.8332 0.3968 0.3852
vn 0.8329 0.3962 0.3864
vn 0.8122 0.2925 0.5047
vn 0.3650 -0.1978 0.9098
vn 0.3601 -0.2013 0.9109
vn 0.8186 0.3106 0.4830
vn 0.8467 0.5229 -0.0979
vn 0.8360 0.3466 0.4255
vn 0.8274 0.5007 0.2543
vn 0.7923 0.2857 0.5391
vn 0.7508 0.2994 0.5888
vn -0.0899 -0.1820 0.9792
vn 0.0671 -0.4511 0.8899
vn 0.1513 -0.2260 0.9623
vn 0.4768 -0.0091 0.8790
vn -0.2008 -0.5073 0.8381
vn 0.7926 0.2852 0.5389
vn -0.6999 -0.1822 -0.6906
usemtl initialShadingGroup.004
s off
f 1/1/1 2/2/1 3/3/1 4/4/1
f 4/5/2 3/6/2 5/7/2 6/8/2
f 7/9/3 8/10/3 9/11/3 10/12/3
f 10/13/4 9/14/4 11/15/4 12/16/4 13/17/4
f 14/18/5 1/19/5 4/20/5 6/21/5 15/22/5 16/23/5 17/24/5 7/25/5 10/26/5 13/27/5 18/28/5 19/29/5 20/30/5 21/31/5 22/32/5 23/33/5 24/34/5 25/35/5 26/36/5 27/37/5 28/38/5 29/39/5
f 30/40/6 2/2/6 1/1/6 14/41/6
f 13/17/7 12/16/7 31/42/7 18/43/7
f 11/44/8 32/45/8 33/46/8 12/47/8
f 34/48/9 35/49/9 36/50/10 37/51/9
f 38/52/9 39/53/11 35/49/12 34/54/9
f 32/55/13 11/56/13 40/57/13 41/58/13 42/59/13
f 43/60/14 44/61/14 45/62/14 46/63/14
f 47/64/15 33/65/15 48/66/15 49/67/15 50/68/15
f 31/69/16 12/70/16 33/71/16 47/72/16 50/73/16 51/74/16
f 52/75/17 53/76/17 54/77/17 55/78/17
f 56/79/17 57/80/17 58/81/17 59/82/17
f 60/83/17 61/84/17 62/85/17 63/86/17
f 64/87/14 52/88/14 55/89/14 65/90/14
f 65/91/18 55/92/18 54/93/18 66/94/18
f 66/95/19 54/96/19 53/97/19 67/98/19
f 67/99/20 53/100/20 52/101/20 64/102/20
f 68/103/21 56/104/21 59/105/21 69/106/21
f 69/107/22 59/108/22 58/109/22 70/110/22
f 70/111/23 58/112/23 57/113/23 71/114/23
f 71/115/24 57/116/24 56/117/24 68/118/24
f 72/119/14 60/120/14 63/121/14 73/122/14
f 73/123/25 63/124/25 62/125/25 74/126/25
f 74/127/19 62/128/19 61/129/19 75/130/19
f 75/131/26 61/132/26 60/133/26 72/134/26
f 30/135/27 76/136/27 77/137/27 78/138/27 79/139/27 80/140/27 81/141/27 82/142/27 83/143/27 84/144/27 85/145/27 41/58/27 40/57/27 11/56/27 9/146/27 8/147/27 86/148/27 87/149/27 88/150/27 5/151/27 3/152/27 2/153/27
f 29/154/28 28/155/28 77/156/28 76/157/28
f 28/158/29 27/159/29 78/160/29 77/161/29
f 21/162/30 20/163/30 85/164/30 84/165/30
f 20/166/31 19/167/31 51/168/31 41/169/31 85/170/31
f 30/40/32 14/41/32 29/154/32 76/157/32
f 19/171/33 18/43/33 31/42/33 51/172/33
f 41/169/34 51/168/34 50/173/34 42/174/34
f 89/175/9 90/176/9 37/177/9 91/178/9
f 92/179/9 93/180/9 94/181/9 95/182/9
f 96/183/9 97/184/9 98/185/9 99/186/9
f 100/187/9 101/188/9 102/189/9 103/190/9
f 38/191/14 34/192/14 93/193/14 92/194/14
f 34/195/18 37/196/18 94/197/18 93/198/18
f 37/199/19 90/200/19 95/201/19 94/202/19
f 90/203/20 38/204/20 92/205/20 95/206/20
f 104/207/21 105/208/21 97/209/21 96/210/21
f 105/211/22 106/212/22 98/213/22 97/214/22
f 106/215/23 107/216/23 99/217/23 98/218/23
f 107/219/24 104/220/24 96/221/24 99/222/24
f 89/223/14 91/224/14 101/225/14 100/226/14
f 91/227/25 108/228/25 102/229/25 101/230/25
f 108/231/19 109/232/19 103/233/19 102/234/19
f 109/235/26 89/236/26 100/237/26 103/238/26
f 91/178/9 110/239/35 111/240/36 108/241/9
f 106/242/9 105/243/9 109/244/9 108/245/9
f 73/246/17 74/247/17 112/248/17 113/249/17
f 64/250/17 65/251/17 114/252/37 115/253/38
f 65/254/17 66/255/17 116/256/17 114/257/39
f 72/258/17 73/259/17 66/260/17 67/261/17
f 70/262/17 74/263/17 75/264/17 69/265/17
f 72/258/17 117/266/17 118/267/17 75/268/17
s 1
f 6/8/40 5/7/40 88/269/41 15/270/42
f 15/270/42 88/269/41 87/271/43 16/272/43
f 16/272/44 87/271/44 86/273/45 17/274/46
f 17/274/46 86/273/45 8/10/47 7/9/47
f 32/45/48 119/275/49 120/276/50 48/277/48 33/46/48
f 121/278/9 39/53/51 38/52/9 90/279/9
f 114/280/52 122/281/53 123/282/53 115/283/54
f 122/284/53 44/285/55 43/286/55 123/287/53
f 119/288/56 32/55/57 42/59/57 124/289/58
f 114/290/59 116/291/60 113/292/60 112/293/60 125/294/60 119/288/56 124/289/58 126/295/61 111/296/62 110/297/63 36/298/63 35/299/59
f 122/300/64 114/290/65 35/299/65 127/301/64
f 44/302/64 122/300/64 127/301/64 45/303/64
f 123/304/5 43/305/5 46/306/5 128/307/5
f 115/308/5 123/304/5 128/307/5 39/309/5
f 120/310/5 129/311/5 118/312/5 117/313/5 130/314/5 115/308/5 39/309/5 121/315/5 131/316/5 132/317/5 133/318/5 134/319/5
f 48/320/5 120/310/5 134/319/5 49/321/5
f 27/159/66 26/322/67 79/323/68 78/160/66
f 26/322/67 25/324/69 80/325/69 79/323/68
f 25/324/70 24/326/71 81/327/72 80/325/70
f 23/328/73 22/329/74 83/330/75 82/331/76
f 42/174/77 50/173/77 49/332/77 134/333/78 124/334/79
f 36/335/80 110/336/81 91/178/9 37/51/9
f 121/337/9 90/338/9 89/339/9 131/340/9
f 35/341/82 39/342/83 128/343/84 127/344/84
f 127/345/84 128/346/84 46/347/85 45/348/85
f 83/349/75 22/350/74 21/162/86 84/165/86
f 81/327/72 24/326/71 23/328/73 82/331/76
f 111/351/87 126/352/80 106/242/9 108/245/9
f 126/353/80 124/354/79 107/355/9 106/356/9
f 124/357/79 134/358/78 104/359/9 107/355/9
f 132/360/9 109/361/9 105/243/9 133/362/9
f 132/363/9 131/340/9 89/364/9 109/244/9
f 133/365/9 105/243/9 104/366/9 134/367/78
f 73/259/17 113/368/17 116/256/17 66/260/17
f 112/369/17 74/370/17 70/262/17 125/371/17
f 125/372/17 70/373/17 71/374/17 119/375/49
f 119/375/49 71/374/17 68/376/17 120/377/50
f 69/378/17 75/264/17 118/267/17 129/379/17
f 130/380/17 117/266/17 72/258/17 67/381/17
f 115/253/88 130/382/17 67/261/17 64/250/17
f 129/383/17 120/384/50 68/385/17 69/378/17
