# Blender v2.79 (sub 6) OBJ File: 'bailarinaacortados.blend1'
# www.blender.org
mtllib guitarra3_000202.mtl
o Guitarra_2:pPlane4
v -10.680591 0.773553 7.882720
v -10.685734 1.352810 8.645777
v -11.123897 2.161418 7.955820
v -11.118753 1.582161 7.192762
v -10.877403 2.900570 7.275359
v -10.872260 2.321315 6.512301
v -8.178603 4.086700 4.725183
v -8.183743 4.665957 5.488243
v -7.379728 4.838997 5.271538
v -7.374585 4.259741 4.508478
v -6.130897 4.470007 5.503189
v -6.115879 4.122714 5.022502
v -6.121933 3.893641 4.739765
v -9.840692 0.110617 8.411406
v -10.163063 2.753183 6.071250
v -9.113424 3.063784 5.712542
v -8.573439 3.726315 5.078081
v -5.930556 3.731717 4.869958
v -5.940719 3.320230 5.238999
v -5.827122 2.826818 5.671837
v -5.181568 2.545552 5.873900
v -4.783063 2.186483 6.164593
v -5.127797 1.818620 6.520326
v -5.736020 1.532146 6.823487
v -6.156704 1.242623 7.114953
v -6.348443 0.403607 7.880575
v -6.765939 -0.207931 8.459983
v -7.675044 -0.538956 8.826159
v -8.811934 -0.377425 8.769047
v -9.831600 0.703053 9.161572
v -5.913300 3.973453 5.147492
v -3.401016 7.015853 3.043290
v -3.434320 6.628347 2.610295
v -2.092270 7.232773 2.441649
v -1.977168 7.493377 2.537398
v -2.203830 7.283057 2.742155
v -2.213462 7.117338 2.547257
v -2.106877 7.062828 2.251755
v -2.022033 6.971372 1.954114
v -5.909791 4.333819 5.608063
v -5.947355 3.895162 6.003527
v -2.952610 6.739663 3.255975
v -2.269556 7.361939 1.623616
v -2.224691 7.883947 2.206901
v -2.081606 7.795815 2.274768
v -2.126471 7.273808 1.691484
v -3.209921 6.492548 2.719203
v -3.447587 6.509372 2.477230
v -2.995318 6.230801 2.691748
v -2.985915 6.352156 2.822981
v -5.933500 3.548583 5.522286
v -2.930463 7.570106 1.861118
v -3.051368 7.458019 1.970467
v -3.037048 7.624616 2.156620
v -2.915856 7.740051 2.051013
v -3.501087 7.044664 2.381834
v -3.489222 7.209023 2.570258
v -3.370517 7.318856 2.462617
v -3.385739 7.148613 2.273633
v -3.153036 7.363371 2.061908
v -3.285613 7.245059 2.187779
v -3.271564 7.408512 2.370419
v -3.138699 7.530166 2.248279
v -2.767665 7.469833 1.938334
v -2.753059 7.639778 2.128230
v -2.874250 7.524343 2.233836
v -2.888570 7.357745 2.047682
v -3.338289 6.944391 2.459050
v -3.222942 7.048340 2.350851
v -3.207719 7.218583 2.539833
v -3.326424 7.108752 2.647473
v -2.990238 7.263100 2.139126
v -2.975903 7.429893 2.325498
v -3.108766 7.308239 2.447635
v -3.122815 7.144785 2.264997
v -8.817075 0.201830 9.532104
v -7.680184 0.040299 9.589218
v -6.771080 0.371325 9.223040
v -6.353584 0.982865 8.643632
v -6.161846 1.821881 7.878012
v -5.669477 2.139123 7.556226
v -5.132940 2.397876 7.283387
v -4.845209 2.823136 6.880669
v -5.186710 3.124809 6.636958
v -5.832263 3.406076 6.434895
v -8.578581 4.305570 5.841140
v -9.118567 3.643043 6.475603
v -10.168205 3.332442 6.834309
v -2.329449 6.856093 2.452546
v -2.227781 6.950739 2.361103
v -2.315114 7.022886 2.638918
v -1.944079 6.962554 2.328973
v -1.929472 7.132499 2.518867
v -2.050663 7.017066 2.624474
v -2.064984 6.850467 2.438321
v -2.514704 6.437111 2.849689
v -2.399355 6.541060 2.741488
v -2.384133 6.711305 2.930472
v -2.502838 6.601472 3.038111
v -2.166652 6.755820 2.529763
v -2.152316 6.922613 2.716135
v -2.285180 6.800959 2.838273
v -2.299229 6.637506 2.655634
v -2.677500 6.537385 2.772471
v -2.562152 6.641335 2.664271
v -2.546929 6.811578 2.853254
v -2.665635 6.701746 2.960895
v -2.447978 6.901233 2.761057
v -2.462026 6.737780 2.578417
v -2.312053 7.182695 2.839993
v -2.444336 7.059744 2.959219
v -3.096562 7.476034 2.639806
v -2.961867 7.601255 2.518435
v -2.637957 7.900383 2.223978
v -2.682822 7.378378 1.640692
v -2.832564 7.720161 2.400235
v -3.006310 7.078396 1.933154
v -3.137169 6.956780 2.051116
v -3.416383 7.179499 2.929007
v -3.461248 6.657491 2.345722
v -2.240355 6.768884 2.151457
v -2.352981 7.848297 2.248673
v -2.397847 7.326290 1.665389
v -2.755595 6.772493 3.242428
v -3.201801 7.378474 2.734990
v -2.542383 6.970182 3.049630
v -2.102041 7.693733 2.367697
v -2.146907 7.171727 1.784413
v -3.241984 6.860864 2.147544
v -2.893451 7.183114 1.831197
v -2.333157 6.682999 2.235583
v -2.476789 6.549390 2.364902
v -2.586667 6.448720 2.465829
v -2.800459 6.250485 2.659144
vt 0.735914 0.659422
vt 0.789193 0.659422
vt 0.789193 0.715185
vt 0.735914 0.715185
vt 0.816888 0.113382
vt 0.870167 0.107923
vt 0.870167 0.160781
vt 0.816888 0.166240
vt 0.816888 0.369404
vt 0.870167 0.363945
vt 0.870167 0.403590
vt 0.816888 0.409050
vt 0.731155 0.575499
vt 0.677876 0.575499
vt 0.677981 0.505501
vt 0.710850 0.505460
vt 0.731155 0.505418
vt 0.616009 0.468244
vt 0.549850 0.459605
vt 0.494086 0.427645
vt 0.470627 0.374786
vt 0.480954 0.323250
vt 0.511328 0.266468
vt 0.503868 0.207431
vt 0.504109 0.171623
vt 0.530354 0.131977
vt 0.600435 0.107922
vt 0.616009 0.110536
vt 0.634472 0.135319
vt 0.661960 0.160441
vt 0.702327 0.153537
vt 0.735762 0.160278
vt 0.737994 0.194699
vt 0.725284 0.233919
vt 0.720689 0.266468
vt 0.751063 0.323250
vt 0.761390 0.374786
vt 0.737931 0.427645
vt 0.682167 0.459605
vt 0.789193 0.593263
vt 0.735914 0.593263
vt 0.710560 0.489845
vt 0.731155 0.489845
vt 0.808348 0.107923
vt 0.809532 0.357831
vt 0.776995 0.357831
vt 0.775479 0.112321
vt 0.772042 0.359625
vt 0.771570 0.373161
vt 0.810410 0.373121
vt 0.810927 0.360098
vt 0.810927 0.360098
vt 0.772042 0.359625
vt 0.810410 0.373121
vt 0.243136 0.716617
vt 0.243355 0.466708
vt 0.259011 0.466708
vt 0.277557 0.439312
vt 0.274887 0.716617
vt 0.522564 0.515171
vt 0.522564 0.471340
vt 0.532696 0.471340
vt 0.532696 0.515171
vt 0.486970 0.487353
vt 0.486778 0.503228
vt 0.476773 0.503365
vt 0.476773 0.471340
vt 0.486778 0.471477
vt 0.867866 0.659325
vt 0.852251 0.657656
vt 0.851991 0.412147
vt 0.867866 0.412147
vt 0.883742 0.412147
vt 0.886370 0.685053
vt 0.472013 0.506882
vt 0.460953 0.506893
vt 0.460953 0.492905
vt 0.472013 0.492612
vt 0.397163 0.827232
vt 0.396938 0.813240
vt 0.407799 0.813249
vt 0.407740 0.827494
vt 0.343983 0.827371
vt 0.331817 0.826964
vt 0.331817 0.813240
vt 0.343983 0.813366
vt 0.440374 0.506882
vt 0.428846 0.506882
vt 0.428846 0.492612
vt 0.440374 0.492612
vt 0.124689 0.828503
vt 0.124689 0.840031
vt 0.113630 0.840031
vt 0.113630 0.828503
vt 0.244980 0.827228
vt 0.233453 0.827228
vt 0.233453 0.813240
vt 0.244980 0.813240
vt 0.141473 0.828503
vt 0.141473 0.840031
vt 0.130413 0.840031
vt 0.130413 0.828503
vt 0.157623 0.828503
vt 0.157623 0.840031
vt 0.147046 0.840031
vt 0.147046 0.828503
vt 0.376558 0.827485
vt 0.365031 0.827485
vt 0.365031 0.813240
vt 0.376558 0.813240
vt 0.174539 0.828503
vt 0.174539 0.840031
vt 0.163679 0.840031
vt 0.163679 0.828503
vt 0.277555 0.827232
vt 0.266028 0.827232
vt 0.266028 0.813240
vt 0.277555 0.813240
vt 0.310130 0.827245
vt 0.298602 0.827245
vt 0.298602 0.813240
vt 0.310130 0.813240
vt 0.179831 0.825407
vt 0.168303 0.825407
vt 0.168303 0.813240
vt 0.179831 0.813240
vt 0.212405 0.826964
vt 0.200878 0.826964
vt 0.200878 0.813240
vt 0.212405 0.813240
vt 0.163543 0.825406
vt 0.152016 0.825406
vt 0.152016 0.813240
vt 0.163543 0.813240
vt 0.259011 0.107923
vt 0.325170 0.115259
vt 0.380934 0.147220
vt 0.404393 0.200078
vt 0.394066 0.251614
vt 0.363692 0.308396
vt 0.370063 0.345209
vt 0.380997 0.380166
vt 0.373705 0.415909
vt 0.345330 0.421327
vt 0.304962 0.414424
vt 0.173357 0.442887
vt 0.147112 0.403242
vt 0.146870 0.367433
vt 0.154331 0.308396
vt 0.123957 0.251614
vt 0.113630 0.200078
vt 0.137089 0.147220
vt 0.192853 0.115259
vt 0.735914 0.527104
vt 0.735914 0.471340
vt 0.789193 0.471340
vt 0.789193 0.527104
vt 0.847231 0.445787
vt 0.847231 0.498646
vt 0.793953 0.493186
vt 0.793953 0.440328
vt 0.621567 0.504775
vt 0.621567 0.545143
vt 0.568289 0.545143
vt 0.568289 0.504775
vt 0.465791 0.113382
vt 0.465791 0.138503
vt 0.445487 0.137209
vt 0.412617 0.132810
vt 0.412513 0.107923
vt 0.731155 0.471382
vt 0.710850 0.471340
vt 0.443970 0.410115
vt 0.411433 0.410115
vt 0.810927 0.360098
vt 0.772042 0.359625
vt 0.771570 0.373161
vt 0.810410 0.373121
vt 0.456193 0.492623
vt 0.456193 0.506893
vt 0.445134 0.506601
vt 0.445134 0.492612
vt 0.381543 0.813502
vt 0.392120 0.813240
vt 0.392178 0.827485
vt 0.381318 0.827493
vt 0.327057 0.813240
vt 0.327057 0.827245
vt 0.314890 0.827371
vt 0.314890 0.813647
vt 0.412559 0.506882
vt 0.412559 0.492612
vt 0.424086 0.492612
vt 0.424086 0.506882
vt 0.191371 0.841588
vt 0.180311 0.841588
vt 0.180311 0.830061
vt 0.191371 0.830061
vt 0.217165 0.827228
vt 0.217165 0.813240
vt 0.228693 0.813240
vt 0.228693 0.827228
vt 0.208004 0.841588
vt 0.196944 0.841588
vt 0.196944 0.830061
vt 0.208004 0.830061
vt 0.224154 0.841852
vt 0.213577 0.841852
vt 0.213577 0.830325
vt 0.224154 0.830325
vt 0.348743 0.827485
vt 0.348743 0.813240
vt 0.360271 0.813240
vt 0.360271 0.827485
vt 0.241070 0.841852
vt 0.230209 0.841852
vt 0.230209 0.830325
vt 0.241070 0.830325
vt 0.249740 0.827232
vt 0.249740 0.813240
vt 0.261268 0.813240
vt 0.261268 0.827232
vt 0.282315 0.827245
vt 0.282315 0.813240
vt 0.293842 0.813240
vt 0.293842 0.827245
vt 0.135728 0.825407
vt 0.135728 0.813240
vt 0.147256 0.813240
vt 0.147256 0.825407
vt 0.184591 0.826964
vt 0.184591 0.813240
vt 0.196118 0.813240
vt 0.196118 0.826964
vt 0.119441 0.825406
vt 0.119441 0.813240
vt 0.130968 0.813240
vt 0.130968 0.825406
vt 0.810927 0.360098
vt 0.772042 0.359625
vt 0.771570 0.373161
vt 0.810927 0.360098
vt 0.810410 0.373121
vt 0.771570 0.373161
vt 0.772042 0.359625
vt 0.771570 0.373161
vt 0.810410 0.373121
vt 0.810927 0.360098
vt 0.772042 0.359625
vt 0.771570 0.373161
vt 0.772042 0.359625
vt 0.810927 0.360098
vt 0.810410 0.373121
vt 0.810410 0.373121
vt 0.810927 0.360098
vt 0.772042 0.359625
vt 0.771570 0.373161
vt 0.810927 0.360098
vt 0.810410 0.373121
vt 0.771570 0.373161
vt 0.772042 0.359625
vt 0.810410 0.373121
vt 0.810927 0.360098
vt 0.772042 0.359625
vt 0.771570 0.373161
vt 0.772042 0.359625
vt 0.771570 0.373161
vt 0.810410 0.373121
vt 0.870167 0.212317
vt 0.816888 0.217777
vt 0.870167 0.269099
vt 0.816888 0.274559
vt 0.870167 0.328136
vt 0.816888 0.333596
vt 0.810821 0.366019
vt 0.766990 0.366019
vt 0.766990 0.357731
vt 0.771570 0.373161
vt 0.810410 0.373121
vt 0.549018 0.471340
vt 0.563529 0.471340
vt 0.563529 0.515171
vt 0.549018 0.515171
vt 0.537455 0.471340
vt 0.544258 0.471340
vt 0.544258 0.515171
vt 0.537455 0.515171
vt 0.235617 0.724805
vt 0.282406 0.724805
vt 0.235617 0.796017
vt 0.235617 0.778214
vt 0.235617 0.760411
vt 0.235617 0.751510
vt 0.235617 0.742608
vt 0.282406 0.742608
vt 0.282406 0.760411
vt 0.282406 0.769313
vt 0.282406 0.778214
vt 0.282406 0.796017
vt 0.250127 0.803340
vt 0.267896 0.803340
vt 0.253946 0.810143
vt 0.264077 0.810143
vt 0.640837 0.478143
vt 0.644656 0.471340
vt 0.654787 0.471340
vt 0.658606 0.478143
vt 0.626327 0.485467
vt 0.673117 0.485467
vt 0.626327 0.556679
vt 0.626327 0.538876
vt 0.626327 0.521073
vt 0.626327 0.512172
vt 0.626327 0.503270
vt 0.673117 0.503270
vt 0.673117 0.512172
vt 0.673117 0.521073
vt 0.673117 0.538876
vt 0.673117 0.556679
vt 0.633709 0.564967
vt 0.665734 0.564967
vt 0.847231 0.550182
vt 0.793953 0.544723
vt 0.847231 0.606964
vt 0.793953 0.601505
vt 0.847231 0.639513
vt 0.793953 0.638317
vt 0.847231 0.678733
vt 0.847231 0.713154
vt 0.793953 0.709017
vt 0.793953 0.673274
vt 0.453975 0.410015
vt 0.453975 0.418303
vt 0.410144 0.418303
vt 0.772042 0.359625
vt 0.771570 0.373161
vt 0.772042 0.359625
vt 0.771570 0.373161
vt 0.810410 0.373121
vt 0.810927 0.360098
vt 0.517804 0.471340
vt 0.517804 0.515171
vt 0.503293 0.515171
vt 0.503293 0.471340
vt 0.491730 0.515171
vt 0.491730 0.471340
vt 0.498533 0.471340
vt 0.498533 0.515171
vt 0.568289 0.476400
vt 0.621567 0.471340
vt 0.771570 0.373161
vt 0.810410 0.373121
vt 0.810927 0.360098
vt 0.810410 0.373121
vt 0.771570 0.373161
vt 0.772042 0.359625
vt 0.772042 0.359625
vt 0.810927 0.360098
vt 0.810410 0.373121
vt 0.772042 0.359625
vt 0.810927 0.360098
vt 0.771570 0.373161
vt 0.810410 0.373121
vt 0.772042 0.359625
vt 0.810927 0.360098
vt 0.771570 0.373161
vt 0.772042 0.359625
vt 0.810927 0.360098
vt 0.772042 0.359625
vt 0.771570 0.373161
vt 0.810927 0.360098
vt 0.772042 0.359625
vt 0.810927 0.360098
vt 0.810410 0.373121
vt 0.771570 0.373161
vt 0.810927 0.360098
vt 0.772042 0.359625
vt 0.810927 0.360098
vt 0.810410 0.373121
vt 0.771570 0.373161
vt 0.810410 0.373121
vt 0.810927 0.360098
vt 0.772042 0.359625
vt 0.771570 0.373161
vt 0.810410 0.373121
vn -0.9242 -0.3072 0.2269
vn -0.9710 0.1871 -0.1486
vn -0.3173 0.7543 -0.5748
vn 0.3217 0.7563 -0.5696
vn -0.0572 -0.6658 -0.7439
vn -0.7036 -0.5610 0.4362
vn 0.7142 0.5209 -0.4674
vn -0.7901 0.4853 -0.3745
vn 0.7895 -0.4863 0.3745
vn 0.7870 -0.5150 0.3397
vn 0.7349 -0.4325 0.5224
vn 0.7191 -0.6171 0.3194
vn 0.0529 0.6641 0.7458
vn 0.6111 0.5659 -0.5535
vn -0.6105 -0.5593 0.5608
vn -0.0521 -0.6635 -0.7464
vn -0.7895 0.4863 -0.3745
vn 0.0411 0.6506 0.7583
vn -0.6111 -0.5659 0.5535
vn -0.0566 -0.6652 -0.7445
vn -0.0723 -0.6796 -0.7300
vn 0.6108 0.5632 -0.5565
vn 0.0577 0.6663 0.7435
vn -0.6119 -0.5765 0.5414
vn 0.0636 0.6716 0.7381
vn -0.0776 -0.6843 -0.7250
vn 0.0573 0.6658 0.7439
vn -0.1421 -0.7889 0.5979
vn 0.4709 -0.7011 0.5354
vn 0.4726 0.7034 -0.5308
vn 0.9864 0.1348 -0.0943
vn -0.5151 -0.6771 0.5256
vn 0.9990 -0.0430 -0.0076
vn 0.7953 -0.4808 0.3691
vn 0.7611 -0.5115 0.3990
vn 0.7880 -0.5140 0.3388
vn -0.8386 0.3490 -0.4183
vn -0.8214 0.5253 -0.2222
vn -0.8731 0.3948 -0.2860
vn -0.6528 0.6013 -0.4608
vn -0.5293 0.6741 -0.5152
vn -0.5141 0.6815 -0.5208
vn -0.4047 0.7270 -0.5546
vn -0.8605 0.4029 -0.3117
vn -0.8362 0.4340 -0.3352
vn -0.8317 0.4395 -0.3392
vn -0.7853 0.4906 -0.3777
vn -0.9949 -0.0220 0.0988
vn -0.9654 0.1744 -0.1939
vn -0.8886 0.3741 -0.2653
vn 0.6771 -0.5736 0.4610
vn 0.1789 0.6149 -0.7681
vn 0.0020 0.7451 -0.6670
vn 0.1965 0.8215 -0.5353
vn -0.3893 0.7010 -0.5974
vn 0.0531 0.6611 0.7485
vn -0.0385 0.5697 0.8209
vn 0.0531 0.6611 0.7484
vn 0.0576 0.6655 0.7441
vn 0.0580 0.6653 0.7443
vn 0.0857 0.6903 0.7184
vn 0.0854 0.6900 0.7187
vn 0.0856 0.6902 0.7185
vn 0.0577 0.6655 0.7441
vn 0.0572 0.6658 0.7439
vn 0.0579 0.6654 0.7443
vn -0.0572 -0.6658 -0.7440
vn 0.8951 -0.3521 0.2733
vn 0.9580 -0.2252 0.1775
vn 0.9527 -0.2388 0.1877
vn 0.9860 -0.1295 0.1050
vn 0.6827 -0.5859 0.4366
vn 0.6217 -0.6259 0.4708
vn 0.6227 -0.6253 0.4703
vn 0.7366 -0.5228 0.4290
vn 0.9979 0.0648 -0.0080
vn 0.9975 0.0695 -0.0118
vn 0.7169 -0.5415 0.4391
vn 0.1700 -0.7395 0.6513
vn 0.6664 -0.5795 0.4692
vn 0.4860 -0.7209 0.4941
vn 0.7611 -0.5114 0.3991
vn 0.7882 -0.5139 0.3387
vn 0.8809 0.1773 -0.4388
vn 0.8982 0.3927 -0.1973
vn 0.9660 0.1514 -0.2098
vn 0.9660 0.1514 -0.2097
vn 0.9876 -0.1470 0.0556
vn 0.7540 0.5239 -0.3963
vn 0.7611 -0.5110 0.3995
vn -0.8771 0.3894 -0.2813
usemtl initialShadingGroup.004
s off
f 1/1/1 2/2/1 3/3/1 4/4/1
f 4/5/2 3/6/2 5/7/2 6/8/2
f 7/9/3 8/10/3 9/11/3 10/12/3
f 10/13/4 9/14/4 11/15/4 12/16/4 13/17/4
f 14/18/5 1/19/5 4/20/5 6/21/5 15/22/5 16/23/5 17/24/5 7/25/5 10/26/5 13/27/5 18/28/5 19/29/5 20/30/5 21/31/5 22/32/5 23/33/5 24/34/5 25/35/5 26/36/5 27/37/5 28/38/5 29/39/5
f 30/40/6 2/2/6 1/1/6 14/41/6
f 13/17/7 12/16/7 31/42/7 18/43/7
f 11/44/8 32/45/8 33/46/8 12/47/8
f 34/48/9 35/49/9 36/50/10 37/51/9
f 38/52/9 39/53/11 35/49/12 34/54/9
f 32/55/13 11/56/13 40/57/13 41/58/13 42/59/13
f 43/60/14 44/61/14 45/62/14 46/63/14
f 47/64/15 33/65/15 48/66/15 49/67/15 50/68/15
f 31/69/16 12/70/16 33/71/16 47/72/16 50/73/16 51/74/16
f 52/75/17 53/76/17 54/77/17 55/78/17
f 56/79/17 57/80/17 58/81/17 59/82/17
f 60/83/17 61/84/17 62/85/17 63/86/17
f 64/87/14 52/88/14 55/89/14 65/90/14
f 65/91/18 55/92/18 54/93/18 66/94/18
f 66/95/19 54/96/19 53/97/19 67/98/19
f 67/99/20 53/100/20 52/101/20 64/102/20
f 68/103/21 56/104/21 59/105/21 69/106/21
f 69/107/22 59/108/22 58/109/22 70/110/22
f 70/111/23 58/112/23 57/113/23 71/114/23
f 71/115/24 57/116/24 56/117/24 68/118/24
f 72/119/14 60/120/14 63/121/14 73/122/14
f 73/123/25 63/124/25 62/125/25 74/126/25
f 74/127/19 62/128/19 61/129/19 75/130/19
f 75/131/26 61/132/26 60/133/26 72/134/26
f 30/135/27 76/136/27 77/137/27 78/138/27 79/139/27 80/140/27 81/141/27 82/142/27 83/143/27 84/144/27 85/145/27 41/58/27 40/57/27 11/56/27 9/146/27 8/147/27 86/148/27 87/149/27 88/150/27 5/151/27 3/152/27 2/153/27
f 29/154/28 28/155/28 77/156/28 76/157/28
f 28/158/29 27/159/29 78/160/29 77/161/29
f 21/162/30 20/163/30 85/164/30 84/165/30
f 20/166/31 19/167/31 51/168/31 41/169/31 85/170/31
f 30/40/32 14/41/32 29/154/32 76/157/32
f 19/171/33 18/43/33 31/42/33 51/172/33
f 41/169/34 51/168/34 50/173/34 42/174/34
f 89/175/9 90/176/9 37/177/9 91/178/9
f 92/179/9 93/180/9 94/181/9 95/182/9
f 96/183/9 97/184/9 98/185/9 99/186/9
f 100/187/9 101/188/9 102/189/9 103/190/9
f 38/191/14 34/192/14 93/193/14 92/194/14
f 34/195/18 37/196/18 94/197/18 93/198/18
f 37/199/19 90/200/19 95/201/19 94/202/19
f 90/203/20 38/204/20 92/205/20 95/206/20
f 104/207/21 105/208/21 97/209/21 96/210/21
f 105/211/22 106/212/22 98/213/22 97/214/22
f 106/215/23 107/216/23 99/217/23 98/218/23
f 107/219/24 104/220/24 96/221/24 99/222/24
f 89/223/14 91/224/14 101/225/14 100/226/14
f 91/227/25 108/228/25 102/229/25 101/230/25
f 108/231/19 109/232/19 103/233/19 102/234/19
f 109/235/26 89/236/26 100/237/26 103/238/26
f 91/178/9 110/239/35 111/240/36 108/241/9
f 106/242/9 105/243/9 109/244/9 108/245/9
f 73/246/17 74/247/17 112/248/17 113/249/17
f 64/250/17 65/251/17 114/252/37 115/253/38
f 65/254/17 66/255/17 116/256/17 114/257/39
f 72/258/17 73/259/17 66/260/17 67/261/17
f 70/262/17 74/263/17 75/264/17 69/265/17
f 72/258/17 117/266/17 118/267/17 75/268/17
s 1
f 6/8/40 5/7/40 88/269/41 15/270/42
f 15/270/42 88/269/41 87/271/43 16/272/43
f 16/272/44 87/271/44 86/273/45 17/274/46
f 17/274/46 86/273/45 8/10/47 7/9/47
f 32/45/48 119/275/49 120/276/50 48/277/48 33/46/48
f 121/278/9 39/53/51 38/52/9 90/279/9
f 114/280/52 122/281/53 123/282/53 115/283/54
f 122/284/53 44/285/55 43/286/55 123/287/53
f 119/288/56 32/55/57 42/59/57 124/289/58
f 114/290/59 116/291/60 113/292/60 112/293/60 125/294/60 119/288/56 124/289/58 126/295/61 111/296/62 110/297/63 36/298/63 35/299/64
f 122/300/65 114/290/66 35/299/66 127/301/65
f 44/302/65 122/300/65 127/301/65 45/303/65
f 123/304/5 43/305/5 46/306/5 128/307/5
f 115/308/67 123/304/5 128/307/5 39/309/67
f 120/310/67 129/311/67 118/312/67 117/313/67 130/314/67 115/308/67 39/309/67 121/315/67 131/316/67 132/317/67 133/318/67 134/319/67
f 48/320/5 120/310/67 134/319/67 49/321/5
f 27/159/68 26/322/69 79/323/70 78/160/68
f 26/322/69 25/324/71 80/325/71 79/323/70
f 25/324/72 24/326/73 81/327/74 80/325/72
f 23/328/75 22/329/76 83/330/77 82/331/78
f 42/174/79 50/173/79 49/332/79 134/333/80 124/334/81
f 36/335/82 110/336/83 91/178/9 37/51/9
f 121/337/9 90/338/9 89/339/9 131/340/9
f 35/341/84 39/342/85 128/343/86 127/344/87
f 127/345/87 128/346/86 46/347/88 45/348/88
f 83/349/77 22/350/76 21/162/89 84/165/89
f 81/327/74 24/326/73 23/328/75 82/331/78
f 111/351/90 126/352/82 106/242/9 108/245/9
f 126/353/82 124/354/81 107/355/9 106/356/9
f 124/357/81 134/358/80 104/359/9 107/355/9
f 132/360/9 109/361/9 105/243/9 133/362/9
f 132/363/9 131/340/9 89/364/9 109/244/9
f 133/365/9 105/243/9 104/366/9 134/367/80
f 73/259/17 113/368/17 116/256/17 66/260/17
f 112/369/17 74/370/17 70/262/17 125/371/17
f 125/372/17 70/373/17 71/374/17 119/375/49
f 119/375/49 71/374/17 68/376/17 120/377/50
f 69/378/17 75/264/17 118/267/17 129/379/17
f 130/380/17 117/266/17 72/258/17 67/381/17
f 115/253/91 130/382/17 67/261/17 64/250/17
f 129/383/17 120/384/50 68/385/17 69/378/17
