# Blender v2.79 (sub 6) OBJ File: 'bailarina.blend1'
# www.blender.org
mtllib Guitarra3_000018.mtl
o Guitarra_2:pPlane4
v -4.906998 24.003344 0.914554
v -5.498397 23.910946 1.662571
v -4.560622 23.763002 2.311081
v -3.969224 23.855400 1.563063
v -3.877028 23.060305 2.641299
v -3.285627 23.152702 1.893281
v -2.217797 19.628269 1.827704
v -2.809198 19.535872 2.575723
v -2.849440 18.716824 2.350147
v -2.258039 18.809219 1.602126
v -3.556525 17.863861 1.627732
v -3.184630 17.903847 1.167304
v -2.965536 17.951561 0.880646
v -5.804822 23.703070 0.187798
v -3.037886 22.246449 1.856849
v -3.004507 21.121435 1.611660
v -2.477392 20.211765 1.778167
v -3.181138 17.890297 0.708723
v -3.595794 18.170055 0.473323
v -4.126757 18.395191 0.140010
v -4.585289 18.014147 -0.285704
v -5.056444 17.900986 -0.656448
v -5.337064 18.445461 -0.730669
v -5.464424 19.167454 -0.650582
v -5.645203 19.726974 -0.648382
v -6.444786 20.447382 -1.058951
v -6.953051 21.216063 -1.245486
v -7.044857 22.231264 -1.069221
v -6.575927 23.122040 -0.513800
v -6.386670 23.589508 0.937711
v -3.396834 17.825974 1.000435
v -1.733010 13.800280 2.010838
v -1.396294 13.910887 1.549164
v -1.581473 12.441569 1.508059
v -1.659289 12.244080 1.720833
v -1.810965 12.581104 1.690108
v -1.659570 12.622281 1.487808
v -1.433803 12.490079 1.305586
v -1.205700 12.393077 1.098916
v -3.753999 17.759583 1.458723
v -4.188861 18.081255 1.218628
v -2.133490 13.588800 1.668089
v -0.743113 12.353090 1.426717
v -1.196701 12.204092 2.048635
v -1.324492 12.136610 1.939265
v -0.870905 12.285608 1.317346
v -1.598530 13.804494 1.380524
v -1.291768 13.947433 1.408537
v -1.695696 13.734133 1.062834
v -1.796772 13.699408 1.206414
v -3.815925 18.121788 0.759090
v -0.698245 12.878502 1.935114
v -0.779251 13.058258 1.918852
v -0.924012 13.010704 2.117336
v -0.845915 12.829993 2.137586
v -1.084151 13.726272 1.862940
v -1.230597 13.682362 2.061143
v -1.150848 13.505913 2.076831
v -1.003863 13.555288 1.874627
v -0.846973 13.209482 1.904677
v -0.940423 13.405804 1.892735
v -1.082452 13.359148 2.087472
v -0.991903 13.161872 2.103393
v -0.843641 12.801722 1.810676
v -0.991312 12.753214 2.013149
v -1.069407 12.933925 1.992898
v -0.924647 12.981479 1.794415
v -1.229549 13.649493 1.738503
v -1.149261 13.478511 1.750188
v -1.296244 13.429132 1.952393
v -1.375994 13.605582 1.936705
v -0.992371 13.132701 1.780239
v -1.137300 13.085093 1.978955
v -1.227849 13.282369 1.963033
v -1.085821 13.329025 1.768297
v -7.167325 23.029642 0.234217
v -7.636257 22.138866 -0.321203
v -7.544450 21.123663 -0.497468
v -7.036184 20.354982 -0.310930
v -6.236603 19.634573 0.099640
v -6.046947 18.993938 0.084477
v -5.928466 18.353064 0.017349
v -5.574325 17.820803 0.148117
v -5.176690 17.921749 0.462313
v -4.718157 18.302792 0.888029
v -3.068793 20.119368 2.526187
v -3.595908 21.029036 2.359680
v -3.629285 22.154049 2.604867
v -1.582532 12.821059 1.275149
v -1.514808 12.669835 1.289325
v -1.727462 12.773450 1.473865
v -1.579199 12.413300 1.181148
v -1.726871 12.364791 1.383620
v -1.804966 12.545502 1.363370
v -1.660206 12.593057 1.164886
v -1.965106 13.261069 1.108974
v -1.884819 13.090087 1.120660
v -2.031802 13.040709 1.322865
v -2.111551 13.217160 1.307177
v -1.727930 12.744280 1.150711
v -1.872859 12.696671 1.349427
v -1.963407 12.893946 1.333506
v -1.821379 12.940602 1.138768
v -1.819709 13.337849 1.233412
v -1.739422 13.166865 1.245099
v -1.886406 13.117489 1.447303
v -1.966155 13.293939 1.431616
v -1.818011 12.970726 1.457944
v -1.675982 13.017382 1.263207
v -1.883441 12.742012 1.675512
v -1.971750 12.938738 1.657314
v -1.377210 13.237421 2.165284
v -1.287313 13.037100 2.183845
v -1.069127 12.555723 2.225924
v -0.615538 12.704720 1.604007
v -1.199706 12.845023 2.199996
v -0.832191 13.185685 1.560391
v -0.919565 13.380293 1.542405
v -1.591449 13.712924 2.122219
v -1.137860 13.861921 1.500301
v -1.351888 12.717685 1.069441
v -1.198434 12.340072 2.079949
v -0.744847 12.489072 1.458031
v -2.181611 13.401280 1.617128
v -1.447722 13.393884 2.151134
v -2.038786 13.084281 1.645839
v -1.422553 12.221722 1.888139
v -0.968965 12.370723 1.266220
v -0.991054 13.535912 1.529917
v -0.756663 13.017874 1.575682
v -1.414216 12.855635 1.057151
v -1.509995 13.069257 1.037254
v -1.584816 13.232414 1.024008
v -1.728022 13.550280 0.995210
vt 0.735914 0.659422
vt 0.789193 0.659422
vt 0.789193 0.715185
vt 0.735914 0.715185
vt 0.816888 0.113382
vt 0.870167 0.107923
vt 0.870167 0.160781
vt 0.816888 0.166240
vt 0.816888 0.369404
vt 0.870167 0.363945
vt 0.870167 0.403590
vt 0.816888 0.409050
vt 0.731155 0.575499
vt 0.677876 0.575499
vt 0.677981 0.505501
vt 0.710850 0.505460
vt 0.731155 0.505418
vt 0.616009 0.468244
vt 0.549850 0.459605
vt 0.494086 0.427645
vt 0.470627 0.374786
vt 0.480954 0.323250
vt 0.511328 0.266468
vt 0.503868 0.207431
vt 0.504109 0.171623
vt 0.530354 0.131977
vt 0.600435 0.107922
vt 0.616009 0.110536
vt 0.634472 0.135319
vt 0.661960 0.160441
vt 0.702327 0.153537
vt 0.735762 0.160278
vt 0.737994 0.194699
vt 0.725284 0.233919
vt 0.720689 0.266468
vt 0.751063 0.323250
vt 0.761390 0.374786
vt 0.737931 0.427645
vt 0.682167 0.459605
vt 0.789193 0.593263
vt 0.735914 0.593263
vt 0.710560 0.489845
vt 0.731155 0.489845
vt 0.808348 0.107923
vt 0.809532 0.357831
vt 0.776995 0.357831
vt 0.775479 0.112321
vt 0.772042 0.359625
vt 0.771570 0.373161
vt 0.810410 0.373121
vt 0.810927 0.360098
vt 0.810927 0.360098
vt 0.772042 0.359625
vt 0.810410 0.373121
vt 0.243136 0.716617
vt 0.243355 0.466708
vt 0.259011 0.466708
vt 0.277557 0.439312
vt 0.274887 0.716617
vt 0.522564 0.515171
vt 0.522564 0.471340
vt 0.532696 0.471340
vt 0.532696 0.515171
vt 0.486970 0.487353
vt 0.486778 0.503228
vt 0.476773 0.503365
vt 0.476773 0.471340
vt 0.486778 0.471477
vt 0.867866 0.659325
vt 0.852251 0.657656
vt 0.851991 0.412147
vt 0.867866 0.412147
vt 0.883742 0.412147
vt 0.886370 0.685053
vt 0.472013 0.506882
vt 0.460953 0.506893
vt 0.460953 0.492905
vt 0.472013 0.492612
vt 0.397163 0.827232
vt 0.396938 0.813240
vt 0.407799 0.813249
vt 0.407740 0.827494
vt 0.343983 0.827371
vt 0.331817 0.826964
vt 0.331817 0.813240
vt 0.343983 0.813366
vt 0.440374 0.506882
vt 0.428846 0.506882
vt 0.428846 0.492612
vt 0.440374 0.492612
vt 0.124689 0.828503
vt 0.124689 0.840031
vt 0.113630 0.840031
vt 0.113630 0.828503
vt 0.244980 0.827228
vt 0.233453 0.827228
vt 0.233453 0.813240
vt 0.244980 0.813240
vt 0.141473 0.828503
vt 0.141473 0.840031
vt 0.130413 0.840031
vt 0.130413 0.828503
vt 0.157623 0.828503
vt 0.157623 0.840031
vt 0.147046 0.840031
vt 0.147046 0.828503
vt 0.376558 0.827485
vt 0.365031 0.827485
vt 0.365031 0.813240
vt 0.376558 0.813240
vt 0.174539 0.828503
vt 0.174539 0.840031
vt 0.163679 0.840031
vt 0.163679 0.828503
vt 0.277555 0.827232
vt 0.266028 0.827232
vt 0.266028 0.813240
vt 0.277555 0.813240
vt 0.310130 0.827245
vt 0.298602 0.827245
vt 0.298602 0.813240
vt 0.310130 0.813240
vt 0.179831 0.825407
vt 0.168303 0.825407
vt 0.168303 0.813240
vt 0.179831 0.813240
vt 0.212405 0.826964
vt 0.200878 0.826964
vt 0.200878 0.813240
vt 0.212405 0.813240
vt 0.163543 0.825406
vt 0.152016 0.825406
vt 0.152016 0.813240
vt 0.163543 0.813240
vt 0.259011 0.107923
vt 0.325170 0.115259
vt 0.380934 0.147220
vt 0.404393 0.200078
vt 0.394066 0.251614
vt 0.363692 0.308396
vt 0.370063 0.345209
vt 0.380997 0.380166
vt 0.373705 0.415909
vt 0.345330 0.421327
vt 0.304962 0.414424
vt 0.173357 0.442887
vt 0.147112 0.403242
vt 0.146870 0.367433
vt 0.154331 0.308396
vt 0.123957 0.251614
vt 0.113630 0.200078
vt 0.137089 0.147220
vt 0.192853 0.115259
vt 0.735914 0.527104
vt 0.735914 0.471340
vt 0.789193 0.471340
vt 0.789193 0.527104
vt 0.847231 0.445787
vt 0.847231 0.498646
vt 0.793953 0.493186
vt 0.793953 0.440328
vt 0.621567 0.504775
vt 0.621567 0.545143
vt 0.568289 0.545143
vt 0.568289 0.504775
vt 0.465791 0.113382
vt 0.465791 0.138503
vt 0.445487 0.137209
vt 0.412617 0.132810
vt 0.412513 0.107923
vt 0.731155 0.471382
vt 0.710850 0.471340
vt 0.443970 0.410115
vt 0.411433 0.410115
vt 0.810927 0.360098
vt 0.772042 0.359625
vt 0.771570 0.373161
vt 0.810410 0.373121
vt 0.456193 0.492623
vt 0.456193 0.506893
vt 0.445134 0.506601
vt 0.445134 0.492612
vt 0.381543 0.813502
vt 0.392120 0.813240
vt 0.392178 0.827485
vt 0.381318 0.827493
vt 0.327057 0.813240
vt 0.327057 0.827245
vt 0.314890 0.827371
vt 0.314890 0.813647
vt 0.412559 0.506882
vt 0.412559 0.492612
vt 0.424086 0.492612
vt 0.424086 0.506882
vt 0.191371 0.841588
vt 0.180311 0.841588
vt 0.180311 0.830061
vt 0.191371 0.830061
vt 0.217165 0.827228
vt 0.217165 0.813240
vt 0.228693 0.813240
vt 0.228693 0.827228
vt 0.208004 0.841588
vt 0.196944 0.841588
vt 0.196944 0.830061
vt 0.208004 0.830061
vt 0.224154 0.841852
vt 0.213577 0.841852
vt 0.213577 0.830325
vt 0.224154 0.830325
vt 0.348743 0.827485
vt 0.348743 0.813240
vt 0.360271 0.813240
vt 0.360271 0.827485
vt 0.241070 0.841852
vt 0.230209 0.841852
vt 0.230209 0.830325
vt 0.241070 0.830325
vt 0.249740 0.827232
vt 0.249740 0.813240
vt 0.261268 0.813240
vt 0.261268 0.827232
vt 0.282315 0.827245
vt 0.282315 0.813240
vt 0.293842 0.813240
vt 0.293842 0.827245
vt 0.135728 0.825407
vt 0.135728 0.813240
vt 0.147256 0.813240
vt 0.147256 0.825407
vt 0.184591 0.826964
vt 0.184591 0.813240
vt 0.196118 0.813240
vt 0.196118 0.826964
vt 0.119441 0.825406
vt 0.119441 0.813240
vt 0.130968 0.813240
vt 0.130968 0.825406
vt 0.810927 0.360098
vt 0.772042 0.359625
vt 0.771570 0.373161
vt 0.810927 0.360098
vt 0.810410 0.373121
vt 0.771570 0.373161
vt 0.772042 0.359625
vt 0.771570 0.373161
vt 0.810410 0.373121
vt 0.810927 0.360098
vt 0.772042 0.359625
vt 0.771570 0.373161
vt 0.772042 0.359625
vt 0.810927 0.360098
vt 0.810410 0.373121
vt 0.810410 0.373121
vt 0.810927 0.360098
vt 0.772042 0.359625
vt 0.771570 0.373161
vt 0.810927 0.360098
vt 0.810410 0.373121
vt 0.771570 0.373161
vt 0.772042 0.359625
vt 0.810410 0.373121
vt 0.810927 0.360098
vt 0.772042 0.359625
vt 0.771570 0.373161
vt 0.772042 0.359625
vt 0.771570 0.373161
vt 0.810410 0.373121
vt 0.870167 0.212317
vt 0.816888 0.217777
vt 0.870167 0.269099
vt 0.816888 0.274559
vt 0.870167 0.328136
vt 0.816888 0.333596
vt 0.810821 0.366019
vt 0.766990 0.366019
vt 0.766990 0.357731
vt 0.771570 0.373161
vt 0.810410 0.373121
vt 0.549018 0.471340
vt 0.563529 0.471340
vt 0.563529 0.515171
vt 0.549018 0.515171
vt 0.537455 0.471340
vt 0.544258 0.471340
vt 0.544258 0.515171
vt 0.537455 0.515171
vt 0.235617 0.724805
vt 0.282406 0.724805
vt 0.235617 0.796017
vt 0.235617 0.778214
vt 0.235617 0.760411
vt 0.235617 0.751510
vt 0.235617 0.742608
vt 0.282406 0.742608
vt 0.282406 0.760411
vt 0.282406 0.769313
vt 0.282406 0.778214
vt 0.282406 0.796017
vt 0.250127 0.803340
vt 0.267896 0.803340
vt 0.253946 0.810143
vt 0.264077 0.810143
vt 0.640837 0.478143
vt 0.644656 0.471340
vt 0.654787 0.471340
vt 0.658606 0.478143
vt 0.626327 0.485467
vt 0.673117 0.485467
vt 0.626327 0.556679
vt 0.626327 0.538876
vt 0.626327 0.521073
vt 0.626327 0.512172
vt 0.626327 0.503270
vt 0.673117 0.503270
vt 0.673117 0.512172
vt 0.673117 0.521073
vt 0.673117 0.538876
vt 0.673117 0.556679
vt 0.633709 0.564967
vt 0.665734 0.564967
vt 0.847231 0.550182
vt 0.793953 0.544723
vt 0.847231 0.606964
vt 0.793953 0.601505
vt 0.847231 0.639513
vt 0.793953 0.638317
vt 0.847231 0.678733
vt 0.847231 0.713154
vt 0.793953 0.709017
vt 0.793953 0.673274
vt 0.453975 0.410015
vt 0.453975 0.418303
vt 0.410144 0.418303
vt 0.772042 0.359625
vt 0.771570 0.373161
vt 0.772042 0.359625
vt 0.771570 0.373161
vt 0.810410 0.373121
vt 0.810927 0.360098
vt 0.517804 0.471340
vt 0.517804 0.515171
vt 0.503293 0.515171
vt 0.503293 0.471340
vt 0.491730 0.515171
vt 0.491730 0.471340
vt 0.498533 0.471340
vt 0.498533 0.515171
vt 0.568289 0.476400
vt 0.621567 0.471340
vt 0.771570 0.373161
vt 0.810410 0.373121
vt 0.810927 0.360098
vt 0.810410 0.373121
vt 0.771570 0.373161
vt 0.772042 0.359625
vt 0.772042 0.359625
vt 0.810927 0.360098
vt 0.810410 0.373121
vt 0.772042 0.359625
vt 0.810927 0.360098
vt 0.771570 0.373161
vt 0.810410 0.373121
vt 0.772042 0.359625
vt 0.810927 0.360098
vt 0.771570 0.373161
vt 0.772042 0.359625
vt 0.810927 0.360098
vt 0.772042 0.359625
vt 0.771570 0.373161
vt 0.810927 0.360098
vt 0.772042 0.359625
vt 0.810927 0.360098
vt 0.810410 0.373121
vt 0.771570 0.373161
vt 0.810927 0.360098
vt 0.772042 0.359625
vt 0.810927 0.360098
vt 0.810410 0.373121
vt 0.771570 0.373161
vt 0.810410 0.373121
vt 0.810927 0.360098
vt 0.772042 0.359625
vt 0.771570 0.373161
vt 0.810410 0.373121
vn 0.0461 0.9863 0.1583
vn 0.5018 0.7161 0.4852
vn 0.7803 -0.2014 0.5921
vn 0.5592 -0.7507 0.3518
vn 0.5785 0.1900 -0.7932
vn -0.2696 0.9597 -0.0792
vn 0.2872 -0.9574 0.0305
vn 0.7051 0.3734 0.6028
vn -0.7051 -0.3723 -0.6035
vn -0.6777 -0.3647 -0.6386
vn -0.8127 -0.3172 -0.4888
vn -0.6554 -0.2639 -0.7077
vn -0.5791 -0.1851 0.7940
vn 0.4100 -0.9084 0.0814
vn -0.4157 0.9065 -0.0736
vn 0.5795 0.1840 -0.7939
vn 0.7051 0.3723 0.6035
vn -0.5891 -0.1660 0.7908
vn -0.4100 0.9084 -0.0814
vn 0.5789 0.1891 -0.7931
vn 0.5682 0.2125 -0.7950
vn 0.4124 -0.9076 0.0781
vn -0.5782 -0.1908 0.7933
vn -0.4007 0.9114 -0.0941
vn -0.5742 -0.1995 0.7940
vn 0.5645 0.2203 -0.7955
vn -0.5785 -0.1902 0.7932
vn -0.6524 0.6175 -0.4395
vn -0.7861 0.0360 -0.6171
vn 0.4622 -0.8476 0.2608
vn -0.2221 -0.9311 -0.2892
vn -0.4380 0.8708 -0.2233
vn -0.3401 -0.8411 -0.4207
vn -0.7011 -0.3811 -0.6026
vn -0.7228 -0.3309 -0.6067
vn -0.6770 -0.3663 -0.6384
vn 0.7361 0.4679 0.4891
vn 0.5830 0.4156 0.6981
vn 0.6346 0.5059 0.5842
vn 0.7601 0.1827 0.6235
vn 0.7822 0.0311 0.6223
vn 0.7835 0.0133 0.6212
vn 0.7863 -0.1092 0.6082
vn 0.6555 0.4857 0.5783
vn 0.6748 0.4453 0.5885
vn 0.6781 0.4380 0.5902
vn 0.7075 0.3661 0.6046
vn 0.2422 0.8876 0.3918
vn 0.5392 0.7070 0.4575
vn 0.6169 0.5334 0.5788
vn -0.7633 -0.2163 -0.6088
vn 0.7637 -0.6069 0.2202
vn 0.7552 -0.4922 0.4329
vn 0.5824 -0.6653 0.4670
vn 0.8156 -0.1200 0.5661
vn -0.5822 -0.1833 0.7921
vn -0.6352 -0.0465 0.7709
vn -0.5821 -0.1834 0.7922
vn -0.5789 -0.1902 0.7929
vn -0.5792 -0.1904 0.7926
vn -0.5600 -0.2315 0.7955
vn -0.5602 -0.2310 0.7955
vn -0.5601 -0.2313 0.7955
vn -0.5785 -0.1900 0.7932
vn -0.5791 -0.1904 0.7927
vn 0.5785 0.1901 -0.7932
vn -0.6223 -0.5473 -0.5596
vn -0.5312 -0.6810 -0.5041
vn -0.5415 -0.6679 -0.5106
vn -0.4558 -0.7651 -0.4549
vn -0.7451 -0.2209 -0.6294
vn -0.7635 -0.1425 -0.6299
vn -0.7632 -0.1438 -0.6299
vn -0.7444 -0.2980 -0.5976
vn -0.3189 -0.8897 -0.3268
vn -0.3143 -0.8924 -0.3238
vn -0.7505 -0.2702 -0.6031
vn -0.7981 0.3382 -0.4986
vn -0.7683 -0.2026 -0.6072
vn -0.7569 0.0230 -0.6531
vn -0.7229 -0.3309 -0.6066
vn -0.6769 -0.3664 -0.6383
vn 0.1392 -0.9364 -0.3221
vn -0.0484 -0.9967 -0.0647
vn -0.1057 -0.9468 -0.3039
vn -0.4142 -0.7693 -0.4864
vn 0.2088 -0.9771 0.0406
vn -0.7232 -0.3310 -0.6061
vn -0.7051 -0.3724 -0.6035
vn 0.6306 0.5128 0.5826
usemtl initialShadingGroup.004
s off
f 1/1/1 2/2/1 3/3/1 4/4/1
f 4/5/2 3/6/2 5/7/2 6/8/2
f 7/9/3 8/10/3 9/11/3 10/12/3
f 10/13/4 9/14/4 11/15/4 12/16/4 13/17/4
f 14/18/5 1/19/5 4/20/5 6/21/5 15/22/5 16/23/5 17/24/5 7/25/5 10/26/5 13/27/5 18/28/5 19/29/5 20/30/5 21/31/5 22/32/5 23/33/5 24/34/5 25/35/5 26/36/5 27/37/5 28/38/5 29/39/5
f 30/40/6 2/2/6 1/1/6 14/41/6
f 13/17/7 12/16/7 31/42/7 18/43/7
f 11/44/8 32/45/8 33/46/8 12/47/8
f 34/48/9 35/49/9 36/50/10 37/51/9
f 38/52/9 39/53/11 35/49/12 34/54/9
f 32/55/13 11/56/13 40/57/13 41/58/13 42/59/13
f 43/60/14 44/61/14 45/62/14 46/63/14
f 47/64/15 33/65/15 48/66/15 49/67/15 50/68/15
f 31/69/16 12/70/16 33/71/16 47/72/16 50/73/16 51/74/16
f 52/75/17 53/76/17 54/77/17 55/78/17
f 56/79/17 57/80/17 58/81/17 59/82/17
f 60/83/17 61/84/17 62/85/17 63/86/17
f 64/87/14 52/88/14 55/89/14 65/90/14
f 65/91/18 55/92/18 54/93/18 66/94/18
f 66/95/19 54/96/19 53/97/19 67/98/19
f 67/99/20 53/100/20 52/101/20 64/102/20
f 68/103/21 56/104/21 59/105/21 69/106/21
f 69/107/22 59/108/22 58/109/22 70/110/22
f 70/111/23 58/112/23 57/113/23 71/114/23
f 71/115/24 57/116/24 56/117/24 68/118/24
f 72/119/14 60/120/14 63/121/14 73/122/14
f 73/123/25 63/124/25 62/125/25 74/126/25
f 74/127/19 62/128/19 61/129/19 75/130/19
f 75/131/26 61/132/26 60/133/26 72/134/26
f 30/135/27 76/136/27 77/137/27 78/138/27 79/139/27 80/140/27 81/141/27 82/142/27 83/143/27 84/144/27 85/145/27 41/58/27 40/57/27 11/56/27 9/146/27 8/147/27 86/148/27 87/149/27 88/150/27 5/151/27 3/152/27 2/153/27
f 29/154/28 28/155/28 77/156/28 76/157/28
f 28/158/29 27/159/29 78/160/29 77/161/29
f 21/162/30 20/163/30 85/164/30 84/165/30
f 20/166/31 19/167/31 51/168/31 41/169/31 85/170/31
f 30/40/32 14/41/32 29/154/32 76/157/32
f 19/171/33 18/43/33 31/42/33 51/172/33
f 41/169/34 51/168/34 50/173/34 42/174/34
f 89/175/9 90/176/9 37/177/9 91/178/9
f 92/179/9 93/180/9 94/181/9 95/182/9
f 96/183/9 97/184/9 98/185/9 99/186/9
f 100/187/9 101/188/9 102/189/9 103/190/9
f 38/191/14 34/192/14 93/193/14 92/194/14
f 34/195/18 37/196/18 94/197/18 93/198/18
f 37/199/19 90/200/19 95/201/19 94/202/19
f 90/203/20 38/204/20 92/205/20 95/206/20
f 104/207/21 105/208/21 97/209/21 96/210/21
f 105/211/22 106/212/22 98/213/22 97/214/22
f 106/215/23 107/216/23 99/217/23 98/218/23
f 107/219/24 104/220/24 96/221/24 99/222/24
f 89/223/14 91/224/14 101/225/14 100/226/14
f 91/227/25 108/228/25 102/229/25 101/230/25
f 108/231/19 109/232/19 103/233/19 102/234/19
f 109/235/26 89/236/26 100/237/26 103/238/26
f 91/178/9 110/239/35 111/240/36 108/241/9
f 106/242/9 105/243/9 109/244/9 108/245/9
f 73/246/17 74/247/17 112/248/17 113/249/17
f 64/250/17 65/251/17 114/252/37 115/253/38
f 65/254/17 66/255/17 116/256/17 114/257/39
f 72/258/17 73/259/17 66/260/17 67/261/17
f 70/262/17 74/263/17 75/264/17 69/265/17
f 72/258/17 117/266/17 118/267/17 75/268/17
s 1
f 6/8/40 5/7/40 88/269/41 15/270/42
f 15/270/42 88/269/41 87/271/43 16/272/43
f 16/272/44 87/271/44 86/273/45 17/274/46
f 17/274/46 86/273/45 8/10/47 7/9/47
f 32/45/48 119/275/49 120/276/50 48/277/48 33/46/48
f 121/278/9 39/53/51 38/52/9 90/279/9
f 114/280/52 122/281/53 123/282/53 115/283/54
f 122/284/53 44/285/55 43/286/55 123/287/53
f 119/288/56 32/55/57 42/59/57 124/289/58
f 114/290/59 116/291/60 113/292/60 112/293/60 125/294/60 119/288/56 124/289/58 126/295/61 111/296/62 110/297/63 36/298/63 35/299/59
f 122/300/64 114/290/65 35/299/65 127/301/64
f 44/302/64 122/300/64 127/301/64 45/303/64
f 123/304/5 43/305/5 46/306/5 128/307/5
f 115/308/5 123/304/5 128/307/5 39/309/5
f 120/310/5 129/311/66 118/312/66 117/313/66 130/314/66 115/308/5 39/309/5 121/315/66 131/316/66 132/317/66 133/318/66 134/319/5
f 48/320/5 120/310/5 134/319/5 49/321/5
f 27/159/67 26/322/68 79/323/69 78/160/67
f 26/322/68 25/324/70 80/325/70 79/323/69
f 25/324/71 24/326/72 81/327/73 80/325/71
f 23/328/74 22/329/75 83/330/76 82/331/77
f 42/174/78 50/173/78 49/332/78 134/333/79 124/334/80
f 36/335/81 110/336/82 91/178/9 37/51/9
f 121/337/9 90/338/9 89/339/9 131/340/9
f 35/341/83 39/342/84 128/343/85 127/344/85
f 127/345/85 128/346/85 46/347/86 45/348/86
f 83/349/76 22/350/75 21/162/87 84/165/87
f 81/327/73 24/326/72 23/328/74 82/331/77
f 111/351/88 126/352/81 106/242/9 108/245/89
f 126/353/81 124/354/80 107/355/9 106/356/9
f 124/357/80 134/358/79 104/359/9 107/355/9
f 132/360/9 109/361/9 105/243/9 133/362/9
f 132/363/9 131/340/9 89/364/9 109/244/9
f 133/365/9 105/243/9 104/366/9 134/367/79
f 73/259/17 113/368/17 116/256/17 66/260/17
f 112/369/17 74/370/17 70/262/17 125/371/17
f 125/372/17 70/373/17 71/374/17 119/375/49
f 119/375/49 71/374/17 68/376/17 120/377/50
f 69/378/17 75/264/17 118/267/17 129/379/17
f 130/380/17 117/266/17 72/258/17 67/381/17
f 115/253/90 130/382/17 67/261/17 64/250/17
f 129/383/17 120/384/50 68/385/17 69/378/17
