# Blender v2.79 (sub 6) OBJ File: 'bailarina.blend1'
# www.blender.org
mtllib Guitarra3_000022.mtl
o Guitarra_2:pPlane4
v -3.647217 17.446701 4.512049
v -4.291895 17.188972 5.172191
v -3.479335 16.506466 5.614683
v -2.834656 16.764194 4.954540
v -3.041553 15.572368 5.537645
v -2.396876 15.830091 4.877502
v -2.343484 12.589869 3.126992
v -2.988163 12.332144 3.787136
v -3.237465 11.755642 3.213688
v -2.592787 12.013370 2.553543
v -4.100551 11.563454 2.230051
v -3.700858 11.705659 1.815415
v -3.457630 11.816901 1.568603
v -4.539973 17.775799 3.791552
v -2.407496 15.013343 4.411881
v -2.669481 14.167230 3.675441
v -2.427469 13.176991 3.368954
v -3.669197 11.903887 1.402868
v -3.972802 12.362983 1.351195
v -4.396145 12.853173 1.195625
v -4.911239 12.854138 0.674706
v -5.368193 13.059434 0.326443
v -5.481396 13.630788 0.530042
v -5.409400 14.238627 0.941449
v -5.428090 14.759919 1.212846
v -5.966524 15.778005 1.234760
v -6.228058 16.653225 1.457428
v -6.047626 17.454506 2.086341
v -5.390670 17.821285 2.955679
v -5.181479 17.496696 4.442999
v -3.914114 11.775362 1.646294
v -3.503339 7.452777 0.577669
v -3.117745 7.664903 0.196779
v -3.698689 6.495013 -0.502316
v -3.842761 6.252161 -0.399374
v -3.892786 6.592732 -0.261369
v -3.722151 6.678464 -0.431882
v -3.529583 6.588045 -0.669359
v -3.323334 6.537914 -0.912465
v -4.306842 11.607776 2.045896
v -4.617896 12.110002 2.010703
v -3.921699 7.542663 0.204201
v -2.913940 6.225458 -0.672032
v -3.433368 5.939707 -0.158939
v -3.566866 5.968389 -0.278111
v -3.047438 6.254141 -0.791204
v -3.329211 7.708590 0.012302
v -2.997624 7.731382 0.081940
v -3.419590 7.822042 -0.294746
v -3.536107 7.754787 -0.176688
v -4.217114 12.251972 1.597037
v -2.761179 6.422951 0.016589
v -2.787973 6.604571 0.090315
v -2.953748 6.513373 0.254066
v -2.930286 6.329921 0.183632
v -2.891562 7.278502 0.368556
v -3.057924 7.190973 0.533850
v -3.031381 7.012757 0.461221
v -2.862711 7.106587 0.294861
v -2.810071 6.757472 0.151868
v -2.844513 6.954535 0.237880
v -3.007158 6.865059 0.398541
v -2.976040 6.666166 0.315814
v -2.913068 6.455585 -0.119002
v -3.082176 6.362556 0.048042
v -3.105636 6.546005 0.118476
v -2.939862 6.637205 -0.045277
v -3.043451 7.311135 0.232966
v -3.014601 7.139223 0.159271
v -3.183269 7.045391 0.325630
v -3.209812 7.223606 0.398259
v -2.961960 6.790105 0.016278
v -3.127929 6.698800 0.180223
v -3.159047 6.897693 0.262950
v -2.996402 6.987168 0.102290
v -6.035347 17.563560 3.615823
v -6.692304 17.196777 2.746483
v -6.872737 16.395500 2.117572
v -6.611203 15.520278 1.894903
v -6.072769 14.502192 1.872992
v -6.067096 13.915935 1.552233
v -6.126074 13.373061 1.190186
v -5.942984 12.765681 1.037272
v -5.555919 12.596411 1.334849
v -5.040822 12.595447 1.855768
v -3.072148 12.919267 4.029099
v -3.314159 13.909499 4.335587
v -3.052174 14.755612 5.072024
v -3.578475 6.922564 -0.534080
v -3.556377 6.769663 -0.595634
v -3.744443 6.831259 -0.370135
v -3.681472 6.620678 -0.804950
v -3.850578 6.527647 -0.637907
v -3.874040 6.711099 -0.567473
v -3.708266 6.802297 -0.731224
v -3.811854 7.476229 -0.452983
v -3.783004 7.304313 -0.526678
v -3.951672 7.210483 -0.360318
v -3.978215 7.388700 -0.287690
v -3.730365 6.955198 -0.669670
v -3.896332 6.863892 -0.505727
v -3.927450 7.062785 -0.422998
v -3.764804 7.152263 -0.583660
v -3.659966 7.443596 -0.317391
v -3.631115 7.271679 -0.391088
v -3.799783 7.177850 -0.224727
v -3.826326 7.356067 -0.152100
v -3.775560 7.030151 -0.287409
v -3.612916 7.119628 -0.448069
v -3.916732 6.755316 -0.195413
v -3.945698 6.954168 -0.115107
v -3.328772 6.808236 0.431547
v -3.299304 6.605743 0.349802
v -3.226247 6.119702 0.150983
v -2.706819 6.405454 -0.362107
v -3.269586 6.411948 0.269868
v -2.778414 6.891426 -0.164945
v -2.807082 7.088136 -0.085488
v -3.399601 7.288679 0.626521
v -2.880173 7.574430 0.113429
v -3.371618 6.865911 -0.779435
v -3.399616 6.040566 -0.068596
v -2.880187 6.326322 -0.581689
v -4.016115 7.421137 0.076164
v -3.352098 6.966321 0.495723
v -3.968897 7.100846 -0.053817
v -3.633741 6.090869 -0.277599
v -3.114312 6.376624 -0.790691
v -2.831692 7.245013 -0.020162
v -2.753500 6.721852 -0.233667
v -3.392349 7.005246 -0.722678
v -3.423681 7.221210 -0.635603
v -3.449347 7.385722 -0.567256
v -3.496688 7.706889 -0.436929
vt 0.735914 0.659422
vt 0.789193 0.659422
vt 0.789193 0.715185
vt 0.735914 0.715185
vt 0.816888 0.113382
vt 0.870167 0.107923
vt 0.870167 0.160781
vt 0.816888 0.166240
vt 0.816888 0.369404
vt 0.870167 0.363945
vt 0.870167 0.403590
vt 0.816888 0.409050
vt 0.731155 0.575499
vt 0.677876 0.575499
vt 0.677981 0.505501
vt 0.710850 0.505460
vt 0.731155 0.505418
vt 0.616009 0.468244
vt 0.549850 0.459605
vt 0.494086 0.427645
vt 0.470627 0.374786
vt 0.480954 0.323250
vt 0.511328 0.266468
vt 0.503868 0.207431
vt 0.504109 0.171623
vt 0.530354 0.131977
vt 0.600435 0.107922
vt 0.616009 0.110536
vt 0.634472 0.135319
vt 0.661960 0.160441
vt 0.702327 0.153537
vt 0.735762 0.160278
vt 0.737994 0.194699
vt 0.725284 0.233919
vt 0.720689 0.266468
vt 0.751063 0.323250
vt 0.761390 0.374786
vt 0.737931 0.427645
vt 0.682167 0.459605
vt 0.789193 0.593263
vt 0.735914 0.593263
vt 0.710560 0.489845
vt 0.731155 0.489845
vt 0.808348 0.107923
vt 0.809532 0.357831
vt 0.776995 0.357831
vt 0.775479 0.112321
vt 0.772042 0.359625
vt 0.771570 0.373161
vt 0.810410 0.373121
vt 0.810927 0.360098
vt 0.810927 0.360098
vt 0.772042 0.359625
vt 0.810410 0.373121
vt 0.243136 0.716617
vt 0.243355 0.466708
vt 0.259011 0.466708
vt 0.277557 0.439312
vt 0.274887 0.716617
vt 0.522564 0.515171
vt 0.522564 0.471340
vt 0.532696 0.471340
vt 0.532696 0.515171
vt 0.486970 0.487353
vt 0.486778 0.503228
vt 0.476773 0.503365
vt 0.476773 0.471340
vt 0.486778 0.471477
vt 0.867866 0.659325
vt 0.852251 0.657656
vt 0.851991 0.412147
vt 0.867866 0.412147
vt 0.883742 0.412147
vt 0.886370 0.685053
vt 0.472013 0.506882
vt 0.460953 0.506893
vt 0.460953 0.492905
vt 0.472013 0.492612
vt 0.397163 0.827232
vt 0.396938 0.813240
vt 0.407799 0.813249
vt 0.407740 0.827494
vt 0.343983 0.827371
vt 0.331817 0.826964
vt 0.331817 0.813240
vt 0.343983 0.813366
vt 0.440374 0.506882
vt 0.428846 0.506882
vt 0.428846 0.492612
vt 0.440374 0.492612
vt 0.124689 0.828503
vt 0.124689 0.840031
vt 0.113630 0.840031
vt 0.113630 0.828503
vt 0.244980 0.827228
vt 0.233453 0.827228
vt 0.233453 0.813240
vt 0.244980 0.813240
vt 0.141473 0.828503
vt 0.141473 0.840031
vt 0.130413 0.840031
vt 0.130413 0.828503
vt 0.157623 0.828503
vt 0.157623 0.840031
vt 0.147046 0.840031
vt 0.147046 0.828503
vt 0.376558 0.827485
vt 0.365031 0.827485
vt 0.365031 0.813240
vt 0.376558 0.813240
vt 0.174539 0.828503
vt 0.174539 0.840031
vt 0.163679 0.840031
vt 0.163679 0.828503
vt 0.277555 0.827232
vt 0.266028 0.827232
vt 0.266028 0.813240
vt 0.277555 0.813240
vt 0.310130 0.827245
vt 0.298602 0.827245
vt 0.298602 0.813240
vt 0.310130 0.813240
vt 0.179831 0.825407
vt 0.168303 0.825407
vt 0.168303 0.813240
vt 0.179831 0.813240
vt 0.212405 0.826964
vt 0.200878 0.826964
vt 0.200878 0.813240
vt 0.212405 0.813240
vt 0.163543 0.825406
vt 0.152016 0.825406
vt 0.152016 0.813240
vt 0.163543 0.813240
vt 0.259011 0.107923
vt 0.325170 0.115259
vt 0.380934 0.147220
vt 0.404393 0.200078
vt 0.394066 0.251614
vt 0.363692 0.308396
vt 0.370063 0.345209
vt 0.380997 0.380166
vt 0.373705 0.415909
vt 0.345330 0.421327
vt 0.304962 0.414424
vt 0.173357 0.442887
vt 0.147112 0.403242
vt 0.146870 0.367433
vt 0.154331 0.308396
vt 0.123957 0.251614
vt 0.113630 0.200078
vt 0.137089 0.147220
vt 0.192853 0.115259
vt 0.735914 0.527104
vt 0.735914 0.471340
vt 0.789193 0.471340
vt 0.789193 0.527104
vt 0.847231 0.445787
vt 0.847231 0.498646
vt 0.793953 0.493186
vt 0.793953 0.440328
vt 0.621567 0.504775
vt 0.621567 0.545143
vt 0.568289 0.545143
vt 0.568289 0.504775
vt 0.465791 0.113382
vt 0.465791 0.138503
vt 0.445487 0.137209
vt 0.412617 0.132810
vt 0.412513 0.107923
vt 0.731155 0.471382
vt 0.710850 0.471340
vt 0.443970 0.410115
vt 0.411433 0.410115
vt 0.810927 0.360098
vt 0.772042 0.359625
vt 0.771570 0.373161
vt 0.810410 0.373121
vt 0.456193 0.492623
vt 0.456193 0.506893
vt 0.445134 0.506601
vt 0.445134 0.492612
vt 0.381543 0.813502
vt 0.392120 0.813240
vt 0.392178 0.827485
vt 0.381318 0.827493
vt 0.327057 0.813240
vt 0.327057 0.827245
vt 0.314890 0.827371
vt 0.314890 0.813647
vt 0.412559 0.506882
vt 0.412559 0.492612
vt 0.424086 0.492612
vt 0.424086 0.506882
vt 0.191371 0.841588
vt 0.180311 0.841588
vt 0.180311 0.830061
vt 0.191371 0.830061
vt 0.217165 0.827228
vt 0.217165 0.813240
vt 0.228693 0.813240
vt 0.228693 0.827228
vt 0.208004 0.841588
vt 0.196944 0.841588
vt 0.196944 0.830061
vt 0.208004 0.830061
vt 0.224154 0.841852
vt 0.213577 0.841852
vt 0.213577 0.830325
vt 0.224154 0.830325
vt 0.348743 0.827485
vt 0.348743 0.813240
vt 0.360271 0.813240
vt 0.360271 0.827485
vt 0.241070 0.841852
vt 0.230209 0.841852
vt 0.230209 0.830325
vt 0.241070 0.830325
vt 0.249740 0.827232
vt 0.249740 0.813240
vt 0.261268 0.813240
vt 0.261268 0.827232
vt 0.282315 0.827245
vt 0.282315 0.813240
vt 0.293842 0.813240
vt 0.293842 0.827245
vt 0.135728 0.825407
vt 0.135728 0.813240
vt 0.147256 0.813240
vt 0.147256 0.825407
vt 0.184591 0.826964
vt 0.184591 0.813240
vt 0.196118 0.813240
vt 0.196118 0.826964
vt 0.119441 0.825406
vt 0.119441 0.813240
vt 0.130968 0.813240
vt 0.130968 0.825406
vt 0.810927 0.360098
vt 0.772042 0.359625
vt 0.771570 0.373161
vt 0.810927 0.360098
vt 0.810410 0.373121
vt 0.771570 0.373161
vt 0.772042 0.359625
vt 0.771570 0.373161
vt 0.810410 0.373121
vt 0.810927 0.360098
vt 0.772042 0.359625
vt 0.771570 0.373161
vt 0.772042 0.359625
vt 0.810927 0.360098
vt 0.810410 0.373121
vt 0.810410 0.373121
vt 0.810927 0.360098
vt 0.772042 0.359625
vt 0.771570 0.373161
vt 0.810927 0.360098
vt 0.810410 0.373121
vt 0.771570 0.373161
vt 0.772042 0.359625
vt 0.810410 0.373121
vt 0.810927 0.360098
vt 0.772042 0.359625
vt 0.771570 0.373161
vt 0.772042 0.359625
vt 0.771570 0.373161
vt 0.810410 0.373121
vt 0.870167 0.212317
vt 0.816888 0.217777
vt 0.870167 0.269099
vt 0.816888 0.274559
vt 0.870167 0.328136
vt 0.816888 0.333596
vt 0.810821 0.366019
vt 0.766990 0.366019
vt 0.766990 0.357731
vt 0.771570 0.373161
vt 0.810410 0.373121
vt 0.549018 0.471340
vt 0.563529 0.471340
vt 0.563529 0.515171
vt 0.549018 0.515171
vt 0.537455 0.471340
vt 0.544258 0.471340
vt 0.544258 0.515171
vt 0.537455 0.515171
vt 0.235617 0.724805
vt 0.282406 0.724805
vt 0.235617 0.796017
vt 0.235617 0.778214
vt 0.235617 0.760411
vt 0.235617 0.751510
vt 0.235617 0.742608
vt 0.282406 0.742608
vt 0.282406 0.760411
vt 0.282406 0.769313
vt 0.282406 0.778214
vt 0.282406 0.796017
vt 0.250127 0.803340
vt 0.267896 0.803340
vt 0.253946 0.810143
vt 0.264077 0.810143
vt 0.640837 0.478143
vt 0.644656 0.471340
vt 0.654787 0.471340
vt 0.658606 0.478143
vt 0.626327 0.485467
vt 0.673117 0.485467
vt 0.626327 0.556679
vt 0.626327 0.538876
vt 0.626327 0.521073
vt 0.626327 0.512172
vt 0.626327 0.503270
vt 0.673117 0.503270
vt 0.673117 0.512172
vt 0.673117 0.521073
vt 0.673117 0.538876
vt 0.673117 0.556679
vt 0.633709 0.564967
vt 0.665734 0.564967
vt 0.847231 0.550182
vt 0.793953 0.544723
vt 0.847231 0.606964
vt 0.793953 0.601505
vt 0.847231 0.639513
vt 0.793953 0.638317
vt 0.847231 0.678733
vt 0.847231 0.713154
vt 0.793953 0.709017
vt 0.793953 0.673274
vt 0.453975 0.410015
vt 0.453975 0.418303
vt 0.410144 0.418303
vt 0.772042 0.359625
vt 0.771570 0.373161
vt 0.772042 0.359625
vt 0.771570 0.373161
vt 0.810410 0.373121
vt 0.810927 0.360098
vt 0.517804 0.471340
vt 0.517804 0.515171
vt 0.503293 0.515171
vt 0.503293 0.471340
vt 0.491730 0.515171
vt 0.491730 0.471340
vt 0.498533 0.471340
vt 0.498533 0.515171
vt 0.568289 0.476400
vt 0.621567 0.471340
vt 0.771570 0.373161
vt 0.810410 0.373121
vt 0.810927 0.360098
vt 0.810410 0.373121
vt 0.771570 0.373161
vt 0.772042 0.359625
vt 0.772042 0.359625
vt 0.810927 0.360098
vt 0.810410 0.373121
vt 0.772042 0.359625
vt 0.810927 0.360098
vt 0.771570 0.373161
vt 0.810410 0.373121
vt 0.772042 0.359625
vt 0.810927 0.360098
vt 0.771570 0.373161
vt 0.772042 0.359625
vt 0.810927 0.360098
vt 0.772042 0.359625
vt 0.771570 0.373161
vt 0.810927 0.360098
vt 0.772042 0.359625
vt 0.810927 0.360098
vt 0.810410 0.373121
vt 0.771570 0.373161
vt 0.810927 0.360098
vt 0.772042 0.359625
vt 0.810927 0.360098
vt 0.810410 0.373121
vt 0.771570 0.373161
vt 0.810410 0.373121
vt 0.810927 0.360098
vt 0.772042 0.359625
vt 0.771570 0.373161
vt 0.810410 0.373121
vn 0.3059 0.7469 0.5903
vn 0.6450 0.2425 0.7246
vn 0.6508 -0.6581 0.3786
vn 0.3038 -0.9501 -0.0715
vn 0.6625 0.3645 -0.6544
vn 0.0125 0.9211 0.3892
vn 0.0084 -0.9016 -0.4326
vn 0.7369 -0.1571 0.6575
vn -0.7366 0.1583 -0.6576
vn -0.7057 0.1732 -0.6870
vn -0.8325 0.1819 -0.5233
vn -0.6516 0.2839 -0.7034
vn -0.6617 -0.3605 0.6574
vn 0.1361 -0.9177 -0.3733
vn -0.1426 0.9140 0.3798
vn 0.6618 0.3595 -0.6579
vn 0.7366 -0.1583 0.6576
vn -0.6659 -0.3401 0.6640
vn -0.1361 0.9177 0.3733
vn 0.6626 0.3636 -0.6548
vn 0.6589 0.3871 -0.6450
vn 0.1388 -0.9162 -0.3760
vn -0.6624 -0.3652 0.6541
vn -0.1254 0.9234 0.3627
vn -0.6610 -0.3740 0.6505
vn 0.6576 0.3950 -0.6416
vn -0.6625 -0.3646 0.6544
vn -0.4238 0.9037 -0.0610
vn -0.7003 0.5316 -0.4764
vn 0.1904 -0.9631 -0.1901
vn -0.4502 -0.5915 -0.6689
vn -0.1634 0.9588 0.2322
vn -0.5291 -0.4224 -0.7359
vn -0.7353 0.1494 -0.6611
vn 0.6576 0.3949 -0.6416
vn -0.7419 0.1996 -0.6401
vn -0.7056 0.1716 -0.6876
vn 0.8008 -0.0337 0.5980
vn 0.6249 -0.1314 0.7696
vn 0.7073 -0.0172 0.7067
vn 0.7355 -0.3428 0.5844
vn 0.7148 -0.4763 0.5121
vn 0.7112 -0.4912 0.5029
vn 0.6809 -0.5893 0.4349
vn 0.7222 -0.0373 0.6907
vn 0.7288 -0.0814 0.6799
vn 0.7298 -0.0893 0.6779
vn 0.7370 -0.1647 0.6555
vn 0.4502 0.5020 0.7384
vn 0.6804 0.2372 0.6934
vn 0.6983 0.0134 0.7157
vn -0.7488 0.3085 -0.5866
vn 0.5487 -0.8249 -0.1359
vn 0.5575 -0.8234 0.1058
vn 0.5574 -0.8235 0.1058
vn 0.3416 -0.9374 0.0681
vn 0.7089 -0.5872 0.3907
vn -0.6640 -0.3573 0.6568
vn -0.6756 -0.2174 0.7045
vn -0.6640 -0.3574 0.6568
vn -0.6629 -0.3644 0.6541
vn -0.6633 -0.3643 0.6537
vn -0.6564 -0.4056 0.6361
vn -0.6565 -0.4051 0.6363
vn -0.6564 -0.4054 0.6362
vn -0.6625 -0.3645 0.6544
vn -0.6631 -0.3643 0.6539
vn -0.7087 -0.0325 -0.7048
vn -0.6622 -0.1961 -0.7232
vn -0.6680 -0.1792 -0.7223
vn -0.6166 -0.3105 -0.7234
vn -0.7312 0.3091 -0.6081
vn -0.7271 0.3806 -0.5714
vn -0.7272 0.3794 -0.5720
vn -0.7541 0.2292 -0.6155
vn -0.5288 -0.5125 -0.6766
vn -0.5254 -0.5174 -0.6755
vn -0.7519 0.2569 -0.6072
vn -0.6366 0.7356 -0.2318
vn -0.7499 0.3207 -0.5785
vn -0.6734 0.5291 -0.5163
vn -0.7420 0.1996 -0.6401
vn -0.7055 0.1715 -0.6876
vn -0.1031 -0.6810 -0.7250
vn -0.3175 -0.7981 -0.5121
vn -0.3419 -0.6302 -0.6971
vn -0.5757 -0.3112 -0.7561
vn -0.0729 -0.9011 -0.4273
vn -0.7424 0.1994 -0.6396
vn -0.7420 0.1996 -0.6400
vn 0.7055 -0.0094 0.7087
usemtl initialShadingGroup.004
s off
f 1/1/1 2/2/1 3/3/1 4/4/1
f 4/5/2 3/6/2 5/7/2 6/8/2
f 7/9/3 8/10/3 9/11/3 10/12/3
f 10/13/4 9/14/4 11/15/4 12/16/4 13/17/4
f 14/18/5 1/19/5 4/20/5 6/21/5 15/22/5 16/23/5 17/24/5 7/25/5 10/26/5 13/27/5 18/28/5 19/29/5 20/30/5 21/31/5 22/32/5 23/33/5 24/34/5 25/35/5 26/36/5 27/37/5 28/38/5 29/39/5
f 30/40/6 2/2/6 1/1/6 14/41/6
f 13/17/7 12/16/7 31/42/7 18/43/7
f 11/44/8 32/45/8 33/46/8 12/47/8
f 34/48/9 35/49/9 36/50/10 37/51/9
f 38/52/9 39/53/11 35/49/12 34/54/9
f 32/55/13 11/56/13 40/57/13 41/58/13 42/59/13
f 43/60/14 44/61/14 45/62/14 46/63/14
f 47/64/15 33/65/15 48/66/15 49/67/15 50/68/15
f 31/69/16 12/70/16 33/71/16 47/72/16 50/73/16 51/74/16
f 52/75/17 53/76/17 54/77/17 55/78/17
f 56/79/17 57/80/17 58/81/17 59/82/17
f 60/83/17 61/84/17 62/85/17 63/86/17
f 64/87/14 52/88/14 55/89/14 65/90/14
f 65/91/18 55/92/18 54/93/18 66/94/18
f 66/95/19 54/96/19 53/97/19 67/98/19
f 67/99/20 53/100/20 52/101/20 64/102/20
f 68/103/21 56/104/21 59/105/21 69/106/21
f 69/107/22 59/108/22 58/109/22 70/110/22
f 70/111/23 58/112/23 57/113/23 71/114/23
f 71/115/24 57/116/24 56/117/24 68/118/24
f 72/119/14 60/120/14 63/121/14 73/122/14
f 73/123/25 63/124/25 62/125/25 74/126/25
f 74/127/19 62/128/19 61/129/19 75/130/19
f 75/131/26 61/132/26 60/133/26 72/134/26
f 30/135/27 76/136/27 77/137/27 78/138/27 79/139/27 80/140/27 81/141/27 82/142/27 83/143/27 84/144/27 85/145/27 41/58/27 40/57/27 11/56/27 9/146/27 8/147/27 86/148/27 87/149/27 88/150/27 5/151/27 3/152/27 2/153/27
f 29/154/28 28/155/28 77/156/28 76/157/28
f 28/158/29 27/159/29 78/160/29 77/161/29
f 21/162/30 20/163/30 85/164/30 84/165/30
f 20/166/31 19/167/31 51/168/31 41/169/31 85/170/31
f 30/40/32 14/41/32 29/154/32 76/157/32
f 19/171/33 18/43/33 31/42/33 51/172/33
f 41/169/34 51/168/34 50/173/34 42/174/34
f 89/175/9 90/176/9 37/177/9 91/178/9
f 92/179/9 93/180/9 94/181/9 95/182/9
f 96/183/9 97/184/9 98/185/9 99/186/9
f 100/187/9 101/188/9 102/189/9 103/190/9
f 38/191/14 34/192/14 93/193/14 92/194/14
f 34/195/18 37/196/18 94/197/18 93/198/18
f 37/199/19 90/200/19 95/201/19 94/202/19
f 90/203/20 38/204/20 92/205/20 95/206/20
f 104/207/21 105/208/21 97/209/21 96/210/21
f 105/211/22 106/212/22 98/213/22 97/214/22
f 106/215/23 107/216/23 99/217/23 98/218/23
f 107/219/24 104/220/24 96/221/24 99/222/24
f 89/223/14 91/224/14 101/225/14 100/226/14
f 91/227/25 108/228/25 102/229/25 101/230/25
f 108/231/19 109/232/19 103/233/19 102/234/19
f 109/235/35 89/236/35 100/237/35 103/238/35
f 91/178/9 110/239/36 111/240/37 108/241/9
f 106/242/9 105/243/9 109/244/9 108/245/9
f 73/246/17 74/247/17 112/248/17 113/249/17
f 64/250/17 65/251/17 114/252/38 115/253/39
f 65/254/17 66/255/17 116/256/17 114/257/40
f 72/258/17 73/259/17 66/260/17 67/261/17
f 70/262/17 74/263/17 75/264/17 69/265/17
f 72/258/17 117/266/17 118/267/17 75/268/17
s 1
f 6/8/41 5/7/41 88/269/42 15/270/43
f 15/270/43 88/269/42 87/271/44 16/272/44
f 16/272/45 87/271/45 86/273/46 17/274/47
f 17/274/47 86/273/46 8/10/48 7/9/48
f 32/45/49 119/275/50 120/276/51 48/277/49 33/46/49
f 121/278/9 39/53/52 38/52/9 90/279/9
f 114/280/53 122/281/54 123/282/55 115/283/56
f 122/284/54 44/285/57 43/286/57 123/287/55
f 119/288/58 32/55/59 42/59/59 124/289/60
f 114/290/61 116/291/62 113/292/62 112/293/62 125/294/62 119/288/58 124/289/60 126/295/63 111/296/64 110/297/65 36/298/65 35/299/61
f 122/300/66 114/290/67 35/299/67 127/301/66
f 44/302/66 122/300/66 127/301/66 45/303/66
f 123/304/5 43/305/5 46/306/5 128/307/5
f 115/308/5 123/304/5 128/307/5 39/309/5
f 120/310/5 129/311/5 118/312/5 117/313/5 130/314/5 115/308/5 39/309/5 121/315/5 131/316/5 132/317/5 133/318/5 134/319/5
f 48/320/5 120/310/5 134/319/5 49/321/5
f 27/159/68 26/322/69 79/323/70 78/160/68
f 26/322/69 25/324/71 80/325/71 79/323/70
f 25/324/72 24/326/73 81/327/74 80/325/72
f 23/328/75 22/329/76 83/330/77 82/331/78
f 42/174/79 50/173/79 49/332/79 134/333/80 124/334/81
f 36/335/82 110/336/83 91/178/9 37/51/9
f 121/337/9 90/338/9 89/339/9 131/340/9
f 35/341/84 39/342/85 128/343/86 127/344/86
f 127/345/86 128/346/86 46/347/87 45/348/87
f 83/349/77 22/350/76 21/162/88 84/165/88
f 81/327/74 24/326/73 23/328/75 82/331/78
f 111/351/89 126/352/90 106/242/9 108/245/9
f 126/353/90 124/354/81 107/355/9 106/356/9
f 124/357/81 134/358/80 104/359/9 107/355/9
f 132/360/9 109/361/9 105/243/9 133/362/9
f 132/363/9 131/340/9 89/364/9 109/244/9
f 133/365/9 105/243/9 104/366/9 134/367/80
f 73/259/17 113/368/17 116/256/17 66/260/17
f 112/369/17 74/370/17 70/262/17 125/371/17
f 125/372/17 70/373/17 71/374/17 119/375/50
f 119/375/50 71/374/17 68/376/17 120/377/51
f 69/378/17 75/264/17 118/267/17 129/379/17
f 130/380/17 117/266/17 72/258/17 67/381/17
f 115/253/91 130/382/17 67/261/17 64/250/17
f 129/383/17 120/384/51 68/385/17 69/378/17
