# Blender v2.79 (sub 6) OBJ File: 'bailarinaacortados.blend1'
# www.blender.org
mtllib guitarra3_000209.mtl
o Guitarra_2:pPlane4
v -3.072712 18.413479 2.550517
v -3.679268 18.314064 3.285382
v -2.825999 17.780678 3.841532
v -2.219441 17.880093 3.106667
v -2.361027 16.866425 3.975981
v -1.754473 16.965839 3.241115
v -1.668741 13.394130 2.345721
v -2.275299 13.294719 3.080589
v -2.529795 12.588527 2.680748
v -1.923238 12.687938 1.945881
v -3.427726 12.139275 1.819768
v -3.051315 12.182553 1.363327
v -2.822841 12.234183 1.084787
v -4.006286 18.533794 1.816761
v -1.757961 16.058952 2.993036
v -2.023172 15.050887 2.502775
v -1.761730 14.021014 2.438901
v -3.044162 12.272655 0.913524
v -3.364873 12.697829 0.765244
v -3.810674 13.124705 0.514750
v -4.347567 12.985032 0.036296
v -4.825754 13.087398 -0.328527
v -4.949050 13.688846 -0.267105
v -4.879653 14.381278 -0.022913
v -4.903974 14.953139 0.111750
v -5.474634 15.932839 -0.091753
v -5.755358 16.830086 -0.079565
v -5.574729 17.766239 0.321824
v -4.893392 18.351700 1.039380
v -4.609339 18.411587 2.548339
v -3.273894 12.203408 1.193144
v -2.765690 7.760778 1.207264
v -2.404230 7.879849 0.766895
v -2.975502 6.560641 0.408835
v -3.106801 6.347946 0.575725
v -3.162147 6.710967 0.627568
v -3.002005 6.755291 0.432808
v -2.816980 6.612863 0.215707
v -2.619882 6.508345 -0.017491
v -3.643156 12.131967 1.640965
v -3.972030 12.602843 1.498343
v -3.202581 7.745955 0.844650
v -2.190271 6.274376 0.271875
v -2.677189 6.113976 0.865092
v -2.816601 6.109246 0.749382
v -2.329682 6.269647 0.156166
v -2.624819 7.871736 0.588198
v -2.291474 7.918279 0.633304
v -2.732131 7.903327 0.267565
v -2.841122 7.865026 0.404282
v -3.594482 12.646159 1.042842
v -2.014540 6.640089 0.881720
v -2.044166 6.833713 0.909499
v -2.199564 6.782517 1.098822
v -2.173063 6.587869 1.074849
v -2.158057 7.553253 1.017303
v -2.314098 7.505985 1.207240
v -2.284787 7.315925 1.179696
v -2.126700 7.369081 0.987051
v -2.068672 6.996600 0.932365
v -2.105918 7.208067 0.968596
v -2.258383 7.157840 1.154346
v -2.224252 6.945349 1.121910
v -2.173158 6.634707 0.750070
v -2.331680 6.582486 0.943199
v -2.358182 6.777136 0.967172
v -2.202783 6.828329 0.777848
v -2.316674 7.547872 0.885654
v -2.285317 7.363699 0.855402
v -2.443404 7.310543 1.048045
v -2.472715 7.500604 1.075589
v -2.227290 6.991220 0.800715
v -2.382869 6.939966 0.990260
v -2.417000 7.152457 1.022695
v -2.264534 7.202682 0.836946
v -5.499946 18.252285 1.774246
v -6.181287 17.666828 1.056690
v -6.361913 16.730667 0.655301
v -6.081191 15.833426 0.643115
v -5.510529 14.853724 0.846617
v -5.499174 14.206401 0.680907
v -5.555607 13.589433 0.467763
v -5.359132 12.967204 0.460786
v -4.954122 12.885615 0.771164
v -4.417230 13.025289 1.249616
v -2.368286 13.921601 3.173769
v -2.629726 14.951474 3.237643
v -2.364517 15.959538 3.727903
v -2.871111 6.969372 0.266351
v -2.846605 6.806483 0.243486
v -3.026693 6.918120 0.455898
v -2.975597 6.607479 0.084056
v -3.134120 6.555260 0.277186
v -3.160622 6.749907 0.301159
v -3.005222 6.801101 0.111835
v -3.119113 7.520643 0.219640
v -3.087756 7.336471 0.189388
v -3.245844 7.283314 0.382032
v -3.275154 7.473374 0.409576
v -3.029729 6.963991 0.134702
v -3.185310 6.912737 0.324248
v -3.219440 7.125231 0.356682
v -3.066974 7.175456 0.170932
v -2.960496 7.526025 0.351290
v -2.929138 7.341851 0.321038
v -3.087227 7.288695 0.513683
v -3.116537 7.478756 0.541226
v -3.060822 7.130611 0.488332
v -2.908357 7.180838 0.302582
v -3.188632 6.884287 0.652391
v -3.220715 7.096186 0.682384
v -2.576193 7.104073 1.216475
v -2.543548 6.888300 1.185964
v -2.462979 6.369791 1.110089
v -1.976059 6.530190 0.516872
v -2.510863 6.681408 1.155042
v -2.055237 7.048255 0.591089
v -2.086990 7.257874 0.620777
v -2.654518 7.616254 1.289906
v -2.167598 7.776653 0.696688
v -2.673288 6.857993 0.032560
v -2.642944 6.234833 0.925879
v -2.156025 6.395233 0.332662
v -3.298340 7.594408 0.755542
v -2.601983 7.272605 1.240658
v -3.246125 7.252957 0.706590
v -2.887440 6.226538 0.722951
v -2.400523 6.386938 0.129735
v -2.113974 7.425496 0.646435
v -2.027674 6.867500 0.565269
v -2.696182 7.006580 0.054069
v -2.730909 7.236683 0.086502
v -2.759070 7.412425 0.113249
v -2.811421 7.754807 0.162324
vt 0.735914 0.659422
vt 0.789193 0.659422
vt 0.789193 0.715185
vt 0.735914 0.715185
vt 0.816888 0.113382
vt 0.870167 0.107923
vt 0.870167 0.160781
vt 0.816888 0.166240
vt 0.816888 0.369404
vt 0.870167 0.363945
vt 0.870167 0.403590
vt 0.816888 0.409050
vt 0.731155 0.575499
vt 0.677876 0.575499
vt 0.677981 0.505501
vt 0.710850 0.505460
vt 0.731155 0.505418
vt 0.616009 0.468244
vt 0.549850 0.459605
vt 0.494086 0.427645
vt 0.470627 0.374786
vt 0.480954 0.323250
vt 0.511328 0.266468
vt 0.503868 0.207431
vt 0.504109 0.171623
vt 0.530354 0.131977
vt 0.600435 0.107922
vt 0.616009 0.110536
vt 0.634472 0.135319
vt 0.661960 0.160441
vt 0.702327 0.153537
vt 0.735762 0.160278
vt 0.737994 0.194699
vt 0.725284 0.233919
vt 0.720689 0.266468
vt 0.751063 0.323250
vt 0.761390 0.374786
vt 0.737931 0.427645
vt 0.682167 0.459605
vt 0.789193 0.593263
vt 0.735914 0.593263
vt 0.710560 0.489845
vt 0.731155 0.489845
vt 0.808348 0.107923
vt 0.809532 0.357831
vt 0.776995 0.357831
vt 0.775479 0.112321
vt 0.772042 0.359625
vt 0.771570 0.373161
vt 0.810410 0.373121
vt 0.810927 0.360098
vt 0.810927 0.360098
vt 0.772042 0.359625
vt 0.810410 0.373121
vt 0.243136 0.716617
vt 0.243355 0.466708
vt 0.259011 0.466708
vt 0.277557 0.439312
vt 0.274887 0.716617
vt 0.522564 0.515171
vt 0.522564 0.471340
vt 0.532696 0.471340
vt 0.532696 0.515171
vt 0.486970 0.487353
vt 0.486778 0.503228
vt 0.476773 0.503365
vt 0.476773 0.471340
vt 0.486778 0.471477
vt 0.867866 0.659325
vt 0.852251 0.657656
vt 0.851991 0.412147
vt 0.867866 0.412147
vt 0.883742 0.412147
vt 0.886370 0.685053
vt 0.472013 0.506882
vt 0.460953 0.506893
vt 0.460953 0.492905
vt 0.472013 0.492612
vt 0.397163 0.827232
vt 0.396938 0.813240
vt 0.407799 0.813249
vt 0.407740 0.827494
vt 0.343983 0.827371
vt 0.331817 0.826964
vt 0.331817 0.813240
vt 0.343983 0.813366
vt 0.440374 0.506882
vt 0.428846 0.506882
vt 0.428846 0.492612
vt 0.440374 0.492612
vt 0.124689 0.828503
vt 0.124689 0.840031
vt 0.113630 0.840031
vt 0.113630 0.828503
vt 0.244980 0.827228
vt 0.233453 0.827228
vt 0.233453 0.813240
vt 0.244980 0.813240
vt 0.141473 0.828503
vt 0.141473 0.840031
vt 0.130413 0.840031
vt 0.130413 0.828503
vt 0.157623 0.828503
vt 0.157623 0.840031
vt 0.147046 0.840031
vt 0.147046 0.828503
vt 0.376558 0.827485
vt 0.365031 0.827485
vt 0.365031 0.813240
vt 0.376558 0.813240
vt 0.174539 0.828503
vt 0.174539 0.840031
vt 0.163679 0.840031
vt 0.163679 0.828503
vt 0.277555 0.827232
vt 0.266028 0.827232
vt 0.266028 0.813240
vt 0.277555 0.813240
vt 0.310130 0.827245
vt 0.298602 0.827245
vt 0.298602 0.813240
vt 0.310130 0.813240
vt 0.179831 0.825407
vt 0.168303 0.825407
vt 0.168303 0.813240
vt 0.179831 0.813240
vt 0.212405 0.826964
vt 0.200878 0.826964
vt 0.200878 0.813240
vt 0.212405 0.813240
vt 0.163543 0.825406
vt 0.152016 0.825406
vt 0.152016 0.813240
vt 0.163543 0.813240
vt 0.259011 0.107923
vt 0.325170 0.115259
vt 0.380934 0.147220
vt 0.404393 0.200078
vt 0.394066 0.251614
vt 0.363692 0.308396
vt 0.370063 0.345209
vt 0.380997 0.380166
vt 0.373705 0.415909
vt 0.345330 0.421327
vt 0.304962 0.414424
vt 0.173357 0.442887
vt 0.147112 0.403242
vt 0.146870 0.367433
vt 0.154331 0.308396
vt 0.123957 0.251614
vt 0.113630 0.200078
vt 0.137089 0.147220
vt 0.192853 0.115259
vt 0.735914 0.527104
vt 0.735914 0.471340
vt 0.789193 0.471340
vt 0.789193 0.527104
vt 0.847231 0.445787
vt 0.847231 0.498646
vt 0.793953 0.493186
vt 0.793953 0.440328
vt 0.621567 0.504775
vt 0.621567 0.545143
vt 0.568289 0.545143
vt 0.568289 0.504775
vt 0.465791 0.113382
vt 0.465791 0.138503
vt 0.445487 0.137209
vt 0.412617 0.132810
vt 0.412513 0.107923
vt 0.731155 0.471382
vt 0.710850 0.471340
vt 0.443970 0.410115
vt 0.411433 0.410115
vt 0.810927 0.360098
vt 0.772042 0.359625
vt 0.771570 0.373161
vt 0.810410 0.373121
vt 0.456193 0.492623
vt 0.456193 0.506893
vt 0.445134 0.506601
vt 0.445134 0.492612
vt 0.381543 0.813502
vt 0.392120 0.813240
vt 0.392178 0.827485
vt 0.381318 0.827493
vt 0.327057 0.813240
vt 0.327057 0.827245
vt 0.314890 0.827371
vt 0.314890 0.813647
vt 0.412559 0.506882
vt 0.412559 0.492612
vt 0.424086 0.492612
vt 0.424086 0.506882
vt 0.191371 0.841588
vt 0.180311 0.841588
vt 0.180311 0.830061
vt 0.191371 0.830061
vt 0.217165 0.827228
vt 0.217165 0.813240
vt 0.228693 0.813240
vt 0.228693 0.827228
vt 0.208004 0.841588
vt 0.196944 0.841588
vt 0.196944 0.830061
vt 0.208004 0.830061
vt 0.224154 0.841852
vt 0.213577 0.841852
vt 0.213577 0.830325
vt 0.224154 0.830325
vt 0.348743 0.827485
vt 0.348743 0.813240
vt 0.360271 0.813240
vt 0.360271 0.827485
vt 0.241070 0.841852
vt 0.230209 0.841852
vt 0.230209 0.830325
vt 0.241070 0.830325
vt 0.249740 0.827232
vt 0.249740 0.813240
vt 0.261268 0.813240
vt 0.261268 0.827232
vt 0.282315 0.827245
vt 0.282315 0.813240
vt 0.293842 0.813240
vt 0.293842 0.827245
vt 0.135728 0.825407
vt 0.135728 0.813240
vt 0.147256 0.813240
vt 0.147256 0.825407
vt 0.184591 0.826964
vt 0.184591 0.813240
vt 0.196118 0.813240
vt 0.196118 0.826964
vt 0.119441 0.825406
vt 0.119441 0.813240
vt 0.130968 0.813240
vt 0.130968 0.825406
vt 0.810927 0.360098
vt 0.772042 0.359625
vt 0.771570 0.373161
vt 0.810927 0.360098
vt 0.810410 0.373121
vt 0.771570 0.373161
vt 0.772042 0.359625
vt 0.771570 0.373161
vt 0.810410 0.373121
vt 0.810927 0.360098
vt 0.772042 0.359625
vt 0.771570 0.373161
vt 0.772042 0.359625
vt 0.810927 0.360098
vt 0.810410 0.373121
vt 0.810410 0.373121
vt 0.810927 0.360098
vt 0.772042 0.359625
vt 0.771570 0.373161
vt 0.810927 0.360098
vt 0.810410 0.373121
vt 0.771570 0.373161
vt 0.772042 0.359625
vt 0.810410 0.373121
vt 0.810927 0.360098
vt 0.772042 0.359625
vt 0.771570 0.373161
vt 0.772042 0.359625
vt 0.771570 0.373161
vt 0.810410 0.373121
vt 0.870167 0.212317
vt 0.816888 0.217777
vt 0.870167 0.269099
vt 0.816888 0.274559
vt 0.870167 0.328136
vt 0.816888 0.333596
vt 0.810821 0.366019
vt 0.766990 0.366019
vt 0.766990 0.357731
vt 0.771570 0.373161
vt 0.810410 0.373121
vt 0.549018 0.471340
vt 0.563529 0.471340
vt 0.563529 0.515171
vt 0.549018 0.515171
vt 0.537455 0.471340
vt 0.544258 0.471340
vt 0.544258 0.515171
vt 0.537455 0.515171
vt 0.235617 0.724805
vt 0.282406 0.724805
vt 0.235617 0.796017
vt 0.235617 0.778214
vt 0.235617 0.760411
vt 0.235617 0.751510
vt 0.235617 0.742608
vt 0.282406 0.742608
vt 0.282406 0.760411
vt 0.282406 0.769313
vt 0.282406 0.778214
vt 0.282406 0.796017
vt 0.250127 0.803340
vt 0.267896 0.803340
vt 0.253946 0.810143
vt 0.264077 0.810143
vt 0.640837 0.478143
vt 0.644656 0.471340
vt 0.654787 0.471340
vt 0.658606 0.478143
vt 0.626327 0.485467
vt 0.673117 0.485467
vt 0.626327 0.556679
vt 0.626327 0.538876
vt 0.626327 0.521073
vt 0.626327 0.512172
vt 0.626327 0.503270
vt 0.673117 0.503270
vt 0.673117 0.512172
vt 0.673117 0.521073
vt 0.673117 0.538876
vt 0.673117 0.556679
vt 0.633709 0.564967
vt 0.665734 0.564967
vt 0.847231 0.550182
vt 0.793953 0.544723
vt 0.847231 0.606964
vt 0.793953 0.601505
vt 0.847231 0.639513
vt 0.793953 0.638317
vt 0.847231 0.678733
vt 0.847231 0.713154
vt 0.793953 0.709017
vt 0.793953 0.673274
vt 0.453975 0.410015
vt 0.453975 0.418303
vt 0.410144 0.418303
vt 0.772042 0.359625
vt 0.771570 0.373161
vt 0.772042 0.359625
vt 0.771570 0.373161
vt 0.810410 0.373121
vt 0.810927 0.360098
vt 0.517804 0.471340
vt 0.517804 0.515171
vt 0.503293 0.515171
vt 0.503293 0.471340
vt 0.491730 0.515171
vt 0.491730 0.471340
vt 0.498533 0.471340
vt 0.498533 0.515171
vt 0.568289 0.476400
vt 0.621567 0.471340
vt 0.771570 0.373161
vt 0.810410 0.373121
vt 0.810927 0.360098
vt 0.810410 0.373121
vt 0.771570 0.373161
vt 0.772042 0.359625
vt 0.772042 0.359625
vt 0.810927 0.360098
vt 0.810410 0.373121
vt 0.772042 0.359625
vt 0.810927 0.360098
vt 0.771570 0.373161
vt 0.810410 0.373121
vt 0.772042 0.359625
vt 0.810927 0.360098
vt 0.771570 0.373161
vt 0.772042 0.359625
vt 0.810927 0.360098
vt 0.772042 0.359625
vt 0.771570 0.373161
vt 0.810927 0.360098
vt 0.772042 0.359625
vt 0.810927 0.360098
vt 0.810410 0.373121
vt 0.771570 0.373161
vt 0.810927 0.360098
vt 0.772042 0.359625
vt 0.810927 0.360098
vt 0.810410 0.373121
vt 0.771570 0.373161
vt 0.810410 0.373121
vt 0.810927 0.360098
vt 0.772042 0.359625
vt 0.771570 0.373161
vt 0.810410 0.373121
vn 0.3061 0.8767 0.3712
vn 0.6673 0.4289 0.6088
vn 0.6882 -0.5291 0.4965
vn 0.3319 -0.9312 0.1505
vn 0.6210 0.2046 -0.7566
vn -0.0014 0.9889 0.1483
vn 0.0198 -0.9804 -0.1961
vn 0.7695 0.0272 0.6381
vn -0.7692 -0.0261 -0.6384
vn -0.7402 -0.0183 -0.6722
vn -0.8600 0.0281 -0.5096
vn -0.6906 0.0860 -0.7181
vn -0.6202 -0.2000 0.7585
vn 0.1504 -0.9785 -0.1412
vn -0.1565 0.9764 0.1486
vn 0.6203 0.1989 -0.7587
vn 0.7692 0.0261 0.6384
vn -0.6248 -0.1787 0.7601
vn -0.1504 0.9785 0.1412
vn 0.6212 0.2036 -0.7568
vn 0.6171 0.2287 -0.7529
vn 0.1529 -0.9777 -0.1443
vn -0.6209 -0.2054 0.7565
vn -0.1404 0.9817 0.1290
vn -0.6194 -0.2148 0.7551
vn 0.6157 0.2372 -0.7515
vn -0.6210 -0.2047 0.7566
vn -0.4559 0.8508 -0.2612
vn -0.7376 0.3813 -0.5573
vn 0.2141 -0.9758 0.0447
vn -0.4587 -0.7488 -0.4784
vn -0.1851 0.9827 -0.0042
vn -0.5461 -0.6034 -0.5811
vn -0.7678 -0.0355 -0.6398
vn 0.6212 0.2036 -0.7567
vn -0.6194 -0.2147 0.7551
vn -0.7751 0.0182 -0.6315
vn -0.7400 -0.0199 -0.6723
vn 0.8266 0.1333 0.5468
vn 0.6617 0.0776 0.7458
vn 0.7374 0.1743 0.6526
vn 0.7711 -0.1708 0.6134
vn 0.7517 -0.3185 0.5774
vn 0.7483 -0.3353 0.5724
vn 0.7183 -0.4479 0.5323
vn 0.7522 0.1512 0.6413
vn 0.7598 0.1059 0.6414
vn 0.7610 0.0978 0.6414
vn 0.7698 0.0194 0.6380
vn 0.4648 0.6794 0.5678
vn 0.7014 0.4168 0.5782
vn 0.7278 0.2060 0.6542
vn -0.7834 0.1367 -0.6063
vn 0.5696 -0.8207 0.0450
vn 0.5887 -0.7591 0.2780
vn 0.3753 -0.8834 0.2805
vn 0.7444 -0.4562 0.4876
vn -0.6227 -0.1970 0.7572
vn -0.6369 -0.0500 0.7694
vn -0.6227 -0.1972 0.7572
vn -0.6215 -0.2046 0.7563
vn -0.6218 -0.2046 0.7560
vn -0.6143 -0.2489 0.7488
vn -0.6144 -0.2483 0.7489
vn -0.6144 -0.2486 0.7488
vn -0.6144 -0.2487 0.7488
vn -0.6210 -0.2046 0.7566
vn -0.6217 -0.2046 0.7561
vn 0.6211 0.2046 -0.7566
vn -0.7370 -0.2219 -0.6384
vn -0.6860 -0.3839 -0.6181
vn -0.6923 -0.3675 -0.6211
vn -0.6366 -0.4939 -0.5923
vn -0.7667 0.1323 -0.6282
vn -0.7634 0.2108 -0.6105
vn -0.7636 0.2095 -0.6108
vn -0.7872 0.0527 -0.6144
vn -0.5402 -0.6758 -0.5014
vn -0.5366 -0.6802 -0.4993
vn -0.7856 0.0816 -0.6133
vn -0.6702 0.6409 -0.3742
vn -0.7846 0.1506 -0.6015
vn -0.7124 0.3695 -0.5966
vn -0.7752 0.0182 -0.6315
vn -0.7399 -0.0201 -0.6724
vn -0.1115 -0.8419 -0.5280
vn -0.3126 -0.9070 -0.2823
vn -0.3505 -0.7909 -0.5016
vn -0.3506 -0.7909 -0.5015
vn -0.5972 -0.5017 -0.6258
vn -0.0612 -0.9804 -0.1870
vn -0.7756 0.0180 -0.6310
vn 0.7354 0.1823 0.6527
usemtl initialShadingGroup.004
s off
f 1/1/1 2/2/1 3/3/1 4/4/1
f 4/5/2 3/6/2 5/7/2 6/8/2
f 7/9/3 8/10/3 9/11/3 10/12/3
f 10/13/4 9/14/4 11/15/4 12/16/4 13/17/4
f 14/18/5 1/19/5 4/20/5 6/21/5 15/22/5 16/23/5 17/24/5 7/25/5 10/26/5 13/27/5 18/28/5 19/29/5 20/30/5 21/31/5 22/32/5 23/33/5 24/34/5 25/35/5 26/36/5 27/37/5 28/38/5 29/39/5
f 30/40/6 2/2/6 1/1/6 14/41/6
f 13/17/7 12/16/7 31/42/7 18/43/7
f 11/44/8 32/45/8 33/46/8 12/47/8
f 34/48/9 35/49/9 36/50/10 37/51/9
f 38/52/9 39/53/11 35/49/12 34/54/9
f 32/55/13 11/56/13 40/57/13 41/58/13 42/59/13
f 43/60/14 44/61/14 45/62/14 46/63/14
f 47/64/15 33/65/15 48/66/15 49/67/15 50/68/15
f 31/69/16 12/70/16 33/71/16 47/72/16 50/73/16 51/74/16
f 52/75/17 53/76/17 54/77/17 55/78/17
f 56/79/17 57/80/17 58/81/17 59/82/17
f 60/83/17 61/84/17 62/85/17 63/86/17
f 64/87/14 52/88/14 55/89/14 65/90/14
f 65/91/18 55/92/18 54/93/18 66/94/18
f 66/95/19 54/96/19 53/97/19 67/98/19
f 67/99/20 53/100/20 52/101/20 64/102/20
f 68/103/21 56/104/21 59/105/21 69/106/21
f 69/107/22 59/108/22 58/109/22 70/110/22
f 70/111/23 58/112/23 57/113/23 71/114/23
f 71/115/24 57/116/24 56/117/24 68/118/24
f 72/119/14 60/120/14 63/121/14 73/122/14
f 73/123/25 63/124/25 62/125/25 74/126/25
f 74/127/19 62/128/19 61/129/19 75/130/19
f 75/131/26 61/132/26 60/133/26 72/134/26
f 30/135/27 76/136/27 77/137/27 78/138/27 79/139/27 80/140/27 81/141/27 82/142/27 83/143/27 84/144/27 85/145/27 41/58/27 40/57/27 11/56/27 9/146/27 8/147/27 86/148/27 87/149/27 88/150/27 5/151/27 3/152/27 2/153/27
f 29/154/28 28/155/28 77/156/28 76/157/28
f 28/158/29 27/159/29 78/160/29 77/161/29
f 21/162/30 20/163/30 85/164/30 84/165/30
f 20/166/31 19/167/31 51/168/31 41/169/31 85/170/31
f 30/40/32 14/41/32 29/154/32 76/157/32
f 19/171/33 18/43/33 31/42/33 51/172/33
f 41/169/34 51/168/34 50/173/34 42/174/34
f 89/175/9 90/176/9 37/177/9 91/178/9
f 92/179/9 93/180/9 94/181/9 95/182/9
f 96/183/9 97/184/9 98/185/9 99/186/9
f 100/187/9 101/188/9 102/189/9 103/190/9
f 38/191/14 34/192/14 93/193/14 92/194/14
f 34/195/18 37/196/18 94/197/18 93/198/18
f 37/199/19 90/200/19 95/201/19 94/202/19
f 90/203/35 38/204/35 92/205/35 95/206/35
f 104/207/21 105/208/21 97/209/21 96/210/21
f 105/211/22 106/212/22 98/213/22 97/214/22
f 106/215/23 107/216/23 99/217/23 98/218/23
f 107/219/24 104/220/24 96/221/24 99/222/24
f 89/223/14 91/224/14 101/225/14 100/226/14
f 91/227/36 108/228/36 102/229/36 101/230/36
f 108/231/19 109/232/19 103/233/19 102/234/19
f 109/235/26 89/236/26 100/237/26 103/238/26
f 91/178/9 110/239/37 111/240/38 108/241/9
f 106/242/9 105/243/9 109/244/9 108/245/9
f 73/246/17 74/247/17 112/248/17 113/249/17
f 64/250/17 65/251/17 114/252/39 115/253/40
f 65/254/17 66/255/17 116/256/17 114/257/41
f 72/258/17 73/259/17 66/260/17 67/261/17
f 70/262/17 74/263/17 75/264/17 69/265/17
f 72/258/17 117/266/17 118/267/17 75/268/17
s 1
f 6/8/42 5/7/42 88/269/43 15/270/44
f 15/270/44 88/269/43 87/271/45 16/272/45
f 16/272/46 87/271/46 86/273/47 17/274/48
f 17/274/48 86/273/47 8/10/49 7/9/49
f 32/45/50 119/275/51 120/276/52 48/277/50 33/46/50
f 121/278/9 39/53/53 38/52/9 90/279/9
f 114/280/54 122/281/55 123/282/55 115/283/56
f 122/284/55 44/285/57 43/286/57 123/287/55
f 119/288/58 32/55/59 42/59/59 124/289/60
f 114/290/61 116/291/62 113/292/62 112/293/62 125/294/62 119/288/58 124/289/60 126/295/63 111/296/64 110/297/65 36/298/66 35/299/61
f 122/300/67 114/290/68 35/299/68 127/301/67
f 44/302/67 122/300/67 127/301/67 45/303/67
f 123/304/5 43/305/5 46/306/5 128/307/5
f 115/308/69 123/304/5 128/307/5 39/309/69
f 120/310/69 129/311/69 118/312/69 117/313/69 130/314/69 115/308/69 39/309/69 121/315/69 131/316/69 132/317/69 133/318/69 134/319/69
f 48/320/5 120/310/69 134/319/69 49/321/5
f 27/159/70 26/322/71 79/323/72 78/160/70
f 26/322/71 25/324/73 80/325/73 79/323/72
f 25/324/74 24/326/75 81/327/76 80/325/74
f 23/328/77 22/329/78 83/330/79 82/331/80
f 42/174/81 50/173/81 49/332/81 134/333/82 124/334/83
f 36/335/84 110/336/85 91/178/9 37/51/9
f 121/337/9 90/338/9 89/339/9 131/340/9
f 35/341/86 39/342/87 128/343/88 127/344/89
f 127/345/89 128/346/88 46/347/90 45/348/90
f 83/349/79 22/350/78 21/162/91 84/165/91
f 81/327/76 24/326/75 23/328/77 82/331/80
f 111/351/92 126/352/84 106/242/9 108/245/9
f 126/353/84 124/354/83 107/355/9 106/356/9
f 124/357/83 134/358/82 104/359/9 107/355/9
f 132/360/9 109/361/9 105/243/9 133/362/9
f 132/363/9 131/340/9 89/364/9 109/244/9
f 133/365/9 105/243/9 104/366/9 134/367/82
f 73/259/17 113/368/17 116/256/17 66/260/17
f 112/369/17 74/370/17 70/262/17 125/371/17
f 125/372/17 70/373/17 71/374/17 119/375/51
f 119/375/51 71/374/17 68/376/17 120/377/52
f 69/378/17 75/264/17 118/267/17 129/379/17
f 130/380/17 117/266/17 72/258/17 67/381/17
f 115/253/93 130/382/17 67/261/17 64/250/17
f 129/383/17 120/384/52 68/385/17 69/378/17
